G04 ================== begin FILE IDENTIFICATION RECORD ==================*
G04 Layout Name:  E:/nn/GERBER/BOARD/SENTINEL_FALL_V01.brd*
G04 Film Name:    SPT*
G04 File Format:  Gerber RS274X*
G04 File Origin:  Cadence Allegro 17.2-S083*
G04 Origin Date:  Tue Apr 08 22:19:01 2025*
G04 *
G04 Layer:  BOARD GEOMETRY/SPT*
G04 Layer:  BOARD GEOMETRY/BOARD_ NAME*
G04 Layer:  PIN/PASTEMASK_TOP*
G04 Layer:  PACKAGE GEOMETRY/PASTEMASK_TOP*
G04 Layer:  BOARD GEOMETRY/OUTLINE*
G04 *
G04 Offset:    (0.000 0.000)*
G04 Mirror:    No*
G04 Mode:      Positive*
G04 Rotation:  0*
G04 FullContactRelief:  No*
G04 UndefLineWidth:     7.000*
G04 ================== end FILE IDENTIFICATION RECORD ====================*
%FSLAX55Y55*MOIN*%
%IR0*IPPOS*OFA0.00000B0.00000*MIA0B0*SFA1.00000B1.00000*%
%ADD17O,.0085X.0315*%
%ADD16O,.0315X.0085*%
%ADD29R,.181102X.181102*%
%ADD33R,.109055X.025591*%
%ADD30R,.025591X.109055*%
%ADD13R,.133858X.059055*%
%ADD12R,.137795X.03937*%
%ADD26R,.016X.032*%
%ADD28R,.032X.016*%
%ADD10R,.071X.063*%
%ADD14C,.04*%
%ADD11R,.063X.071*%
%ADD18R,.043X.039*%
%ADD15R,.035X.039*%
%ADD22R,.102362X.102362*%
%ADD27R,.032X.032*%
%ADD25R,.034449X.030512*%
%ADD21R,.047244X.05315*%
%ADD20R,.05315X.047244*%
%ADD23R,.011811X.045276*%
%ADD24R,.023622X.045276*%
%ADD19R,.035433X.031496*%
%ADD34R,.025591X.059055*%
%ADD32R,.062992X.03937*%
%ADD31R,.012598X.025984*%
%ADD35C,.007087*%
%ADD36C,.007*%
G75*
%LPD*%
G75*
G36*
G01X51261Y91214D02*
Y85466D01*
X57009D01*
Y91214D01*
X51261D01*
G37*
G36*
G01Y82159D02*
Y76411D01*
X57009D01*
Y82159D01*
X51261D01*
G37*
G36*
G01X60316Y91214D02*
Y85466D01*
X66064D01*
Y91214D01*
X60316D01*
G37*
G36*
G01Y82159D02*
Y76411D01*
X66064D01*
Y82159D01*
X60316D01*
G37*
G54D10*
X28500Y54988D03*
Y66012D03*
X25501Y110786D03*
Y99762D03*
X35000Y110786D03*
Y99762D03*
X40624Y220661D03*
Y209638D03*
X52400Y227888D03*
Y238912D03*
X72300Y36788D03*
X62800D03*
X72300Y47812D03*
X62800D03*
X58663Y112663D03*
X68163D03*
X58663Y123687D03*
X68163D03*
X61800Y238910D03*
Y227887D03*
X107657Y281288D03*
Y292312D03*
X115500Y172988D03*
Y184012D03*
X109400Y224737D03*
Y213713D03*
X125800Y202990D03*
Y214013D03*
X124800Y239210D03*
Y228187D03*
X157800Y270912D03*
Y259888D03*
X180000Y101488D03*
Y112512D03*
X162500Y172176D03*
X180100Y173488D03*
X162500Y183200D03*
X180100Y184512D03*
X172900Y225037D03*
Y214013D03*
X182500Y215012D03*
Y203988D03*
X167400Y259888D03*
Y270912D03*
X164900Y281288D03*
Y292312D03*
X189600Y101488D03*
Y112512D03*
X192500Y203988D03*
Y215012D03*
X205000Y252488D03*
X205500Y242012D03*
Y230988D03*
X205000Y263512D03*
X218200Y63512D03*
Y52488D03*
Y71888D03*
Y82912D03*
X221000Y175488D03*
Y186512D03*
X215000Y242012D03*
Y230988D03*
X215500Y252488D03*
Y263512D03*
G54D20*
X74387Y220800D03*
Y213713D03*
Y227887D03*
X97813Y213713D03*
Y220800D03*
Y227887D03*
X159813Y214013D03*
Y221100D03*
X136387D03*
Y214013D03*
X159813Y228187D03*
X136387D03*
G54D11*
X26088Y87941D03*
Y78300D03*
X25026Y209608D03*
X22912Y272800D03*
X11888D03*
X29228Y295000D03*
X48488Y57500D03*
X37112Y87941D03*
Y78300D03*
X36050Y209608D03*
X51088Y213700D03*
X50488Y273500D03*
X39465D03*
X51276Y305500D03*
X40252D03*
Y295000D03*
X59512Y57500D03*
X62112Y213700D03*
X59988Y273500D03*
X71012D03*
X60567Y297100D03*
X71591D03*
X106526Y49825D03*
X95502Y60625D03*
X106526D03*
X98512Y92000D03*
X87488D03*
X95512Y77000D03*
X84488D03*
X98512Y101500D03*
X87488D03*
X86100Y245900D03*
X97124D03*
X117549Y49825D03*
X128573Y60625D03*
X117549D03*
X154188Y60900D03*
X148512Y248500D03*
X137488D03*
X165212Y60900D03*
X179488Y161500D03*
X180012Y194000D03*
X168988D03*
X190512Y161500D03*
X204988Y275500D03*
X216012D03*
G54D21*
X86100Y209087D03*
Y232513D03*
X148100Y209387D03*
Y232813D03*
G54D12*
X31419Y251237D03*
Y243363D03*
G54D30*
X148500Y16567D03*
X153500D03*
X158500D03*
X148500Y32433D03*
X153500D03*
X158500D03*
X163500Y16567D03*
X168500D03*
Y32433D03*
X163500D03*
G54D31*
X173641Y282665D03*
X176200D03*
X178759D03*
Y290735D03*
X176200D03*
X173641D03*
G54D22*
X86100Y220800D03*
X148100Y221100D03*
G54D13*
X8781Y234111D03*
Y260489D03*
G54D32*
X176200Y286700D03*
G54D23*
X103935Y306380D03*
X101967D03*
X105904D03*
X113778D03*
X109841D03*
X107872D03*
X111810D03*
X115746D03*
X177521D03*
X173584D03*
X171616D03*
X167679D03*
X165710D03*
X169647D03*
X175553D03*
X179490D03*
G54D14*
X38500Y10000D03*
Y321500D03*
X198500Y10000D03*
G54D24*
X96258Y306380D03*
X99408D03*
X121455D03*
X118306D03*
X185198D03*
X182049D03*
X160002D03*
X163151D03*
G54D15*
X53571Y36750D03*
X37429D03*
X53571Y43049D03*
X37429D03*
X63729Y320950D03*
Y314651D03*
X79871D03*
Y320950D03*
X190829Y184550D03*
Y178251D03*
X206971D03*
Y184550D03*
G54D33*
X205367Y106000D03*
Y111000D03*
Y116000D03*
Y126000D03*
Y121000D03*
X221233Y106000D03*
Y111000D03*
Y116000D03*
Y121000D03*
Y126000D03*
G54D34*
X207500Y200370D03*
X202500D03*
Y221630D03*
X207500D03*
X217500Y200370D03*
X212500D03*
Y221630D03*
X217500D03*
G54D25*
X109783Y35561D03*
X115492D03*
Y40089D03*
X109783D03*
G54D16*
X47049Y92474D03*
Y78301D03*
Y76726D03*
Y75151D03*
Y90899D03*
Y89324D03*
Y87750D03*
Y86175D03*
Y84600D03*
Y83025D03*
Y81450D03*
Y79876D03*
X70277Y75151D03*
Y76726D03*
Y78301D03*
Y79876D03*
Y81450D03*
Y83025D03*
Y84600D03*
Y86175D03*
Y87750D03*
Y89324D03*
Y90899D03*
Y92474D03*
G54D35*
G01X1750Y347464D02*
X2150Y347131D01*
X2600Y346931D01*
X3000D01*
X3400Y347131D01*
X3700Y347464D01*
X3850Y347931D01*
X3750Y348398D01*
X3500Y348798D01*
X3050Y349064D01*
X2450Y349198D01*
X2100Y349464D01*
X1950Y349931D01*
X2050Y350398D01*
X2300Y350731D01*
X2650Y350931D01*
X3000D01*
X3350Y350798D01*
X3650Y350464D01*
G01X6509Y346931D02*
X6109Y346998D01*
X5759Y347264D01*
X5459Y347664D01*
X5259Y348131D01*
X5159Y348664D01*
Y349198D01*
X5259Y349731D01*
X5459Y350198D01*
X5759Y350598D01*
X6109Y350864D01*
X6509Y350931D01*
X6909Y350864D01*
X7259Y350598D01*
X7559Y350198D01*
X7759Y349731D01*
X7859Y349198D01*
Y348664D01*
X7759Y348131D01*
X7559Y347664D01*
X7259Y347264D01*
X6909Y346998D01*
X6509Y346931D01*
G01X9217Y350931D02*
Y346931D01*
X11217D01*
G01X12826D02*
Y350931D01*
X13826D01*
X14226Y350731D01*
X14526Y350464D01*
X14776Y350064D01*
X14976Y349598D01*
X15026Y348931D01*
X14976Y348264D01*
X14776Y347798D01*
X14526Y347398D01*
X14226Y347131D01*
X13826Y346931D01*
X12826D01*
G01X18635D02*
X16635D01*
Y350931D01*
X18635D01*
G01X17835Y348998D02*
X16635D01*
G01X20344Y346931D02*
Y350931D01*
X21594D01*
X21994Y350731D01*
X22244Y350464D01*
X22344Y349931D01*
X22244Y349398D01*
X21944Y349064D01*
X21594Y348864D01*
X20344D01*
G01X21594D02*
X22344Y346931D01*
G01X23552Y345598D02*
X26552D01*
G01X27761Y346931D02*
Y350931D01*
X28961D01*
X29361Y350731D01*
X29661Y350264D01*
X29761Y349731D01*
X29661Y349198D01*
X29411Y348798D01*
X28961Y348598D01*
X27761D01*
G01X31220Y346931D02*
X32470Y350931D01*
X33720Y346931D01*
G01X33270Y348331D02*
X31670D01*
G01X35128Y347464D02*
X35528Y347131D01*
X35978Y346931D01*
X36378D01*
X36778Y347131D01*
X37078Y347464D01*
X37228Y347931D01*
X37128Y348398D01*
X36878Y348798D01*
X36428Y349064D01*
X35828Y349198D01*
X35478Y349464D01*
X35328Y349931D01*
X35428Y350398D01*
X35678Y350731D01*
X36028Y350931D01*
X36378D01*
X36728Y350798D01*
X37028Y350464D01*
G01X39887Y350931D02*
Y346931D01*
G01X38737Y350931D02*
X41037D01*
G01X44596Y346931D02*
X42596D01*
Y350931D01*
X44596D01*
G01X43796Y348998D02*
X42596D01*
G01X45804Y345598D02*
X48804D01*
G01X51013Y350931D02*
Y346931D01*
G01X49863Y350931D02*
X52163D01*
G01X54722Y346931D02*
X54322Y346998D01*
X53972Y347264D01*
X53672Y347664D01*
X53472Y348131D01*
X53372Y348664D01*
Y349198D01*
X53472Y349731D01*
X53672Y350198D01*
X53972Y350598D01*
X54322Y350864D01*
X54722Y350931D01*
X55122Y350864D01*
X55472Y350598D01*
X55772Y350198D01*
X55972Y349731D01*
X56072Y349198D01*
Y348664D01*
X55972Y348131D01*
X55772Y347664D01*
X55472Y347264D01*
X55122Y346998D01*
X54722Y346931D01*
G01X57430D02*
Y350931D01*
X58630D01*
X59030Y350731D01*
X59330Y350264D01*
X59430Y349731D01*
X59330Y349198D01*
X59080Y348798D01*
X58630Y348598D01*
X57430D01*
G54D26*
X115875Y89641D03*
X119221D03*
X122568D03*
X125914D03*
X129261D03*
X132607D03*
Y144759D03*
X129261D03*
X125914D03*
X122568D03*
X119221D03*
X115875D03*
X135954Y89641D03*
X139300D03*
X142646D03*
X145993D03*
X149339D03*
X152686D03*
X156032D03*
Y144759D03*
X152686D03*
X149339D03*
X145993D03*
X142646D03*
X139300D03*
X135954D03*
X159379Y89641D03*
X162725D03*
Y144759D03*
X159379D03*
G54D17*
X50001Y72198D03*
X51576D03*
X53151D03*
Y95427D03*
X51576D03*
X50001D03*
X54726Y72198D03*
X56300D03*
X57875D03*
X59450D03*
X61025D03*
X62600D03*
X64174D03*
X65749D03*
X67324D03*
Y95427D03*
X65749D03*
X64174D03*
X62600D03*
X61025D03*
X59450D03*
X57875D03*
X56300D03*
X54726D03*
G54D36*
G01X0Y0D02*
X236213D01*
Y335275D01*
X0D01*
Y0D01*
G54D27*
X111741Y89641D03*
Y144759D03*
X166859Y89641D03*
Y144759D03*
G54D18*
X43854Y111500D03*
X50546D03*
G54D19*
X47566Y251500D03*
X55834Y247760D03*
Y255240D03*
G54D28*
X111741Y117200D03*
Y113854D03*
Y110507D03*
Y107161D03*
Y103814D03*
Y100468D03*
Y97121D03*
Y93775D03*
Y140625D03*
Y137279D03*
Y133932D03*
Y130586D03*
Y127239D03*
Y123893D03*
Y120546D03*
X166859Y93775D03*
Y97121D03*
Y100468D03*
Y103814D03*
Y107161D03*
Y110507D03*
Y113854D03*
Y117200D03*
Y120546D03*
Y123893D03*
Y127239D03*
Y130586D03*
Y133932D03*
Y137279D03*
Y140625D03*
G54D29*
X139300Y117200D03*
M02*
