M48
;Layer_Color=9474304
;FILE_FORMAT=2:4
INCH,TZ
;TYPE=PLATED
T02F00S00C0.0098
T03F00S00C0.0120
T04F00S00C0.0130
T06F00S00C0.0354
;TYPE=NON_PLATED
T07F00S00C0.0236
T08F00S00C0.0390
T09F00S00C0.1260
%
T02
X366Y364
X1813Y307
X1737Y1137
X1245Y2121
X317Y1909
X796Y3400
X1245Y4089
X307Y4094
X2229Y4089
X3213
X3453Y3400
X1737Y3105
X2229Y6058
X2101Y7783
X2822Y8237
X3063Y8238
X3358
Y7972
X3811Y8085
X4076
X3592Y7509
X3358Y8809
X3357Y9329
X3946Y9288
X753Y9011
X307Y7777
X753Y7042
X3327Y307
X4842
X4690Y1137
X4926Y1672
X5302Y1932
X5604
Y1672
X6094
Y1932
X7114
Y1672
X8117Y1620
X8060Y2546
X7504Y3125
X8306Y3500
X8619
X8494Y4265
Y4535
X9007Y4535
X9788Y4537
X9791Y4275
X10055Y4535
X10285Y4920
X10194Y5225
X11002Y5662
X10954Y6325
Y6570
X10978Y7004
X11244Y7145
Y6795
X11826
Y6316
X12023Y6498
X12270Y7129
X12860
X13144Y7424
X12860Y7781
X12270Y7776
X11684Y8395
X10895Y8605
X10856Y8085
X10506Y8067
X10280Y8372
X10425Y8758
X10428Y9169
X10044Y7995
X9561Y8402
X9354Y8235
Y8625
X8469Y8897
X8066Y8565
X7794Y8995
X7244Y9085
X6784Y9065
X6122Y9171
X5607Y8944
X5124Y9097
X4965Y8567
X5191Y8335
X5627Y8273
X5801Y7765
X6395Y8042
X6274Y8537
X7586Y8340
X8364Y7895
X7074Y7435
X6848Y7021
X6943Y6556
X6664Y6555
X6804Y6325
X7074
Y5662
X6799Y5663
X6814Y5125
X7074Y5130
X6958Y4902
X6852Y4380
X7244Y4108
X7794Y4275
X7614Y4475
X7604Y4735
X7984
Y4465
X6238Y4094
X6387Y3381
X4690Y3105
X4728Y2280
X4198Y4089
X5183Y4681
X5313Y5337
X5182Y6058
X4589Y6669
X5647Y7030
X6481Y5981
X7304Y6769
X10354Y7152
X10593Y7520
X10883
X10544Y6165
X11426Y4134
X11950Y4361
X12152Y4169
X12652Y4000
X12860Y4182
Y3800
X12652Y3600
X12394Y3461
X12427Y2715
X12072Y2121
X13056
X14040
X14452Y2329
X14950
X14694Y1769
X14452Y1217
X14949
X15443Y307
X16958
X18472
X18445Y1132
X19453Y1137
X18961Y2121
X19449Y3015
Y3849
X19716Y4554
X19453Y5074
X18469
X17912Y5140
X17977Y6058
X18469Y7042
X17485
X16501
X16176Y8010
X17325Y8615
X16834Y9155
X15595Y9200
X13936Y8950
X13479Y8952
X13274Y9202
X13272Y8700
X13475Y8116
X12466Y8952
X14696Y5601
X15516Y5074
X16501
X15986Y4447
X17109Y4444
X17745Y3063
X16023Y3071
X16009Y2121
X14535Y3019
X14020Y4643
X16009Y6058
X17977Y8026
X18469Y9011
X19453
Y7042
X11559Y3458
X11202Y3461
X11209Y2709
X10363Y2544
X9226Y2529
X9354Y1059
X9613Y817
X9385Y307
X8613Y817
X7871Y307
X6356
X10900
X10863Y1059
X10370
X11043Y1848
X11676Y837
X12414Y307
X13929
X13515Y1308
X4362Y7921
X4435Y8869
X20334Y9205
X19946Y8026
X20930
X21930Y7636
X22406Y7042
X22821Y7237
X23058Y7429
X23323Y7422
X23551Y7614
X23825Y7615
X24061Y7048
X24329Y7042
X24549Y6855
X24823
X25061Y6663
X25323Y6657
X25561Y6473
X25825Y6467
X26075Y6285
X26333
X26117Y5667
X25075Y5654
X24076Y5690
X24075Y6310
X22885Y6316
X23058Y5700
X22129Y5709
X21902Y6307
X20924Y6316
X21422Y7042
X23407Y7043
X23326Y8543
X22839
X23814
X24329
X24834
X25326
X25825
X26326
X26870
X27846Y8533
X28848
X29765Y8583
X29325Y9125
X32797Y8942
X32325Y8058
X32128Y7677
X31952Y6885
X31757Y6058
X32888Y6322
X33297Y5667
X33284Y4747
X33725Y4089
X34709
X34917Y3057
X34709Y2121
X34217Y1137
X33284Y1008
X33617Y307
X35131
X32102
X32249Y1137
X31264
X30280
X30588Y307
X29073
X27559
X27327Y1137
X28312
X27820Y2121
X27802Y3040
X27820Y4089
X28804
X28634Y3449
X29788Y4089
X30772
X31757
X31186Y3450
X30223Y3043
X30772Y2121
X31757
X32888Y2582
X32663Y3040
X33151Y3464
X32249Y5074
X31264
X30280
X29296
X28312
X27327
X26835Y4089
X26075Y4262
Y3464
X25575Y3449
X25071Y3444
X24575Y3447
X24129Y3169
X24326Y2539
X24826Y2530
X25326Y2539
X25826
X26326
X26715Y3057
X26835Y2121
X26634Y1793
X26326Y1004
X25826
X25326
X25061Y1900
X23814Y1701
X23826Y1005
X22826Y1005
X22326
X21826Y1004
X21812Y1784
X21826Y2900
X21599Y3169
X21189Y3640
Y4179
X20553Y4069
X20552Y3647
X19929Y3698
Y3416
X20113Y3213
X20434Y3012
X20820
X20918Y2703
X20930Y2121
X20536Y2131
X19946Y2121
X20438Y1137
X19987Y307
X21501
X23016
X24530
X26044
X25071Y4393
X24589Y5074
X25594Y5070
X23390Y5074
X22406
X22230Y4182
X22325Y3712
X22898Y4089
X23883
X23058Y3177
X22326Y2700
X20474Y4625
X20470Y5059
X20769
X19929Y4810
X19946Y6058
X21914Y8711
X34018Y9189
X34565Y9179
X35264Y8942
X35088Y6058
X34217Y5074
X33704Y6865
X36638Y6823
X36931Y6322
X36416Y5606
X35942Y4747
X35694Y4089
X36678
X37169Y3486
X36178Y3449
X38290
X38646Y4089
X39631
X39473Y3449
X40252Y3105
X40356Y2582
X40615Y4089
X41568Y3900
X42583Y4089
X43191Y4547
Y3140
Y1361
X43013Y307
X41363
X39675
X39982Y1008
X39138Y1137
X38154
X38160Y307
X36646
X37324Y1008
X35942
X38646Y2121
X39138Y5074
X38523Y5450
X39451Y5829
X39982Y4748
X40946Y5450
X41556Y5965
X42583Y6058
X43200Y5965
Y7539
X42583Y8026
X41599
X40615
X40811Y8535
X41084Y9334
X42091Y9011
X43200Y9065
X42091Y7042
X41083Y7441
X40123Y7042
X38599Y6823
X38404Y8942
X36957
X37324Y4748
X42091Y5074
X42462Y9774
X41464Y10127
X41660Y10524
X41898Y11229
X41547Y11549
X41951Y11980
Y12591
X41547Y12482
X41360Y12659
X41173Y12837
X40986Y12659
X40799Y12482
X40457Y12207
X40199Y12207
X39943
X39682Y12207
X39422
X40199Y12591
Y12866
X40415Y12728
X41171Y13218
X41391Y13388
X41215Y13678
X41411Y13843
X41020Y13843
X40760Y13646
X40925Y14321
X40732Y14467
X40876Y14656
X40582Y14687
X41182Y14500
X41645Y14421
X41641Y15004
X42148Y14746
X42522Y15054
X42896Y14746
X43221Y14717
X43212Y15484
Y16350
X43204Y17118
X42810Y16739
X42091Y16885
X41790Y16445
X41841Y15720
X42474Y15907
X41168Y16137
X40823Y16739
X40140Y16833
X40206Y16514
X40210Y15878
X40012Y15317
Y15057
X39092Y15797
X38852Y15917
X38612Y15757
X38352
X38082Y16377
X37432Y16367
X37102
X36604
X36842Y16097
X37001Y15294
X37512Y15447
X37762Y15357
X36378Y14870
Y14587
Y14330
X36354Y13014
X36971
X37217
X36972Y13387
X35705Y13016
X35959Y11630
X37216Y11636
X37219Y11119
X37621Y11370
X37762Y11755
X38157Y10864
Y10274
X38159Y9674
X38595Y9874
X38811Y9675
X38811Y10285
X38811Y10864
X40442Y11098
X40439Y11396
X40982Y11931
X41063Y10934
X40811Y10124
X42503Y11102
X43193Y10553
X43198Y12030
X42733Y12197
X42504Y12652
X42522Y13157
X42896Y13381
X43224Y13280
X43224Y13527
X43036Y12796
X41880Y13079
X42144Y13381
X41665Y13699
X41411Y17446
X40140Y17374
Y17872
X40123Y18853
X41012Y18849
X42091Y18853
X43196Y18752
X43204Y17984
X42583Y17869
Y19837
X42091Y20822
X43194Y20748
X43186Y21516
Y22382
X43178Y23150
Y23661
X42583Y23774
X42736Y24213
X43001Y24696
X41473Y24656
X41599Y23774
X40615
X39631
X38646
X37662
X36678
X35694
Y21806
X36678
X37662
X37170Y20822
X36186
X35694Y19837
X36678
X37662
X38646
X39631
X40615
X40123Y20822
X39138
X38154
X38969Y22354
X38959Y22944
X40174Y23188
Y21888
X41055Y22659
X42097Y22560
X42274Y23188
Y21888
X39958Y24656
X38444
X36929
X37690Y18853
X37879Y17953
X36980Y17945
X36688Y18277
X35701Y18168
X36054Y16409
X38662Y16507
X39092Y16577
X39094Y16833
X39581Y17374
X38872Y17961
X39138Y18853
X37541Y9547
X36467Y9500
X35449Y9413
X35264Y10118
X34626Y9713
X34112Y10195
X33808Y9984
X33484Y10195
X33484Y10805
Y11418
X33533Y11840
X34112Y11416
X34112Y10805
X34694Y11630
X34711Y12378
X33491Y13032
X31931Y12953
X31757Y11963
X32519Y12138
X32411Y11027
X32521Y10329
X32521Y10041
Y9774
X33280Y9609
X31746Y9570
X31155
X30683Y9571
X31350Y10195
X31264Y10979
X31749Y10834
X30199Y10945
X29325Y11119
X29325Y11380
X28899Y11850
X29805
X30433Y12096
X30710Y11772
X30750Y13976
X31155Y14587
X31350Y14406
X31731Y14781
X31538Y14976
X30280Y14916
X30335Y16085
X29834Y16587
X29332Y16376
Y16130
X28804Y15294
X29321Y14459
Y14202
X29786Y13418
X28821Y13436
X27820Y13932
X26835
X25849Y13546
X25332Y13533
X24834
X24325
X23839
X23334
X22852
X22839Y13043
X22571Y13041
X21792Y13164
X20788Y13141
X19979Y13077
X20335Y14213
Y14459
X21319
X21004Y15020
X20326Y15585
X20335Y15876
X21339Y16043
X21422Y16885
X21427Y17776
X20829Y18212
X19963Y18189
X19979Y16902
X22406Y16885
X23390
X24375
X24429Y15532
X24321Y15000
X23337
X23425Y15532
X22421Y15541
X22334Y15003
X25335Y15006
X26325
X27334Y15011
X27333Y15650
X26752Y15638
X25738Y15636
X25851Y17869
X26467Y17504
X26767Y18086
X27842Y18068
X28804Y17966
X29023Y17751
X29834Y18877
X29332Y19380
X29331Y19754
X28821Y20000
X27846
X26842
X25858
X24834
X23268Y20030
X22205Y20024
X22334Y19204
X21929Y19203
X21703Y19508
X21325Y19450
X20817Y19446
X20326Y19450
Y19178
X19929Y20344
X20728Y20463
X20994Y21752
X20326Y21743
X20438Y22790
X21422
X22406
X23390
X24375
X25359
X26343
X27327
X28312
X29296
X30280
X31264
X32249
X31757Y23774
X30772
X30871Y24656
X32386
X32741Y23774
X33725
X34709
X34217Y22790
X33723Y21567
X32741Y21535
X31763Y21543
X30751
X31264Y20822
X32249
X33233
X34118Y20297
X34016Y20043
X34575
X34490Y20297
X35201Y20822
X34883Y21567
X35201Y18853
X34564Y18161
X34016Y18533
X33484Y18142
X33233Y18853
X32249
X31264
X31773Y18150
X30532Y18310
X30772Y19837
X31757
X32741
X32916Y16409
X33156
X33437Y16085
X34031
X33506Y15236
X33694Y14978
X33894Y14789
X32096Y16648
X27756Y16778
X27149Y17136
X24867Y17869
X23883
X22898
Y18746
X22687Y18986
X23334Y18720
X23012Y21722
X23996
X24990Y21734
X26004Y21713
X27001
X27985
X29016
X29335Y20805
X29331Y20541
X29788Y23774
X28804
X27820
X27842Y24656
X29357
X26328
X25851Y23774
X26835
X24867
X24813Y24656
X23299
X22898Y23774
X21914
X20930
X19946
X20270Y24656
X21784
X23883Y23774
X22008Y21725
X21914Y11963
X20930
X20334Y10791
Y10545
X19848Y9976
X20334Y9451
X21270Y9973
X22205Y9977
X22421Y10541
X23425
X23297Y9973
X24350Y9957
X24419Y10541
X25423Y10545
X25359Y9953
X26835Y10004
X27820Y9995
X28804Y10016
X29765Y10000
X29325Y9381
X27820Y11840
X26842Y11870
X25815
X25325Y12096
X25061Y12065
X24872Y12283
X24326Y12472
X23839Y12663
X23329Y12852
X23093Y11963
X24131
X33900Y24656
X35415
X18755
X18961Y23774
X19453Y22790
X18356Y22274
X18644Y21741
X17828Y21743
X16825
X16289Y22274
X15812Y21579
X14616Y21716
X14293Y21774
X14532Y22790
X13548
X14040Y23774
X15024
X16009
X15726Y24656
X14212
X12697
X12170Y24437
X12172Y24200
X12170Y23284
X12172Y23037
X11170Y23031
Y23284
X10170
Y23031
X10676Y22555
X11074Y21871
X10030Y21688
X10482Y21121
X10703Y20664
X10211Y20024
X11447Y20020
X12306Y20024
X12501Y20260
X12445Y20664
X12202
X11949Y21024
X11981Y22214
X13056Y21806
X13061Y19862
X13548Y18853
X12564
X13056Y17869
X12564Y16885
X13905Y16855
X13056Y15900
X13548Y14764
X13056Y13932
X12072
X11200
X10154
X9119
X8135
X7215
X6142
X5182
X4198
X4690Y12948
X5674
X6153Y11963
X5182
X4198
X4647Y11181
X4615Y10443
X5006Y10436
X5004Y10095
X5663Y9877
X6166Y9995
X6797Y9768
X7251Y9950
X7991Y9960
Y9698
X7704Y9548
X8188Y10443
X7642Y10979
X8135Y11963
X9119
X9177Y10631
X9352Y10443
X9638Y10443
X9952
X10267
X10590Y10442
X10931Y10436
X10614Y9586
X11667Y9451
X12466Y9950
X13479
X13477Y10392
X13274Y9700
X13479Y9450
X14501Y9700
X15231Y9950
X16023Y9834
X15778Y9450
X16834Y9427
X17325Y10000
X16834Y10586
Y10875
X17834
X17828Y10585
X18469Y10979
X19453
X19569Y12205
X19451Y12756
X18805Y12609
X18803Y12221
X17807Y11849
X17325Y11481
X16290Y11521
X14905Y11993
X15748Y12884
X16009Y13932
X15024
X15516Y14916
X16009Y15900
X16834Y15875
Y15586
X17828Y15585
X17834Y15875
X18249Y16432
X17325Y16611
X16380Y16634
X16341Y18036
X16831Y18550
Y18799
X16341Y19093
X17325Y19417
X17825Y20260
X16825
X15817Y20054
X14905Y20323
X14242Y19370
X14857Y17836
X17433Y18042
X18012Y18177
X18469Y18853
X18809Y18848
X19453Y18853
X19450Y17790
X19569Y17244
X18803Y17266
X18805Y17654
X19418Y16538
X18851Y15681
X18469Y14916
X19453
X18836Y13621
X17862Y13157
X17163Y13054
X16834Y14125
Y14397
X17295Y14950
X13557Y12942
X12564Y12948
X11579
X12072Y11963
X13056
X12564Y10979
X9441Y9960
Y9698
X9177Y9614
X9611Y12948
X8627
X7642
Y14916
X8627
X9611
X9065Y16088
X8531Y15888
X8346Y16766
X8733Y16766
X9367Y17124
X9505Y17951
X9790Y17951
X10663Y17863
X11110Y17062
X10758Y16412
X10521
X10758Y16088
X10956Y15809
X11579Y14916
X10902Y18926
X9879Y19093
X9429
X8897Y20132
X8435Y19768
X8149
X7833Y19596
X7531Y19588
X7733Y19346
X7608Y20054
X7923Y20064
X7214Y20054
X6821
Y20349
Y20684
Y20979
Y21274
X7214
X7608
X7923Y21271
X7987Y22154
X8748Y22048
X9037Y21724
X9202Y22850
X9119Y23774
X8135
X7150
X7077Y24656
X6166Y23774
X6658Y22790
X6954Y22214
X6071Y21925
X5182Y21806
X5016Y20480
X4652Y20817
X5946Y20260
X5392Y19587
X6527Y19588
X6456Y18804
Y18567
X6220
Y18804
X5614Y18627
X5354Y18290
X5525Y17836
X5629Y17212
X6142Y16886
X6351Y16671
X6567Y16491
X6771Y17033
X7036Y16056
X7704Y16460
X5182Y15900
X5674Y14916
X4690
Y16885
X4198Y17869
X4210Y19260
X5020Y24656
X9759
X10699
X11652
X13056Y23774
X15516Y22790
X17241Y24656
X18860Y19921
X18834Y9977
X5828Y10669
X3946Y10095
X3358Y9990
Y10758
Y11024
X3063Y10758
X2823Y10758
X2101Y11190
X2229Y11963
X1245
X307
X753Y12948
X307Y13932
X1245
X2229
X3213
X2721Y14916
X3213Y15900
X2229
X1245
X307Y15888
X753Y14916
Y16885
X307Y17876
X1245Y17869
X2229
X3213
X2721Y16885
X3705
Y18853
X2721
X3213Y19837
X2229
X1245
X307Y19836
X753Y18853
Y20822
X1245Y21806
X440Y22340
Y23299
X480Y24500
X2229Y23774
X1783Y22717
X3158Y22830
X2894Y24656
X3705Y20822
X3979Y20312
X2721Y12948
X3213Y11963
X991Y10825
X1245Y9995
X307
X2152Y9548
T03
X8055Y5537
Y6010
Y6482
Y6954
X8580
Y6482
Y6010
Y5537
X9105
Y6010
Y6482
Y6954
X9630
Y6482
Y6010
Y5537
X35735Y10028
X36128
X36522
Y10422
Y10815
X36128
Y10422
X35735
Y10815
Y11209
X36128
X36522
X8520Y17577
X8048
Y18050
X8520
Y18522
X8048
X7576
Y18050
Y17577
T04
X38112Y13280
X38585
Y13752
X38112
Y14224
Y14697
X38585
Y14224
X39057
Y14697
X39530
Y14224
Y13752
X39057
Y13280
X39530
T06
X36218Y18457
X37218
X38218
T07
X2527Y8360
Y10636
T08
X8113Y1067
X11113Y1467
Y667
T09
X3151Y1969
X17325
X41734Y1969
X44529Y23031
X17325Y23031
X4962
M30
