G04 ================== begin FILE IDENTIFICATION RECORD ==================*
G04 Layout Name:  E:/nn/GERBER/BOARD/SENTINEL_FALL_V01.brd*
G04 Film Name:    SLB*
G04 File Format:  Gerber RS274X*
G04 File Origin:  Cadence Allegro 17.2-S083*
G04 Origin Date:  Tue Apr 08 22:19:01 2025*
G04 *
G04 Layer:  REF DES/SILKSCREEN_BOTTOM*
G04 Layer:  PACKAGE GEOMETRY/SILKSCREEN_BOTTOM*
G04 Layer:  BOARD GEOMETRY/SILKSCREEN_BOTTOM*
G04 Layer:  BOARD GEOMETRY/DESIGN_OUTLINE*
G04 Layer:  BOARD GEOMETRY/OUTLINE*
G04 Layer:  BOARD GEOMETRY/BOARD_ NAME*
G04 *
G04 Offset:    (0.000 0.000)*
G04 Mirror:    No*
G04 Mode:      Positive*
G04 Rotation:  0*
G04 FullContactRelief:  No*
G04 UndefLineWidth:     7.000*
G04 ================== end FILE IDENTIFICATION RECORD ====================*
%FSLAX55Y55*MOIN*%
%IR0*IPPOS*OFA0.00000B0.00000*MIA0B0*SFA1.00000B1.00000*%
%ADD10C,.005*%
%ADD11C,.00709*%
%ADD12C,.007091*%
%ADD13C,.003937*%
%ADD14C,.007087*%
%ADD15C,.008268*%
%ADD16C,.007874*%
%ADD17C,.007*%
G75*
%LPD*%
G75*
G36*
G01X8518Y55300D02*
G03I-1118J0D01*
G37*
G36*
G01X73118Y174500D02*
G03I-1118J0D01*
G37*
G36*
G01X115500Y168000D02*
G03I-2000J0D01*
G37*
G36*
G01X160600Y67100D02*
G03I-1500J0D01*
G37*
G36*
G01X160128Y51813D02*
G03I-1500J0D01*
G37*
G36*
G01X153128Y60100D02*
G03I-1500J0D01*
G37*
G36*
G01X136200Y234100D02*
G03I-1500J0D01*
G37*
G36*
G01X167600Y58700D02*
G03I-1500J0D01*
G37*
G36*
G01X206000Y93500D02*
G03I-2000J0D01*
G37*
G36*
G01X192650Y241000D02*
G03I-3150J0D01*
G37*
G54D10*
G01X41689Y170565D02*
X40872D01*
Y153635D01*
X41689D01*
G01X50311D02*
X51128D01*
Y170565D01*
X50311D01*
G01X60563Y167965D02*
Y164697D01*
X63614D01*
G01Y176114D02*
X60563D01*
Y172846D01*
G01X153913Y246974D02*
X155074D01*
Y245813D01*
G01X153913Y231226D02*
X155074D01*
Y232387D01*
G01X140487Y246974D02*
X139326D01*
Y245813D01*
G01X140487Y231226D02*
X139326D01*
Y232387D01*
G01X179110Y197364D02*
X183836D01*
Y222836D01*
X179110D01*
G01X163090D02*
X158364D01*
Y197364D01*
X163090D01*
G54D11*
G01X122851Y18374D02*
G03I-3150J0D01*
G54D12*
G01X29780Y16000D02*
G03I-13780J0D01*
G01Y319275D02*
G03I-13780J0D01*
G01X233993Y16000D02*
G03I-13780J0D01*
G01Y319275D02*
G03I-13780J0D01*
G54D13*
G01X154471Y34970D02*
X134786D01*
G01D02*
X154471D01*
G01Y54655D02*
X134786D01*
G01D02*
X154471D01*
G01Y47765D02*
Y41860D01*
G01D02*
Y47765D01*
G01X134786D02*
Y41860D01*
G01D02*
Y47765D01*
G01X154471Y64258D02*
Y83942D01*
G01D02*
Y64258D01*
G01X147581D02*
X141676D01*
G01D02*
X147581D01*
G01X134786D02*
Y83942D01*
G01D02*
Y64258D01*
G01X147581Y83942D02*
X141676D01*
G01D02*
X147581D01*
G01X163258Y54542D02*
Y34858D01*
G01D02*
Y54542D01*
G01X170147Y34858D02*
X176053D01*
G01D02*
X170147D01*
G01X182942Y54542D02*
Y34858D01*
G01D02*
Y54542D01*
G01X170147D02*
X176053D01*
G01D02*
X170147D01*
G01X163258Y64258D02*
X182942D01*
G01D02*
X163258D01*
G01Y71147D02*
Y77053D01*
G01D02*
Y71147D01*
G01X182942D02*
Y77053D01*
G01D02*
Y71147D01*
G01X163258Y83942D02*
X182942D01*
G01D02*
X163258D01*
G01X204242Y43682D02*
Y41103D01*
G01D02*
Y43682D01*
G01X236211Y41103D02*
X204242D01*
G01D02*
X236211D01*
G01X204242Y89095D02*
Y86004D01*
G01D02*
Y89095D01*
G01D02*
X236211D01*
G01D02*
X204242D01*
G01X236211Y88957D02*
Y41103D01*
G01D02*
Y88957D01*
G54D14*
G01X7450Y104667D02*
X7100Y105133D01*
X6800Y105400D01*
X6400Y105533D01*
X6050Y105400D01*
X5800Y105133D01*
X5600Y104733D01*
X5550Y104267D01*
X5600Y103867D01*
X5800Y103467D01*
X6100Y103133D01*
X6450Y103000D01*
X6850Y103133D01*
X7200Y103533D01*
X7400Y104133D01*
X7450Y104800D01*
X7350Y105667D01*
X7200Y106133D01*
X6950Y106600D01*
X6600Y106933D01*
X6250Y107000D01*
X5900Y106867D01*
X5650Y106533D01*
G01X91276Y191287D02*
Y289713D01*
X725D01*
Y191287D01*
X91276D01*
G01X20000Y292000D02*
Y296000D01*
X20600Y295200D01*
G01Y292000D02*
X19400D01*
G01X1223Y347631D02*
X1623Y347298D01*
X2073Y347098D01*
X2473D01*
X2873Y347298D01*
X3173Y347631D01*
X3323Y348098D01*
X3223Y348564D01*
X2973Y348964D01*
X2523Y349231D01*
X1923Y349364D01*
X1573Y349631D01*
X1423Y350098D01*
X1523Y350564D01*
X1773Y350898D01*
X2123Y351098D01*
X2473D01*
X2823Y350964D01*
X3123Y350631D01*
G01X5381Y351098D02*
X6581D01*
G01X5981D02*
Y347098D01*
G01X5381D02*
X6581D01*
G01X8690Y351098D02*
Y347098D01*
X10690D01*
G01X12299D02*
Y351098D01*
G01X14199D02*
X12299Y348631D01*
G01X14499Y347098D02*
X13149Y349764D01*
G01X16058Y347631D02*
X16458Y347298D01*
X16908Y347098D01*
X17307D01*
X17708Y347298D01*
X18008Y347631D01*
X18158Y348098D01*
X18058Y348564D01*
X17808Y348964D01*
X17357Y349231D01*
X16758Y349364D01*
X16408Y349631D01*
X16258Y350098D01*
X16358Y350564D01*
X16608Y350898D01*
X16958Y351098D01*
X17307D01*
X17658Y350964D01*
X17958Y350631D01*
G01X21916Y350764D02*
X21616Y350964D01*
X21266Y351098D01*
X20866D01*
X20416Y350898D01*
X20066Y350564D01*
X19816Y350164D01*
X19616Y349498D01*
X19566Y348898D01*
X19666Y348298D01*
X19816Y347898D01*
X20116Y347498D01*
X20466Y347231D01*
X20816Y347098D01*
X21166D01*
X21516Y347231D01*
X21816Y347431D01*
X22066Y347698D01*
G01X23525Y347098D02*
Y351098D01*
X24775D01*
X25175Y350898D01*
X25425Y350631D01*
X25525Y350098D01*
X25425Y349564D01*
X25125Y349231D01*
X24775Y349031D01*
X23525D01*
G01X24775D02*
X25525Y347098D01*
G01X29234D02*
X27234D01*
Y351098D01*
X29234D01*
G01X28434Y349164D02*
X27234D01*
G01X32942Y347098D02*
X30942D01*
Y351098D01*
X32942D01*
G01X32142Y349164D02*
X30942D01*
G01X34501Y347098D02*
Y351098D01*
X36801Y347098D01*
Y351098D01*
G01X37860Y345764D02*
X40860D01*
G01X43468Y349231D02*
X43668Y349431D01*
X43818Y349764D01*
X43918Y350231D01*
X43818Y350631D01*
X43618Y350898D01*
X43268Y351098D01*
X41918D01*
Y347098D01*
X43568D01*
X43918Y347364D01*
X44118Y347764D01*
X44218Y348231D01*
X44118Y348698D01*
X43818Y349098D01*
X43468Y349231D01*
X41918D01*
G01X46777Y347098D02*
X46377Y347164D01*
X46027Y347431D01*
X45727Y347831D01*
X45527Y348298D01*
X45427Y348831D01*
Y349364D01*
X45527Y349898D01*
X45727Y350364D01*
X46027Y350764D01*
X46377Y351031D01*
X46777Y351098D01*
X47177Y351031D01*
X47527Y350764D01*
X47827Y350364D01*
X48027Y349898D01*
X48127Y349364D01*
Y348831D01*
X48027Y348298D01*
X47827Y347831D01*
X47527Y347431D01*
X47177Y347164D01*
X46777Y347098D01*
G01X50486Y351098D02*
Y347098D01*
G01X49336Y351098D02*
X51636D01*
G01X54194D02*
Y347098D01*
G01X53045Y351098D02*
X55345D01*
G01X57903Y347098D02*
X57503Y347164D01*
X57153Y347431D01*
X56853Y347831D01*
X56653Y348298D01*
X56553Y348831D01*
Y349364D01*
X56653Y349898D01*
X56853Y350364D01*
X57153Y350764D01*
X57503Y351031D01*
X57903Y351098D01*
X58303Y351031D01*
X58653Y350764D01*
X58953Y350364D01*
X59153Y349898D01*
X59253Y349364D01*
Y348831D01*
X59153Y348298D01*
X58953Y347831D01*
X58653Y347431D01*
X58303Y347164D01*
X57903Y347098D01*
G01X60312D02*
Y351098D01*
X61612Y347764D01*
X62912Y351098D01*
Y347098D01*
G01X54309Y35000D02*
Y32133D01*
X54109Y31533D01*
X53709Y31133D01*
X53209Y31000D01*
X52709Y31133D01*
X52309Y31533D01*
X52109Y32133D01*
Y35000D01*
G01X49500Y31000D02*
Y35000D01*
X50100Y34200D01*
G01Y31000D02*
X48900D01*
G01X46891Y31600D02*
X46591Y31267D01*
X46241Y31067D01*
X45791Y31000D01*
X45341Y31133D01*
X44991Y31400D01*
X44741Y31867D01*
X44691Y32400D01*
X44791Y32933D01*
X45041Y33267D01*
X45391Y33533D01*
X45741Y33600D01*
X46091Y33533D01*
X46541Y33267D01*
X46391Y35000D01*
X45041D01*
G01X42609Y130167D02*
X42909Y130367D01*
X43259Y130500D01*
X43659D01*
X44109Y130300D01*
X44459Y129967D01*
X44709Y129567D01*
X44909Y128900D01*
X44959Y128300D01*
X44859Y127700D01*
X44709Y127300D01*
X44409Y126900D01*
X44059Y126633D01*
X43709Y126500D01*
X43359D01*
X43009Y126633D01*
X42709Y126833D01*
X42459Y127100D01*
G01X40950Y129833D02*
X40650Y130233D01*
X40300Y130433D01*
X39900Y130500D01*
X39400Y130367D01*
X39050Y130033D01*
X38950Y129633D01*
X39000Y129233D01*
X39200Y128900D01*
X40200Y128233D01*
X40650Y127767D01*
X40950Y127100D01*
X41050Y126500D01*
X38950D01*
G01X37141Y126967D02*
X36791Y126633D01*
X36391Y126500D01*
X35991Y126633D01*
X35641Y127033D01*
X35391Y127633D01*
X35291Y128233D01*
Y128967D01*
X35391Y129567D01*
X35641Y130100D01*
X35941Y130367D01*
X36291Y130500D01*
X36691Y130367D01*
X36991Y130100D01*
X37191Y129700D01*
X37291Y129167D01*
X37191Y128700D01*
X36941Y128233D01*
X36641Y127967D01*
X36291Y127900D01*
X35891Y128033D01*
X35591Y128367D01*
X35291Y128967D01*
G01X50462Y132450D02*
X30738D01*
Y141950D01*
X50462D01*
Y132450D01*
G01X35000Y159546D02*
X39000D01*
Y160546D01*
X38800Y160946D01*
X38533Y161246D01*
X38133Y161496D01*
X37667Y161696D01*
X37000Y161746D01*
X36333Y161696D01*
X35867Y161496D01*
X35467Y161246D01*
X35200Y160946D01*
X35000Y160546D01*
Y159546D01*
G01X38333Y163404D02*
X38733Y163704D01*
X38933Y164054D01*
X39000Y164454D01*
X38867Y164954D01*
X38533Y165304D01*
X38133Y165404D01*
X37733Y165354D01*
X37400Y165154D01*
X36733Y164154D01*
X36267Y163704D01*
X35600Y163404D01*
X35000Y163304D01*
Y165404D01*
G01X52454Y188000D02*
Y185133D01*
X52254Y184533D01*
X51854Y184133D01*
X51354Y184000D01*
X50854Y184133D01*
X50454Y184533D01*
X50254Y185133D01*
Y188000D01*
G01X47746Y184000D02*
X47646Y184867D01*
X47496Y185600D01*
X47296Y186267D01*
X47046Y187000D01*
X46646Y188000D01*
X48646D01*
G01X32854Y185000D02*
Y189000D01*
X33454Y188200D01*
G01Y185000D02*
X32254D01*
G01X30096Y188333D02*
X29796Y188733D01*
X29446Y188933D01*
X29046Y189000D01*
X28546Y188867D01*
X28196Y188533D01*
X28096Y188133D01*
X28146Y187733D01*
X28346Y187400D01*
X29346Y186733D01*
X29796Y186267D01*
X30096Y185600D01*
X30196Y185000D01*
X28096D01*
G01X47250Y177500D02*
X46000Y181500D01*
X44750Y177500D01*
G01X45200Y178900D02*
X46800D01*
G01X32500Y292541D02*
X28500Y293791D01*
X32500Y295041D01*
G01X32167Y298600D02*
X32367Y298300D01*
X32500Y297950D01*
Y297550D01*
X32300Y297100D01*
X31967Y296750D01*
X31567Y296500D01*
X30900Y296300D01*
X30300Y296250D01*
X29700Y296350D01*
X29300Y296500D01*
X28900Y296800D01*
X28633Y297150D01*
X28500Y297500D01*
Y297850D01*
X28633Y298200D01*
X28833Y298500D01*
X29100Y298750D01*
G01X32167Y302309D02*
X32367Y302009D01*
X32500Y301659D01*
Y301259D01*
X32300Y300809D01*
X31967Y300459D01*
X31567Y300209D01*
X30900Y300009D01*
X30300Y299959D01*
X29700Y300059D01*
X29300Y300209D01*
X28900Y300509D01*
X28633Y300859D01*
X28500Y301209D01*
Y301559D01*
X28633Y301909D01*
X28833Y302209D01*
X29100Y302459D01*
G01X48500Y293146D02*
X52500D01*
Y294396D01*
X52300Y294796D01*
X52033Y295046D01*
X51500Y295146D01*
X50967Y295046D01*
X50633Y294746D01*
X50433Y294396D01*
Y293146D01*
G01Y294396D02*
X48500Y295146D01*
G01Y296804D02*
X52500Y298904D01*
G01Y296804D02*
X48500Y298904D01*
G01X38500Y292291D02*
X42500D01*
Y293541D01*
X42300Y293941D01*
X42033Y294191D01*
X41500Y294291D01*
X40967Y294191D01*
X40633Y293891D01*
X40433Y293541D01*
Y292291D01*
G01Y293541D02*
X38500Y294291D01*
G01X39033Y295950D02*
X38700Y296350D01*
X38500Y296800D01*
Y297200D01*
X38700Y297600D01*
X39033Y297900D01*
X39500Y298050D01*
X39967Y297950D01*
X40367Y297700D01*
X40633Y297250D01*
X40767Y296650D01*
X41033Y296300D01*
X41500Y296150D01*
X41967Y296250D01*
X42300Y296500D01*
X42500Y296850D01*
Y297200D01*
X42367Y297550D01*
X42033Y297850D01*
G01X42500Y300709D02*
X38500D01*
G01X42500Y299559D02*
Y301859D01*
G01X64659Y127500D02*
Y131500D01*
X62759D01*
G01X63459Y129567D02*
X64659D01*
G01X59600Y129633D02*
X59400Y129833D01*
X59250Y130167D01*
X59150Y130633D01*
X59250Y131033D01*
X59450Y131300D01*
X59800Y131500D01*
X61150D01*
Y127500D01*
X59500D01*
X59150Y127767D01*
X58950Y128167D01*
X58850Y128633D01*
X58950Y129100D01*
X59250Y129500D01*
X59600Y129633D01*
X61150D01*
G01X56291Y127500D02*
Y131500D01*
X56891Y130700D01*
G01Y127500D02*
X55691D01*
G01X68438Y151850D02*
X88162D01*
Y142350D01*
X68438D01*
Y151850D01*
G01X81109Y130667D02*
X81409Y130867D01*
X81759Y131000D01*
X82159D01*
X82609Y130800D01*
X82959Y130467D01*
X83209Y130067D01*
X83409Y129400D01*
X83459Y128800D01*
X83359Y128200D01*
X83209Y127800D01*
X82909Y127400D01*
X82559Y127133D01*
X82209Y127000D01*
X81859D01*
X81509Y127133D01*
X81209Y127333D01*
X80959Y127600D01*
G01X79600Y127800D02*
X79300Y127333D01*
X78900Y127067D01*
X78450Y127000D01*
X78050Y127067D01*
X77650Y127400D01*
X77400Y127800D01*
X77350Y128200D01*
X77450Y128667D01*
X77800Y129000D01*
X78150Y129133D01*
X78600D01*
G01X78150D02*
X77850Y129333D01*
X77600Y129667D01*
X77500Y130067D01*
X77600Y130467D01*
X77850Y130800D01*
X78300Y131000D01*
X78750Y130933D01*
X79200Y130667D01*
G01X75891Y127800D02*
X75591Y127333D01*
X75191Y127067D01*
X74741Y127000D01*
X74341Y127067D01*
X73941Y127400D01*
X73691Y127800D01*
X73641Y128200D01*
X73741Y128667D01*
X74091Y129000D01*
X74441Y129133D01*
X74891D01*
G01X74441D02*
X74141Y129333D01*
X73891Y129667D01*
X73791Y130067D01*
X73891Y130467D01*
X74141Y130800D01*
X74591Y131000D01*
X75041Y130933D01*
X75491Y130667D01*
G01X68438Y141950D02*
X88162D01*
Y132450D01*
X68438D01*
Y141950D01*
G01X74950Y158838D02*
Y178562D01*
X84450D01*
Y158838D01*
X74950D01*
G01X58100Y163800D02*
X57800Y163333D01*
X57400Y163067D01*
X56950Y163000D01*
X56550Y163067D01*
X56150Y163400D01*
X55900Y163800D01*
X55850Y164200D01*
X55950Y164667D01*
X56300Y165000D01*
X56650Y165133D01*
X57100D01*
G01X56650D02*
X56350Y165333D01*
X56100Y165667D01*
X56000Y166067D01*
X56100Y166467D01*
X56350Y166800D01*
X56800Y167000D01*
X57250Y166933D01*
X57700Y166667D01*
G01X68450Y162833D02*
X68150Y163233D01*
X67800Y163433D01*
X67400Y163500D01*
X66900Y163367D01*
X66550Y163033D01*
X66450Y162633D01*
X66500Y162233D01*
X66700Y161900D01*
X67700Y161233D01*
X68150Y160767D01*
X68450Y160100D01*
X68550Y159500D01*
X66450D01*
G01X69309Y183000D02*
Y180133D01*
X69109Y179533D01*
X68709Y179133D01*
X68209Y179000D01*
X67709Y179133D01*
X67309Y179533D01*
X67109Y180133D01*
Y183000D01*
G01X64500Y179000D02*
Y183000D01*
X65100Y182200D01*
G01Y179000D02*
X63900D01*
G01X61741Y182333D02*
X61441Y182733D01*
X61091Y182933D01*
X60691Y183000D01*
X60191Y182867D01*
X59841Y182533D01*
X59741Y182133D01*
X59791Y181733D01*
X59991Y181400D01*
X60991Y180733D01*
X61441Y180267D01*
X61741Y179600D01*
X61841Y179000D01*
X59741D01*
G01X62500Y293646D02*
X58500D01*
G01X62500Y292496D02*
Y294796D01*
G01X58500Y296304D02*
X62500Y298404D01*
G01Y296304D02*
X58500Y298404D01*
G01X71000Y294091D02*
Y295091D01*
X69800D01*
X69400Y294791D01*
X69133Y294441D01*
X69000Y293941D01*
X69133Y293441D01*
X69400Y293091D01*
X69800Y292791D01*
X70267Y292591D01*
X70800Y292491D01*
X71267D01*
X71667Y292591D01*
X72133Y292791D01*
X72533Y293091D01*
X72800Y293391D01*
X73000Y293791D01*
Y294141D01*
X72867Y294541D01*
X72600Y294841D01*
G01X69000Y296350D02*
X73000D01*
X69000Y298650D01*
X73000D01*
G01X69000Y300109D02*
X73000D01*
Y301109D01*
X72800Y301509D01*
X72533Y301809D01*
X72133Y302059D01*
X71667Y302259D01*
X71000Y302309D01*
X70333Y302259D01*
X69867Y302059D01*
X69467Y301809D01*
X69200Y301509D01*
X69000Y301109D01*
Y300109D01*
G01X77950Y293667D02*
X77600Y294133D01*
X77300Y294400D01*
X76900Y294533D01*
X76550Y294400D01*
X76300Y294133D01*
X76100Y293733D01*
X76050Y293267D01*
X76100Y292867D01*
X76300Y292467D01*
X76600Y292133D01*
X76950Y292000D01*
X77350Y292133D01*
X77700Y292533D01*
X77900Y293133D01*
X77950Y293800D01*
X77850Y294667D01*
X77700Y295133D01*
X77450Y295600D01*
X77100Y295933D01*
X76750Y296000D01*
X76400Y295867D01*
X76150Y295533D01*
G01X99109Y149167D02*
X99409Y149367D01*
X99759Y149500D01*
X100159D01*
X100609Y149300D01*
X100959Y148967D01*
X101209Y148567D01*
X101409Y147900D01*
X101459Y147300D01*
X101359Y146700D01*
X101209Y146300D01*
X100909Y145900D01*
X100559Y145633D01*
X100209Y145500D01*
X99859D01*
X99509Y145633D01*
X99209Y145833D01*
X98959Y146100D01*
G01X97600Y146300D02*
X97300Y145833D01*
X96900Y145567D01*
X96450Y145500D01*
X96050Y145567D01*
X95650Y145900D01*
X95400Y146300D01*
X95350Y146700D01*
X95450Y147167D01*
X95800Y147500D01*
X96150Y147633D01*
X96600D01*
G01X96150D02*
X95850Y147833D01*
X95600Y148167D01*
X95500Y148567D01*
X95600Y148967D01*
X95850Y149300D01*
X96300Y149500D01*
X96750Y149433D01*
X97200Y149167D01*
G01X93741Y148833D02*
X93441Y149233D01*
X93091Y149433D01*
X92691Y149500D01*
X92191Y149367D01*
X91841Y149033D01*
X91741Y148633D01*
X91791Y148233D01*
X91991Y147900D01*
X92991Y147233D01*
X93441Y146767D01*
X93741Y146100D01*
X93841Y145500D01*
X91741D01*
G01X112688Y175500D02*
X111438Y171500D01*
X110188Y175500D01*
G01X108829Y171500D02*
Y175500D01*
X107829D01*
X107429Y175300D01*
X107129Y175033D01*
X106879Y174633D01*
X106679Y174167D01*
X106629Y173500D01*
X106679Y172833D01*
X106879Y172367D01*
X107129Y171967D01*
X107429Y171700D01*
X107829Y171500D01*
X108829D01*
G01X105120D02*
Y175500D01*
X104120D01*
X103720Y175300D01*
X103420Y175033D01*
X103170Y174633D01*
X102970Y174167D01*
X102920Y173500D01*
X102970Y172833D01*
X103170Y172367D01*
X103420Y171967D01*
X103720Y171700D01*
X104120Y171500D01*
X105120D01*
G01X86500Y165791D02*
X90500D01*
Y167041D01*
X90300Y167441D01*
X90033Y167691D01*
X89500Y167791D01*
X88967Y167691D01*
X88633Y167391D01*
X88433Y167041D01*
Y165791D01*
G01Y167041D02*
X86500Y167791D01*
G01X89833Y169550D02*
X90233Y169850D01*
X90433Y170200D01*
X90500Y170600D01*
X90367Y171100D01*
X90033Y171450D01*
X89633Y171550D01*
X89233Y171500D01*
X88900Y171300D01*
X88233Y170300D01*
X87767Y169850D01*
X87100Y169550D01*
X86500Y169450D01*
Y171550D01*
G01X88167Y173259D02*
X88633Y173609D01*
X88900Y173909D01*
X89033Y174309D01*
X88900Y174659D01*
X88633Y174909D01*
X88233Y175109D01*
X87767Y175159D01*
X87367Y175109D01*
X86967Y174909D01*
X86633Y174609D01*
X86500Y174259D01*
X86633Y173859D01*
X87033Y173509D01*
X87633Y173309D01*
X88300Y173259D01*
X89167Y173359D01*
X89633Y173509D01*
X90100Y173759D01*
X90433Y174109D01*
X90500Y174459D01*
X90367Y174809D01*
X90033Y175059D01*
G01X81600Y184500D02*
X81500Y185367D01*
X81350Y186100D01*
X81150Y186767D01*
X80900Y187500D01*
X80500Y188500D01*
X82500D01*
G01X105854Y196000D02*
Y200000D01*
X104604D01*
X104204Y199800D01*
X103954Y199533D01*
X103854Y199000D01*
X103954Y198467D01*
X104254Y198133D01*
X104604Y197933D01*
X105854D01*
G01X104604D02*
X103854Y196000D01*
G01X101146D02*
X100796Y196067D01*
X100396Y196267D01*
X100146Y196600D01*
X100046Y197067D01*
X100146Y197533D01*
X100446Y197933D01*
X100896Y198133D01*
X101396D01*
X101696Y198267D01*
X101946Y198600D01*
X102046Y199067D01*
X101896Y199533D01*
X101546Y199867D01*
X101146Y200000D01*
X100746Y199867D01*
X100396Y199533D01*
X100246Y199067D01*
X100346Y198600D01*
X100596Y198267D01*
X100896Y198133D01*
X101396D01*
X101846Y197933D01*
X102146Y197533D01*
X102246Y197067D01*
X102146Y196600D01*
X101896Y196267D01*
X101496Y196067D01*
X101146Y196000D01*
G01X108050Y222162D02*
Y202438D01*
X98550D01*
Y222162D01*
X108050D01*
G01X105709Y249500D02*
Y253500D01*
X104459D01*
X104059Y253300D01*
X103809Y253033D01*
X103709Y252500D01*
X103809Y251967D01*
X104109Y251633D01*
X104459Y251433D01*
X105709D01*
G01X104459D02*
X103709Y249500D01*
G01X101000D02*
Y253500D01*
X101600Y252700D01*
G01Y249500D02*
X100400D01*
G01X97291D02*
Y253500D01*
X97891Y252700D01*
G01Y249500D02*
X96691D01*
G01X105709Y239000D02*
Y243000D01*
X104459D01*
X104059Y242800D01*
X103809Y242533D01*
X103709Y242000D01*
X103809Y241467D01*
X104109Y241133D01*
X104459Y240933D01*
X105709D01*
G01X104459D02*
X103709Y239000D01*
G01X101000D02*
Y243000D01*
X101600Y242200D01*
G01Y239000D02*
X100400D01*
G01X98391Y239800D02*
X98091Y239333D01*
X97691Y239067D01*
X97241Y239000D01*
X96841Y239067D01*
X96441Y239400D01*
X96191Y239800D01*
X96141Y240200D01*
X96241Y240667D01*
X96591Y241000D01*
X96941Y241133D01*
X97391D01*
G01X96941D02*
X96641Y241333D01*
X96391Y241667D01*
X96291Y242067D01*
X96391Y242467D01*
X96641Y242800D01*
X97091Y243000D01*
X97541Y242933D01*
X97991Y242667D01*
G01X105854Y229500D02*
Y233500D01*
X104604D01*
X104204Y233300D01*
X103954Y233033D01*
X103854Y232500D01*
X103954Y231967D01*
X104254Y231633D01*
X104604Y231433D01*
X105854D01*
G01X104604D02*
X103854Y229500D01*
G01X100546D02*
Y233500D01*
X102396Y230633D01*
X99896D01*
G01X107209Y270000D02*
Y274000D01*
X105959D01*
X105559Y273800D01*
X105309Y273533D01*
X105209Y273000D01*
X105309Y272467D01*
X105609Y272133D01*
X105959Y271933D01*
X107209D01*
G01X105959D02*
X105209Y270000D01*
G01X103600Y270800D02*
X103300Y270333D01*
X102900Y270067D01*
X102450Y270000D01*
X102050Y270067D01*
X101650Y270400D01*
X101400Y270800D01*
X101350Y271200D01*
X101450Y271667D01*
X101800Y272000D01*
X102150Y272133D01*
X102600D01*
G01X102150D02*
X101850Y272333D01*
X101600Y272667D01*
X101500Y273067D01*
X101600Y273467D01*
X101850Y273800D01*
X102300Y274000D01*
X102750Y273933D01*
X103200Y273667D01*
G01X99891Y270800D02*
X99591Y270333D01*
X99191Y270067D01*
X98741Y270000D01*
X98341Y270067D01*
X97941Y270400D01*
X97691Y270800D01*
X97641Y271200D01*
X97741Y271667D01*
X98091Y272000D01*
X98441Y272133D01*
X98891D01*
G01X98441D02*
X98141Y272333D01*
X97891Y272667D01*
X97791Y273067D01*
X97891Y273467D01*
X98141Y273800D01*
X98591Y274000D01*
X99041Y273933D01*
X99491Y273667D01*
G01X106717Y296662D02*
Y276938D01*
X97217D01*
Y296662D01*
X106717D01*
G01X123409Y25000D02*
X122409D01*
Y23800D01*
X122709Y23400D01*
X123059Y23133D01*
X123559Y23000D01*
X124059Y23133D01*
X124409Y23400D01*
X124709Y23800D01*
X124909Y24267D01*
X125009Y24800D01*
Y25267D01*
X124909Y25667D01*
X124709Y26133D01*
X124409Y26533D01*
X124109Y26800D01*
X123709Y27000D01*
X123359D01*
X122959Y26867D01*
X122659Y26600D01*
G01X121150Y23000D02*
Y27000D01*
X118850Y23000D01*
Y27000D01*
G01X117391Y23000D02*
Y27000D01*
X116391D01*
X115991Y26800D01*
X115691Y26533D01*
X115441Y26133D01*
X115241Y25667D01*
X115191Y25000D01*
X115241Y24333D01*
X115441Y23867D01*
X115691Y23467D01*
X115991Y23200D01*
X116391Y23000D01*
X117391D01*
G01X136563Y20000D02*
Y16000D01*
G01X137713Y20000D02*
X135413D01*
G01X133854Y16000D02*
Y20000D01*
X132654D01*
X132254Y19800D01*
X131954Y19333D01*
X131854Y18800D01*
X131954Y18267D01*
X132204Y17867D01*
X132654Y17667D01*
X133854D01*
G01X129146Y16000D02*
Y20000D01*
X129746Y19200D01*
G01Y16000D02*
X128546D01*
G01X124837D02*
Y20000D01*
X126687Y17133D01*
X124187D01*
G01X128209Y30000D02*
Y34000D01*
X126959D01*
X126559Y33800D01*
X126309Y33533D01*
X126209Y33000D01*
X126309Y32467D01*
X126609Y32133D01*
X126959Y31933D01*
X128209D01*
G01X126959D02*
X126209Y30000D01*
G01X124450Y33333D02*
X124150Y33733D01*
X123800Y33933D01*
X123400Y34000D01*
X122900Y33867D01*
X122550Y33533D01*
X122450Y33133D01*
X122500Y32733D01*
X122700Y32400D01*
X123700Y31733D01*
X124150Y31267D01*
X124450Y30600D01*
X124550Y30000D01*
X122450D01*
G01X120891Y30800D02*
X120591Y30333D01*
X120191Y30067D01*
X119741Y30000D01*
X119341Y30067D01*
X118941Y30400D01*
X118691Y30800D01*
X118641Y31200D01*
X118741Y31667D01*
X119091Y32000D01*
X119441Y32133D01*
X119891D01*
G01X119441D02*
X119141Y32333D01*
X118891Y32667D01*
X118791Y33067D01*
X118891Y33467D01*
X119141Y33800D01*
X119591Y34000D01*
X120041Y33933D01*
X120491Y33667D01*
G01X128550Y55462D02*
Y35738D01*
X119050D01*
Y55462D01*
X128550D01*
G01X132600Y37300D02*
X132300Y36833D01*
X131900Y36567D01*
X131450Y36500D01*
X131050Y36567D01*
X130650Y36900D01*
X130400Y37300D01*
X130350Y37700D01*
X130450Y38167D01*
X130800Y38500D01*
X131150Y38633D01*
X131600D01*
G01X131150D02*
X130850Y38833D01*
X130600Y39167D01*
X130500Y39567D01*
X130600Y39967D01*
X130850Y40300D01*
X131300Y40500D01*
X131750Y40433D01*
X132200Y40167D01*
G01X118250Y66485D02*
Y46762D01*
X108750D01*
Y66485D01*
X118250D01*
G01X130900Y49500D02*
Y53500D01*
X132750Y50633D01*
X130250D01*
G01X132950Y66833D02*
X132650Y67233D01*
X132300Y67433D01*
X131900Y67500D01*
X131400Y67367D01*
X131050Y67033D01*
X130950Y66633D01*
X131000Y66233D01*
X131200Y65900D01*
X132200Y65233D01*
X132650Y64767D01*
X132950Y64100D01*
X133050Y63500D01*
X130950D01*
G01X117709Y68500D02*
Y72500D01*
X116459D01*
X116059Y72300D01*
X115809Y72033D01*
X115709Y71500D01*
X115809Y70967D01*
X116109Y70633D01*
X116459Y70433D01*
X117709D01*
G01X116459D02*
X115709Y68500D01*
G01X112400D02*
Y72500D01*
X114250Y69633D01*
X111750D01*
G01X109391Y68500D02*
X109291Y69367D01*
X109141Y70100D01*
X108941Y70767D01*
X108691Y71500D01*
X108291Y72500D01*
X110291D01*
G01X132600Y81300D02*
X132300Y80833D01*
X131900Y80567D01*
X131450Y80500D01*
X131050Y80567D01*
X130650Y80900D01*
X130400Y81300D01*
X130350Y81700D01*
X130450Y82167D01*
X130800Y82500D01*
X131150Y82633D01*
X131600D01*
G01X131150D02*
X130850Y82833D01*
X130600Y83167D01*
X130500Y83567D01*
X130600Y83967D01*
X130850Y84300D01*
X131300Y84500D01*
X131750Y84433D01*
X132200Y84167D01*
G01X119357Y192500D02*
X118106Y188500D01*
X116856Y192500D01*
G01X114398Y188500D02*
X114798Y188567D01*
X115148Y188833D01*
X115448Y189233D01*
X115648Y189700D01*
X115748Y190233D01*
Y190767D01*
X115648Y191300D01*
X115448Y191767D01*
X115148Y192167D01*
X114798Y192433D01*
X114398Y192500D01*
X113998Y192433D01*
X113648Y192167D01*
X113348Y191767D01*
X113148Y191300D01*
X113048Y190767D01*
Y190233D01*
X113148Y189700D01*
X113348Y189233D01*
X113648Y188833D01*
X113998Y188567D01*
X114398Y188500D01*
G01X134354Y196500D02*
Y200500D01*
X133104D01*
X132704Y200300D01*
X132454Y200033D01*
X132354Y199500D01*
X132454Y198967D01*
X132754Y198633D01*
X133104Y198433D01*
X134354D01*
G01X133104D02*
X132354Y196500D01*
G01X130496Y196967D02*
X130146Y196633D01*
X129746Y196500D01*
X129346Y196633D01*
X128996Y197033D01*
X128746Y197633D01*
X128646Y198233D01*
Y198967D01*
X128746Y199567D01*
X128996Y200100D01*
X129296Y200367D01*
X129646Y200500D01*
X130046Y200367D01*
X130346Y200100D01*
X130546Y199700D01*
X130646Y199167D01*
X130546Y198700D01*
X130296Y198233D01*
X129996Y197967D01*
X129646Y197900D01*
X129246Y198033D01*
X128946Y198367D01*
X128646Y198967D01*
G01X115354Y196000D02*
Y200000D01*
X114104D01*
X113704Y199800D01*
X113454Y199533D01*
X113354Y199000D01*
X113454Y198467D01*
X113754Y198133D01*
X114104Y197933D01*
X115354D01*
G01X114104D02*
X113354Y196000D01*
G01X111596Y197667D02*
X111246Y198133D01*
X110946Y198400D01*
X110546Y198533D01*
X110196Y198400D01*
X109946Y198133D01*
X109746Y197733D01*
X109696Y197267D01*
X109746Y196867D01*
X109946Y196467D01*
X110246Y196133D01*
X110596Y196000D01*
X110996Y196133D01*
X111346Y196533D01*
X111546Y197133D01*
X111596Y197800D01*
X111496Y198667D01*
X111346Y199133D01*
X111096Y199600D01*
X110746Y199933D01*
X110396Y200000D01*
X110046Y199867D01*
X109796Y199533D01*
G01X124354Y196000D02*
Y200000D01*
X123104D01*
X122704Y199800D01*
X122454Y199533D01*
X122354Y199000D01*
X122454Y198467D01*
X122754Y198133D01*
X123104Y197933D01*
X124354D01*
G01X123104D02*
X122354Y196000D01*
G01X119746D02*
X119646Y196867D01*
X119496Y197600D01*
X119296Y198267D01*
X119046Y199000D01*
X118646Y200000D01*
X120646D01*
G01X136550Y222162D02*
Y202438D01*
X127050D01*
Y222162D01*
X136550D01*
G01X108050Y202438D02*
Y222162D01*
X117550D01*
Y202438D01*
X108050D01*
G01X117550D02*
Y222162D01*
X127050D01*
Y202438D01*
X117550D01*
G01X137954Y230500D02*
Y227633D01*
X137754Y227033D01*
X137354Y226633D01*
X136854Y226500D01*
X136354Y226633D01*
X135954Y227033D01*
X135754Y227633D01*
Y230500D01*
G01X134096Y229833D02*
X133796Y230233D01*
X133446Y230433D01*
X133046Y230500D01*
X132546Y230367D01*
X132196Y230033D01*
X132096Y229633D01*
X132146Y229233D01*
X132346Y228900D01*
X133346Y228233D01*
X133796Y227767D01*
X134096Y227100D01*
X134196Y226500D01*
X132096D01*
G01X127662Y245950D02*
X107938D01*
Y255450D01*
X127662D01*
Y245950D01*
G01Y236450D02*
X107938D01*
Y245950D01*
X127662D01*
Y236450D01*
G01X107938Y236350D02*
X127662D01*
Y226850D01*
X107938D01*
Y236350D01*
G01X118528Y296662D02*
Y276938D01*
X109028D01*
Y296662D01*
X118528D01*
G01X127000Y277791D02*
X131000D01*
Y279041D01*
X130800Y279441D01*
X130533Y279691D01*
X130000Y279791D01*
X129467Y279691D01*
X129133Y279391D01*
X128933Y279041D01*
Y277791D01*
G01Y279041D02*
X127000Y279791D01*
G01Y282500D02*
X131000D01*
X130200Y281900D01*
G01X127000D02*
Y283100D01*
G01X131000Y286209D02*
X130867Y285809D01*
X130533Y285509D01*
X130133Y285309D01*
X129600Y285159D01*
X129000Y285109D01*
X128400Y285159D01*
X127867Y285309D01*
X127467Y285509D01*
X127133Y285809D01*
X127000Y286209D01*
X127133Y286609D01*
X127467Y286909D01*
X127867Y287109D01*
X128400Y287259D01*
X129000Y287309D01*
X129600Y287259D01*
X130133Y287109D01*
X130533Y286909D01*
X130867Y286609D01*
X131000Y286209D01*
G01X124450Y255538D02*
Y275262D01*
X133950D01*
Y255538D01*
X124450D01*
G01X120000Y282291D02*
X124000D01*
Y283541D01*
X123800Y283941D01*
X123533Y284191D01*
X123000Y284291D01*
X122467Y284191D01*
X122133Y283891D01*
X121933Y283541D01*
Y282291D01*
G01Y283541D02*
X120000Y284291D01*
G01X120800Y285900D02*
X120333Y286200D01*
X120067Y286600D01*
X120000Y287050D01*
X120067Y287450D01*
X120400Y287850D01*
X120800Y288100D01*
X121200Y288150D01*
X121667Y288050D01*
X122000Y287700D01*
X122133Y287350D01*
Y286900D01*
G01Y287350D02*
X122333Y287650D01*
X122667Y287900D01*
X123067Y288000D01*
X123467Y287900D01*
X123800Y287650D01*
X124000Y287200D01*
X123933Y286750D01*
X123667Y286300D01*
G01X120000Y291309D02*
X124000D01*
X121133Y289459D01*
Y291959D01*
G01X159450Y40333D02*
X159150Y40733D01*
X158800Y40933D01*
X158400Y41000D01*
X157900Y40867D01*
X157550Y40533D01*
X157450Y40133D01*
X157500Y39733D01*
X157700Y39400D01*
X158700Y38733D01*
X159150Y38267D01*
X159450Y37600D01*
X159550Y37000D01*
X157450D01*
G01X148454Y33000D02*
Y30133D01*
X148254Y29533D01*
X147854Y29133D01*
X147354Y29000D01*
X146854Y29133D01*
X146454Y29533D01*
X146254Y30133D01*
Y33000D01*
G01X143646Y29000D02*
X143296Y29067D01*
X142896Y29267D01*
X142646Y29600D01*
X142546Y30067D01*
X142646Y30533D01*
X142946Y30933D01*
X143396Y31133D01*
X143896D01*
X144196Y31267D01*
X144446Y31600D01*
X144546Y32067D01*
X144396Y32533D01*
X144046Y32867D01*
X143646Y33000D01*
X143246Y32867D01*
X142896Y32533D01*
X142746Y32067D01*
X142846Y31600D01*
X143096Y31267D01*
X143396Y31133D01*
X143896D01*
X144346Y30933D01*
X144646Y30533D01*
X144746Y30067D01*
X144646Y29600D01*
X144396Y29267D01*
X143996Y29067D01*
X143646Y29000D01*
G01X160450Y82333D02*
X160150Y82733D01*
X159800Y82933D01*
X159400Y83000D01*
X158900Y82867D01*
X158550Y82533D01*
X158450Y82133D01*
X158500Y81733D01*
X158700Y81400D01*
X159700Y80733D01*
X160150Y80267D01*
X160450Y79600D01*
X160550Y79000D01*
X158450D01*
G01X150400Y87000D02*
Y91000D01*
X152250Y88133D01*
X149750D01*
G01X144309Y92000D02*
Y89133D01*
X144109Y88533D01*
X143709Y88133D01*
X143209Y88000D01*
X142709Y88133D01*
X142309Y88533D01*
X142109Y89133D01*
Y92000D01*
G01X139500Y88000D02*
Y92000D01*
X140100Y91200D01*
G01Y88000D02*
X138900D01*
G01X135791D02*
Y92000D01*
X136391Y91200D01*
G01Y88000D02*
X135191D01*
G01X143809Y149000D02*
Y146133D01*
X143609Y145533D01*
X143209Y145133D01*
X142709Y145000D01*
X142209Y145133D01*
X141809Y145533D01*
X141609Y146133D01*
Y149000D01*
G01X139000Y145000D02*
Y149000D01*
X139600Y148200D01*
G01Y145000D02*
X138400D01*
G01X136241Y146667D02*
X135891Y147133D01*
X135591Y147400D01*
X135191Y147533D01*
X134841Y147400D01*
X134591Y147133D01*
X134391Y146733D01*
X134341Y146267D01*
X134391Y145867D01*
X134591Y145467D01*
X134891Y145133D01*
X135241Y145000D01*
X135641Y145133D01*
X135991Y145533D01*
X136191Y146133D01*
X136241Y146800D01*
X136141Y147667D01*
X135991Y148133D01*
X135741Y148600D01*
X135391Y148933D01*
X135041Y149000D01*
X134691Y148867D01*
X134441Y148533D01*
G01X151754Y200667D02*
X152054Y200867D01*
X152404Y201000D01*
X152804D01*
X153254Y200800D01*
X153604Y200467D01*
X153854Y200067D01*
X154054Y199400D01*
X154104Y198800D01*
X154004Y198200D01*
X153854Y197800D01*
X153554Y197400D01*
X153204Y197133D01*
X152854Y197000D01*
X152504D01*
X152154Y197133D01*
X151854Y197333D01*
X151604Y197600D01*
G01X148546Y197000D02*
Y201000D01*
X150396Y198133D01*
X147896D01*
G01X142254Y200667D02*
X142554Y200867D01*
X142904Y201000D01*
X143304D01*
X143754Y200800D01*
X144104Y200467D01*
X144354Y200067D01*
X144554Y199400D01*
X144604Y198800D01*
X144504Y198200D01*
X144354Y197800D01*
X144054Y197400D01*
X143704Y197133D01*
X143354Y197000D01*
X143004D01*
X142654Y197133D01*
X142354Y197333D01*
X142104Y197600D01*
G01X140596Y200333D02*
X140296Y200733D01*
X139946Y200933D01*
X139546Y201000D01*
X139046Y200867D01*
X138696Y200533D01*
X138596Y200133D01*
X138646Y199733D01*
X138846Y199400D01*
X139846Y198733D01*
X140296Y198267D01*
X140596Y197600D01*
X140696Y197000D01*
X138596D01*
G01X146304Y227333D02*
X146004Y227733D01*
X145654Y227933D01*
X145254Y228000D01*
X144754Y227867D01*
X144404Y227533D01*
X144304Y227133D01*
X144354Y226733D01*
X144554Y226400D01*
X145554Y225733D01*
X146004Y225267D01*
X146304Y224600D01*
X146404Y224000D01*
X144304D01*
G01X142596Y227333D02*
X142296Y227733D01*
X141946Y227933D01*
X141546Y228000D01*
X141046Y227867D01*
X140696Y227533D01*
X140596Y227133D01*
X140646Y226733D01*
X140846Y226400D01*
X141846Y225733D01*
X142296Y225267D01*
X142596Y224600D01*
X142696Y224000D01*
X140596D01*
G01X146050Y202438D02*
Y222162D01*
X155550D01*
Y202438D01*
X146050D01*
G01X146097Y222162D02*
Y202438D01*
X136597D01*
Y222162D01*
X146097D01*
G01X158000Y231646D02*
X162000D01*
X161200Y231046D01*
G01X158000D02*
Y232246D01*
G01Y235354D02*
X158067Y235704D01*
X158267Y236104D01*
X158600Y236354D01*
X159067Y236454D01*
X159533Y236354D01*
X159933Y236054D01*
X160133Y235604D01*
Y235104D01*
X160267Y234804D01*
X160600Y234554D01*
X161067Y234454D01*
X161533Y234604D01*
X161867Y234954D01*
X162000Y235354D01*
X161867Y235754D01*
X161533Y236104D01*
X161067Y236254D01*
X160600Y236154D01*
X160267Y235904D01*
X160133Y235604D01*
Y235104D01*
X159933Y234654D01*
X159533Y234354D01*
X159067Y234254D01*
X158600Y234354D01*
X158267Y234604D01*
X158067Y235004D01*
X158000Y235354D01*
G01X157354Y249500D02*
Y253500D01*
X157954Y252700D01*
G01Y249500D02*
X156754D01*
G01X154596Y252833D02*
X154296Y253233D01*
X153946Y253433D01*
X153546Y253500D01*
X153046Y253367D01*
X152696Y253033D01*
X152596Y252633D01*
X152646Y252233D01*
X152846Y251900D01*
X153846Y251233D01*
X154296Y250767D01*
X154596Y250100D01*
X154696Y249500D01*
X152596D01*
G01X134250Y242933D02*
X134600Y242467D01*
X134900Y242200D01*
X135300Y242067D01*
X135650Y242200D01*
X135900Y242467D01*
X136100Y242867D01*
X136150Y243333D01*
X136100Y243733D01*
X135900Y244133D01*
X135600Y244467D01*
X135250Y244600D01*
X134850Y244467D01*
X134500Y244067D01*
X134300Y243467D01*
X134250Y242800D01*
X134350Y241933D01*
X134500Y241467D01*
X134750Y241000D01*
X135100Y240667D01*
X135450Y240600D01*
X135800Y240733D01*
X136050Y241067D01*
G01X136500Y277646D02*
X140500D01*
Y278896D01*
X140300Y279296D01*
X140033Y279546D01*
X139500Y279646D01*
X138967Y279546D01*
X138633Y279246D01*
X138433Y278896D01*
Y277646D01*
G01Y278896D02*
X136500Y279646D01*
G01X137100Y281254D02*
X136767Y281554D01*
X136567Y281904D01*
X136500Y282354D01*
X136633Y282804D01*
X136900Y283154D01*
X137367Y283404D01*
X137900Y283454D01*
X138433Y283354D01*
X138767Y283104D01*
X139033Y282754D01*
X139100Y282404D01*
X139033Y282054D01*
X138767Y281604D01*
X140500Y281754D01*
Y283104D01*
G01X143450Y275262D02*
Y255538D01*
X133950D01*
Y275262D01*
X143450D01*
G01X146500Y277291D02*
X150500D01*
Y278541D01*
X150300Y278941D01*
X150033Y279191D01*
X149500Y279291D01*
X148967Y279191D01*
X148633Y278891D01*
X148433Y278541D01*
Y277291D01*
G01Y278541D02*
X146500Y279291D01*
G01Y282000D02*
X150500D01*
X149700Y281400D01*
G01X146500D02*
Y282600D01*
G01X149833Y284759D02*
X150233Y285059D01*
X150433Y285409D01*
X150500Y285809D01*
X150367Y286309D01*
X150033Y286659D01*
X149633Y286759D01*
X149233Y286709D01*
X148900Y286509D01*
X148233Y285509D01*
X147767Y285059D01*
X147100Y284759D01*
X146500Y284659D01*
Y286759D01*
G01X143450Y255538D02*
Y275262D01*
X152950D01*
Y255538D01*
X143450D01*
G01X158167Y279391D02*
X158367Y279091D01*
X158500Y278741D01*
Y278341D01*
X158300Y277891D01*
X157967Y277541D01*
X157567Y277291D01*
X156900Y277091D01*
X156300Y277041D01*
X155700Y277141D01*
X155300Y277291D01*
X154900Y277591D01*
X154633Y277941D01*
X154500Y278291D01*
Y278641D01*
X154633Y278991D01*
X154833Y279291D01*
X155100Y279541D01*
G01X154500Y282000D02*
X158500D01*
X157700Y281400D01*
G01X154500D02*
Y282600D01*
G01X158500Y285709D02*
X158367Y285309D01*
X158033Y285009D01*
X157633Y284809D01*
X157100Y284659D01*
X156500Y284609D01*
X155900Y284659D01*
X155367Y284809D01*
X154967Y285009D01*
X154633Y285309D01*
X154500Y285709D01*
X154633Y286109D01*
X154967Y286409D01*
X155367Y286609D01*
X155900Y286759D01*
X156500Y286809D01*
X157100Y286759D01*
X157633Y286609D01*
X158033Y286409D01*
X158367Y286109D01*
X158500Y285709D01*
G01X153050Y255538D02*
Y275262D01*
X162550D01*
Y255538D01*
X153050D01*
G01X187100Y35300D02*
X186800Y34833D01*
X186400Y34567D01*
X185950Y34500D01*
X185550Y34567D01*
X185150Y34900D01*
X184900Y35300D01*
X184850Y35700D01*
X184950Y36167D01*
X185300Y36500D01*
X185650Y36633D01*
X186100D01*
G01X185650D02*
X185350Y36833D01*
X185100Y37167D01*
X185000Y37567D01*
X185100Y37967D01*
X185350Y38300D01*
X185800Y38500D01*
X186250Y38433D01*
X186700Y38167D01*
G01X165400Y27500D02*
Y31500D01*
X167250Y28633D01*
X164750D01*
G01X179454Y31000D02*
Y28133D01*
X179254Y27533D01*
X178854Y27133D01*
X178354Y27000D01*
X177854Y27133D01*
X177454Y27533D01*
X177254Y28133D01*
Y31000D01*
G01X175496Y27467D02*
X175146Y27133D01*
X174746Y27000D01*
X174346Y27133D01*
X173996Y27533D01*
X173746Y28133D01*
X173646Y28733D01*
Y29467D01*
X173746Y30067D01*
X173996Y30600D01*
X174296Y30867D01*
X174646Y31000D01*
X175046Y30867D01*
X175346Y30600D01*
X175546Y30200D01*
X175646Y29667D01*
X175546Y29200D01*
X175296Y28733D01*
X174996Y28467D01*
X174646Y28400D01*
X174246Y28533D01*
X173946Y28867D01*
X173646Y29467D01*
G01X189200Y66291D02*
X185200D01*
Y68291D01*
G01Y72000D02*
Y70000D01*
X189200D01*
Y72000D01*
G01X187267Y71200D02*
Y70000D01*
G01X185200Y73609D02*
X189200D01*
Y74609D01*
X189000Y75009D01*
X188733Y75309D01*
X188333Y75559D01*
X187867Y75759D01*
X187200Y75809D01*
X186533Y75759D01*
X186067Y75559D01*
X185667Y75309D01*
X185400Y75009D01*
X185200Y74609D01*
Y73609D01*
G01X187309Y60133D02*
X187109Y60333D01*
X186959Y60667D01*
X186859Y61133D01*
X186959Y61533D01*
X187159Y61800D01*
X187509Y62000D01*
X188859D01*
Y58000D01*
X187209D01*
X186859Y58267D01*
X186659Y58667D01*
X186559Y59133D01*
X186659Y59600D01*
X186959Y60000D01*
X187309Y60133D01*
X188859D01*
G01X185000Y62000D02*
Y58000D01*
X183000D01*
G01X179291D02*
X181291D01*
Y62000D01*
X179291D01*
G01X180091Y60067D02*
X181291D01*
G01X186950Y54333D02*
X186650Y54733D01*
X186300Y54933D01*
X185900Y55000D01*
X185400Y54867D01*
X185050Y54533D01*
X184950Y54133D01*
X185000Y53733D01*
X185200Y53400D01*
X186200Y52733D01*
X186650Y52267D01*
X186950Y51600D01*
X187050Y51000D01*
X184950D01*
G01X177309Y90500D02*
Y87633D01*
X177109Y87033D01*
X176709Y86633D01*
X176209Y86500D01*
X175709Y86633D01*
X175309Y87033D01*
X175109Y87633D01*
Y90500D01*
G01X172500Y86500D02*
Y90500D01*
X173100Y89700D01*
G01Y86500D02*
X171900D01*
G01X168791Y90500D02*
X169191Y90367D01*
X169491Y90033D01*
X169691Y89633D01*
X169841Y89100D01*
X169891Y88500D01*
X169841Y87900D01*
X169691Y87367D01*
X169491Y86967D01*
X169191Y86633D01*
X168791Y86500D01*
X168391Y86633D01*
X168091Y86967D01*
X167891Y87367D01*
X167741Y87900D01*
X167691Y88500D01*
X167741Y89100D01*
X167891Y89633D01*
X168091Y90033D01*
X168391Y90367D01*
X168791Y90500D01*
G01X170676Y173500D02*
X169676D01*
Y172300D01*
X169976Y171900D01*
X170326Y171633D01*
X170826Y171500D01*
X171326Y171633D01*
X171676Y171900D01*
X171976Y172300D01*
X172176Y172767D01*
X172276Y173300D01*
Y173767D01*
X172176Y174167D01*
X171976Y174633D01*
X171676Y175033D01*
X171376Y175300D01*
X170976Y175500D01*
X170626D01*
X170226Y175367D01*
X169926Y175100D01*
G01X168417Y171500D02*
Y175500D01*
X166117Y171500D01*
Y175500D01*
G01X164659Y171500D02*
Y175500D01*
X163659D01*
X163259Y175300D01*
X162959Y175033D01*
X162709Y174633D01*
X162509Y174167D01*
X162459Y173500D01*
X162509Y172833D01*
X162709Y172367D01*
X162959Y171967D01*
X163259Y171700D01*
X163659Y171500D01*
X164659D01*
G01X172854Y190500D02*
Y186500D01*
X170854D01*
G01X168146D02*
Y190500D01*
X168746Y189700D01*
G01Y186500D02*
X167546D01*
G01X181500Y249500D02*
Y253500D01*
X182100Y252700D01*
G01Y249500D02*
X180900D01*
G01X184167Y240246D02*
X184367Y239946D01*
X184500Y239596D01*
Y239196D01*
X184300Y238746D01*
X183967Y238396D01*
X183567Y238146D01*
X182900Y237946D01*
X182300Y237896D01*
X181700Y237996D01*
X181300Y238146D01*
X180900Y238446D01*
X180633Y238796D01*
X180500Y239146D01*
Y239496D01*
X180633Y239846D01*
X180833Y240146D01*
X181100Y240396D01*
G01X180500Y242754D02*
X181367Y242854D01*
X182100Y243004D01*
X182767Y243204D01*
X183500Y243454D01*
X184500Y243854D01*
Y241854D01*
G01X183754Y234167D02*
X184054Y234367D01*
X184404Y234500D01*
X184804D01*
X185254Y234300D01*
X185604Y233967D01*
X185854Y233567D01*
X186054Y232900D01*
X186104Y232300D01*
X186004Y231700D01*
X185854Y231300D01*
X185554Y230900D01*
X185204Y230633D01*
X184854Y230500D01*
X184504D01*
X184154Y230633D01*
X183854Y230833D01*
X183604Y231100D01*
G01X181146Y230500D02*
X180796Y230567D01*
X180396Y230767D01*
X180146Y231100D01*
X180046Y231567D01*
X180146Y232033D01*
X180446Y232433D01*
X180896Y232633D01*
X181396D01*
X181696Y232767D01*
X181946Y233100D01*
X182046Y233567D01*
X181896Y234033D01*
X181546Y234367D01*
X181146Y234500D01*
X180746Y234367D01*
X180396Y234033D01*
X180246Y233567D01*
X180346Y233100D01*
X180596Y232767D01*
X180896Y232633D01*
X181396D01*
X181846Y232433D01*
X182146Y232033D01*
X182246Y231567D01*
X182146Y231100D01*
X181896Y230767D01*
X181496Y230567D01*
X181146Y230500D01*
G01X181950Y270333D02*
X181650Y270733D01*
X181300Y270933D01*
X180900Y271000D01*
X180400Y270867D01*
X180050Y270533D01*
X179950Y270133D01*
X180000Y269733D01*
X180200Y269400D01*
X181200Y268733D01*
X181650Y268267D01*
X181950Y267600D01*
X182050Y267000D01*
X179950D01*
G01X172754Y260167D02*
X173054Y260367D01*
X173404Y260500D01*
X173804D01*
X174254Y260300D01*
X174604Y259967D01*
X174854Y259567D01*
X175054Y258900D01*
X175104Y258300D01*
X175004Y257700D01*
X174854Y257300D01*
X174554Y256900D01*
X174204Y256633D01*
X173854Y256500D01*
X173504D01*
X173154Y256633D01*
X172854Y256833D01*
X172604Y257100D01*
G01X170996Y256967D02*
X170646Y256633D01*
X170246Y256500D01*
X169846Y256633D01*
X169496Y257033D01*
X169246Y257633D01*
X169146Y258233D01*
Y258967D01*
X169246Y259567D01*
X169496Y260100D01*
X169796Y260367D01*
X170146Y260500D01*
X170546Y260367D01*
X170846Y260100D01*
X171046Y259700D01*
X171146Y259167D01*
X171046Y258700D01*
X170796Y258233D01*
X170496Y257967D01*
X170146Y257900D01*
X169746Y258033D01*
X169446Y258367D01*
X169146Y258967D01*
G01X170460Y296662D02*
Y276938D01*
X160960D01*
Y296662D01*
X170460D01*
G01X182271D02*
Y276938D01*
X172771D01*
Y296662D01*
X182271D01*
G01X167854Y298500D02*
Y302500D01*
X166604D01*
X166204Y302300D01*
X165954Y302033D01*
X165854Y301500D01*
X165954Y300967D01*
X166254Y300633D01*
X166604Y300433D01*
X167854D01*
G01X166604D02*
X165854Y298500D01*
G01X164096Y301833D02*
X163796Y302233D01*
X163446Y302433D01*
X163046Y302500D01*
X162546Y302367D01*
X162196Y302033D01*
X162096Y301633D01*
X162146Y301233D01*
X162346Y300900D01*
X163346Y300233D01*
X163796Y299767D01*
X164096Y299100D01*
X164196Y298500D01*
X162096D01*
G01X180354Y299000D02*
Y303000D01*
X179104D01*
X178704Y302800D01*
X178454Y302533D01*
X178354Y302000D01*
X178454Y301467D01*
X178754Y301133D01*
X179104Y300933D01*
X180354D01*
G01X179104D02*
X178354Y299000D01*
G01X176746Y299800D02*
X176446Y299333D01*
X176046Y299067D01*
X175596Y299000D01*
X175196Y299067D01*
X174796Y299400D01*
X174546Y299800D01*
X174496Y300200D01*
X174596Y300667D01*
X174946Y301000D01*
X175296Y301133D01*
X175746D01*
G01X175296D02*
X174996Y301333D01*
X174746Y301667D01*
X174646Y302067D01*
X174746Y302467D01*
X174996Y302800D01*
X175446Y303000D01*
X175896Y302933D01*
X176346Y302667D01*
G01X193500Y31937D02*
X189500Y32637D01*
X193500Y33437D01*
X189500Y34237D01*
X193500Y34937D01*
G01Y36546D02*
Y37746D01*
G01Y37146D02*
X189500D01*
G01Y36546D02*
Y37746D01*
G01Y39904D02*
X193500D01*
Y41804D01*
G01X191567Y41104D02*
Y39904D01*
G01X193500Y43963D02*
Y45163D01*
G01Y44563D02*
X189500D01*
G01Y43963D02*
Y45163D01*
G01X203400Y35000D02*
Y39000D01*
X205250Y36133D01*
X202750D01*
G01X197600Y41100D02*
X197300Y40767D01*
X196950Y40567D01*
X196500Y40500D01*
X196050Y40633D01*
X195700Y40900D01*
X195450Y41367D01*
X195400Y41900D01*
X195500Y42433D01*
X195750Y42767D01*
X196100Y43033D01*
X196450Y43100D01*
X196800Y43033D01*
X197250Y42767D01*
X197100Y44500D01*
X195750D01*
G01X191000Y86591D02*
Y87591D01*
X189800D01*
X189400Y87291D01*
X189133Y86941D01*
X189000Y86441D01*
X189133Y85941D01*
X189400Y85591D01*
X189800Y85291D01*
X190267Y85091D01*
X190800Y84991D01*
X191267D01*
X191667Y85091D01*
X192133Y85291D01*
X192533Y85591D01*
X192800Y85891D01*
X193000Y86291D01*
Y86641D01*
X192867Y87041D01*
X192600Y87341D01*
G01X189533Y88950D02*
X189200Y89350D01*
X189000Y89800D01*
Y90200D01*
X189200Y90600D01*
X189533Y90900D01*
X190000Y91050D01*
X190467Y90950D01*
X190867Y90700D01*
X191133Y90250D01*
X191267Y89650D01*
X191533Y89300D01*
X192000Y89150D01*
X192467Y89250D01*
X192800Y89500D01*
X193000Y89850D01*
Y90200D01*
X192867Y90550D01*
X192533Y90850D01*
G01X189000Y92409D02*
X193000D01*
X189667Y93709D01*
X193000Y95009D01*
X189000D01*
G01X196000Y85500D02*
X195650Y85567D01*
X195250Y85767D01*
X195000Y86100D01*
X194900Y86567D01*
X195000Y87033D01*
X195300Y87433D01*
X195750Y87633D01*
X196250D01*
X196550Y87767D01*
X196800Y88100D01*
X196900Y88567D01*
X196750Y89033D01*
X196400Y89367D01*
X196000Y89500D01*
X195600Y89367D01*
X195250Y89033D01*
X195100Y88567D01*
X195200Y88100D01*
X195450Y87767D01*
X195750Y87633D01*
X196250D01*
X196700Y87433D01*
X197000Y87033D01*
X197100Y86567D01*
X197000Y86100D01*
X196750Y85767D01*
X196350Y85567D01*
X196000Y85500D01*
G01X187600Y80300D02*
X187300Y79833D01*
X186900Y79567D01*
X186450Y79500D01*
X186050Y79567D01*
X185650Y79900D01*
X185400Y80300D01*
X185350Y80700D01*
X185450Y81167D01*
X185800Y81500D01*
X186150Y81633D01*
X186600D01*
G01X186150D02*
X185850Y81833D01*
X185600Y82167D01*
X185500Y82567D01*
X185600Y82967D01*
X185850Y83300D01*
X186300Y83500D01*
X186750Y83433D01*
X187200Y83167D01*
G01X199450Y197638D02*
Y217362D01*
X208950D01*
Y197638D01*
X199450D01*
G01X202667Y227246D02*
X202867Y226946D01*
X203000Y226596D01*
Y226196D01*
X202800Y225746D01*
X202467Y225396D01*
X202067Y225146D01*
X201400Y224946D01*
X200800Y224896D01*
X200200Y224996D01*
X199800Y225146D01*
X199400Y225446D01*
X199133Y225796D01*
X199000Y226146D01*
Y226496D01*
X199133Y226846D01*
X199333Y227146D01*
X199600Y227396D01*
G01Y228754D02*
X199267Y229054D01*
X199067Y229404D01*
X199000Y229854D01*
X199133Y230304D01*
X199400Y230654D01*
X199867Y230904D01*
X200400Y230954D01*
X200933Y230854D01*
X201267Y230604D01*
X201533Y230254D01*
X201600Y229904D01*
X201533Y229554D01*
X201267Y229104D01*
X203000Y229254D01*
Y230604D01*
G01X188250Y218138D02*
Y237862D01*
X197750D01*
Y218138D01*
X188250D01*
G01X214667Y205391D02*
X214867Y205091D01*
X215000Y204741D01*
Y204341D01*
X214800Y203891D01*
X214467Y203541D01*
X214067Y203291D01*
X213400Y203091D01*
X212800Y203041D01*
X212200Y203141D01*
X211800Y203291D01*
X211400Y203591D01*
X211133Y203941D01*
X211000Y204291D01*
Y204641D01*
X211133Y204991D01*
X211333Y205291D01*
X211600Y205541D01*
G01X211000Y208000D02*
X215000D01*
X214200Y207400D01*
G01X211000D02*
Y208600D01*
G01X212667Y210759D02*
X213133Y211109D01*
X213400Y211409D01*
X213533Y211809D01*
X213400Y212159D01*
X213133Y212409D01*
X212733Y212609D01*
X212267Y212659D01*
X211867Y212609D01*
X211467Y212409D01*
X211133Y212109D01*
X211000Y211759D01*
X211133Y211359D01*
X211533Y211009D01*
X212133Y210809D01*
X212800Y210759D01*
X213667Y210859D01*
X214133Y211009D01*
X214600Y211259D01*
X214933Y211609D01*
X215000Y211959D01*
X214867Y212309D01*
X214533Y212559D01*
G01X191600Y296800D02*
X191300Y296333D01*
X190900Y296067D01*
X190450Y296000D01*
X190050Y296067D01*
X189650Y296400D01*
X189400Y296800D01*
X189350Y297200D01*
X189450Y297667D01*
X189800Y298000D01*
X190150Y298133D01*
X190600D01*
G01X190150D02*
X189850Y298333D01*
X189600Y298667D01*
X189500Y299067D01*
X189600Y299467D01*
X189850Y299800D01*
X190300Y300000D01*
X190750Y299933D01*
X191200Y299667D01*
G01X210759Y298533D02*
X210359Y298200D01*
X209909Y298000D01*
X209509D01*
X209109Y298200D01*
X208809Y298533D01*
X208659Y299000D01*
X208759Y299467D01*
X209009Y299867D01*
X209459Y300133D01*
X210059Y300267D01*
X210409Y300533D01*
X210559Y301000D01*
X210459Y301467D01*
X210209Y301800D01*
X209859Y302000D01*
X209509D01*
X209159Y301867D01*
X208859Y301533D01*
G01X207500Y302000D02*
X206800Y298000D01*
X206000Y302000D01*
X205200Y298000D01*
X204500Y302000D01*
G01X202291Y298000D02*
Y302000D01*
X202891Y301200D01*
G01Y298000D02*
X201691D01*
G01X222759Y92533D02*
X222359Y92200D01*
X221909Y92000D01*
X221509D01*
X221109Y92200D01*
X220809Y92533D01*
X220659Y93000D01*
X220759Y93467D01*
X221009Y93867D01*
X221459Y94133D01*
X222059Y94267D01*
X222409Y94533D01*
X222559Y95000D01*
X222459Y95467D01*
X222209Y95800D01*
X221859Y96000D01*
X221509D01*
X221159Y95867D01*
X220859Y95533D01*
G01X219500Y96000D02*
X218800Y92000D01*
X218000Y96000D01*
X217200Y92000D01*
X216500Y96000D01*
G01X215141Y92467D02*
X214791Y92133D01*
X214391Y92000D01*
X213991Y92133D01*
X213641Y92533D01*
X213391Y93133D01*
X213291Y93733D01*
Y94467D01*
X213391Y95067D01*
X213641Y95600D01*
X213941Y95867D01*
X214291Y96000D01*
X214691Y95867D01*
X214991Y95600D01*
X215191Y95200D01*
X215291Y94667D01*
X215191Y94200D01*
X214941Y93733D01*
X214641Y93467D01*
X214291Y93400D01*
X213891Y93533D01*
X213591Y93867D01*
X213291Y94467D01*
G54D15*
G01X52220Y141334D02*
X67180D01*
Y133066D01*
X52220D01*
Y141334D01*
G01X163620Y246234D02*
X178580D01*
Y237966D01*
X163620D01*
Y246234D01*
G01Y237934D02*
X178580D01*
Y229666D01*
X163620D01*
Y237934D01*
G01Y254655D02*
X178580D01*
Y246387D01*
X163620D01*
Y254655D01*
G54D16*
G01X9676Y37072D02*
X96290D01*
G01X9676Y123686D02*
Y37072D01*
G01X96290Y123686D02*
X9676D01*
G01X96290Y37072D02*
Y123686D01*
G01X160454Y173200D02*
G02X117146I-21653J0D01*
G01D02*
G02X160454I21654J0D01*
G01X200106Y244091D02*
Y294917D01*
G01X220028Y244091D02*
X200106D01*
G01Y294917D02*
X220028D01*
G01X236091D02*
Y244091D01*
G01X254673Y277102D02*
X236563D01*
G01Y261906D02*
X254673D01*
G01D02*
Y277102D01*
G54D17*
G01X0Y0D02*
X236213D01*
Y335275D01*
X0D01*
Y0D01*
G01D02*
Y335275D01*
X236213D01*
Y0D01*
X0D01*
M02*
