G04 ================== begin FILE IDENTIFICATION RECORD ==================*
G04 Layout Name:  E:/nn/GERBER/BOARD/SENTINEL_FALL_V01.brd*
G04 Film Name:    SLT*
G04 File Format:  Gerber RS274X*
G04 File Origin:  Cadence Allegro 17.2-S083*
G04 Origin Date:  Tue Apr 08 22:19:01 2025*
G04 *
G04 Layer:  MANUFACTURING/LOGO*
G04 Layer:  BOARD GEOMETRY/SLT*
G04 Layer:  BOARD GEOMETRY/BOARD_ NAME*
G04 Layer:  REF DES/SILKSCREEN_TOP*
G04 Layer:  PACKAGE GEOMETRY/SILKSCREEN_TOP*
G04 Layer:  BOARD GEOMETRY/OUTLINE*
G04 Layer:  BOARD GEOMETRY/SILKSCREEN_TOP*
G04 *
G04 Offset:    (0.000 0.000)*
G04 Mirror:    No*
G04 Mode:      Positive*
G04 Rotation:  0*
G04 FullContactRelief:  No*
G04 UndefLineWidth:     7.000*
G04 ================== end FILE IDENTIFICATION RECORD ====================*
%FSLAX55Y55*MOIN*%
%IR0*IPPOS*OFA0.00000B0.00000*MIA0B0*SFA1.00000B1.00000*%
%ADD10C,.005*%
%ADD11C,.006*%
%ADD12C,.007*%
%ADD13C,.00709*%
%ADD14C,.007087*%
%ADD15C,.007874*%
G75*
%LPD*%
G75*
G36*
G01X43996Y22075D02*
G03I-2000J0D01*
G37*
G36*
G01X55000Y31000D02*
G03I-1500J0D01*
G37*
G36*
G01X44618Y93000D02*
G03I-1118J0D01*
G37*
G36*
G01X38500Y256500D02*
G03I-1500J0D01*
G37*
G36*
G01X61118Y248000D02*
G03I-1118J0D01*
G37*
G36*
G01X60500Y320500D02*
G03I-1500J0D01*
G37*
G36*
G01X104914Y207000D02*
G03I-1414J0D01*
G37*
G36*
G01X109755Y30825D02*
G03I-1118J0D01*
G37*
G36*
G01X123357Y301100D02*
G03I-1500J0D01*
G37*
G36*
G01X151000Y7000D02*
G03I-2000J0D01*
G37*
G36*
G01X174803Y94000D02*
G03I-1803J0D01*
G37*
G36*
G01X166914Y214000D02*
G03I-1414J0D01*
G37*
G36*
G01X174618Y279000D02*
G03I-1118J0D01*
G37*
G36*
G01X188300Y185000D02*
G03I-1500J0D01*
G37*
G36*
G01X200420Y197000D02*
G03I-1420J0D01*
G37*
G36*
G01X189000Y302000D02*
G03I-1500J0D01*
G37*
G36*
G01X229000Y101000D02*
G03I-2000J0D01*
G37*
G54D10*
G01X56822Y162100D02*
G03I-23622J0D01*
G01X16778Y231749D02*
X32703D01*
X32797Y231843D01*
Y240184D01*
G01X2876Y238028D02*
Y255995D01*
G01X32797Y254782D02*
Y262851D01*
X16970D01*
X16919Y262800D01*
G01X48308Y72002D02*
X46852D01*
Y73458D01*
G01X48308Y95624D02*
X46852D01*
Y94167D01*
G01X55700Y142100D02*
X50700D01*
G01X55700Y182100D02*
X50700D01*
G01X52802Y245791D02*
X48157D01*
Y248665D01*
G01Y254335D02*
Y257209D01*
X52802D01*
G01X69017Y72002D02*
X70474D01*
Y73458D01*
G01X69017Y95624D02*
X70474D01*
Y94167D01*
G01X53200Y139600D02*
Y144600D01*
G01X101651Y205249D02*
X70549D01*
Y236351D01*
X101651D01*
Y205249D01*
G01X108637Y32838D02*
X118425D01*
Y42813D01*
X106850D01*
Y32838D01*
X108637D01*
G01X145961Y14657D02*
X133500D01*
Y34342D01*
X145961D01*
G01X163651Y205549D02*
X132549D01*
Y236651D01*
X163651D01*
Y205549D01*
G01X171039Y34342D02*
X183500D01*
Y14657D01*
X171039D01*
G01X171751Y282763D02*
Y290637D01*
G01X180649Y282763D02*
Y290637D01*
G01X223143Y103461D02*
Y91000D01*
X203458D01*
Y103461D01*
G01Y128539D02*
Y141000D01*
X223143D01*
Y128539D01*
G54D11*
G01X39338Y33500D02*
X51662D01*
G01Y46300D02*
X39338D01*
G01X65638Y311400D02*
X77962D01*
G01Y324200D02*
X65638D01*
G01X108500Y148000D02*
Y86400D01*
G01D02*
X170100D01*
G01Y148000D02*
X108500D01*
G01X170100Y86400D02*
Y148000D01*
G01X192738Y175000D02*
X205062D01*
G01Y187800D02*
X192738D01*
G54D12*
G01X11000Y90000D02*
X19500D01*
G01X153500Y47000D02*
Y40000D01*
G01X195500Y117500D02*
X197000Y116000D01*
X198500D01*
G01X196500Y97000D02*
Y110000D01*
X197500Y111000D01*
X198500D01*
G01X196000Y123500D02*
X198000Y121500D01*
X198500D01*
G01X198000Y244500D02*
Y249500D01*
X199000Y250500D01*
G01X229500Y126000D02*
Y124500D01*
X228000Y123000D01*
G01X0Y0D02*
X236213D01*
Y335275D01*
X0D01*
Y0D01*
G54D13*
G01X53631Y318324D02*
G03I-3150J0D01*
G01X67750Y255100D02*
G03I-3150J0D01*
G01X120107Y292700D02*
G03I-3150J0D01*
G01X144231Y308188D02*
G03I-3150J0D01*
G01X185650Y299000D02*
G03I-3150J0D01*
G01X196331Y18722D02*
G03I-3150J0D01*
G01X191650Y192500D02*
G03I-3150J0D01*
G01X208150Y284000D02*
G03I-3150J0D01*
G01X228150Y255500D02*
G03I-3150J0D01*
G54D14*
G01X22741Y39533D02*
X23141Y39200D01*
X23591Y39000D01*
X23991D01*
X24391Y39200D01*
X24691Y39533D01*
X24841Y40000D01*
X24741Y40467D01*
X24491Y40867D01*
X24041Y41133D01*
X23441Y41267D01*
X23091Y41533D01*
X22941Y42000D01*
X23041Y42467D01*
X23291Y42800D01*
X23641Y43000D01*
X23991D01*
X24341Y42867D01*
X24641Y42533D01*
G01X26000Y43000D02*
X26700Y39000D01*
X27500Y43000D01*
X28300Y39000D01*
X29000Y43000D01*
G01X31209Y39000D02*
X31559Y39067D01*
X31959Y39267D01*
X32209Y39600D01*
X32309Y40067D01*
X32209Y40533D01*
X31909Y40933D01*
X31459Y41133D01*
X30959D01*
X30659Y41267D01*
X30409Y41600D01*
X30309Y42067D01*
X30459Y42533D01*
X30809Y42867D01*
X31209Y43000D01*
X31609Y42867D01*
X31959Y42533D01*
X32109Y42067D01*
X32009Y41600D01*
X31759Y41267D01*
X31459Y41133D01*
X30959D01*
X30509Y40933D01*
X30209Y40533D01*
X30109Y40067D01*
X30209Y39600D01*
X30459Y39267D01*
X30859Y39067D01*
X31209Y39000D01*
G01X26391Y48667D02*
X26091Y48867D01*
X25741Y49000D01*
X25341D01*
X24891Y48800D01*
X24541Y48467D01*
X24291Y48067D01*
X24091Y47400D01*
X24041Y46800D01*
X24141Y46200D01*
X24291Y45800D01*
X24591Y45400D01*
X24941Y45133D01*
X25291Y45000D01*
X25641D01*
X25991Y45133D01*
X26291Y45333D01*
X26541Y45600D01*
G01X28900Y45000D02*
X29000Y45867D01*
X29150Y46600D01*
X29350Y47267D01*
X29600Y48000D01*
X30000Y49000D01*
X28000D01*
G01X31609Y45600D02*
X31909Y45267D01*
X32259Y45067D01*
X32709Y45000D01*
X33159Y45133D01*
X33509Y45400D01*
X33759Y45867D01*
X33809Y46400D01*
X33709Y46933D01*
X33459Y47267D01*
X33109Y47533D01*
X32759Y47600D01*
X32409Y47533D01*
X31959Y47267D01*
X32109Y49000D01*
X33459D01*
G01X23750Y70362D02*
Y50638D01*
X33250D01*
Y70362D01*
X23750D01*
G01X9000Y85291D02*
X5000D01*
Y86541D01*
X5200Y86941D01*
X5467Y87191D01*
X6000Y87291D01*
X6533Y87191D01*
X6867Y86891D01*
X7067Y86541D01*
Y85291D01*
G01Y86541D02*
X9000Y87291D01*
G01X8200Y88900D02*
X8667Y89200D01*
X8933Y89600D01*
X9000Y90050D01*
X8933Y90450D01*
X8600Y90850D01*
X8200Y91100D01*
X7800Y91150D01*
X7333Y91050D01*
X7000Y90700D01*
X6867Y90350D01*
Y89900D01*
G01Y90350D02*
X6667Y90650D01*
X6333Y90900D01*
X5933Y91000D01*
X5533Y90900D01*
X5200Y90650D01*
X5000Y90200D01*
X5067Y89750D01*
X5333Y89300D01*
G01X8400Y92609D02*
X8733Y92909D01*
X8933Y93259D01*
X9000Y93709D01*
X8867Y94159D01*
X8600Y94509D01*
X8133Y94759D01*
X7600Y94809D01*
X7067Y94709D01*
X6733Y94459D01*
X6467Y94109D01*
X6400Y93759D01*
X6467Y93409D01*
X6733Y92959D01*
X5000Y93109D01*
Y94459D01*
G01X41462Y92691D02*
X21738D01*
Y83191D01*
X41462D01*
Y92691D01*
G01Y83050D02*
X21738D01*
Y73550D01*
X41462D01*
Y83050D01*
G01X23333Y118891D02*
X23133Y118591D01*
X23000Y118241D01*
Y117841D01*
X23200Y117391D01*
X23533Y117041D01*
X23933Y116791D01*
X24600Y116591D01*
X25200Y116541D01*
X25800Y116641D01*
X26200Y116791D01*
X26600Y117091D01*
X26867Y117441D01*
X27000Y117791D01*
Y118141D01*
X26867Y118491D01*
X26667Y118791D01*
X26400Y119041D01*
G01X23667Y120550D02*
X23267Y120850D01*
X23067Y121200D01*
X23000Y121600D01*
X23133Y122100D01*
X23467Y122450D01*
X23867Y122550D01*
X24267Y122500D01*
X24600Y122300D01*
X25267Y121300D01*
X25733Y120850D01*
X26400Y120550D01*
X27000Y120450D01*
Y122550D01*
G01X25333Y124259D02*
X24867Y124609D01*
X24600Y124909D01*
X24467Y125309D01*
X24600Y125659D01*
X24867Y125909D01*
X25267Y126109D01*
X25733Y126159D01*
X26133Y126109D01*
X26533Y125909D01*
X26867Y125609D01*
X27000Y125259D01*
X26867Y124859D01*
X26467Y124509D01*
X25867Y124309D01*
X25200Y124259D01*
X24333Y124359D01*
X23867Y124509D01*
X23400Y124759D01*
X23067Y125109D01*
X23000Y125459D01*
X23133Y125809D01*
X23467Y126059D01*
G01X30251Y95412D02*
Y115136D01*
X20751D01*
Y95412D01*
X30251D01*
G01X20676Y204858D02*
X40400D01*
Y214358D01*
X20676D01*
Y204858D01*
G01X18146Y226300D02*
X18396Y225900D01*
X18696Y225633D01*
X19046Y225500D01*
X19446Y225633D01*
X19746Y225900D01*
X20046Y226300D01*
X20146Y226833D01*
Y229500D01*
G01X22754Y225500D02*
X22854Y226367D01*
X23004Y227100D01*
X23204Y227767D01*
X23454Y228500D01*
X23854Y229500D01*
X21854D01*
G01X7538Y268050D02*
X27262D01*
Y277550D01*
X7538D01*
Y268050D01*
G01X12791Y293500D02*
Y297500D01*
X14041D01*
X14441Y297300D01*
X14691Y297033D01*
X14791Y296500D01*
X14691Y295967D01*
X14391Y295633D01*
X14041Y295433D01*
X12791D01*
G01X14041D02*
X14791Y293500D01*
G01X18100D02*
Y297500D01*
X16250Y294633D01*
X18750D01*
G01X20109Y294300D02*
X20409Y293833D01*
X20809Y293567D01*
X21259Y293500D01*
X21659Y293567D01*
X22059Y293900D01*
X22309Y294300D01*
X22359Y294700D01*
X22259Y295167D01*
X21909Y295500D01*
X21559Y295633D01*
X21109D01*
G01X21559D02*
X21859Y295833D01*
X22109Y296167D01*
X22209Y296567D01*
X22109Y296967D01*
X21859Y297300D01*
X21409Y297500D01*
X20959Y297433D01*
X20509Y297167D01*
G01X24878Y290250D02*
X44602D01*
Y299750D01*
X24878D01*
Y290250D01*
G01X7891Y283167D02*
X7591Y283367D01*
X7241Y283500D01*
X6841D01*
X6391Y283300D01*
X6041Y282967D01*
X5791Y282567D01*
X5591Y281900D01*
X5541Y281300D01*
X5641Y280700D01*
X5791Y280300D01*
X6091Y279900D01*
X6441Y279633D01*
X6791Y279500D01*
X7141D01*
X7491Y279633D01*
X7791Y279833D01*
X8041Y280100D01*
G01X9550Y282833D02*
X9850Y283233D01*
X10200Y283433D01*
X10600Y283500D01*
X11100Y283367D01*
X11450Y283033D01*
X11550Y282633D01*
X11500Y282233D01*
X11300Y281900D01*
X10300Y281233D01*
X9850Y280767D01*
X9550Y280100D01*
X9450Y279500D01*
X11550D01*
G01X14209D02*
Y283500D01*
X13609Y282700D01*
G01Y279500D02*
X14809D01*
G01X1250Y347464D02*
X1650Y347131D01*
X2100Y346931D01*
X2500D01*
X2900Y347131D01*
X3200Y347464D01*
X3350Y347931D01*
X3250Y348398D01*
X3000Y348798D01*
X2550Y349064D01*
X1950Y349198D01*
X1600Y349464D01*
X1450Y349931D01*
X1550Y350398D01*
X1800Y350731D01*
X2150Y350931D01*
X2500D01*
X2850Y350798D01*
X3150Y350464D01*
G01X5409Y350931D02*
X6609D01*
G01X6009D02*
Y346931D01*
G01X5409D02*
X6609D01*
G01X8717Y350931D02*
Y346931D01*
X10717D01*
G01X12326D02*
Y350931D01*
G01X14226D02*
X12326Y348464D01*
G01X14526Y346931D02*
X13176Y349598D01*
G01X16085Y347464D02*
X16485Y347131D01*
X16935Y346931D01*
X17335D01*
X17735Y347131D01*
X18035Y347464D01*
X18185Y347931D01*
X18085Y348398D01*
X17835Y348798D01*
X17385Y349064D01*
X16785Y349198D01*
X16435Y349464D01*
X16285Y349931D01*
X16385Y350398D01*
X16635Y350731D01*
X16985Y350931D01*
X17335D01*
X17685Y350798D01*
X17985Y350464D01*
G01X21944Y350598D02*
X21644Y350798D01*
X21294Y350931D01*
X20894D01*
X20443Y350731D01*
X20094Y350398D01*
X19844Y349998D01*
X19643Y349331D01*
X19593Y348731D01*
X19694Y348131D01*
X19844Y347731D01*
X20144Y347331D01*
X20494Y347064D01*
X20844Y346931D01*
X21194D01*
X21544Y347064D01*
X21844Y347264D01*
X22094Y347531D01*
G01X23552Y346931D02*
Y350931D01*
X24802D01*
X25202Y350731D01*
X25452Y350464D01*
X25552Y349931D01*
X25452Y349398D01*
X25152Y349064D01*
X24802Y348864D01*
X23552D01*
G01X24802D02*
X25552Y346931D01*
G01X29261D02*
X27261D01*
Y350931D01*
X29261D01*
G01X28461Y348998D02*
X27261D01*
G01X32970Y346931D02*
X30970D01*
Y350931D01*
X32970D01*
G01X32170Y348998D02*
X30970D01*
G01X34528Y346931D02*
Y350931D01*
X36828Y346931D01*
Y350931D01*
G01X37887Y345598D02*
X40887D01*
G01X43096Y350931D02*
Y346931D01*
G01X41946Y350931D02*
X44246D01*
G01X46804Y346931D02*
X46404Y346998D01*
X46054Y347264D01*
X45754Y347664D01*
X45554Y348131D01*
X45454Y348664D01*
Y349198D01*
X45554Y349731D01*
X45754Y350198D01*
X46054Y350598D01*
X46404Y350864D01*
X46804Y350931D01*
X47204Y350864D01*
X47554Y350598D01*
X47854Y350198D01*
X48054Y349731D01*
X48154Y349198D01*
Y348664D01*
X48054Y348131D01*
X47854Y347664D01*
X47554Y347264D01*
X47204Y346998D01*
X46804Y346931D01*
G01X49513D02*
Y350931D01*
X50713D01*
X51113Y350731D01*
X51413Y350264D01*
X51513Y349731D01*
X51413Y349198D01*
X51163Y348798D01*
X50713Y348598D01*
X49513D01*
G01X53467Y4241D02*
X53800Y4641D01*
X54000Y5091D01*
Y5491D01*
X53800Y5891D01*
X53467Y6191D01*
X53000Y6341D01*
X52533Y6241D01*
X52133Y5991D01*
X51867Y5541D01*
X51733Y4941D01*
X51467Y4591D01*
X51000Y4441D01*
X50533Y4541D01*
X50200Y4791D01*
X50000Y5141D01*
Y5491D01*
X50133Y5841D01*
X50467Y6141D01*
G01X50333Y10100D02*
X50133Y9800D01*
X50000Y9450D01*
Y9050D01*
X50200Y8600D01*
X50533Y8250D01*
X50933Y8000D01*
X51600Y7800D01*
X52200Y7750D01*
X52800Y7850D01*
X53200Y8000D01*
X53600Y8300D01*
X53867Y8650D01*
X54000Y9000D01*
Y9350D01*
X53867Y9700D01*
X53667Y10000D01*
X53400Y10250D01*
G01X50000Y11709D02*
X54000D01*
Y13709D01*
G01X37100Y28000D02*
Y32000D01*
X35250Y29133D01*
X37750D01*
G01X42146Y66500D02*
Y70500D01*
X41546Y69700D01*
G01Y66500D02*
X42746D01*
G01X44754Y67300D02*
X45054Y66833D01*
X45454Y66567D01*
X45904Y66500D01*
X46304Y66567D01*
X46704Y66900D01*
X46954Y67300D01*
X47004Y67700D01*
X46904Y68167D01*
X46554Y68500D01*
X46204Y68633D01*
X45754D01*
G01X46204D02*
X46504Y68833D01*
X46754Y69167D01*
X46854Y69567D01*
X46754Y69967D01*
X46504Y70300D01*
X46054Y70500D01*
X45604Y70433D01*
X45154Y70167D01*
G01X49391Y51167D02*
X49091Y51367D01*
X48741Y51500D01*
X48341D01*
X47891Y51300D01*
X47541Y50967D01*
X47291Y50567D01*
X47091Y49900D01*
X47041Y49300D01*
X47141Y48700D01*
X47291Y48300D01*
X47591Y47900D01*
X47941Y47633D01*
X48291Y47500D01*
X48641D01*
X48991Y47633D01*
X49291Y47833D01*
X49541Y48100D01*
G01X50900Y48300D02*
X51200Y47833D01*
X51600Y47567D01*
X52050Y47500D01*
X52450Y47567D01*
X52850Y47900D01*
X53100Y48300D01*
X53150Y48700D01*
X53050Y49167D01*
X52700Y49500D01*
X52350Y49633D01*
X51900D01*
G01X52350D02*
X52650Y49833D01*
X52900Y50167D01*
X53000Y50567D01*
X52900Y50967D01*
X52650Y51300D01*
X52200Y51500D01*
X51750Y51433D01*
X51300Y51167D01*
G01X55709Y51500D02*
X55309Y51367D01*
X55009Y51033D01*
X54809Y50633D01*
X54659Y50100D01*
X54609Y49500D01*
X54659Y48900D01*
X54809Y48367D01*
X55009Y47967D01*
X55309Y47633D01*
X55709Y47500D01*
X56109Y47633D01*
X56409Y47967D01*
X56609Y48367D01*
X56759Y48900D01*
X56809Y49500D01*
X56759Y50100D01*
X56609Y50633D01*
X56409Y51033D01*
X56109Y51367D01*
X55709Y51500D01*
G01X35833Y64391D02*
X35633Y64091D01*
X35500Y63741D01*
Y63341D01*
X35700Y62891D01*
X36033Y62541D01*
X36433Y62291D01*
X37100Y62091D01*
X37700Y62041D01*
X38300Y62141D01*
X38700Y62291D01*
X39100Y62591D01*
X39367Y62941D01*
X39500Y63291D01*
Y63641D01*
X39367Y63991D01*
X39167Y64291D01*
X38900Y64541D01*
G01X36167Y66050D02*
X35767Y66350D01*
X35567Y66700D01*
X35500Y67100D01*
X35633Y67600D01*
X35967Y67950D01*
X36367Y68050D01*
X36767Y68000D01*
X37100Y67800D01*
X37767Y66800D01*
X38233Y66350D01*
X38900Y66050D01*
X39500Y65950D01*
Y68050D01*
G01Y70709D02*
X39433Y71059D01*
X39233Y71459D01*
X38900Y71709D01*
X38433Y71809D01*
X37967Y71709D01*
X37567Y71409D01*
X37367Y70959D01*
Y70459D01*
X37233Y70159D01*
X36900Y69909D01*
X36433Y69809D01*
X35967Y69959D01*
X35633Y70309D01*
X35500Y70709D01*
X35633Y71109D01*
X35967Y71459D01*
X36433Y71609D01*
X36900Y71509D01*
X37233Y71259D01*
X37367Y70959D01*
Y70459D01*
X37567Y70009D01*
X37967Y69709D01*
X38433Y69609D01*
X38900Y69709D01*
X39233Y69959D01*
X39433Y70359D01*
X39500Y70709D01*
G01X51391Y67667D02*
X51091Y67867D01*
X50741Y68000D01*
X50341D01*
X49891Y67800D01*
X49541Y67467D01*
X49291Y67067D01*
X49091Y66400D01*
X49041Y65800D01*
X49141Y65200D01*
X49291Y64800D01*
X49591Y64400D01*
X49941Y64133D01*
X50291Y64000D01*
X50641D01*
X50991Y64133D01*
X51291Y64333D01*
X51541Y64600D01*
G01X53050Y67333D02*
X53350Y67733D01*
X53700Y67933D01*
X54100Y68000D01*
X54600Y67867D01*
X54950Y67533D01*
X55050Y67133D01*
X55000Y66733D01*
X54800Y66400D01*
X53800Y65733D01*
X53350Y65267D01*
X53050Y64600D01*
X52950Y64000D01*
X55050D01*
G01X58309D02*
Y68000D01*
X56459Y65133D01*
X58959D01*
G01X63862Y62250D02*
X44138D01*
Y52750D01*
X63862D01*
Y62250D01*
G01X43646Y120500D02*
Y116500D01*
X45646D01*
G01X47404Y119833D02*
X47704Y120233D01*
X48054Y120433D01*
X48454Y120500D01*
X48954Y120367D01*
X49304Y120033D01*
X49404Y119633D01*
X49354Y119233D01*
X49154Y118900D01*
X48154Y118233D01*
X47704Y117767D01*
X47404Y117100D01*
X47304Y116500D01*
X49404D01*
G01X40507Y108350D02*
X53893D01*
Y114650D01*
X40507D01*
Y108350D01*
G01X44246Y98500D02*
Y102500D01*
X42396Y99633D01*
X44896D01*
G01X47354Y98500D02*
X47704Y98567D01*
X48104Y98767D01*
X48354Y99100D01*
X48454Y99567D01*
X48354Y100033D01*
X48054Y100433D01*
X47604Y100633D01*
X47104D01*
X46804Y100767D01*
X46554Y101100D01*
X46454Y101567D01*
X46604Y102033D01*
X46954Y102367D01*
X47354Y102500D01*
X47754Y102367D01*
X48104Y102033D01*
X48254Y101567D01*
X48154Y101100D01*
X47904Y100767D01*
X47604Y100633D01*
X47104D01*
X46654Y100433D01*
X46354Y100033D01*
X46254Y99567D01*
X46354Y99100D01*
X46604Y98767D01*
X47004Y98567D01*
X47354Y98500D01*
G01X52191Y102500D02*
Y99633D01*
X52391Y99033D01*
X52791Y98633D01*
X53291Y98500D01*
X53791Y98633D01*
X54191Y99033D01*
X54391Y99633D01*
Y102500D01*
G01X57000Y98500D02*
Y102500D01*
X56400Y101700D01*
G01Y98500D02*
X57600D01*
G01X61309D02*
Y102500D01*
X59459Y99633D01*
X61959D01*
G01X33333Y119391D02*
X33133Y119091D01*
X33000Y118741D01*
Y118341D01*
X33200Y117891D01*
X33533Y117541D01*
X33933Y117291D01*
X34600Y117091D01*
X35200Y117041D01*
X35800Y117141D01*
X36200Y117291D01*
X36600Y117591D01*
X36867Y117941D01*
X37000Y118291D01*
Y118641D01*
X36867Y118991D01*
X36667Y119291D01*
X36400Y119541D01*
G01X33667Y121050D02*
X33267Y121350D01*
X33067Y121700D01*
X33000Y122100D01*
X33133Y122600D01*
X33467Y122950D01*
X33867Y123050D01*
X34267Y123000D01*
X34600Y122800D01*
X35267Y121800D01*
X35733Y121350D01*
X36400Y121050D01*
X37000Y120950D01*
Y123050D01*
G01X36200Y124609D02*
X36667Y124909D01*
X36933Y125309D01*
X37000Y125759D01*
X36933Y126159D01*
X36600Y126559D01*
X36200Y126809D01*
X35800Y126859D01*
X35333Y126759D01*
X35000Y126409D01*
X34867Y126059D01*
Y125609D01*
G01Y126059D02*
X34667Y126359D01*
X34333Y126609D01*
X33933Y126709D01*
X33533Y126609D01*
X33200Y126359D01*
X33000Y125909D01*
X33067Y125459D01*
X33333Y125009D01*
G01X39750Y95412D02*
Y115136D01*
X30250D01*
Y95412D01*
X39750D01*
G01X29191Y136000D02*
Y133133D01*
X29391Y132533D01*
X29791Y132133D01*
X30291Y132000D01*
X30791Y132133D01*
X31191Y132533D01*
X31391Y133133D01*
Y136000D01*
G01X34000Y132000D02*
Y136000D01*
X33400Y135200D01*
G01Y132000D02*
X34600D01*
G01X36609Y132800D02*
X36909Y132333D01*
X37309Y132067D01*
X37759Y132000D01*
X38159Y132067D01*
X38559Y132400D01*
X38809Y132800D01*
X38859Y133200D01*
X38759Y133667D01*
X38409Y134000D01*
X38059Y134133D01*
X37609D01*
G01X38059D02*
X38359Y134333D01*
X38609Y134667D01*
X38709Y135067D01*
X38609Y135467D01*
X38359Y135800D01*
X37909Y136000D01*
X37459Y135933D01*
X37009Y135667D01*
G01X34000Y216791D02*
X30000D01*
Y218041D01*
X30200Y218441D01*
X30467Y218691D01*
X31000Y218791D01*
X31533Y218691D01*
X31867Y218391D01*
X32067Y218041D01*
Y216791D01*
G01Y218041D02*
X34000Y218791D01*
G01Y222100D02*
X30000D01*
X32867Y220250D01*
Y222750D01*
G01X34000Y225209D02*
X30000D01*
X30800Y224609D01*
G01X34000D02*
Y225809D01*
G01X45374Y205288D02*
Y225011D01*
X35874D01*
Y205288D01*
X45374D01*
G01X47650Y243262D02*
Y223538D01*
X57150D01*
Y243262D01*
X47650D01*
G01X29538Y220873D02*
Y224873D01*
X30788D01*
X31188Y224673D01*
X31438Y224406D01*
X31538Y223873D01*
X31438Y223340D01*
X31138Y223006D01*
X30788Y222806D01*
X29538D01*
G01X30788D02*
X31538Y220873D01*
G01X34846D02*
Y224873D01*
X32996Y222006D01*
X35496D01*
G01X38555Y220873D02*
Y224873D01*
X36705Y222006D01*
X39205D01*
G01X53891Y207667D02*
X53591Y207867D01*
X53241Y208000D01*
X52841D01*
X52391Y207800D01*
X52041Y207467D01*
X51791Y207067D01*
X51591Y206400D01*
X51541Y205800D01*
X51641Y205200D01*
X51791Y204800D01*
X52091Y204400D01*
X52441Y204133D01*
X52791Y204000D01*
X53141D01*
X53491Y204133D01*
X53791Y204333D01*
X54041Y204600D01*
G01X56500Y204000D02*
Y208000D01*
X55900Y207200D01*
G01Y204000D02*
X57100D01*
G01X60809D02*
Y208000D01*
X58959Y205133D01*
X61459D01*
G01X66462Y218450D02*
X46738D01*
Y208950D01*
X66462D01*
Y218450D01*
G01X40450Y250833D02*
X41650D01*
G01X41000Y251700D02*
Y249967D01*
G01X40350Y243333D02*
X41650D01*
G01X36791Y232500D02*
Y236500D01*
X38041D01*
X38441Y236300D01*
X38691Y236033D01*
X38791Y235500D01*
X38691Y234967D01*
X38391Y234633D01*
X38041Y234433D01*
X36791D01*
G01X38041D02*
X38791Y232500D01*
G01X40400Y233300D02*
X40700Y232833D01*
X41100Y232567D01*
X41550Y232500D01*
X41950Y232567D01*
X42350Y232900D01*
X42600Y233300D01*
X42650Y233700D01*
X42550Y234167D01*
X42200Y234500D01*
X41850Y234633D01*
X41400D01*
G01X41850D02*
X42150Y234833D01*
X42400Y235167D01*
X42500Y235567D01*
X42400Y235967D01*
X42150Y236300D01*
X41700Y236500D01*
X41250Y236433D01*
X40800Y236167D01*
G01X44259Y235833D02*
X44559Y236233D01*
X44909Y236433D01*
X45309Y236500D01*
X45809Y236367D01*
X46159Y236033D01*
X46259Y235633D01*
X46209Y235233D01*
X46009Y234900D01*
X45009Y234233D01*
X44559Y233767D01*
X44259Y233100D01*
X44159Y232500D01*
X46259D01*
G01X43900Y245300D02*
X44200Y244833D01*
X44600Y244567D01*
X45050Y244500D01*
X45450Y244567D01*
X45850Y244900D01*
X46100Y245300D01*
X46150Y245700D01*
X46050Y246167D01*
X45700Y246500D01*
X45350Y246633D01*
X44900D01*
G01X45350D02*
X45650Y246833D01*
X45900Y247167D01*
X46000Y247567D01*
X45900Y247967D01*
X45650Y248300D01*
X45200Y248500D01*
X44750Y248433D01*
X44300Y248167D01*
G01X41291Y263000D02*
Y267000D01*
X42541D01*
X42941Y266800D01*
X43191Y266533D01*
X43291Y266000D01*
X43191Y265467D01*
X42891Y265133D01*
X42541Y264933D01*
X41291D01*
G01X42541D02*
X43291Y263000D01*
G01X46600D02*
Y267000D01*
X44750Y264133D01*
X47250D01*
G01X48759Y266333D02*
X49059Y266733D01*
X49409Y266933D01*
X49809Y267000D01*
X50309Y266867D01*
X50659Y266533D01*
X50759Y266133D01*
X50709Y265733D01*
X50509Y265400D01*
X49509Y264733D01*
X49059Y264267D01*
X48759Y263600D01*
X48659Y263000D01*
X50759D01*
G01X35115Y268750D02*
X54838D01*
Y278250D01*
X35115D01*
Y268750D01*
G01X35902Y300750D02*
X55626D01*
Y310250D01*
X35902D01*
Y300750D01*
G01X38591Y314000D02*
X39591D01*
Y312800D01*
X39291Y312400D01*
X38941Y312133D01*
X38441Y312000D01*
X37941Y312133D01*
X37591Y312400D01*
X37291Y312800D01*
X37091Y313267D01*
X36991Y313800D01*
Y314267D01*
X37091Y314667D01*
X37291Y315133D01*
X37591Y315533D01*
X37891Y315800D01*
X38291Y316000D01*
X38641D01*
X39041Y315867D01*
X39341Y315600D01*
G01X40850Y312000D02*
Y316000D01*
X43150Y312000D01*
Y316000D01*
G01X44609Y312000D02*
Y316000D01*
X45609D01*
X46009Y315800D01*
X46309Y315533D01*
X46559Y315133D01*
X46759Y314667D01*
X46809Y314000D01*
X46759Y313333D01*
X46559Y312867D01*
X46309Y312467D01*
X46009Y312200D01*
X45609Y312000D01*
X44609D01*
G01X46291Y326500D02*
Y322500D01*
G01X45141Y326500D02*
X47441D01*
G01X49000Y322500D02*
Y326500D01*
X50200D01*
X50600Y326300D01*
X50900Y325833D01*
X51000Y325300D01*
X50900Y324767D01*
X50650Y324367D01*
X50200Y324167D01*
X49000D01*
G01X54309Y322500D02*
Y326500D01*
X52459Y323633D01*
X54959D01*
G01X63467Y4241D02*
X63800Y4641D01*
X64000Y5091D01*
Y5491D01*
X63800Y5891D01*
X63467Y6191D01*
X63000Y6341D01*
X62533Y6241D01*
X62133Y5991D01*
X61867Y5541D01*
X61733Y4941D01*
X61467Y4591D01*
X61000Y4441D01*
X60533Y4541D01*
X60200Y4791D01*
X60000Y5141D01*
Y5491D01*
X60133Y5841D01*
X60467Y6141D01*
G01X64000Y7900D02*
X60000D01*
Y8900D01*
X60200Y9300D01*
X60467Y9600D01*
X60867Y9850D01*
X61333Y10050D01*
X62000Y10100D01*
X62667Y10050D01*
X63133Y9850D01*
X63533Y9600D01*
X63800Y9300D01*
X64000Y8900D01*
Y7900D01*
G01Y11459D02*
X60000Y12709D01*
X64000Y13959D01*
G01X62600Y13509D02*
Y11909D01*
G01X74500Y11300D02*
X74750Y10900D01*
X75050Y10633D01*
X75400Y10500D01*
X75800Y10633D01*
X76100Y10900D01*
X76400Y11300D01*
X76500Y11833D01*
Y14500D01*
G01X79209Y10500D02*
Y14500D01*
X78609Y13700D01*
G01Y10500D02*
X79809D01*
G01X82917D02*
Y14500D01*
X82317Y13700D01*
G01Y10500D02*
X83517D01*
G01X67550Y52162D02*
Y32438D01*
X77050D01*
Y52162D01*
X67550D01*
G01Y32438D02*
Y52162D01*
X58050D01*
Y32438D01*
X67550D01*
G01X65696Y67833D02*
X65996Y68233D01*
X66346Y68433D01*
X66746Y68500D01*
X67246Y68367D01*
X67596Y68033D01*
X67696Y67633D01*
X67646Y67233D01*
X67446Y66900D01*
X66446Y66233D01*
X65996Y65767D01*
X65696Y65100D01*
X65596Y64500D01*
X67696D01*
G01X70954D02*
Y68500D01*
X69104Y65633D01*
X71604D01*
G01X68291Y53500D02*
Y57500D01*
X69541D01*
X69941Y57300D01*
X70191Y57033D01*
X70291Y56500D01*
X70191Y55967D01*
X69891Y55633D01*
X69541Y55433D01*
X68291D01*
G01X69541D02*
X70291Y53500D01*
G01X72050Y56833D02*
X72350Y57233D01*
X72700Y57433D01*
X73100Y57500D01*
X73600Y57367D01*
X73950Y57033D01*
X74050Y56633D01*
X74000Y56233D01*
X73800Y55900D01*
X72800Y55233D01*
X72350Y54767D01*
X72050Y54100D01*
X71950Y53500D01*
X74050D01*
G01X76609D02*
X76709Y54367D01*
X76859Y55100D01*
X77059Y55767D01*
X77309Y56500D01*
X77709Y57500D01*
X75709D01*
G01X80891Y70167D02*
X80591Y70367D01*
X80241Y70500D01*
X79841D01*
X79391Y70300D01*
X79041Y69967D01*
X78791Y69567D01*
X78591Y68900D01*
X78541Y68300D01*
X78641Y67700D01*
X78791Y67300D01*
X79091Y66900D01*
X79441Y66633D01*
X79791Y66500D01*
X80141D01*
X80491Y66633D01*
X80791Y66833D01*
X81041Y67100D01*
G01X82400Y67300D02*
X82700Y66833D01*
X83100Y66567D01*
X83550Y66500D01*
X83950Y66567D01*
X84350Y66900D01*
X84600Y67300D01*
X84650Y67700D01*
X84550Y68167D01*
X84200Y68500D01*
X83850Y68633D01*
X83400D01*
G01X83850D02*
X84150Y68833D01*
X84400Y69167D01*
X84500Y69567D01*
X84400Y69967D01*
X84150Y70300D01*
X83700Y70500D01*
X83250Y70433D01*
X82800Y70167D01*
G01X87209Y66500D02*
Y70500D01*
X86609Y69700D01*
G01Y66500D02*
X87809D01*
G01X81391Y62167D02*
X81091Y62367D01*
X80741Y62500D01*
X80341D01*
X79891Y62300D01*
X79541Y61967D01*
X79291Y61567D01*
X79091Y60900D01*
X79041Y60300D01*
X79141Y59700D01*
X79291Y59300D01*
X79591Y58900D01*
X79941Y58633D01*
X80291Y58500D01*
X80641D01*
X80991Y58633D01*
X81291Y58833D01*
X81541Y59100D01*
G01X82900Y59300D02*
X83200Y58833D01*
X83600Y58567D01*
X84050Y58500D01*
X84450Y58567D01*
X84850Y58900D01*
X85100Y59300D01*
X85150Y59700D01*
X85050Y60167D01*
X84700Y60500D01*
X84350Y60633D01*
X83900D01*
G01X84350D02*
X84650Y60833D01*
X84900Y61167D01*
X85000Y61567D01*
X84900Y61967D01*
X84650Y62300D01*
X84200Y62500D01*
X83750Y62433D01*
X83300Y62167D01*
G01X86609Y59100D02*
X86909Y58767D01*
X87259Y58567D01*
X87709Y58500D01*
X88159Y58633D01*
X88509Y58900D01*
X88759Y59367D01*
X88809Y59900D01*
X88709Y60433D01*
X88459Y60767D01*
X88109Y61033D01*
X87759Y61100D01*
X87409Y61033D01*
X86959Y60767D01*
X87109Y62500D01*
X88459D01*
G01X73196Y75333D02*
X73496Y75733D01*
X73846Y75933D01*
X74246Y76000D01*
X74746Y75867D01*
X75096Y75533D01*
X75196Y75133D01*
X75146Y74733D01*
X74946Y74400D01*
X73946Y73733D01*
X73496Y73267D01*
X73196Y72600D01*
X73096Y72000D01*
X75196D01*
G01X76754Y72600D02*
X77054Y72267D01*
X77404Y72067D01*
X77854Y72000D01*
X78304Y72133D01*
X78654Y72400D01*
X78904Y72867D01*
X78954Y73400D01*
X78854Y73933D01*
X78604Y74267D01*
X78254Y74533D01*
X77904Y74600D01*
X77554Y74533D01*
X77104Y74267D01*
X77254Y76000D01*
X78604D01*
G01X77833Y88391D02*
X77633Y88091D01*
X77500Y87741D01*
Y87341D01*
X77700Y86891D01*
X78033Y86541D01*
X78433Y86291D01*
X79100Y86091D01*
X79700Y86041D01*
X80300Y86141D01*
X80700Y86291D01*
X81100Y86591D01*
X81367Y86941D01*
X81500Y87291D01*
Y87641D01*
X81367Y87991D01*
X81167Y88291D01*
X80900Y88541D01*
G01X78167Y90050D02*
X77767Y90350D01*
X77567Y90700D01*
X77500Y91100D01*
X77633Y91600D01*
X77967Y91950D01*
X78367Y92050D01*
X78767Y92000D01*
X79100Y91800D01*
X79767Y90800D01*
X80233Y90350D01*
X80900Y90050D01*
X81500Y89950D01*
Y92050D01*
G01Y94609D02*
X80633Y94709D01*
X79900Y94859D01*
X79233Y95059D01*
X78500Y95309D01*
X77500Y95709D01*
Y93709D01*
G01X66063Y99613D02*
X66363Y99146D01*
X66763Y98879D01*
X67213Y98813D01*
X67613Y98879D01*
X68013Y99212D01*
X68263Y99613D01*
X68313Y100013D01*
X68213Y100479D01*
X67863Y100812D01*
X67513Y100946D01*
X67063D01*
G01X67513D02*
X67813Y101146D01*
X68063Y101479D01*
X68163Y101879D01*
X68063Y102279D01*
X67813Y102612D01*
X67363Y102813D01*
X66913Y102746D01*
X66463Y102479D01*
G01X70771Y98813D02*
X70871Y99679D01*
X71021Y100412D01*
X71221Y101079D01*
X71471Y101813D01*
X71871Y102813D01*
X69871D01*
G01X63413Y108313D02*
Y128037D01*
X53913D01*
Y108313D01*
X63413D01*
G01X72913D02*
Y128037D01*
X63413D01*
Y108313D01*
X72913D01*
G01X77333Y100891D02*
X77133Y100591D01*
X77000Y100241D01*
Y99841D01*
X77200Y99391D01*
X77533Y99041D01*
X77933Y98791D01*
X78600Y98591D01*
X79200Y98541D01*
X79800Y98641D01*
X80200Y98791D01*
X80600Y99091D01*
X80867Y99441D01*
X81000Y99791D01*
Y100141D01*
X80867Y100491D01*
X80667Y100791D01*
X80400Y101041D01*
G01X77667Y102550D02*
X77267Y102850D01*
X77067Y103200D01*
X77000Y103600D01*
X77133Y104100D01*
X77467Y104450D01*
X77867Y104550D01*
X78267Y104500D01*
X78600Y104300D01*
X79267Y103300D01*
X79733Y102850D01*
X80400Y102550D01*
X81000Y102450D01*
Y104550D01*
G01X80400Y106109D02*
X80733Y106409D01*
X80933Y106759D01*
X81000Y107209D01*
X80867Y107659D01*
X80600Y108009D01*
X80133Y108259D01*
X79600Y108309D01*
X79067Y108209D01*
X78733Y107959D01*
X78467Y107609D01*
X78400Y107259D01*
X78467Y106909D01*
X78733Y106459D01*
X77000Y106609D01*
Y107959D01*
G01X60000Y129291D02*
X56000D01*
Y130541D01*
X56200Y130941D01*
X56467Y131191D01*
X57000Y131291D01*
X57533Y131191D01*
X57867Y130891D01*
X58067Y130541D01*
Y129291D01*
G01Y130541D02*
X60000Y131291D01*
G01X56667Y133050D02*
X56267Y133350D01*
X56067Y133700D01*
X56000Y134100D01*
X56133Y134600D01*
X56467Y134950D01*
X56867Y135050D01*
X57267Y135000D01*
X57600Y134800D01*
X58267Y133800D01*
X58733Y133350D01*
X59400Y133050D01*
X60000Y132950D01*
Y135050D01*
G01Y137709D02*
X59933Y138059D01*
X59733Y138459D01*
X59400Y138709D01*
X58933Y138809D01*
X58467Y138709D01*
X58067Y138409D01*
X57867Y137959D01*
Y137459D01*
X57733Y137159D01*
X57400Y136909D01*
X56933Y136809D01*
X56467Y136959D01*
X56133Y137309D01*
X56000Y137709D01*
X56133Y138109D01*
X56467Y138459D01*
X56933Y138609D01*
X57400Y138509D01*
X57733Y138259D01*
X57867Y137959D01*
Y137459D01*
X58067Y137009D01*
X58467Y136709D01*
X58933Y136609D01*
X59400Y136709D01*
X59733Y136959D01*
X59933Y137359D01*
X60000Y137709D01*
G01X70500Y130291D02*
X66500D01*
Y131541D01*
X66700Y131941D01*
X66967Y132191D01*
X67500Y132291D01*
X68033Y132191D01*
X68367Y131891D01*
X68567Y131541D01*
Y130291D01*
G01Y131541D02*
X70500Y132291D01*
G01X67167Y134050D02*
X66767Y134350D01*
X66567Y134700D01*
X66500Y135100D01*
X66633Y135600D01*
X66967Y135950D01*
X67367Y136050D01*
X67767Y136000D01*
X68100Y135800D01*
X68767Y134800D01*
X69233Y134350D01*
X69900Y134050D01*
X70500Y133950D01*
Y136050D01*
G01X70033Y137859D02*
X70367Y138209D01*
X70500Y138609D01*
X70367Y139009D01*
X69967Y139359D01*
X69367Y139609D01*
X68767Y139709D01*
X68033D01*
X67433Y139609D01*
X66900Y139359D01*
X66633Y139059D01*
X66500Y138709D01*
X66633Y138309D01*
X66900Y138009D01*
X67300Y137809D01*
X67833Y137709D01*
X68300Y137809D01*
X68767Y138059D01*
X69033Y138359D01*
X69100Y138709D01*
X68967Y139109D01*
X68633Y139409D01*
X68033Y139709D01*
G01X67400Y225600D02*
X67700Y225267D01*
X68050Y225067D01*
X68500Y225000D01*
X68950Y225133D01*
X69300Y225400D01*
X69550Y225867D01*
X69600Y226400D01*
X69500Y226933D01*
X69250Y227267D01*
X68900Y227533D01*
X68550Y227600D01*
X68200Y227533D01*
X67750Y227267D01*
X67900Y229000D01*
X69250D01*
G01X66550Y223537D02*
Y243260D01*
X57050D01*
Y223537D01*
X66550D01*
G01X69187Y256000D02*
X70437Y252000D01*
X71687Y256000D01*
G01X74546Y254133D02*
X74746Y254333D01*
X74896Y254667D01*
X74996Y255133D01*
X74896Y255533D01*
X74696Y255800D01*
X74346Y256000D01*
X72996D01*
Y252000D01*
X74646D01*
X74996Y252267D01*
X75196Y252667D01*
X75296Y253133D01*
X75196Y253600D01*
X74896Y254000D01*
X74546Y254133D01*
X72996D01*
G01X76604Y252000D02*
X77854Y256000D01*
X79104Y252000D01*
G01X78654Y253400D02*
X77054D01*
G01X81563Y256000D02*
Y252000D01*
G01X80413Y256000D02*
X82713D01*
G01X68291Y240500D02*
Y244500D01*
X69541D01*
X69941Y244300D01*
X70191Y244033D01*
X70291Y243500D01*
X70191Y242967D01*
X69891Y242633D01*
X69541Y242433D01*
X68291D01*
G01X69541D02*
X70291Y240500D01*
G01X73000D02*
Y244500D01*
X72400Y243700D01*
G01Y240500D02*
X73600D01*
G01X75859Y240967D02*
X76209Y240633D01*
X76609Y240500D01*
X77009Y240633D01*
X77359Y241033D01*
X77609Y241633D01*
X77709Y242233D01*
Y242967D01*
X77609Y243567D01*
X77359Y244100D01*
X77059Y244367D01*
X76709Y244500D01*
X76309Y244367D01*
X76009Y244100D01*
X75809Y243700D01*
X75709Y243167D01*
X75809Y242700D01*
X76059Y242233D01*
X76359Y241967D01*
X76709Y241900D01*
X77109Y242033D01*
X77409Y242367D01*
X77709Y242967D01*
G01X62691Y250000D02*
Y247133D01*
X62891Y246533D01*
X63291Y246133D01*
X63791Y246000D01*
X64291Y246133D01*
X64691Y246533D01*
X64891Y247133D01*
Y250000D01*
G01X67500Y246000D02*
Y250000D01*
X66900Y249200D01*
G01Y246000D02*
X68100D01*
G01X71109D02*
X71209Y246867D01*
X71359Y247600D01*
X71559Y248267D01*
X71809Y249000D01*
X72209Y250000D01*
X70209D01*
G01X68937Y262000D02*
Y258000D01*
G01X67787Y262000D02*
X70087D01*
G01X71646Y258000D02*
Y262000D01*
X72846D01*
X73246Y261800D01*
X73546Y261333D01*
X73646Y260800D01*
X73546Y260267D01*
X73296Y259867D01*
X72846Y259667D01*
X71646D01*
G01X76354Y258000D02*
Y262000D01*
X75754Y261200D01*
G01Y258000D02*
X76954D01*
G01X79113Y261333D02*
X79413Y261733D01*
X79763Y261933D01*
X80163Y262000D01*
X80663Y261867D01*
X81013Y261533D01*
X81113Y261133D01*
X81063Y260733D01*
X80863Y260400D01*
X79863Y259733D01*
X79413Y259267D01*
X79113Y258600D01*
X79013Y258000D01*
X81113D01*
G01X78791Y271900D02*
Y275900D01*
X80041D01*
X80441Y275700D01*
X80691Y275433D01*
X80791Y274900D01*
X80691Y274367D01*
X80391Y274033D01*
X80041Y273833D01*
X78791D01*
G01X80041D02*
X80791Y271900D01*
G01X82400Y272700D02*
X82700Y272233D01*
X83100Y271967D01*
X83550Y271900D01*
X83950Y271967D01*
X84350Y272300D01*
X84600Y272700D01*
X84650Y273100D01*
X84550Y273567D01*
X84200Y273900D01*
X83850Y274033D01*
X83400D01*
G01X83850D02*
X84150Y274233D01*
X84400Y274567D01*
X84500Y274967D01*
X84400Y275367D01*
X84150Y275700D01*
X83700Y275900D01*
X83250Y275833D01*
X82800Y275567D01*
G01X86359Y272367D02*
X86709Y272033D01*
X87109Y271900D01*
X87509Y272033D01*
X87859Y272433D01*
X88109Y273033D01*
X88209Y273633D01*
Y274367D01*
X88109Y274967D01*
X87859Y275500D01*
X87559Y275767D01*
X87209Y275900D01*
X86809Y275767D01*
X86509Y275500D01*
X86309Y275100D01*
X86209Y274567D01*
X86309Y274100D01*
X86559Y273633D01*
X86859Y273367D01*
X87209Y273300D01*
X87609Y273433D01*
X87909Y273767D01*
X88209Y274367D01*
G01X75362Y278250D02*
X55638D01*
Y268750D01*
X75362D01*
Y278250D01*
G01X59050Y260833D02*
X59350Y261233D01*
X59700Y261433D01*
X60100Y261500D01*
X60600Y261367D01*
X60950Y261033D01*
X61050Y260633D01*
X61000Y260233D01*
X60800Y259900D01*
X59800Y259233D01*
X59350Y258767D01*
X59050Y258100D01*
X58950Y257500D01*
X61050D01*
G01X78291Y295000D02*
Y299000D01*
X79541D01*
X79941Y298800D01*
X80191Y298533D01*
X80291Y298000D01*
X80191Y297467D01*
X79891Y297133D01*
X79541Y296933D01*
X78291D01*
G01X79541D02*
X80291Y295000D01*
G01X81900Y295800D02*
X82200Y295333D01*
X82600Y295067D01*
X83050Y295000D01*
X83450Y295067D01*
X83850Y295400D01*
X84100Y295800D01*
X84150Y296200D01*
X84050Y296667D01*
X83700Y297000D01*
X83350Y297133D01*
X82900D01*
G01X83350D02*
X83650Y297333D01*
X83900Y297667D01*
X84000Y298067D01*
X83900Y298467D01*
X83650Y298800D01*
X83200Y299000D01*
X82750Y298933D01*
X82300Y298667D01*
G01X86609Y295000D02*
X86709Y295867D01*
X86859Y296600D01*
X87059Y297267D01*
X87309Y298000D01*
X87709Y299000D01*
X85709D01*
G01X75941Y301850D02*
X56217D01*
Y292350D01*
X75941D01*
Y301850D01*
G01X57791Y304500D02*
Y308500D01*
X59041D01*
X59441Y308300D01*
X59691Y308033D01*
X59791Y307500D01*
X59691Y306967D01*
X59391Y306633D01*
X59041Y306433D01*
X57791D01*
G01X59041D02*
X59791Y304500D01*
G01X63100D02*
Y308500D01*
X61250Y305633D01*
X63750D01*
G01X66209Y308500D02*
X65809Y308367D01*
X65509Y308033D01*
X65309Y307633D01*
X65159Y307100D01*
X65109Y306500D01*
X65159Y305900D01*
X65309Y305367D01*
X65509Y304967D01*
X65809Y304633D01*
X66209Y304500D01*
X66609Y304633D01*
X66909Y304967D01*
X67109Y305367D01*
X67259Y305900D01*
X67309Y306500D01*
X67259Y307100D01*
X67109Y307633D01*
X66909Y308033D01*
X66609Y308367D01*
X66209Y308500D01*
G01X68241Y326033D02*
X68641Y325700D01*
X69091Y325500D01*
X69491D01*
X69891Y325700D01*
X70191Y326033D01*
X70341Y326500D01*
X70241Y326967D01*
X69991Y327367D01*
X69541Y327633D01*
X68941Y327767D01*
X68591Y328033D01*
X68441Y328500D01*
X68541Y328967D01*
X68791Y329300D01*
X69141Y329500D01*
X69491D01*
X69841Y329367D01*
X70141Y329033D01*
G01X71500Y329500D02*
X72200Y325500D01*
X73000Y329500D01*
X73800Y325500D01*
X74500Y329500D01*
G01X76609Y325500D02*
X76709Y326367D01*
X76859Y327100D01*
X77059Y327767D01*
X77309Y328500D01*
X77709Y329500D01*
X75709D01*
G01X98937Y9500D02*
Y13500D01*
X100187D01*
X100587Y13300D01*
X100837Y13033D01*
X100937Y12500D01*
X100837Y11967D01*
X100537Y11633D01*
X100187Y11433D01*
X98937D01*
G01X100187D02*
X100937Y9500D01*
G01X102596D02*
X104696Y13500D01*
G01X102596D02*
X104696Y9500D01*
G01X106254D02*
Y13500D01*
X107254D01*
X107654Y13300D01*
X107954Y13033D01*
X108204Y12633D01*
X108404Y12167D01*
X108454Y11500D01*
X108404Y10833D01*
X108204Y10367D01*
X107954Y9967D01*
X107654Y9700D01*
X107254Y9500D01*
X106254D01*
G01X111063Y13500D02*
X110663Y13367D01*
X110363Y13033D01*
X110163Y12633D01*
X110013Y12100D01*
X109963Y11500D01*
X110013Y10900D01*
X110163Y10367D01*
X110363Y9967D01*
X110663Y9633D01*
X111063Y9500D01*
X111463Y9633D01*
X111763Y9967D01*
X111963Y10367D01*
X112113Y10900D01*
X112163Y11500D01*
X112113Y12100D01*
X111963Y12633D01*
X111763Y13033D01*
X111463Y13367D01*
X111063Y13500D01*
G01X84937Y34500D02*
Y30500D01*
G01X83787Y34500D02*
X86087D01*
G01X87596Y30500D02*
X89696Y34500D01*
G01X87596D02*
X89696Y30500D01*
G01X91254D02*
Y34500D01*
X92254D01*
X92654Y34300D01*
X92954Y34033D01*
X93204Y33633D01*
X93404Y33167D01*
X93454Y32500D01*
X93404Y31833D01*
X93204Y31367D01*
X92954Y30967D01*
X92654Y30700D01*
X92254Y30500D01*
X91254D01*
G01X96063Y34500D02*
X95663Y34367D01*
X95363Y34033D01*
X95163Y33633D01*
X95013Y33100D01*
X94963Y32500D01*
X95013Y31900D01*
X95163Y31367D01*
X95363Y30967D01*
X95663Y30633D01*
X96063Y30500D01*
X96463Y30633D01*
X96763Y30967D01*
X96963Y31367D01*
X97113Y31900D01*
X97163Y32500D01*
X97113Y33100D01*
X96963Y33633D01*
X96763Y34033D01*
X96463Y34367D01*
X96063Y34500D01*
G01X104600Y39500D02*
Y43500D01*
X102750Y40633D01*
X105250D01*
G01X100096Y33500D02*
X102196Y37500D01*
G01X100096D02*
X102196Y33500D01*
G01X104854D02*
Y37500D01*
X104254Y36700D01*
G01Y33500D02*
X105454D01*
G01X102176Y45075D02*
X121899D01*
Y54575D01*
X102176D01*
Y45075D01*
G01X110876Y65375D02*
X91152D01*
Y55875D01*
X110876D01*
Y65375D01*
G01X83138Y87250D02*
X102862D01*
Y96750D01*
X83138D01*
Y87250D01*
G01X80138Y72250D02*
X99862D01*
Y81750D01*
X80138D01*
Y72250D01*
G01X108000Y92246D02*
X104000D01*
X106867Y90396D01*
Y92896D01*
G01X107400Y94254D02*
X107733Y94554D01*
X107933Y94904D01*
X108000Y95354D01*
X107867Y95804D01*
X107600Y96154D01*
X107133Y96404D01*
X106600Y96454D01*
X106067Y96354D01*
X105733Y96104D01*
X105467Y95754D01*
X105400Y95404D01*
X105467Y95054D01*
X105733Y94604D01*
X104000Y94754D01*
Y96104D01*
G01X83138Y96750D02*
X102862D01*
Y106250D01*
X83138D01*
Y96750D01*
G01X101546Y137800D02*
X101846Y137333D01*
X102246Y137067D01*
X102696Y137000D01*
X103096Y137067D01*
X103496Y137400D01*
X103746Y137800D01*
X103796Y138200D01*
X103696Y138667D01*
X103346Y139000D01*
X102996Y139133D01*
X102546D01*
G01X102996D02*
X103296Y139333D01*
X103546Y139667D01*
X103646Y140067D01*
X103546Y140467D01*
X103296Y140800D01*
X102846Y141000D01*
X102396Y140933D01*
X101946Y140667D01*
G01X106354Y137000D02*
Y141000D01*
X105754Y140200D01*
G01Y137000D02*
X106954D01*
G01X101196Y144667D02*
X101546Y145133D01*
X101846Y145400D01*
X102246Y145533D01*
X102596Y145400D01*
X102846Y145133D01*
X103046Y144733D01*
X103096Y144267D01*
X103046Y143867D01*
X102846Y143467D01*
X102546Y143133D01*
X102196Y143000D01*
X101796Y143133D01*
X101446Y143533D01*
X101246Y144133D01*
X101196Y144800D01*
X101296Y145667D01*
X101446Y146133D01*
X101696Y146600D01*
X102046Y146933D01*
X102396Y147000D01*
X102746Y146867D01*
X102996Y146533D01*
G01X106454Y143000D02*
Y147000D01*
X104604Y144133D01*
X107104D01*
G01X88000Y199500D02*
X88350Y199567D01*
X88750Y199767D01*
X89000Y200100D01*
X89100Y200567D01*
X89000Y201033D01*
X88700Y201433D01*
X88250Y201633D01*
X87750D01*
X87450Y201767D01*
X87200Y202100D01*
X87100Y202567D01*
X87250Y203033D01*
X87600Y203367D01*
X88000Y203500D01*
X88400Y203367D01*
X88750Y203033D01*
X88900Y202567D01*
X88800Y202100D01*
X88550Y201767D01*
X88250Y201633D01*
X87750D01*
X87300Y201433D01*
X87000Y201033D01*
X86900Y200567D01*
X87000Y200100D01*
X87250Y199767D01*
X87650Y199567D01*
X88000Y199500D01*
G01X95046Y203500D02*
Y200633D01*
X95246Y200033D01*
X95646Y199633D01*
X96146Y199500D01*
X96646Y199633D01*
X97046Y200033D01*
X97246Y200633D01*
Y203500D01*
G01X100454Y199500D02*
Y203500D01*
X98604Y200633D01*
X101104D01*
G01X101391Y180167D02*
X101091Y180367D01*
X100741Y180500D01*
X100341D01*
X99891Y180300D01*
X99541Y179967D01*
X99291Y179567D01*
X99091Y178900D01*
X99041Y178300D01*
X99141Y177700D01*
X99291Y177300D01*
X99591Y176900D01*
X99941Y176633D01*
X100291Y176500D01*
X100641D01*
X100991Y176633D01*
X101291Y176833D01*
X101541Y177100D01*
G01X103900Y176500D02*
X104000Y177367D01*
X104150Y178100D01*
X104350Y178767D01*
X104600Y179500D01*
X105000Y180500D01*
X103000D01*
G01X106759Y179833D02*
X107059Y180233D01*
X107409Y180433D01*
X107809Y180500D01*
X108309Y180367D01*
X108659Y180033D01*
X108759Y179633D01*
X108709Y179233D01*
X108509Y178900D01*
X107509Y178233D01*
X107059Y177767D01*
X106759Y177100D01*
X106659Y176500D01*
X108759D01*
G01X114150Y209363D02*
Y229087D01*
X104650D01*
Y209363D01*
X114150D01*
G01X86100Y236500D02*
Y240500D01*
X84250Y237633D01*
X86750D01*
G01X104791Y230000D02*
Y234000D01*
X106041D01*
X106441Y233800D01*
X106691Y233533D01*
X106791Y233000D01*
X106691Y232467D01*
X106391Y232133D01*
X106041Y231933D01*
X104791D01*
G01X106041D02*
X106791Y230000D01*
G01X109500D02*
Y234000D01*
X108900Y233200D01*
G01Y230000D02*
X110100D01*
G01X113209D02*
X113559Y230067D01*
X113959Y230267D01*
X114209Y230600D01*
X114309Y231067D01*
X114209Y231533D01*
X113909Y231933D01*
X113459Y232133D01*
X112959D01*
X112659Y232267D01*
X112409Y232600D01*
X112309Y233067D01*
X112459Y233533D01*
X112809Y233867D01*
X113209Y234000D01*
X113609Y233867D01*
X113959Y233533D01*
X114109Y233067D01*
X114009Y232600D01*
X113759Y232267D01*
X113459Y232133D01*
X112959D01*
X112509Y231933D01*
X112209Y231533D01*
X112109Y231067D01*
X112209Y230600D01*
X112459Y230267D01*
X112859Y230067D01*
X113209Y230000D01*
G01X101474Y250650D02*
X81750D01*
Y241150D01*
X101474D01*
Y250650D01*
G01X89391Y256167D02*
X89091Y256367D01*
X88741Y256500D01*
X88341D01*
X87891Y256300D01*
X87541Y255967D01*
X87291Y255567D01*
X87091Y254900D01*
X87041Y254300D01*
X87141Y253700D01*
X87291Y253300D01*
X87591Y252900D01*
X87941Y252633D01*
X88291Y252500D01*
X88641D01*
X88991Y252633D01*
X89291Y252833D01*
X89541Y253100D01*
G01X92000Y252500D02*
Y256500D01*
X91400Y255700D01*
G01Y252500D02*
X92600D01*
G01X94759Y255833D02*
X95059Y256233D01*
X95409Y256433D01*
X95809Y256500D01*
X96309Y256367D01*
X96659Y256033D01*
X96759Y255633D01*
X96709Y255233D01*
X96509Y254900D01*
X95509Y254233D01*
X95059Y253767D01*
X94759Y253100D01*
X94659Y252500D01*
X96759D01*
G01X105391Y274667D02*
X105091Y274867D01*
X104741Y275000D01*
X104341D01*
X103891Y274800D01*
X103541Y274467D01*
X103291Y274067D01*
X103091Y273400D01*
X103041Y272800D01*
X103141Y272200D01*
X103291Y271800D01*
X103591Y271400D01*
X103941Y271133D01*
X104291Y271000D01*
X104641D01*
X104991Y271133D01*
X105291Y271333D01*
X105541Y271600D01*
G01X106900Y271800D02*
X107200Y271333D01*
X107600Y271067D01*
X108050Y271000D01*
X108450Y271067D01*
X108850Y271400D01*
X109100Y271800D01*
X109150Y272200D01*
X109050Y272667D01*
X108700Y273000D01*
X108350Y273133D01*
X107900D01*
G01X108350D02*
X108650Y273333D01*
X108900Y273667D01*
X109000Y274067D01*
X108900Y274467D01*
X108650Y274800D01*
X108200Y275000D01*
X107750Y274933D01*
X107300Y274667D01*
G01X111609Y271000D02*
X111709Y271867D01*
X111859Y272600D01*
X112059Y273267D01*
X112309Y274000D01*
X112709Y275000D01*
X110709D01*
G01X102907Y296662D02*
Y276938D01*
X112407D01*
Y296662D01*
X102907D01*
G01X95867Y286483D02*
X95667Y286683D01*
X95333Y286833D01*
X94867Y286933D01*
X94467Y286833D01*
X94200Y286633D01*
X94000Y286283D01*
Y284933D01*
X98000D01*
Y286583D01*
X97733Y286933D01*
X97333Y287133D01*
X96867Y287233D01*
X96400Y287133D01*
X96000Y286833D01*
X95867Y286483D01*
Y284933D01*
G01X98000Y289791D02*
X94000D01*
X94800Y289191D01*
G01X98000D02*
Y290391D01*
G01Y292250D02*
X94000Y293500D01*
X98000Y294750D01*
G01X96600Y294300D02*
Y292700D01*
G01X98000Y297209D02*
X94000D01*
X94800Y296609D01*
G01X98000D02*
Y297809D01*
G01X94667Y299967D02*
X94267Y300267D01*
X94067Y300617D01*
X94000Y301017D01*
X94133Y301517D01*
X94467Y301867D01*
X94867Y301967D01*
X95267Y301917D01*
X95600Y301717D01*
X96267Y300717D01*
X96733Y300267D01*
X97400Y299967D01*
X98000Y299867D01*
Y301967D01*
G01X105646Y299300D02*
X105896Y298900D01*
X106196Y298633D01*
X106546Y298500D01*
X106946Y298633D01*
X107246Y298900D01*
X107546Y299300D01*
X107646Y299833D01*
Y302500D01*
G01X110354Y298500D02*
X110704Y298567D01*
X111104Y298767D01*
X111354Y299100D01*
X111454Y299567D01*
X111354Y300033D01*
X111054Y300433D01*
X110604Y300633D01*
X110104D01*
X109804Y300767D01*
X109554Y301100D01*
X109454Y301567D01*
X109604Y302033D01*
X109954Y302367D01*
X110354Y302500D01*
X110754Y302367D01*
X111104Y302033D01*
X111254Y301567D01*
X111154Y301100D01*
X110904Y300767D01*
X110604Y300633D01*
X110104D01*
X109654Y300433D01*
X109354Y300033D01*
X109254Y299567D01*
X109354Y299100D01*
X109604Y298767D01*
X110004Y298567D01*
X110354Y298500D01*
G01X85100Y318500D02*
Y322500D01*
X83250Y319633D01*
X85750D01*
G01X110550Y22167D02*
X110900Y22633D01*
X111200Y22900D01*
X111600Y23033D01*
X111950Y22900D01*
X112200Y22633D01*
X112400Y22233D01*
X112450Y21767D01*
X112400Y21367D01*
X112200Y20967D01*
X111900Y20633D01*
X111550Y20500D01*
X111150Y20633D01*
X110800Y21033D01*
X110600Y21633D01*
X110550Y22300D01*
X110650Y23167D01*
X110800Y23633D01*
X111050Y24100D01*
X111400Y24433D01*
X111750Y24500D01*
X112100Y24367D01*
X112350Y24033D01*
G01X124646Y22800D02*
X124896Y22400D01*
X125196Y22133D01*
X125546Y22000D01*
X125946Y22133D01*
X126246Y22400D01*
X126546Y22800D01*
X126646Y23333D01*
Y26000D01*
G01X128404Y23667D02*
X128754Y24133D01*
X129054Y24400D01*
X129454Y24533D01*
X129804Y24400D01*
X130054Y24133D01*
X130254Y23733D01*
X130304Y23267D01*
X130254Y22867D01*
X130054Y22467D01*
X129754Y22133D01*
X129404Y22000D01*
X129004Y22133D01*
X128654Y22533D01*
X128454Y23133D01*
X128404Y23800D01*
X128504Y24667D01*
X128654Y25133D01*
X128904Y25600D01*
X129254Y25933D01*
X129604Y26000D01*
X129954Y25867D01*
X130204Y25533D01*
G01X120400Y39800D02*
X120700Y39333D01*
X121100Y39067D01*
X121550Y39000D01*
X121950Y39067D01*
X122350Y39400D01*
X122600Y39800D01*
X122650Y40200D01*
X122550Y40667D01*
X122200Y41000D01*
X121850Y41133D01*
X121400D01*
G01X121850D02*
X122150Y41333D01*
X122400Y41667D01*
X122500Y42067D01*
X122400Y42467D01*
X122150Y42800D01*
X121700Y43000D01*
X121250Y42933D01*
X120800Y42667D01*
G01X115050Y30833D02*
X115350Y31233D01*
X115700Y31433D01*
X116100Y31500D01*
X116600Y31367D01*
X116950Y31033D01*
X117050Y30633D01*
X117000Y30233D01*
X116800Y29900D01*
X115800Y29233D01*
X115350Y28767D01*
X115050Y28100D01*
X114950Y27500D01*
X117050D01*
G01X125291Y47000D02*
Y51000D01*
X126541D01*
X126941Y50800D01*
X127191Y50533D01*
X127291Y50000D01*
X127191Y49467D01*
X126891Y49133D01*
X126541Y48933D01*
X125291D01*
G01X126541D02*
X127291Y47000D01*
G01X128900Y47800D02*
X129200Y47333D01*
X129600Y47067D01*
X130050Y47000D01*
X130450Y47067D01*
X130850Y47400D01*
X131100Y47800D01*
X131150Y48200D01*
X131050Y48667D01*
X130700Y49000D01*
X130350Y49133D01*
X129900D01*
G01X130350D02*
X130650Y49333D01*
X130900Y49667D01*
X131000Y50067D01*
X130900Y50467D01*
X130650Y50800D01*
X130200Y51000D01*
X129750Y50933D01*
X129300Y50667D01*
G01X133709Y47000D02*
Y51000D01*
X133109Y50200D01*
G01Y47000D02*
X134309D01*
G01X113199Y55875D02*
X132923D01*
Y65375D01*
X113199D01*
Y55875D01*
G01X107196Y82167D02*
X107546Y82633D01*
X107846Y82900D01*
X108246Y83033D01*
X108596Y82900D01*
X108846Y82633D01*
X109046Y82233D01*
X109096Y81767D01*
X109046Y81367D01*
X108846Y80967D01*
X108546Y80633D01*
X108196Y80500D01*
X107796Y80633D01*
X107446Y81033D01*
X107246Y81633D01*
X107196Y82300D01*
X107296Y83167D01*
X107446Y83633D01*
X107696Y84100D01*
X108046Y84433D01*
X108396Y84500D01*
X108746Y84367D01*
X108996Y84033D01*
G01X110754Y81100D02*
X111054Y80767D01*
X111404Y80567D01*
X111854Y80500D01*
X112304Y80633D01*
X112654Y80900D01*
X112904Y81367D01*
X112954Y81900D01*
X112854Y82433D01*
X112604Y82767D01*
X112254Y83033D01*
X111904Y83100D01*
X111554Y83033D01*
X111104Y82767D01*
X111254Y84500D01*
X112604D01*
G01X118500Y80246D02*
X114500D01*
X117367Y78396D01*
Y80896D01*
G01X116833Y82404D02*
X116367Y82754D01*
X116100Y83054D01*
X115967Y83454D01*
X116100Y83804D01*
X116367Y84054D01*
X116767Y84254D01*
X117233Y84304D01*
X117633Y84254D01*
X118033Y84054D01*
X118367Y83754D01*
X118500Y83404D01*
X118367Y83004D01*
X117967Y82654D01*
X117367Y82454D01*
X116700Y82404D01*
X115833Y82504D01*
X115367Y82654D01*
X114900Y82904D01*
X114567Y83254D01*
X114500Y83604D01*
X114633Y83954D01*
X114967Y84204D01*
G01X110750Y188362D02*
Y168638D01*
X120250D01*
Y188362D01*
X110750D01*
G01X112546Y150800D02*
X112846Y150333D01*
X113246Y150067D01*
X113696Y150000D01*
X114096Y150067D01*
X114496Y150400D01*
X114746Y150800D01*
X114796Y151200D01*
X114696Y151667D01*
X114346Y152000D01*
X113996Y152133D01*
X113546D01*
G01X113996D02*
X114296Y152333D01*
X114546Y152667D01*
X114646Y153067D01*
X114546Y153467D01*
X114296Y153800D01*
X113846Y154000D01*
X113396Y153933D01*
X112946Y153667D01*
G01X117354Y154000D02*
X116954Y153867D01*
X116654Y153533D01*
X116454Y153133D01*
X116304Y152600D01*
X116254Y152000D01*
X116304Y151400D01*
X116454Y150867D01*
X116654Y150467D01*
X116954Y150133D01*
X117354Y150000D01*
X117754Y150133D01*
X118054Y150467D01*
X118254Y150867D01*
X118404Y151400D01*
X118454Y152000D01*
X118404Y152600D01*
X118254Y153133D01*
X118054Y153533D01*
X117754Y153867D01*
X117354Y154000D01*
G01X124391Y196167D02*
X124091Y196367D01*
X123741Y196500D01*
X123341D01*
X122891Y196300D01*
X122541Y195967D01*
X122291Y195567D01*
X122091Y194900D01*
X122041Y194300D01*
X122141Y193700D01*
X122291Y193300D01*
X122591Y192900D01*
X122941Y192633D01*
X123291Y192500D01*
X123641D01*
X123991Y192633D01*
X124291Y192833D01*
X124541Y193100D01*
G01X127000Y192500D02*
Y196500D01*
X126400Y195700D01*
G01Y192500D02*
X127600D01*
G01X129609Y193300D02*
X129909Y192833D01*
X130309Y192567D01*
X130759Y192500D01*
X131159Y192567D01*
X131559Y192900D01*
X131809Y193300D01*
X131859Y193700D01*
X131759Y194167D01*
X131409Y194500D01*
X131059Y194633D01*
X130609D01*
G01X131059D02*
X131359Y194833D01*
X131609Y195167D01*
X131709Y195567D01*
X131609Y195967D01*
X131359Y196300D01*
X130909Y196500D01*
X130459Y196433D01*
X130009Y196167D01*
G01X129550Y223837D02*
Y243560D01*
X120050D01*
Y223837D01*
X129550D01*
G01X121050Y218363D02*
Y198640D01*
X130550D01*
Y218363D01*
X121050D01*
G01X120291Y245000D02*
Y249000D01*
X121541D01*
X121941Y248800D01*
X122191Y248533D01*
X122291Y248000D01*
X122191Y247467D01*
X121891Y247133D01*
X121541Y246933D01*
X120291D01*
G01X121541D02*
X122291Y245000D01*
G01X125000D02*
Y249000D01*
X124400Y248200D01*
G01Y245000D02*
X125600D01*
G01X127759Y246667D02*
X128109Y247133D01*
X128409Y247400D01*
X128809Y247533D01*
X129159Y247400D01*
X129409Y247133D01*
X129609Y246733D01*
X129659Y246267D01*
X129609Y245867D01*
X129409Y245467D01*
X129109Y245133D01*
X128759Y245000D01*
X128359Y245133D01*
X128009Y245533D01*
X127809Y246133D01*
X127759Y246800D01*
X127859Y247667D01*
X128009Y248133D01*
X128259Y248600D01*
X128609Y248933D01*
X128959Y249000D01*
X129309Y248867D01*
X129559Y248533D01*
G01X132300Y301500D02*
X133300D01*
Y300300D01*
X133000Y299900D01*
X132650Y299633D01*
X132150Y299500D01*
X131650Y299633D01*
X131300Y299900D01*
X131000Y300300D01*
X130800Y300767D01*
X130700Y301300D01*
Y301767D01*
X130800Y302167D01*
X131000Y302633D01*
X131300Y303033D01*
X131600Y303300D01*
X132000Y303500D01*
X132350D01*
X132750Y303367D01*
X133050Y303100D01*
G01X134559Y299500D02*
Y303500D01*
X136859Y299500D01*
Y303500D01*
G01X138317Y299500D02*
Y303500D01*
X139317D01*
X139717Y303300D01*
X140017Y303033D01*
X140267Y302633D01*
X140467Y302167D01*
X140517Y301500D01*
X140467Y300833D01*
X140267Y300367D01*
X140017Y299967D01*
X139717Y299700D01*
X139317Y299500D01*
X138317D01*
G01X121833Y295000D02*
X123083Y291000D01*
X124333Y295000D01*
G01X127191Y293133D02*
X127391Y293333D01*
X127541Y293667D01*
X127641Y294133D01*
X127541Y294533D01*
X127341Y294800D01*
X126991Y295000D01*
X125641D01*
Y291000D01*
X127291D01*
X127641Y291267D01*
X127841Y291667D01*
X127941Y292133D01*
X127841Y292600D01*
X127541Y293000D01*
X127191Y293133D01*
X125641D01*
G01X129400Y295000D02*
Y292133D01*
X129600Y291533D01*
X130000Y291133D01*
X130500Y291000D01*
X131000Y291133D01*
X131400Y291533D01*
X131600Y292133D01*
Y295000D01*
G01X133159Y291533D02*
X133559Y291200D01*
X134009Y291000D01*
X134409D01*
X134809Y291200D01*
X135109Y291533D01*
X135259Y292000D01*
X135159Y292467D01*
X134909Y292867D01*
X134459Y293133D01*
X133859Y293267D01*
X133509Y293533D01*
X133359Y294000D01*
X133459Y294467D01*
X133709Y294800D01*
X134059Y295000D01*
X134409D01*
X134759Y294867D01*
X135059Y294533D01*
G01X136967Y294333D02*
X137267Y294733D01*
X137617Y294933D01*
X138017Y295000D01*
X138517Y294867D01*
X138867Y294533D01*
X138967Y294133D01*
X138917Y293733D01*
X138717Y293400D01*
X137717Y292733D01*
X137267Y292267D01*
X136967Y291600D01*
X136867Y291000D01*
X138967D01*
G01X116437Y287000D02*
Y283000D01*
G01X115287Y287000D02*
X117587D01*
G01X119146Y283000D02*
Y287000D01*
X120346D01*
X120746Y286800D01*
X121046Y286333D01*
X121146Y285800D01*
X121046Y285267D01*
X120796Y284867D01*
X120346Y284667D01*
X119146D01*
G01X123854Y283000D02*
Y287000D01*
X123254Y286200D01*
G01Y283000D02*
X124454D01*
G01X126463Y283800D02*
X126763Y283333D01*
X127163Y283067D01*
X127613Y283000D01*
X128013Y283067D01*
X128413Y283400D01*
X128663Y283800D01*
X128713Y284200D01*
X128613Y284667D01*
X128263Y285000D01*
X127913Y285133D01*
X127463D01*
G01X127913D02*
X128213Y285333D01*
X128463Y285667D01*
X128563Y286067D01*
X128463Y286467D01*
X128213Y286800D01*
X127763Y287000D01*
X127313Y286933D01*
X126863Y286667D01*
G01X135041Y11500D02*
X136291Y7500D01*
X137541Y11500D01*
G01X138900Y7500D02*
Y11500D01*
X139900D01*
X140300Y11300D01*
X140600Y11033D01*
X140850Y10633D01*
X141050Y10167D01*
X141100Y9500D01*
X141050Y8833D01*
X140850Y8367D01*
X140600Y7967D01*
X140300Y7700D01*
X139900Y7500D01*
X138900D01*
G01X142609D02*
Y11500D01*
X143609D01*
X144009Y11300D01*
X144309Y11033D01*
X144559Y10633D01*
X144759Y10167D01*
X144809Y9500D01*
X144759Y8833D01*
X144559Y8367D01*
X144309Y7967D01*
X144009Y7700D01*
X143609Y7500D01*
X142609D01*
G01X141741Y42033D02*
X142141Y41700D01*
X142591Y41500D01*
X142991D01*
X143391Y41700D01*
X143691Y42033D01*
X143841Y42500D01*
X143741Y42967D01*
X143491Y43367D01*
X143041Y43633D01*
X142441Y43767D01*
X142091Y44033D01*
X141941Y44500D01*
X142041Y44967D01*
X142291Y45300D01*
X142641Y45500D01*
X142991D01*
X143341Y45367D01*
X143641Y45033D01*
G01X145000Y45500D02*
X145700Y41500D01*
X146500Y45500D01*
X147300Y41500D01*
X148000Y45500D01*
G01X149109Y41500D02*
Y45500D01*
X150109D01*
X150509Y45300D01*
X150809Y45033D01*
X151059Y44633D01*
X151259Y44167D01*
X151309Y43500D01*
X151259Y42833D01*
X151059Y42367D01*
X150809Y41967D01*
X150509Y41700D01*
X150109Y41500D01*
X149109D01*
G01X159500Y41237D02*
Y42237D01*
X160700D01*
X161100Y41937D01*
X161367Y41587D01*
X161500Y41087D01*
X161367Y40587D01*
X161100Y40237D01*
X160700Y39937D01*
X160233Y39737D01*
X159700Y39637D01*
X159233D01*
X158833Y39737D01*
X158367Y39937D01*
X157967Y40237D01*
X157700Y40537D01*
X157500Y40937D01*
Y41287D01*
X157633Y41687D01*
X157900Y41987D01*
G01X161500Y43646D02*
X157500D01*
Y44846D01*
X157700Y45246D01*
X158167Y45546D01*
X158700Y45646D01*
X159233Y45546D01*
X159633Y45296D01*
X159833Y44846D01*
Y43646D01*
G01X157500Y47754D02*
Y48954D01*
G01Y48354D02*
X161500D01*
G01Y47754D02*
Y48954D01*
G01Y52063D02*
X161433Y51663D01*
X161167Y51313D01*
X160767Y51013D01*
X160300Y50813D01*
X159767Y50713D01*
X159233D01*
X158700Y50813D01*
X158233Y51013D01*
X157833Y51313D01*
X157567Y51663D01*
X157500Y52063D01*
X157567Y52463D01*
X157833Y52813D01*
X158233Y53113D01*
X158700Y53313D01*
X159233Y53413D01*
X159767D01*
X160300Y53313D01*
X160767Y53113D01*
X161167Y52813D01*
X161433Y52463D01*
X161500Y52063D01*
G01X141050Y39833D02*
X141350Y40233D01*
X141700Y40433D01*
X142100Y40500D01*
X142600Y40367D01*
X142950Y40033D01*
X143050Y39633D01*
X143000Y39233D01*
X142800Y38900D01*
X141800Y38233D01*
X141350Y37767D01*
X141050Y37100D01*
X140950Y36500D01*
X143050D01*
G01X138533Y49033D02*
X138933Y48700D01*
X139383Y48500D01*
X139783D01*
X140183Y48700D01*
X140483Y49033D01*
X140633Y49500D01*
X140533Y49967D01*
X140283Y50367D01*
X139833Y50633D01*
X139233Y50767D01*
X138883Y51033D01*
X138733Y51500D01*
X138833Y51967D01*
X139083Y52300D01*
X139433Y52500D01*
X139783D01*
X140133Y52367D01*
X140433Y52033D01*
G01X142191Y48500D02*
Y52500D01*
X143191D01*
X143591Y52300D01*
X143891Y52033D01*
X144141Y51633D01*
X144341Y51167D01*
X144391Y50500D01*
X144341Y49833D01*
X144141Y49367D01*
X143891Y48967D01*
X143591Y48700D01*
X143191Y48500D01*
X142191D01*
G01X148100Y52167D02*
X147800Y52367D01*
X147450Y52500D01*
X147050D01*
X146600Y52300D01*
X146250Y51967D01*
X146000Y51567D01*
X145800Y50900D01*
X145750Y50300D01*
X145850Y49700D01*
X146000Y49300D01*
X146300Y48900D01*
X146650Y48633D01*
X147000Y48500D01*
X147350D01*
X147700Y48633D01*
X148000Y48833D01*
X148250Y49100D01*
G01X149709Y52500D02*
Y48500D01*
X151709D01*
G01X153317D02*
Y52500D01*
G01X155217D02*
X153317Y50033D01*
G01X155517Y48500D02*
X154167Y51167D01*
G01X149838Y56150D02*
X169562D01*
Y65650D01*
X149838D01*
Y56150D01*
G01X137391Y61667D02*
X137091Y61867D01*
X136741Y62000D01*
X136341D01*
X135891Y61800D01*
X135541Y61467D01*
X135291Y61067D01*
X135091Y60400D01*
X135041Y59800D01*
X135141Y59200D01*
X135291Y58800D01*
X135591Y58400D01*
X135941Y58133D01*
X136291Y58000D01*
X136641D01*
X136991Y58133D01*
X137291Y58333D01*
X137541Y58600D01*
G01X138900Y58800D02*
X139200Y58333D01*
X139600Y58067D01*
X140050Y58000D01*
X140450Y58067D01*
X140850Y58400D01*
X141100Y58800D01*
X141150Y59200D01*
X141050Y59667D01*
X140700Y60000D01*
X140350Y60133D01*
X139900D01*
G01X140350D02*
X140650Y60333D01*
X140900Y60667D01*
X141000Y61067D01*
X140900Y61467D01*
X140650Y61800D01*
X140200Y62000D01*
X139750Y61933D01*
X139300Y61667D01*
G01X142759Y59667D02*
X143109Y60133D01*
X143409Y60400D01*
X143809Y60533D01*
X144159Y60400D01*
X144409Y60133D01*
X144609Y59733D01*
X144659Y59267D01*
X144609Y58867D01*
X144409Y58467D01*
X144109Y58133D01*
X143759Y58000D01*
X143359Y58133D01*
X143009Y58533D01*
X142809Y59133D01*
X142759Y59800D01*
X142859Y60667D01*
X143009Y61133D01*
X143259Y61600D01*
X143609Y61933D01*
X143959Y62000D01*
X144309Y61867D01*
X144559Y61533D01*
G01X157696Y81667D02*
X158046Y82133D01*
X158346Y82400D01*
X158746Y82533D01*
X159096Y82400D01*
X159346Y82133D01*
X159546Y81733D01*
X159596Y81267D01*
X159546Y80867D01*
X159346Y80467D01*
X159046Y80133D01*
X158696Y80000D01*
X158296Y80133D01*
X157946Y80533D01*
X157746Y81133D01*
X157696Y81800D01*
X157796Y82667D01*
X157946Y83133D01*
X158196Y83600D01*
X158546Y83933D01*
X158896Y84000D01*
X159246Y83867D01*
X159496Y83533D01*
G01X162354Y84000D02*
X161954Y83867D01*
X161654Y83533D01*
X161454Y83133D01*
X161304Y82600D01*
X161254Y82000D01*
X161304Y81400D01*
X161454Y80867D01*
X161654Y80467D01*
X161954Y80133D01*
X162354Y80000D01*
X162754Y80133D01*
X163054Y80467D01*
X163254Y80867D01*
X163404Y81400D01*
X163454Y82000D01*
X163404Y82600D01*
X163254Y83133D01*
X163054Y83533D01*
X162754Y83867D01*
X162354Y84000D01*
G01X167250Y167826D02*
Y187550D01*
X157750D01*
Y167826D01*
X167250D01*
G01X135546Y155000D02*
Y152133D01*
X135746Y151533D01*
X136146Y151133D01*
X136646Y151000D01*
X137146Y151133D01*
X137546Y151533D01*
X137746Y152133D01*
Y155000D01*
G01X139404Y152667D02*
X139754Y153133D01*
X140054Y153400D01*
X140454Y153533D01*
X140804Y153400D01*
X141054Y153133D01*
X141254Y152733D01*
X141304Y152267D01*
X141254Y151867D01*
X141054Y151467D01*
X140754Y151133D01*
X140404Y151000D01*
X140004Y151133D01*
X139654Y151533D01*
X139454Y152133D01*
X139404Y152800D01*
X139504Y153667D01*
X139654Y154133D01*
X139904Y154600D01*
X140254Y154933D01*
X140604Y155000D01*
X140954Y154867D01*
X141204Y154533D01*
G01X146291Y179000D02*
Y183000D01*
X147541D01*
X147941Y182800D01*
X148191Y182533D01*
X148291Y182000D01*
X148191Y181467D01*
X147891Y181133D01*
X147541Y180933D01*
X146291D01*
G01X147541D02*
X148291Y179000D01*
G01X151600D02*
Y183000D01*
X149750Y180133D01*
X152250D01*
G01X153609Y179600D02*
X153909Y179267D01*
X154259Y179067D01*
X154709Y179000D01*
X155159Y179133D01*
X155509Y179400D01*
X155759Y179867D01*
X155809Y180400D01*
X155709Y180933D01*
X155459Y181267D01*
X155109Y181533D01*
X154759Y181600D01*
X154409Y181533D01*
X153959Y181267D01*
X154109Y183000D01*
X155459D01*
G01X153791Y191500D02*
Y195500D01*
X155041D01*
X155441Y195300D01*
X155691Y195033D01*
X155791Y194500D01*
X155691Y193967D01*
X155391Y193633D01*
X155041Y193433D01*
X153791D01*
G01X155041D02*
X155791Y191500D01*
G01X157550Y194833D02*
X157850Y195233D01*
X158200Y195433D01*
X158600Y195500D01*
X159100Y195367D01*
X159450Y195033D01*
X159550Y194633D01*
X159500Y194233D01*
X159300Y193900D01*
X158300Y193233D01*
X157850Y192767D01*
X157550Y192100D01*
X157450Y191500D01*
X159550D01*
G01X162809D02*
Y195500D01*
X160959Y192633D01*
X163459D01*
G01X148500Y200000D02*
X148850Y200067D01*
X149250Y200267D01*
X149500Y200600D01*
X149600Y201067D01*
X149500Y201533D01*
X149200Y201933D01*
X148750Y202133D01*
X148250D01*
X147950Y202267D01*
X147700Y202600D01*
X147600Y203067D01*
X147750Y203533D01*
X148100Y203867D01*
X148500Y204000D01*
X148900Y203867D01*
X149250Y203533D01*
X149400Y203067D01*
X149300Y202600D01*
X149050Y202267D01*
X148750Y202133D01*
X148250D01*
X147800Y201933D01*
X147500Y201533D01*
X147400Y201067D01*
X147500Y200600D01*
X147750Y200267D01*
X148150Y200067D01*
X148500Y200000D01*
G01X155546Y204500D02*
Y201633D01*
X155746Y201033D01*
X156146Y200633D01*
X156646Y200500D01*
X157146Y200633D01*
X157546Y201033D01*
X157746Y201633D01*
Y204500D01*
G01X159254Y201300D02*
X159554Y200833D01*
X159954Y200567D01*
X160404Y200500D01*
X160804Y200567D01*
X161204Y200900D01*
X161454Y201300D01*
X161504Y201700D01*
X161404Y202167D01*
X161054Y202500D01*
X160704Y202633D01*
X160254D01*
G01X160704D02*
X161004Y202833D01*
X161254Y203167D01*
X161354Y203567D01*
X161254Y203967D01*
X161004Y204300D01*
X160554Y204500D01*
X160104Y204433D01*
X159654Y204167D01*
G01X148600Y238000D02*
Y242000D01*
X146750Y239133D01*
X149250D01*
G01X132900Y238600D02*
X133200Y238267D01*
X133550Y238067D01*
X134000Y238000D01*
X134450Y238133D01*
X134800Y238400D01*
X135050Y238867D01*
X135100Y239400D01*
X135000Y239933D01*
X134750Y240267D01*
X134400Y240533D01*
X134050Y240600D01*
X133700Y240533D01*
X133250Y240267D01*
X133400Y242000D01*
X134750D01*
G01X133138Y243750D02*
X152862D01*
Y253250D01*
X133138D01*
Y243750D01*
G01X151500Y262291D02*
X147500D01*
Y263541D01*
X147700Y263941D01*
X147967Y264191D01*
X148500Y264291D01*
X149033Y264191D01*
X149367Y263891D01*
X149567Y263541D01*
Y262291D01*
G01Y263541D02*
X151500Y264291D01*
G01Y267000D02*
X147500D01*
X148300Y266400D01*
G01X151500D02*
Y267600D01*
G01Y271309D02*
X147500D01*
X150367Y269459D01*
Y271959D01*
G01X162550Y255538D02*
Y275262D01*
X153050D01*
Y255538D01*
X162550D01*
G01X139891Y258667D02*
X139591Y258867D01*
X139241Y259000D01*
X138841D01*
X138391Y258800D01*
X138041Y258467D01*
X137791Y258067D01*
X137591Y257400D01*
X137541Y256800D01*
X137641Y256200D01*
X137791Y255800D01*
X138091Y255400D01*
X138441Y255133D01*
X138791Y255000D01*
X139141D01*
X139491Y255133D01*
X139791Y255333D01*
X140041Y255600D01*
G01X142500Y255000D02*
Y259000D01*
X141900Y258200D01*
G01Y255000D02*
X143100D01*
G01X146209D02*
Y259000D01*
X145609Y258200D01*
G01Y255000D02*
X146809D01*
G01X145983Y300133D02*
X146183Y300333D01*
X146333Y300667D01*
X146433Y301133D01*
X146333Y301533D01*
X146133Y301800D01*
X145783Y302000D01*
X144433D01*
Y298000D01*
X146083D01*
X146433Y298267D01*
X146633Y298667D01*
X146733Y299133D01*
X146633Y299600D01*
X146333Y300000D01*
X145983Y300133D01*
X144433D01*
G01X149291Y298000D02*
Y302000D01*
X148691Y301200D01*
G01Y298000D02*
X149891D01*
G01X151750D02*
X153000Y302000D01*
X154250Y298000D01*
G01X153800Y299400D02*
X152200D01*
G01X156709Y298000D02*
Y302000D01*
X156109Y301200D01*
G01Y298000D02*
X157309D01*
G01X159467Y301333D02*
X159767Y301733D01*
X160117Y301933D01*
X160517Y302000D01*
X161017Y301867D01*
X161367Y301533D01*
X161467Y301133D01*
X161417Y300733D01*
X161217Y300400D01*
X160217Y299733D01*
X159767Y299267D01*
X159467Y298600D01*
X159367Y298000D01*
X161467D01*
G01X155246Y289167D02*
X154946Y289367D01*
X154596Y289500D01*
X154196D01*
X153746Y289300D01*
X153396Y288967D01*
X153146Y288567D01*
X152946Y287900D01*
X152896Y287300D01*
X152996Y286700D01*
X153146Y286300D01*
X153446Y285900D01*
X153796Y285633D01*
X154146Y285500D01*
X154496D01*
X154846Y285633D01*
X155146Y285833D01*
X155396Y286100D01*
G01X157854Y285500D02*
Y289500D01*
X157254Y288700D01*
G01Y285500D02*
X158454D01*
G01X133937Y317500D02*
Y313500D01*
G01X132787Y317500D02*
X135087D01*
G01X136646Y313500D02*
Y317500D01*
X137846D01*
X138246Y317300D01*
X138546Y316833D01*
X138646Y316300D01*
X138546Y315767D01*
X138296Y315367D01*
X137846Y315167D01*
X136646D01*
G01X141354Y313500D02*
Y317500D01*
X140754Y316700D01*
G01Y313500D02*
X141954D01*
G01X144113Y315167D02*
X144463Y315633D01*
X144763Y315900D01*
X145163Y316033D01*
X145513Y315900D01*
X145763Y315633D01*
X145963Y315233D01*
X146013Y314767D01*
X145963Y314367D01*
X145763Y313967D01*
X145463Y313633D01*
X145113Y313500D01*
X144713Y313633D01*
X144363Y314033D01*
X144163Y314633D01*
X144113Y315300D01*
X144213Y316167D01*
X144363Y316633D01*
X144613Y317100D01*
X144963Y317433D01*
X145313Y317500D01*
X145663Y317367D01*
X145913Y317033D01*
G01X167650Y5467D02*
X168000Y5133D01*
X168400Y5000D01*
X168800Y5133D01*
X169150Y5533D01*
X169400Y6133D01*
X169500Y6733D01*
Y7467D01*
X169400Y8067D01*
X169150Y8600D01*
X168850Y8867D01*
X168500Y9000D01*
X168100Y8867D01*
X167800Y8600D01*
X167600Y8200D01*
X167500Y7667D01*
X167600Y7200D01*
X167850Y6733D01*
X168150Y6467D01*
X168500Y6400D01*
X168900Y6533D01*
X169200Y6867D01*
X169500Y7467D01*
G01X171000Y40291D02*
X167000D01*
Y41541D01*
X167200Y41941D01*
X167467Y42191D01*
X168000Y42291D01*
X168533Y42191D01*
X168867Y41891D01*
X169067Y41541D01*
Y40291D01*
G01Y41541D02*
X171000Y42291D01*
G01X170467Y43950D02*
X170800Y44350D01*
X171000Y44800D01*
Y45200D01*
X170800Y45600D01*
X170467Y45900D01*
X170000Y46050D01*
X169533Y45950D01*
X169133Y45700D01*
X168867Y45250D01*
X168733Y44650D01*
X168467Y44300D01*
X168000Y44150D01*
X167533Y44250D01*
X167200Y44500D01*
X167000Y44850D01*
Y45200D01*
X167133Y45550D01*
X167467Y45850D01*
G01X167000Y48709D02*
X171000D01*
G01X167000Y47559D02*
Y49859D01*
G01X173146Y37000D02*
Y41000D01*
X172546Y40200D01*
G01Y37000D02*
X173746D01*
G01X176854Y41000D02*
X176454Y40867D01*
X176154Y40533D01*
X175954Y40133D01*
X175804Y39600D01*
X175754Y39000D01*
X175804Y38400D01*
X175954Y37867D01*
X176154Y37467D01*
X176454Y37133D01*
X176854Y37000D01*
X177254Y37133D01*
X177554Y37467D01*
X177754Y37867D01*
X177904Y38400D01*
X177954Y39000D01*
X177904Y39600D01*
X177754Y40133D01*
X177554Y40533D01*
X177254Y40867D01*
X176854Y41000D01*
G01X174391Y62167D02*
X174091Y62367D01*
X173741Y62500D01*
X173341D01*
X172891Y62300D01*
X172541Y61967D01*
X172291Y61567D01*
X172091Y60900D01*
X172041Y60300D01*
X172141Y59700D01*
X172291Y59300D01*
X172591Y58900D01*
X172941Y58633D01*
X173291Y58500D01*
X173641D01*
X173991Y58633D01*
X174291Y58833D01*
X174541Y59100D01*
G01X176900Y58500D02*
X177000Y59367D01*
X177150Y60100D01*
X177350Y60767D01*
X177600Y61500D01*
X178000Y62500D01*
X176000D01*
G01X180709Y58500D02*
Y62500D01*
X180109Y61700D01*
G01Y58500D02*
X181309D01*
G01X178333Y87891D02*
X178133Y87591D01*
X178000Y87241D01*
Y86841D01*
X178200Y86391D01*
X178533Y86041D01*
X178933Y85791D01*
X179600Y85591D01*
X180200Y85541D01*
X180800Y85641D01*
X181200Y85791D01*
X181600Y86091D01*
X181867Y86441D01*
X182000Y86791D01*
Y87141D01*
X181867Y87491D01*
X181667Y87791D01*
X181400Y88041D01*
G01X182000Y90500D02*
X178000D01*
X178800Y89900D01*
G01X182000D02*
Y91100D01*
G01Y94209D02*
X181933Y94559D01*
X181733Y94959D01*
X181400Y95209D01*
X180933Y95309D01*
X180467Y95209D01*
X180067Y94909D01*
X179867Y94459D01*
Y93959D01*
X179733Y93659D01*
X179400Y93409D01*
X178933Y93309D01*
X178467Y93459D01*
X178133Y93809D01*
X178000Y94209D01*
X178133Y94609D01*
X178467Y94959D01*
X178933Y95109D01*
X179400Y95009D01*
X179733Y94759D01*
X179867Y94459D01*
Y93959D01*
X180067Y93509D01*
X180467Y93209D01*
X180933Y93109D01*
X181400Y93209D01*
X181733Y93459D01*
X181933Y93859D01*
X182000Y94209D01*
G01X165696Y81667D02*
X166046Y82133D01*
X166346Y82400D01*
X166746Y82533D01*
X167096Y82400D01*
X167346Y82133D01*
X167546Y81733D01*
X167596Y81267D01*
X167546Y80867D01*
X167346Y80467D01*
X167046Y80133D01*
X166696Y80000D01*
X166296Y80133D01*
X165946Y80533D01*
X165746Y81133D01*
X165696Y81800D01*
X165796Y82667D01*
X165946Y83133D01*
X166196Y83600D01*
X166546Y83933D01*
X166896Y84000D01*
X167246Y83867D01*
X167496Y83533D01*
G01X169404Y83333D02*
X169704Y83733D01*
X170054Y83933D01*
X170454Y84000D01*
X170954Y83867D01*
X171304Y83533D01*
X171404Y83133D01*
X171354Y82733D01*
X171154Y82400D01*
X170154Y81733D01*
X169704Y81267D01*
X169404Y80600D01*
X169304Y80000D01*
X171404D01*
G01X175250Y116862D02*
Y97138D01*
X184750D01*
Y116862D01*
X175250D01*
G01X176678Y125033D02*
X177078Y124700D01*
X177528Y124500D01*
X177928D01*
X178328Y124700D01*
X178628Y125033D01*
X178778Y125500D01*
X178678Y125967D01*
X178428Y126367D01*
X177978Y126633D01*
X177378Y126767D01*
X177028Y127033D01*
X176878Y127500D01*
X176978Y127967D01*
X177228Y128300D01*
X177578Y128500D01*
X177928D01*
X178278Y128367D01*
X178578Y128033D01*
G01X179937Y128500D02*
X180637Y124500D01*
X181437Y128500D01*
X182237Y124500D01*
X182937Y128500D01*
G01X184046Y124500D02*
Y128500D01*
X185046D01*
X185446Y128300D01*
X185746Y128033D01*
X185996Y127633D01*
X186196Y127167D01*
X186246Y126500D01*
X186196Y125833D01*
X185996Y125367D01*
X185746Y124967D01*
X185446Y124700D01*
X185046Y124500D01*
X184046D01*
G01X189954Y128167D02*
X189654Y128367D01*
X189304Y128500D01*
X188904D01*
X188454Y128300D01*
X188104Y127967D01*
X187854Y127567D01*
X187654Y126900D01*
X187604Y126300D01*
X187704Y125700D01*
X187854Y125300D01*
X188154Y124900D01*
X188504Y124633D01*
X188854Y124500D01*
X189204D01*
X189554Y124633D01*
X189854Y124833D01*
X190104Y125100D01*
G01X191563Y128500D02*
Y124500D01*
X193563D01*
G01X195172D02*
Y128500D01*
G01X197072D02*
X195172Y126033D01*
G01X197372Y124500D02*
X196022Y127167D01*
G01X172141Y145367D02*
X172491Y145833D01*
X172791Y146100D01*
X173191Y146233D01*
X173541Y146100D01*
X173791Y145833D01*
X173991Y145433D01*
X174041Y144967D01*
X173991Y144567D01*
X173791Y144167D01*
X173491Y143833D01*
X173141Y143700D01*
X172741Y143833D01*
X172391Y144233D01*
X172191Y144833D01*
X172141Y145500D01*
X172241Y146367D01*
X172391Y146833D01*
X172641Y147300D01*
X172991Y147633D01*
X173341Y147700D01*
X173691Y147567D01*
X173941Y147233D01*
G01X175700Y144500D02*
X176000Y144033D01*
X176400Y143767D01*
X176850Y143700D01*
X177250Y143767D01*
X177650Y144100D01*
X177900Y144500D01*
X177950Y144900D01*
X177850Y145367D01*
X177500Y145700D01*
X177150Y145833D01*
X176700D01*
G01X177150D02*
X177450Y146033D01*
X177700Y146367D01*
X177800Y146767D01*
X177700Y147167D01*
X177450Y147500D01*
X177000Y147700D01*
X176550Y147633D01*
X176100Y147367D01*
G01X173146Y138000D02*
Y142000D01*
X172546Y141200D01*
G01Y138000D02*
X173746D01*
G01X175754Y138600D02*
X176054Y138267D01*
X176404Y138067D01*
X176854Y138000D01*
X177304Y138133D01*
X177654Y138400D01*
X177904Y138867D01*
X177954Y139400D01*
X177854Y139933D01*
X177604Y140267D01*
X177254Y140533D01*
X176904Y140600D01*
X176554Y140533D01*
X176104Y140267D01*
X176254Y142000D01*
X177604D01*
G01X184850Y169138D02*
Y188862D01*
X175350D01*
Y169138D01*
X184850D01*
G01X182391Y154667D02*
X182091Y154867D01*
X181741Y155000D01*
X181341D01*
X180891Y154800D01*
X180541Y154467D01*
X180291Y154067D01*
X180091Y153400D01*
X180041Y152800D01*
X180141Y152200D01*
X180291Y151800D01*
X180591Y151400D01*
X180941Y151133D01*
X181291Y151000D01*
X181641D01*
X181991Y151133D01*
X182291Y151333D01*
X182541Y151600D01*
G01X184900Y151000D02*
X185000Y151867D01*
X185150Y152600D01*
X185350Y153267D01*
X185600Y154000D01*
X186000Y155000D01*
X184000D01*
G01X187759Y152667D02*
X188109Y153133D01*
X188409Y153400D01*
X188809Y153533D01*
X189159Y153400D01*
X189409Y153133D01*
X189609Y152733D01*
X189659Y152267D01*
X189609Y151867D01*
X189409Y151467D01*
X189109Y151133D01*
X188759Y151000D01*
X188359Y151133D01*
X188009Y151533D01*
X187809Y152133D01*
X187759Y152800D01*
X187859Y153667D01*
X188009Y154133D01*
X188259Y154600D01*
X188609Y154933D01*
X188959Y155000D01*
X189309Y154867D01*
X189559Y154533D01*
G01X175138Y156750D02*
X194862D01*
Y166250D01*
X175138D01*
Y156750D01*
G01X161146Y149500D02*
Y153500D01*
X160546Y152700D01*
G01Y149500D02*
X161746D01*
G01X163904Y151167D02*
X164254Y151633D01*
X164554Y151900D01*
X164954Y152033D01*
X165304Y151900D01*
X165554Y151633D01*
X165754Y151233D01*
X165804Y150767D01*
X165754Y150367D01*
X165554Y149967D01*
X165254Y149633D01*
X164904Y149500D01*
X164504Y149633D01*
X164154Y150033D01*
X163954Y150633D01*
X163904Y151300D01*
X164004Y152167D01*
X164154Y152633D01*
X164404Y153100D01*
X164754Y153433D01*
X165104Y153500D01*
X165454Y153367D01*
X165704Y153033D01*
G01X164638Y189250D02*
X184362D01*
Y198750D01*
X164638D01*
Y189250D01*
G01X170333Y174891D02*
X170133Y174591D01*
X170000Y174241D01*
Y173841D01*
X170200Y173391D01*
X170533Y173041D01*
X170933Y172791D01*
X171600Y172591D01*
X172200Y172541D01*
X172800Y172641D01*
X173200Y172791D01*
X173600Y173091D01*
X173867Y173441D01*
X174000Y173791D01*
Y174141D01*
X173867Y174491D01*
X173667Y174791D01*
X173400Y175041D01*
G01X173200Y176400D02*
X173667Y176700D01*
X173933Y177100D01*
X174000Y177550D01*
X173933Y177950D01*
X173600Y178350D01*
X173200Y178600D01*
X172800Y178650D01*
X172333Y178550D01*
X172000Y178200D01*
X171867Y177850D01*
Y177400D01*
G01Y177850D02*
X171667Y178150D01*
X171333Y178400D01*
X170933Y178500D01*
X170533Y178400D01*
X170200Y178150D01*
X170000Y177700D01*
X170067Y177250D01*
X170333Y176800D01*
G01X174000Y181209D02*
X173933Y181559D01*
X173733Y181959D01*
X173400Y182209D01*
X172933Y182309D01*
X172467Y182209D01*
X172067Y181909D01*
X171867Y181459D01*
Y180959D01*
X171733Y180659D01*
X171400Y180409D01*
X170933Y180309D01*
X170467Y180459D01*
X170133Y180809D01*
X170000Y181209D01*
X170133Y181609D01*
X170467Y181959D01*
X170933Y182109D01*
X171400Y182009D01*
X171733Y181759D01*
X171867Y181459D01*
Y180959D01*
X172067Y180509D01*
X172467Y180209D01*
X172933Y180109D01*
X173400Y180209D01*
X173733Y180459D01*
X173933Y180859D01*
X174000Y181209D01*
G01X177650Y209663D02*
Y229387D01*
X168150D01*
Y209663D01*
X177650D01*
G01X180333Y223891D02*
X180133Y223591D01*
X180000Y223241D01*
Y222841D01*
X180200Y222391D01*
X180533Y222041D01*
X180933Y221791D01*
X181600Y221591D01*
X182200Y221541D01*
X182800Y221641D01*
X183200Y221791D01*
X183600Y222091D01*
X183867Y222441D01*
X184000Y222791D01*
Y223141D01*
X183867Y223491D01*
X183667Y223791D01*
X183400Y224041D01*
G01X184000Y226500D02*
X180000D01*
X180800Y225900D01*
G01X184000D02*
Y227100D01*
G01Y230109D02*
X183133Y230209D01*
X182400Y230359D01*
X181733Y230559D01*
X181000Y230809D01*
X180000Y231209D01*
Y229209D01*
G01X187250Y199638D02*
Y219362D01*
X177750D01*
Y199638D01*
X187250D01*
G01X168291Y231500D02*
Y235500D01*
X169541D01*
X169941Y235300D01*
X170191Y235033D01*
X170291Y234500D01*
X170191Y233967D01*
X169891Y233633D01*
X169541Y233433D01*
X168291D01*
G01X169541D02*
X170291Y231500D01*
G01X173000D02*
Y235500D01*
X172400Y234700D01*
G01Y231500D02*
X173600D01*
G01X176609D02*
X176709Y232367D01*
X176859Y233100D01*
X177059Y233767D01*
X177309Y234500D01*
X177709Y235500D01*
X175709D01*
G01X178500Y261291D02*
X174500D01*
Y262541D01*
X174700Y262941D01*
X174967Y263191D01*
X175500Y263291D01*
X176033Y263191D01*
X176367Y262891D01*
X176567Y262541D01*
Y261291D01*
G01Y262541D02*
X178500Y263291D01*
G01Y266000D02*
X174500D01*
X175300Y265400D01*
G01X178500D02*
Y266600D01*
G01X177900Y268609D02*
X178233Y268909D01*
X178433Y269259D01*
X178500Y269709D01*
X178367Y270159D01*
X178100Y270509D01*
X177633Y270759D01*
X177100Y270809D01*
X176567Y270709D01*
X176233Y270459D01*
X175967Y270109D01*
X175900Y269759D01*
X175967Y269409D01*
X176233Y268959D01*
X174500Y269109D01*
Y270459D01*
G01X162650Y275262D02*
Y255538D01*
X172150D01*
Y275262D01*
X162650D01*
G01X160150Y296662D02*
Y276938D01*
X169650D01*
Y296662D01*
X160150D01*
G01X176046Y279000D02*
Y276133D01*
X176246Y275533D01*
X176646Y275133D01*
X177146Y275000D01*
X177646Y275133D01*
X178046Y275533D01*
X178246Y276133D01*
Y279000D01*
G01X180854Y275000D02*
Y279000D01*
X180254Y278200D01*
G01Y275000D02*
X181454D01*
G01X173050Y295667D02*
X173400Y296133D01*
X173700Y296400D01*
X174100Y296533D01*
X174450Y296400D01*
X174700Y296133D01*
X174900Y295733D01*
X174950Y295267D01*
X174900Y294867D01*
X174700Y294467D01*
X174400Y294133D01*
X174050Y294000D01*
X173650Y294133D01*
X173300Y294533D01*
X173100Y295133D01*
X173050Y295800D01*
X173150Y296667D01*
X173300Y297133D01*
X173550Y297600D01*
X173900Y297933D01*
X174250Y298000D01*
X174600Y297867D01*
X174850Y297533D01*
G01X183100Y291000D02*
Y295000D01*
X181250Y292133D01*
X183750D01*
G01X181900Y281300D02*
X182200Y280833D01*
X182600Y280567D01*
X183050Y280500D01*
X183450Y280567D01*
X183850Y280900D01*
X184100Y281300D01*
X184150Y281700D01*
X184050Y282167D01*
X183700Y282500D01*
X183350Y282633D01*
X182900D01*
G01X183350D02*
X183650Y282833D01*
X183900Y283167D01*
X184000Y283567D01*
X183900Y283967D01*
X183650Y284300D01*
X183200Y284500D01*
X182750Y284433D01*
X182300Y284167D01*
G01X191091Y32000D02*
X192091D01*
Y30800D01*
X191791Y30400D01*
X191441Y30133D01*
X190941Y30000D01*
X190441Y30133D01*
X190091Y30400D01*
X189791Y30800D01*
X189591Y31267D01*
X189491Y31800D01*
Y32267D01*
X189591Y32667D01*
X189791Y33133D01*
X190091Y33533D01*
X190391Y33800D01*
X190791Y34000D01*
X191141D01*
X191541Y33867D01*
X191841Y33600D01*
G01X193350Y30000D02*
Y34000D01*
X195650Y30000D01*
Y34000D01*
G01X197109Y30000D02*
Y34000D01*
X198109D01*
X198509Y33800D01*
X198809Y33533D01*
X199059Y33133D01*
X199259Y32667D01*
X199309Y32000D01*
X199259Y31333D01*
X199059Y30867D01*
X198809Y30467D01*
X198509Y30200D01*
X198109Y30000D01*
X197109D01*
G01X189000Y28000D02*
Y24000D01*
G01X187850Y28000D02*
X190150D01*
G01X191709Y24000D02*
Y28000D01*
X192909D01*
X193309Y27800D01*
X193609Y27333D01*
X193709Y26800D01*
X193609Y26267D01*
X193359Y25867D01*
X192909Y25667D01*
X191709D01*
G01X196417Y24000D02*
Y28000D01*
X195817Y27200D01*
G01Y24000D02*
X197017D01*
G01X199026Y24600D02*
X199326Y24267D01*
X199676Y24067D01*
X200126Y24000D01*
X200576Y24133D01*
X200926Y24400D01*
X201176Y24867D01*
X201226Y25400D01*
X201126Y25933D01*
X200876Y26267D01*
X200526Y26533D01*
X200176Y26600D01*
X199826Y26533D01*
X199376Y26267D01*
X199526Y28000D01*
X200876D01*
G01X195146Y91500D02*
Y95500D01*
X196396D01*
X196796Y95300D01*
X197046Y95033D01*
X197146Y94500D01*
X197046Y93967D01*
X196746Y93633D01*
X196396Y93433D01*
X195146D01*
G01X196396D02*
X197146Y91500D01*
G01X198804D02*
X200904Y95500D01*
G01X198804D02*
X200904Y91500D01*
G01X187833Y87891D02*
X187633Y87591D01*
X187500Y87241D01*
Y86841D01*
X187700Y86391D01*
X188033Y86041D01*
X188433Y85791D01*
X189100Y85591D01*
X189700Y85541D01*
X190300Y85641D01*
X190700Y85791D01*
X191100Y86091D01*
X191367Y86441D01*
X191500Y86791D01*
Y87141D01*
X191367Y87491D01*
X191167Y87791D01*
X190900Y88041D01*
G01X188167Y89550D02*
X187767Y89850D01*
X187567Y90200D01*
X187500Y90600D01*
X187633Y91100D01*
X187967Y91450D01*
X188367Y91550D01*
X188767Y91500D01*
X189100Y91300D01*
X189767Y90300D01*
X190233Y89850D01*
X190900Y89550D01*
X191500Y89450D01*
Y91550D01*
G01X187500Y94209D02*
X187633Y93809D01*
X187967Y93509D01*
X188367Y93309D01*
X188900Y93159D01*
X189500Y93109D01*
X190100Y93159D01*
X190633Y93309D01*
X191033Y93509D01*
X191367Y93809D01*
X191500Y94209D01*
X191367Y94609D01*
X191033Y94909D01*
X190633Y95109D01*
X190100Y95259D01*
X189500Y95309D01*
X188900Y95259D01*
X188367Y95109D01*
X187967Y94909D01*
X187633Y94609D01*
X187500Y94209D01*
G01X186241Y118533D02*
X186641Y118200D01*
X187091Y118000D01*
X187491D01*
X187891Y118200D01*
X188191Y118533D01*
X188341Y119000D01*
X188241Y119467D01*
X187991Y119867D01*
X187541Y120133D01*
X186941Y120267D01*
X186591Y120533D01*
X186441Y121000D01*
X186541Y121467D01*
X186791Y121800D01*
X187141Y122000D01*
X187491D01*
X187841Y121867D01*
X188141Y121533D01*
G01X189500Y122000D02*
X190200Y118000D01*
X191000Y122000D01*
X191800Y118000D01*
X192500Y122000D01*
G01X193609Y118000D02*
Y122000D01*
X194609D01*
X195009Y121800D01*
X195309Y121533D01*
X195559Y121133D01*
X195759Y120667D01*
X195809Y120000D01*
X195759Y119333D01*
X195559Y118867D01*
X195309Y118467D01*
X195009Y118200D01*
X194609Y118000D01*
X193609D01*
G01X199550Y101333D02*
X199850Y101733D01*
X200200Y101933D01*
X200600Y102000D01*
X201100Y101867D01*
X201450Y101533D01*
X201550Y101133D01*
X201500Y100733D01*
X201300Y100400D01*
X200300Y99733D01*
X199850Y99267D01*
X199550Y98600D01*
X199450Y98000D01*
X201550D01*
G01X184850Y116862D02*
Y97138D01*
X194350D01*
Y116862D01*
X184850D01*
G01X195646Y129500D02*
Y133500D01*
X195046Y132700D01*
G01Y129500D02*
X196246D01*
G01X199354Y133500D02*
X198954Y133367D01*
X198654Y133033D01*
X198454Y132633D01*
X198304Y132100D01*
X198254Y131500D01*
X198304Y130900D01*
X198454Y130367D01*
X198654Y129967D01*
X198954Y129633D01*
X199354Y129500D01*
X199754Y129633D01*
X200054Y129967D01*
X200254Y130367D01*
X200404Y130900D01*
X200454Y131500D01*
X200404Y132100D01*
X200254Y132633D01*
X200054Y133033D01*
X199754Y133367D01*
X199354Y133500D01*
G01X210146Y144300D02*
X210396Y143900D01*
X210696Y143633D01*
X211046Y143500D01*
X211446Y143633D01*
X211746Y143900D01*
X212046Y144300D01*
X212146Y144833D01*
Y147500D01*
G01X213754Y144100D02*
X214054Y143767D01*
X214404Y143567D01*
X214854Y143500D01*
X215304Y143633D01*
X215654Y143900D01*
X215904Y144367D01*
X215954Y144900D01*
X215854Y145433D01*
X215604Y145767D01*
X215254Y146033D01*
X214904Y146100D01*
X214554Y146033D01*
X214104Y145767D01*
X214254Y147500D01*
X215604D01*
G01X194741Y169533D02*
X195141Y169200D01*
X195591Y169000D01*
X195991D01*
X196391Y169200D01*
X196691Y169533D01*
X196841Y170000D01*
X196741Y170467D01*
X196491Y170867D01*
X196041Y171133D01*
X195441Y171267D01*
X195091Y171533D01*
X194941Y172000D01*
X195041Y172467D01*
X195291Y172800D01*
X195641Y173000D01*
X195991D01*
X196341Y172867D01*
X196641Y172533D01*
G01X198000Y173000D02*
X198700Y169000D01*
X199500Y173000D01*
X200300Y169000D01*
X201000Y173000D01*
G01X202259Y170667D02*
X202609Y171133D01*
X202909Y171400D01*
X203309Y171533D01*
X203659Y171400D01*
X203909Y171133D01*
X204109Y170733D01*
X204159Y170267D01*
X204109Y169867D01*
X203909Y169467D01*
X203609Y169133D01*
X203259Y169000D01*
X202859Y169133D01*
X202509Y169533D01*
X202309Y170133D01*
X202259Y170800D01*
X202359Y171667D01*
X202509Y172133D01*
X202759Y172600D01*
X203109Y172933D01*
X203459Y173000D01*
X203809Y172867D01*
X204059Y172533D01*
G01X206187Y196000D02*
X207437Y192000D01*
X208687Y196000D01*
G01X210096Y192533D02*
X210496Y192200D01*
X210946Y192000D01*
X211346D01*
X211746Y192200D01*
X212046Y192533D01*
X212196Y193000D01*
X212096Y193467D01*
X211846Y193867D01*
X211396Y194133D01*
X210796Y194267D01*
X210446Y194533D01*
X210296Y195000D01*
X210396Y195467D01*
X210646Y195800D01*
X210996Y196000D01*
X211346D01*
X211696Y195867D01*
X211996Y195533D01*
G01X214854Y192000D02*
Y193800D01*
X213854Y196000D01*
G01X215854D02*
X214854Y193800D01*
G01X217513Y192533D02*
X217913Y192200D01*
X218363Y192000D01*
X218763D01*
X219163Y192200D01*
X219463Y192533D01*
X219613Y193000D01*
X219513Y193467D01*
X219263Y193867D01*
X218813Y194133D01*
X218213Y194267D01*
X217863Y194533D01*
X217713Y195000D01*
X217813Y195467D01*
X218063Y195800D01*
X218413Y196000D01*
X218763D01*
X219113Y195867D01*
X219413Y195533D01*
G01X212100Y183000D02*
Y187000D01*
X210250Y184133D01*
X212750D01*
G01X193937Y193500D02*
Y189500D01*
G01X192787Y193500D02*
X195087D01*
G01X196646Y189500D02*
Y193500D01*
X197846D01*
X198246Y193300D01*
X198546Y192833D01*
X198646Y192300D01*
X198546Y191767D01*
X198296Y191367D01*
X197846Y191167D01*
X196646D01*
G01X200404Y192833D02*
X200704Y193233D01*
X201054Y193433D01*
X201454Y193500D01*
X201954Y193367D01*
X202304Y193033D01*
X202404Y192633D01*
X202354Y192233D01*
X202154Y191900D01*
X201154Y191233D01*
X200704Y190767D01*
X200404Y190100D01*
X200304Y189500D01*
X202404D01*
G01X205063D02*
Y193500D01*
X204463Y192700D01*
G01Y189500D02*
X205663D01*
G01X190833Y223391D02*
X190633Y223091D01*
X190500Y222741D01*
Y222341D01*
X190700Y221891D01*
X191033Y221541D01*
X191433Y221291D01*
X192100Y221091D01*
X192700Y221041D01*
X193300Y221141D01*
X193700Y221291D01*
X194100Y221591D01*
X194367Y221941D01*
X194500Y222291D01*
Y222641D01*
X194367Y222991D01*
X194167Y223291D01*
X193900Y223541D01*
G01X193700Y224900D02*
X194167Y225200D01*
X194433Y225600D01*
X194500Y226050D01*
X194433Y226450D01*
X194100Y226850D01*
X193700Y227100D01*
X193300Y227150D01*
X192833Y227050D01*
X192500Y226700D01*
X192367Y226350D01*
Y225900D01*
G01Y226350D02*
X192167Y226650D01*
X191833Y226900D01*
X191433Y227000D01*
X191033Y226900D01*
X190700Y226650D01*
X190500Y226200D01*
X190567Y225750D01*
X190833Y225300D01*
G01X194033Y228859D02*
X194367Y229209D01*
X194500Y229609D01*
X194367Y230009D01*
X193967Y230359D01*
X193367Y230609D01*
X192767Y230709D01*
X192033D01*
X191433Y230609D01*
X190900Y230359D01*
X190633Y230059D01*
X190500Y229709D01*
X190633Y229309D01*
X190900Y229009D01*
X191300Y228809D01*
X191833Y228709D01*
X192300Y228809D01*
X192767Y229059D01*
X193033Y229359D01*
X193100Y229709D01*
X192967Y230109D01*
X192633Y230409D01*
X192033Y230709D01*
G01X187750Y219362D02*
Y199638D01*
X197250D01*
Y219362D01*
X187750D01*
G01X198000Y221000D02*
X198350Y221067D01*
X198750Y221267D01*
X199000Y221600D01*
X199100Y222067D01*
X199000Y222533D01*
X198700Y222933D01*
X198250Y223133D01*
X197750D01*
X197450Y223267D01*
X197200Y223600D01*
X197100Y224067D01*
X197250Y224533D01*
X197600Y224867D01*
X198000Y225000D01*
X198400Y224867D01*
X198750Y224533D01*
X198900Y224067D01*
X198800Y223600D01*
X198550Y223267D01*
X198250Y223133D01*
X197750D01*
X197300Y222933D01*
X197000Y222533D01*
X196900Y222067D01*
X197000Y221600D01*
X197250Y221267D01*
X197650Y221067D01*
X198000Y221000D01*
G01X189791Y238500D02*
Y242500D01*
X191041D01*
X191441Y242300D01*
X191691Y242033D01*
X191791Y241500D01*
X191691Y240967D01*
X191391Y240633D01*
X191041Y240433D01*
X189791D01*
G01X191041D02*
X191791Y238500D01*
G01X193400Y239300D02*
X193700Y238833D01*
X194100Y238567D01*
X194550Y238500D01*
X194950Y238567D01*
X195350Y238900D01*
X195600Y239300D01*
X195650Y239700D01*
X195550Y240167D01*
X195200Y240500D01*
X194850Y240633D01*
X194400D01*
G01X194850D02*
X195150Y240833D01*
X195400Y241167D01*
X195500Y241567D01*
X195400Y241967D01*
X195150Y242300D01*
X194700Y242500D01*
X194250Y242433D01*
X193800Y242167D01*
G01X197259Y240167D02*
X197609Y240633D01*
X197909Y240900D01*
X198309Y241033D01*
X198659Y240900D01*
X198909Y240633D01*
X199109Y240233D01*
X199159Y239767D01*
X199109Y239367D01*
X198909Y238967D01*
X198609Y238633D01*
X198259Y238500D01*
X197859Y238633D01*
X197509Y239033D01*
X197309Y239633D01*
X197259Y240300D01*
X197359Y241167D01*
X197509Y241633D01*
X197759Y242100D01*
X198109Y242433D01*
X198459Y242500D01*
X198809Y242367D01*
X199059Y242033D01*
G01X209750Y248138D02*
Y267862D01*
X200250D01*
Y248138D01*
X209750D01*
G01X219750Y226638D02*
Y246362D01*
X210250D01*
Y226638D01*
X219750D01*
G01X191891Y236667D02*
X191591Y236867D01*
X191241Y237000D01*
X190841D01*
X190391Y236800D01*
X190041Y236467D01*
X189791Y236067D01*
X189591Y235400D01*
X189541Y234800D01*
X189641Y234200D01*
X189791Y233800D01*
X190091Y233400D01*
X190441Y233133D01*
X190791Y233000D01*
X191141D01*
X191491Y233133D01*
X191791Y233333D01*
X192041Y233600D01*
G01X194500Y233000D02*
Y237000D01*
X193900Y236200D01*
G01Y233000D02*
X195100D01*
G01X197109Y233600D02*
X197409Y233267D01*
X197759Y233067D01*
X198209Y233000D01*
X198659Y233133D01*
X199009Y233400D01*
X199259Y233867D01*
X199309Y234400D01*
X199209Y234933D01*
X198959Y235267D01*
X198609Y235533D01*
X198259Y235600D01*
X197909Y235533D01*
X197459Y235267D01*
X197609Y237000D01*
X198959D01*
G01X210250Y226638D02*
Y246362D01*
X200750D01*
Y226638D01*
X210250D01*
G01X220250Y248138D02*
Y267862D01*
X210750D01*
Y248138D01*
X220250D01*
G01X200638Y270750D02*
X220362D01*
Y280250D01*
X200638D01*
Y270750D01*
G01X194333Y305000D02*
X195583Y301000D01*
X196833Y305000D01*
G01X199691Y303133D02*
X199891Y303333D01*
X200041Y303667D01*
X200141Y304133D01*
X200041Y304533D01*
X199841Y304800D01*
X199491Y305000D01*
X198141D01*
Y301000D01*
X199791D01*
X200141Y301267D01*
X200341Y301667D01*
X200441Y302133D01*
X200341Y302600D01*
X200041Y303000D01*
X199691Y303133D01*
X198141D01*
G01X201900Y305000D02*
Y302133D01*
X202100Y301533D01*
X202500Y301133D01*
X203000Y301000D01*
X203500Y301133D01*
X203900Y301533D01*
X204100Y302133D01*
Y305000D01*
G01X205659Y301533D02*
X206059Y301200D01*
X206509Y301000D01*
X206909D01*
X207309Y301200D01*
X207609Y301533D01*
X207759Y302000D01*
X207659Y302467D01*
X207409Y302867D01*
X206959Y303133D01*
X206359Y303267D01*
X206009Y303533D01*
X205859Y304000D01*
X205959Y304467D01*
X206209Y304800D01*
X206559Y305000D01*
X206909D01*
X207259Y304867D01*
X207559Y304533D01*
G01X210417Y301000D02*
Y305000D01*
X209817Y304200D01*
G01Y301000D02*
X211017D01*
G01X196124Y293667D02*
X197374Y289667D01*
X198624Y293667D01*
G01X200033Y290200D02*
X200433Y289867D01*
X200883Y289667D01*
X201283D01*
X201683Y289867D01*
X201983Y290200D01*
X202133Y290667D01*
X202033Y291133D01*
X201783Y291533D01*
X201333Y291800D01*
X200733Y291933D01*
X200383Y292200D01*
X200233Y292667D01*
X200333Y293133D01*
X200583Y293467D01*
X200933Y293667D01*
X201283D01*
X201633Y293533D01*
X201933Y293200D01*
G01X204791Y289667D02*
Y291467D01*
X203791Y293667D01*
G01X205791D02*
X204791Y291467D01*
G01X207450Y290200D02*
X207850Y289867D01*
X208300Y289667D01*
X208700D01*
X209100Y289867D01*
X209400Y290200D01*
X209550Y290667D01*
X209450Y291133D01*
X209200Y291533D01*
X208750Y291800D01*
X208150Y291933D01*
X207800Y292200D01*
X207650Y292667D01*
X207750Y293133D01*
X208000Y293467D01*
X208350Y293667D01*
X208700D01*
X209050Y293533D01*
X209350Y293200D01*
G01X210709Y288333D02*
X213709D01*
G01X216317Y291800D02*
X216517Y292000D01*
X216667Y292333D01*
X216767Y292800D01*
X216667Y293200D01*
X216467Y293467D01*
X216117Y293667D01*
X214767D01*
Y289667D01*
X216417D01*
X216767Y289933D01*
X216967Y290333D01*
X217067Y290800D01*
X216967Y291267D01*
X216667Y291667D01*
X216317Y291800D01*
X214767D01*
G01X220726Y293333D02*
X220426Y293533D01*
X220076Y293667D01*
X219676D01*
X219226Y293467D01*
X218876Y293133D01*
X218626Y292733D01*
X218426Y292067D01*
X218376Y291467D01*
X218476Y290867D01*
X218626Y290467D01*
X218926Y290067D01*
X219276Y289800D01*
X219626Y289667D01*
X219976D01*
X220326Y289800D01*
X220626Y290000D01*
X220876Y290267D01*
G01X210291Y287500D02*
Y283500D01*
G01X209141Y287500D02*
X211441D01*
G01X213000Y283500D02*
Y287500D01*
X214200D01*
X214600Y287300D01*
X214900Y286833D01*
X215000Y286300D01*
X214900Y285767D01*
X214650Y285367D01*
X214200Y285167D01*
X213000D01*
G01X216609Y284300D02*
X216909Y283833D01*
X217309Y283567D01*
X217759Y283500D01*
X218159Y283567D01*
X218559Y283900D01*
X218809Y284300D01*
X218859Y284700D01*
X218759Y285167D01*
X218409Y285500D01*
X218059Y285633D01*
X217609D01*
G01X218059D02*
X218359Y285833D01*
X218609Y286167D01*
X218709Y286567D01*
X218609Y286967D01*
X218359Y287300D01*
X217909Y287500D01*
X217459Y287433D01*
X217009Y287167D01*
G01X187791Y299000D02*
Y295000D01*
G01X186641Y299000D02*
X188941D01*
G01X190500Y295000D02*
Y299000D01*
X191700D01*
X192100Y298800D01*
X192400Y298333D01*
X192500Y297800D01*
X192400Y297267D01*
X192150Y296867D01*
X191700Y296667D01*
X190500D01*
G01X194259Y298333D02*
X194559Y298733D01*
X194909Y298933D01*
X195309Y299000D01*
X195809Y298867D01*
X196159Y298533D01*
X196259Y298133D01*
X196209Y297733D01*
X196009Y297400D01*
X195009Y296733D01*
X194559Y296267D01*
X194259Y295600D01*
X194159Y295000D01*
X196259D01*
G01X193146Y315800D02*
X193396Y315400D01*
X193696Y315133D01*
X194046Y315000D01*
X194446Y315133D01*
X194746Y315400D01*
X195046Y315800D01*
X195146Y316333D01*
Y319000D01*
G01X197854Y315000D02*
Y319000D01*
X197254Y318200D01*
G01Y315000D02*
X198454D01*
G01X225333Y55891D02*
X225133Y55591D01*
X225000Y55241D01*
Y54841D01*
X225200Y54391D01*
X225533Y54041D01*
X225933Y53791D01*
X226600Y53591D01*
X227200Y53541D01*
X227800Y53641D01*
X228200Y53791D01*
X228600Y54091D01*
X228867Y54441D01*
X229000Y54791D01*
Y55141D01*
X228867Y55491D01*
X228667Y55791D01*
X228400Y56041D01*
G01X229000Y58400D02*
X228133Y58500D01*
X227400Y58650D01*
X226733Y58850D01*
X226000Y59100D01*
X225000Y59500D01*
Y57500D01*
G01X228200Y61109D02*
X228667Y61409D01*
X228933Y61809D01*
X229000Y62259D01*
X228933Y62659D01*
X228600Y63059D01*
X228200Y63309D01*
X227800Y63359D01*
X227333Y63259D01*
X227000Y62909D01*
X226867Y62559D01*
Y62109D01*
G01Y62559D02*
X226667Y62859D01*
X226333Y63109D01*
X225933Y63209D01*
X225533Y63109D01*
X225200Y62859D01*
X225000Y62409D01*
X225067Y61959D01*
X225333Y61509D01*
G01X222950Y48138D02*
Y67862D01*
X213450D01*
Y48138D01*
X222950D01*
G01X229000Y72291D02*
X225000D01*
Y73541D01*
X225200Y73941D01*
X225467Y74191D01*
X226000Y74291D01*
X226533Y74191D01*
X226867Y73891D01*
X227067Y73541D01*
Y72291D01*
G01Y73541D02*
X229000Y74291D01*
G01X228200Y75900D02*
X228667Y76200D01*
X228933Y76600D01*
X229000Y77050D01*
X228933Y77450D01*
X228600Y77850D01*
X228200Y78100D01*
X227800Y78150D01*
X227333Y78050D01*
X227000Y77700D01*
X226867Y77350D01*
Y76900D01*
G01Y77350D02*
X226667Y77650D01*
X226333Y77900D01*
X225933Y78000D01*
X225533Y77900D01*
X225200Y77650D01*
X225000Y77200D01*
X225067Y76750D01*
X225333Y76300D01*
G01X225000Y80709D02*
X225133Y80309D01*
X225467Y80009D01*
X225867Y79809D01*
X226400Y79659D01*
X227000Y79609D01*
X227600Y79659D01*
X228133Y79809D01*
X228533Y80009D01*
X228867Y80309D01*
X229000Y80709D01*
X228867Y81109D01*
X228533Y81409D01*
X228133Y81609D01*
X227600Y81759D01*
X227000Y81809D01*
X226400Y81759D01*
X225867Y81609D01*
X225467Y81409D01*
X225133Y81109D01*
X225000Y80709D01*
G01X213450Y87262D02*
Y67538D01*
X222950D01*
Y87262D01*
X213450D01*
G01X229646Y110500D02*
Y106500D01*
G01X228496Y110500D02*
X230796D01*
G01X232304Y106500D02*
X234404Y110500D01*
G01X232304D02*
X234404Y106500D01*
G01X233500Y112791D02*
X229500D01*
Y114041D01*
X229700Y114441D01*
X229967Y114691D01*
X230500Y114791D01*
X231033Y114691D01*
X231367Y114391D01*
X231567Y114041D01*
Y112791D01*
G01Y114041D02*
X233500Y114791D01*
G01X232967Y116450D02*
X233300Y116850D01*
X233500Y117300D01*
Y117700D01*
X233300Y118100D01*
X232967Y118400D01*
X232500Y118550D01*
X232033Y118450D01*
X231633Y118200D01*
X231367Y117750D01*
X231233Y117150D01*
X230967Y116800D01*
X230500Y116650D01*
X230033Y116750D01*
X229700Y117000D01*
X229500Y117350D01*
Y117700D01*
X229633Y118050D01*
X229967Y118350D01*
G01X229500Y121209D02*
X233500D01*
G01X229500Y120059D02*
Y122359D01*
G01X230700Y128983D02*
X230500Y129183D01*
X230167Y129333D01*
X229700Y129433D01*
X229300Y129333D01*
X229034Y129133D01*
X228833Y128783D01*
Y127433D01*
X232833D01*
Y129083D01*
X232567Y129433D01*
X232167Y129633D01*
X231700Y129733D01*
X231234Y129633D01*
X230834Y129333D01*
X230700Y128983D01*
Y127433D01*
G01X228833Y131291D02*
X232833D01*
Y133291D01*
G01Y137000D02*
Y135000D01*
X228833D01*
Y137000D01*
G01X230767Y136200D02*
Y135000D01*
G01X234167Y138209D02*
Y141209D01*
G01X232833Y142167D02*
X228833Y143417D01*
X232833Y144668D01*
G01X231434Y144217D02*
Y142617D01*
G01X225150Y130467D02*
X225500Y130133D01*
X225900Y130000D01*
X226300Y130133D01*
X226650Y130533D01*
X226900Y131133D01*
X227000Y131733D01*
Y132467D01*
X226900Y133067D01*
X226650Y133600D01*
X226350Y133867D01*
X226000Y134000D01*
X225600Y133867D01*
X225300Y133600D01*
X225100Y133200D01*
X225000Y132667D01*
X225100Y132200D01*
X225350Y131733D01*
X225650Y131467D01*
X226000Y131400D01*
X226400Y131533D01*
X226700Y131867D01*
X227000Y132467D01*
G01X216291Y165000D02*
Y169000D01*
X217541D01*
X217941Y168800D01*
X218191Y168533D01*
X218291Y168000D01*
X218191Y167467D01*
X217891Y167133D01*
X217541Y166933D01*
X216291D01*
G01X217541D02*
X218291Y165000D01*
G01X221600D02*
Y169000D01*
X219750Y166133D01*
X222250D01*
G01X223759Y166667D02*
X224109Y167133D01*
X224409Y167400D01*
X224809Y167533D01*
X225159Y167400D01*
X225409Y167133D01*
X225609Y166733D01*
X225659Y166267D01*
X225609Y165867D01*
X225409Y165467D01*
X225109Y165133D01*
X224759Y165000D01*
X224359Y165133D01*
X224009Y165533D01*
X223809Y166133D01*
X223759Y166800D01*
X223859Y167667D01*
X224009Y168133D01*
X224259Y168600D01*
X224609Y168933D01*
X224959Y169000D01*
X225309Y168867D01*
X225559Y168533D01*
G01X216250Y190862D02*
Y171138D01*
X225750D01*
Y190862D01*
X216250D01*
G01X222600Y199500D02*
Y203500D01*
X220750Y200633D01*
X223250D01*
G01X220900Y221600D02*
X221200Y221267D01*
X221550Y221067D01*
X222000Y221000D01*
X222450Y221133D01*
X222800Y221400D01*
X223050Y221867D01*
X223100Y222400D01*
X223000Y222933D01*
X222750Y223267D01*
X222400Y223533D01*
X222050Y223600D01*
X221700Y223533D01*
X221250Y223267D01*
X221400Y225000D01*
X222750D01*
G01X222046Y215000D02*
Y212133D01*
X222246Y211533D01*
X222646Y211133D01*
X223146Y211000D01*
X223646Y211133D01*
X224046Y211533D01*
X224246Y212133D01*
Y215000D01*
G01X225754Y211600D02*
X226054Y211267D01*
X226404Y211067D01*
X226854Y211000D01*
X227304Y211133D01*
X227654Y211400D01*
X227904Y211867D01*
X227954Y212400D01*
X227854Y212933D01*
X227604Y213267D01*
X227254Y213533D01*
X226904Y213600D01*
X226554Y213533D01*
X226104Y213267D01*
X226254Y215000D01*
X227604D01*
G01X221833Y228891D02*
X221633Y228591D01*
X221500Y228241D01*
Y227841D01*
X221700Y227391D01*
X222033Y227041D01*
X222433Y226791D01*
X223100Y226591D01*
X223700Y226541D01*
X224300Y226641D01*
X224700Y226791D01*
X225100Y227091D01*
X225367Y227441D01*
X225500Y227791D01*
Y228141D01*
X225367Y228491D01*
X225167Y228791D01*
X224900Y229041D01*
G01X225500Y231400D02*
X224633Y231500D01*
X223900Y231650D01*
X223233Y231850D01*
X222500Y232100D01*
X221500Y232500D01*
Y230500D01*
G01X225500Y235809D02*
X221500D01*
X224367Y233959D01*
Y236459D01*
G01X227500Y260937D02*
X231500D01*
G01X227500Y259787D02*
Y262087D01*
G01X231500Y263646D02*
X227500D01*
Y264846D01*
X227700Y265246D01*
X228167Y265546D01*
X228700Y265646D01*
X229233Y265546D01*
X229633Y265296D01*
X229833Y264846D01*
Y263646D01*
G01X228167Y267404D02*
X227767Y267704D01*
X227567Y268054D01*
X227500Y268454D01*
X227633Y268954D01*
X227967Y269304D01*
X228367Y269404D01*
X228767Y269354D01*
X229100Y269154D01*
X229767Y268154D01*
X230233Y267704D01*
X230900Y267404D01*
X231500Y267304D01*
Y269404D01*
G01X227500Y272063D02*
X227633Y271663D01*
X227967Y271363D01*
X228367Y271163D01*
X228900Y271013D01*
X229500Y270963D01*
X230100Y271013D01*
X230633Y271163D01*
X231033Y271363D01*
X231367Y271663D01*
X231500Y272063D01*
X231367Y272463D01*
X231033Y272763D01*
X230633Y272963D01*
X230100Y273113D01*
X229500Y273163D01*
X228900Y273113D01*
X228367Y272963D01*
X227967Y272763D01*
X227633Y272463D01*
X227500Y272063D01*
G01X224746Y279167D02*
X224446Y279367D01*
X224096Y279500D01*
X223696D01*
X223246Y279300D01*
X222896Y278967D01*
X222646Y278567D01*
X222446Y277900D01*
X222396Y277300D01*
X222496Y276700D01*
X222646Y276300D01*
X222946Y275900D01*
X223296Y275633D01*
X223646Y275500D01*
X223996D01*
X224346Y275633D01*
X224646Y275833D01*
X224896Y276100D01*
G01X226254Y276300D02*
X226554Y275833D01*
X226954Y275567D01*
X227404Y275500D01*
X227804Y275567D01*
X228204Y275900D01*
X228454Y276300D01*
X228504Y276700D01*
X228404Y277167D01*
X228054Y277500D01*
X227704Y277633D01*
X227254D01*
G01X227704D02*
X228004Y277833D01*
X228254Y278167D01*
X228354Y278567D01*
X228254Y278967D01*
X228004Y279300D01*
X227554Y279500D01*
X227104Y279433D01*
X226654Y279167D01*
G01X222333Y264746D02*
X222133Y264446D01*
X222000Y264096D01*
Y263696D01*
X222200Y263246D01*
X222533Y262896D01*
X222933Y262646D01*
X223600Y262446D01*
X224200Y262396D01*
X224800Y262496D01*
X225200Y262646D01*
X225600Y262946D01*
X225867Y263296D01*
X226000Y263646D01*
Y263996D01*
X225867Y264346D01*
X225667Y264646D01*
X225400Y264896D01*
G01X224333Y266404D02*
X223867Y266754D01*
X223600Y267054D01*
X223467Y267454D01*
X223600Y267804D01*
X223867Y268054D01*
X224267Y268254D01*
X224733Y268304D01*
X225133Y268254D01*
X225533Y268054D01*
X225867Y267754D01*
X226000Y267404D01*
X225867Y267004D01*
X225467Y266654D01*
X224867Y266454D01*
X224200Y266404D01*
X223333Y266504D01*
X222867Y266654D01*
X222400Y266904D01*
X222067Y267254D01*
X222000Y267604D01*
X222133Y267954D01*
X222467Y268204D01*
G54D15*
G01X46021Y27996D02*
X45996Y16154D01*
G01D02*
X107996D01*
G01Y27996D02*
X45996D01*
G01X91258Y314667D02*
Y319588D01*
G01Y335336D02*
Y330297D01*
G01X107996Y16154D02*
Y27996D01*
G01X126455Y314667D02*
Y319588D01*
G01Y330297D02*
Y335336D01*
G01X155002Y314667D02*
Y319588D01*
G01Y335336D02*
Y330297D01*
G01X219646Y204701D02*
X200354D01*
G01Y217299D02*
X219646D01*
G01X200354Y204701D02*
Y217299D01*
G01X190198Y314667D02*
Y319588D01*
G01Y330297D02*
Y335336D01*
G01X219646Y217299D02*
Y204701D01*
M02*
