G04 ================== begin FILE IDENTIFICATION RECORD ==================*
G04 Layout Name:  E:/nn/GERBER/BOARD/SENTINEL_FALL_V01.brd*
G04 Film Name:    SMB*
G04 File Format:  Gerber RS274X*
G04 File Origin:  Cadence Allegro 17.2-S083*
G04 Origin Date:  Tue Apr 08 22:19:01 2025*
G04 *
G04 Layer:  BOARD GEOMETRY/SMB*
G04 Layer:  BOARD GEOMETRY/BOARD_ NAME*
G04 Layer:  VIA CLASS/SOLDERMASK_BOTTOM*
G04 Layer:  PIN/SOLDERMASK_BOTTOM*
G04 Layer:  PACKAGE GEOMETRY/SOLDERMASK_BOTTOM*
G04 Layer:  BOARD GEOMETRY/OUTLINE*
G04 Layer:  BOARD GEOMETRY/SOLDERMASK_BOTTOM*
G04 *
G04 Offset:    (0.000 0.000)*
G04 Mirror:    No*
G04 Mode:      Positive*
G04 Rotation:  0*
G04 FullContactRelief:  No*
G04 UndefLineWidth:     7.000*
G04 ================== end FILE IDENTIFICATION RECORD ====================*
%FSLAX55Y55*MOIN*%
%IR0*IPPOS*OFA0.00000B0.00000*MIA0B0*SFA1.00000B1.00000*%
%ADD37C,.115*%
%ADD32R,.1X.1*%
%ADD22C,.135*%
%ADD36R,.115X.115*%
%ADD10C,.257091*%
%AMMACRO17*
4,1,40,-.030512,.03824,
-.030512,-.03824,
-.030393,-.039567,
-.030046,-.040853,
-.02948,-.042059,
-.028714,-.043148,
-.02777,-.044088,
-.026678,-.04485,
-.025469,-.045411,
-.024182,-.045753,
-.022886,-.045866,
.022886,-.045866,
.024213,-.045747,
.025499,-.0454,
.026705,-.044834,
.027794,-.044068,
.028734,-.043124,
.029496,-.042032,
.030057,-.040823,
.030399,-.039536,
.030512,-.03824,
.030512,.03824,
.030393,.039567,
.030046,.040853,
.02948,.042059,
.028714,.043148,
.02777,.044088,
.026678,.04485,
.025469,.045411,
.024182,.045753,
.022886,.045866,
-.022886,.045866,
-.024213,.045747,
-.025499,.0454,
-.026705,.044834,
-.027794,.044068,
-.028734,.043124,
-.029496,.042032,
-.030057,.040823,
-.030399,.039536,
-.030512,.03824,
0.0*
%
%ADD17MACRO17*%
%ADD33R,.14X.1*%
%ADD31O,.015X.038*%
%ADD30O,.039X.015*%
%ADD21R,.052X.028*%
%ADD29C,.05*%
%ADD12C,.07*%
%ADD19R,.056X.064*%
%ADD14C,.08*%
%ADD34C,.074*%
%ADD18C,.065*%
%ADD20R,.076X.068*%
%ADD27R,.052X.052*%
%ADD15R,.068X.076*%
%ADD11R,.07X.07*%
%ADD28R,.044X.044*%
%ADD35R,.074X.074*%
%ADD13R,.065X.065*%
%ADD16C,.063307*%
%ADD26C,.04488*%
%ADD24O,.047244X.090551*%
%ADD23C,.025594*%
%ADD25O,.047244X.07874*%
%ADD38C,.007087*%
%ADD39C,.007*%
G75*
%LPD*%
G75*
G54D10*
X16000Y16000D03*
Y319275D03*
X220213Y16000D03*
Y319275D03*
G54D11*
X14400Y55300D03*
X51996Y22075D03*
G54D20*
X79700Y174212D03*
Y163188D03*
X103300Y206788D03*
Y217812D03*
X101967Y281288D03*
Y292312D03*
X123800Y40088D03*
X113500Y51112D03*
Y62135D03*
X123800Y51112D03*
X131800Y206788D03*
Y217812D03*
X112800D03*
Y206788D03*
X122300Y217812D03*
Y206788D03*
X129200Y270912D03*
Y259888D03*
X113778Y281288D03*
Y292312D03*
X150800Y217812D03*
Y206788D03*
X141347D03*
Y217812D03*
X138700Y259888D03*
Y270912D03*
X148200D03*
Y259888D03*
X157800Y270912D03*
Y259888D03*
X165710Y281288D03*
Y292312D03*
X177521Y281288D03*
Y292312D03*
X193000Y222488D03*
X204200Y213012D03*
Y201988D03*
X193000Y233512D03*
G54D12*
X14400Y65300D03*
Y75300D03*
Y85300D03*
Y95300D03*
Y105300D03*
X61996Y22075D03*
X71996D03*
X81996D03*
X91996D03*
X101996D03*
G54D21*
X67295Y166665D03*
X58949Y170406D03*
X67295Y174146D03*
G54D30*
X139582Y234179D03*
X154818Y244021D03*
Y242053D03*
Y240084D03*
Y238116D03*
Y236147D03*
Y234179D03*
X139582Y236147D03*
Y238116D03*
Y240084D03*
Y242053D03*
Y244021D03*
G54D13*
X20016Y284476D03*
X80921Y198374D03*
G54D31*
X148184Y246718D03*
X150153D03*
X152121D03*
Y231482D03*
X150153D03*
X148184D03*
X146216D03*
X144247D03*
X142279D03*
Y246718D03*
X144247D03*
X146216D03*
G54D22*
X88416Y44946D03*
Y115812D03*
G54D23*
X97479Y310612D03*
X120235D03*
X161222D03*
X183978D03*
G54D14*
X38500Y10000D03*
Y321500D03*
X198500Y10000D03*
G54D32*
X147200Y239100D03*
G54D24*
X91849Y308643D03*
X125865D03*
X155592D03*
X189608D03*
G54D15*
X35088Y137200D03*
X46112D03*
X72788Y147100D03*
Y137200D03*
X83812Y147100D03*
Y137200D03*
X112288Y250700D03*
X123312D03*
X112288Y241200D03*
X123312D03*
Y231600D03*
X112288D03*
G54D33*
X171100Y198600D03*
Y221600D03*
G54D25*
X91849Y325100D03*
X125865D03*
X155592D03*
X189608D03*
G54D16*
X33200Y149305D03*
Y174895D03*
G54D34*
X204242Y60099D03*
Y50099D03*
X194242D03*
Y60099D03*
X204242Y70099D03*
X194242D03*
Y80099D03*
G54D26*
X119701Y18374D03*
G54D35*
X204242Y80099D03*
G54D17*
X46000Y153694D03*
Y170506D03*
G54D27*
X128800Y173200D03*
G54D18*
X30410Y198374D03*
X40646D03*
X50646D03*
X50488Y284476D03*
X40252D03*
X30252D03*
X60724Y198374D03*
X70685D03*
X70803Y284476D03*
X60567D03*
G54D36*
X190500Y251000D03*
G54D28*
X153290Y38513D03*
X135967D03*
X153290Y51112D03*
X135967D03*
X150928Y65439D03*
X138329D03*
Y82761D03*
X150928D03*
X179399Y36039D03*
X166801D03*
Y53361D03*
X179399D03*
X164439Y67801D03*
X181761D03*
X164439Y80399D03*
X181761D03*
G54D19*
X63440Y137200D03*
X55960D03*
X174840Y242100D03*
X167360D03*
X174840Y233800D03*
X167360D03*
X174840Y250521D03*
X167360D03*
G54D37*
X190500Y269504D03*
Y288008D03*
X228020Y243500D03*
Y295508D03*
G54D38*
G01X1250Y347464D02*
X1650Y347131D01*
X2100Y346931D01*
X2500D01*
X2900Y347131D01*
X3200Y347464D01*
X3350Y347931D01*
X3250Y348398D01*
X3000Y348798D01*
X2550Y349064D01*
X1950Y349198D01*
X1600Y349464D01*
X1450Y349931D01*
X1550Y350398D01*
X1800Y350731D01*
X2150Y350931D01*
X2500D01*
X2850Y350798D01*
X3150Y350464D01*
G01X6009Y346931D02*
X5609Y346998D01*
X5259Y347264D01*
X4959Y347664D01*
X4759Y348131D01*
X4659Y348664D01*
Y349198D01*
X4759Y349731D01*
X4959Y350198D01*
X5259Y350598D01*
X5609Y350864D01*
X6009Y350931D01*
X6409Y350864D01*
X6759Y350598D01*
X7059Y350198D01*
X7259Y349731D01*
X7359Y349198D01*
Y348664D01*
X7259Y348131D01*
X7059Y347664D01*
X6759Y347264D01*
X6409Y346998D01*
X6009Y346931D01*
G01X8717Y350931D02*
Y346931D01*
X10717D01*
G01X12326D02*
Y350931D01*
X13326D01*
X13726Y350731D01*
X14026Y350464D01*
X14276Y350064D01*
X14476Y349598D01*
X14526Y348931D01*
X14476Y348264D01*
X14276Y347798D01*
X14026Y347398D01*
X13726Y347131D01*
X13326Y346931D01*
X12326D01*
G01X18135D02*
X16135D01*
Y350931D01*
X18135D01*
G01X17335Y348998D02*
X16135D01*
G01X19844Y346931D02*
Y350931D01*
X21094D01*
X21494Y350731D01*
X21744Y350464D01*
X21844Y349931D01*
X21744Y349398D01*
X21444Y349064D01*
X21094Y348864D01*
X19844D01*
G01X21094D02*
X21844Y346931D01*
G01X23052Y345598D02*
X26052D01*
G01X26961Y346931D02*
Y350931D01*
X28261Y347598D01*
X29561Y350931D01*
Y346931D01*
G01X30720D02*
X31970Y350931D01*
X33220Y346931D01*
G01X32770Y348331D02*
X31170D01*
G01X34628Y347464D02*
X35028Y347131D01*
X35478Y346931D01*
X35878D01*
X36278Y347131D01*
X36578Y347464D01*
X36728Y347931D01*
X36628Y348398D01*
X36378Y348798D01*
X35928Y349064D01*
X35328Y349198D01*
X34978Y349464D01*
X34828Y349931D01*
X34928Y350398D01*
X35178Y350731D01*
X35528Y350931D01*
X35878D01*
X36228Y350798D01*
X36528Y350464D01*
G01X38287Y346931D02*
Y350931D01*
G01X40187D02*
X38287Y348464D01*
G01X40487Y346931D02*
X39137Y349598D01*
G01X41596Y345598D02*
X44596D01*
G01X47204Y349064D02*
X47404Y349264D01*
X47554Y349598D01*
X47654Y350064D01*
X47554Y350464D01*
X47354Y350731D01*
X47004Y350931D01*
X45654D01*
Y346931D01*
X47304D01*
X47654Y347198D01*
X47854Y347598D01*
X47954Y348064D01*
X47854Y348531D01*
X47554Y348931D01*
X47204Y349064D01*
X45654D01*
G01X50513Y346931D02*
X50113Y346998D01*
X49763Y347264D01*
X49463Y347664D01*
X49263Y348131D01*
X49163Y348664D01*
Y349198D01*
X49263Y349731D01*
X49463Y350198D01*
X49763Y350598D01*
X50113Y350864D01*
X50513Y350931D01*
X50913Y350864D01*
X51263Y350598D01*
X51563Y350198D01*
X51763Y349731D01*
X51863Y349198D01*
Y348664D01*
X51763Y348131D01*
X51563Y347664D01*
X51263Y347264D01*
X50913Y346998D01*
X50513Y346931D01*
G01X54222Y350931D02*
Y346931D01*
G01X53072Y350931D02*
X55372D01*
G01X57930D02*
Y346931D01*
G01X56780Y350931D02*
X59080D01*
G01X61639Y346931D02*
X61239Y346998D01*
X60889Y347264D01*
X60589Y347664D01*
X60389Y348131D01*
X60289Y348664D01*
Y349198D01*
X60389Y349731D01*
X60589Y350198D01*
X60889Y350598D01*
X61239Y350864D01*
X61639Y350931D01*
X62039Y350864D01*
X62389Y350598D01*
X62689Y350198D01*
X62889Y349731D01*
X62989Y349198D01*
Y348664D01*
X62889Y348131D01*
X62689Y347664D01*
X62389Y347264D01*
X62039Y346998D01*
X61639Y346931D01*
G01X64048D02*
Y350931D01*
X65348Y347598D01*
X66648Y350931D01*
Y346931D01*
G54D29*
X148800Y173200D03*
X138800Y183200D03*
G54D39*
G01X0Y0D02*
X236213D01*
Y335275D01*
X0D01*
Y0D01*
M02*
