G04 ================== begin FILE IDENTIFICATION RECORD ==================*
G04 Layout Name:  E:/nn/GERBER/BOARD/SENTINEL_FALL_V01.brd*
G04 Film Name:    GND*
G04 File Format:  Gerber RS274X*
G04 File Origin:  Cadence Allegro 17.2-S083*
G04 Origin Date:  Tue Apr 08 22:19:01 2025*
G04 *
G04 Layer:  BOARD GEOMETRY/GND*
G04 Layer:  VIA CLASS/GND*
G04 Layer:  PIN/GND*
G04 Layer:  ETCH/GND*
G04 Layer:  BOARD GEOMETRY/DESIGN_OUTLINE*
G04 Layer:  BOARD GEOMETRY/OUTLINE*
G04 *
G04 Offset:    (0.000 0.000)*
G04 Mirror:    No*
G04 Mode:      Positive*
G04 Rotation:  0*
G04 FullContactRelief:  No*
G04 UndefLineWidth:     7.000*
G04 ================== end FILE IDENTIFICATION RECORD ====================*
%FSLAX55Y55*MOIN*%
%IR0*IPPOS*OFA0.00000B0.00000*MIA0B0*SFA1.00000B1.00000*%
%ADD22C,.109252*%
%ADD16C,.129921*%
%ADD10C,.275591*%
%ADD13C,.06*%
%ADD11C,.024*%
%ADD15C,.055433*%
%ADD12C,.065551*%
%ADD17C,.025594*%
%ADD14C,.064961*%
%ADD21C,.069094*%
%ADD20C,.046929*%
%ADD19O,.03937X.070866*%
%ADD18O,.03937X.082677*%
%ADD23C,.007091*%
%ADD24C,.007*%
%ADD34C,.133256*%
%ADD33C,.153926*%
%ADD30C,.084004*%
%ADD25C,.048004*%
%ADD32C,.070934*%
%ADD27C,.093098*%
%ADD29C,.079438*%
%ADD28C,.089556*%
%ADD31C,.049598*%
%ADD26C,.088966*%
G75*
%LPD*%
G75*
G36*
G01X51000Y71621D02*
Y55879D01*
X53379Y53500D01*
X62621D01*
X67000Y57879D01*
Y73652D01*
G03Y78348I-500J2348D01*
G01Y81652D01*
G03Y86348I-500J2348D01*
G01Y89152D01*
G03X68900Y91500I-500J2348D01*
G03X68663Y92541I-2400J0D01*
G01X69121Y93000D01*
X78379D01*
X85379Y86000D01*
X206379D01*
X212379Y80000D01*
X225121D01*
X229530Y84409D01*
G02X230213Y84126I283J-283D01*
G01Y6000D01*
X6000D01*
Y329275D01*
X230213D01*
Y226374D01*
G02X229530Y226091I-400J0D01*
G01X219121Y236500D01*
X197879D01*
X196842Y235463D01*
G02X196500Y235605I-141J141D01*
G01Y235879D01*
X200406Y239784D01*
G03X201739Y241118I-894J2227D01*
G01X208000Y247379D01*
Y266648D01*
X208146Y266688D01*
G03Y271312I-646J2311D01*
G01X208000Y271352D01*
Y311621D01*
X197121Y322500D01*
X188621D01*
X182621Y328500D01*
X161879D01*
X156379Y323000D01*
X138379D01*
X132000Y316621D01*
Y298621D01*
X126879Y293500D01*
X84879D01*
X77000Y285621D01*
Y266682D01*
G03Y262318I1000J-2182D01*
G01Y243879D01*
X78879Y242000D01*
X91621D01*
X94000Y244379D01*
Y273379D01*
X98121Y277500D01*
X130121D01*
X147500Y294879D01*
Y307879D01*
X151621Y312000D01*
X158517D01*
G02X158893Y311463I0J-400D01*
G03X158742Y310612I2329J-851D01*
G03X163702Y310612I2480J0D01*
G03X162784Y312538I-2480J0D01*
G02X162753Y313132I252J311D01*
G01X165121Y315500D01*
X167772D01*
G02X168162Y315009I0J-400D01*
G03X168100Y314467I2338J-542D01*
G03X170500Y312067I2400J0D01*
G03X172300Y312880I0J2400D01*
G02X172900I300J-265D01*
G03X174700Y312067I1800J1588D01*
G03X177100Y314467I0J2400D01*
G03X177038Y315009I-2400J0D01*
G02X177428Y315500I390J90D01*
G01X177879D01*
X180379Y313000D01*
X181894D01*
G02X182184Y312324I0J-400D01*
G03X181498Y310612I1794J-1712D01*
G03X186458Y310612I2480J0D01*
G03X185772Y312324I-2480J0D01*
G02X186062Y313000I289J276D01*
G01X191379D01*
X195500Y308879D01*
Y293367D01*
G02X194839Y293064I-400J0D01*
G03X191180Y294636I-4339J-5056D01*
G01X191000Y294654D01*
Y298621D01*
X189121Y300500D01*
X180235D01*
G02X179844Y300986I0J400D01*
G03X179900Y301500I-2345J514D01*
G03X175100I-2400J0D01*
G03X175156Y300986I2400J0D01*
G02X174765Y300500I-391J-86D01*
G01X173879D01*
X173106Y299728D01*
X173070Y299713D01*
G03X172385Y299275I930J-2213D01*
G02X172115I-135J148D01*
G03X170500Y299900I-1615J-1775D01*
G03X168574Y298933I0J-2400D01*
G02X167890Y299004I-321J239D01*
G03X165710Y300400I-2180J-1004D01*
G03Y295600I0J-2400D01*
G03X167636Y296567I0J2400D01*
G02X168320Y296496I321J-239D01*
G03X168724Y295885I2180J1004D01*
G02X168711Y295333I-296J-269D01*
G01X159178Y285800D01*
G03X156800Y283422I22J-2400D01*
G01X153038Y279660D01*
G03X152601Y279700I-438J-2360D01*
G01X152600D01*
G03X150200Y277300I0J-2400D01*
G01Y277299D01*
G03X150240Y276862I2400J0D01*
G01X130500Y257121D01*
Y255933D01*
G03Y251667I1100J-2133D01*
G01Y246182D01*
G03Y241818I1000J-2182D01*
G01Y228621D01*
X125287Y223408D01*
G02X124617Y223587I-283J283D01*
G03X122300Y225362I-2317J-625D01*
G03X119900Y222962I0J-2400D01*
G03X120676Y221195I2400J0D01*
G02X120405Y220500I-271J-295D01*
G01X118697D01*
G02X118469Y221229I0J400D01*
G03X119500Y223200I-1369J1971D01*
G03X114700I-2400J0D01*
G03X115731Y221229I2400J0D01*
G02X115503Y220500I-228J-329D01*
G01X114379D01*
X107500Y213621D01*
Y197879D01*
X111195Y194183D01*
G02X110912Y193500I-283J-283D01*
G01X109121D01*
X93951Y208670D01*
G03X93988Y209087I-2364J417D01*
G03X91587Y211488I-2400J0D01*
G03X91171Y211451I0J-2400D01*
G01X71500Y231121D01*
Y262621D01*
X69621Y264500D01*
X54379D01*
X51500Y261621D01*
Y202952D01*
G02X51060Y202554I-400J0D01*
G03X50646Y202574I-414J-4180D01*
G03X50646Y194174I0J-4200D01*
G03X51060Y194194I0J4200D01*
G02X51500Y193796I40J-398D01*
G01Y190879D01*
X63879Y178500D01*
X120912D01*
G02X121195Y177817I0J-400D01*
G01X121000Y177621D01*
Y169379D01*
X127879Y162500D01*
X152379D01*
X159500Y155379D01*
Y141779D01*
X159374Y141728D01*
G03Y137272I892J-2228D01*
G01X159500Y137221D01*
Y136682D01*
G03X158100Y134500I1000J-2182D01*
G03X158293Y133557I2400J0D01*
G02X157925Y133000I-368J-157D01*
G01X151623D01*
G02X151296Y133632I0J400D01*
G03X151740Y135021I-1957J1389D01*
G03X146939I-2400J0D01*
G03X147382Y133632I2400J0D01*
G02X147056Y133000I-326J-232D01*
G01X103682D01*
G03X99318I-2182J-1000D01*
G01X98042D01*
G03X93958I-2042J-1261D01*
G01X85386D01*
G03X82238I-1574J-1812D01*
G01X54879D01*
X38000Y116121D01*
Y97379D01*
X43500Y91879D01*
Y83500D01*
X36879D01*
X32500Y79121D01*
Y70379D01*
X34379Y68500D01*
X39621D01*
X47121Y76000D01*
X48600D01*
G03X51000Y73600I2400J0D01*
G03X51277Y73616I0J2400D01*
G02X51500Y73417I23J-199D01*
G01Y72121D01*
X51000Y71621D01*
G37*
G36*
G01X198500Y235000D02*
X218500D01*
X229500Y224000D01*
Y134352D01*
G02X228800Y134088I-400J0D01*
G03X227000Y134900I-1800J-1588D01*
G03Y130100I0J-2400D01*
G03X228800Y130912I0J2400D01*
G02X229500Y130648I300J-265D01*
G01Y102352D01*
G02X228800Y102088I-400J0D01*
G03X227000Y102900I-1800J-1588D01*
G03Y98100I0J-2400D01*
G03X228800Y98912I0J2400D01*
G02X229500Y98648I300J-265D01*
G01Y86500D01*
X224500Y81500D01*
X213000D01*
X207000Y87500D01*
X174098D01*
G02X173770Y88129I0J400D01*
G03X174200Y89500I-1970J1371D01*
G03X169400I-2400J0D01*
G03X169830Y88129I2400J0D01*
G02X169502Y87500I-328J-229D01*
G01X119362D01*
G03X117038I-1162J-2100D01*
G01X112362D01*
G03X110038I-1162J-2100D01*
G01X86000D01*
X79000Y94500D01*
X68500D01*
X67625Y93625D01*
X67498Y93683D01*
G03X66500Y93900I-998J-2183D01*
G03X64100Y91500I0J-2400D01*
G03X65500Y89318I2400J0D01*
G01Y86182D01*
G03Y81818I1000J-2182D01*
G01Y78182D01*
G03Y73818I1000J-2182D01*
G01Y58500D01*
X62000Y55000D01*
X54000D01*
X52500Y56500D01*
Y71000D01*
X53000Y71500D01*
Y74673D01*
G03X53400Y76000I-2000J1327D01*
G03X51000Y78400I-2400J0D01*
G03X49126Y77500I0J-2400D01*
G01X46500D01*
X39000Y70000D01*
X35000D01*
X34000Y71000D01*
Y78500D01*
X37500Y82000D01*
X45000D01*
Y92500D01*
X39500Y98000D01*
Y115500D01*
X55500Y131500D01*
X81013D01*
G02X81413Y131113I0J-400D01*
G03X86211I2399J76D01*
G02X86611Y131500I400J-13D01*
G01X93606D01*
X93634Y131334D01*
G03X98366I2366J406D01*
G01X98394Y131500D01*
X99148D01*
X99188Y131354D01*
G03X103812I2312J646D01*
G01X103852Y131500D01*
X115747D01*
G02X116141Y131027I0J-400D01*
G03X116100Y130586I2359J-441D01*
G03X120900I2400J0D01*
G03X120859Y131027I-2400J0D01*
G02X121253Y131500I393J73D01*
G01X159000D01*
X159725Y132225D01*
X159838Y132193D01*
G03X160500Y132100I662J2307D01*
G03X162900Y134500I0J2400D01*
G03X161146Y136812I-2400J0D01*
G01X161000Y136852D01*
Y137211D01*
X161128Y137260D01*
G03Y141740I-862J2240D01*
G01X161000Y141789D01*
Y147648D01*
G02X161700Y147912I400J0D01*
G03X163500Y147100I1800J1588D01*
G03Y151900I0J2400D01*
G03X161700Y151088I0J-2400D01*
G02X161000Y151352I-300J265D01*
G01Y156000D01*
X153000Y164000D01*
X128500D01*
X122500Y170000D01*
Y177000D01*
X124000Y178500D01*
X151121D01*
X157122Y184500D01*
X159000D01*
X162101Y187601D01*
X162175Y187606D01*
G03X164394Y189825I-175J2394D01*
G01X164399Y189899D01*
X166000Y191500D01*
X198500D01*
X199500Y192500D01*
Y210318D01*
G03X200900Y212500I-1000J2182D01*
G03X199929Y214429I-2400J0D01*
G02Y215071I238J321D01*
G03X200900Y217000I-1429J1929D01*
G03X198500Y219400I-2400J0D01*
G03X197557Y219207I0J-2400D01*
G02X197000Y219575I-157J368D01*
G01Y233500D01*
X198500Y235000D01*
G37*
G36*
G01X55000Y263000D02*
X69000D01*
X70000Y262000D01*
Y241064D01*
G02X69344Y240756I-400J0D01*
G03X67810Y241310I-1534J-1846D01*
G03Y236510I0J-2400D01*
G03X69344Y237064I0J2400D01*
G02X70000Y236757I256J-308D01*
G01Y230500D01*
X80964Y219536D01*
G02X80898Y218917I-283J-283D01*
G03X79800Y216900I1302J-2017D01*
G03X82200Y214500I2400J0D01*
G03X84217Y215599I0J2400D01*
G02X84836Y215664I336J-217D01*
G01X89800Y210700D01*
X89692Y210560D01*
G03X89187Y209087I1895J-1473D01*
G03X91587Y206687I2400J0D01*
G03X93060Y207192I0J2400D01*
G01X93200Y207301D01*
X100078Y200422D01*
X100092Y200371D01*
G03X101772Y198691I2315J635D01*
G01X101823Y198677D01*
X108500Y192000D01*
X141000D01*
X148819Y199819D01*
G02X149458Y199716I283J-283D01*
G03X151600Y198400I2142J1084D01*
G03X154000Y200800I0J2400D01*
G03X152684Y202942I-2400J0D01*
G02X152581Y203581I181J357D01*
G01X155000Y206000D01*
Y226028D01*
X155154Y226065D01*
G03Y230735I-554J2335D01*
G01X155000Y230772D01*
Y246500D01*
X156500Y248000D01*
X159000D01*
X161500Y250500D01*
X163000D01*
X164500Y249000D01*
Y241488D01*
G02X163916Y241133I-400J0D01*
G03X162815Y241400I-1101J-2133D01*
G03X160415Y239000I0J-2400D01*
G03X161922Y236772I2400J0D01*
G02X161921Y236030I-149J-371D01*
G03X160410Y233800I889J-2230D01*
G03X162810Y231400I2400J0D01*
G03X163916Y231670I0J2400D01*
G02X164500Y231315I184J-355D01*
G01Y230374D01*
G03Y226626I1500J-1874D01*
G01Y194000D01*
X162775Y192275D01*
X162662Y192307D01*
G03X162000Y192400I-662J-2307D01*
G03X159600Y190000I0J-2400D01*
G03X159693Y189338I2400J0D01*
G01X159725Y189225D01*
X150500Y180000D01*
X141581D01*
G02X141300Y180684I0J400D01*
G03X142347Y183200I-2499J2516D01*
G03X135253I-3547J0D01*
G03X136301Y180684I3547J0D01*
G02X136019Y180000I-282J-284D01*
G01X64500D01*
X53000Y191500D01*
Y194896D01*
G03Y201852I-2354J3478D01*
G01Y206137D01*
G03Y209039I-1912J1451D01*
G01Y261000D01*
X55000Y263000D01*
G37*
G36*
G01X158000Y264500D02*
X170416D01*
G02X170814Y264057I0J-400D01*
G03X170800Y263800I2386J-257D01*
G03X175600Y263800I2400J0D01*
G03X175586Y264057I-2400J0D01*
G02X175984Y264500I398J43D01*
G01X186101D01*
G03X190500Y262841I4399J5004D01*
G03X196391Y266391I0J6663D01*
G01X197000Y267000D01*
Y268040D01*
X197005Y268062D01*
G03X197163Y269504I-6505J1443D01*
G03X197005Y270946I-6663J0D01*
G01X197000Y270968D01*
Y286544D01*
X197005Y286566D01*
G03X197163Y288008I-6505J1443D01*
G03X197005Y289450I-6663J0D01*
G01X197000Y289472D01*
Y309500D01*
X192000Y314500D01*
X181000D01*
X178500Y317000D01*
X164500D01*
X161000Y313500D01*
X157265D01*
G03X153920I-1672J-2691D01*
G01X151000D01*
X146000Y308500D01*
Y295500D01*
X129795Y279295D01*
X129750Y279280D01*
G03X129173Y279000I750J-2280D01*
G01X97500D01*
X92500Y274000D01*
Y253760D01*
G03X92300Y252800I2200J-960D01*
G03X92500Y251840I2400J0D01*
G01Y245000D01*
X91000Y243500D01*
X79500D01*
X78500Y244500D01*
Y262152D01*
G03Y266848I-500J2348D01*
G01Y285000D01*
X85500Y292000D01*
X127500D01*
X133500Y298000D01*
Y316000D01*
X139000Y321500D01*
X153155D01*
G03X155592Y320356I2437J2025D01*
G03X158749Y323249I0J3169D01*
G01X162500Y327000D01*
X182000D01*
X186675Y322325D01*
X186690Y322289D01*
G03X189608Y320356I2918J1236D01*
G03X191522Y321000I0J3169D01*
G01X196500D01*
X206500Y311000D01*
Y271182D01*
G03Y266818I1000J-2182D01*
G01Y248000D01*
X201980Y243480D01*
G02X201385Y243513I-283J283D01*
G03X199512Y244412I-1873J-1501D01*
G03X197112Y242012I0J-2400D01*
G03X198011Y240139I2400J0D01*
G02X198044Y239544I-250J-312D01*
G01X195000Y236500D01*
Y217000D01*
X195500Y216500D01*
Y216379D01*
X196965Y214913D01*
G02X196942Y214326I-283J-283D01*
G03X196100Y212500I1558J-1826D01*
G03X197500Y210318I2400J0D01*
G01Y196500D01*
X195500Y194500D01*
X167500D01*
X167000Y195000D01*
Y226318D01*
G03Y230682I-1000J2182D01*
G01Y247500D01*
X166000Y248500D01*
Y249621D01*
X163621Y252000D01*
X160879D01*
X158379Y249500D01*
X155879D01*
X155378Y249000D01*
X154000D01*
X151500Y251500D01*
Y251916D01*
G02X151943Y252314I400J0D01*
G03X152200Y252300I257J2386D01*
G03X152200Y257100I0J2400D01*
G03X151943Y257086I0J-2400D01*
G02X151500Y257484I-43J398D01*
G01Y258000D01*
X158000Y264500D01*
G37*
G36*
G01X130088Y193500D02*
G02X129805Y194183I0J400D01*
G01X132500Y196879D01*
Y198652D01*
G03Y203348I-500J2348D01*
G01Y212879D01*
X150500Y230879D01*
Y249412D01*
G02X151183Y249695I400J0D01*
G01X153379Y247500D01*
X153395D01*
G02X153537Y247158I0J-200D01*
G01X153500Y247121D01*
Y230533D01*
G03Y226267I1100J-2133D01*
G01Y206621D01*
X140379Y193500D01*
X130088D01*
G37*
G36*
G01X174500Y299000D02*
X188500D01*
X189500Y298000D01*
Y294597D01*
X189335Y294568D01*
G03Y281448I1165J-6560D01*
G01X189500Y281418D01*
Y276093D01*
X189335Y276064D01*
G03X183837Y269504I1165J-6560D01*
G03X184140Y267519I6663J0D01*
G02X183758Y267000I-382J-119D01*
G01X156500D01*
X149000Y259500D01*
Y244294D01*
G03X148300Y242600I1700J-1694D01*
G03X148406Y241894I2400J0D01*
G02X147906Y241394I-382J-118D01*
G03X147200Y241500I-706J-2294D01*
G03X146364Y241350I0J-2400D01*
G02X145850Y241864I-139J375D01*
G03X146000Y242700I-2250J836D01*
G03X143600Y240300I-2400J0D01*
G03X144436Y240450I0J2400D01*
G02X144950Y239936I139J-375D01*
G03X144800Y239100I2250J-836D01*
G03X144950Y238264I2400J0D01*
G02X144436Y237750I-375J-139D01*
G03X143600Y237900I-836J-2250D01*
G03X146000Y235500I0J-2400D01*
G03X145850Y236336I-2400J0D01*
G02X146364Y236850I375J139D01*
G03X147200Y236700I836J2250D01*
G03X148400Y237021I0J2400D01*
G02X149000Y236675I200J-346D01*
G01Y231500D01*
X131000Y213500D01*
Y203182D01*
G03Y198818I1000J-2182D01*
G01Y197500D01*
X128500Y195000D01*
X112500D01*
X109000Y198500D01*
Y213000D01*
X115000Y219000D01*
X123000D01*
X132000Y228000D01*
Y241648D01*
X132146Y241688D01*
G03Y246312I-646J2312D01*
G01X132000Y246352D01*
Y251428D01*
X132154Y251465D01*
G03Y256135I-554J2335D01*
G01X132000Y256172D01*
Y256500D01*
X151006Y275506D01*
G03X152600Y274900I1594J1794D01*
G03X155000Y277300I0J2400D01*
G03X154394Y278894I-2400J0D01*
G01X157211Y281711D01*
G02X157495Y281711I141J-141D01*
G03X159200Y281000I1705J1689D01*
G03X161600Y283400I0J2400D01*
G03X160889Y285105I-2400J0D01*
G02X160889Y285389I141J142D01*
G01X170601Y295101D01*
X170675Y295106D01*
G03X172894Y297325I-175J2394D01*
G01X172899Y297399D01*
X174500Y299000D01*
G37*
%LPC*%
G75*
G36*
G01X132528Y10369D02*
G02X134500Y11400I1971J-1369D01*
G02Y6600I0J-2400D01*
G02X132528Y7631I0J2400D01*
G03X131872I-328J-228D01*
G02X129900Y6600I-1971J1369D01*
G02Y11400I0J2400D01*
G02X131872Y10369I0J-2400D01*
G03X132528I329J228D01*
G37*
G36*
G01X111600Y17500D02*
G02X116400I2400J0D01*
G02X115775Y15885I-2400J0D01*
G03Y15615I148J-135D01*
G02X116400Y14000I-1775J-1615D01*
G02X111600I-2400J0D01*
G02X112225Y15615I2400J0D01*
G03Y15885I-148J135D01*
G02X111600Y17500I1775J1615D01*
G37*
G36*
G01X17028Y38369D02*
G02X19000Y39400I1972J-1369D01*
G02Y34600I0J-2400D01*
G02X17028Y35631I0J2400D01*
G03X16372I-328J-228D01*
G02X14400Y34600I-1971J1369D01*
G02Y39400I0J2400D01*
G02X16372Y38369I0J-2400D01*
G03X17028I329J228D01*
G37*
G36*
G01X72410Y74180D02*
G02X74500Y75400I2090J-1180D01*
G02Y70600I0J-2400D01*
G02X72992Y71133I0J2400D01*
G03X72392Y71019I-251J-311D01*
G02X70302Y69798I-2090J1180D01*
G02Y74599I0J2400D01*
G02X71810Y74065I0J-2400D01*
G03X72410Y74180I251J311D01*
G37*
G36*
G01X113400Y154500D02*
G02X113394Y154322I-2400J0D01*
G03X113822Y153894I399J-30D01*
G02X114000Y153900I178J-2394D01*
G02X111600Y151500I0J-2400D01*
G02X111606Y151678I2400J0D01*
G03X111178Y152106I-399J30D01*
G02X111000Y152100I-178J2394D01*
G02X113400Y154500I0J2400D01*
G37*
G36*
G01X139727Y158400D02*
G02X139727Y153600I0J-2400D01*
G02X137927Y154412I0J2400D01*
G03X137327I-300J-265D01*
G02X135527Y153600I-1800J1588D01*
G02X135527Y158400I0J2400D01*
G02X137327Y157588I0J-2400D01*
G03X137927I300J265D01*
G02X139727Y158400I1800J-1588D01*
G37*
G36*
G01X117600Y157000D02*
G02X122400I2400J0D01*
G02X122393Y156816I-2400J0D01*
G03X122750Y156387I399J-31D01*
G02X124900Y154000I-250J-2387D01*
G02X120100I-2400J0D01*
G02X120107Y154184I2400J0D01*
G03X119750Y154613I-399J31D01*
G02X117600Y157000I250J2387D01*
G37*
G36*
G01X155725Y298340D02*
G02X155725Y293539I0J-2400D01*
G02X153925Y294352I0J2400D01*
G03X153325I-300J-265D01*
G02X151525Y293539I-1800J1588D01*
G02X151525Y298340I0J2400D01*
G02X153325Y297527I0J-2400D01*
G03X153925I300J265D01*
G02X155725Y298340I1800J-1588D01*
G37*
G36*
G01X113778Y298700D02*
G02X113760Y298700I4J2400D01*
G03X113357Y298299I-3J-400D01*
G01Y298292D01*
G02X110957Y295892I-2400J0D01*
G02X109157Y296704I0J2400D01*
G03X108557I-300J-265D01*
G02X106757Y295892I-1800J1588D01*
G02X106757Y300692I0J2400D01*
G02X108557Y299880I0J-2400D01*
G03X109157I300J265D01*
G02X110957Y300692I1800J-1588D01*
G02X110975Y300692I-4J-2400D01*
G03X111378Y301093I3J400D01*
G01Y301100D01*
G02X113778Y298700I2400J0D01*
G37*
G36*
G01X192024Y126193D02*
G03X192216Y126743I-163J365D01*
G02X191947Y127846I2132J1103D01*
G02X196748I2400J0D01*
G02X195323Y125653I-2400J0D01*
G03X195131Y125104I163J-365D01*
G02X195400Y124001I-2132J-1103D01*
G02X190599I-2400J0D01*
G02X192024Y126193I2400J0D01*
G37*
G36*
G01X169644Y142288D02*
G03X169605Y142879I-288J277D01*
G02X168696Y144759I1492J1880D01*
G02X173497I2400J0D01*
G02X172827Y143096I-2400J0D01*
G03X172867Y142505I288J-277D01*
G02X173775Y140625I-1492J-1880D01*
G02X168975I-2400J0D01*
G02X169644Y142288I2400J0D01*
G37*
G36*
G01X209071Y212429D02*
G03Y213071I-238J321D01*
G02X208100Y215000I1429J1929D01*
G02X212900I2400J0D01*
G02X211929Y213071I-2400J0D01*
G03Y212429I238J-321D01*
G02X212900Y210500I-1429J-1929D01*
G02X208100I-2400J0D01*
G02X209071Y212429I2400J0D01*
G37*
G36*
G01X122589Y94993D02*
G02X121479Y94721I-1110J2128D01*
G02X123879Y97121I0J2400D01*
G02X123816Y96574I-2400J0D01*
G03X124390Y96128I389J-91D01*
G02X125500Y96400I1110J-2128D01*
G02X123100Y94000I0J-2400D01*
G02X123163Y94547I2400J0D01*
G03X122589Y94993I-389J91D01*
G37*
G36*
G01X105206Y104294D02*
G02X105100Y105000I2294J706D01*
G02X107500Y102600I2400J0D01*
G02X106794Y102706I0J2400D01*
G03X106294Y102206I-118J-382D01*
G02X106400Y101500I-2294J-706D01*
G02X105081Y99357I-2400J0D01*
G03Y98643I180J-357D01*
G02X106400Y96500I-1081J-2143D01*
G02X105429Y94571I-2400J0D01*
G03Y93929I238J-321D01*
G02X106400Y92000I-1429J-1929D01*
G02X101600I-2400J0D01*
G02X102571Y93929I2400J0D01*
G03Y94571I-238J321D01*
G02X101600Y96500I1429J1929D01*
G02X102919Y98643I2400J0D01*
G03Y99357I-180J357D01*
G02X101600Y101500I1081J2143D01*
G02X104000Y103900I2400J0D01*
G02X104706Y103794I0J-2400D01*
G03X105206Y104294I118J382D01*
G37*
G36*
G01X179071Y274571D02*
G03X178429I-321J-238D01*
G02X176500Y273600I-1929J1429D01*
G02Y278400I0J2400D01*
G02X178429Y277429I0J-2400D01*
G03X179071I321J238D01*
G02X181000Y278400I1929J-1429D01*
G02Y273600I0J-2400D01*
G02X179071Y274571I0J2400D01*
G37*
G36*
G01X176472Y284977D02*
G03X175915I-279J-287D01*
G02X174243Y284300I-1671J1723D01*
G02Y289100I0J2400D01*
G02X175915Y288423I0J-2400D01*
G03X176472I279J287D01*
G02X178143Y289100I1671J-1723D01*
G02Y284300I0J-2400D01*
G02X176472Y284977I0J2400D01*
G37*
G54D34*
X190500Y251000D03*
G54D33*
X88416Y115812D03*
G54D30*
X30410Y198374D03*
X40646D03*
X20016Y284476D03*
X30252D03*
X40252D03*
X50488D03*
X60567D03*
X70685Y198374D03*
X80921D03*
X60724D03*
G54D25*
X143500Y12000D03*
X141500Y18500D03*
X89000Y31000D03*
X174000Y32433D03*
X172500Y51000D03*
X150500Y55000D03*
X159500D03*
X74500Y78500D03*
X79494Y81994D03*
X139000Y136000D03*
X106221Y137279D03*
X129261Y148497D03*
X94500Y164500D03*
X90500Y168000D03*
Y173500D03*
X34439Y220661D03*
X32000Y227500D03*
X119500Y264500D03*
X71012Y267012D03*
X51261Y296361D03*
X77200Y297100D03*
X101967Y301100D03*
X125000Y117200D03*
X121479Y123893D03*
X177100Y167900D03*
X115479Y110507D03*
X107500Y113854D03*
X163121Y110507D03*
Y123893D03*
X157121Y126285D03*
X163121Y117200D03*
X157500Y110500D03*
X175500Y118500D03*
X183100Y167900D03*
X139300Y117200D03*
X187500Y118500D03*
X193500D03*
X50500Y118000D03*
X146300Y110200D03*
X205367Y130000D03*
X221233Y130233D03*
X98512Y108012D03*
X56000Y106000D03*
X173000Y158500D03*
X146300Y124200D03*
X61500Y102000D03*
X58500Y91500D03*
X146300Y117200D03*
X132300Y124200D03*
X139300Y110200D03*
X132300D03*
X58663Y83813D03*
X132300Y117200D03*
X217500Y207000D03*
X139300Y124200D03*
X58500Y76000D03*
X51000Y83500D03*
Y91500D03*
X132500Y94000D03*
X121500Y103500D03*
X146500Y94000D03*
X153500D03*
X139500D03*
X189500Y168000D03*
X195500D03*
X171500Y96000D03*
X72300Y207100D03*
X60300D03*
X68300Y220800D03*
X109012Y184012D03*
X180000Y241500D03*
Y249000D03*
Y234000D03*
X136588Y308188D03*
X173200Y257800D03*
X159200Y277900D03*
X138700Y254500D03*
G54D32*
X148800Y173200D03*
G54D27*
X194242Y50099D03*
X204242D03*
X194242Y60099D03*
X204242D03*
X194242Y70099D03*
X204242D03*
X194242Y80099D03*
X204242D03*
G54D29*
X33200Y149305D03*
Y174895D03*
G54D28*
X14400Y55300D03*
Y75300D03*
Y85300D03*
Y95300D03*
Y105300D03*
G54D31*
X97479Y310612D03*
X120235D03*
G54D26*
X51996Y22075D03*
X61996D03*
X91996D03*
X101996D03*
%LPD*%
G75*
G54D10*
X16000Y16000D03*
Y319275D03*
X220213Y16000D03*
Y319275D03*
G54D20*
X128800Y173200D03*
X148800D03*
X138800Y183200D03*
G54D11*
X14400Y37000D03*
X19000D03*
X22500Y64000D03*
X20500Y88500D03*
X26088Y72088D03*
X22500Y69000D03*
X25501Y116499D03*
X24408Y209608D03*
X25300Y238200D03*
X11888Y278612D03*
X23000Y295000D03*
X48488Y51488D03*
X44500Y43049D03*
X49500D03*
X51000Y76000D03*
Y83500D03*
Y91500D03*
X37112Y72112D03*
X35000Y116500D03*
X41500Y99762D03*
X50500Y118000D03*
X29200Y137200D03*
X51088Y207588D03*
X34439Y220661D03*
X32300Y238200D03*
X39300D03*
X46000Y230500D03*
X32000Y227500D03*
X39465Y267035D03*
X51261Y296361D03*
X56688Y47812D03*
X64174Y64500D03*
X58663Y83813D03*
X58500Y91500D03*
X66500D03*
Y84000D03*
Y76000D03*
X58500D03*
X79494Y81994D03*
X74500Y78500D03*
X70302Y72198D03*
X74500Y73000D03*
X56000Y106000D03*
X61500Y102000D03*
X58663Y129500D03*
X68163D03*
X72335Y166665D03*
X68300Y220800D03*
X60300Y207100D03*
X72300D03*
X67810Y238910D03*
X71012Y267012D03*
X55200Y259900D03*
X61200D03*
X67200D03*
X78000Y264500D03*
X77200Y297100D03*
X55824Y318324D03*
X67950Y320950D03*
X89000Y31000D03*
X89125Y60625D03*
X95512Y71012D03*
X104000Y92000D03*
X98512Y108012D03*
X104000Y96500D03*
Y101500D03*
X81000D03*
X89600Y147100D03*
X83812Y131188D03*
X89700Y137200D03*
X104259Y144759D03*
X96000Y131739D03*
X101500Y132000D03*
X106221Y137279D03*
X83812Y153188D03*
X90500Y168000D03*
X94500Y164500D03*
X90500Y173500D03*
X86100Y220800D03*
X82200Y224700D03*
X90000D03*
Y216900D03*
X82200D03*
X91587Y209087D03*
X105600Y200800D03*
X102407Y201006D03*
X97800Y239900D03*
Y232900D03*
X105800Y243900D03*
Y236900D03*
X80900Y246600D03*
X100700Y252800D03*
X94700D03*
X106600Y275600D03*
X99600D03*
X89000Y252500D03*
X80900Y252800D03*
X101967Y301100D03*
X106757Y298292D03*
X83950Y320950D03*
X129900Y9000D03*
X114000Y14000D03*
X119500Y35000D03*
X119701Y22701D03*
X114000Y17500D03*
X129500Y44500D03*
X109783Y43783D03*
X128573Y66927D03*
X111200Y85400D03*
X118200D03*
X125500Y94000D03*
X132500D03*
X127500Y85000D03*
X132300Y117200D03*
Y110200D03*
X121500Y103500D03*
X115479Y110507D03*
X121479Y97121D03*
X107500Y113854D03*
X125000Y117200D03*
X107500Y105000D03*
X132300Y124200D03*
X118500Y130586D03*
X121479Y123893D03*
X111000Y154500D03*
X114000Y151500D03*
X120000Y157000D03*
X129261Y148497D03*
X122500Y154000D03*
X109012Y184012D03*
X122200Y197600D03*
X132000Y201000D03*
X119500Y200500D03*
X110900Y200700D03*
X122300Y222962D03*
X117100Y223200D03*
X128500Y248000D03*
X131500Y244000D03*
X107600Y256700D03*
X114600D03*
X113600Y275600D03*
X130500Y277000D03*
X123000Y269500D03*
X131600Y253800D03*
X119500Y264500D03*
X113778Y301100D03*
X110957Y298292D03*
X134500Y9000D03*
X143500Y12000D03*
X141500Y18500D03*
X150500Y55000D03*
X159500D03*
X142739Y82761D03*
X139500Y94000D03*
X146500D03*
X153500D03*
X139300Y117200D03*
X146300D03*
Y110200D03*
X139300D03*
X157500Y110500D03*
X139300Y124200D03*
X146300D03*
X139000Y136000D03*
X157121Y126285D03*
X149339Y135021D03*
X135527Y156000D03*
X139727D03*
X137600Y200800D03*
X151600D03*
X144600D03*
X154600Y228400D03*
X147200Y239100D03*
X143600Y242700D03*
X150700Y242600D03*
X143600Y235500D03*
X154000Y251400D03*
X158000Y251300D03*
X141347Y227800D03*
X159200Y277900D03*
X152600Y277300D03*
X145600D03*
X152200Y254700D03*
X138700Y254500D03*
X159200Y283400D03*
X155725Y295940D03*
X151525D03*
X136588Y308188D03*
X174000Y13000D03*
X179399Y40448D03*
X174000Y24500D03*
Y19000D03*
Y32433D03*
X171000Y66500D03*
Y60500D03*
X172500Y51000D03*
X171800Y89500D03*
X177500Y80399D03*
X169500Y85000D03*
X160000Y84000D03*
X175500Y118500D03*
X171500Y96000D03*
X163121Y110507D03*
X180000Y96000D03*
X163121Y117200D03*
X171097Y144759D03*
X163121Y123893D03*
X171375Y140625D03*
X160500Y134500D03*
X160266Y139500D03*
X183100Y167900D03*
X177100D03*
X173000Y158500D03*
X163500Y149500D03*
X162000Y190000D03*
X166000Y228500D03*
X180000Y249000D03*
Y241500D03*
Y234000D03*
X162500Y247000D03*
X162810Y233800D03*
X162815Y239000D03*
X176500Y276000D03*
X181000D03*
X173200Y257800D03*
Y263800D03*
X174243Y286700D03*
X178143D03*
X177500Y301500D03*
X165710Y298000D03*
X174000Y297500D03*
X170500D03*
X174700Y314467D03*
X170500D03*
X188322Y18722D03*
X187500Y118500D03*
X193500D03*
X189600Y96100D03*
X201500Y102000D03*
X207000D03*
X205367Y130000D03*
X194347Y127846D03*
X193000Y124001D03*
X189500Y168000D03*
X195500D03*
X189000Y198000D03*
X195000D03*
X198500Y217000D03*
Y212500D03*
X210500Y215000D03*
Y210500D03*
X199500Y226000D03*
X199512Y242012D03*
X199500Y232000D03*
X201500Y269000D03*
X207500D03*
X215000Y46500D03*
X221000D03*
X215500Y89500D03*
X221000D03*
X228000Y94000D03*
X218000Y101500D03*
X223000D03*
X227000Y100500D03*
X221233Y130233D03*
X227000Y132500D03*
X214988Y175488D03*
X217500Y207000D03*
X214000Y269500D03*
X220000D03*
X214000Y282000D03*
X220500D03*
G54D21*
X204242Y60099D03*
Y50099D03*
X194242D03*
Y60099D03*
X204242Y80099D03*
Y70099D03*
X194242D03*
Y80099D03*
G54D12*
X14400Y55300D03*
Y65300D03*
Y75300D03*
Y85300D03*
Y95300D03*
Y105300D03*
G54D13*
X20016Y284476D03*
X30410Y198374D03*
X40646D03*
X50646D03*
X50488Y284476D03*
X40252D03*
X30252D03*
X60724Y198374D03*
X70685D03*
X80921D03*
X70803Y284476D03*
X60567D03*
G54D22*
X190500Y251000D03*
Y269504D03*
Y288008D03*
X228020Y243500D03*
Y295508D03*
G54D23*
G01X3091Y348500D02*
X4091D01*
Y347300D01*
X3791Y346900D01*
X3441Y346633D01*
X2941Y346500D01*
X2441Y346633D01*
X2091Y346900D01*
X1791Y347300D01*
X1591Y347767D01*
X1491Y348300D01*
Y348767D01*
X1591Y349167D01*
X1791Y349633D01*
X2091Y350033D01*
X2391Y350300D01*
X2791Y350500D01*
X3141D01*
X3541Y350367D01*
X3841Y350100D01*
G01X5350Y346500D02*
Y350500D01*
X7650Y346500D01*
Y350500D01*
G01X9109Y346500D02*
Y350500D01*
X10109D01*
X10509Y350300D01*
X10809Y350033D01*
X11059Y349633D01*
X11259Y349167D01*
X11309Y348500D01*
X11259Y347833D01*
X11059Y347367D01*
X10809Y346967D01*
X10509Y346700D01*
X10109Y346500D01*
X9109D01*
G54D14*
X51996Y22075D03*
X61996D03*
X71996D03*
X81996D03*
X91996D03*
X101996D03*
G54D24*
G01X0Y0D02*
X236213D01*
Y335275D01*
X0D01*
Y0D01*
G01D02*
Y335275D01*
X236213D01*
Y0D01*
X0D01*
G54D15*
X33200Y149305D03*
Y174895D03*
G54D16*
X88416Y44946D03*
Y115812D03*
G54D17*
X97479Y310612D03*
X120235D03*
X161222D03*
X183978D03*
G54D18*
X91849Y308643D03*
X125865D03*
X155592D03*
X189608D03*
G54D19*
X91849Y325100D03*
X125865D03*
X155592D03*
X189608D03*
M02*
