G04 ================== begin FILE IDENTIFICATION RECORD ==================*
G04 Layout Name:  E:/nn/GERBER/BOARD/SENTINEL_FALL_V01.brd*
G04 Film Name:    L01*
G04 File Format:  Gerber RS274X*
G04 File Origin:  Cadence Allegro 17.2-S083*
G04 Origin Date:  Tue Apr 08 22:19:01 2025*
G04 *
G04 Layer:  BOARD GEOMETRY/L01_TOP*
G04 Layer:  BOARD GEOMETRY/BOARD_ NAME*
G04 Layer:  VIA CLASS/TOP*
G04 Layer:  PIN/TOP*
G04 Layer:  ETCH/TOP*
G04 Layer:  BOARD GEOMETRY/OUTLINE*
G04 *
G04 Offset:    (0.000 0.000)*
G04 Mirror:    No*
G04 Mode:      Positive*
G04 Rotation:  0*
G04 FullContactRelief:  No*
G04 UndefLineWidth:     7.000*
G04 ================== end FILE IDENTIFICATION RECORD ====================*
%FSLAX55Y55*MOIN*%
%IR0*IPPOS*OFA0.00000B0.00000*MIA0B0*SFA1.00000B1.00000*%
%ADD23O,.0085X.0315*%
%ADD22O,.0315X.0085*%
%ADD55C,.109252*%
%ADD44R,.181102X.181102*%
%ADD32C,.129921*%
%ADD54R,.109252X.109252*%
%ADD52R,.109055X.025591*%
%ADD46R,.025591X.109055*%
%ADD10C,.275591*%
%ADD17R,.133858X.059055*%
%ADD16R,.137795X.03937*%
%ADD41R,.016X.032*%
%ADD43R,.032X.016*%
%ADD14R,.071X.063*%
%ADD19C,.04*%
%ADD15R,.063X.071*%
%ADD27C,.06*%
%ADD25R,.043X.039*%
%ADD11C,.024*%
%ADD21R,.035X.039*%
%ADD24R,.181102X.181102*%
%ADD34R,.102362X.102362*%
%ADD29C,.04016*%
%ADD42R,.032X.032*%
%ADD18R,.06X.06*%
%ADD26C,.055433*%
%ADD40R,.034449X.030512*%
%ADD33R,.047244X.05315*%
%ADD31R,.05315X.047244*%
%ADD13C,.065551*%
%ADD36R,.011811X.045276*%
%ADD35C,.025594*%
%ADD37R,.023622X.045276*%
%ADD30C,.064961*%
%ADD28R,.035433X.031496*%
%ADD50C,.069094*%
%ADD12R,.065551X.065551*%
%ADD47C,.046929*%
%ADD39O,.03937X.070866*%
%ADD53R,.025591X.059055*%
%ADD20R,.064961X.064961*%
%ADD51R,.069094X.069094*%
%ADD38O,.03937X.082677*%
%ADD49R,.062992X.03937*%
%ADD45R,.046929X.046929*%
%ADD48R,.012598X.025984*%
%ADD56C,.006*%
%ADD57C,.008*%
%ADD58C,.009*%
%ADD59C,.007087*%
%ADD60C,.01*%
%ADD61C,.011*%
%ADD62C,.02*%
%ADD63C,.03*%
%ADD64C,.015*%
%ADD65C,.025*%
%ADD66C,.007*%
G75*
%LPD*%
G75*
G36*
G01X10500Y59000D02*
X31500D01*
X32500Y58000D01*
Y52834D01*
X26833Y47167D01*
G03X26412Y46448I1167J-1167D01*
G01X26398Y46398D01*
X26000Y46000D01*
Y34500D01*
X26433Y34067D01*
X26448Y34025D01*
G03X26833Y33419I1552J560D01*
G01X47419Y12833D01*
G03X48025Y12448I1167J1167D01*
G01X48067Y12433D01*
X49000Y11500D01*
X135000D01*
X136500Y10000D01*
Y6000D01*
X135500Y5000D01*
X48000D01*
X43478Y9522D01*
X43485Y9614D01*
G03X43500Y10000I-4985J386D01*
G03X38500Y15000I-5000J0D01*
G03X38114Y14985I-1J-5000D01*
G01X38022Y14978D01*
X27896Y25104D01*
X27888Y25115D01*
G03X25115Y27888I-11887J-9115D01*
G01X25104Y27896D01*
X21000Y32000D01*
X14000D01*
X9500Y36500D01*
Y58000D01*
X10500Y59000D01*
G37*
G36*
G01X21184Y91350D02*
X29500D01*
Y73000D01*
X33000Y69500D01*
Y63000D01*
X32500Y62500D01*
X21000D01*
X19000Y64500D01*
Y89187D01*
G03X19167Y89333I-1000J1313D01*
G01X21184Y91350D01*
G37*
G36*
G01X24000Y237500D02*
Y244500D01*
X25000Y245500D01*
X40400D01*
X41200Y244700D01*
Y237300D01*
X40400Y236500D01*
X25000D01*
X24000Y237500D01*
G37*
G36*
G01X24800Y248900D02*
X24100Y249600D01*
Y254500D01*
X25300Y255700D01*
X49300D01*
X50000Y255000D01*
Y249700D01*
X49200Y248900D01*
X24800D01*
G37*
G36*
G01X33600Y270200D02*
X31900Y268500D01*
X20000D01*
X19400Y269100D01*
Y276400D01*
X19800Y276800D01*
X26400D01*
X26900Y277300D01*
X27000D01*
Y285800D01*
X28700Y287500D01*
X32400D01*
X33600Y286300D01*
Y270200D01*
G37*
G36*
G01X31100Y212200D02*
X31900Y213000D01*
X43800D01*
X44300Y212500D01*
Y196400D01*
X42800Y194900D01*
X38000D01*
X37000Y195900D01*
Y205200D01*
X36200Y206000D01*
X31800D01*
X31100Y206700D01*
Y212200D01*
G37*
G36*
G01X57400Y249700D02*
X57800Y249300D01*
Y244800D01*
X55300Y242300D01*
Y235700D01*
X54800Y235200D01*
X47500D01*
X47200Y235500D01*
Y242800D01*
X54100Y249700D01*
X57400D01*
G37*
G36*
G01X68000Y223400D02*
X79600D01*
X80300Y224100D01*
Y225500D01*
X80900Y226100D01*
X91900D01*
X93400Y227600D01*
Y256500D01*
X95400Y258500D01*
X115000D01*
X116000Y257500D01*
Y256000D01*
X111000Y251000D01*
Y231500D01*
X113500Y229000D01*
Y222500D01*
X112400Y221400D01*
X104100D01*
X101100Y218400D01*
X94000D01*
X93000Y217400D01*
Y207000D01*
X91900Y205900D01*
X81400D01*
X80700Y206600D01*
Y217100D01*
X79500Y218300D01*
X68500D01*
X67000Y219800D01*
Y222400D01*
X68000Y223400D01*
G37*
G36*
G01X59300Y217800D02*
X65900D01*
X67400Y216300D01*
X77000D01*
X77300Y216000D01*
Y207000D01*
X76200Y205900D01*
X59300D01*
X58600Y206600D01*
Y217100D01*
X59300Y217800D01*
G37*
G36*
G01X77100Y231800D02*
X77500Y231400D01*
Y225700D01*
X77100Y225300D01*
X66700D01*
X65900Y224500D01*
X58300D01*
X57800Y225000D01*
Y231300D01*
X58300Y231800D01*
X77100D01*
G37*
G36*
G01X54500Y252900D02*
X53900Y253500D01*
Y261500D01*
X54600Y262200D01*
X67600D01*
X68600Y261200D01*
Y253700D01*
X67800Y252900D01*
X54500D01*
G37*
G36*
G01X130500Y127500D02*
X148500D01*
X150000Y126000D01*
Y104000D01*
X148150Y102150D01*
X118857D01*
G03X117691Y101667I0J-1650D01*
G01X117524Y101500D01*
X117000D01*
X114500Y99000D01*
X113869D01*
X113830Y99017D01*
G03X113341Y99122I-489J-1096D01*
G01X110141D01*
G03X109652Y99017I0J-1200D01*
G01X109613Y99000D01*
X108500D01*
X107500Y98000D01*
Y93000D01*
X108500Y92000D01*
X109441D01*
G03X110141Y91775I700J975D01*
G01X113341D01*
G03X114041Y92000I0J1200D01*
G01X121000D01*
X127000Y98000D01*
X172500D01*
X178500Y92000D01*
Y79500D01*
X175000Y76000D01*
Y58000D01*
X173500Y56500D01*
X162500D01*
X162000Y57000D01*
Y68000D01*
X160000Y70000D01*
X143000D01*
X142750Y69750D01*
X136000Y76500D01*
X111750D01*
X106250Y82000D01*
Y85250D01*
X103000Y88500D01*
X95000D01*
X94500Y89000D01*
Y107500D01*
X96500Y109500D01*
X103000D01*
X105500Y107000D01*
Y106328D01*
X105469Y106279D01*
G03X105100Y105000I2031J-1279D01*
G03X105469Y103721I2400J0D01*
G01X105500Y103672D01*
Y103500D01*
X106000Y103000D01*
X106172D01*
X106221Y102969D01*
G03X107500Y102600I1279J2031D01*
G03X109858Y104551I0J2400D01*
G01X109869Y104611D01*
X110258Y105000D01*
X124500D01*
X129500Y110000D01*
Y126500D01*
X130500Y127500D01*
G37*
G36*
G01X94800Y215800D02*
X95200Y216200D01*
X105200D01*
X106100Y217100D01*
X113000D01*
Y217000D01*
X113500Y216500D01*
Y210600D01*
X113000Y210100D01*
X95800D01*
X94800Y211100D01*
Y215800D01*
G37*
G36*
G01X94400Y254000D02*
X101300D01*
X102300Y253000D01*
Y243200D01*
X101300Y242200D01*
X98487D01*
X98460Y242208D01*
G03X97140I-660J-2308D01*
G01X97113Y242200D01*
X94400D01*
X93400Y243200D01*
Y253000D01*
X94400Y254000D01*
G37*
G36*
G01X79600Y253200D02*
X80500Y254100D01*
X89900D01*
X90500Y253500D01*
Y251300D01*
X89700Y250500D01*
Y230600D01*
X88800Y229700D01*
X82900D01*
X82100Y230500D01*
Y241300D01*
X79600Y243800D01*
Y253200D01*
G37*
G36*
G01X97000Y274500D02*
Y284500D01*
X98000Y285500D01*
X114000D01*
X115000Y284500D01*
Y274500D01*
X114000Y273500D01*
X98000D01*
X97000Y274500D01*
G37*
G36*
G01X117537Y308700D02*
X118655D01*
G03X119074Y308420I1580J1912D01*
G01Y304116D01*
G03X119500Y303198I1200J0D01*
G01Y299800D01*
X120900Y298400D01*
Y290900D01*
X118900Y288900D01*
X111300D01*
X111200Y288800D01*
X103600D01*
X103200Y289200D01*
Y290700D01*
X102400Y291500D01*
Y293200D01*
X103200Y294000D01*
Y295300D01*
X103800Y295900D01*
X106557D01*
X106565Y295899D01*
G03X106757Y295892I192J2392D01*
G03X106948Y295899I-1J2400D01*
G01X106956Y295900D01*
X110757D01*
X110765Y295899D01*
G03X110957Y295892I192J2392D01*
G03X111148Y295899I-1J2400D01*
G01X111156Y295900D01*
X114700D01*
X117000Y298200D01*
Y303115D01*
G03X117537Y304116I-663J1001D01*
G01Y308700D01*
G37*
G36*
G01X168500Y235500D02*
X181500D01*
X182500Y234500D01*
Y231400D01*
X177000Y225900D01*
Y221700D01*
X176600Y221300D01*
X166200D01*
X163500Y218600D01*
X154600D01*
X153400Y217400D01*
Y200300D01*
X152400Y199300D01*
X123894D01*
G03X122284Y199999I-1694J-1700D01*
G02X121899Y200413I14J400D01*
G03X121900Y200500I-2399J88D01*
G03X121500Y201827I-2400J0D01*
G01Y204186D01*
G03X122200Y206000I-2000J1814D01*
G01Y206600D01*
X122500Y206900D01*
X139700D01*
X143000Y210200D01*
Y216600D01*
X141300Y218300D01*
X133700D01*
X133200Y218800D01*
Y223200D01*
X133600Y223600D01*
X140400D01*
X142488Y225688D01*
X142513Y225702D01*
G03X143365Y226500I-1165J2098D01*
G01X152500D01*
X153200Y227200D01*
Y229300D01*
X154700Y230800D01*
X163800D01*
X168500Y235500D01*
G37*
G36*
G01X133188Y252000D02*
X140500D01*
X141000Y251500D01*
Y245000D01*
X142000Y244000D01*
X143878D01*
X144879Y243000D01*
X151000D01*
Y241621D01*
X147379Y238000D01*
X145579D01*
X145078Y237500D01*
X144928D01*
X144879Y237531D01*
G03X143600Y237900I-1279J-2031D01*
G03X142273Y237500I0J-2400D01*
G01X134000D01*
X131500Y235000D01*
X121500D01*
X121000Y235500D01*
Y247500D01*
X125500Y252000D01*
X130012D01*
G03X133188I1588J1800D01*
G37*
G36*
G01X121800Y231800D02*
X138700D01*
X139200Y231300D01*
Y228873D01*
G03X138947Y227800I2147J-1073D01*
G03X139181Y226767I2400J0D01*
G01X139200Y226726D01*
Y225900D01*
X139000Y225700D01*
X128800D01*
X127900Y224800D01*
X123843D01*
G03X122300Y225362I-1543J-1838D01*
G03X121743Y225296I0J-2400D01*
G02X121250Y225686I-93J389D01*
G01Y229018D01*
G03X121000Y229847I-1500J0D01*
G01Y231000D01*
X121800Y231800D01*
G37*
G36*
G01X149500Y53500D02*
X149000Y54000D01*
Y64500D01*
X149500Y65000D01*
X157500D01*
X157800Y64700D01*
Y61100D01*
X157950Y60950D01*
Y58550D01*
X161000Y55500D01*
Y54000D01*
X160500Y53500D01*
X149500D01*
G37*
G36*
G01X153527Y252700D02*
X159300D01*
X160000Y252000D01*
X160100D01*
Y247030D01*
G03X160100Y247000I2400J-31D01*
G03X160100Y246970I2400J1D01*
G01Y237100D01*
X157000Y234000D01*
X151800D01*
X151300Y233500D01*
Y230800D01*
X150300Y229800D01*
X146200D01*
X145700Y230300D01*
Y234338D01*
G03X146000Y235500I-2100J1162D01*
G03X145927Y236089I-2400J0D01*
G01X145899Y236199D01*
X146200Y236500D01*
X148000D01*
X152500Y241000D01*
Y241011D01*
X152546Y241066D01*
G03X153100Y242600I-1846J1534D01*
G03X150700Y245000I-2400J0D01*
G03X149233Y244500I0J-2400D01*
G01X145500D01*
X145000Y245000D01*
Y252000D01*
X145700Y252700D01*
X150873D01*
G03X153527I1327J2000D01*
G37*
G36*
G01X172000Y288000D02*
X181500D01*
X182500Y287000D01*
Y275000D01*
X181500Y274000D01*
X176000D01*
X173500Y276500D01*
X154000D01*
X153000Y275500D01*
X152000D01*
X151000Y276500D01*
Y278500D01*
X157000Y284500D01*
X168500D01*
X172000Y288000D01*
G37*
G36*
G01X174000Y26000D02*
X194000D01*
X195500Y24500D01*
Y14612D01*
X190888Y10000D01*
X168000D01*
X167000Y11000D01*
Y22000D01*
X168000Y23000D01*
X171000D01*
X174000Y26000D01*
G37*
G36*
G01X195500Y110500D02*
X194100Y109100D01*
X175400D01*
X174000Y110500D01*
Y119000D01*
X175000Y120000D01*
X194000D01*
X195500Y118500D01*
Y110500D01*
G37*
G36*
G01X205000Y157000D02*
X187500D01*
X187000Y157500D01*
Y165600D01*
X186000Y166600D01*
X176400D01*
X175200Y167800D01*
Y176300D01*
X175700Y176800D01*
X184800D01*
X188300Y180300D01*
X209200D01*
X209700Y179800D01*
Y161700D01*
X205000Y157000D01*
G37*
G36*
G01X178500Y218500D02*
X197878D01*
X199379Y217000D01*
X200500D01*
X201000Y216500D01*
X211500D01*
X212500Y215500D01*
Y210000D01*
X211500Y209000D01*
X199500D01*
X197000Y211500D01*
X179500D01*
X178500Y212500D01*
Y218500D01*
G37*
G36*
G01X186000Y192000D02*
Y198500D01*
X184500Y200000D01*
X179000D01*
X178500Y200500D01*
Y207000D01*
X179000Y207500D01*
X197500D01*
X201000Y204000D01*
X213500D01*
X214000Y203500D01*
Y191500D01*
X212500Y190000D01*
X188000D01*
X186000Y192000D01*
G37*
G36*
G01X203500Y286500D02*
X207500D01*
X208500Y285500D01*
Y273000D01*
X207500Y272000D01*
X200000D01*
X198000Y270000D01*
Y268500D01*
X193500Y264000D01*
X189000D01*
X183000Y258000D01*
Y257122D01*
X182500Y256621D01*
Y251500D01*
X181702Y250702D01*
X181562Y250823D01*
G03X180000Y251400I-1562J-1823D01*
G03X177600Y249000I0J-2400D01*
G03X178303Y247303I2400J0D01*
G01X168000Y237000D01*
X167879D01*
X163378Y232500D01*
X162000D01*
X161500Y233000D01*
Y236378D01*
X161600Y236479D01*
Y241100D01*
X176500Y256000D01*
Y264000D01*
X188500Y276000D01*
X193000D01*
X203500Y286500D01*
G37*
G36*
G01X201500Y248500D02*
X197500Y244500D01*
X185500D01*
X184000Y246000D01*
Y256000D01*
X185000Y257000D01*
X197500D01*
X198500Y256000D01*
X219000D01*
X221000Y258000D01*
X226500D01*
X227500Y257000D01*
Y254000D01*
X225500Y252000D01*
X222000D01*
X218500Y248500D01*
X201500D01*
G37*
G36*
G01X172000Y265500D02*
X174000D01*
X175000Y264500D01*
Y257500D01*
X173500Y256000D01*
X164000D01*
X163500Y256500D01*
Y263000D01*
X164000Y263500D01*
X170000D01*
X172000Y265500D01*
G37*
G36*
G01X163107Y309000D02*
X163928D01*
Y308789D01*
X163927Y308778D01*
G03X163919Y308643I1193J-135D01*
G01Y304116D01*
G03X163954Y303829I1200J0D01*
G01X163960Y303805D01*
Y299643D01*
G03X163310Y298000I1750J-1643D01*
G03X165710Y295600I2400J0D01*
G03X166830Y295877I0J2400D01*
G01X166874Y295900D01*
X167500D01*
X169000Y297400D01*
Y297500D01*
X170500Y299000D01*
X179500D01*
X180743Y300243D01*
Y303115D01*
G03X181281Y304116I-663J1001D01*
G01Y308700D01*
X182398D01*
G03X182817Y308420I1580J1912D01*
G01Y304116D01*
G03X183243Y303198I1200J0D01*
G01Y302000D01*
X185000Y300243D01*
Y292900D01*
X181600Y289500D01*
X180215D01*
G03X179350Y289869I-865J-832D01*
G01X173050D01*
G03X172185Y289500I0J-1200D01*
G01X168700D01*
X168000Y288800D01*
X160700D01*
X159500Y290000D01*
Y301000D01*
X161443Y302943D01*
X161494Y302957D01*
G03X162383Y304116I-312J1159D01*
G01Y308420D01*
G03X163107Y309000I-1161J2191D01*
G37*
G36*
G01X203000Y84500D02*
X210000D01*
X211500Y83000D01*
Y76500D01*
X213000Y75000D01*
X222000D01*
X223750Y73250D01*
Y61750D01*
X222500Y60500D01*
X214000D01*
X212000Y58500D01*
Y48500D01*
X209500Y46000D01*
X203000D01*
X200500Y48500D01*
Y82000D01*
X203000Y84500D01*
G37*
G36*
G01X199000Y101500D02*
Y106500D01*
X200000Y107500D01*
X210000D01*
X211000Y106500D01*
Y101500D01*
X210000Y100500D01*
X200000D01*
X199000Y101500D01*
G37*
G36*
G01Y234000D02*
X209000D01*
Y219000D01*
X208500Y218500D01*
X200374D01*
G03X199251Y219280I-1874J-1500D01*
G01X199205Y219295D01*
X198000Y220500D01*
Y233000D01*
X199000Y234000D01*
G37*
G36*
G01X200000Y261000D02*
Y269000D01*
X201000Y270000D01*
X208500D01*
X209500Y269000D01*
Y261000D01*
X208500Y260000D01*
X201000D01*
X200000Y261000D01*
G37*
G36*
G01X214000Y56000D02*
X222500D01*
X223000Y55500D01*
Y46000D01*
X222000Y45000D01*
X214500D01*
X213500Y46000D01*
Y47878D01*
X213500Y47879D01*
Y55500D01*
X214000Y56000D01*
G37*
G36*
G01X213500Y80500D02*
Y90500D01*
X214500Y91500D01*
X221500D01*
X222500Y90500D01*
Y80500D01*
X221500Y79500D01*
X214500D01*
X213500Y80500D01*
G37*
G36*
G01X216500Y107500D02*
X226000D01*
X227000Y106500D01*
Y102900D01*
G03X224607Y100685I0J-2400D01*
G01X224593Y100500D01*
X216500D01*
X215500Y101500D01*
Y106500D01*
X216500Y107500D01*
G37*
G36*
G01X212000Y261500D02*
Y282000D01*
X214000Y284000D01*
X220500D01*
X222000Y282500D01*
Y262000D01*
X220500Y260500D01*
X213000D01*
X212000Y261500D01*
G37*
G54D10*
X16000Y16000D03*
Y319275D03*
X220213Y16000D03*
Y319275D03*
G54D20*
X51996Y22075D03*
G54D11*
X14400Y37000D03*
X19000D03*
X22500Y64000D03*
X20500Y88500D03*
X26088Y72088D03*
X22500Y69000D03*
X25501Y116499D03*
X24408Y209608D03*
X25300Y238200D03*
X11888Y278612D03*
X23000Y295000D03*
X48488Y51488D03*
X44500Y43049D03*
X49500D03*
X51000Y76000D03*
Y83500D03*
Y91500D03*
X37112Y72112D03*
X35000Y116500D03*
X41500Y99762D03*
X50500Y118000D03*
X29200Y137200D03*
X51088Y207588D03*
X34439Y220661D03*
X32300Y238200D03*
X39300D03*
X46000Y230500D03*
X32000Y227500D03*
X39465Y267035D03*
X51261Y296361D03*
X56688Y47812D03*
X64174Y64500D03*
X58663Y83813D03*
X58500Y91500D03*
X66500D03*
Y84000D03*
Y76000D03*
X58500D03*
X79494Y81994D03*
X74500Y78500D03*
X70302Y72198D03*
X74500Y73000D03*
X56000Y106000D03*
X61500Y102000D03*
X58663Y129500D03*
X68163D03*
X72335Y166665D03*
X68300Y220800D03*
X60300Y207100D03*
X72300D03*
X67810Y238910D03*
X71012Y267012D03*
X55200Y259900D03*
X61200D03*
X67200D03*
X78000Y264500D03*
X77200Y297100D03*
X55824Y318324D03*
X67950Y320950D03*
X89000Y31000D03*
X89125Y60625D03*
X95512Y71012D03*
X104000Y92000D03*
X98512Y108012D03*
X104000Y96500D03*
Y101500D03*
X81000D03*
X89600Y147100D03*
X83812Y131188D03*
X89700Y137200D03*
X104259Y144759D03*
X96000Y131739D03*
X101500Y132000D03*
X106221Y137279D03*
X83812Y153188D03*
X90500Y168000D03*
X94500Y164500D03*
X90500Y173500D03*
X86100Y220800D03*
X82200Y224700D03*
X90000D03*
Y216900D03*
X82200D03*
X91587Y209087D03*
X105600Y200800D03*
X102407Y201006D03*
X97800Y239900D03*
Y232900D03*
X105800Y243900D03*
Y236900D03*
X80900Y246600D03*
X100700Y252800D03*
X94700D03*
X106600Y275600D03*
X99600D03*
X89000Y252500D03*
X80900Y252800D03*
X101967Y301100D03*
X106757Y298292D03*
X83950Y320950D03*
X129900Y9000D03*
X114000Y14000D03*
X119500Y35000D03*
X119701Y22701D03*
X114000Y17500D03*
X129500Y44500D03*
X109783Y43783D03*
X128573Y66927D03*
X111200Y85400D03*
X118200D03*
X125500Y94000D03*
X132500D03*
X127500Y85000D03*
X132300Y117200D03*
Y110200D03*
X121500Y103500D03*
X115479Y110507D03*
X121479Y97121D03*
X107500Y113854D03*
X125000Y117200D03*
X107500Y105000D03*
X132300Y124200D03*
X118500Y130586D03*
X121479Y123893D03*
X111000Y154500D03*
X114000Y151500D03*
X120000Y157000D03*
X129261Y148497D03*
X122500Y154000D03*
X109012Y184012D03*
X122200Y197600D03*
X132000Y201000D03*
X119500Y200500D03*
X110900Y200700D03*
X122300Y222962D03*
X117100Y223200D03*
X128500Y248000D03*
X131500Y244000D03*
X107600Y256700D03*
X114600D03*
X113600Y275600D03*
X130500Y277000D03*
X123000Y269500D03*
X131600Y253800D03*
X119500Y264500D03*
X113778Y301100D03*
X110957Y298292D03*
X134500Y9000D03*
X143500Y12000D03*
X141500Y18500D03*
X150500Y55000D03*
X159500D03*
X142739Y82761D03*
X139500Y94000D03*
X146500D03*
X153500D03*
X139300Y117200D03*
X146300D03*
Y110200D03*
X139300D03*
X157500Y110500D03*
X139300Y124200D03*
X146300D03*
X139000Y136000D03*
X157121Y126285D03*
X149339Y135021D03*
X135527Y156000D03*
X139727D03*
X137600Y200800D03*
X151600D03*
X144600D03*
X154600Y228400D03*
X147200Y239100D03*
X143600Y242700D03*
X150700Y242600D03*
X143600Y235500D03*
X154000Y251400D03*
X158000Y251300D03*
X141347Y227800D03*
X159200Y277900D03*
X152600Y277300D03*
X145600D03*
X152200Y254700D03*
X138700Y254500D03*
X159200Y283400D03*
X155725Y295940D03*
X151525D03*
X136588Y308188D03*
X174000Y13000D03*
X179399Y40448D03*
X174000Y24500D03*
Y19000D03*
Y32433D03*
X171000Y66500D03*
Y60500D03*
X172500Y51000D03*
X171800Y89500D03*
X177500Y80399D03*
X169500Y85000D03*
X160000Y84000D03*
X175500Y118500D03*
X171500Y96000D03*
X163121Y110507D03*
X180000Y96000D03*
X163121Y117200D03*
X171097Y144759D03*
X163121Y123893D03*
X171375Y140625D03*
X160500Y134500D03*
X160266Y139500D03*
X183100Y167900D03*
X177100D03*
X173000Y158500D03*
X163500Y149500D03*
X162000Y190000D03*
X166000Y228500D03*
X180000Y249000D03*
Y241500D03*
Y234000D03*
X162500Y247000D03*
X162810Y233800D03*
X162815Y239000D03*
X176500Y276000D03*
X181000D03*
X173200Y257800D03*
Y263800D03*
X174243Y286700D03*
X178143D03*
X177500Y301500D03*
X165710Y298000D03*
X174000Y297500D03*
X170500D03*
X174700Y314467D03*
X170500D03*
X188322Y18722D03*
X187500Y118500D03*
X193500D03*
X189600Y96100D03*
X201500Y102000D03*
X207000D03*
X205367Y130000D03*
X194347Y127846D03*
X193000Y124001D03*
X189500Y168000D03*
X195500D03*
X189000Y198000D03*
X195000D03*
X198500Y217000D03*
Y212500D03*
X210500Y215000D03*
Y210500D03*
X199500Y226000D03*
X199512Y242012D03*
X199500Y232000D03*
X201500Y269000D03*
X207500D03*
X215000Y46500D03*
X221000D03*
X215500Y89500D03*
X221000D03*
X228000Y94000D03*
X218000Y101500D03*
X223000D03*
X227000Y100500D03*
X221233Y130233D03*
X227000Y132500D03*
X214988Y175488D03*
X217500Y207000D03*
X214000Y269500D03*
X220000D03*
X214000Y282000D03*
X220500D03*
G54D12*
X14400Y55300D03*
G54D30*
X61996Y22075D03*
X71996D03*
X81996D03*
X91996D03*
X101996D03*
G54D21*
X53571Y36750D03*
X37429D03*
X53571Y43049D03*
X37429D03*
X63729Y320950D03*
Y314651D03*
X79871D03*
Y320950D03*
X190829Y184550D03*
Y178251D03*
X206971D03*
Y184550D03*
G54D13*
X14400Y65300D03*
Y75300D03*
Y85300D03*
Y95300D03*
Y105300D03*
G54D31*
X74387Y220800D03*
Y213713D03*
Y227887D03*
X97813Y213713D03*
Y220800D03*
Y227887D03*
X159813Y214013D03*
Y221100D03*
X136387D03*
Y214013D03*
X159813Y228187D03*
X136387D03*
G54D40*
X109783Y35561D03*
X115492D03*
Y40089D03*
X109783D03*
G54D22*
X47049Y92474D03*
Y78301D03*
Y76726D03*
Y75151D03*
Y90899D03*
Y89324D03*
Y87750D03*
Y86175D03*
Y84600D03*
Y83025D03*
Y81450D03*
Y79876D03*
X70277Y75151D03*
Y76726D03*
Y78301D03*
Y79876D03*
Y81450D03*
Y83025D03*
Y84600D03*
Y86175D03*
Y87750D03*
Y89324D03*
Y90899D03*
Y92474D03*
G54D50*
X204242Y60099D03*
Y50099D03*
X194242D03*
Y60099D03*
X204242Y70099D03*
X194242D03*
Y80099D03*
G54D14*
X28500Y54988D03*
Y66012D03*
X25501Y110786D03*
Y99762D03*
X35000Y110786D03*
Y99762D03*
X40624Y220661D03*
Y209638D03*
X52400Y227888D03*
Y238912D03*
X72300Y36788D03*
X62800D03*
X72300Y47812D03*
X62800D03*
X58663Y112663D03*
X68163D03*
X58663Y123687D03*
X68163D03*
X61800Y238910D03*
Y227887D03*
X107657Y281288D03*
Y292312D03*
X115500Y172988D03*
Y184012D03*
X109400Y224737D03*
Y213713D03*
X125800Y202990D03*
Y214013D03*
X124800Y239210D03*
Y228187D03*
X157800Y270912D03*
Y259888D03*
X180000Y101488D03*
Y112512D03*
X162500Y172176D03*
X180100Y173488D03*
X162500Y183200D03*
X180100Y184512D03*
X172900Y225037D03*
Y214013D03*
X182500Y215012D03*
Y203988D03*
X167400Y259888D03*
Y270912D03*
X164900Y281288D03*
Y292312D03*
X189600Y101488D03*
Y112512D03*
X192500Y203988D03*
Y215012D03*
X205000Y252488D03*
X205500Y242012D03*
Y230988D03*
X205000Y263512D03*
X218200Y63512D03*
Y52488D03*
Y71888D03*
Y82912D03*
X221000Y175488D03*
Y186512D03*
X215000Y242012D03*
Y230988D03*
X215500Y252488D03*
Y263512D03*
G54D41*
X115875Y89641D03*
X119221D03*
X122568D03*
X125914D03*
X129261D03*
X132607D03*
Y144759D03*
X129261D03*
X125914D03*
X122568D03*
X119221D03*
X115875D03*
X135954Y89641D03*
X139300D03*
X142646D03*
X145993D03*
X149339D03*
X152686D03*
X156032D03*
Y144759D03*
X152686D03*
X149339D03*
X145993D03*
X142646D03*
X139300D03*
X135954D03*
X159379Y89641D03*
X162725D03*
Y144759D03*
X159379D03*
G54D32*
X88416Y44946D03*
Y115812D03*
G54D23*
X50001Y72198D03*
X51576D03*
X53151D03*
Y95427D03*
X51576D03*
X50001D03*
X54726Y72198D03*
X56300D03*
X57875D03*
X59450D03*
X61025D03*
X62600D03*
X64174D03*
X65749D03*
X67324D03*
Y95427D03*
X65749D03*
X64174D03*
X62600D03*
X61025D03*
X59450D03*
X57875D03*
X56300D03*
X54726D03*
G54D60*
G01X165710Y306380D02*
Y312290D01*
X162500Y315500D01*
X105500D01*
X101967Y311967D01*
Y306380D01*
G54D51*
X204242Y80099D03*
G54D33*
X86100Y209087D03*
Y232513D03*
X148100Y209387D03*
Y232813D03*
G54D42*
X111741Y89641D03*
Y144759D03*
X166859Y89641D03*
Y144759D03*
G54D24*
X58663Y83813D03*
G54D15*
X26088Y87941D03*
Y78300D03*
X25026Y209608D03*
X22912Y272800D03*
X11888D03*
X29228Y295000D03*
X48488Y57500D03*
X37112Y87941D03*
Y78300D03*
X36050Y209608D03*
X51088Y213700D03*
X50488Y273500D03*
X39465D03*
X51276Y305500D03*
X40252D03*
Y295000D03*
X59512Y57500D03*
X62112Y213700D03*
X59988Y273500D03*
X71012D03*
X60567Y297100D03*
X71591D03*
X106526Y49825D03*
X95502Y60625D03*
X106526D03*
X98512Y92000D03*
X87488D03*
X95512Y77000D03*
X84488D03*
X98512Y101500D03*
X87488D03*
X86100Y245900D03*
X97124D03*
X117549Y49825D03*
X128573Y60625D03*
X117549D03*
X154188Y60900D03*
X148512Y248500D03*
X137488D03*
X165212Y60900D03*
X179488Y161500D03*
X180012Y194000D03*
X168988D03*
X190512Y161500D03*
X204988Y275500D03*
X216012D03*
G54D61*
G01X101967Y301100D02*
Y306380D01*
G01X113778D02*
Y301100D01*
G01X177521Y306380D02*
Y301521D01*
X177500Y301500D01*
G01X165710Y298000D02*
Y306380D01*
G54D34*
X86100Y220800D03*
X148100Y221100D03*
G54D25*
X43854Y111500D03*
X50546D03*
G54D43*
X111741Y117200D03*
Y113854D03*
Y110507D03*
Y107161D03*
Y103814D03*
Y100468D03*
Y97121D03*
Y93775D03*
Y140625D03*
Y137279D03*
Y133932D03*
Y130586D03*
Y127239D03*
Y123893D03*
Y120546D03*
X166859Y93775D03*
Y97121D03*
Y100468D03*
Y103814D03*
Y107161D03*
Y110507D03*
Y113854D03*
Y117200D03*
Y120546D03*
Y123893D03*
Y127239D03*
Y130586D03*
Y133932D03*
Y137279D03*
Y140625D03*
G54D16*
X31419Y251237D03*
Y243363D03*
G54D52*
X205367Y106000D03*
Y111000D03*
Y116000D03*
Y126000D03*
Y121000D03*
X221233Y106000D03*
Y111000D03*
Y116000D03*
Y121000D03*
Y126000D03*
G54D62*
G01X26088Y87941D02*
X25529Y88500D01*
X20500D01*
G01X26088Y78300D02*
Y72088D01*
G01X25501Y110786D02*
Y116499D01*
G01Y99762D02*
X35000D01*
G01X25026Y209608D02*
X24408D01*
G01X28766D02*
X25026D01*
G01X29228Y295000D02*
X23000D01*
G01X48488Y57500D02*
Y51488D01*
G01X37429Y43049D02*
X44500D01*
G01X53571D02*
X49500D01*
G01X35000Y110786D02*
Y116500D01*
G01Y99762D02*
X41500D01*
G01X50546Y111500D02*
X50500Y111546D01*
Y118000D01*
G01X39465Y273500D02*
Y267035D01*
G01X62800Y47812D02*
X56688D01*
G01X59512Y57500D02*
X64174Y62163D01*
Y64500D01*
G01X58663Y123687D02*
Y129500D01*
G01X68163Y123687D02*
Y129500D01*
G01X63729Y314651D02*
X79871D01*
G01X95502Y60625D02*
X89125D01*
G01X95512Y77000D02*
Y71012D01*
G01X98512Y92000D02*
X104000D01*
G01X87488D02*
Y101500D01*
G01X98512D02*
Y108012D01*
G01X87488Y101500D02*
X81000D01*
G01X107657Y292312D02*
X102307D01*
X102281Y292286D01*
X99014D01*
X97600Y293700D01*
Y301300D01*
X99408Y303108D01*
Y306380D01*
G01X109783Y40089D02*
Y43783D01*
G01X128573Y60625D02*
Y66927D01*
G01X115500Y184012D02*
X109012D01*
G01X131600Y253800D02*
X148712Y270912D01*
X157800D01*
G01X148500Y16567D02*
Y8500D01*
X150000Y7000D01*
X191000D01*
X200000Y16000D01*
Y21500D01*
X211500Y33000D01*
X219000D01*
X228000Y42000D01*
Y94000D01*
G01X153500Y16567D02*
Y23500D01*
X154914Y24914D01*
X159914D01*
G01X158500Y16567D02*
Y23500D01*
X159914Y24914D01*
G01X162500Y172176D02*
X154324D01*
X153300Y173200D01*
X148800D01*
G01X157800Y270912D02*
X167400D01*
G01X174000Y24500D02*
X171000D01*
X170586Y24914D01*
X159914D01*
G01X180000Y101488D02*
Y96000D01*
G01X189600Y101488D02*
X180000D01*
G01X193181Y18722D02*
X188322D01*
G01X189600Y96100D02*
Y101488D01*
G01X205367Y126000D02*
Y130000D01*
G01X205500Y242012D02*
X199512D01*
G01X221233Y126000D02*
Y130233D01*
G01X221000Y175488D02*
X214988D01*
G01X217500Y221630D02*
Y214500D01*
X222000Y210000D01*
Y187512D01*
X221000Y186512D01*
G01X217500Y200370D02*
Y207000D01*
G01X212500Y221630D02*
Y228488D01*
X215000Y230988D01*
G01Y242012D02*
X226532D01*
X228020Y243500D01*
G54D53*
X207500Y200370D03*
X202500D03*
Y221630D03*
X207500D03*
X217500Y200370D03*
X212500D03*
Y221630D03*
X217500D03*
G54D35*
X97479Y310612D03*
X120235D03*
X161222D03*
X183978D03*
G54D26*
X33200Y149305D03*
Y174895D03*
G54D17*
X8781Y234111D03*
Y260489D03*
G54D44*
X139300Y117200D03*
G54D63*
G01X125800Y214013D02*
X122013D01*
X119500Y211500D01*
Y206000D01*
X115000Y201500D01*
Y198000D01*
X90500Y173500D01*
G01X115500Y172988D02*
X128588D01*
X128800Y173200D01*
G01X162000Y190000D02*
X134500D01*
X128800Y184300D01*
Y173200D01*
G01X136387Y214013D02*
X125800D01*
G01X168988Y194000D02*
X164988Y190000D01*
X162000D01*
G54D45*
X128800Y173200D03*
G54D36*
X103935Y306380D03*
X101967D03*
X105904D03*
X113778D03*
X109841D03*
X107872D03*
X111810D03*
X115746D03*
X177521D03*
X173584D03*
X171616D03*
X167679D03*
X165710D03*
X169647D03*
X175553D03*
X179490D03*
G54D18*
X20016Y284476D03*
X80921Y198374D03*
G54D27*
X30410D03*
X40646D03*
X50646D03*
X50488Y284476D03*
X40252D03*
X30252D03*
X60724Y198374D03*
X70685D03*
X70803Y284476D03*
X60567D03*
G54D54*
X190500Y251000D03*
G54D64*
G01X37112Y72112D02*
Y78300D01*
G01X48750Y98250D02*
X47238Y99762D01*
X41500D01*
G01X61800Y227887D02*
Y222300D01*
X60739Y221239D01*
X48261D01*
X46500Y223000D01*
Y225500D01*
X44500Y227500D01*
X32000D01*
G01X63729Y320950D02*
X67950D01*
G01X111741Y144759D02*
X104259D01*
G01X94500Y164500D02*
X88750D01*
X85500Y167750D01*
Y189500D01*
X102000Y206000D01*
X113000D01*
X115500Y208500D01*
Y218000D01*
X117500Y220000D01*
X124000D01*
X126000Y222000D01*
Y226987D01*
G01X79871Y320950D02*
X83950D01*
G01X91849Y308643D02*
X94113Y306380D01*
X96258D01*
G01X115492Y35561D02*
X118939D01*
X119500Y35000D01*
G01X111741Y117200D02*
X125000D01*
G01X111741Y107161D02*
X109661D01*
X107500Y105000D01*
G01X126000Y226987D02*
X124800Y228187D01*
G01X125865Y308643D02*
X123601Y306380D01*
X121455D01*
G01X141081Y308188D02*
X136588D01*
G01X155592Y308643D02*
X157856Y306380D01*
X160002D01*
G01X166859Y100468D02*
X173000D01*
X174020Y101488D01*
X180000D01*
G01X166859Y144759D02*
X171097Y144759D01*
G01X159813Y214013D02*
X172900D01*
G01X189608Y308643D02*
X187344Y306380D01*
X185198D01*
G54D28*
X47566Y251500D03*
X55834Y247760D03*
Y255240D03*
G54D37*
X96258Y306380D03*
X99408D03*
X121455D03*
X118306D03*
X185198D03*
X182049D03*
X160002D03*
X163151D03*
G54D19*
X38500Y10000D03*
Y321500D03*
X198500Y10000D03*
G54D46*
X148500Y16567D03*
X153500D03*
X158500D03*
X148500Y32433D03*
X153500D03*
X158500D03*
X163500Y16567D03*
X168500D03*
Y32433D03*
X163500D03*
G54D55*
X190500Y269504D03*
Y288008D03*
X228020Y243500D03*
Y295508D03*
G54D65*
G01X11888Y272800D02*
Y278612D01*
G01X51088Y213700D02*
Y207588D01*
G01X52400Y227888D02*
X49788Y230500D01*
X46000D01*
G01X50481Y318324D02*
X55824D01*
G01X74387Y220800D02*
X68300D01*
G01X61800Y238910D02*
X67810D01*
G01X86100Y209087D02*
X91587D01*
G54D56*
G01X122300Y222962D02*
X120538D01*
X119750Y223750D01*
Y229018D01*
X117250Y231518D01*
Y252482D01*
X154250Y289482D01*
Y294464D01*
X155725Y295940D01*
G01X117100Y223200D02*
X118500Y224600D01*
Y228500D01*
X116000Y231000D01*
Y253000D01*
X153000Y290000D01*
Y294464D01*
X151525Y295940D01*
G01X109841Y306380D02*
Y302775D01*
X109482Y302416D01*
Y299767D01*
X110957Y298292D01*
G01X107872Y306380D02*
Y302775D01*
X108232Y302416D01*
Y299767D01*
X106757Y298292D01*
G01X111810Y306380D02*
X109841D01*
G01X105904D02*
X107872D01*
G01X135954Y144759D02*
Y147459D01*
X137002Y148507D01*
Y154525D01*
X135527Y156000D01*
G01X139300Y144759D02*
Y147459D01*
X138252Y148507D01*
Y154525D01*
X139727Y156000D01*
G01X173584Y306380D02*
Y309984D01*
X173225Y310343D01*
Y312992D01*
X174700Y314467D01*
G01X175553Y306380D02*
X173584D01*
G01X171616D02*
Y309984D01*
X171975Y310343D01*
Y312992D01*
X170500Y314467D01*
G01X169647Y306380D02*
X171616D01*
G54D38*
X91849Y308643D03*
X125865D03*
X155592D03*
X189608D03*
G54D47*
X148800Y173200D03*
X138800Y183200D03*
G54D29*
X50481Y318324D03*
X64600Y255100D03*
X116957Y292700D03*
X141081Y308188D03*
X182500Y299000D03*
X193181Y18722D03*
X188500Y192500D03*
X205000Y284000D03*
X225000Y255500D03*
G54D66*
G01X0Y0D02*
X236213D01*
Y335275D01*
X0D01*
Y0D01*
G54D57*
G01X56300Y95427D02*
Y92300D01*
X57101Y91500D01*
X58500D01*
G01X70277Y86175D02*
X67300D01*
X66500Y85375D01*
Y84000D01*
G54D48*
X173641Y282665D03*
X176200D03*
X178759D03*
Y290735D03*
X176200D03*
X173641D03*
G54D39*
X91849Y325100D03*
X125865D03*
X155592D03*
X189608D03*
G54D58*
G01X142646Y144759D02*
Y158854D01*
X139000Y162500D01*
X103500D01*
X98500Y157500D01*
X67500D01*
X41000Y131000D01*
X26500D01*
X7000Y111500D01*
Y88222D01*
X9922Y85300D01*
X14400D01*
G01X145993Y144759D02*
Y159507D01*
X140000Y165500D01*
X101000D01*
X97000Y161500D01*
X66000D01*
X39000Y134500D01*
X26000D01*
X5000Y113500D01*
Y79000D01*
X8700Y75300D01*
X14400D01*
G01X37112Y87941D02*
X32052Y93000D01*
X20500D01*
X18000Y90500D01*
X11197D01*
X9500Y92197D01*
Y109500D01*
X28000Y128000D01*
X43500D01*
X66000Y150500D01*
X96500D01*
X106000Y160000D01*
X120500D01*
X122500Y158000D01*
Y154000D01*
G01X47049Y84600D02*
X44900D01*
X43000Y86500D01*
Y93500D01*
X41138Y95362D01*
X20638D01*
X19500Y96500D01*
Y115500D01*
X28500Y124500D01*
X45500D01*
X65000Y144000D01*
X97000D01*
X110000Y157000D01*
X120000D01*
G01X50001Y72198D02*
Y69001D01*
X48000Y67000D01*
X43500D01*
X37500Y61000D01*
Y55500D01*
X28000Y46000D01*
Y34586D01*
X48586Y14000D01*
X106000D01*
X113000Y21000D01*
X117000D01*
X118000Y20000D01*
X125500D01*
X145500Y40000D01*
X157600D01*
X158500Y39100D01*
Y32433D01*
G01X65749Y72198D02*
Y69251D01*
X67500Y67500D01*
Y54000D01*
X66000Y52500D01*
X57000D01*
X53000Y48500D01*
X37000D01*
X33500Y45000D01*
Y35000D01*
X37500Y31000D01*
X83000D01*
X86000Y34000D01*
X94000D01*
X98000Y30000D01*
X123000D01*
X141500Y48500D01*
X174000D01*
X182500Y57000D01*
Y82153D01*
X196000Y95653D01*
Y108286D01*
X198714Y111000D01*
X205367D01*
G01X51576Y72198D02*
Y66576D01*
X48500Y63500D01*
X44500D01*
X41000Y60000D01*
Y55500D01*
X31000Y45500D01*
Y34586D01*
X37586Y28000D01*
X64000D01*
X67000Y25000D01*
Y19500D01*
X70000Y16500D01*
X105000D01*
X114000Y25500D01*
X126000D01*
X143500Y43000D01*
X177143D01*
X194242Y60099D01*
G01X37429Y36750D02*
X53571D01*
G01X37112Y78300D02*
X37113Y78301D01*
X47049D01*
G01Y83025D02*
X42027D01*
X37112Y87941D01*
G01X51576Y95427D02*
X50001D01*
G01D02*
Y96999D01*
X48750Y98250D01*
G01X53151Y95427D02*
Y98349D01*
X43854Y107646D01*
Y111500D01*
G01X54726Y95427D02*
Y102774D01*
X50546Y106954D01*
Y111500D01*
G01X40624Y220661D02*
X34439D01*
G01X50488Y273500D02*
Y284476D01*
G01Y273500D02*
X59988D01*
G01X51276Y305500D02*
X51261Y305486D01*
Y296361D01*
G01X40252Y284476D02*
Y295000D01*
G01D02*
Y305500D01*
G01X72300Y36788D02*
X62800D01*
G01D02*
X62762Y36750D01*
X53571D01*
G01X72300Y36788D02*
X98712D01*
X103500Y32000D01*
X121000D01*
X140000Y51000D01*
X172500D01*
G01X64174Y72198D02*
Y64500D01*
G01X72300Y47812D02*
Y54800D01*
X78000Y60500D01*
Y79500D01*
X74500Y83000D01*
X70302D01*
X70277Y83025D01*
G01X87488Y92000D02*
X87014Y92474D01*
X70277D01*
G01Y87750D02*
X73739D01*
X79494Y81994D01*
G01D02*
X84488Y77000D01*
G01X70277Y76726D02*
X72726D01*
X74500Y78500D01*
G01X70277Y89324D02*
X76176D01*
X81500Y84000D01*
X99200D01*
X101000Y82200D01*
Y76000D01*
X106500Y70500D01*
Y60651D01*
X106526Y60625D01*
G01X70277Y90899D02*
X77601D01*
X82500Y86000D01*
X100000D01*
X103000Y83000D01*
Y77000D01*
X110500Y69500D01*
X116000D01*
X117549Y67951D01*
Y60625D01*
G01X67324Y72198D02*
X70302D01*
G01X70277Y75151D02*
X72349D01*
X74500Y73000D01*
G01X57875Y95427D02*
Y98246D01*
X57000Y99122D01*
Y105000D01*
X56000Y106000D01*
G01X59450Y95427D02*
Y99950D01*
X61500Y102000D01*
G01X58663Y112663D02*
Y108313D01*
X61500Y105476D01*
Y102000D01*
G01X65749Y95427D02*
Y103249D01*
X68163Y105663D01*
Y112663D01*
G01D02*
X73663D01*
X76500Y115500D01*
Y122500D01*
X79751Y125751D01*
X84751D01*
X96279Y137279D01*
X106221D01*
G01X71012Y273500D02*
Y267012D01*
G01X78000Y264500D02*
X119500D01*
G01X71591Y297100D02*
X77200D01*
G01X60567Y284476D02*
Y297100D01*
G01X109783Y35561D02*
X106939D01*
X104500Y38000D01*
Y43000D01*
X106526Y45026D01*
Y49825D01*
G01X89000Y31000D02*
X92000Y28000D01*
X124500D01*
X142500Y46000D01*
X176500D01*
X187000Y56500D01*
Y82500D01*
X200000Y95500D01*
X210000D01*
X213000Y98500D01*
Y110000D01*
X214000Y111000D01*
X221233D01*
G01X111741Y127239D02*
X100500D01*
X96000Y131739D01*
G01X111741Y133932D02*
X103432D01*
X101500Y132000D01*
G01X114000Y14000D02*
X141500D01*
X143500Y12000D01*
G01X117549Y49825D02*
Y42146D01*
X115492Y40089D01*
G01X114000Y17500D02*
X128600D01*
X129600Y18500D01*
X141500D01*
G01X106526Y60625D02*
Y49825D01*
G01X117549Y60625D02*
Y49825D01*
G01X111741Y110507D02*
X115479D01*
G01X111741Y93775D02*
X118132D01*
X121479Y97121D01*
G01X111741Y113854D02*
X107500D01*
G01X166859Y103814D02*
X163121D01*
X159807Y100500D01*
X118857D01*
X115479Y97121D01*
X111741D01*
G01X119221Y144759D02*
Y147279D01*
X117950Y148550D01*
X112950D01*
X111000Y150500D01*
Y154500D01*
G01X118500Y130586D02*
X111741D01*
G01X122568Y144759D02*
Y147932D01*
X119000Y151500D01*
X114000D01*
G01X111741Y120546D02*
X123546D01*
X126000Y123000D01*
Y132000D01*
X130000Y136000D01*
X139000D01*
G01X111741Y123893D02*
X121479D01*
G01X111741Y137279D02*
X106221D01*
G01X129261Y148497D02*
Y144759D01*
G01X111741Y140625D02*
X115875D01*
X118050Y138450D01*
X145911D01*
X149339Y135021D01*
G01X125914Y144759D02*
Y150586D01*
X122500Y154000D01*
G01X153500Y32433D02*
Y27500D01*
X150500Y24500D01*
X147000D01*
X145000Y22500D01*
Y13500D01*
X143500Y12000D01*
G01X148500Y32433D02*
X145933D01*
X141500Y28000D01*
Y18500D01*
G01X166859Y113854D02*
X160854D01*
X157500Y110500D01*
G01X166859Y120546D02*
X162860D01*
X157121Y126285D01*
G01X156032Y144759D02*
Y138968D01*
X160500Y134500D01*
G01X138800Y183200D02*
X162500D01*
G01X157800Y259888D02*
X152612Y254700D01*
X152200D01*
G01X174000Y32433D02*
X168500D01*
G01X174000D02*
X185000D01*
X193155Y40588D01*
X221088D01*
X225400Y44900D01*
Y95077D01*
X227000Y96677D01*
Y100500D01*
G01X166859Y110507D02*
X163121D01*
G01X166859Y117200D02*
X163121D01*
G01X166859Y137279D02*
X172000D01*
X174000Y139279D01*
Y148500D01*
X169500Y153000D01*
Y181200D01*
X167500Y183200D01*
X162500D01*
G01X166859Y123893D02*
X163121D01*
G01X166859Y130586D02*
X191608D01*
X194347Y127846D01*
G01X166859Y140625D02*
X171375D01*
G01X162725Y144759D02*
Y141959D01*
X160266Y139500D01*
G01X159379Y144759D02*
Y147879D01*
X161000Y149500D01*
X163500D01*
G01X166859Y127239D02*
X189761D01*
X193000Y124001D01*
G01X180100Y184512D02*
X175350D01*
X173000Y182162D01*
Y158500D01*
G01D02*
X176488D01*
X179488Y161500D01*
G01X180012Y194000D02*
X180100Y193912D01*
Y184512D01*
G01D02*
X190791D01*
X190829Y184550D01*
G01X205367Y116000D02*
X198714D01*
X198000Y116714D01*
Y119000D01*
X193000Y124001D01*
G01X205367Y121000D02*
X201194D01*
X194347Y127846D01*
G01X206971Y184550D02*
X190829D01*
G01X221233Y116000D02*
X228000D01*
X229000Y115000D01*
Y102500D01*
X227000Y100500D01*
G01X221233Y121000D02*
X227886D01*
X229000Y122114D01*
Y130500D01*
X227000Y132500D01*
G54D49*
X176200Y286700D03*
G54D59*
G01X1300Y350931D02*
Y346931D01*
X3300D01*
G01X6009Y350931D02*
X5609Y350798D01*
X5309Y350464D01*
X5109Y350064D01*
X4959Y349531D01*
X4909Y348931D01*
X4959Y348331D01*
X5109Y347798D01*
X5309Y347398D01*
X5609Y347064D01*
X6009Y346931D01*
X6409Y347064D01*
X6709Y347398D01*
X6909Y347798D01*
X7059Y348331D01*
X7109Y348931D01*
X7059Y349531D01*
X6909Y350064D01*
X6709Y350464D01*
X6409Y350798D01*
X6009Y350931D01*
G01X9717Y346931D02*
Y350931D01*
X9117Y350131D01*
G01Y346931D02*
X10317D01*
G01X11926Y345598D02*
X14926D01*
G01X17135Y350931D02*
Y346931D01*
G01X15985Y350931D02*
X18285D01*
G01X20844Y346931D02*
X20443Y346998D01*
X20094Y347264D01*
X19794Y347664D01*
X19593Y348131D01*
X19494Y348664D01*
Y349198D01*
X19593Y349731D01*
X19794Y350198D01*
X20094Y350598D01*
X20443Y350864D01*
X20844Y350931D01*
X21244Y350864D01*
X21594Y350598D01*
X21894Y350198D01*
X22094Y349731D01*
X22194Y349198D01*
Y348664D01*
X22094Y348131D01*
X21894Y347664D01*
X21594Y347264D01*
X21244Y346998D01*
X20844Y346931D01*
G01X23552D02*
Y350931D01*
X24752D01*
X25152Y350731D01*
X25452Y350264D01*
X25552Y349731D01*
X25452Y349198D01*
X25202Y348798D01*
X24752Y348598D01*
X23552D01*
M02*
