M48
INCH,LZ
T01C.012
T02C.025591
T03C.035433
T04C.04
T05C.043307
T06C.043701
T07C.046063
T08C.072835
T09C.086614
T10C.125984
T11C.025591
;LEADER: 12 
;HEADER: 
;CODE  : ASCII 
;FILE  : SENTINEL_FALL_V01-1-4.drl for  ... layers TOP and BOTTOM
;DESIGN: SENTINEL_FALL_V01.brd
;T01 Holesize 1. = 12.000000 Tolerance = +0.000000/-0.000000 PLATED MILS Quantity = 272
;T02 Holesize 2. = 25.591000 Tolerance = +0.000000/-0.000000 PLATED MILS Quantity = 3
;T03 Holesize 3. = 35.433000 Tolerance = +0.000000/-0.000000 PLATED MILS Quantity = 2
;T04 Holesize 4. = 40.000000 Tolerance = +0.000000/-0.000000 PLATED MILS Quantity = 12
;T05 Holesize 5. = 43.307000 Tolerance = +0.000000/-0.000000 PLATED MILS Quantity = 6
;T06 Holesize 6. = 43.701000 Tolerance = +0.000000/-0.000000 PLATED MILS Quantity = 6
;T07 Holesize 7. = 46.063000 Tolerance = +0.000000/-0.000000 PLATED MILS Quantity = 8
;T08 Holesize 8. = 72.835000 Tolerance = +0.000000/-0.000000 PLATED MILS Quantity = 5
;T09 Holesize 9. = 86.614000 Tolerance = +0.000000/-0.000000 PLATED MILS Quantity = 2
;T10 Holesize 10. = 125.984000 Tolerance = +0.000000/-0.000000 PLATED MILS Quantity = 4
;T11 Holesize 11. = 25.591000 Tolerance = +0.000000/-0.000000 NON_PLATED MILS Quantity = 4
%
G90
T01
X016312Y01172
X01225Y0154
X0227Y01325
X01725Y0051
X0174Y003243
X0227Y01005
X014934Y013502
X0114Y00175
X00745Y0073
X01415Y00185
X0193Y0124
X0089Y0031
X00703Y00722
X01635Y01495
X016027Y01395
X01605Y01345
X017137Y014063
X016282Y0239
X016281Y02338
X012926Y01485
X012Y0157
X0114Y0014
X00745Y00785
X01435Y0012
X019435Y012785
X016312Y012389
X015712Y012628
X010622Y013728
X01015Y0132
X00615Y0102
X0056Y0106
X007949Y008199
X013973Y0156
X010676Y029829
X013553Y0156
X011096Y029829
X00505Y0118
X00945Y01645
X01075Y0105
X0032Y02275
X0125Y01172
X01387Y02545
X01195Y02645
X0078
X012148Y012389
X0139Y0136
X01705Y031447
X015152Y029594
X01171Y02232
X01747Y031447
X015573Y029594
X01223Y022296
X01316Y02538
X01522Y02547
X0162Y019
X01995Y0226
Y0232
X021499Y017549
X0228Y0094
X0223Y01015
X0218
X0207Y0102
X02015
X006816Y01295
X005866
X01896Y00961
X018Y0096
X0081Y01015
X00415Y009976
X0221Y00895
X02155
X003711Y007211
X006417Y00645
X01575Y01105
X003444Y022066
X016312Y011051
X005126Y029636
X0114Y01515
X00772Y02971
X01185Y013059
X0096Y013174
X01595Y0055
X01505
X00905Y0168
X0019Y0037
X00144
X00905Y01735
X01299Y0009
X01345
X01705Y02975
X0174
X014135Y02278
X01109Y02007
X01195Y02005
X01222Y01976
X016571Y0298
X010197Y03011
X01775Y03015
X011378Y03011
X00723Y02071
X00603
X0195Y0198
X0189
X02075Y0269
X02015
X0158Y02513
X0154Y02514
X00809Y02466
Y02528
X0089Y02525
X00672Y02599
R02X-0006
X01625Y0247
X007101Y026701
X0111Y01545
X01075Y011385
X0173Y01585
X012148Y009712
X011548Y011051
X008913Y006063
X012857Y006693
X010978Y004378
X003946Y026704
X0023Y0295
X016Y0084
X01275Y0085
X01715Y0096
X01215Y01035
X01535Y0094
R04X-0007
X01955Y0168
X01895
X01695Y0085
X0221Y00465
X0215
X00225Y0064
Y0069
X02105Y02105
Y0215
X01985Y02125
Y0217
X018Y0234
R02Y00075
X019951Y024201
X02175Y0207
X02205Y0282
X0214
X022Y02695
X0214
X01323Y01102
R02X0007
Y01172
Y01242
X01393
X01323
Y01172
X0166Y02285
X008395Y032095
X006795
X01315Y0244
X01285Y0248
X0123Y02695
X01305Y0277
X010426Y014476
X0104Y01015
Y00965
X0051Y00915
Y00835
Y0076
X00585
X00665
Y0084
Y00915
X00585
X005866Y008381
X0174Y0013
Y0019
Y00245
X013659Y030819
X005582Y031832
X01456Y02773
X01526
X01732Y02638
Y02578
X01592Y02834
Y02779
X0181Y0276
X01765
X017814Y02867
X017424
X01136Y02756
X00996
X01066
X001189Y027861
X01436Y02355
X01507Y02426
X01436Y02427
X01472Y02391
X006781Y023891
X0046Y02305
X00393Y02382
R02X-0007
X0132Y0201
X01446Y02008
X01516
X01376
X01546Y02284
X010241Y020101
X01056Y02008
X01146Y02567
X01076
X00947Y02528
X01007
X01058Y02369
Y02439
X00978Y02329
Y02399
X009159Y020909
X00683Y02208
X00822Y02169
X009
Y02247
X00822
X00861Y02208
X005109Y020759
X002441Y020961
X010901Y018401
X01771Y01679
X01831
X007233Y016667
X022123Y013023
X020537Y013
X01711Y014476
X00897Y01372
X008381Y013119
X00896Y01471
X008381Y015319
X00292Y01372
X01935Y01185
X01875
X01755
X01393Y01172
X009851Y010801
X0035Y01165
X00255Y01165
X01775Y00804
X014274Y008276
X01718Y00895
X01182Y00854
X01112
X0104Y0092
X009551Y007101
X002609Y007209
X00205Y00885
X0171Y00605
Y00665
X005669Y004781
X00495Y004305
X00445
X004849Y005149
X018832Y001872
X01794Y004045
X01197Y00227
X01295Y00445
X01195Y0035
T02
X01288Y01732
X01388Y01832
X01488Y01732
T03
X00332Y01493
Y01749
T04
X002002Y028448
X003025
X004025
X005049
X006057
X00708
X008092Y019837
X007069
X006072
X005065
X004065
X003041
T05
X0052Y002208
R05X001
T06
X00144Y00553
R05Y001
T07
X020424Y00801
R03Y-001
X019424
R03Y001
T08
X022802Y02435
Y029551
X01905Y0251
Y02695
Y028801
T09
X008842Y011581
Y004495
T10
X0016Y0016
Y031928
X022021Y0016
Y031928
T11
X012023Y031061
X009748
X018398
X016122
M30
