G04*
G04 #@! TF.GenerationSoftware,Altium Limited,Altium Designer,24.6.1 (21)*
G04*
G04 Layer_Color=8421504*
%FSLAX24Y24*%
%MOIN*%
G70*
G04*
G04 #@! TF.SameCoordinates,91F66E80-D4C5-4370-B577-81E2DE0E6F9A*
G04*
G04*
G04 #@! TF.FilePolarity,Positive*
G04*
G01*
G75*
%ADD20C,0.0433*%
G04:AMPARAMS|DCode=21|XSize=43.3mil|YSize=39.4mil|CornerRadius=3mil|HoleSize=0mil|Usage=FLASHONLY|Rotation=180.000|XOffset=0mil|YOffset=0mil|HoleType=Round|Shape=RoundedRectangle|*
%AMROUNDEDRECTD21*
21,1,0.0433,0.0335,0,0,180.0*
21,1,0.0374,0.0394,0,0,180.0*
1,1,0.0059,-0.0187,0.0167*
1,1,0.0059,0.0187,0.0167*
1,1,0.0059,0.0187,-0.0167*
1,1,0.0059,-0.0187,-0.0167*
%
%ADD21ROUNDEDRECTD21*%
%ADD22O,0.0669X0.0354*%
%ADD23O,0.0787X0.0354*%
%ADD24R,0.0366X0.0445*%
%ADD25R,0.0106X0.0118*%
%ADD26R,0.0335X0.0374*%
%ADD27R,0.0551X0.0295*%
%ADD28O,0.0118X0.0335*%
%ADD29O,0.0335X0.0118*%
%ADD30R,0.1378X0.1378*%
%ADD31R,0.0453X0.0177*%
%ADD32O,0.0098X0.0335*%
%ADD33O,0.0240X0.0071*%
%ADD34O,0.0071X0.0240*%
%ADD35R,0.0236X0.0394*%
%ADD36C,0.0167*%
%ADD37C,0.0098*%
%ADD38O,0.0256X0.0079*%
%ADD39O,0.0079X0.0256*%
%ADD40R,0.1850X0.1850*%
%ADD41R,0.0728X0.1358*%
%ADD42R,0.1083X0.0551*%
%ADD43R,0.0591X0.0394*%
%ADD44R,0.0118X0.0106*%
%ADD45R,0.0236X0.0217*%
%ADD46R,0.0217X0.0236*%
%ADD47R,0.0433X0.0630*%
%ADD48R,0.0197X0.0157*%
%ADD49R,0.0236X0.0236*%
%ADD50R,0.0157X0.0236*%
%ADD51R,0.0400X0.1130*%
%ADD52R,0.0299X0.0945*%
%ADD53R,0.0402X0.0862*%
%ADD54R,0.0300X0.0320*%
%ADD55R,0.0445X0.0717*%
%ADD56R,0.0717X0.0445*%
%ADD57R,0.0295X0.0315*%
%ADD58R,0.0236X0.1024*%
%ADD59R,0.0118X0.0315*%
%ADD60R,0.0315X0.0295*%
%ADD61R,0.0228X0.0197*%
%ADD62R,0.0197X0.0256*%
%ADD63R,0.0394X0.0335*%
%ADD64R,0.0236X0.0335*%
%ADD65R,0.0315X0.0295*%
%ADD66R,0.0197X0.0236*%
%ADD67R,0.0236X0.0197*%
%ADD68R,0.0449X0.0236*%
%ADD69R,0.0449X0.0118*%
D20*
X35454Y12681D02*
G03*
X35454Y12681I-98J0D01*
G01*
D21*
X9610Y5537D02*
D03*
X9099D02*
D03*
X8587D02*
D03*
X8075D02*
D03*
Y6010D02*
D03*
X8587D02*
D03*
X9099D02*
D03*
X9610D02*
D03*
X8075Y6482D02*
D03*
X8587D02*
D03*
X9099D02*
D03*
X9610D02*
D03*
X8075Y6954D02*
D03*
X8587D02*
D03*
X9099D02*
D03*
X9610D02*
D03*
D22*
X1071Y11199D02*
D03*
Y7797D02*
D03*
D23*
X2716D02*
D03*
Y11199D02*
D03*
D24*
X36573Y10095D02*
D03*
Y10618D02*
D03*
Y11142D02*
D03*
X36128Y10095D02*
D03*
Y10618D02*
D03*
Y11142D02*
D03*
X35683Y10095D02*
D03*
Y10618D02*
D03*
Y11142D02*
D03*
D25*
X41642Y14067D02*
D03*
X41417D02*
D03*
X40350Y14067D02*
D03*
X40574D02*
D03*
X40350Y13829D02*
D03*
X40575D02*
D03*
X40575Y14271D02*
D03*
X40350D02*
D03*
X12914Y9950D02*
D03*
X12689D02*
D03*
X12914Y10200D02*
D03*
X12689D02*
D03*
X8557Y16501D02*
D03*
X8332D02*
D03*
X10281Y20664D02*
D03*
X10506D02*
D03*
X9779D02*
D03*
X10004D02*
D03*
X6139Y6500D02*
D03*
X6364D02*
D03*
Y6700D02*
D03*
X6139D02*
D03*
X10004Y20260D02*
D03*
X9779D02*
D03*
X5342Y4974D02*
D03*
X5567D02*
D03*
X12689Y9200D02*
D03*
X12914D02*
D03*
X12689Y9450D02*
D03*
X12914D02*
D03*
X12689Y9700D02*
D03*
X12914D02*
D03*
X12689Y8950D02*
D03*
X12914D02*
D03*
Y8700D02*
D03*
X12689D02*
D03*
X10541Y6570D02*
D03*
X10766D02*
D03*
X40784Y14067D02*
D03*
X41009D02*
D03*
X10236Y17860D02*
D03*
X10461D02*
D03*
X10004Y20024D02*
D03*
X9779D02*
D03*
X6139Y6300D02*
D03*
X6364D02*
D03*
X8748Y21579D02*
D03*
X8523D02*
D03*
X9496Y7935D02*
D03*
X9272D02*
D03*
X10769Y6330D02*
D03*
X10544D02*
D03*
X35260Y9410D02*
D03*
X35035D02*
D03*
X6852Y5315D02*
D03*
X7076D02*
D03*
X6852Y6131D02*
D03*
X7076D02*
D03*
X6852Y7245D02*
D03*
X7076D02*
D03*
X37810Y15527D02*
D03*
X38034D02*
D03*
X39594Y12428D02*
D03*
X39370D02*
D03*
X40350Y14467D02*
D03*
X40574D02*
D03*
X38360Y15527D02*
D03*
X38585D02*
D03*
D26*
X11233Y8049D02*
D03*
X11685D02*
D03*
Y7478D02*
D03*
X11233D02*
D03*
X40716Y15732D02*
D03*
X41168D02*
D03*
Y15161D02*
D03*
X40716D02*
D03*
D27*
X34678Y15669D02*
D03*
Y15098D02*
D03*
D28*
X8737Y17085D02*
D03*
X8540D02*
D03*
X8343D02*
D03*
X8146D02*
D03*
X7950D02*
D03*
X7753D02*
D03*
X7556D02*
D03*
X7359D02*
D03*
Y19014D02*
D03*
X7556D02*
D03*
X7753D02*
D03*
X7950D02*
D03*
X8146D02*
D03*
X8343D02*
D03*
X8540D02*
D03*
X8737D02*
D03*
D29*
X7083Y17361D02*
D03*
Y17557D02*
D03*
Y17754D02*
D03*
Y17951D02*
D03*
Y18148D02*
D03*
Y18345D02*
D03*
Y18542D02*
D03*
Y18739D02*
D03*
X9013D02*
D03*
Y18542D02*
D03*
Y18345D02*
D03*
Y18148D02*
D03*
Y17951D02*
D03*
Y17754D02*
D03*
Y17557D02*
D03*
Y17361D02*
D03*
D30*
X8048Y18050D02*
D03*
D31*
X37219Y9868D02*
D03*
Y10368D02*
D03*
Y10868D02*
D03*
Y11368D02*
D03*
X35038Y9868D02*
D03*
Y10368D02*
D03*
Y10868D02*
D03*
Y11368D02*
D03*
D32*
X9952Y9586D02*
D03*
X10110D02*
D03*
X10267D02*
D03*
X10425D02*
D03*
Y10078D02*
D03*
X10267D02*
D03*
X10110D02*
D03*
X9952D02*
D03*
X8502Y9586D02*
D03*
X8660D02*
D03*
X8817D02*
D03*
X8975D02*
D03*
Y10078D02*
D03*
X8817D02*
D03*
X8660D02*
D03*
X8502D02*
D03*
D33*
X20228Y4094D02*
D03*
Y3937D02*
D03*
Y3780D02*
D03*
Y3622D02*
D03*
X20878D02*
D03*
Y3780D02*
D03*
Y3937D02*
D03*
Y4094D02*
D03*
X18480Y12652D02*
D03*
Y12495D02*
D03*
Y12337D02*
D03*
Y12180D02*
D03*
X19130D02*
D03*
Y12337D02*
D03*
Y12495D02*
D03*
Y12652D02*
D03*
X18479Y17705D02*
D03*
Y17548D02*
D03*
Y17390D02*
D03*
Y17233D02*
D03*
X19128D02*
D03*
Y17390D02*
D03*
Y17548D02*
D03*
Y17705D02*
D03*
D34*
X20317Y3376D02*
D03*
X20474D02*
D03*
X20632D02*
D03*
X20789D02*
D03*
Y4341D02*
D03*
X20632D02*
D03*
X20474D02*
D03*
X20317D02*
D03*
X18569Y11934D02*
D03*
X18726D02*
D03*
X18884D02*
D03*
X19041D02*
D03*
Y12898D02*
D03*
X18884D02*
D03*
X18726D02*
D03*
X18569D02*
D03*
X18567Y16987D02*
D03*
X18725D02*
D03*
X18882D02*
D03*
X19040D02*
D03*
Y17951D02*
D03*
X18882D02*
D03*
X18725D02*
D03*
X18567D02*
D03*
D35*
X8523Y20132D02*
D03*
X8897D02*
D03*
X9271D02*
D03*
Y21195D02*
D03*
X8523D02*
D03*
D36*
X7504Y7506D02*
D03*
Y4986D02*
D03*
X10024D02*
D03*
Y7506D02*
D03*
D37*
X9630D02*
D03*
X9788Y4986D02*
D03*
X9630D02*
D03*
X9866Y5143D02*
D03*
Y7348D02*
D03*
X7504Y5222D02*
D03*
X9473Y4986D02*
D03*
X9315D02*
D03*
X9158D02*
D03*
X9000D02*
D03*
X8843D02*
D03*
X8685D02*
D03*
X8528D02*
D03*
X8370D02*
D03*
X8213D02*
D03*
X8055D02*
D03*
X7898D02*
D03*
X7740D02*
D03*
X9709Y5143D02*
D03*
X9551D02*
D03*
X9394D02*
D03*
X9236D02*
D03*
X9079D02*
D03*
X8921D02*
D03*
X8764D02*
D03*
X8606D02*
D03*
X8449D02*
D03*
X8291D02*
D03*
X8134D02*
D03*
X7976D02*
D03*
X7819D02*
D03*
X7662D02*
D03*
Y5301D02*
D03*
Y5458D02*
D03*
X7504Y5380D02*
D03*
Y5537D02*
D03*
X7662Y5616D02*
D03*
X10024Y5695D02*
D03*
X7504D02*
D03*
X7662Y5773D02*
D03*
X10024Y5852D02*
D03*
X7504D02*
D03*
X7662Y5931D02*
D03*
X10024Y6010D02*
D03*
X7504D02*
D03*
X7662Y6088D02*
D03*
X10024Y6167D02*
D03*
X7504D02*
D03*
X7662Y6246D02*
D03*
X10024Y6325D02*
D03*
X7504D02*
D03*
X7662Y6403D02*
D03*
X10024Y6482D02*
D03*
X7504D02*
D03*
X7662Y6561D02*
D03*
X10024Y6640D02*
D03*
X7504D02*
D03*
X7662Y6718D02*
D03*
X10024Y6797D02*
D03*
X7504D02*
D03*
X7662Y6876D02*
D03*
X10024Y6954D02*
D03*
X7504D02*
D03*
X7662Y7033D02*
D03*
X10024Y7112D02*
D03*
X7504D02*
D03*
X7662Y7191D02*
D03*
X10024Y7269D02*
D03*
X7504D02*
D03*
X9236Y7348D02*
D03*
X9079D02*
D03*
X8921D02*
D03*
X8764D02*
D03*
X8606D02*
D03*
X8449D02*
D03*
X8291D02*
D03*
X8134D02*
D03*
X7976D02*
D03*
X7819D02*
D03*
X7662D02*
D03*
X9473Y7506D02*
D03*
X9315D02*
D03*
X9158D02*
D03*
X9000D02*
D03*
X8843D02*
D03*
X8685D02*
D03*
X8528D02*
D03*
X7898D02*
D03*
X9394Y7348D02*
D03*
X9551D02*
D03*
X9709D02*
D03*
X10024Y5537D02*
D03*
Y5380D02*
D03*
Y5222D02*
D03*
D38*
X37630Y14854D02*
D03*
Y14697D02*
D03*
Y14539D02*
D03*
Y14382D02*
D03*
Y14224D02*
D03*
Y14067D02*
D03*
Y13909D02*
D03*
Y13752D02*
D03*
Y13594D02*
D03*
Y13437D02*
D03*
Y13280D02*
D03*
Y13122D02*
D03*
X40012D02*
D03*
Y13280D02*
D03*
Y13437D02*
D03*
Y13594D02*
D03*
Y13752D02*
D03*
Y13909D02*
D03*
Y14067D02*
D03*
Y14224D02*
D03*
Y14382D02*
D03*
Y14539D02*
D03*
Y14697D02*
D03*
Y14854D02*
D03*
D39*
X37955Y12797D02*
D03*
X38112D02*
D03*
X38270D02*
D03*
X38427D02*
D03*
X38585D02*
D03*
X38742D02*
D03*
X38900D02*
D03*
X39057D02*
D03*
X39215D02*
D03*
X39372D02*
D03*
X39530D02*
D03*
X39687D02*
D03*
Y15179D02*
D03*
X39530D02*
D03*
X39372D02*
D03*
X39215D02*
D03*
X39057D02*
D03*
X38900D02*
D03*
X38742D02*
D03*
X38585D02*
D03*
X38427D02*
D03*
X38270D02*
D03*
X38112D02*
D03*
X37955D02*
D03*
D40*
X38821Y13988D02*
D03*
D41*
X14694Y1769D02*
D03*
D42*
X37324Y2582D02*
D03*
Y1007D02*
D03*
X39982Y2582D02*
D03*
Y1007D02*
D03*
X33284Y2582D02*
D03*
Y1007D02*
D03*
X35942Y2582D02*
D03*
Y1007D02*
D03*
X37324Y6322D02*
D03*
Y4747D02*
D03*
X39982Y6322D02*
D03*
Y4747D02*
D03*
X33284Y6322D02*
D03*
Y4747D02*
D03*
X35942Y6322D02*
D03*
Y4747D02*
D03*
X773Y6337D02*
D03*
Y4763D02*
D03*
X3430Y6337D02*
D03*
Y4763D02*
D03*
D43*
X3158Y21846D02*
D03*
Y23814D02*
D03*
Y22830D02*
D03*
X402D02*
D03*
Y23814D02*
D03*
Y21846D02*
D03*
D44*
X4252Y20589D02*
D03*
Y20365D02*
D03*
X10009Y21121D02*
D03*
Y20896D02*
D03*
X40442Y17220D02*
D03*
Y16996D02*
D03*
X7076Y19363D02*
D03*
Y19588D02*
D03*
X7330Y19363D02*
D03*
Y19588D02*
D03*
X42055Y23412D02*
D03*
Y23188D02*
D03*
X39955Y23412D02*
D03*
Y23188D02*
D03*
X7706Y9961D02*
D03*
Y10185D02*
D03*
X6562Y5505D02*
D03*
Y5280D02*
D03*
X32123Y10042D02*
D03*
Y9817D02*
D03*
X40442Y17499D02*
D03*
Y17724D02*
D03*
X32120Y10330D02*
D03*
Y10555D02*
D03*
X10417Y5337D02*
D03*
Y5112D02*
D03*
X11202Y3912D02*
D03*
Y3688D02*
D03*
X42055Y22112D02*
D03*
Y21888D02*
D03*
X39955Y22112D02*
D03*
Y21888D02*
D03*
X38832Y16379D02*
D03*
Y16154D02*
D03*
X10703Y21121D02*
D03*
Y20896D02*
D03*
X8188Y9474D02*
D03*
Y9698D02*
D03*
X9783Y20896D02*
D03*
Y21121D02*
D03*
X4076Y8488D02*
D03*
Y8264D02*
D03*
X4962Y8110D02*
D03*
Y8335D02*
D03*
X43260Y13923D02*
D03*
Y13699D02*
D03*
X10274Y8167D02*
D03*
Y7942D02*
D03*
X10594Y7122D02*
D03*
Y7347D02*
D03*
X9584Y4312D02*
D03*
Y4537D02*
D03*
X10811Y7347D02*
D03*
Y7122D02*
D03*
X3811Y8264D02*
D03*
Y8488D02*
D03*
X8149Y19556D02*
D03*
Y19331D02*
D03*
X8304Y4312D02*
D03*
Y4537D02*
D03*
X9638Y9961D02*
D03*
Y10185D02*
D03*
Y9474D02*
D03*
Y9698D02*
D03*
X8188Y9961D02*
D03*
Y10185D02*
D03*
X38832Y15749D02*
D03*
Y15524D02*
D03*
X41216Y14067D02*
D03*
Y13843D02*
D03*
X37212Y13214D02*
D03*
Y13439D02*
D03*
X40222Y15279D02*
D03*
Y15054D02*
D03*
X39092Y16154D02*
D03*
Y16379D02*
D03*
D45*
X35619Y14106D02*
D03*
X36013D02*
D03*
X35619Y14470D02*
D03*
X36013D02*
D03*
X10482Y22264D02*
D03*
X10876D02*
D03*
D46*
X34118Y20946D02*
D03*
Y20553D02*
D03*
X34490Y20946D02*
D03*
Y20553D02*
D03*
D47*
X7500Y20664D02*
D03*
D48*
X7913Y20920D02*
D03*
Y20408D02*
D03*
D49*
X41411Y17728D02*
D03*
X40821D02*
D03*
Y17020D02*
D03*
X41411D02*
D03*
X31746Y10545D02*
D03*
X31155D02*
D03*
Y9836D02*
D03*
X31746D02*
D03*
X12270Y7407D02*
D03*
X12860D02*
D03*
Y8116D02*
D03*
X12270D02*
D03*
D50*
X41116Y17728D02*
D03*
Y17020D02*
D03*
X31450Y10545D02*
D03*
Y9836D02*
D03*
X12565Y7407D02*
D03*
Y8116D02*
D03*
D51*
X16825Y11000D02*
D03*
X17825D02*
D03*
Y9000D02*
D03*
X16825D02*
D03*
Y16000D02*
D03*
X17825D02*
D03*
Y14000D02*
D03*
X16825D02*
D03*
Y21000D02*
D03*
X17825D02*
D03*
Y19000D02*
D03*
X16825D02*
D03*
X24325Y11000D02*
D03*
Y9000D02*
D03*
X23325Y11000D02*
D03*
Y9000D02*
D03*
X22325Y11000D02*
D03*
Y9000D02*
D03*
X20325Y11000D02*
D03*
X21325D02*
D03*
Y9000D02*
D03*
X20325D02*
D03*
X25325Y11000D02*
D03*
Y9000D02*
D03*
X26325Y11000D02*
D03*
Y9000D02*
D03*
X27325Y11000D02*
D03*
Y9000D02*
D03*
X28325Y11000D02*
D03*
Y9000D02*
D03*
X29325Y11000D02*
D03*
Y9000D02*
D03*
X24325Y16000D02*
D03*
Y14000D02*
D03*
X23325Y16000D02*
D03*
Y14000D02*
D03*
X22325Y16000D02*
D03*
Y14000D02*
D03*
X20325Y16000D02*
D03*
X21325D02*
D03*
Y14000D02*
D03*
X20325D02*
D03*
X25325Y16000D02*
D03*
Y14000D02*
D03*
X26325Y16000D02*
D03*
Y14000D02*
D03*
X27325Y16000D02*
D03*
Y14000D02*
D03*
X28325Y16000D02*
D03*
Y14000D02*
D03*
X29325Y16000D02*
D03*
Y14000D02*
D03*
X24325Y21000D02*
D03*
Y19000D02*
D03*
X23325Y21000D02*
D03*
Y19000D02*
D03*
X22325Y21000D02*
D03*
Y19000D02*
D03*
X20325Y21000D02*
D03*
X21325D02*
D03*
Y19000D02*
D03*
X20325D02*
D03*
X25325Y21000D02*
D03*
Y19000D02*
D03*
X26325Y21000D02*
D03*
Y19000D02*
D03*
X27325Y21000D02*
D03*
Y19000D02*
D03*
X28325Y21000D02*
D03*
Y19000D02*
D03*
X29325Y21000D02*
D03*
Y19000D02*
D03*
D52*
X5104Y2539D02*
D03*
X5604D02*
D03*
X6104D02*
D03*
X6604D02*
D03*
X7104D02*
D03*
X5104Y1004D02*
D03*
X5604D02*
D03*
X6104D02*
D03*
X6604D02*
D03*
X7104D02*
D03*
X23826Y1004D02*
D03*
X23326D02*
D03*
X22826D02*
D03*
X22326D02*
D03*
X21826D02*
D03*
X23826Y2539D02*
D03*
X23326D02*
D03*
X22826D02*
D03*
X22326D02*
D03*
X21826D02*
D03*
X24326D02*
D03*
X24826D02*
D03*
X25326D02*
D03*
X25826D02*
D03*
X26326D02*
D03*
X24326Y1004D02*
D03*
X24826D02*
D03*
X25326D02*
D03*
X25826D02*
D03*
X26326D02*
D03*
X21826Y2539D02*
D03*
X22326D02*
D03*
X22826D02*
D03*
X23326D02*
D03*
X23826D02*
D03*
X21826Y1004D02*
D03*
X22326D02*
D03*
X22826D02*
D03*
X23326D02*
D03*
X23826D02*
D03*
D53*
X12170Y24437D02*
D03*
Y23284D02*
D03*
X10170D02*
D03*
Y24437D02*
D03*
X11170D02*
D03*
Y23284D02*
D03*
D54*
X41080Y22000D02*
D03*
X41630D02*
D03*
X38980D02*
D03*
X39530D02*
D03*
X41080Y23300D02*
D03*
X41630D02*
D03*
X38980D02*
D03*
X39530D02*
D03*
X12127Y3800D02*
D03*
X11577D02*
D03*
D55*
X10380Y18460D02*
D03*
X11076D02*
D03*
D56*
X10531Y17410D02*
D03*
Y16713D02*
D03*
D57*
X38348Y16047D02*
D03*
X37816D02*
D03*
X10904Y19190D02*
D03*
X10372D02*
D03*
X9813Y16609D02*
D03*
X9281D02*
D03*
X6204Y18290D02*
D03*
X5672D02*
D03*
D58*
X33555Y22817D02*
D03*
X35051D02*
D03*
D59*
X34106Y21911D02*
D03*
X34303D02*
D03*
X34500D02*
D03*
X34697D02*
D03*
X33909D02*
D03*
D60*
X42148Y13663D02*
D03*
Y14470D02*
D03*
X42896D02*
D03*
Y13663D02*
D03*
D61*
X42065Y14067D02*
D03*
X42978D02*
D03*
D62*
X4697Y8553D02*
D03*
Y8179D02*
D03*
D63*
X4615Y10092D02*
D03*
D64*
X3946D02*
D03*
Y9285D02*
D03*
X4694D02*
D03*
D65*
X4652Y20477D02*
D03*
Y19945D02*
D03*
X7244Y8780D02*
D03*
Y8249D02*
D03*
X6784Y8780D02*
D03*
Y8249D02*
D03*
X9790Y18197D02*
D03*
Y18729D02*
D03*
X9790Y17705D02*
D03*
Y17174D02*
D03*
D66*
X4362Y8563D02*
D03*
Y8169D02*
D03*
X36688Y13447D02*
D03*
Y13053D02*
D03*
X7794Y8348D02*
D03*
Y8741D02*
D03*
X9824Y8008D02*
D03*
Y8401D02*
D03*
X9134Y8632D02*
D03*
Y8238D02*
D03*
X37432Y15700D02*
D03*
Y16093D02*
D03*
X37102Y15700D02*
D03*
Y16093D02*
D03*
D67*
X8541Y8225D02*
D03*
X8147D02*
D03*
X8721Y8565D02*
D03*
X8327D02*
D03*
X6175Y17840D02*
D03*
X5781D02*
D03*
X34115Y21308D02*
D03*
X33721D02*
D03*
X34883D02*
D03*
X34490D02*
D03*
D68*
X2949Y8238D02*
D03*
Y8553D02*
D03*
Y10758D02*
D03*
Y10443D02*
D03*
D69*
Y8809D02*
D03*
Y9006D02*
D03*
Y9203D02*
D03*
Y9400D02*
D03*
Y9596D02*
D03*
Y9793D02*
D03*
Y9990D02*
D03*
Y10187D02*
D03*
M02*
