G04*
G04 #@! TF.GenerationSoftware,Altium Limited,Altium Designer,24.6.1 (21)*
G04*
G04 Layer_Color=8388736*
%FSLAX24Y24*%
%MOIN*%
G70*
G04*
G04 #@! TF.SameCoordinates,91F66E80-D4C5-4370-B577-81E2DE0E6F9A*
G04*
G04*
G04 #@! TF.FilePolarity,Negative*
G04*
G01*
G75*
%ADD70C,0.0240*%
%ADD71C,0.0551*%
%ADD72R,0.0472X0.0079*%
%ADD73R,0.0079X0.0472*%
%ADD74R,0.0166X0.0178*%
%ADD75R,0.0146X0.0157*%
%ADD76R,0.0395X0.0434*%
%ADD77R,0.0611X0.0355*%
%ADD78O,0.0178X0.0395*%
%ADD79O,0.0395X0.0178*%
%ADD80R,0.1438X0.1438*%
%ADD81R,0.0513X0.0237*%
%ADD82R,0.1399X0.1635*%
%ADD83O,0.0158X0.0395*%
%ADD84O,0.0287X0.0118*%
%ADD85O,0.0118X0.0287*%
%ADD86R,0.0296X0.0454*%
%ADD87C,0.0189*%
%ADD88C,0.0120*%
%ADD89R,0.2157X0.2000*%
%ADD90O,0.0295X0.0118*%
%ADD91O,0.0118X0.0295*%
%ADD92R,0.1910X0.1910*%
%ADD93R,0.0788X0.1418*%
%ADD94R,0.1143X0.0611*%
%ADD95R,0.0651X0.0454*%
%ADD96C,0.0139*%
%ADD97R,0.0178X0.0166*%
%ADD98R,0.0276X0.0256*%
%ADD99R,0.0256X0.0276*%
%ADD100R,0.0493X0.0690*%
%ADD101R,0.0257X0.0217*%
%ADD102R,0.0296X0.0296*%
%ADD103R,0.0217X0.0296*%
%ADD104R,0.0460X0.1190*%
%ADD105R,0.0359X0.1005*%
%ADD106R,0.0462X0.0922*%
%ADD107R,0.0360X0.0380*%
%ADD108R,0.0505X0.0777*%
%ADD109R,0.0777X0.0505*%
%ADD110R,0.0355X0.0375*%
%ADD111R,0.0296X0.1084*%
%ADD112R,0.0157X0.0354*%
%ADD113C,0.0370*%
%ADD114R,0.0375X0.0355*%
%ADD115R,0.0288X0.0257*%
%ADD116C,0.0787*%
%ADD117R,0.0257X0.0316*%
%ADD118R,0.0454X0.0395*%
%ADD119R,0.0296X0.0395*%
%ADD120R,0.0157X0.0146*%
%ADD121R,0.0375X0.0355*%
%ADD122R,0.0257X0.0296*%
%ADD123R,0.0296X0.0257*%
%ADD124R,0.0509X0.0296*%
%ADD125R,0.0509X0.0178*%
%ADD126R,0.0217X0.0217*%
%ADD127C,0.0651*%
%ADD128R,0.0651X0.0651*%
%ADD129C,0.0450*%
%ADD130C,0.0296*%
%ADD131O,0.0729X0.0414*%
%ADD132O,0.0847X0.0414*%
%ADD133C,0.1320*%
G36*
X4835Y4590D02*
X4836Y4590D01*
X4837Y4590D01*
X4837Y4590D01*
X4839Y4590D01*
X4841Y4590D01*
X4854Y4586D01*
X4856Y4586D01*
X4858Y4585D01*
X4858Y4585D01*
X4858Y4585D01*
X4860Y4584D01*
X4862Y4583D01*
X4862Y4583D01*
X4863Y4582D01*
X4864Y4581D01*
X4866Y4580D01*
X4876Y4572D01*
X4877Y4570D01*
X4879Y4569D01*
X4879Y4569D01*
X4879Y4568D01*
X4880Y4567D01*
X4882Y4565D01*
X4882Y4565D01*
X4882Y4564D01*
X4883Y4563D01*
X4884Y4561D01*
X4890Y4549D01*
X4890Y4547D01*
X4891Y4546D01*
X4891Y4545D01*
X4891Y4545D01*
X4892Y4543D01*
X4892Y4541D01*
X4892Y4541D01*
X4892Y4540D01*
X4892Y4538D01*
X4892Y4536D01*
X4892Y4530D01*
X4892Y4202D01*
X4892Y4202D01*
X4892Y4195D01*
X4892Y4193D01*
X4892Y4191D01*
X4892Y4191D01*
X4892Y4190D01*
X4892Y4188D01*
X4891Y4187D01*
X4891Y4186D01*
X4891Y4186D01*
X4890Y4184D01*
X4890Y4182D01*
X4884Y4170D01*
X4883Y4168D01*
X4882Y4167D01*
X4882Y4166D01*
X4882Y4166D01*
X4880Y4164D01*
X4879Y4163D01*
X4879Y4163D01*
X4879Y4162D01*
X4877Y4161D01*
X4876Y4160D01*
X4866Y4151D01*
X4864Y4150D01*
X4863Y4149D01*
X4862Y4149D01*
X4862Y4148D01*
X4860Y4147D01*
X4858Y4147D01*
X4858Y4146D01*
X4858Y4146D01*
X4856Y4146D01*
X4854Y4145D01*
X4841Y4142D01*
X4839Y4141D01*
X4837Y4141D01*
X4837Y4141D01*
X4836Y4141D01*
X4835Y4141D01*
X4833Y4141D01*
X4832Y4141D01*
X4832Y4141D01*
X4830Y4141D01*
X4828Y4141D01*
X4821Y4142D01*
X4821D01*
X4805Y4145D01*
X4804Y4146D01*
X4804Y4146D01*
X4802Y4146D01*
X4800Y4147D01*
X4800Y4147D01*
X4800Y4147D01*
X4767Y4159D01*
X4767Y4159D01*
X4767Y4159D01*
X4765Y4160D01*
X4763Y4161D01*
X4763Y4161D01*
X4763Y4161D01*
X4733Y4178D01*
X4733Y4178D01*
X4733Y4179D01*
X4731Y4180D01*
X4729Y4181D01*
X4729Y4181D01*
X4729Y4181D01*
X4703Y4203D01*
X4702Y4204D01*
X4702Y4204D01*
X4701Y4205D01*
X4699Y4207D01*
X4699Y4207D01*
X4699Y4207D01*
X4677Y4233D01*
X4677Y4234D01*
X4677Y4234D01*
X4675Y4236D01*
X4674Y4237D01*
X4674Y4238D01*
X4674Y4238D01*
X4657Y4267D01*
X4657Y4268D01*
X4657Y4268D01*
X4656Y4270D01*
X4655Y4272D01*
X4655Y4272D01*
X4655Y4272D01*
X4643Y4304D01*
X4643Y4305D01*
X4643Y4305D01*
X4642Y4307D01*
X4642Y4309D01*
X4642Y4309D01*
X4642Y4309D01*
X4636Y4343D01*
X4636Y4344D01*
X4636Y4344D01*
X4636Y4346D01*
X4635Y4348D01*
X4635Y4348D01*
X4635Y4348D01*
X4635Y4366D01*
X4635Y4383D01*
X4635Y4383D01*
X4635Y4383D01*
X4636Y4385D01*
X4636Y4387D01*
X4636Y4388D01*
X4636Y4388D01*
X4642Y4422D01*
X4642Y4422D01*
X4642Y4422D01*
X4642Y4424D01*
X4643Y4426D01*
X4643Y4426D01*
X4643Y4427D01*
X4655Y4459D01*
X4655Y4459D01*
X4655Y4459D01*
X4656Y4461D01*
X4657Y4463D01*
X4657Y4463D01*
X4657Y4464D01*
X4674Y4493D01*
X4674Y4494D01*
X4674Y4494D01*
X4675Y4496D01*
X4677Y4497D01*
X4677Y4498D01*
X4677Y4498D01*
X4699Y4524D01*
X4699Y4524D01*
X4699Y4524D01*
X4701Y4526D01*
X4702Y4527D01*
X4702Y4528D01*
X4703Y4528D01*
X4729Y4550D01*
X4729Y4550D01*
X4729Y4550D01*
X4731Y4551D01*
X4733Y4553D01*
X4733Y4553D01*
X4733Y4553D01*
X4763Y4570D01*
X4763Y4570D01*
X4763Y4570D01*
X4765Y4571D01*
X4767Y4572D01*
X4767Y4572D01*
X4767Y4572D01*
X4800Y4584D01*
X4800Y4584D01*
X4800Y4585D01*
X4802Y4585D01*
X4804Y4586D01*
X4804Y4586D01*
X4805Y4586D01*
X4821Y4589D01*
X4821Y4589D01*
X4828Y4590D01*
X4830Y4590D01*
X4832Y4590D01*
X4832Y4590D01*
X4833Y4591D01*
X4835Y4590D01*
D02*
G37*
G36*
Y5199D02*
X4836Y5199D01*
X4837Y5199D01*
X4837Y5199D01*
X4839Y5199D01*
X4841Y5198D01*
X4854Y5195D01*
X4856Y5194D01*
X4858Y5194D01*
X4858Y5194D01*
X4858Y5193D01*
X4860Y5193D01*
X4862Y5192D01*
X4862Y5191D01*
X4863Y5191D01*
X4864Y5190D01*
X4866Y5189D01*
X4876Y5180D01*
X4877Y5179D01*
X4879Y5178D01*
X4879Y5177D01*
X4879Y5177D01*
X4880Y5176D01*
X4882Y5174D01*
X4882Y5174D01*
X4882Y5173D01*
X4883Y5172D01*
X4884Y5170D01*
X4890Y5158D01*
X4890Y5156D01*
X4891Y5154D01*
X4891Y5154D01*
X4891Y5153D01*
X4892Y5152D01*
X4892Y5150D01*
X4892Y5149D01*
X4892Y5149D01*
X4892Y5147D01*
X4892Y5145D01*
X4892Y5138D01*
X4892Y4810D01*
X4892Y4810D01*
X4892Y4804D01*
X4892Y4802D01*
X4892Y4800D01*
X4892Y4799D01*
X4892Y4799D01*
X4892Y4797D01*
X4891Y4795D01*
X4891Y4795D01*
X4891Y4794D01*
X4890Y4793D01*
X4890Y4791D01*
X4884Y4779D01*
X4883Y4777D01*
X4882Y4776D01*
X4882Y4775D01*
X4882Y4775D01*
X4880Y4773D01*
X4879Y4772D01*
X4879Y4771D01*
X4879Y4771D01*
X4877Y4770D01*
X4876Y4768D01*
X4866Y4760D01*
X4864Y4759D01*
X4863Y4758D01*
X4862Y4757D01*
X4862Y4757D01*
X4860Y4756D01*
X4858Y4755D01*
X4858Y4755D01*
X4858Y4755D01*
X4856Y4755D01*
X4854Y4754D01*
X4841Y4750D01*
X4839Y4750D01*
X4837Y4750D01*
X4837Y4750D01*
X4836Y4750D01*
X4835Y4750D01*
X4833Y4749D01*
X4832Y4750D01*
X4832Y4750D01*
X4830Y4750D01*
X4828Y4750D01*
X4821Y4751D01*
X4821D01*
X4805Y4754D01*
X4804Y4754D01*
X4804Y4754D01*
X4802Y4755D01*
X4800Y4755D01*
X4800Y4756D01*
X4800Y4756D01*
X4767Y4768D01*
X4767Y4768D01*
X4767Y4768D01*
X4765Y4769D01*
X4763Y4770D01*
X4763Y4770D01*
X4763Y4770D01*
X4733Y4787D01*
X4733Y4787D01*
X4733Y4787D01*
X4731Y4789D01*
X4729Y4790D01*
X4729Y4790D01*
X4729Y4790D01*
X4703Y4812D01*
X4702Y4812D01*
X4702Y4813D01*
X4701Y4814D01*
X4699Y4816D01*
X4699Y4816D01*
X4699Y4816D01*
X4677Y4842D01*
X4677Y4843D01*
X4677Y4843D01*
X4675Y4844D01*
X4674Y4846D01*
X4674Y4846D01*
X4674Y4847D01*
X4657Y4876D01*
X4657Y4877D01*
X4657Y4877D01*
X4656Y4879D01*
X4655Y4881D01*
X4655Y4881D01*
X4655Y4881D01*
X4643Y4913D01*
X4643Y4914D01*
X4643Y4914D01*
X4642Y4916D01*
X4642Y4918D01*
X4642Y4918D01*
X4642Y4918D01*
X4636Y4952D01*
X4636Y4952D01*
X4636Y4953D01*
X4636Y4955D01*
X4635Y4957D01*
X4635Y4957D01*
X4635Y4957D01*
X4635Y4974D01*
X4635Y4992D01*
X4635Y4992D01*
X4635Y4992D01*
X4636Y4994D01*
X4636Y4996D01*
X4636Y4997D01*
X4636Y4997D01*
X4642Y5031D01*
X4642Y5031D01*
X4642Y5031D01*
X4642Y5033D01*
X4643Y5035D01*
X4643Y5035D01*
X4643Y5036D01*
X4655Y5068D01*
X4655Y5068D01*
X4655Y5068D01*
X4656Y5070D01*
X4657Y5072D01*
X4657Y5072D01*
X4657Y5073D01*
X4674Y5102D01*
X4674Y5102D01*
X4674Y5103D01*
X4675Y5104D01*
X4677Y5106D01*
X4677Y5106D01*
X4677Y5107D01*
X4699Y5133D01*
X4699Y5133D01*
X4699Y5133D01*
X4701Y5135D01*
X4702Y5136D01*
X4702Y5136D01*
X4703Y5137D01*
X4729Y5159D01*
X4729Y5159D01*
X4729Y5159D01*
X4731Y5160D01*
X4733Y5161D01*
X4733Y5162D01*
X4733Y5162D01*
X4763Y5179D01*
X4763Y5179D01*
X4763Y5179D01*
X4765Y5180D01*
X4767Y5181D01*
X4767Y5181D01*
X4767Y5181D01*
X4800Y5193D01*
X4800Y5193D01*
X4800Y5193D01*
X4802Y5194D01*
X4804Y5194D01*
X4804Y5194D01*
X4805Y5195D01*
X4821Y5198D01*
X4821Y5198D01*
X4828Y5199D01*
X4830Y5199D01*
X4832Y5199D01*
X4832Y5199D01*
X4833Y5199D01*
X4835Y5199D01*
D02*
G37*
G36*
X4971Y4590D02*
X4972Y4590D01*
X4974Y4590D01*
X4975Y4590D01*
X4982Y4589D01*
X4982D01*
X4999Y4586D01*
X4999Y4586D01*
X4999Y4586D01*
X5001Y4585D01*
X5003Y4585D01*
X5004Y4584D01*
X5004Y4584D01*
X5036Y4572D01*
X5036Y4572D01*
X5036Y4572D01*
X5038Y4571D01*
X5040Y4570D01*
X5041Y4570D01*
X5041Y4570D01*
X5070Y4553D01*
X5071Y4553D01*
X5071Y4553D01*
X5072Y4551D01*
X5074Y4550D01*
X5074Y4550D01*
X5075Y4550D01*
X5101Y4528D01*
X5101Y4528D01*
X5101Y4527D01*
X5103Y4526D01*
X5104Y4524D01*
X5104Y4524D01*
X5104Y4524D01*
X5126Y4498D01*
X5127Y4498D01*
X5127Y4497D01*
X5128Y4496D01*
X5129Y4494D01*
X5129Y4494D01*
X5129Y4493D01*
X5146Y4464D01*
X5147Y4463D01*
X5147Y4463D01*
X5148Y4461D01*
X5148Y4459D01*
X5149Y4459D01*
X5149Y4459D01*
X5160Y4427D01*
X5160Y4426D01*
X5160Y4426D01*
X5161Y4424D01*
X5162Y4422D01*
X5162Y4422D01*
X5162Y4422D01*
X5168Y4388D01*
X5168Y4388D01*
X5168Y4387D01*
X5168Y4385D01*
X5168Y4383D01*
X5168Y4383D01*
X5168Y4383D01*
X5168Y4366D01*
X5168Y4348D01*
X5168Y4348D01*
X5168Y4348D01*
X5168Y4346D01*
X5168Y4344D01*
X5168Y4344D01*
X5168Y4343D01*
X5162Y4309D01*
X5162Y4309D01*
X5162Y4309D01*
X5161Y4307D01*
X5160Y4305D01*
X5160Y4305D01*
X5160Y4304D01*
X5149Y4272D01*
X5149Y4272D01*
X5148Y4272D01*
X5148Y4270D01*
X5147Y4268D01*
X5147Y4268D01*
X5146Y4267D01*
X5129Y4238D01*
X5129Y4238D01*
X5129Y4237D01*
X5128Y4236D01*
X5127Y4234D01*
X5127Y4234D01*
X5126Y4233D01*
X5104Y4207D01*
X5104Y4207D01*
X5104Y4207D01*
X5103Y4205D01*
X5101Y4204D01*
X5101Y4204D01*
X5101Y4203D01*
X5075Y4181D01*
X5074Y4181D01*
X5074Y4181D01*
X5072Y4180D01*
X5071Y4179D01*
X5071Y4178D01*
X5070Y4178D01*
X5041Y4161D01*
X5041Y4161D01*
X5040Y4161D01*
X5038Y4160D01*
X5036Y4159D01*
X5036Y4159D01*
X5036Y4159D01*
X5004Y4147D01*
X5004Y4147D01*
X5003Y4147D01*
X5001Y4146D01*
X4999Y4146D01*
X4999Y4146D01*
X4999Y4145D01*
X4982Y4142D01*
X4982Y4142D01*
X4975Y4141D01*
X4974Y4141D01*
X4972Y4141D01*
X4971Y4141D01*
X4971Y4141D01*
X4969Y4141D01*
X4967Y4141D01*
X4966Y4141D01*
X4966Y4141D01*
X4964Y4141D01*
X4962Y4142D01*
X4949Y4145D01*
X4948Y4146D01*
X4946Y4146D01*
X4945Y4146D01*
X4945Y4147D01*
X4943Y4147D01*
X4942Y4148D01*
X4941Y4149D01*
X4941Y4149D01*
X4939Y4150D01*
X4938Y4151D01*
X4927Y4160D01*
X4926Y4161D01*
X4925Y4162D01*
X4924Y4163D01*
X4924Y4163D01*
X4923Y4164D01*
X4922Y4166D01*
X4922Y4166D01*
X4921Y4167D01*
X4920Y4168D01*
X4919Y4170D01*
X4914Y4182D01*
X4913Y4184D01*
X4912Y4186D01*
X4912Y4186D01*
X4912Y4187D01*
X4912Y4188D01*
X4911Y4190D01*
X4911Y4191D01*
X4911Y4191D01*
X4911Y4193D01*
X4911Y4195D01*
X4911Y4202D01*
X4911Y4530D01*
X4911Y4530D01*
X4911Y4536D01*
X4911Y4538D01*
X4911Y4540D01*
X4911Y4541D01*
X4911Y4541D01*
X4912Y4543D01*
X4912Y4545D01*
X4912Y4545D01*
X4912Y4546D01*
X4913Y4547D01*
X4914Y4549D01*
X4919Y4561D01*
X4920Y4563D01*
X4921Y4564D01*
X4922Y4565D01*
X4922Y4565D01*
X4923Y4567D01*
X4924Y4568D01*
X4924Y4569D01*
X4925Y4569D01*
X4926Y4570D01*
X4927Y4572D01*
X4938Y4580D01*
X4939Y4581D01*
X4941Y4582D01*
X4941Y4583D01*
X4942Y4583D01*
X4943Y4584D01*
X4945Y4585D01*
X4945Y4585D01*
X4946Y4585D01*
X4948Y4586D01*
X4949Y4586D01*
X4962Y4590D01*
X4964Y4590D01*
X4966Y4590D01*
X4966Y4590D01*
X4967Y4590D01*
X4969Y4590D01*
X4971Y4590D01*
X4971Y4590D01*
D02*
G37*
G36*
Y5199D02*
X4972Y5199D01*
X4974Y5199D01*
X4975Y5199D01*
X4982Y5198D01*
X4982D01*
X4999Y5195D01*
X4999Y5194D01*
X4999Y5194D01*
X5001Y5194D01*
X5003Y5193D01*
X5004Y5193D01*
X5004Y5193D01*
X5036Y5181D01*
X5036Y5181D01*
X5036Y5181D01*
X5038Y5180D01*
X5040Y5179D01*
X5041Y5179D01*
X5041Y5179D01*
X5070Y5162D01*
X5071Y5162D01*
X5071Y5161D01*
X5072Y5160D01*
X5074Y5159D01*
X5074Y5159D01*
X5075Y5159D01*
X5101Y5137D01*
X5101Y5136D01*
X5101Y5136D01*
X5103Y5135D01*
X5104Y5133D01*
X5104Y5133D01*
X5104Y5133D01*
X5126Y5107D01*
X5127Y5106D01*
X5127Y5106D01*
X5128Y5104D01*
X5129Y5103D01*
X5129Y5102D01*
X5129Y5102D01*
X5146Y5073D01*
X5147Y5072D01*
X5147Y5072D01*
X5148Y5070D01*
X5148Y5068D01*
X5149Y5068D01*
X5149Y5068D01*
X5160Y5036D01*
X5160Y5035D01*
X5160Y5035D01*
X5161Y5033D01*
X5162Y5031D01*
X5162Y5031D01*
X5162Y5031D01*
X5168Y4997D01*
X5168Y4997D01*
X5168Y4996D01*
X5168Y4994D01*
X5168Y4992D01*
X5168Y4992D01*
X5168Y4992D01*
X5168Y4974D01*
X5168Y4957D01*
X5168Y4957D01*
X5168Y4957D01*
X5168Y4955D01*
X5168Y4953D01*
X5168Y4952D01*
X5168Y4952D01*
X5162Y4918D01*
X5162Y4918D01*
X5162Y4918D01*
X5161Y4916D01*
X5160Y4914D01*
X5160Y4914D01*
X5160Y4913D01*
X5149Y4881D01*
X5149Y4881D01*
X5148Y4881D01*
X5148Y4879D01*
X5147Y4877D01*
X5147Y4877D01*
X5146Y4876D01*
X5129Y4847D01*
X5129Y4846D01*
X5129Y4846D01*
X5128Y4844D01*
X5127Y4843D01*
X5127Y4842D01*
X5126Y4842D01*
X5104Y4816D01*
X5104Y4816D01*
X5104Y4816D01*
X5103Y4814D01*
X5101Y4813D01*
X5101Y4812D01*
X5101Y4812D01*
X5075Y4790D01*
X5074Y4790D01*
X5074Y4790D01*
X5072Y4789D01*
X5071Y4787D01*
X5071Y4787D01*
X5070Y4787D01*
X5041Y4770D01*
X5041Y4770D01*
X5040Y4770D01*
X5038Y4769D01*
X5036Y4768D01*
X5036Y4768D01*
X5036Y4768D01*
X5004Y4756D01*
X5004Y4756D01*
X5003Y4755D01*
X5001Y4755D01*
X4999Y4754D01*
X4999Y4754D01*
X4999Y4754D01*
X4982Y4751D01*
X4982Y4751D01*
X4975Y4750D01*
X4974Y4750D01*
X4972Y4750D01*
X4971Y4750D01*
X4971Y4749D01*
X4969Y4750D01*
X4967Y4750D01*
X4966Y4750D01*
X4966Y4750D01*
X4964Y4750D01*
X4962Y4750D01*
X4949Y4754D01*
X4948Y4754D01*
X4946Y4755D01*
X4945Y4755D01*
X4945Y4755D01*
X4943Y4756D01*
X4942Y4757D01*
X4941Y4757D01*
X4941Y4758D01*
X4939Y4759D01*
X4938Y4760D01*
X4927Y4768D01*
X4926Y4770D01*
X4925Y4771D01*
X4924Y4771D01*
X4924Y4772D01*
X4923Y4773D01*
X4922Y4775D01*
X4922Y4775D01*
X4921Y4776D01*
X4920Y4777D01*
X4919Y4779D01*
X4914Y4791D01*
X4913Y4793D01*
X4912Y4794D01*
X4912Y4795D01*
X4912Y4795D01*
X4912Y4797D01*
X4911Y4799D01*
X4911Y4799D01*
X4911Y4800D01*
X4911Y4802D01*
X4911Y4804D01*
X4911Y4810D01*
X4911Y5138D01*
X4911Y5138D01*
X4911Y5145D01*
X4911Y5147D01*
X4911Y5149D01*
X4911Y5149D01*
X4911Y5150D01*
X4912Y5152D01*
X4912Y5153D01*
X4912Y5154D01*
X4912Y5154D01*
X4913Y5156D01*
X4914Y5158D01*
X4919Y5170D01*
X4920Y5172D01*
X4921Y5173D01*
X4922Y5174D01*
X4922Y5174D01*
X4923Y5176D01*
X4924Y5177D01*
X4924Y5177D01*
X4925Y5178D01*
X4926Y5179D01*
X4927Y5180D01*
X4938Y5189D01*
X4939Y5190D01*
X4941Y5191D01*
X4941Y5191D01*
X4942Y5192D01*
X4943Y5193D01*
X4945Y5193D01*
X4945Y5194D01*
X4946Y5194D01*
X4948Y5194D01*
X4949Y5195D01*
X4962Y5198D01*
X4964Y5199D01*
X4966Y5199D01*
X4966Y5199D01*
X4967Y5199D01*
X4969Y5199D01*
X4971Y5199D01*
X4971Y5199D01*
D02*
G37*
G36*
X20486Y2764D02*
X20488Y2764D01*
X20488Y2764D01*
X20489Y2764D01*
X20491Y2764D01*
X20493Y2763D01*
X20505Y2760D01*
X20507Y2759D01*
X20509Y2759D01*
X20509Y2759D01*
X20510Y2758D01*
X20512Y2757D01*
X20513Y2757D01*
X20514Y2756D01*
X20514Y2756D01*
X20516Y2755D01*
X20517Y2754D01*
X20527Y2745D01*
X20529Y2744D01*
X20530Y2743D01*
X20530Y2742D01*
X20531Y2742D01*
X20532Y2741D01*
X20533Y2739D01*
X20533Y2739D01*
X20534Y2738D01*
X20534Y2737D01*
X20535Y2735D01*
X20541Y2723D01*
X20542Y2721D01*
X20542Y2719D01*
X20543Y2719D01*
X20543Y2718D01*
X20543Y2717D01*
X20544Y2715D01*
X20544Y2714D01*
X20544Y2714D01*
X20544Y2712D01*
X20544Y2710D01*
X20544Y2703D01*
X20544Y2375D01*
X20544Y2375D01*
X20544Y2369D01*
X20544Y2367D01*
X20544Y2365D01*
X20544Y2364D01*
X20544Y2364D01*
X20543Y2362D01*
X20543Y2360D01*
X20543Y2360D01*
X20542Y2359D01*
X20542Y2358D01*
X20541Y2356D01*
X20535Y2344D01*
X20534Y2342D01*
X20534Y2340D01*
X20533Y2340D01*
X20533Y2340D01*
X20532Y2338D01*
X20531Y2337D01*
X20530Y2336D01*
X20530Y2336D01*
X20529Y2335D01*
X20527Y2333D01*
X20517Y2325D01*
X20516Y2324D01*
X20514Y2323D01*
X20514Y2322D01*
X20513Y2322D01*
X20512Y2321D01*
X20510Y2320D01*
X20509Y2320D01*
X20509Y2320D01*
X20507Y2319D01*
X20505Y2319D01*
X20493Y2315D01*
X20491Y2315D01*
X20489Y2315D01*
X20488Y2315D01*
X20488Y2315D01*
X20486Y2315D01*
X20484Y2314D01*
X20484Y2315D01*
X20483Y2315D01*
X20481Y2315D01*
X20479Y2315D01*
X20473Y2316D01*
X20473D01*
X20456Y2319D01*
X20456Y2319D01*
X20456Y2319D01*
X20454Y2320D01*
X20451Y2320D01*
X20451Y2321D01*
X20451Y2321D01*
X20419Y2333D01*
X20419Y2333D01*
X20418Y2333D01*
X20416Y2334D01*
X20415Y2335D01*
X20414Y2335D01*
X20414Y2335D01*
X20385Y2352D01*
X20384Y2352D01*
X20384Y2352D01*
X20382Y2354D01*
X20381Y2355D01*
X20380Y2355D01*
X20380Y2355D01*
X20354Y2377D01*
X20354Y2377D01*
X20354Y2378D01*
X20352Y2379D01*
X20351Y2381D01*
X20351Y2381D01*
X20350Y2381D01*
X20329Y2407D01*
X20328Y2407D01*
X20328Y2408D01*
X20327Y2409D01*
X20326Y2411D01*
X20326Y2411D01*
X20326Y2412D01*
X20308Y2441D01*
X20308Y2441D01*
X20308Y2442D01*
X20307Y2444D01*
X20306Y2446D01*
X20306Y2446D01*
X20306Y2446D01*
X20295Y2478D01*
X20295Y2478D01*
X20294Y2479D01*
X20294Y2481D01*
X20293Y2483D01*
X20293Y2483D01*
X20293Y2483D01*
X20287Y2517D01*
X20287Y2517D01*
X20287Y2518D01*
X20287Y2520D01*
X20287Y2522D01*
X20287Y2522D01*
X20287Y2522D01*
X20287Y2539D01*
X20287Y2557D01*
X20287Y2557D01*
X20287Y2557D01*
X20287Y2559D01*
X20287Y2561D01*
X20287Y2561D01*
X20287Y2562D01*
X20293Y2595D01*
X20293Y2596D01*
X20293Y2596D01*
X20294Y2598D01*
X20294Y2600D01*
X20295Y2600D01*
X20295Y2601D01*
X20306Y2633D01*
X20306Y2633D01*
X20306Y2633D01*
X20307Y2635D01*
X20308Y2637D01*
X20308Y2637D01*
X20308Y2637D01*
X20326Y2667D01*
X20326Y2667D01*
X20326Y2668D01*
X20327Y2669D01*
X20328Y2671D01*
X20328Y2671D01*
X20329Y2671D01*
X20350Y2698D01*
X20351Y2698D01*
X20351Y2698D01*
X20352Y2700D01*
X20354Y2701D01*
X20354Y2701D01*
X20354Y2702D01*
X20380Y2724D01*
X20380Y2724D01*
X20381Y2724D01*
X20382Y2725D01*
X20384Y2726D01*
X20384Y2727D01*
X20385Y2727D01*
X20414Y2744D01*
X20414Y2744D01*
X20415Y2744D01*
X20416Y2745D01*
X20418Y2746D01*
X20419Y2746D01*
X20419Y2746D01*
X20451Y2758D01*
X20451Y2758D01*
X20451Y2758D01*
X20454Y2759D01*
X20456Y2759D01*
X20456Y2759D01*
X20456Y2760D01*
X20473Y2763D01*
X20473Y2763D01*
X20479Y2764D01*
X20481Y2764D01*
X20483Y2764D01*
X20484Y2764D01*
X20484Y2764D01*
X20486Y2764D01*
D02*
G37*
G36*
X20623Y2764D02*
X20623Y2764D01*
X20625Y2764D01*
X20627Y2764D01*
X20633Y2763D01*
X20633D01*
X20650Y2760D01*
X20651Y2759D01*
X20651Y2759D01*
X20653Y2759D01*
X20655Y2758D01*
X20655Y2758D01*
X20655Y2758D01*
X20688Y2746D01*
X20688Y2746D01*
X20688Y2746D01*
X20690Y2745D01*
X20692Y2744D01*
X20692Y2744D01*
X20692Y2744D01*
X20722Y2727D01*
X20722Y2727D01*
X20722Y2726D01*
X20724Y2725D01*
X20726Y2724D01*
X20726Y2724D01*
X20726Y2724D01*
X20752Y2702D01*
X20752Y2701D01*
X20753Y2701D01*
X20754Y2700D01*
X20756Y2698D01*
X20756Y2698D01*
X20756Y2698D01*
X20778Y2671D01*
X20778Y2671D01*
X20778Y2671D01*
X20779Y2669D01*
X20781Y2668D01*
X20781Y2667D01*
X20781Y2667D01*
X20798Y2637D01*
X20798Y2637D01*
X20798Y2637D01*
X20799Y2635D01*
X20800Y2633D01*
X20800Y2633D01*
X20800Y2633D01*
X20812Y2601D01*
X20812Y2600D01*
X20812Y2600D01*
X20812Y2598D01*
X20813Y2596D01*
X20813Y2596D01*
X20813Y2595D01*
X20819Y2562D01*
X20819Y2561D01*
X20819Y2561D01*
X20819Y2559D01*
X20819Y2557D01*
X20819Y2557D01*
X20819Y2557D01*
X20819Y2539D01*
X20819Y2522D01*
X20819Y2522D01*
X20819Y2522D01*
X20819Y2520D01*
X20819Y2518D01*
X20819Y2517D01*
X20819Y2517D01*
X20813Y2483D01*
X20813Y2483D01*
X20813Y2483D01*
X20812Y2481D01*
X20812Y2479D01*
X20812Y2478D01*
X20812Y2478D01*
X20800Y2446D01*
X20800Y2446D01*
X20800Y2446D01*
X20799Y2444D01*
X20798Y2442D01*
X20798Y2441D01*
X20798Y2441D01*
X20781Y2412D01*
X20781Y2411D01*
X20781Y2411D01*
X20779Y2409D01*
X20778Y2408D01*
X20778Y2407D01*
X20778Y2407D01*
X20756Y2381D01*
X20756Y2381D01*
X20756Y2381D01*
X20754Y2379D01*
X20753Y2378D01*
X20752Y2377D01*
X20752Y2377D01*
X20726Y2355D01*
X20726Y2355D01*
X20726Y2355D01*
X20724Y2354D01*
X20722Y2352D01*
X20722Y2352D01*
X20722Y2352D01*
X20692Y2335D01*
X20692Y2335D01*
X20692Y2335D01*
X20690Y2334D01*
X20688Y2333D01*
X20688Y2333D01*
X20688Y2333D01*
X20655Y2321D01*
X20655Y2321D01*
X20655Y2320D01*
X20653Y2320D01*
X20651Y2319D01*
X20651Y2319D01*
X20650Y2319D01*
X20633Y2316D01*
X20633Y2316D01*
X20627Y2315D01*
X20625Y2315D01*
X20623Y2315D01*
X20623Y2315D01*
X20622Y2314D01*
X20620Y2315D01*
X20618Y2315D01*
X20618Y2315D01*
X20617Y2315D01*
X20616Y2315D01*
X20614Y2315D01*
X20601Y2319D01*
X20599Y2319D01*
X20597Y2320D01*
X20597Y2320D01*
X20596Y2320D01*
X20595Y2321D01*
X20593Y2322D01*
X20593Y2322D01*
X20592Y2323D01*
X20591Y2324D01*
X20589Y2325D01*
X20579Y2333D01*
X20578Y2335D01*
X20576Y2336D01*
X20576Y2336D01*
X20576Y2337D01*
X20574Y2338D01*
X20573Y2340D01*
X20573Y2340D01*
X20573Y2340D01*
X20572Y2342D01*
X20571Y2344D01*
X20565Y2356D01*
X20565Y2358D01*
X20564Y2359D01*
X20564Y2360D01*
X20564Y2360D01*
X20563Y2362D01*
X20563Y2364D01*
X20563Y2364D01*
X20563Y2365D01*
X20563Y2367D01*
X20562Y2369D01*
X20562Y2375D01*
X20562Y2703D01*
X20562Y2703D01*
X20562Y2710D01*
X20563Y2712D01*
X20563Y2714D01*
X20563Y2714D01*
X20563Y2715D01*
X20563Y2717D01*
X20564Y2718D01*
X20564Y2719D01*
X20564Y2719D01*
X20565Y2721D01*
X20565Y2723D01*
X20571Y2735D01*
X20572Y2737D01*
X20573Y2738D01*
X20573Y2739D01*
X20573Y2739D01*
X20574Y2741D01*
X20576Y2742D01*
X20576Y2742D01*
X20576Y2743D01*
X20578Y2744D01*
X20579Y2745D01*
X20589Y2754D01*
X20591Y2755D01*
X20592Y2756D01*
X20593Y2756D01*
X20593Y2757D01*
X20595Y2757D01*
X20596Y2758D01*
X20597Y2759D01*
X20597Y2759D01*
X20599Y2759D01*
X20601Y2760D01*
X20614Y2763D01*
X20616Y2764D01*
X20617Y2764D01*
X20618Y2764D01*
X20618Y2764D01*
X20620Y2764D01*
X20622Y2764D01*
X20623Y2764D01*
D02*
G37*
G36*
X34182Y9301D02*
X34188Y9301D01*
X34190Y9301D01*
X34192Y9301D01*
X34192Y9300D01*
X34193Y9300D01*
X34195Y9300D01*
X34197Y9300D01*
X34197Y9299D01*
X34198Y9299D01*
X34199Y9299D01*
X34201Y9298D01*
X34213Y9292D01*
X34215Y9291D01*
X34216Y9291D01*
X34217Y9290D01*
X34217Y9290D01*
X34219Y9289D01*
X34220Y9288D01*
X34221Y9287D01*
X34221Y9287D01*
X34222Y9286D01*
X34224Y9284D01*
X34232Y9274D01*
X34233Y9272D01*
X34234Y9271D01*
X34235Y9271D01*
X34235Y9270D01*
X34236Y9268D01*
X34237Y9267D01*
X34237Y9266D01*
X34237Y9266D01*
X34237Y9264D01*
X34238Y9262D01*
X34241Y9249D01*
X34242Y9248D01*
X34242Y9246D01*
X34242Y9245D01*
X34242Y9245D01*
X34242Y9243D01*
X34242Y9241D01*
X34242Y9241D01*
X34242Y9240D01*
X34242Y9238D01*
X34242Y9236D01*
X34241Y9230D01*
Y9230D01*
X34238Y9213D01*
X34238Y9213D01*
X34238Y9212D01*
X34237Y9210D01*
X34236Y9208D01*
X34236Y9208D01*
X34236Y9208D01*
X34224Y9176D01*
X34224Y9176D01*
X34224Y9175D01*
X34223Y9173D01*
X34222Y9171D01*
X34222Y9171D01*
X34222Y9171D01*
X34205Y9141D01*
X34205Y9141D01*
X34205Y9141D01*
X34203Y9139D01*
X34202Y9138D01*
X34202Y9137D01*
X34202Y9137D01*
X34180Y9111D01*
X34180Y9111D01*
X34179Y9111D01*
X34178Y9109D01*
X34176Y9108D01*
X34176Y9108D01*
X34176Y9107D01*
X34150Y9085D01*
X34149Y9085D01*
X34149Y9085D01*
X34148Y9084D01*
X34146Y9083D01*
X34146Y9083D01*
X34145Y9082D01*
X34116Y9065D01*
X34115Y9065D01*
X34115Y9065D01*
X34113Y9064D01*
X34111Y9063D01*
X34111Y9063D01*
X34111Y9063D01*
X34079Y9051D01*
X34078Y9051D01*
X34078Y9051D01*
X34076Y9051D01*
X34074Y9050D01*
X34074Y9050D01*
X34074Y9050D01*
X34040Y9044D01*
X34040Y9044D01*
X34039Y9044D01*
X34037Y9044D01*
X34035Y9044D01*
X34035Y9044D01*
X34035Y9044D01*
X34018Y9044D01*
X34000Y9044D01*
X34000Y9044D01*
X34000Y9044D01*
X33998Y9044D01*
X33996Y9044D01*
X33995Y9044D01*
X33995Y9044D01*
X33961Y9050D01*
X33961Y9050D01*
X33961Y9050D01*
X33959Y9051D01*
X33957Y9051D01*
X33957Y9051D01*
X33956Y9051D01*
X33924Y9063D01*
X33924Y9063D01*
X33924Y9063D01*
X33922Y9064D01*
X33920Y9065D01*
X33920Y9065D01*
X33919Y9065D01*
X33890Y9082D01*
X33890Y9083D01*
X33889Y9083D01*
X33888Y9084D01*
X33886Y9085D01*
X33886Y9085D01*
X33885Y9085D01*
X33859Y9107D01*
X33859Y9108D01*
X33859Y9108D01*
X33857Y9109D01*
X33856Y9111D01*
X33856Y9111D01*
X33855Y9111D01*
X33833Y9137D01*
X33833Y9137D01*
X33833Y9138D01*
X33832Y9139D01*
X33830Y9141D01*
X33830Y9141D01*
X33830Y9141D01*
X33813Y9171D01*
X33813Y9171D01*
X33813Y9171D01*
X33812Y9173D01*
X33811Y9175D01*
X33811Y9176D01*
X33811Y9176D01*
X33799Y9208D01*
X33799Y9208D01*
X33799Y9208D01*
X33798Y9210D01*
X33798Y9212D01*
X33797Y9213D01*
X33797Y9213D01*
X33794Y9230D01*
X33794Y9230D01*
X33793Y9236D01*
X33793Y9238D01*
X33793Y9240D01*
X33793Y9241D01*
X33793Y9241D01*
X33793Y9243D01*
X33793Y9245D01*
X33793Y9245D01*
X33793Y9246D01*
X33793Y9248D01*
X33794Y9249D01*
X33797Y9262D01*
X33798Y9264D01*
X33798Y9266D01*
X33798Y9266D01*
X33799Y9267D01*
X33799Y9268D01*
X33800Y9270D01*
X33801Y9271D01*
X33801Y9271D01*
X33802Y9272D01*
X33803Y9274D01*
X33812Y9284D01*
X33813Y9286D01*
X33814Y9287D01*
X33814Y9287D01*
X33815Y9288D01*
X33816Y9289D01*
X33818Y9290D01*
X33818Y9290D01*
X33819Y9291D01*
X33820Y9291D01*
X33822Y9292D01*
X33834Y9298D01*
X33836Y9299D01*
X33837Y9299D01*
X33838Y9299D01*
X33838Y9300D01*
X33840Y9300D01*
X33842Y9300D01*
X33843Y9300D01*
X33843Y9301D01*
X33845Y9301D01*
X33847Y9301D01*
X33853Y9301D01*
X34182Y9301D01*
X34182Y9301D01*
D02*
G37*
G36*
X34035Y9576D02*
X34035Y9576D01*
X34037Y9576D01*
X34039Y9576D01*
X34040Y9576D01*
X34040Y9576D01*
X34074Y9570D01*
X34074Y9570D01*
X34074Y9570D01*
X34076Y9569D01*
X34078Y9569D01*
X34078Y9569D01*
X34079Y9569D01*
X34111Y9557D01*
X34111Y9557D01*
X34111Y9557D01*
X34113Y9556D01*
X34115Y9555D01*
X34115Y9555D01*
X34116Y9555D01*
X34145Y9538D01*
X34146Y9538D01*
X34146Y9538D01*
X34148Y9536D01*
X34149Y9535D01*
X34149Y9535D01*
X34150Y9535D01*
X34176Y9513D01*
X34176Y9513D01*
X34176Y9513D01*
X34178Y9511D01*
X34179Y9510D01*
X34180Y9509D01*
X34180Y9509D01*
X34202Y9483D01*
X34202Y9483D01*
X34202Y9483D01*
X34203Y9481D01*
X34205Y9479D01*
X34205Y9479D01*
X34205Y9479D01*
X34222Y9449D01*
X34222Y9449D01*
X34222Y9449D01*
X34223Y9447D01*
X34224Y9445D01*
X34224Y9445D01*
X34224Y9444D01*
X34236Y9412D01*
X34236Y9412D01*
X34236Y9412D01*
X34237Y9410D01*
X34238Y9408D01*
X34238Y9407D01*
X34238Y9407D01*
X34241Y9390D01*
X34241Y9390D01*
X34242Y9384D01*
X34242Y9382D01*
X34242Y9380D01*
X34242Y9380D01*
X34242Y9379D01*
X34242Y9377D01*
X34242Y9375D01*
X34242Y9375D01*
X34242Y9374D01*
X34242Y9373D01*
X34241Y9371D01*
X34238Y9358D01*
X34237Y9356D01*
X34237Y9354D01*
X34237Y9354D01*
X34237Y9353D01*
X34236Y9352D01*
X34235Y9350D01*
X34235Y9350D01*
X34234Y9349D01*
X34233Y9348D01*
X34232Y9346D01*
X34224Y9336D01*
X34222Y9335D01*
X34221Y9333D01*
X34221Y9333D01*
X34220Y9332D01*
X34219Y9331D01*
X34217Y9330D01*
X34217Y9330D01*
X34216Y9330D01*
X34215Y9329D01*
X34213Y9328D01*
X34201Y9322D01*
X34199Y9322D01*
X34198Y9321D01*
X34197Y9321D01*
X34197Y9321D01*
X34195Y9320D01*
X34193Y9320D01*
X34192Y9320D01*
X34192Y9320D01*
X34190Y9320D01*
X34188Y9319D01*
X34182Y9319D01*
X33853Y9319D01*
X33853Y9319D01*
X33847Y9319D01*
X33845Y9320D01*
X33843Y9320D01*
X33843Y9320D01*
X33842Y9320D01*
X33840Y9320D01*
X33838Y9321D01*
X33838Y9321D01*
X33838Y9321D01*
X33836Y9322D01*
X33834Y9322D01*
X33822Y9328D01*
X33820Y9329D01*
X33819Y9330D01*
X33818Y9330D01*
X33818Y9330D01*
X33816Y9331D01*
X33815Y9332D01*
X33814Y9333D01*
X33814Y9333D01*
X33813Y9335D01*
X33812Y9336D01*
X33803Y9346D01*
X33802Y9348D01*
X33801Y9349D01*
X33801Y9350D01*
X33800Y9350D01*
X33799Y9352D01*
X33799Y9353D01*
X33798Y9354D01*
X33798Y9354D01*
X33798Y9356D01*
X33797Y9358D01*
X33794Y9371D01*
X33793Y9373D01*
X33793Y9374D01*
X33793Y9375D01*
X33793Y9375D01*
X33793Y9377D01*
X33793Y9379D01*
X33793Y9380D01*
X33793Y9380D01*
X33793Y9382D01*
X33793Y9384D01*
X33794Y9390D01*
Y9390D01*
X33797Y9407D01*
X33797Y9407D01*
X33798Y9408D01*
X33798Y9410D01*
X33799Y9412D01*
X33799Y9412D01*
X33799Y9412D01*
X33811Y9444D01*
X33811Y9445D01*
X33811Y9445D01*
X33812Y9447D01*
X33813Y9449D01*
X33813Y9449D01*
X33813Y9449D01*
X33830Y9479D01*
X33830Y9479D01*
X33830Y9479D01*
X33832Y9481D01*
X33833Y9483D01*
X33833Y9483D01*
X33833Y9483D01*
X33855Y9509D01*
X33856Y9509D01*
X33856Y9510D01*
X33857Y9511D01*
X33859Y9513D01*
X33859Y9513D01*
X33859Y9513D01*
X33885Y9535D01*
X33886Y9535D01*
X33886Y9535D01*
X33888Y9536D01*
X33889Y9538D01*
X33890Y9538D01*
X33890Y9538D01*
X33919Y9555D01*
X33920Y9555D01*
X33920Y9555D01*
X33922Y9556D01*
X33924Y9557D01*
X33924Y9557D01*
X33924Y9557D01*
X33956Y9569D01*
X33957Y9569D01*
X33957Y9569D01*
X33959Y9569D01*
X33961Y9570D01*
X33961Y9570D01*
X33961Y9570D01*
X33995Y9576D01*
X33995Y9576D01*
X33996Y9576D01*
X33998Y9576D01*
X34000Y9576D01*
X34000Y9576D01*
X34000Y9576D01*
X34018Y9576D01*
X34035Y9576D01*
X34035Y9576D01*
D02*
G37*
G36*
X34728Y9297D02*
X34735Y9297D01*
X34737Y9297D01*
X34739Y9297D01*
X34739Y9297D01*
X34740Y9297D01*
X34742Y9296D01*
X34743Y9296D01*
X34744Y9296D01*
X34744Y9296D01*
X34746Y9295D01*
X34748Y9294D01*
X34760Y9289D01*
X34762Y9288D01*
X34763Y9287D01*
X34764Y9287D01*
X34764Y9286D01*
X34765Y9285D01*
X34767Y9284D01*
X34767Y9284D01*
X34768Y9283D01*
X34769Y9282D01*
X34770Y9281D01*
X34779Y9270D01*
X34780Y9269D01*
X34781Y9267D01*
X34781Y9267D01*
X34782Y9267D01*
X34782Y9265D01*
X34783Y9263D01*
X34783Y9263D01*
X34784Y9262D01*
X34784Y9261D01*
X34785Y9259D01*
X34788Y9246D01*
X34789Y9244D01*
X34789Y9242D01*
X34789Y9242D01*
X34789Y9241D01*
X34789Y9239D01*
X34789Y9237D01*
X34789Y9237D01*
X34789Y9236D01*
X34789Y9235D01*
X34789Y9233D01*
X34787Y9226D01*
Y9226D01*
X34784Y9209D01*
X34784Y9209D01*
X34784Y9209D01*
X34784Y9207D01*
X34783Y9205D01*
X34783Y9204D01*
X34783Y9204D01*
X34771Y9172D01*
X34771Y9172D01*
X34771Y9172D01*
X34770Y9170D01*
X34769Y9168D01*
X34769Y9168D01*
X34769Y9167D01*
X34752Y9138D01*
X34751Y9138D01*
X34751Y9137D01*
X34750Y9136D01*
X34749Y9134D01*
X34749Y9134D01*
X34749Y9134D01*
X34726Y9107D01*
X34726Y9107D01*
X34726Y9107D01*
X34725Y9106D01*
X34723Y9104D01*
X34723Y9104D01*
X34723Y9104D01*
X34696Y9082D01*
X34696Y9082D01*
X34696Y9081D01*
X34694Y9080D01*
X34693Y9079D01*
X34692Y9079D01*
X34692Y9079D01*
X34662Y9062D01*
X34662Y9062D01*
X34662Y9061D01*
X34660Y9061D01*
X34658Y9060D01*
X34658Y9060D01*
X34658Y9060D01*
X34625Y9048D01*
X34625Y9048D01*
X34625Y9048D01*
X34623Y9047D01*
X34621Y9047D01*
X34621Y9047D01*
X34620Y9046D01*
X34587Y9041D01*
X34586Y9041D01*
X34586Y9040D01*
X34584Y9040D01*
X34582Y9040D01*
X34582Y9040D01*
X34581Y9040D01*
X34564Y9040D01*
X34547Y9040D01*
X34547Y9040D01*
X34547Y9040D01*
X34545Y9040D01*
X34542Y9040D01*
X34542Y9041D01*
X34542Y9041D01*
X34508Y9046D01*
X34508Y9047D01*
X34508Y9047D01*
X34506Y9047D01*
X34504Y9048D01*
X34503Y9048D01*
X34503Y9048D01*
X34471Y9060D01*
X34471Y9060D01*
X34470Y9060D01*
X34469Y9061D01*
X34467Y9061D01*
X34466Y9062D01*
X34466Y9062D01*
X34436Y9079D01*
X34436Y9079D01*
X34436Y9079D01*
X34434Y9080D01*
X34433Y9081D01*
X34432Y9082D01*
X34432Y9082D01*
X34406Y9104D01*
X34406Y9104D01*
X34405Y9104D01*
X34404Y9106D01*
X34402Y9107D01*
X34402Y9107D01*
X34402Y9107D01*
X34380Y9134D01*
X34380Y9134D01*
X34380Y9134D01*
X34378Y9136D01*
X34377Y9137D01*
X34377Y9138D01*
X34377Y9138D01*
X34360Y9167D01*
X34360Y9168D01*
X34359Y9168D01*
X34359Y9170D01*
X34358Y9172D01*
X34358Y9172D01*
X34357Y9172D01*
X34346Y9204D01*
X34345Y9204D01*
X34345Y9205D01*
X34345Y9207D01*
X34344Y9209D01*
X34344Y9209D01*
X34344Y9209D01*
X34341Y9226D01*
X34341Y9226D01*
X34340Y9233D01*
X34340Y9235D01*
X34339Y9236D01*
X34339Y9237D01*
X34339Y9237D01*
X34339Y9239D01*
X34339Y9241D01*
X34340Y9242D01*
X34340Y9242D01*
X34340Y9244D01*
X34340Y9246D01*
X34344Y9259D01*
X34344Y9261D01*
X34345Y9262D01*
X34345Y9263D01*
X34345Y9263D01*
X34346Y9265D01*
X34347Y9267D01*
X34347Y9267D01*
X34348Y9267D01*
X34349Y9269D01*
X34350Y9270D01*
X34358Y9281D01*
X34360Y9282D01*
X34361Y9283D01*
X34361Y9284D01*
X34362Y9284D01*
X34363Y9285D01*
X34365Y9286D01*
X34365Y9287D01*
X34365Y9287D01*
X34367Y9288D01*
X34369Y9289D01*
X34381Y9294D01*
X34383Y9295D01*
X34384Y9296D01*
X34385Y9296D01*
X34385Y9296D01*
X34387Y9296D01*
X34389Y9297D01*
X34389Y9297D01*
X34390Y9297D01*
X34392Y9297D01*
X34394Y9297D01*
X34400Y9297D01*
X34728Y9297D01*
X34728Y9297D01*
D02*
G37*
G36*
X34582Y9573D02*
X34582Y9573D01*
X34584Y9573D01*
X34586Y9572D01*
X34586Y9572D01*
X34587Y9572D01*
X34620Y9566D01*
X34621Y9566D01*
X34621Y9566D01*
X34623Y9566D01*
X34625Y9565D01*
X34625Y9565D01*
X34625Y9565D01*
X34658Y9553D01*
X34658Y9553D01*
X34658Y9553D01*
X34660Y9552D01*
X34662Y9551D01*
X34662Y9551D01*
X34662Y9551D01*
X34692Y9534D01*
X34692Y9534D01*
X34693Y9534D01*
X34694Y9533D01*
X34696Y9531D01*
X34696Y9531D01*
X34696Y9531D01*
X34723Y9509D01*
X34723Y9509D01*
X34723Y9509D01*
X34725Y9507D01*
X34726Y9506D01*
X34726Y9506D01*
X34726Y9506D01*
X34749Y9479D01*
X34749Y9479D01*
X34749Y9479D01*
X34750Y9477D01*
X34751Y9475D01*
X34751Y9475D01*
X34752Y9475D01*
X34769Y9445D01*
X34769Y9445D01*
X34769Y9445D01*
X34770Y9443D01*
X34771Y9441D01*
X34771Y9441D01*
X34771Y9441D01*
X34783Y9409D01*
X34783Y9408D01*
X34783Y9408D01*
X34784Y9406D01*
X34784Y9404D01*
X34784Y9404D01*
X34784Y9404D01*
X34787Y9387D01*
X34787Y9387D01*
X34789Y9380D01*
X34789Y9378D01*
X34789Y9376D01*
X34789Y9376D01*
X34789Y9375D01*
X34789Y9374D01*
X34789Y9372D01*
X34789Y9371D01*
X34789Y9371D01*
X34789Y9369D01*
X34788Y9367D01*
X34785Y9354D01*
X34784Y9352D01*
X34784Y9351D01*
X34783Y9350D01*
X34783Y9350D01*
X34782Y9348D01*
X34782Y9346D01*
X34781Y9346D01*
X34781Y9346D01*
X34780Y9344D01*
X34779Y9343D01*
X34770Y9332D01*
X34769Y9331D01*
X34768Y9330D01*
X34767Y9329D01*
X34767Y9329D01*
X34765Y9328D01*
X34764Y9327D01*
X34764Y9326D01*
X34763Y9326D01*
X34762Y9325D01*
X34760Y9324D01*
X34748Y9319D01*
X34746Y9318D01*
X34744Y9317D01*
X34744Y9317D01*
X34743Y9317D01*
X34742Y9317D01*
X34740Y9316D01*
X34739Y9316D01*
X34739Y9316D01*
X34737Y9316D01*
X34735Y9316D01*
X34728Y9316D01*
X34400Y9316D01*
X34400Y9316D01*
X34394Y9316D01*
X34392Y9316D01*
X34390Y9316D01*
X34389Y9316D01*
X34389Y9316D01*
X34387Y9317D01*
X34385Y9317D01*
X34385Y9317D01*
X34384Y9317D01*
X34383Y9318D01*
X34381Y9319D01*
X34369Y9324D01*
X34367Y9325D01*
X34365Y9326D01*
X34365Y9326D01*
X34365Y9327D01*
X34363Y9328D01*
X34362Y9329D01*
X34361Y9329D01*
X34361Y9330D01*
X34360Y9331D01*
X34358Y9332D01*
X34350Y9343D01*
X34349Y9344D01*
X34348Y9346D01*
X34347Y9346D01*
X34347Y9346D01*
X34346Y9348D01*
X34345Y9350D01*
X34345Y9350D01*
X34345Y9351D01*
X34344Y9352D01*
X34344Y9354D01*
X34340Y9367D01*
X34340Y9369D01*
X34340Y9371D01*
X34340Y9371D01*
X34339Y9372D01*
X34339Y9374D01*
X34339Y9375D01*
X34339Y9376D01*
X34339Y9376D01*
X34340Y9378D01*
X34340Y9380D01*
X34341Y9387D01*
Y9387D01*
X34344Y9404D01*
X34344Y9404D01*
X34344Y9404D01*
X34345Y9406D01*
X34345Y9408D01*
X34345Y9408D01*
X34346Y9409D01*
X34357Y9441D01*
X34358Y9441D01*
X34358Y9441D01*
X34359Y9443D01*
X34359Y9445D01*
X34360Y9445D01*
X34360Y9445D01*
X34377Y9475D01*
X34377Y9475D01*
X34377Y9475D01*
X34378Y9477D01*
X34380Y9479D01*
X34380Y9479D01*
X34380Y9479D01*
X34402Y9506D01*
X34402Y9506D01*
X34402Y9506D01*
X34404Y9507D01*
X34405Y9509D01*
X34406Y9509D01*
X34406Y9509D01*
X34432Y9531D01*
X34432Y9531D01*
X34433Y9531D01*
X34434Y9533D01*
X34436Y9534D01*
X34436Y9534D01*
X34436Y9534D01*
X34466Y9551D01*
X34466Y9551D01*
X34467Y9551D01*
X34469Y9552D01*
X34470Y9553D01*
X34471Y9553D01*
X34471Y9553D01*
X34503Y9565D01*
X34503Y9565D01*
X34504Y9565D01*
X34506Y9566D01*
X34508Y9566D01*
X34508Y9566D01*
X34508Y9566D01*
X34542Y9572D01*
X34542Y9572D01*
X34542Y9572D01*
X34545Y9573D01*
X34547Y9573D01*
X34547Y9573D01*
X34547Y9573D01*
X34564Y9573D01*
X34581Y9573D01*
X34582Y9573D01*
D02*
G37*
D70*
X21881Y3936D02*
G03*
X21881Y3936I-79J0D01*
G01*
X21959D02*
G03*
X21959Y3936I-157J0D01*
G01*
X39126Y9670D02*
G03*
X39126Y9670I-157J0D01*
G01*
X39047D02*
G03*
X39047Y9670I-79J0D01*
G01*
X39126Y10280D02*
G03*
X39126Y10280I-157J0D01*
G01*
X39047D02*
G03*
X39047Y10280I-79J0D01*
G01*
X39126Y10870D02*
G03*
X39126Y10870I-157J0D01*
G01*
X39047D02*
G03*
X39047Y10870I-79J0D01*
G01*
X33484Y11416D02*
G03*
X33484Y11416I-157J0D01*
G01*
X33405D02*
G03*
X33405Y11416I-79J0D01*
G01*
X33484Y10808D02*
G03*
X33484Y10808I-157J0D01*
G01*
X33405D02*
G03*
X33405Y10808I-79J0D01*
G01*
X33484Y10191D02*
G03*
X33484Y10191I-157J0D01*
G01*
X33405D02*
G03*
X33405Y10191I-79J0D01*
G01*
X34346Y10195D02*
G03*
X34346Y10195I-79J0D01*
G01*
X34425D02*
G03*
X34425Y10195I-157J0D01*
G01*
X38078Y10864D02*
G03*
X38078Y10864I-79J0D01*
G01*
X38157D02*
G03*
X38157Y10864I-157J0D01*
G01*
X38078Y10274D02*
G03*
X38078Y10274I-79J0D01*
G01*
X38157D02*
G03*
X38157Y10274I-157J0D01*
G01*
X34346Y11416D02*
G03*
X34346Y11416I-79J0D01*
G01*
X34425D02*
G03*
X34425Y11416I-157J0D01*
G01*
X34346Y10805D02*
G03*
X34346Y10805I-79J0D01*
G01*
X34425D02*
G03*
X34425Y10805I-157J0D01*
G01*
X38078Y9674D02*
G03*
X38078Y9674I-79J0D01*
G01*
X38157D02*
G03*
X38157Y9674I-157J0D01*
G01*
X34680Y9267D02*
G03*
X34680Y9267I-116J0D01*
G01*
Y9346D02*
G03*
X34680Y9346I-116J0D01*
G01*
X34134Y9271D02*
G03*
X34134Y9271I-116J0D01*
G01*
Y9349D02*
G03*
X34134Y9349I-116J0D01*
G01*
X4978Y4974D02*
G03*
X4978Y4974I-116J0D01*
G01*
X5057D02*
G03*
X5057Y4974I-116J0D01*
G01*
X36112Y15067D02*
G03*
X36112Y15067I-157J0D01*
G01*
X36033D02*
G03*
X36033Y15067I-79J0D01*
G01*
X36112Y15705D02*
G03*
X36112Y15705I-157J0D01*
G01*
X36033D02*
G03*
X36033Y15705I-79J0D01*
G01*
X35434Y15066D02*
G03*
X35434Y15066I-79J0D01*
G01*
X35513D02*
G03*
X35513Y15066I-157J0D01*
G01*
X35434Y15706D02*
G03*
X35434Y15706I-79J0D01*
G01*
X35513D02*
G03*
X35513Y15706I-157J0D01*
G01*
X4978Y4366D02*
G03*
X4978Y4366I-116J0D01*
G01*
X5057D02*
G03*
X5057Y4366I-116J0D01*
G01*
X20709Y2539D02*
G03*
X20709Y2539I-116J0D01*
G01*
X20630D02*
G03*
X20630Y2539I-116J0D01*
G01*
D71*
X35454Y12681D02*
G03*
X35454Y12681I-98J0D01*
G01*
D72*
X34564Y9306D02*
D03*
X34018Y9310D02*
D03*
D73*
X4902Y4974D02*
D03*
Y4366D02*
D03*
X20553Y2539D02*
D03*
D74*
X41642Y14067D02*
D03*
X41417D02*
D03*
X40350Y14067D02*
D03*
X40574D02*
D03*
X40350Y13829D02*
D03*
X40575D02*
D03*
X12914Y9950D02*
D03*
X12689D02*
D03*
X12914Y10200D02*
D03*
X12689D02*
D03*
X8557Y16501D02*
D03*
X8332D02*
D03*
X10281Y20664D02*
D03*
X10506D02*
D03*
X9779D02*
D03*
X10004D02*
D03*
X6139Y6500D02*
D03*
X6364D02*
D03*
Y6700D02*
D03*
X6139D02*
D03*
X10004Y20260D02*
D03*
X9779D02*
D03*
X5342Y4974D02*
D03*
X5567D02*
D03*
X12689Y9200D02*
D03*
X12914D02*
D03*
X12689Y9450D02*
D03*
X12914D02*
D03*
X12689Y9700D02*
D03*
X12914D02*
D03*
X12689Y8950D02*
D03*
X12914D02*
D03*
Y8700D02*
D03*
X12689D02*
D03*
X10541Y6570D02*
D03*
X10766D02*
D03*
X40784Y14067D02*
D03*
X41009D02*
D03*
D75*
X40575Y14271D02*
D03*
X40350D02*
D03*
X10236Y17860D02*
D03*
X10461D02*
D03*
X10004Y20024D02*
D03*
X9779D02*
D03*
X6139Y6300D02*
D03*
X6364D02*
D03*
X8748Y21579D02*
D03*
X8523D02*
D03*
X9496Y7935D02*
D03*
X9272D02*
D03*
X10769Y6330D02*
D03*
X10544D02*
D03*
X35260Y9410D02*
D03*
X35035D02*
D03*
X6852Y5315D02*
D03*
X7076D02*
D03*
X6852Y6131D02*
D03*
X7076D02*
D03*
X6852Y7245D02*
D03*
X7076D02*
D03*
X37810Y15527D02*
D03*
X38034D02*
D03*
X39594Y12428D02*
D03*
X39370D02*
D03*
X40350Y14467D02*
D03*
X40574D02*
D03*
X38360Y15527D02*
D03*
X38585D02*
D03*
D76*
X11233Y8049D02*
D03*
X11685D02*
D03*
Y7478D02*
D03*
X11233D02*
D03*
X40716Y15732D02*
D03*
X41168D02*
D03*
Y15161D02*
D03*
X40716D02*
D03*
D77*
X34678Y15669D02*
D03*
Y15098D02*
D03*
D78*
X8737Y17085D02*
D03*
X8540D02*
D03*
X8343D02*
D03*
X8146D02*
D03*
X7950D02*
D03*
X7753D02*
D03*
X7556D02*
D03*
X7359D02*
D03*
Y19014D02*
D03*
X7556D02*
D03*
X7753D02*
D03*
X7950D02*
D03*
X8146D02*
D03*
X8343D02*
D03*
X8540D02*
D03*
X8737D02*
D03*
D79*
X7083Y17361D02*
D03*
Y17557D02*
D03*
Y17754D02*
D03*
Y17951D02*
D03*
Y18148D02*
D03*
Y18345D02*
D03*
Y18542D02*
D03*
Y18739D02*
D03*
X9013D02*
D03*
Y18542D02*
D03*
Y18345D02*
D03*
Y18148D02*
D03*
Y17951D02*
D03*
Y17754D02*
D03*
Y17557D02*
D03*
Y17361D02*
D03*
D80*
X8048Y18050D02*
D03*
D81*
X37219Y9868D02*
D03*
Y10368D02*
D03*
Y10868D02*
D03*
Y11368D02*
D03*
X35038Y9868D02*
D03*
Y10368D02*
D03*
Y10868D02*
D03*
Y11368D02*
D03*
D82*
X36128Y10618D02*
D03*
D83*
X9952Y9586D02*
D03*
X10110D02*
D03*
X10267D02*
D03*
X10425D02*
D03*
Y10078D02*
D03*
X10267D02*
D03*
X10110D02*
D03*
X9952D02*
D03*
X8502Y9586D02*
D03*
X8660D02*
D03*
X8817D02*
D03*
X8975D02*
D03*
Y10078D02*
D03*
X8817D02*
D03*
X8660D02*
D03*
X8502D02*
D03*
D84*
X20228Y4094D02*
D03*
Y3937D02*
D03*
Y3780D02*
D03*
Y3622D02*
D03*
X20878D02*
D03*
Y3780D02*
D03*
Y3937D02*
D03*
Y4094D02*
D03*
X18480Y12652D02*
D03*
Y12495D02*
D03*
Y12337D02*
D03*
Y12180D02*
D03*
X19130D02*
D03*
Y12337D02*
D03*
Y12495D02*
D03*
Y12652D02*
D03*
X18479Y17705D02*
D03*
Y17548D02*
D03*
Y17390D02*
D03*
Y17233D02*
D03*
X19128D02*
D03*
Y17390D02*
D03*
Y17548D02*
D03*
Y17705D02*
D03*
D85*
X20317Y3376D02*
D03*
X20474D02*
D03*
X20632D02*
D03*
X20789D02*
D03*
Y4341D02*
D03*
X20632D02*
D03*
X20474D02*
D03*
X20317D02*
D03*
X18569Y11934D02*
D03*
X18726D02*
D03*
X18884D02*
D03*
X19041D02*
D03*
Y12898D02*
D03*
X18884D02*
D03*
X18726D02*
D03*
X18569D02*
D03*
X18567Y16987D02*
D03*
X18725D02*
D03*
X18882D02*
D03*
X19040D02*
D03*
Y17951D02*
D03*
X18882D02*
D03*
X18725D02*
D03*
X18567D02*
D03*
D86*
X8523Y20132D02*
D03*
X8897D02*
D03*
X9271D02*
D03*
Y21195D02*
D03*
X8523D02*
D03*
D87*
X7504Y7506D02*
D03*
Y4986D02*
D03*
X10024D02*
D03*
Y7506D02*
D03*
D88*
X9630D02*
D03*
X9788Y4986D02*
D03*
X9630D02*
D03*
X9866Y5143D02*
D03*
Y7348D02*
D03*
X7504Y5222D02*
D03*
X9473Y4986D02*
D03*
X9315D02*
D03*
X9158D02*
D03*
X9000D02*
D03*
X8843D02*
D03*
X8685D02*
D03*
X8528D02*
D03*
X8370D02*
D03*
X8213D02*
D03*
X8055D02*
D03*
X7898D02*
D03*
X7740D02*
D03*
X9709Y5143D02*
D03*
X9551D02*
D03*
X9394D02*
D03*
X9236D02*
D03*
X9079D02*
D03*
X8921D02*
D03*
X8764D02*
D03*
X8606D02*
D03*
X8449D02*
D03*
X8291D02*
D03*
X8134D02*
D03*
X7976D02*
D03*
X7819D02*
D03*
X7662D02*
D03*
Y5301D02*
D03*
Y5458D02*
D03*
X7504Y5380D02*
D03*
Y5537D02*
D03*
X7662Y5616D02*
D03*
X10024Y5695D02*
D03*
X7504D02*
D03*
X7662Y5773D02*
D03*
X10024Y5852D02*
D03*
X7504D02*
D03*
X7662Y5931D02*
D03*
X10024Y6010D02*
D03*
X7504D02*
D03*
X7662Y6088D02*
D03*
X10024Y6167D02*
D03*
X7504D02*
D03*
X7662Y6246D02*
D03*
X10024Y6325D02*
D03*
X7504D02*
D03*
X7662Y6403D02*
D03*
X10024Y6482D02*
D03*
X7504D02*
D03*
X7662Y6561D02*
D03*
X10024Y6640D02*
D03*
X7504D02*
D03*
X7662Y6718D02*
D03*
X10024Y6797D02*
D03*
X7504D02*
D03*
X7662Y6876D02*
D03*
X10024Y6954D02*
D03*
X7504D02*
D03*
X7662Y7033D02*
D03*
X10024Y7112D02*
D03*
X7504D02*
D03*
X7662Y7191D02*
D03*
X10024Y7269D02*
D03*
X7504D02*
D03*
X9236Y7348D02*
D03*
X9079D02*
D03*
X8921D02*
D03*
X8764D02*
D03*
X8606D02*
D03*
X8449D02*
D03*
X8291D02*
D03*
X8134D02*
D03*
X7976D02*
D03*
X7819D02*
D03*
X7662D02*
D03*
X9473Y7506D02*
D03*
X9315D02*
D03*
X9158D02*
D03*
X9000D02*
D03*
X8843D02*
D03*
X8685D02*
D03*
X8528D02*
D03*
X7898D02*
D03*
X9394Y7348D02*
D03*
X9551D02*
D03*
X9709D02*
D03*
X10024Y5537D02*
D03*
Y5380D02*
D03*
Y5222D02*
D03*
D89*
X8843Y6246D02*
D03*
D90*
X37630Y14854D02*
D03*
Y14697D02*
D03*
Y14539D02*
D03*
Y14382D02*
D03*
Y14224D02*
D03*
Y14067D02*
D03*
Y13909D02*
D03*
Y13752D02*
D03*
Y13594D02*
D03*
Y13437D02*
D03*
Y13280D02*
D03*
Y13122D02*
D03*
X40012D02*
D03*
Y13280D02*
D03*
Y13437D02*
D03*
Y13594D02*
D03*
Y13752D02*
D03*
Y13909D02*
D03*
Y14067D02*
D03*
Y14224D02*
D03*
Y14382D02*
D03*
Y14539D02*
D03*
Y14697D02*
D03*
Y14854D02*
D03*
D91*
X37955Y12797D02*
D03*
X38112D02*
D03*
X38270D02*
D03*
X38427D02*
D03*
X38585D02*
D03*
X38742D02*
D03*
X38900D02*
D03*
X39057D02*
D03*
X39215D02*
D03*
X39372D02*
D03*
X39530D02*
D03*
X39687D02*
D03*
Y15179D02*
D03*
X39530D02*
D03*
X39372D02*
D03*
X39215D02*
D03*
X39057D02*
D03*
X38900D02*
D03*
X38742D02*
D03*
X38585D02*
D03*
X38427D02*
D03*
X38270D02*
D03*
X38112D02*
D03*
X37955D02*
D03*
D92*
X38821Y13988D02*
D03*
D93*
X14694Y1769D02*
D03*
D94*
X37324Y2582D02*
D03*
Y1007D02*
D03*
X39982Y2582D02*
D03*
Y1007D02*
D03*
X33284Y2582D02*
D03*
Y1007D02*
D03*
X35942Y2582D02*
D03*
Y1007D02*
D03*
X37324Y6322D02*
D03*
Y4747D02*
D03*
X39982Y6322D02*
D03*
Y4747D02*
D03*
X33284Y6322D02*
D03*
Y4747D02*
D03*
X35942Y6322D02*
D03*
Y4747D02*
D03*
X773Y6337D02*
D03*
Y4763D02*
D03*
X3430Y6337D02*
D03*
Y4763D02*
D03*
D95*
X3158Y21846D02*
D03*
Y23814D02*
D03*
Y22830D02*
D03*
X402D02*
D03*
Y23814D02*
D03*
Y21846D02*
D03*
D96*
X21926Y3936D02*
D03*
X21680D02*
D03*
X39091Y9670D02*
D03*
X38845D02*
D03*
X39091Y10280D02*
D03*
X38845D02*
D03*
X39091Y10870D02*
D03*
X38845D02*
D03*
X33205Y11416D02*
D03*
X33451D02*
D03*
X33205Y10808D02*
D03*
X33451D02*
D03*
X33205Y10191D02*
D03*
X33451D02*
D03*
X34391Y10195D02*
D03*
X34145D02*
D03*
X37875Y10864D02*
D03*
X38121D02*
D03*
X37875Y10274D02*
D03*
X38121D02*
D03*
X34391Y11416D02*
D03*
X34145D02*
D03*
X34391Y10805D02*
D03*
X34145D02*
D03*
X37875Y9674D02*
D03*
X38121D02*
D03*
X35954Y15189D02*
D03*
Y14943D02*
D03*
Y15583D02*
D03*
Y15829D02*
D03*
X35231Y15066D02*
D03*
X35477D02*
D03*
X35231Y15706D02*
D03*
X35477D02*
D03*
D97*
X4252Y20589D02*
D03*
Y20365D02*
D03*
X10009Y21121D02*
D03*
Y20896D02*
D03*
X40442Y17220D02*
D03*
Y16996D02*
D03*
X7076Y19363D02*
D03*
Y19588D02*
D03*
X7330Y19363D02*
D03*
Y19588D02*
D03*
X42055Y23412D02*
D03*
Y23188D02*
D03*
X39955Y23412D02*
D03*
Y23188D02*
D03*
X7706Y9961D02*
D03*
Y10185D02*
D03*
X6562Y5505D02*
D03*
Y5280D02*
D03*
X32123Y10042D02*
D03*
Y9817D02*
D03*
X40442Y17499D02*
D03*
Y17724D02*
D03*
X32120Y10330D02*
D03*
Y10555D02*
D03*
X10417Y5337D02*
D03*
Y5112D02*
D03*
X11202Y3912D02*
D03*
Y3688D02*
D03*
X42055Y22112D02*
D03*
Y21888D02*
D03*
X39955Y22112D02*
D03*
Y21888D02*
D03*
X38832Y16379D02*
D03*
Y16154D02*
D03*
D98*
X35619Y14106D02*
D03*
X36013D02*
D03*
X35619Y14470D02*
D03*
X36013D02*
D03*
X10482Y22264D02*
D03*
X10876D02*
D03*
D99*
X34118Y20946D02*
D03*
Y20553D02*
D03*
X34490Y20946D02*
D03*
Y20553D02*
D03*
D100*
X7500Y20664D02*
D03*
D101*
X7913Y20920D02*
D03*
Y20408D02*
D03*
D102*
X41411Y17728D02*
D03*
X40821D02*
D03*
Y17020D02*
D03*
X41411D02*
D03*
X31746Y10545D02*
D03*
X31155D02*
D03*
Y9836D02*
D03*
X31746D02*
D03*
X12270Y7407D02*
D03*
X12860D02*
D03*
Y8116D02*
D03*
X12270D02*
D03*
D103*
X41116Y17728D02*
D03*
Y17020D02*
D03*
X31450Y10545D02*
D03*
Y9836D02*
D03*
X12565Y7407D02*
D03*
Y8116D02*
D03*
D104*
X16825Y11000D02*
D03*
X17825D02*
D03*
Y9000D02*
D03*
X16825D02*
D03*
Y16000D02*
D03*
X17825D02*
D03*
Y14000D02*
D03*
X16825D02*
D03*
Y21000D02*
D03*
X17825D02*
D03*
Y19000D02*
D03*
X16825D02*
D03*
X24325Y11000D02*
D03*
Y9000D02*
D03*
X23325Y11000D02*
D03*
Y9000D02*
D03*
X22325Y11000D02*
D03*
Y9000D02*
D03*
X20325Y11000D02*
D03*
X21325D02*
D03*
Y9000D02*
D03*
X20325D02*
D03*
X25325Y11000D02*
D03*
Y9000D02*
D03*
X26325Y11000D02*
D03*
Y9000D02*
D03*
X27325Y11000D02*
D03*
Y9000D02*
D03*
X28325Y11000D02*
D03*
Y9000D02*
D03*
X29325Y11000D02*
D03*
Y9000D02*
D03*
X24325Y16000D02*
D03*
Y14000D02*
D03*
X23325Y16000D02*
D03*
Y14000D02*
D03*
X22325Y16000D02*
D03*
Y14000D02*
D03*
X20325Y16000D02*
D03*
X21325D02*
D03*
Y14000D02*
D03*
X20325D02*
D03*
X25325Y16000D02*
D03*
Y14000D02*
D03*
X26325Y16000D02*
D03*
Y14000D02*
D03*
X27325Y16000D02*
D03*
Y14000D02*
D03*
X28325Y16000D02*
D03*
Y14000D02*
D03*
X29325Y16000D02*
D03*
Y14000D02*
D03*
X24325Y21000D02*
D03*
Y19000D02*
D03*
X23325Y21000D02*
D03*
Y19000D02*
D03*
X22325Y21000D02*
D03*
Y19000D02*
D03*
X20325Y21000D02*
D03*
X21325D02*
D03*
Y19000D02*
D03*
X20325D02*
D03*
X25325Y21000D02*
D03*
Y19000D02*
D03*
X26325Y21000D02*
D03*
Y19000D02*
D03*
X27325Y21000D02*
D03*
Y19000D02*
D03*
X28325Y21000D02*
D03*
Y19000D02*
D03*
X29325Y21000D02*
D03*
Y19000D02*
D03*
D105*
X5104Y2539D02*
D03*
X5604D02*
D03*
X6104D02*
D03*
X6604D02*
D03*
X7104D02*
D03*
X5104Y1004D02*
D03*
X5604D02*
D03*
X6104D02*
D03*
X6604D02*
D03*
X7104D02*
D03*
X23826Y1004D02*
D03*
X23326D02*
D03*
X22826D02*
D03*
X22326D02*
D03*
X21826D02*
D03*
X23826Y2539D02*
D03*
X23326D02*
D03*
X22826D02*
D03*
X22326D02*
D03*
X21826D02*
D03*
X24326D02*
D03*
X24826D02*
D03*
X25326D02*
D03*
X25826D02*
D03*
X26326D02*
D03*
X24326Y1004D02*
D03*
X24826D02*
D03*
X25326D02*
D03*
X25826D02*
D03*
X26326D02*
D03*
X21826Y2539D02*
D03*
X22326D02*
D03*
X22826D02*
D03*
X23326D02*
D03*
X23826D02*
D03*
X21826Y1004D02*
D03*
X22326D02*
D03*
X22826D02*
D03*
X23326D02*
D03*
X23826D02*
D03*
D106*
X12170Y24437D02*
D03*
Y23284D02*
D03*
X10170D02*
D03*
Y24437D02*
D03*
X11170D02*
D03*
Y23284D02*
D03*
D107*
X41080Y22000D02*
D03*
X41630D02*
D03*
X38980D02*
D03*
X39530D02*
D03*
X41080Y23300D02*
D03*
X41630D02*
D03*
X38980D02*
D03*
X39530D02*
D03*
X12127Y3800D02*
D03*
X11577D02*
D03*
D108*
X10380Y18460D02*
D03*
X11076D02*
D03*
D109*
X10531Y17410D02*
D03*
Y16713D02*
D03*
D110*
X38348Y16047D02*
D03*
X37816D02*
D03*
X10904Y19190D02*
D03*
X10372D02*
D03*
X9813Y16609D02*
D03*
X9281D02*
D03*
X6204Y18290D02*
D03*
X5672D02*
D03*
D111*
X33555Y22817D02*
D03*
X35051D02*
D03*
D112*
X34106Y21911D02*
D03*
X34303D02*
D03*
X34500D02*
D03*
X34697D02*
D03*
X33909D02*
D03*
D113*
X8613Y817D02*
D03*
X9113D02*
D03*
X9613D02*
D03*
X10113D02*
D03*
X10613D02*
D03*
Y1317D02*
D03*
X10113D02*
D03*
X9613D02*
D03*
X9113D02*
D03*
X8613D02*
D03*
D114*
X42148Y13663D02*
D03*
Y14470D02*
D03*
X42896D02*
D03*
Y13663D02*
D03*
D115*
X42065Y14067D02*
D03*
X42978D02*
D03*
D116*
X43309Y24213D02*
D03*
Y787D02*
D03*
X789Y787D02*
D03*
D117*
X4697Y8553D02*
D03*
Y8179D02*
D03*
D118*
X4615Y10092D02*
D03*
D119*
X3946D02*
D03*
Y9285D02*
D03*
X4694D02*
D03*
D120*
X10703Y21121D02*
D03*
Y20896D02*
D03*
X8188Y9474D02*
D03*
Y9698D02*
D03*
X9783Y20896D02*
D03*
Y21121D02*
D03*
X4076Y8488D02*
D03*
Y8264D02*
D03*
X4962Y8110D02*
D03*
Y8335D02*
D03*
X43260Y13923D02*
D03*
Y13699D02*
D03*
X10274Y8167D02*
D03*
Y7942D02*
D03*
X10594Y7122D02*
D03*
Y7347D02*
D03*
X9584Y4312D02*
D03*
Y4537D02*
D03*
X10811Y7347D02*
D03*
Y7122D02*
D03*
X3811Y8264D02*
D03*
Y8488D02*
D03*
X8149Y19556D02*
D03*
Y19331D02*
D03*
X8304Y4312D02*
D03*
Y4537D02*
D03*
X9638Y9961D02*
D03*
Y10185D02*
D03*
Y9474D02*
D03*
Y9698D02*
D03*
X8188Y9961D02*
D03*
Y10185D02*
D03*
X38832Y15749D02*
D03*
Y15524D02*
D03*
X41216Y14067D02*
D03*
Y13843D02*
D03*
X37212Y13214D02*
D03*
Y13439D02*
D03*
X40222Y15279D02*
D03*
Y15054D02*
D03*
X39092Y16154D02*
D03*
Y16379D02*
D03*
D121*
X4652Y20477D02*
D03*
Y19945D02*
D03*
X7244Y8780D02*
D03*
Y8249D02*
D03*
X6784Y8780D02*
D03*
Y8249D02*
D03*
X9790Y18197D02*
D03*
Y18729D02*
D03*
X9790Y17705D02*
D03*
Y17174D02*
D03*
D122*
X4362Y8563D02*
D03*
Y8169D02*
D03*
X36688Y13447D02*
D03*
Y13053D02*
D03*
X7794Y8348D02*
D03*
Y8741D02*
D03*
X9824Y8008D02*
D03*
Y8401D02*
D03*
X9134Y8632D02*
D03*
Y8238D02*
D03*
X37432Y15700D02*
D03*
Y16093D02*
D03*
X37102Y15700D02*
D03*
Y16093D02*
D03*
D123*
X8541Y8225D02*
D03*
X8147D02*
D03*
X8721Y8565D02*
D03*
X8327D02*
D03*
X6175Y17840D02*
D03*
X5781D02*
D03*
X34115Y21308D02*
D03*
X33721D02*
D03*
X34883D02*
D03*
X34490D02*
D03*
D124*
X2949Y8238D02*
D03*
Y8553D02*
D03*
Y10758D02*
D03*
Y10443D02*
D03*
D125*
Y8809D02*
D03*
Y9006D02*
D03*
Y9203D02*
D03*
Y9400D02*
D03*
Y9596D02*
D03*
Y9793D02*
D03*
Y9990D02*
D03*
Y10187D02*
D03*
D126*
X7263Y20664D02*
D03*
D127*
X37218Y18457D02*
D03*
X38218D02*
D03*
D128*
X36218D02*
D03*
D129*
X8113Y1067D02*
D03*
X11113Y1467D02*
D03*
Y667D02*
D03*
D130*
X2527Y8360D02*
D03*
Y10636D02*
D03*
D131*
X1071Y7795D02*
D03*
Y11201D02*
D03*
D132*
X2716D02*
D03*
Y7795D02*
D03*
D133*
X44529Y23031D02*
D03*
X41734Y1969D02*
D03*
X17325Y1969D02*
D03*
X4962Y23031D02*
D03*
X3151Y1969D02*
D03*
X17325Y23031D02*
D03*
M02*
