G04*
G04 #@! TF.GenerationSoftware,Altium Limited,Altium Designer,24.6.1 (21)*
G04*
G04 Layer_Color=16711935*
%FSLAX24Y24*%
%MOIN*%
G70*
G04*
G04 #@! TF.SameCoordinates,3324350E-0B28-4C73-BA69-32ECCD091292*
G04*
G04*
G04 #@! TF.FilePolarity,Negative*
G04*
G01*
G75*
%ADD119C,0.0787*%
%ADD124C,0.0276*%
%ADD125O,0.0709X0.0394*%
%ADD126O,0.0827X0.0394*%
%ADD127C,0.0630*%
%ADD128R,0.0630X0.0630*%
%ADD129C,0.0406*%
%ADD130C,0.1299*%
%ADD131C,0.0264*%
D119*
X43309Y24213D02*
D03*
Y787D02*
D03*
X789Y787D02*
D03*
D124*
X2526Y8364D02*
D03*
Y10639D02*
D03*
D125*
X1069Y7799D02*
D03*
Y11204D02*
D03*
D126*
X2715D02*
D03*
Y7799D02*
D03*
D127*
X8117Y1624D02*
D03*
X9298D02*
D03*
X10479D02*
D03*
X11662D02*
D03*
X4032Y9100D02*
D03*
Y10282D02*
D03*
X5222Y9280D02*
D03*
X14242Y19370D02*
D03*
X3642Y12500D02*
D03*
X17912Y5140D02*
D03*
X4210Y19260D02*
D03*
X7332Y22670D02*
D03*
X10368Y19000D02*
D03*
X10582Y21620D02*
D03*
X9202Y22850D02*
D03*
X6301Y787D02*
D03*
X39504Y15785D02*
D03*
X15002Y18590D02*
D03*
X37218Y18457D02*
D03*
X38218D02*
D03*
D128*
X36218D02*
D03*
D129*
X8113Y1067D02*
D03*
X11113Y1467D02*
D03*
Y667D02*
D03*
D130*
X44529Y23031D02*
D03*
X41734Y1969D02*
D03*
X17325Y1969D02*
D03*
X4962Y23031D02*
D03*
X3151Y1969D02*
D03*
X17325Y23031D02*
D03*
D131*
X8048Y18050D02*
D03*
Y17577D02*
D03*
X8520D02*
D03*
Y18050D02*
D03*
Y18522D02*
D03*
X8048D02*
D03*
X7576D02*
D03*
Y18050D02*
D03*
Y17577D02*
D03*
M02*
