  0
SECTION
  2
HEADER
  9
$ACADVER
  1
AC1009
  9
$INSBASE
 10
0.000000
 20
0.000000
  9
$LIMMIN
 10
-1411.097000
 20
-1400.937000
  9
$LIMMAX
 10
1128.878108
 20
1139.038108
  9
$EXTMIN
 10
-1411.097000
 20
-1400.937000
  9
$EXTMAX
 10
1128.878108
 20
1139.038108
  9
$ATTMODE
 70
0
  9
$LUNITS
 70
2
  9
$LUPREC
 70
3
  9
$THICKNESS
 40
1.599997
  0
ENDSEC
  0
SECTION
  2
TABLES
  0
TABLE
  2
LTYPE
 70
1
  0
LTYPE
  3
Solid Line
  2
CONTINUOUS
 70
0
 72
65
 73
0
 40
0.000000
  0
ENDTAB
  0
TABLE
  2
LAYER
 70
7
  0
LAYER
  2
BG_BOARD__NAME
 70
0
 62
103
  6
CONTINUOUS
  0
LAYER
  2
BG_ASB
 70
0
 62
103
  6
CONTINUOUS
  0
LAYER
  2
BG_DESIGN_OUTLINE
 70
0
 62
7
  6
CONTINUOUS
  0
LAYER
  2
BG_OUTLINE
 70
0
 62
254
  6
CONTINUOUS
  0
LAYER
  2
PG_ASSEMBLY_BOTTOM
 70
0
 62
12
  6
CONTINUOUS
  0
LAYER
  2
PIN_BOTTOM
 70
0
 62
2
  6
CONTINUOUS
  0
LAYER
  2
RD_SILKSCREEN_BOTTOM
 70
0
 62
132
  6
CONTINUOUS
  0
ENDTAB
  0
TABLE
  2
STYLE
 70
1
  0
STYLE
  2
STANDARD
 70
0
 40
0.000000
 41
1.000000
 50
0.000000
 71
0
 42
0.200000
  3
txt
  0
ENDTAB
  0
ENDSEC
  0
SECTION
  2
BLOCKS
  0
BLOCK
  8
0
  2
FIGURE_CIRCLE
 70
0
 10
0.000000
 20
0.000000
  0
CIRCLE
  8
0
 10
0.000000
 20
0.000000
 40
0.500000
  0
ENDBLK
  0
BLOCK
  8
0
  2
FIGURE_SQUARE
 70
0
 10
0.000000
 20
0.000000
  0
POLYLINE
  8
0
 66
1
 70
1
 40
0.000000
 41
0.000000
 39
0.000000
  0
VERTEX
  8
0
 10
-0.500000
 20
-0.500000
 40
0.000000
 41
0.000000
 42
0.000000
  0
VERTEX
  8
0
 10
-0.500000
 20
0.500000
 40
0.000000
 41
0.000000
 42
0.000000
  0
VERTEX
  8
0
 10
0.500000
 20
0.500000
 40
0.000000
 41
0.000000
 42
0.000000
  0
VERTEX
  8
0
 10
0.500000
 20
-0.500000
 40
0.000000
 41
0.000000
 42
0.000000
  0
SEQEND
  0
ENDBLK
  0
BLOCK
  8
0
  2
FIGURE_HEX
 70
0
 10
0.000000
 20
0.000000
  0
POLYLINE
  8
0
 66
1
 70
1
 40
0.000000
 41
0.000000
 39
0.000000
  0
VERTEX
  8
0
 10
-0.500000
 20
0.000000
 40
0.000000
 41
0.000000
 42
0.000000
  0
VERTEX
  8
0
 10
-0.250000
 20
0.500000
 40
0.000000
 41
0.000000
 42
0.000000
  0
VERTEX
  8
0
 10
0.250000
 20
0.500000
 40
0.000000
 41
0.000000
 42
0.000000
  0
VERTEX
  8
0
 10
0.500000
 20
0.000000
 40
0.000000
 41
0.000000
 42
0.000000
  0
VERTEX
  8
0
 10
0.250000
 20
-0.500000
 40
0.000000
 41
0.000000
 42
0.000000
  0
VERTEX
  8
0
 10
-0.250000
 20
-0.500000
 40
0.000000
 41
0.000000
 42
0.000000
  0
SEQEND
  0
ENDBLK
  0
BLOCK
  8
0
  2
FIGURE_OCT
 70
0
 10
0.000000
 20
0.000000
  0
POLYLINE
  8
0
 66
1
 70
1
 40
0.000000
 41
0.000000
 39
0.000000
  0
VERTEX
  8
0
 10
-0.500000
 20
-0.207100
 40
0.000000
 41
0.000000
 42
0.000000
  0
VERTEX
  8
0
 10
-0.500000
 20
0.207100
 40
0.000000
 41
0.000000
 42
0.000000
  0
VERTEX
  8
0
 10
-0.207100
 20
0.500000
 40
0.000000
 41
0.000000
 42
0.000000
  0
VERTEX
  8
0
 10
0.207100
 20
0.500000
 40
0.000000
 41
0.000000
 42
0.000000
  0
VERTEX
  8
0
 10
0.500000
 20
0.207100
 40
0.000000
 41
0.000000
 42
0.000000
  0
VERTEX
  8
0
 10
0.500000
 20
-0.207100
 40
0.000000
 41
0.000000
 42
0.000000
  0
VERTEX
  8
0
 10
0.207100
 20
-0.500000
 40
0.000000
 41
0.000000
 42
0.000000
  0
VERTEX
  8
0
 10
-0.207100
 20
-0.500000
 40
0.000000
 41
0.000000
 42
0.000000
  0
SEQEND
  0
ENDBLK
  0
BLOCK
  8
0
  2
FIGURE_OBLONG
 70
0
 10
0.000000
 20
0.000000
  0
POLYLINE
  8
0
 66
1
 70
1
 40
0.000000
 41
0.000000
 39
0.000000
  0
VERTEX
  8
0
 10
-0.500000
 20
-0.125000
 40
0.000000
 41
0.000000
 42
0.000000
  0
VERTEX
  8
0
 10
-0.500000
 20
0.125000
 40
0.000000
 41
0.000000
 42
0.000000
  0
VERTEX
  8
0
 10
-0.416000
 20
0.375000
 40
0.000000
 41
0.000000
 42
0.000000
  0
VERTEX
  8
0
 10
-0.250000
 20
0.500000
 40
0.000000
 41
0.000000
 42
0.000000
  0
VERTEX
  8
0
 10
0.250000
 20
0.500000
 40
0.000000
 41
0.000000
 42
0.000000
  0
VERTEX
  8
0
 10
0.416000
 20
0.375000
 40
0.000000
 41
0.000000
 42
0.000000
  0
VERTEX
  8
0
 10
0.500000
 20
0.125000
 40
0.000000
 41
0.000000
 42
0.000000
  0
VERTEX
  8
0
 10
0.500000
 20
-0.125000
 40
0.000000
 41
0.000000
 42
0.000000
  0
VERTEX
  8
0
 10
0.416000
 20
-0.375000
 40
0.000000
 41
0.000000
 42
0.000000
  0
VERTEX
  8
0
 10
0.250000
 20
-0.500000
 40
0.000000
 41
0.000000
 42
0.000000
  0
VERTEX
  8
0
 10
-0.250000
 20
-0.500000
 40
0.000000
 41
0.000000
 42
0.000000
  0
VERTEX
  8
0
 10
-0.416000
 20
-0.375000
 40
0.000000
 41
0.000000
 42
0.000000
  0
SEQEND
  0
ENDBLK
  0
BLOCK
  8
0
  2
FIGURE_TRI
 70
0
 10
0.000000
 20
0.000000
  0
POLYLINE
  8
0
 66
1
 70
1
 40
0.000000
 41
0.000000
 39
0.000000
  0
VERTEX
  8
0
 10
-0.500000
 20
-0.500000
 40
0.000000
 41
0.000000
 42
0.000000
  0
VERTEX
  8
0
 10
0.000000
 20
0.500000
 40
0.000000
 41
0.000000
 42
0.000000
  0
VERTEX
  8
0
 10
0.500000
 20
-0.500000
 40
0.000000
 41
0.000000
 42
0.000000
  0
SEQEND
  0
ENDBLK
  0
BLOCK
  8
0
  2
FIGURE_CROSS
 70
0
 10
0.000000
 20
0.000000
  0
POLYLINE
  8
0
 66
1
 70
0
 40
0.000000
 41
0.000000
 39
0.000000
  0
VERTEX
  8
0
 10
-0.500000
 20
0.000000
 40
0.000000
 41
0.000000
 42
0.000000
  0
VERTEX
  8
0
 10
0.500000
 20
0.000000
 40
0.000000
 41
0.000000
 42
0.000000
  0
SEQEND
  0
POLYLINE
  8
0
 66
1
 70
0
 40
0.000000
 41
0.000000
 39
0.000000
  0
VERTEX
  8
0
 10
0.000000
 20
0.500000
 40
0.000000
 41
0.000000
 42
0.000000
  0
VERTEX
  8
0
 10
0.000000
 20
-0.500000
 40
0.000000
 41
0.000000
 42
0.000000
  0
SEQEND
  0
ENDBLK
  0
BLOCK
  8
0
  2
FIGURE_DIAMOND
 70
0
 10
0.000000
 20
0.000000
  0
POLYLINE
  8
0
 66
1
 70
1
 40
0.000000
 41
0.000000
 39
0.000000
  0
VERTEX
  8
0
 10
-0.500000
 20
0.000000
 40
0.000000
 41
0.000000
 42
0.000000
  0
VERTEX
  8
0
 10
0.000000
 20
0.500000
 40
0.000000
 41
0.000000
 42
0.000000
  0
VERTEX
  8
0
 10
0.500000
 20
0.000000
 40
0.000000
 41
0.000000
 42
0.000000
  0
VERTEX
  8
0
 10
0.000000
 20
-0.500000
 40
0.000000
 41
0.000000
 42
0.000000
  0
SEQEND
  0
ENDBLK
  0
ENDSEC
  0
SECTION
  2
ENTITIES
  0
CIRCLE
  8
PIN_BOTTOM
 10
9.779000
 20
81.661000
 40
0.508000
  0
CIRCLE
  8
PIN_BOTTOM
 10
50.419000
 20
2.540000
 40
0.508000
  0
CIRCLE
  8
PIN_BOTTOM
 10
9.779000
 20
2.540000
 40
0.508000
  0
POLYLINE
  8
PIN_BOTTOM
 66
1
 70
1
 40
0.000000
 41
0.000000
 39
0.000000
  0
VERTEX
  8
PIN_BOTTOM
 10
15.588971
 20
42.984547
 40
0.000000
 41
0.000000
 42
0.000000
  0
VERTEX
  8
PIN_BOTTOM
 10
15.588971
 20
43.581447
 40
0.000000
 41
0.000000
 42
0.000000
  0
VERTEX
  8
PIN_BOTTOM
 10
14.357071
 20
43.581447
 40
0.000000
 41
0.000000
 42
0.000000
  0
VERTEX
  8
PIN_BOTTOM
 10
14.357071
 20
42.984547
 40
0.000000
 41
0.000000
 42
0.000000
  0
SEQEND
  0
POLYLINE
  8
PIN_BOTTOM
 66
1
 70
1
 40
0.000000
 41
0.000000
 39
0.000000
  0
VERTEX
  8
PIN_BOTTOM
 10
17.708956
 20
42.034536
 40
0.000000
 41
0.000000
 42
0.000000
  0
VERTEX
  8
PIN_BOTTOM
 10
17.708956
 20
42.631436
 40
0.000000
 41
0.000000
 42
0.000000
  0
VERTEX
  8
PIN_BOTTOM
 10
16.477056
 20
42.631436
 40
0.000000
 41
0.000000
 42
0.000000
  0
VERTEX
  8
PIN_BOTTOM
 10
16.477056
 20
42.034536
 40
0.000000
 41
0.000000
 42
0.000000
  0
SEQEND
  0
POLYLINE
  8
PIN_BOTTOM
 66
1
 70
1
 40
0.000000
 41
0.000000
 39
0.000000
  0
VERTEX
  8
PIN_BOTTOM
 10
17.708956
 20
43.934558
 40
0.000000
 41
0.000000
 42
0.000000
  0
VERTEX
  8
PIN_BOTTOM
 10
17.708956
 20
44.531458
 40
0.000000
 41
0.000000
 42
0.000000
  0
VERTEX
  8
PIN_BOTTOM
 10
16.477056
 20
44.531458
 40
0.000000
 41
0.000000
 42
0.000000
  0
VERTEX
  8
PIN_BOTTOM
 10
16.477056
 20
43.934558
 40
0.000000
 41
0.000000
 42
0.000000
  0
SEQEND
  0
POLYLINE
  8
PG_ASSEMBLY_BOTTOM
 66
1
 70
0
 40
0.000000
 41
0.000000
 39
0.000000
  0
VERTEX
  8
PG_ASSEMBLY_BOTTOM
 10
16.683025
 20
41.832987
 40
0.127000
 41
0.127000
 42
0.000000
  0
VERTEX
  8
PG_ASSEMBLY_BOTTOM
 10
16.683025
 20
44.733007
 40
0.127000
 41
0.127000
 42
0.000000
  0
VERTEX
  8
PG_ASSEMBLY_BOTTOM
 10
15.383002
 20
44.733007
 40
0.127000
 41
0.127000
 42
0.000000
  0
VERTEX
  8
PG_ASSEMBLY_BOTTOM
 10
15.383002
 20
41.832987
 40
0.127000
 41
0.127000
 42
0.000000
  0
VERTEX
  8
PG_ASSEMBLY_BOTTOM
 10
16.683025
 20
41.832987
 40
0.127000
 41
0.127000
 42
0.000000
  0
SEQEND
  0
POLYLINE
  8
PG_ASSEMBLY_BOTTOM
 66
1
 70
1
 40
0.000000
 41
0.000000
 39
0.000000
  0
VERTEX
  8
PG_ASSEMBLY_BOTTOM
 10
18.983985
 20
44.298997
 40
0.000000
 41
0.000000
 42
1.000000
  0
VERTEX
  8
PG_ASSEMBLY_BOTTOM
 10
18.416041
 20
44.298997
 40
0.000000
 41
0.000000
 42
1.000000
  0
SEQEND
  0
TEXT
  8
RD_SILKSCREEN_BOTTOM
 10
17.706010
 20
45.466000
 11
0.000000
 21
0.000000
 40
1.016000
 41
0.927175
 50
0.000000
  7
STANDARD
 71
2
 72
0
  1
U12
 73
0
  0
POLYLINE
  8
PIN_BOTTOM
 66
1
 70
1
 40
0.000000
 41
0.000000
 39
0.000000
  0
VERTEX
  8
PIN_BOTTOM
 10
10.908995
 20
44.279693
 40
0.000000
 41
0.000000
 42
0.000000
  0
VERTEX
  8
PIN_BOTTOM
 10
10.908995
 20
42.337101
 40
0.000000
 41
0.000000
 42
0.413011
  0
VERTEX
  8
PIN_BOTTOM
 10
11.102696
 20
42.143401
 40
0.000000
 41
0.000000
 42
0.000000
  0
VERTEX
  8
PIN_BOTTOM
 10
12.265304
 20
42.143401
 40
0.000000
 41
0.000000
 42
0.413011
  0
VERTEX
  8
PIN_BOTTOM
 10
12.459005
 20
42.337101
 40
0.000000
 41
0.000000
 42
0.000000
  0
VERTEX
  8
PIN_BOTTOM
 10
12.459005
 20
44.279693
 40
0.000000
 41
0.000000
 42
0.413011
  0
VERTEX
  8
PIN_BOTTOM
 10
12.265304
 20
44.473393
 40
0.000000
 41
0.000000
 42
0.000000
  0
VERTEX
  8
PIN_BOTTOM
 10
11.102696
 20
44.473393
 40
0.000000
 41
0.000000
 42
0.413011
  0
SEQEND
  0
POLYLINE
  8
PIN_BOTTOM
 66
1
 70
1
 40
0.000000
 41
0.000000
 39
0.000000
  0
VERTEX
  8
PIN_BOTTOM
 10
10.908995
 20
40.009699
 40
0.000000
 41
0.000000
 42
0.000000
  0
VERTEX
  8
PIN_BOTTOM
 10
10.908995
 20
38.067107
 40
0.000000
 41
0.000000
 42
0.413011
  0
VERTEX
  8
PIN_BOTTOM
 10
11.102696
 20
37.873407
 40
0.000000
 41
0.000000
 42
0.000000
  0
VERTEX
  8
PIN_BOTTOM
 10
12.265304
 20
37.873407
 40
0.000000
 41
0.000000
 42
0.413011
  0
VERTEX
  8
PIN_BOTTOM
 10
12.459005
 20
38.067107
 40
0.000000
 41
0.000000
 42
0.000000
  0
VERTEX
  8
PIN_BOTTOM
 10
12.459005
 20
40.009699
 40
0.000000
 41
0.000000
 42
0.413011
  0
VERTEX
  8
PIN_BOTTOM
 10
12.265304
 20
40.203399
 40
0.000000
 41
0.000000
 42
0.000000
  0
VERTEX
  8
PIN_BOTTOM
 10
11.102696
 20
40.203399
 40
0.000000
 41
0.000000
 42
0.413011
  0
SEQEND
  0
POLYLINE
  8
PG_ASSEMBLY_BOTTOM
 66
1
 70
0
 40
0.000000
 41
0.000000
 39
0.000000
  0
VERTEX
  8
PG_ASSEMBLY_BOTTOM
 10
12.986512
 20
39.023392
 40
0.127000
 41
0.127000
 42
0.000000
  0
VERTEX
  8
PG_ASSEMBLY_BOTTOM
 10
12.986512
 20
43.323408
 40
0.127000
 41
0.127000
 42
0.000000
  0
VERTEX
  8
PG_ASSEMBLY_BOTTOM
 10
10.381488
 20
43.323408
 40
0.127000
 41
0.127000
 42
0.000000
  0
VERTEX
  8
PG_ASSEMBLY_BOTTOM
 10
10.381488
 20
39.023392
 40
0.127000
 41
0.127000
 42
0.000000
  0
VERTEX
  8
PG_ASSEMBLY_BOTTOM
 10
12.986512
 20
39.023392
 40
0.127000
 41
0.127000
 42
0.000000
  0
SEQEND
  0
TEXT
  8
RD_SILKSCREEN_BOTTOM
 10
8.890000
 20
40.423008
 11
0.000000
 21
0.000000
 40
1.016000
 41
0.927175
 50
270.000000
  7
STANDARD
 71
2
 72
0
  1
D2
 73
0
  0
POLYLINE
  8
PIN_BOTTOM
 66
1
 70
1
 40
0.000000
 41
0.000000
 39
0.000000
  0
VERTEX
  8
PIN_BOTTOM
 10
37.835611
 20
20.521397
 40
0.000000
 41
0.000000
 42
0.000000
  0
VERTEX
  8
PIN_BOTTOM
 10
38.835609
 20
20.521397
 40
0.000000
 41
0.000000
 42
0.000000
  0
VERTEX
  8
PIN_BOTTOM
 10
38.835609
 20
21.521395
 40
0.000000
 41
0.000000
 42
0.000000
  0
VERTEX
  8
PIN_BOTTOM
 10
37.835611
 20
21.521395
 40
0.000000
 41
0.000000
 42
0.000000
  0
SEQEND
  0
POLYLINE
  8
PIN_BOTTOM
 66
1
 70
1
 40
0.000000
 41
0.000000
 39
0.000000
  0
VERTEX
  8
PIN_BOTTOM
 10
34.635618
 20
20.521397
 40
0.000000
 41
0.000000
 42
0.000000
  0
VERTEX
  8
PIN_BOTTOM
 10
35.635616
 20
20.521397
 40
0.000000
 41
0.000000
 42
0.000000
  0
VERTEX
  8
PIN_BOTTOM
 10
35.635616
 20
21.521395
 40
0.000000
 41
0.000000
 42
0.000000
  0
VERTEX
  8
PIN_BOTTOM
 10
34.635618
 20
21.521395
 40
0.000000
 41
0.000000
 42
0.000000
  0
SEQEND
  0
POLYLINE
  8
PIN_BOTTOM
 66
1
 70
1
 40
0.000000
 41
0.000000
 39
0.000000
  0
VERTEX
  8
PIN_BOTTOM
 10
34.635618
 20
16.121405
 40
0.000000
 41
0.000000
 42
0.000000
  0
VERTEX
  8
PIN_BOTTOM
 10
35.635616
 20
16.121405
 40
0.000000
 41
0.000000
 42
0.000000
  0
VERTEX
  8
PIN_BOTTOM
 10
35.635616
 20
17.121403
 40
0.000000
 41
0.000000
 42
0.000000
  0
VERTEX
  8
PIN_BOTTOM
 10
34.635618
 20
17.121403
 40
0.000000
 41
0.000000
 42
0.000000
  0
SEQEND
  0
POLYLINE
  8
PIN_BOTTOM
 66
1
 70
1
 40
0.000000
 41
0.000000
 39
0.000000
  0
VERTEX
  8
PIN_BOTTOM
 10
37.835611
 20
16.121405
 40
0.000000
 41
0.000000
 42
0.000000
  0
VERTEX
  8
PIN_BOTTOM
 10
38.835609
 20
16.121405
 40
0.000000
 41
0.000000
 42
0.000000
  0
VERTEX
  8
PIN_BOTTOM
 10
38.835609
 20
17.121403
 40
0.000000
 41
0.000000
 42
0.000000
  0
VERTEX
  8
PIN_BOTTOM
 10
37.835611
 20
17.121403
 40
0.000000
 41
0.000000
 42
0.000000
  0
SEQEND
  0
POLYLINE
  8
PG_ASSEMBLY_BOTTOM
 66
1
 70
0
 40
0.000000
 41
0.000000
 39
0.000000
  0
VERTEX
  8
PG_ASSEMBLY_BOTTOM
 10
39.235609
 20
16.321405
 40
0.200000
 41
0.200000
 42
0.000000
  0
VERTEX
  8
PG_ASSEMBLY_BOTTOM
 10
34.235619
 20
16.321405
 40
0.200000
 41
0.200000
 42
0.000000
  0
SEQEND
  0
POLYLINE
  8
PG_ASSEMBLY_BOTTOM
 66
1
 70
0
 40
0.000000
 41
0.000000
 39
0.000000
  0
VERTEX
  8
PG_ASSEMBLY_BOTTOM
 10
39.235609
 20
21.321395
 40
0.200000
 41
0.200000
 42
0.000000
  0
VERTEX
  8
PG_ASSEMBLY_BOTTOM
 10
39.235609
 20
16.321405
 40
0.200000
 41
0.200000
 42
0.000000
  0
SEQEND
  0
POLYLINE
  8
PG_ASSEMBLY_BOTTOM
 66
1
 70
0
 40
0.000000
 41
0.000000
 39
0.000000
  0
VERTEX
  8
PG_ASSEMBLY_BOTTOM
 10
34.235619
 20
21.321395
 40
0.200000
 41
0.200000
 42
0.000000
  0
VERTEX
  8
PG_ASSEMBLY_BOTTOM
 10
39.235609
 20
21.321395
 40
0.200000
 41
0.200000
 42
0.000000
  0
SEQEND
  0
POLYLINE
  8
PG_ASSEMBLY_BOTTOM
 66
1
 70
0
 40
0.000000
 41
0.000000
 39
0.000000
  0
VERTEX
  8
PG_ASSEMBLY_BOTTOM
 10
34.235619
 20
16.321405
 40
0.200000
 41
0.200000
 42
0.000000
  0
VERTEX
  8
PG_ASSEMBLY_BOTTOM
 10
34.235619
 20
21.321395
 40
0.200000
 41
0.200000
 42
0.000000
  0
SEQEND
  0
POLYLINE
  8
PG_ASSEMBLY_BOTTOM
 66
1
 70
1
 40
0.000000
 41
0.000000
 39
0.000000
  0
VERTEX
  8
PG_ASSEMBLY_BOTTOM
 10
38.894614
 20
15.265400
 40
0.000000
 41
0.000000
 42
1.000000
  0
VERTEX
  8
PG_ASSEMBLY_BOTTOM
 10
38.132614
 20
15.265400
 40
0.000000
 41
0.000000
 42
1.000000
  0
SEQEND
  0
TEXT
  8
RD_SILKSCREEN_BOTTOM
 10
36.756010
 20
22.352000
 11
0.000000
 21
0.000000
 40
1.016000
 41
0.927175
 50
0.000000
  7
STANDARD
 71
2
 72
0
  1
U11
 73
0
  0
POLYLINE
  8
PIN_BOTTOM
 66
1
 70
1
 40
0.000000
 41
0.000000
 39
0.000000
  0
VERTEX
  8
PIN_BOTTOM
 10
35.035617
 20
12.482398
 40
0.000000
 41
0.000000
 42
0.000000
  0
VERTEX
  8
PIN_BOTTOM
 10
35.035617
 20
13.482396
 40
0.000000
 41
0.000000
 42
0.000000
  0
VERTEX
  8
PIN_BOTTOM
 10
34.035619
 20
13.482396
 40
0.000000
 41
0.000000
 42
0.000000
  0
VERTEX
  8
PIN_BOTTOM
 10
34.035619
 20
12.482398
 40
0.000000
 41
0.000000
 42
0.000000
  0
SEQEND
  0
POLYLINE
  8
PIN_BOTTOM
 66
1
 70
1
 40
0.000000
 41
0.000000
 39
0.000000
  0
VERTEX
  8
PIN_BOTTOM
 10
35.035617
 20
9.282405
 40
0.000000
 41
0.000000
 42
0.000000
  0
VERTEX
  8
PIN_BOTTOM
 10
35.035617
 20
10.282403
 40
0.000000
 41
0.000000
 42
0.000000
  0
VERTEX
  8
PIN_BOTTOM
 10
34.035619
 20
10.282403
 40
0.000000
 41
0.000000
 42
0.000000
  0
VERTEX
  8
PIN_BOTTOM
 10
34.035619
 20
9.282405
 40
0.000000
 41
0.000000
 42
0.000000
  0
SEQEND
  0
POLYLINE
  8
PIN_BOTTOM
 66
1
 70
1
 40
0.000000
 41
0.000000
 39
0.000000
  0
VERTEX
  8
PIN_BOTTOM
 10
39.435608
 20
9.282405
 40
0.000000
 41
0.000000
 42
0.000000
  0
VERTEX
  8
PIN_BOTTOM
 10
39.435608
 20
10.282403
 40
0.000000
 41
0.000000
 42
0.000000
  0
VERTEX
  8
PIN_BOTTOM
 10
38.435610
 20
10.282403
 40
0.000000
 41
0.000000
 42
0.000000
  0
VERTEX
  8
PIN_BOTTOM
 10
38.435610
 20
9.282405
 40
0.000000
 41
0.000000
 42
0.000000
  0
SEQEND
  0
POLYLINE
  8
PIN_BOTTOM
 66
1
 70
1
 40
0.000000
 41
0.000000
 39
0.000000
  0
VERTEX
  8
PIN_BOTTOM
 10
39.435608
 20
12.482398
 40
0.000000
 41
0.000000
 42
0.000000
  0
VERTEX
  8
PIN_BOTTOM
 10
39.435608
 20
13.482396
 40
0.000000
 41
0.000000
 42
0.000000
  0
VERTEX
  8
PIN_BOTTOM
 10
38.435610
 20
13.482396
 40
0.000000
 41
0.000000
 42
0.000000
  0
VERTEX
  8
PIN_BOTTOM
 10
38.435610
 20
12.482398
 40
0.000000
 41
0.000000
 42
0.000000
  0
SEQEND
  0
POLYLINE
  8
PG_ASSEMBLY_BOTTOM
 66
1
 70
0
 40
0.000000
 41
0.000000
 39
0.000000
  0
VERTEX
  8
PG_ASSEMBLY_BOTTOM
 10
39.235609
 20
13.882395
 40
0.200000
 41
0.200000
 42
0.000000
  0
VERTEX
  8
PG_ASSEMBLY_BOTTOM
 10
39.235609
 20
8.882405
 40
0.200000
 41
0.200000
 42
0.000000
  0
SEQEND
  0
POLYLINE
  8
PG_ASSEMBLY_BOTTOM
 66
1
 70
0
 40
0.000000
 41
0.000000
 39
0.000000
  0
VERTEX
  8
PG_ASSEMBLY_BOTTOM
 10
34.235619
 20
13.882395
 40
0.200000
 41
0.200000
 42
0.000000
  0
VERTEX
  8
PG_ASSEMBLY_BOTTOM
 10
39.235609
 20
13.882395
 40
0.200000
 41
0.200000
 42
0.000000
  0
SEQEND
  0
POLYLINE
  8
PG_ASSEMBLY_BOTTOM
 66
1
 70
0
 40
0.000000
 41
0.000000
 39
0.000000
  0
VERTEX
  8
PG_ASSEMBLY_BOTTOM
 10
34.235619
 20
8.882405
 40
0.200000
 41
0.200000
 42
0.000000
  0
VERTEX
  8
PG_ASSEMBLY_BOTTOM
 10
34.235619
 20
13.882395
 40
0.200000
 41
0.200000
 42
0.000000
  0
SEQEND
  0
POLYLINE
  8
PG_ASSEMBLY_BOTTOM
 66
1
 70
0
 40
0.000000
 41
0.000000
 39
0.000000
  0
VERTEX
  8
PG_ASSEMBLY_BOTTOM
 10
39.235609
 20
8.882405
 40
0.200000
 41
0.200000
 42
0.000000
  0
VERTEX
  8
PG_ASSEMBLY_BOTTOM
 10
34.235619
 20
8.882405
 40
0.200000
 41
0.200000
 42
0.000000
  0
SEQEND
  0
POLYLINE
  8
PG_ASSEMBLY_BOTTOM
 66
1
 70
1
 40
0.000000
 41
0.000000
 39
0.000000
  0
VERTEX
  8
PG_ASSEMBLY_BOTTOM
 10
40.672614
 20
13.160400
 40
0.000000
 41
0.000000
 42
1.000000
  0
VERTEX
  8
PG_ASSEMBLY_BOTTOM
 10
39.910614
 20
13.160400
 40
0.000000
 41
0.000000
 42
1.000000
  0
SEQEND
  0
TEXT
  8
RD_SILKSCREEN_BOTTOM
 10
37.809018
 20
7.366000
 11
0.000000
 21
0.000000
 40
1.016000
 41
0.927175
 50
0.000000
  7
STANDARD
 71
2
 72
0
  1
U8
 73
0
  0
POLYLINE
  8
PIN_BOTTOM
 66
1
 70
1
 40
0.000000
 41
0.000000
 39
0.000000
  0
VERTEX
  8
PIN_BOTTOM
 10
45.667397
 20
17.721402
 40
0.000000
 41
0.000000
 42
0.000000
  0
VERTEX
  8
PIN_BOTTOM
 10
45.667397
 20
16.721404
 40
0.000000
 41
0.000000
 42
0.000000
  0
VERTEX
  8
PIN_BOTTOM
 10
46.667395
 20
16.721404
 40
0.000000
 41
0.000000
 42
0.000000
  0
VERTEX
  8
PIN_BOTTOM
 10
46.667395
 20
17.721402
 40
0.000000
 41
0.000000
 42
0.000000
  0
SEQEND
  0
POLYLINE
  8
PIN_BOTTOM
 66
1
 70
1
 40
0.000000
 41
0.000000
 39
0.000000
  0
VERTEX
  8
PIN_BOTTOM
 10
45.667397
 20
20.921396
 40
0.000000
 41
0.000000
 42
0.000000
  0
VERTEX
  8
PIN_BOTTOM
 10
45.667397
 20
19.921398
 40
0.000000
 41
0.000000
 42
0.000000
  0
VERTEX
  8
PIN_BOTTOM
 10
46.667395
 20
19.921398
 40
0.000000
 41
0.000000
 42
0.000000
  0
VERTEX
  8
PIN_BOTTOM
 10
46.667395
 20
20.921396
 40
0.000000
 41
0.000000
 42
0.000000
  0
SEQEND
  0
POLYLINE
  8
PIN_BOTTOM
 66
1
 70
1
 40
0.000000
 41
0.000000
 39
0.000000
  0
VERTEX
  8
PIN_BOTTOM
 10
41.267405
 20
20.921396
 40
0.000000
 41
0.000000
 42
0.000000
  0
VERTEX
  8
PIN_BOTTOM
 10
41.267405
 20
19.921398
 40
0.000000
 41
0.000000
 42
0.000000
  0
VERTEX
  8
PIN_BOTTOM
 10
42.267403
 20
19.921398
 40
0.000000
 41
0.000000
 42
0.000000
  0
VERTEX
  8
PIN_BOTTOM
 10
42.267403
 20
20.921396
 40
0.000000
 41
0.000000
 42
0.000000
  0
SEQEND
  0
POLYLINE
  8
PIN_BOTTOM
 66
1
 70
1
 40
0.000000
 41
0.000000
 39
0.000000
  0
VERTEX
  8
PIN_BOTTOM
 10
41.267405
 20
17.721402
 40
0.000000
 41
0.000000
 42
0.000000
  0
VERTEX
  8
PIN_BOTTOM
 10
41.267405
 20
16.721404
 40
0.000000
 41
0.000000
 42
0.000000
  0
VERTEX
  8
PIN_BOTTOM
 10
42.267403
 20
16.721404
 40
0.000000
 41
0.000000
 42
0.000000
  0
VERTEX
  8
PIN_BOTTOM
 10
42.267403
 20
17.721402
 40
0.000000
 41
0.000000
 42
0.000000
  0
SEQEND
  0
POLYLINE
  8
PG_ASSEMBLY_BOTTOM
 66
1
 70
0
 40
0.000000
 41
0.000000
 39
0.000000
  0
VERTEX
  8
PG_ASSEMBLY_BOTTOM
 10
41.467405
 20
16.321405
 40
0.200000
 41
0.200000
 42
0.000000
  0
VERTEX
  8
PG_ASSEMBLY_BOTTOM
 10
41.467405
 20
21.321395
 40
0.200000
 41
0.200000
 42
0.000000
  0
SEQEND
  0
POLYLINE
  8
PG_ASSEMBLY_BOTTOM
 66
1
 70
0
 40
0.000000
 41
0.000000
 39
0.000000
  0
VERTEX
  8
PG_ASSEMBLY_BOTTOM
 10
46.467395
 20
16.321405
 40
0.200000
 41
0.200000
 42
0.000000
  0
VERTEX
  8
PG_ASSEMBLY_BOTTOM
 10
41.467405
 20
16.321405
 40
0.200000
 41
0.200000
 42
0.000000
  0
SEQEND
  0
POLYLINE
  8
PG_ASSEMBLY_BOTTOM
 66
1
 70
0
 40
0.000000
 41
0.000000
 39
0.000000
  0
VERTEX
  8
PG_ASSEMBLY_BOTTOM
 10
46.467395
 20
21.321395
 40
0.200000
 41
0.200000
 42
0.000000
  0
VERTEX
  8
PG_ASSEMBLY_BOTTOM
 10
46.467395
 20
16.321405
 40
0.200000
 41
0.200000
 42
0.000000
  0
SEQEND
  0
POLYLINE
  8
PG_ASSEMBLY_BOTTOM
 66
1
 70
0
 40
0.000000
 41
0.000000
 39
0.000000
  0
VERTEX
  8
PG_ASSEMBLY_BOTTOM
 10
41.467405
 20
21.321395
 40
0.200000
 41
0.200000
 42
0.000000
  0
VERTEX
  8
PG_ASSEMBLY_BOTTOM
 10
46.467395
 20
21.321395
 40
0.200000
 41
0.200000
 42
0.000000
  0
SEQEND
  0
POLYLINE
  8
PG_ASSEMBLY_BOTTOM
 66
1
 70
1
 40
0.000000
 41
0.000000
 39
0.000000
  0
VERTEX
  8
PG_ASSEMBLY_BOTTOM
 10
40.792400
 20
17.043400
 40
0.000000
 41
0.000000
 42
1.000000
  0
VERTEX
  8
PG_ASSEMBLY_BOTTOM
 10
40.030400
 20
17.043400
 40
0.000000
 41
0.000000
 42
1.000000
  0
SEQEND
  0
TEXT
  8
RD_SILKSCREEN_BOTTOM
 10
45.138010
 20
21.971000
 11
0.000000
 21
0.000000
 40
1.016000
 41
0.927175
 50
0.000000
  7
STANDARD
 71
2
 72
0
  1
U10
 73
0
  0
POLYLINE
  8
PIN_BOTTOM
 66
1
 70
1
 40
0.000000
 41
0.000000
 39
0.000000
  0
VERTEX
  8
PIN_BOTTOM
 10
42.867402
 20
9.653803
 40
0.000000
 41
0.000000
 42
0.000000
  0
VERTEX
  8
PIN_BOTTOM
 10
41.867404
 20
9.653803
 40
0.000000
 41
0.000000
 42
0.000000
  0
VERTEX
  8
PIN_BOTTOM
 10
41.867404
 20
8.653805
 40
0.000000
 41
0.000000
 42
0.000000
  0
VERTEX
  8
PIN_BOTTOM
 10
42.867402
 20
8.653805
 40
0.000000
 41
0.000000
 42
0.000000
  0
SEQEND
  0
POLYLINE
  8
PIN_BOTTOM
 66
1
 70
1
 40
0.000000
 41
0.000000
 39
0.000000
  0
VERTEX
  8
PIN_BOTTOM
 10
46.067396
 20
9.653803
 40
0.000000
 41
0.000000
 42
0.000000
  0
VERTEX
  8
PIN_BOTTOM
 10
45.067398
 20
9.653803
 40
0.000000
 41
0.000000
 42
0.000000
  0
VERTEX
  8
PIN_BOTTOM
 10
45.067398
 20
8.653805
 40
0.000000
 41
0.000000
 42
0.000000
  0
VERTEX
  8
PIN_BOTTOM
 10
46.067396
 20
8.653805
 40
0.000000
 41
0.000000
 42
0.000000
  0
SEQEND
  0
POLYLINE
  8
PIN_BOTTOM
 66
1
 70
1
 40
0.000000
 41
0.000000
 39
0.000000
  0
VERTEX
  8
PIN_BOTTOM
 10
46.067396
 20
14.053795
 40
0.000000
 41
0.000000
 42
0.000000
  0
VERTEX
  8
PIN_BOTTOM
 10
45.067398
 20
14.053795
 40
0.000000
 41
0.000000
 42
0.000000
  0
VERTEX
  8
PIN_BOTTOM
 10
45.067398
 20
13.053797
 40
0.000000
 41
0.000000
 42
0.000000
  0
VERTEX
  8
PIN_BOTTOM
 10
46.067396
 20
13.053797
 40
0.000000
 41
0.000000
 42
0.000000
  0
SEQEND
  0
POLYLINE
  8
PIN_BOTTOM
 66
1
 70
1
 40
0.000000
 41
0.000000
 39
0.000000
  0
VERTEX
  8
PIN_BOTTOM
 10
42.867402
 20
14.053795
 40
0.000000
 41
0.000000
 42
0.000000
  0
VERTEX
  8
PIN_BOTTOM
 10
41.867404
 20
14.053795
 40
0.000000
 41
0.000000
 42
0.000000
  0
VERTEX
  8
PIN_BOTTOM
 10
41.867404
 20
13.053797
 40
0.000000
 41
0.000000
 42
0.000000
  0
VERTEX
  8
PIN_BOTTOM
 10
42.867402
 20
13.053797
 40
0.000000
 41
0.000000
 42
0.000000
  0
SEQEND
  0
POLYLINE
  8
PG_ASSEMBLY_BOTTOM
 66
1
 70
0
 40
0.000000
 41
0.000000
 39
0.000000
  0
VERTEX
  8
PG_ASSEMBLY_BOTTOM
 10
41.467405
 20
13.853795
 40
0.200000
 41
0.200000
 42
0.000000
  0
VERTEX
  8
PG_ASSEMBLY_BOTTOM
 10
46.467395
 20
13.853795
 40
0.200000
 41
0.200000
 42
0.000000
  0
SEQEND
  0
POLYLINE
  8
PG_ASSEMBLY_BOTTOM
 66
1
 70
0
 40
0.000000
 41
0.000000
 39
0.000000
  0
VERTEX
  8
PG_ASSEMBLY_BOTTOM
 10
41.467405
 20
8.853805
 40
0.200000
 41
0.200000
 42
0.000000
  0
VERTEX
  8
PG_ASSEMBLY_BOTTOM
 10
41.467405
 20
13.853795
 40
0.200000
 41
0.200000
 42
0.000000
  0
SEQEND
  0
POLYLINE
  8
PG_ASSEMBLY_BOTTOM
 66
1
 70
0
 40
0.000000
 41
0.000000
 39
0.000000
  0
VERTEX
  8
PG_ASSEMBLY_BOTTOM
 10
46.467395
 20
8.853805
 40
0.200000
 41
0.200000
 42
0.000000
  0
VERTEX
  8
PG_ASSEMBLY_BOTTOM
 10
41.467405
 20
8.853805
 40
0.200000
 41
0.200000
 42
0.000000
  0
SEQEND
  0
POLYLINE
  8
PG_ASSEMBLY_BOTTOM
 66
1
 70
0
 40
0.000000
 41
0.000000
 39
0.000000
  0
VERTEX
  8
PG_ASSEMBLY_BOTTOM
 10
46.467395
 20
13.853795
 40
0.200000
 41
0.200000
 42
0.000000
  0
VERTEX
  8
PG_ASSEMBLY_BOTTOM
 10
46.467395
 20
8.853805
 40
0.200000
 41
0.200000
 42
0.000000
  0
SEQEND
  0
POLYLINE
  8
PG_ASSEMBLY_BOTTOM
 66
1
 70
1
 40
0.000000
 41
0.000000
 39
0.000000
  0
VERTEX
  8
PG_ASSEMBLY_BOTTOM
 10
42.570400
 20
14.909800
 40
0.000000
 41
0.000000
 42
1.000000
  0
VERTEX
  8
PG_ASSEMBLY_BOTTOM
 10
41.808400
 20
14.909800
 40
0.000000
 41
0.000000
 42
1.000000
  0
SEQEND
  0
TEXT
  8
RD_SILKSCREEN_BOTTOM
 10
45.683018
 20
6.858000
 11
0.000000
 21
0.000000
 40
1.016000
 41
0.927175
 50
0.000000
  7
STANDARD
 71
2
 72
0
  1
U9
 73
0
  0
POLYLINE
  8
PIN_BOTTOM
 66
1
 70
1
 40
0.000000
 41
0.000000
 39
0.000000
  0
VERTEX
  8
PIN_BOTTOM
 10
41.744900
 20
55.079900
 40
0.000000
 41
0.000000
 42
0.000000
  0
VERTEX
  8
PIN_BOTTOM
 10
45.173900
 20
55.079900
 40
0.000000
 41
0.000000
 42
0.000000
  0
VERTEX
  8
PIN_BOTTOM
 10
45.173900
 20
57.492900
 40
0.000000
 41
0.000000
 42
0.000000
  0
VERTEX
  8
PIN_BOTTOM
 10
41.744900
 20
57.492900
 40
0.000000
 41
0.000000
 42
0.000000
  0
SEQEND
  0
POLYLINE
  8
PIN_BOTTOM
 66
1
 70
1
 40
0.000000
 41
0.000000
 39
0.000000
  0
VERTEX
  8
PIN_BOTTOM
 10
41.744900
 20
49.237900
 40
0.000000
 41
0.000000
 42
0.000000
  0
VERTEX
  8
PIN_BOTTOM
 10
45.173900
 20
49.237900
 40
0.000000
 41
0.000000
 42
0.000000
  0
VERTEX
  8
PIN_BOTTOM
 10
45.173900
 20
51.650900
 40
0.000000
 41
0.000000
 42
0.000000
  0
VERTEX
  8
PIN_BOTTOM
 10
41.744900
 20
51.650900
 40
0.000000
 41
0.000000
 42
0.000000
  0
SEQEND
  0
POLYLINE
  8
PG_ASSEMBLY_BOTTOM
 66
1
 70
0
 40
0.000000
 41
0.000000
 39
0.000000
  0
VERTEX
  8
PG_ASSEMBLY_BOTTOM
 10
46.694395
 20
50.130405
 40
0.127000
 41
0.127000
 42
0.000000
  0
VERTEX
  8
PG_ASSEMBLY_BOTTOM
 10
46.694395
 20
56.600395
 40
0.127000
 41
0.127000
 42
0.000000
  0
VERTEX
  8
PG_ASSEMBLY_BOTTOM
 10
40.224405
 20
56.600395
 40
0.127000
 41
0.127000
 42
0.000000
  0
VERTEX
  8
PG_ASSEMBLY_BOTTOM
 10
40.224405
 20
50.130405
 40
0.127000
 41
0.127000
 42
0.000000
  0
VERTEX
  8
PG_ASSEMBLY_BOTTOM
 10
46.694395
 20
50.130405
 40
0.127000
 41
0.127000
 42
0.000000
  0
SEQEND
  0
TEXT
  8
RD_SILKSCREEN_BOTTOM
 10
44.031992
 20
47.371000
 11
0.000000
 21
0.000000
 40
1.016000
 41
0.927175
 50
0.000000
  7
STANDARD
 71
2
 72
0
  1
L1
 73
0
  0
POLYLINE
  8
PIN_BOTTOM
 66
1
 70
1
 40
0.000000
 41
0.000000
 39
0.000000
  0
VERTEX
  8
PIN_BOTTOM
 10
17.688103
 20
35.750500
 40
0.000000
 41
0.000000
 42
0.000000
  0
VERTEX
  8
PIN_BOTTOM
 10
17.688103
 20
33.947100
 40
0.000000
 41
0.000000
 42
0.000000
  0
VERTEX
  8
PIN_BOTTOM
 10
19.288303
 20
33.947100
 40
0.000000
 41
0.000000
 42
0.000000
  0
VERTEX
  8
PIN_BOTTOM
 10
19.288303
 20
35.750500
 40
0.000000
 41
0.000000
 42
0.000000
  0
SEQEND
  0
POLYLINE
  8
PIN_BOTTOM
 66
1
 70
1
 40
0.000000
 41
0.000000
 39
0.000000
  0
VERTEX
  8
PIN_BOTTOM
 10
20.488097
 20
35.750500
 40
0.000000
 41
0.000000
 42
0.000000
  0
VERTEX
  8
PIN_BOTTOM
 10
20.488097
 20
33.947100
 40
0.000000
 41
0.000000
 42
0.000000
  0
VERTEX
  8
PIN_BOTTOM
 10
22.088297
 20
33.947100
 40
0.000000
 41
0.000000
 42
0.000000
  0
VERTEX
  8
PIN_BOTTOM
 10
22.088297
 20
35.750500
 40
0.000000
 41
0.000000
 42
0.000000
  0
SEQEND
  0
POLYLINE
  8
PG_ASSEMBLY_BOTTOM
 66
1
 70
0
 40
0.000000
 41
0.000000
 39
0.000000
  0
VERTEX
  8
PG_ASSEMBLY_BOTTOM
 10
18.288203
 20
35.648798
 40
0.180010
 41
0.180010
 42
0.000000
  0
VERTEX
  8
PG_ASSEMBLY_BOTTOM
 10
18.288203
 20
34.048802
 40
0.180010
 41
0.180010
 42
0.000000
  0
VERTEX
  8
PG_ASSEMBLY_BOTTOM
 10
21.488197
 20
34.048802
 40
0.180010
 41
0.180010
 42
0.000000
  0
VERTEX
  8
PG_ASSEMBLY_BOTTOM
 10
21.488197
 20
35.648798
 40
0.180010
 41
0.180010
 42
0.000000
  0
VERTEX
  8
PG_ASSEMBLY_BOTTOM
 10
18.288203
 20
35.648798
 40
0.180010
 41
0.180010
 42
0.000000
  0
SEQEND
  0
TEXT
  8
RD_SILKSCREEN_BOTTOM
 10
21.262010
 20
32.258000
 11
0.000000
 21
0.000000
 40
1.016000
 41
0.927175
 50
0.000000
  7
STANDARD
 71
2
 72
0
  1
C33
 73
0
  0
POLYLINE
  8
PIN_BOTTOM
 66
1
 70
1
 40
0.000000
 41
0.000000
 39
0.000000
  0
VERTEX
  8
PIN_BOTTOM
 10
12.512497
 20
33.947100
 40
0.000000
 41
0.000000
 42
0.000000
  0
VERTEX
  8
PIN_BOTTOM
 10
12.512497
 20
35.750500
 40
0.000000
 41
0.000000
 42
0.000000
  0
VERTEX
  8
PIN_BOTTOM
 10
10.912297
 20
35.750500
 40
0.000000
 41
0.000000
 42
0.000000
  0
VERTEX
  8
PIN_BOTTOM
 10
10.912297
 20
33.947100
 40
0.000000
 41
0.000000
 42
0.000000
  0
SEQEND
  0
POLYLINE
  8
PIN_BOTTOM
 66
1
 70
1
 40
0.000000
 41
0.000000
 39
0.000000
  0
VERTEX
  8
PIN_BOTTOM
 10
9.712503
 20
33.947100
 40
0.000000
 41
0.000000
 42
0.000000
  0
VERTEX
  8
PIN_BOTTOM
 10
9.712503
 20
35.750500
 40
0.000000
 41
0.000000
 42
0.000000
  0
VERTEX
  8
PIN_BOTTOM
 10
8.112303
 20
35.750500
 40
0.000000
 41
0.000000
 42
0.000000
  0
VERTEX
  8
PIN_BOTTOM
 10
8.112303
 20
33.947100
 40
0.000000
 41
0.000000
 42
0.000000
  0
SEQEND
  0
POLYLINE
  8
PG_ASSEMBLY_BOTTOM
 66
1
 70
0
 40
0.000000
 41
0.000000
 39
0.000000
  0
VERTEX
  8
PG_ASSEMBLY_BOTTOM
 10
11.912397
 20
34.048802
 40
0.180010
 41
0.180010
 42
0.000000
  0
VERTEX
  8
PG_ASSEMBLY_BOTTOM
 10
11.912397
 20
35.648798
 40
0.180010
 41
0.180010
 42
0.000000
  0
VERTEX
  8
PG_ASSEMBLY_BOTTOM
 10
8.712403
 20
35.648798
 40
0.180010
 41
0.180010
 42
0.000000
  0
VERTEX
  8
PG_ASSEMBLY_BOTTOM
 10
8.712403
 20
34.048802
 40
0.180010
 41
0.180010
 42
0.000000
  0
VERTEX
  8
PG_ASSEMBLY_BOTTOM
 10
11.912397
 20
34.048802
 40
0.180010
 41
0.180010
 42
0.000000
  0
SEQEND
  0
TEXT
  8
RD_SILKSCREEN_BOTTOM
 10
11.483010
 20
32.131000
 11
0.000000
 21
0.000000
 40
1.016000
 41
0.927175
 50
0.000000
  7
STANDARD
 71
2
 72
0
  1
C29
 73
0
  0
POLYLINE
  8
PIN_BOTTOM
 66
1
 70
1
 40
0.000000
 41
0.000000
 39
0.000000
  0
VERTEX
  8
PIN_BOTTOM
 10
39.179500
 20
65.211503
 40
0.000000
 41
0.000000
 42
0.000000
  0
VERTEX
  8
PIN_BOTTOM
 10
40.982900
 20
65.211503
 40
0.000000
 41
0.000000
 42
0.000000
  0
VERTEX
  8
PIN_BOTTOM
 10
40.982900
 20
66.811703
 40
0.000000
 41
0.000000
 42
0.000000
  0
VERTEX
  8
PIN_BOTTOM
 10
39.179500
 20
66.811703
 40
0.000000
 41
0.000000
 42
0.000000
  0
SEQEND
  0
POLYLINE
  8
PIN_BOTTOM
 66
1
 70
1
 40
0.000000
 41
0.000000
 39
0.000000
  0
VERTEX
  8
PIN_BOTTOM
 10
39.179500
 20
68.011497
 40
0.000000
 41
0.000000
 42
0.000000
  0
VERTEX
  8
PIN_BOTTOM
 10
40.982900
 20
68.011497
 40
0.000000
 41
0.000000
 42
0.000000
  0
VERTEX
  8
PIN_BOTTOM
 10
40.982900
 20
69.611697
 40
0.000000
 41
0.000000
 42
0.000000
  0
VERTEX
  8
PIN_BOTTOM
 10
39.179500
 20
69.611697
 40
0.000000
 41
0.000000
 42
0.000000
  0
SEQEND
  0
POLYLINE
  8
PG_ASSEMBLY_BOTTOM
 66
1
 70
0
 40
0.000000
 41
0.000000
 39
0.000000
  0
VERTEX
  8
PG_ASSEMBLY_BOTTOM
 10
39.281202
 20
65.811603
 40
0.180010
 41
0.180010
 42
0.000000
  0
VERTEX
  8
PG_ASSEMBLY_BOTTOM
 10
40.881198
 20
65.811603
 40
0.180010
 41
0.180010
 42
0.000000
  0
VERTEX
  8
PG_ASSEMBLY_BOTTOM
 10
40.881198
 20
69.011597
 40
0.180010
 41
0.180010
 42
0.000000
  0
VERTEX
  8
PG_ASSEMBLY_BOTTOM
 10
39.281202
 20
69.011597
 40
0.180010
 41
0.180010
 42
0.000000
  0
VERTEX
  8
PG_ASSEMBLY_BOTTOM
 10
39.281202
 20
65.811603
 40
0.180010
 41
0.180010
 42
0.000000
  0
SEQEND
  0
TEXT
  8
RD_SILKSCREEN_BOTTOM
 10
39.243000
 20
70.304990
 11
0.000000
 21
0.000000
 40
1.016000
 41
0.927175
 50
270.000000
  7
STANDARD
 71
2
 72
0
  1
C10
 73
0
  0
POLYLINE
  8
PIN_BOTTOM
 66
1
 70
1
 40
0.000000
 41
0.000000
 39
0.000000
  0
VERTEX
  8
PIN_BOTTOM
 10
50.965100
 20
50.504903
 40
0.000000
 41
0.000000
 42
0.000000
  0
VERTEX
  8
PIN_BOTTOM
 10
52.768500
 20
50.504903
 40
0.000000
 41
0.000000
 42
0.000000
  0
VERTEX
  8
PIN_BOTTOM
 10
52.768500
 20
52.105103
 40
0.000000
 41
0.000000
 42
0.000000
  0
VERTEX
  8
PIN_BOTTOM
 10
50.965100
 20
52.105103
 40
0.000000
 41
0.000000
 42
0.000000
  0
SEQEND
  0
POLYLINE
  8
PIN_BOTTOM
 66
1
 70
1
 40
0.000000
 41
0.000000
 39
0.000000
  0
VERTEX
  8
PIN_BOTTOM
 10
50.965100
 20
53.304897
 40
0.000000
 41
0.000000
 42
0.000000
  0
VERTEX
  8
PIN_BOTTOM
 10
52.768500
 20
53.304897
 40
0.000000
 41
0.000000
 42
0.000000
  0
VERTEX
  8
PIN_BOTTOM
 10
52.768500
 20
54.905097
 40
0.000000
 41
0.000000
 42
0.000000
  0
VERTEX
  8
PIN_BOTTOM
 10
50.965100
 20
54.905097
 40
0.000000
 41
0.000000
 42
0.000000
  0
SEQEND
  0
POLYLINE
  8
PG_ASSEMBLY_BOTTOM
 66
1
 70
0
 40
0.000000
 41
0.000000
 39
0.000000
  0
VERTEX
  8
PG_ASSEMBLY_BOTTOM
 10
51.066802
 20
51.105003
 40
0.180010
 41
0.180010
 42
0.000000
  0
VERTEX
  8
PG_ASSEMBLY_BOTTOM
 10
52.666798
 20
51.105003
 40
0.180010
 41
0.180010
 42
0.000000
  0
VERTEX
  8
PG_ASSEMBLY_BOTTOM
 10
52.666798
 20
54.304997
 40
0.180010
 41
0.180010
 42
0.000000
  0
VERTEX
  8
PG_ASSEMBLY_BOTTOM
 10
51.066802
 20
54.304997
 40
0.180010
 41
0.180010
 42
0.000000
  0
VERTEX
  8
PG_ASSEMBLY_BOTTOM
 10
51.066802
 20
51.105003
 40
0.180010
 41
0.180010
 42
0.000000
  0
SEQEND
  0
TEXT
  8
RD_SILKSCREEN_BOTTOM
 10
53.594000
 20
51.508990
 11
0.000000
 21
0.000000
 40
1.016000
 41
0.927175
 50
270.000000
  7
STANDARD
 71
2
 72
0
  1
C16
 73
0
  0
POLYLINE
  8
PIN_BOTTOM
 66
1
 70
1
 40
0.000000
 41
0.000000
 39
0.000000
  0
VERTEX
  8
PIN_BOTTOM
 10
36.803889
 20
56.124297
 40
0.000000
 41
0.000000
 42
0.000000
  0
VERTEX
  8
PIN_BOTTOM
 10
35.000489
 20
56.124297
 40
0.000000
 41
0.000000
 42
0.000000
  0
VERTEX
  8
PIN_BOTTOM
 10
35.000489
 20
54.524097
 40
0.000000
 41
0.000000
 42
0.000000
  0
VERTEX
  8
PIN_BOTTOM
 10
36.803889
 20
54.524097
 40
0.000000
 41
0.000000
 42
0.000000
  0
SEQEND
  0
POLYLINE
  8
PIN_BOTTOM
 66
1
 70
1
 40
0.000000
 41
0.000000
 39
0.000000
  0
VERTEX
  8
PIN_BOTTOM
 10
36.803889
 20
53.324303
 40
0.000000
 41
0.000000
 42
0.000000
  0
VERTEX
  8
PIN_BOTTOM
 10
35.000489
 20
53.324303
 40
0.000000
 41
0.000000
 42
0.000000
  0
VERTEX
  8
PIN_BOTTOM
 10
35.000489
 20
51.724103
 40
0.000000
 41
0.000000
 42
0.000000
  0
VERTEX
  8
PIN_BOTTOM
 10
36.803889
 20
51.724103
 40
0.000000
 41
0.000000
 42
0.000000
  0
SEQEND
  0
POLYLINE
  8
PG_ASSEMBLY_BOTTOM
 66
1
 70
0
 40
0.000000
 41
0.000000
 39
0.000000
  0
VERTEX
  8
PG_ASSEMBLY_BOTTOM
 10
36.702187
 20
55.524197
 40
0.180010
 41
0.180010
 42
0.000000
  0
VERTEX
  8
PG_ASSEMBLY_BOTTOM
 10
35.102190
 20
55.524197
 40
0.180010
 41
0.180010
 42
0.000000
  0
VERTEX
  8
PG_ASSEMBLY_BOTTOM
 10
35.102190
 20
52.324203
 40
0.180010
 41
0.180010
 42
0.000000
  0
VERTEX
  8
PG_ASSEMBLY_BOTTOM
 10
36.702187
 20
52.324203
 40
0.180010
 41
0.180010
 42
0.000000
  0
VERTEX
  8
PG_ASSEMBLY_BOTTOM
 10
36.702187
 20
55.524197
 40
0.180010
 41
0.180010
 42
0.000000
  0
SEQEND
  0
TEXT
  8
RD_SILKSCREEN_BOTTOM
 10
36.793018
 20
50.038000
 11
0.000000
 21
0.000000
 40
1.016000
 41
0.927175
 50
0.000000
  7
STANDARD
 71
2
 72
0
  1
C2
 73
0
  0
POLYLINE
  8
PIN_BOTTOM
 66
1
 70
1
 40
0.000000
 41
0.000000
 39
0.000000
  0
VERTEX
  8
PIN_BOTTOM
 10
37.401500
 20
51.724103
 40
0.000000
 41
0.000000
 42
0.000000
  0
VERTEX
  8
PIN_BOTTOM
 10
39.204900
 20
51.724103
 40
0.000000
 41
0.000000
 42
0.000000
  0
VERTEX
  8
PIN_BOTTOM
 10
39.204900
 20
53.324303
 40
0.000000
 41
0.000000
 42
0.000000
  0
VERTEX
  8
PIN_BOTTOM
 10
37.401500
 20
53.324303
 40
0.000000
 41
0.000000
 42
0.000000
  0
SEQEND
  0
POLYLINE
  8
PIN_BOTTOM
 66
1
 70
1
 40
0.000000
 41
0.000000
 39
0.000000
  0
VERTEX
  8
PIN_BOTTOM
 10
37.401500
 20
54.524097
 40
0.000000
 41
0.000000
 42
0.000000
  0
VERTEX
  8
PIN_BOTTOM
 10
39.204900
 20
54.524097
 40
0.000000
 41
0.000000
 42
0.000000
  0
VERTEX
  8
PIN_BOTTOM
 10
39.204900
 20
56.124297
 40
0.000000
 41
0.000000
 42
0.000000
  0
VERTEX
  8
PIN_BOTTOM
 10
37.401500
 20
56.124297
 40
0.000000
 41
0.000000
 42
0.000000
  0
SEQEND
  0
POLYLINE
  8
PG_ASSEMBLY_BOTTOM
 66
1
 70
0
 40
0.000000
 41
0.000000
 39
0.000000
  0
VERTEX
  8
PG_ASSEMBLY_BOTTOM
 10
37.503202
 20
52.324203
 40
0.180010
 41
0.180010
 42
0.000000
  0
VERTEX
  8
PG_ASSEMBLY_BOTTOM
 10
39.103198
 20
52.324203
 40
0.180010
 41
0.180010
 42
0.000000
  0
VERTEX
  8
PG_ASSEMBLY_BOTTOM
 10
39.103198
 20
55.524197
 40
0.180010
 41
0.180010
 42
0.000000
  0
VERTEX
  8
PG_ASSEMBLY_BOTTOM
 10
37.503202
 20
55.524197
 40
0.180010
 41
0.180010
 42
0.000000
  0
VERTEX
  8
PG_ASSEMBLY_BOTTOM
 10
37.503202
 20
52.324203
 40
0.180010
 41
0.180010
 42
0.000000
  0
SEQEND
  0
TEXT
  8
RD_SILKSCREEN_BOTTOM
 10
39.206018
 20
50.038000
 11
0.000000
 21
0.000000
 40
1.016000
 41
0.927175
 50
0.000000
  7
STANDARD
 71
2
 72
0
  1
C4
 73
0
  0
POLYLINE
  8
PIN_BOTTOM
 66
1
 70
1
 40
0.000000
 41
0.000000
 39
0.000000
  0
VERTEX
  8
PIN_BOTTOM
 10
48.120300
 20
55.711903
 40
0.000000
 41
0.000000
 42
0.000000
  0
VERTEX
  8
PIN_BOTTOM
 10
49.923700
 20
55.711903
 40
0.000000
 41
0.000000
 42
0.000000
  0
VERTEX
  8
PIN_BOTTOM
 10
49.923700
 20
57.312103
 40
0.000000
 41
0.000000
 42
0.000000
  0
VERTEX
  8
PIN_BOTTOM
 10
48.120300
 20
57.312103
 40
0.000000
 41
0.000000
 42
0.000000
  0
SEQEND
  0
POLYLINE
  8
PIN_BOTTOM
 66
1
 70
1
 40
0.000000
 41
0.000000
 39
0.000000
  0
VERTEX
  8
PIN_BOTTOM
 10
48.120300
 20
58.511897
 40
0.000000
 41
0.000000
 42
0.000000
  0
VERTEX
  8
PIN_BOTTOM
 10
49.923700
 20
58.511897
 40
0.000000
 41
0.000000
 42
0.000000
  0
VERTEX
  8
PIN_BOTTOM
 10
49.923700
 20
60.112097
 40
0.000000
 41
0.000000
 42
0.000000
  0
VERTEX
  8
PIN_BOTTOM
 10
48.120300
 20
60.112097
 40
0.000000
 41
0.000000
 42
0.000000
  0
SEQEND
  0
POLYLINE
  8
PG_ASSEMBLY_BOTTOM
 66
1
 70
0
 40
0.000000
 41
0.000000
 39
0.000000
  0
VERTEX
  8
PG_ASSEMBLY_BOTTOM
 10
48.222002
 20
56.312003
 40
0.180010
 41
0.180010
 42
0.000000
  0
VERTEX
  8
PG_ASSEMBLY_BOTTOM
 10
49.821998
 20
56.312003
 40
0.180010
 41
0.180010
 42
0.000000
  0
VERTEX
  8
PG_ASSEMBLY_BOTTOM
 10
49.821998
 20
59.511997
 40
0.180010
 41
0.180010
 42
0.000000
  0
VERTEX
  8
PG_ASSEMBLY_BOTTOM
 10
48.222002
 20
59.511997
 40
0.180010
 41
0.180010
 42
0.000000
  0
VERTEX
  8
PG_ASSEMBLY_BOTTOM
 10
48.222002
 20
56.312003
 40
0.180010
 41
0.180010
 42
0.000000
  0
SEQEND
  0
TEXT
  8
RD_SILKSCREEN_BOTTOM
 10
50.546000
 20
57.060008
 11
0.000000
 21
0.000000
 40
1.016000
 41
0.927175
 50
270.000000
  7
STANDARD
 71
2
 72
0
  1
C5
 73
0
  0
POLYLINE
  8
PIN_BOTTOM
 66
1
 70
1
 40
0.000000
 41
0.000000
 39
0.000000
  0
VERTEX
  8
PIN_BOTTOM
 10
17.688103
 20
38.265100
 40
0.000000
 41
0.000000
 42
0.000000
  0
VERTEX
  8
PIN_BOTTOM
 10
17.688103
 20
36.461700
 40
0.000000
 41
0.000000
 42
0.000000
  0
VERTEX
  8
PIN_BOTTOM
 10
19.288303
 20
36.461700
 40
0.000000
 41
0.000000
 42
0.000000
  0
VERTEX
  8
PIN_BOTTOM
 10
19.288303
 20
38.265100
 40
0.000000
 41
0.000000
 42
0.000000
  0
SEQEND
  0
POLYLINE
  8
PIN_BOTTOM
 66
1
 70
1
 40
0.000000
 41
0.000000
 39
0.000000
  0
VERTEX
  8
PIN_BOTTOM
 10
20.488097
 20
38.265100
 40
0.000000
 41
0.000000
 42
0.000000
  0
VERTEX
  8
PIN_BOTTOM
 10
20.488097
 20
36.461700
 40
0.000000
 41
0.000000
 42
0.000000
  0
VERTEX
  8
PIN_BOTTOM
 10
22.088297
 20
36.461700
 40
0.000000
 41
0.000000
 42
0.000000
  0
VERTEX
  8
PIN_BOTTOM
 10
22.088297
 20
38.265100
 40
0.000000
 41
0.000000
 42
0.000000
  0
SEQEND
  0
POLYLINE
  8
PG_ASSEMBLY_BOTTOM
 66
1
 70
0
 40
0.000000
 41
0.000000
 39
0.000000
  0
VERTEX
  8
PG_ASSEMBLY_BOTTOM
 10
18.288203
 20
38.163398
 40
0.180010
 41
0.180010
 42
0.000000
  0
VERTEX
  8
PG_ASSEMBLY_BOTTOM
 10
18.288203
 20
36.563402
 40
0.180010
 41
0.180010
 42
0.000000
  0
VERTEX
  8
PG_ASSEMBLY_BOTTOM
 10
21.488197
 20
36.563402
 40
0.180010
 41
0.180010
 42
0.000000
  0
VERTEX
  8
PG_ASSEMBLY_BOTTOM
 10
21.488197
 20
38.163398
 40
0.180010
 41
0.180010
 42
0.000000
  0
VERTEX
  8
PG_ASSEMBLY_BOTTOM
 10
18.288203
 20
38.163398
 40
0.180010
 41
0.180010
 42
0.000000
  0
SEQEND
  0
TEXT
  8
RD_SILKSCREEN_BOTTOM
 10
25.834010
 20
36.957000
 11
0.000000
 21
0.000000
 40
1.016000
 41
0.927175
 50
0.000000
  7
STANDARD
 71
2
 72
0
  1
C32
 73
0
  0
POLYLINE
  8
PIN_BOTTOM
 66
1
 70
1
 40
0.000000
 41
0.000000
 39
0.000000
  0
VERTEX
  8
PIN_BOTTOM
 10
27.139900
 20
56.124297
 40
0.000000
 41
0.000000
 42
0.000000
  0
VERTEX
  8
PIN_BOTTOM
 10
25.336500
 20
56.124297
 40
0.000000
 41
0.000000
 42
0.000000
  0
VERTEX
  8
PIN_BOTTOM
 10
25.336500
 20
54.524097
 40
0.000000
 41
0.000000
 42
0.000000
  0
VERTEX
  8
PIN_BOTTOM
 10
27.139900
 20
54.524097
 40
0.000000
 41
0.000000
 42
0.000000
  0
SEQEND
  0
POLYLINE
  8
PIN_BOTTOM
 66
1
 70
1
 40
0.000000
 41
0.000000
 39
0.000000
  0
VERTEX
  8
PIN_BOTTOM
 10
27.139900
 20
53.324303
 40
0.000000
 41
0.000000
 42
0.000000
  0
VERTEX
  8
PIN_BOTTOM
 10
25.336500
 20
53.324303
 40
0.000000
 41
0.000000
 42
0.000000
  0
VERTEX
  8
PIN_BOTTOM
 10
25.336500
 20
51.724103
 40
0.000000
 41
0.000000
 42
0.000000
  0
VERTEX
  8
PIN_BOTTOM
 10
27.139900
 20
51.724103
 40
0.000000
 41
0.000000
 42
0.000000
  0
SEQEND
  0
POLYLINE
  8
PG_ASSEMBLY_BOTTOM
 66
1
 70
0
 40
0.000000
 41
0.000000
 39
0.000000
  0
VERTEX
  8
PG_ASSEMBLY_BOTTOM
 10
27.038198
 20
55.524197
 40
0.180010
 41
0.180010
 42
0.000000
  0
VERTEX
  8
PG_ASSEMBLY_BOTTOM
 10
25.438202
 20
55.524197
 40
0.180010
 41
0.180010
 42
0.000000
  0
VERTEX
  8
PG_ASSEMBLY_BOTTOM
 10
25.438202
 20
52.324203
 40
0.180010
 41
0.180010
 42
0.000000
  0
VERTEX
  8
PG_ASSEMBLY_BOTTOM
 10
27.038198
 20
52.324203
 40
0.180010
 41
0.180010
 42
0.000000
  0
VERTEX
  8
PG_ASSEMBLY_BOTTOM
 10
27.038198
 20
55.524197
 40
0.180010
 41
0.180010
 42
0.000000
  0
SEQEND
  0
TEXT
  8
RD_SILKSCREEN_BOTTOM
 10
27.013992
 20
49.784000
 11
0.000000
 21
0.000000
 40
1.016000
 41
0.927175
 50
0.000000
  7
STANDARD
 71
2
 72
0
  1
R8
 73
0
  0
POLYLINE
  8
PIN_BOTTOM
 66
1
 70
1
 40
0.000000
 41
0.000000
 39
0.000000
  0
VERTEX
  8
PIN_BOTTOM
 10
31.915100
 20
65.211503
 40
0.000000
 41
0.000000
 42
0.000000
  0
VERTEX
  8
PIN_BOTTOM
 10
33.718500
 20
65.211503
 40
0.000000
 41
0.000000
 42
0.000000
  0
VERTEX
  8
PIN_BOTTOM
 10
33.718500
 20
66.811703
 40
0.000000
 41
0.000000
 42
0.000000
  0
VERTEX
  8
PIN_BOTTOM
 10
31.915100
 20
66.811703
 40
0.000000
 41
0.000000
 42
0.000000
  0
SEQEND
  0
POLYLINE
  8
PIN_BOTTOM
 66
1
 70
1
 40
0.000000
 41
0.000000
 39
0.000000
  0
VERTEX
  8
PIN_BOTTOM
 10
31.915100
 20
68.011497
 40
0.000000
 41
0.000000
 42
0.000000
  0
VERTEX
  8
PIN_BOTTOM
 10
33.718500
 20
68.011497
 40
0.000000
 41
0.000000
 42
0.000000
  0
VERTEX
  8
PIN_BOTTOM
 10
33.718500
 20
69.611697
 40
0.000000
 41
0.000000
 42
0.000000
  0
VERTEX
  8
PIN_BOTTOM
 10
31.915100
 20
69.611697
 40
0.000000
 41
0.000000
 42
0.000000
  0
SEQEND
  0
POLYLINE
  8
PG_ASSEMBLY_BOTTOM
 66
1
 70
0
 40
0.000000
 41
0.000000
 39
0.000000
  0
VERTEX
  8
PG_ASSEMBLY_BOTTOM
 10
32.016802
 20
65.811603
 40
0.180010
 41
0.180010
 42
0.000000
  0
VERTEX
  8
PG_ASSEMBLY_BOTTOM
 10
33.616798
 20
65.811603
 40
0.180010
 41
0.180010
 42
0.000000
  0
VERTEX
  8
PG_ASSEMBLY_BOTTOM
 10
33.616798
 20
69.011597
 40
0.180010
 41
0.180010
 42
0.000000
  0
VERTEX
  8
PG_ASSEMBLY_BOTTOM
 10
32.016802
 20
69.011597
 40
0.180010
 41
0.180010
 42
0.000000
  0
VERTEX
  8
PG_ASSEMBLY_BOTTOM
 10
32.016802
 20
65.811603
 40
0.180010
 41
0.180010
 42
0.000000
  0
SEQEND
  0
TEXT
  8
RD_SILKSCREEN_BOTTOM
 10
32.258000
 20
70.431990
 11
0.000000
 21
0.000000
 40
1.016000
 41
0.927175
 50
270.000000
  7
STANDARD
 71
2
 72
0
  1
R10
 73
0
  0
POLYLINE
  8
PIN_BOTTOM
 66
1
 70
1
 40
0.000000
 41
0.000000
 39
0.000000
  0
VERTEX
  8
PIN_BOTTOM
 10
27.721103
 20
59.728100
 40
0.000000
 41
0.000000
 42
0.000000
  0
VERTEX
  8
PIN_BOTTOM
 10
27.721103
 20
57.924700
 40
0.000000
 41
0.000000
 42
0.000000
  0
VERTEX
  8
PIN_BOTTOM
 10
29.321303
 20
57.924700
 40
0.000000
 41
0.000000
 42
0.000000
  0
VERTEX
  8
PIN_BOTTOM
 10
29.321303
 20
59.728100
 40
0.000000
 41
0.000000
 42
0.000000
  0
SEQEND
  0
POLYLINE
  8
PIN_BOTTOM
 66
1
 70
1
 40
0.000000
 41
0.000000
 39
0.000000
  0
VERTEX
  8
PIN_BOTTOM
 10
30.521097
 20
59.728100
 40
0.000000
 41
0.000000
 42
0.000000
  0
VERTEX
  8
PIN_BOTTOM
 10
30.521097
 20
57.924700
 40
0.000000
 41
0.000000
 42
0.000000
  0
VERTEX
  8
PIN_BOTTOM
 10
32.121297
 20
57.924700
 40
0.000000
 41
0.000000
 42
0.000000
  0
VERTEX
  8
PIN_BOTTOM
 10
32.121297
 20
59.728100
 40
0.000000
 41
0.000000
 42
0.000000
  0
SEQEND
  0
POLYLINE
  8
PG_ASSEMBLY_BOTTOM
 66
1
 70
0
 40
0.000000
 41
0.000000
 39
0.000000
  0
VERTEX
  8
PG_ASSEMBLY_BOTTOM
 10
28.321203
 20
59.626398
 40
0.180010
 41
0.180010
 42
0.000000
  0
VERTEX
  8
PG_ASSEMBLY_BOTTOM
 10
28.321203
 20
58.026402
 40
0.180010
 41
0.180010
 42
0.000000
  0
VERTEX
  8
PG_ASSEMBLY_BOTTOM
 10
31.521197
 20
58.026402
 40
0.180010
 41
0.180010
 42
0.000000
  0
VERTEX
  8
PG_ASSEMBLY_BOTTOM
 10
31.521197
 20
59.626398
 40
0.180010
 41
0.180010
 42
0.000000
  0
VERTEX
  8
PG_ASSEMBLY_BOTTOM
 10
28.321203
 20
59.626398
 40
0.180010
 41
0.180010
 42
0.000000
  0
SEQEND
  0
TEXT
  8
RD_SILKSCREEN_BOTTOM
 10
27.014018
 20
58.293000
 11
0.000000
 21
0.000000
 40
1.016000
 41
0.927175
 50
0.000000
  7
STANDARD
 71
2
 72
0
  1
R4
 73
0
  0
POLYLINE
  8
PIN_BOTTOM
 66
1
 70
1
 40
0.000000
 41
0.000000
 39
0.000000
  0
VERTEX
  8
PIN_BOTTOM
 10
45.992110
 20
75.047297
 40
0.000000
 41
0.000000
 42
0.000000
  0
VERTEX
  8
PIN_BOTTOM
 10
44.188710
 20
75.047297
 40
0.000000
 41
0.000000
 42
0.000000
  0
VERTEX
  8
PIN_BOTTOM
 10
44.188710
 20
73.447097
 40
0.000000
 41
0.000000
 42
0.000000
  0
VERTEX
  8
PIN_BOTTOM
 10
45.992110
 20
73.447097
 40
0.000000
 41
0.000000
 42
0.000000
  0
SEQEND
  0
POLYLINE
  8
PIN_BOTTOM
 66
1
 70
1
 40
0.000000
 41
0.000000
 39
0.000000
  0
VERTEX
  8
PIN_BOTTOM
 10
45.992110
 20
72.247303
 40
0.000000
 41
0.000000
 42
0.000000
  0
VERTEX
  8
PIN_BOTTOM
 10
44.188710
 20
72.247303
 40
0.000000
 41
0.000000
 42
0.000000
  0
VERTEX
  8
PIN_BOTTOM
 10
44.188710
 20
70.647103
 40
0.000000
 41
0.000000
 42
0.000000
  0
VERTEX
  8
PIN_BOTTOM
 10
45.992110
 20
70.647103
 40
0.000000
 41
0.000000
 42
0.000000
  0
SEQEND
  0
POLYLINE
  8
PG_ASSEMBLY_BOTTOM
 66
1
 70
0
 40
0.000000
 41
0.000000
 39
0.000000
  0
VERTEX
  8
PG_ASSEMBLY_BOTTOM
 10
45.890409
 20
74.447197
 40
0.180010
 41
0.180010
 42
0.000000
  0
VERTEX
  8
PG_ASSEMBLY_BOTTOM
 10
44.290412
 20
74.447197
 40
0.180010
 41
0.180010
 42
0.000000
  0
VERTEX
  8
PG_ASSEMBLY_BOTTOM
 10
44.290412
 20
71.247203
 40
0.180010
 41
0.180010
 42
0.000000
  0
VERTEX
  8
PG_ASSEMBLY_BOTTOM
 10
45.890409
 20
71.247203
 40
0.180010
 41
0.180010
 42
0.000000
  0
VERTEX
  8
PG_ASSEMBLY_BOTTOM
 10
45.890409
 20
74.447197
 40
0.180010
 41
0.180010
 42
0.000000
  0
SEQEND
  0
TEXT
  8
RD_SILKSCREEN_BOTTOM
 10
45.937018
 20
75.946000
 11
0.000000
 21
0.000000
 40
1.016000
 41
0.927175
 50
0.000000
  7
STANDARD
 71
2
 72
0
  1
R3
 73
0
  0
POLYLINE
  8
PIN_BOTTOM
 66
1
 70
1
 40
0.000000
 41
0.000000
 39
0.000000
  0
VERTEX
  8
PIN_BOTTOM
 10
36.741100
 20
65.211503
 40
0.000000
 41
0.000000
 42
0.000000
  0
VERTEX
  8
PIN_BOTTOM
 10
38.544500
 20
65.211503
 40
0.000000
 41
0.000000
 42
0.000000
  0
VERTEX
  8
PIN_BOTTOM
 10
38.544500
 20
66.811703
 40
0.000000
 41
0.000000
 42
0.000000
  0
VERTEX
  8
PIN_BOTTOM
 10
36.741100
 20
66.811703
 40
0.000000
 41
0.000000
 42
0.000000
  0
SEQEND
  0
POLYLINE
  8
PIN_BOTTOM
 66
1
 70
1
 40
0.000000
 41
0.000000
 39
0.000000
  0
VERTEX
  8
PIN_BOTTOM
 10
36.741100
 20
68.011497
 40
0.000000
 41
0.000000
 42
0.000000
  0
VERTEX
  8
PIN_BOTTOM
 10
38.544500
 20
68.011497
 40
0.000000
 41
0.000000
 42
0.000000
  0
VERTEX
  8
PIN_BOTTOM
 10
38.544500
 20
69.611697
 40
0.000000
 41
0.000000
 42
0.000000
  0
VERTEX
  8
PIN_BOTTOM
 10
36.741100
 20
69.611697
 40
0.000000
 41
0.000000
 42
0.000000
  0
SEQEND
  0
POLYLINE
  8
PG_ASSEMBLY_BOTTOM
 66
1
 70
0
 40
0.000000
 41
0.000000
 39
0.000000
  0
VERTEX
  8
PG_ASSEMBLY_BOTTOM
 10
36.842802
 20
65.811603
 40
0.180010
 41
0.180010
 42
0.000000
  0
VERTEX
  8
PG_ASSEMBLY_BOTTOM
 10
38.442798
 20
65.811603
 40
0.180010
 41
0.180010
 42
0.000000
  0
VERTEX
  8
PG_ASSEMBLY_BOTTOM
 10
38.442798
 20
69.011597
 40
0.180010
 41
0.180010
 42
0.000000
  0
VERTEX
  8
PG_ASSEMBLY_BOTTOM
 10
36.842802
 20
69.011597
 40
0.180010
 41
0.180010
 42
0.000000
  0
VERTEX
  8
PG_ASSEMBLY_BOTTOM
 10
36.842802
 20
65.811603
 40
0.180010
 41
0.180010
 42
0.000000
  0
SEQEND
  0
TEXT
  8
RD_SILKSCREEN_BOTTOM
 10
37.211000
 20
70.304990
 11
0.000000
 21
0.000000
 40
1.016000
 41
0.927175
 50
270.000000
  7
STANDARD
 71
2
 72
0
  1
R12
 73
0
  0
POLYLINE
  8
PIN_BOTTOM
 66
1
 70
1
 40
0.000000
 41
0.000000
 39
0.000000
  0
VERTEX
  8
PIN_BOTTOM
 10
32.121297
 20
60.363100
 40
0.000000
 41
0.000000
 42
0.000000
  0
VERTEX
  8
PIN_BOTTOM
 10
32.121297
 20
62.166500
 40
0.000000
 41
0.000000
 42
0.000000
  0
VERTEX
  8
PIN_BOTTOM
 10
30.521097
 20
62.166500
 40
0.000000
 41
0.000000
 42
0.000000
  0
VERTEX
  8
PIN_BOTTOM
 10
30.521097
 20
60.363100
 40
0.000000
 41
0.000000
 42
0.000000
  0
SEQEND
  0
POLYLINE
  8
PIN_BOTTOM
 66
1
 70
1
 40
0.000000
 41
0.000000
 39
0.000000
  0
VERTEX
  8
PIN_BOTTOM
 10
29.321303
 20
60.363100
 40
0.000000
 41
0.000000
 42
0.000000
  0
VERTEX
  8
PIN_BOTTOM
 10
29.321303
 20
62.166500
 40
0.000000
 41
0.000000
 42
0.000000
  0
VERTEX
  8
PIN_BOTTOM
 10
27.721103
 20
62.166500
 40
0.000000
 41
0.000000
 42
0.000000
  0
VERTEX
  8
PIN_BOTTOM
 10
27.721103
 20
60.363100
 40
0.000000
 41
0.000000
 42
0.000000
  0
SEQEND
  0
POLYLINE
  8
PG_ASSEMBLY_BOTTOM
 66
1
 70
0
 40
0.000000
 41
0.000000
 39
0.000000
  0
VERTEX
  8
PG_ASSEMBLY_BOTTOM
 10
31.521197
 20
60.464802
 40
0.180010
 41
0.180010
 42
0.000000
  0
VERTEX
  8
PG_ASSEMBLY_BOTTOM
 10
31.521197
 20
62.064798
 40
0.180010
 41
0.180010
 42
0.000000
  0
VERTEX
  8
PG_ASSEMBLY_BOTTOM
 10
28.321203
 20
62.064798
 40
0.180010
 41
0.180010
 42
0.000000
  0
VERTEX
  8
PG_ASSEMBLY_BOTTOM
 10
28.321203
 20
60.464802
 40
0.180010
 41
0.180010
 42
0.000000
  0
VERTEX
  8
PG_ASSEMBLY_BOTTOM
 10
31.521197
 20
60.464802
 40
0.180010
 41
0.180010
 42
0.000000
  0
SEQEND
  0
TEXT
  8
RD_SILKSCREEN_BOTTOM
 10
26.977010
 20
60.706000
 11
0.000000
 21
0.000000
 40
1.016000
 41
0.927175
 50
0.000000
  7
STANDARD
 71
2
 72
0
  1
R13
 73
0
  0
POLYLINE
  8
PIN_BOTTOM
 66
1
 70
1
 40
0.000000
 41
0.000000
 39
0.000000
  0
VERTEX
  8
PIN_BOTTOM
 10
42.992091
 20
75.047297
 40
0.000000
 41
0.000000
 42
0.000000
  0
VERTEX
  8
PIN_BOTTOM
 10
41.188691
 20
75.047297
 40
0.000000
 41
0.000000
 42
0.000000
  0
VERTEX
  8
PIN_BOTTOM
 10
41.188691
 20
73.447097
 40
0.000000
 41
0.000000
 42
0.000000
  0
VERTEX
  8
PIN_BOTTOM
 10
42.992091
 20
73.447097
 40
0.000000
 41
0.000000
 42
0.000000
  0
SEQEND
  0
POLYLINE
  8
PIN_BOTTOM
 66
1
 70
1
 40
0.000000
 41
0.000000
 39
0.000000
  0
VERTEX
  8
PIN_BOTTOM
 10
42.992091
 20
72.247303
 40
0.000000
 41
0.000000
 42
0.000000
  0
VERTEX
  8
PIN_BOTTOM
 10
41.188691
 20
72.247303
 40
0.000000
 41
0.000000
 42
0.000000
  0
VERTEX
  8
PIN_BOTTOM
 10
41.188691
 20
70.647103
 40
0.000000
 41
0.000000
 42
0.000000
  0
VERTEX
  8
PIN_BOTTOM
 10
42.992091
 20
70.647103
 40
0.000000
 41
0.000000
 42
0.000000
  0
SEQEND
  0
POLYLINE
  8
PG_ASSEMBLY_BOTTOM
 66
1
 70
0
 40
0.000000
 41
0.000000
 39
0.000000
  0
VERTEX
  8
PG_ASSEMBLY_BOTTOM
 10
42.890389
 20
74.447197
 40
0.180010
 41
0.180010
 42
0.000000
  0
VERTEX
  8
PG_ASSEMBLY_BOTTOM
 10
41.290392
 20
74.447197
 40
0.180010
 41
0.180010
 42
0.000000
  0
VERTEX
  8
PG_ASSEMBLY_BOTTOM
 10
41.290392
 20
71.247203
 40
0.180010
 41
0.180010
 42
0.000000
  0
VERTEX
  8
PG_ASSEMBLY_BOTTOM
 10
42.890389
 20
71.247203
 40
0.180010
 41
0.180010
 42
0.000000
  0
VERTEX
  8
PG_ASSEMBLY_BOTTOM
 10
42.890389
 20
74.447197
 40
0.180010
 41
0.180010
 42
0.000000
  0
SEQEND
  0
TEXT
  8
RD_SILKSCREEN_BOTTOM
 10
42.761992
 20
75.819000
 11
0.000000
 21
0.000000
 40
1.016000
 41
0.927175
 50
0.000000
  7
STANDARD
 71
2
 72
0
  1
R2
 73
0
  0
POLYLINE
  8
PIN_BOTTOM
 66
1
 70
1
 40
0.000000
 41
0.000000
 39
0.000000
  0
VERTEX
  8
PIN_BOTTOM
 10
32.346900
 20
13.782497
 40
0.000000
 41
0.000000
 42
0.000000
  0
VERTEX
  8
PIN_BOTTOM
 10
30.543500
 20
13.782497
 40
0.000000
 41
0.000000
 42
0.000000
  0
VERTEX
  8
PIN_BOTTOM
 10
30.543500
 20
12.182297
 40
0.000000
 41
0.000000
 42
0.000000
  0
VERTEX
  8
PIN_BOTTOM
 10
32.346900
 20
12.182297
 40
0.000000
 41
0.000000
 42
0.000000
  0
SEQEND
  0
POLYLINE
  8
PIN_BOTTOM
 66
1
 70
1
 40
0.000000
 41
0.000000
 39
0.000000
  0
VERTEX
  8
PIN_BOTTOM
 10
32.346900
 20
10.982503
 40
0.000000
 41
0.000000
 42
0.000000
  0
VERTEX
  8
PIN_BOTTOM
 10
30.543500
 20
10.982503
 40
0.000000
 41
0.000000
 42
0.000000
  0
VERTEX
  8
PIN_BOTTOM
 10
30.543500
 20
9.382303
 40
0.000000
 41
0.000000
 42
0.000000
  0
VERTEX
  8
PIN_BOTTOM
 10
32.346900
 20
9.382303
 40
0.000000
 41
0.000000
 42
0.000000
  0
SEQEND
  0
POLYLINE
  8
PG_ASSEMBLY_BOTTOM
 66
1
 70
0
 40
0.000000
 41
0.000000
 39
0.000000
  0
VERTEX
  8
PG_ASSEMBLY_BOTTOM
 10
32.245198
 20
13.182397
 40
0.180010
 41
0.180010
 42
0.000000
  0
VERTEX
  8
PG_ASSEMBLY_BOTTOM
 10
30.645202
 20
13.182397
 40
0.180010
 41
0.180010
 42
0.000000
  0
VERTEX
  8
PG_ASSEMBLY_BOTTOM
 10
30.645202
 20
9.982403
 40
0.180010
 41
0.180010
 42
0.000000
  0
VERTEX
  8
PG_ASSEMBLY_BOTTOM
 10
32.245198
 20
9.982403
 40
0.180010
 41
0.180010
 42
0.000000
  0
VERTEX
  8
PG_ASSEMBLY_BOTTOM
 10
32.245198
 20
13.182397
 40
0.180010
 41
0.180010
 42
0.000000
  0
SEQEND
  0
TEXT
  8
RD_SILKSCREEN_BOTTOM
 10
32.692010
 20
7.620000
 11
0.000000
 21
0.000000
 40
1.016000
 41
0.927175
 50
0.000000
  7
STANDARD
 71
2
 72
0
  1
R23
 73
0
  0
POLYLINE
  8
PIN_BOTTOM
 66
1
 70
1
 40
0.000000
 41
0.000000
 39
0.000000
  0
VERTEX
  8
PIN_BOTTOM
 10
30.162500
 20
51.724103
 40
0.000000
 41
0.000000
 42
0.000000
  0
VERTEX
  8
PIN_BOTTOM
 10
31.965900
 20
51.724103
 40
0.000000
 41
0.000000
 42
0.000000
  0
VERTEX
  8
PIN_BOTTOM
 10
31.965900
 20
53.324303
 40
0.000000
 41
0.000000
 42
0.000000
  0
VERTEX
  8
PIN_BOTTOM
 10
30.162500
 20
53.324303
 40
0.000000
 41
0.000000
 42
0.000000
  0
SEQEND
  0
POLYLINE
  8
PIN_BOTTOM
 66
1
 70
1
 40
0.000000
 41
0.000000
 39
0.000000
  0
VERTEX
  8
PIN_BOTTOM
 10
30.162500
 20
54.524097
 40
0.000000
 41
0.000000
 42
0.000000
  0
VERTEX
  8
PIN_BOTTOM
 10
31.965900
 20
54.524097
 40
0.000000
 41
0.000000
 42
0.000000
  0
VERTEX
  8
PIN_BOTTOM
 10
31.965900
 20
56.124297
 40
0.000000
 41
0.000000
 42
0.000000
  0
VERTEX
  8
PIN_BOTTOM
 10
30.162500
 20
56.124297
 40
0.000000
 41
0.000000
 42
0.000000
  0
SEQEND
  0
POLYLINE
  8
PG_ASSEMBLY_BOTTOM
 66
1
 70
0
 40
0.000000
 41
0.000000
 39
0.000000
  0
VERTEX
  8
PG_ASSEMBLY_BOTTOM
 10
30.264202
 20
52.324203
 40
0.180010
 41
0.180010
 42
0.000000
  0
VERTEX
  8
PG_ASSEMBLY_BOTTOM
 10
31.864198
 20
52.324203
 40
0.180010
 41
0.180010
 42
0.000000
  0
VERTEX
  8
PG_ASSEMBLY_BOTTOM
 10
31.864198
 20
55.524197
 40
0.180010
 41
0.180010
 42
0.000000
  0
VERTEX
  8
PG_ASSEMBLY_BOTTOM
 10
30.264202
 20
55.524197
 40
0.180010
 41
0.180010
 42
0.000000
  0
VERTEX
  8
PG_ASSEMBLY_BOTTOM
 10
30.264202
 20
52.324203
 40
0.180010
 41
0.180010
 42
0.000000
  0
SEQEND
  0
TEXT
  8
RD_SILKSCREEN_BOTTOM
 10
31.712992
 20
49.784000
 11
0.000000
 21
0.000000
 40
1.016000
 41
0.927175
 50
0.000000
  7
STANDARD
 71
2
 72
0
  1
R7
 73
0
  0
POLYLINE
  8
PIN_BOTTOM
 66
1
 70
1
 40
0.000000
 41
0.000000
 39
0.000000
  0
VERTEX
  8
PIN_BOTTOM
 10
27.749500
 20
51.724103
 40
0.000000
 41
0.000000
 42
0.000000
  0
VERTEX
  8
PIN_BOTTOM
 10
29.552900
 20
51.724103
 40
0.000000
 41
0.000000
 42
0.000000
  0
VERTEX
  8
PIN_BOTTOM
 10
29.552900
 20
53.324303
 40
0.000000
 41
0.000000
 42
0.000000
  0
VERTEX
  8
PIN_BOTTOM
 10
27.749500
 20
53.324303
 40
0.000000
 41
0.000000
 42
0.000000
  0
SEQEND
  0
POLYLINE
  8
PIN_BOTTOM
 66
1
 70
1
 40
0.000000
 41
0.000000
 39
0.000000
  0
VERTEX
  8
PIN_BOTTOM
 10
27.749500
 20
54.524097
 40
0.000000
 41
0.000000
 42
0.000000
  0
VERTEX
  8
PIN_BOTTOM
 10
29.552900
 20
54.524097
 40
0.000000
 41
0.000000
 42
0.000000
  0
VERTEX
  8
PIN_BOTTOM
 10
29.552900
 20
56.124297
 40
0.000000
 41
0.000000
 42
0.000000
  0
VERTEX
  8
PIN_BOTTOM
 10
27.749500
 20
56.124297
 40
0.000000
 41
0.000000
 42
0.000000
  0
SEQEND
  0
POLYLINE
  8
PG_ASSEMBLY_BOTTOM
 66
1
 70
0
 40
0.000000
 41
0.000000
 39
0.000000
  0
VERTEX
  8
PG_ASSEMBLY_BOTTOM
 10
27.851202
 20
52.324203
 40
0.180010
 41
0.180010
 42
0.000000
  0
VERTEX
  8
PG_ASSEMBLY_BOTTOM
 10
29.451198
 20
52.324203
 40
0.180010
 41
0.180010
 42
0.000000
  0
VERTEX
  8
PG_ASSEMBLY_BOTTOM
 10
29.451198
 20
55.524197
 40
0.180010
 41
0.180010
 42
0.000000
  0
VERTEX
  8
PG_ASSEMBLY_BOTTOM
 10
27.851202
 20
55.524197
 40
0.180010
 41
0.180010
 42
0.000000
  0
VERTEX
  8
PG_ASSEMBLY_BOTTOM
 10
27.851202
 20
52.324203
 40
0.180010
 41
0.180010
 42
0.000000
  0
SEQEND
  0
TEXT
  8
RD_SILKSCREEN_BOTTOM
 10
29.426992
 20
49.784000
 11
0.000000
 21
0.000000
 40
1.016000
 41
0.927175
 50
0.000000
  7
STANDARD
 71
2
 72
0
  1
R6
 73
0
  0
POLYLINE
  8
PIN_BOTTOM
 66
1
 70
1
 40
0.000000
 41
0.000000
 39
0.000000
  0
VERTEX
  8
PIN_BOTTOM
 10
32.121297
 20
62.776100
 40
0.000000
 41
0.000000
 42
0.000000
  0
VERTEX
  8
PIN_BOTTOM
 10
32.121297
 20
64.579500
 40
0.000000
 41
0.000000
 42
0.000000
  0
VERTEX
  8
PIN_BOTTOM
 10
30.521097
 20
64.579500
 40
0.000000
 41
0.000000
 42
0.000000
  0
VERTEX
  8
PIN_BOTTOM
 10
30.521097
 20
62.776100
 40
0.000000
 41
0.000000
 42
0.000000
  0
SEQEND
  0
POLYLINE
  8
PIN_BOTTOM
 66
1
 70
1
 40
0.000000
 41
0.000000
 39
0.000000
  0
VERTEX
  8
PIN_BOTTOM
 10
29.321303
 20
62.776100
 40
0.000000
 41
0.000000
 42
0.000000
  0
VERTEX
  8
PIN_BOTTOM
 10
29.321303
 20
64.579500
 40
0.000000
 41
0.000000
 42
0.000000
  0
VERTEX
  8
PIN_BOTTOM
 10
27.721103
 20
64.579500
 40
0.000000
 41
0.000000
 42
0.000000
  0
VERTEX
  8
PIN_BOTTOM
 10
27.721103
 20
62.776100
 40
0.000000
 41
0.000000
 42
0.000000
  0
SEQEND
  0
POLYLINE
  8
PG_ASSEMBLY_BOTTOM
 66
1
 70
0
 40
0.000000
 41
0.000000
 39
0.000000
  0
VERTEX
  8
PG_ASSEMBLY_BOTTOM
 10
31.521197
 20
62.877802
 40
0.180010
 41
0.180010
 42
0.000000
  0
VERTEX
  8
PG_ASSEMBLY_BOTTOM
 10
31.521197
 20
64.477798
 40
0.180010
 41
0.180010
 42
0.000000
  0
VERTEX
  8
PG_ASSEMBLY_BOTTOM
 10
28.321203
 20
64.477798
 40
0.180010
 41
0.180010
 42
0.000000
  0
VERTEX
  8
PG_ASSEMBLY_BOTTOM
 10
28.321203
 20
62.877802
 40
0.180010
 41
0.180010
 42
0.000000
  0
VERTEX
  8
PG_ASSEMBLY_BOTTOM
 10
31.521197
 20
62.877802
 40
0.180010
 41
0.180010
 42
0.000000
  0
SEQEND
  0
TEXT
  8
RD_SILKSCREEN_BOTTOM
 10
26.977010
 20
63.373000
 11
0.000000
 21
0.000000
 40
1.016000
 41
0.927175
 50
0.000000
  7
STANDARD
 71
2
 72
0
  1
R11
 73
0
  0
POLYLINE
  8
PIN_BOTTOM
 66
1
 70
1
 40
0.000000
 41
0.000000
 39
0.000000
  0
VERTEX
  8
PIN_BOTTOM
 10
34.378900
 20
56.124297
 40
0.000000
 41
0.000000
 42
0.000000
  0
VERTEX
  8
PIN_BOTTOM
 10
32.575500
 20
56.124297
 40
0.000000
 41
0.000000
 42
0.000000
  0
VERTEX
  8
PIN_BOTTOM
 10
32.575500
 20
54.524097
 40
0.000000
 41
0.000000
 42
0.000000
  0
VERTEX
  8
PIN_BOTTOM
 10
34.378900
 20
54.524097
 40
0.000000
 41
0.000000
 42
0.000000
  0
SEQEND
  0
POLYLINE
  8
PIN_BOTTOM
 66
1
 70
1
 40
0.000000
 41
0.000000
 39
0.000000
  0
VERTEX
  8
PIN_BOTTOM
 10
34.378900
 20
53.324303
 40
0.000000
 41
0.000000
 42
0.000000
  0
VERTEX
  8
PIN_BOTTOM
 10
32.575500
 20
53.324303
 40
0.000000
 41
0.000000
 42
0.000000
  0
VERTEX
  8
PIN_BOTTOM
 10
32.575500
 20
51.724103
 40
0.000000
 41
0.000000
 42
0.000000
  0
VERTEX
  8
PIN_BOTTOM
 10
34.378900
 20
51.724103
 40
0.000000
 41
0.000000
 42
0.000000
  0
SEQEND
  0
POLYLINE
  8
PG_ASSEMBLY_BOTTOM
 66
1
 70
0
 40
0.000000
 41
0.000000
 39
0.000000
  0
VERTEX
  8
PG_ASSEMBLY_BOTTOM
 10
34.277198
 20
55.524197
 40
0.180010
 41
0.180010
 42
0.000000
  0
VERTEX
  8
PG_ASSEMBLY_BOTTOM
 10
32.677202
 20
55.524197
 40
0.180010
 41
0.180010
 42
0.000000
  0
VERTEX
  8
PG_ASSEMBLY_BOTTOM
 10
32.677202
 20
52.324203
 40
0.180010
 41
0.180010
 42
0.000000
  0
VERTEX
  8
PG_ASSEMBLY_BOTTOM
 10
34.277198
 20
52.324203
 40
0.180010
 41
0.180010
 42
0.000000
  0
VERTEX
  8
PG_ASSEMBLY_BOTTOM
 10
34.277198
 20
55.524197
 40
0.180010
 41
0.180010
 42
0.000000
  0
SEQEND
  0
TEXT
  8
RD_SILKSCREEN_BOTTOM
 10
34.253018
 20
49.911000
 11
0.000000
 21
0.000000
 40
1.016000
 41
0.927175
 50
0.000000
  7
STANDARD
 71
2
 72
0
  1
R9
 73
0
  0
POLYLINE
  8
PIN_BOTTOM
 66
1
 70
1
 40
0.000000
 41
0.000000
 39
0.000000
  0
VERTEX
  8
PIN_BOTTOM
 10
19.342100
 20
40.649703
 40
0.000000
 41
0.000000
 42
0.000000
  0
VERTEX
  8
PIN_BOTTOM
 10
21.145500
 20
40.649703
 40
0.000000
 41
0.000000
 42
0.000000
  0
VERTEX
  8
PIN_BOTTOM
 10
21.145500
 20
42.249903
 40
0.000000
 41
0.000000
 42
0.000000
  0
VERTEX
  8
PIN_BOTTOM
 10
19.342100
 20
42.249903
 40
0.000000
 41
0.000000
 42
0.000000
  0
SEQEND
  0
POLYLINE
  8
PIN_BOTTOM
 66
1
 70
1
 40
0.000000
 41
0.000000
 39
0.000000
  0
VERTEX
  8
PIN_BOTTOM
 10
19.342100
 20
43.449697
 40
0.000000
 41
0.000000
 42
0.000000
  0
VERTEX
  8
PIN_BOTTOM
 10
21.145500
 20
43.449697
 40
0.000000
 41
0.000000
 42
0.000000
  0
VERTEX
  8
PIN_BOTTOM
 10
21.145500
 20
45.049897
 40
0.000000
 41
0.000000
 42
0.000000
  0
VERTEX
  8
PIN_BOTTOM
 10
19.342100
 20
45.049897
 40
0.000000
 41
0.000000
 42
0.000000
  0
SEQEND
  0
POLYLINE
  8
PG_ASSEMBLY_BOTTOM
 66
1
 70
0
 40
0.000000
 41
0.000000
 39
0.000000
  0
VERTEX
  8
PG_ASSEMBLY_BOTTOM
 10
19.443802
 20
41.249803
 40
0.180010
 41
0.180010
 42
0.000000
  0
VERTEX
  8
PG_ASSEMBLY_BOTTOM
 10
21.043798
 20
41.249803
 40
0.180010
 41
0.180010
 42
0.000000
  0
VERTEX
  8
PG_ASSEMBLY_BOTTOM
 10
21.043798
 20
44.449797
 40
0.180010
 41
0.180010
 42
0.000000
  0
VERTEX
  8
PG_ASSEMBLY_BOTTOM
 10
19.443802
 20
44.449797
 40
0.180010
 41
0.180010
 42
0.000000
  0
VERTEX
  8
PG_ASSEMBLY_BOTTOM
 10
19.443802
 20
41.249803
 40
0.180010
 41
0.180010
 42
0.000000
  0
SEQEND
  0
TEXT
  8
RD_SILKSCREEN_BOTTOM
 10
21.971000
 20
41.983990
 11
0.000000
 21
0.000000
 40
1.016000
 41
0.927175
 50
270.000000
  7
STANDARD
 71
2
 72
0
  1
R26
 73
0
  0
POLYLINE
  8
PIN_BOTTOM
 66
1
 70
1
 40
0.000000
 41
0.000000
 39
0.000000
  0
VERTEX
  8
PIN_BOTTOM
 10
26.801293
 20
75.047297
 40
0.000000
 41
0.000000
 42
0.000000
  0
VERTEX
  8
PIN_BOTTOM
 10
24.997893
 20
75.047297
 40
0.000000
 41
0.000000
 42
0.000000
  0
VERTEX
  8
PIN_BOTTOM
 10
24.997893
 20
73.447097
 40
0.000000
 41
0.000000
 42
0.000000
  0
VERTEX
  8
PIN_BOTTOM
 10
26.801293
 20
73.447097
 40
0.000000
 41
0.000000
 42
0.000000
  0
SEQEND
  0
POLYLINE
  8
PIN_BOTTOM
 66
1
 70
1
 40
0.000000
 41
0.000000
 39
0.000000
  0
VERTEX
  8
PIN_BOTTOM
 10
26.801293
 20
72.247303
 40
0.000000
 41
0.000000
 42
0.000000
  0
VERTEX
  8
PIN_BOTTOM
 10
24.997893
 20
72.247303
 40
0.000000
 41
0.000000
 42
0.000000
  0
VERTEX
  8
PIN_BOTTOM
 10
24.997893
 20
70.647103
 40
0.000000
 41
0.000000
 42
0.000000
  0
VERTEX
  8
PIN_BOTTOM
 10
26.801293
 20
70.647103
 40
0.000000
 41
0.000000
 42
0.000000
  0
SEQEND
  0
POLYLINE
  8
PG_ASSEMBLY_BOTTOM
 66
1
 70
0
 40
0.000000
 41
0.000000
 39
0.000000
  0
VERTEX
  8
PG_ASSEMBLY_BOTTOM
 10
26.699591
 20
74.447197
 40
0.180010
 41
0.180010
 42
0.000000
  0
VERTEX
  8
PG_ASSEMBLY_BOTTOM
 10
25.099594
 20
74.447197
 40
0.180010
 41
0.180010
 42
0.000000
  0
VERTEX
  8
PG_ASSEMBLY_BOTTOM
 10
25.099594
 20
71.247203
 40
0.180010
 41
0.180010
 42
0.000000
  0
VERTEX
  8
PG_ASSEMBLY_BOTTOM
 10
26.699591
 20
71.247203
 40
0.180010
 41
0.180010
 42
0.000000
  0
VERTEX
  8
PG_ASSEMBLY_BOTTOM
 10
26.699591
 20
74.447197
 40
0.180010
 41
0.180010
 42
0.000000
  0
SEQEND
  0
TEXT
  8
RD_SILKSCREEN_BOTTOM
 10
27.358010
 20
68.580000
 11
0.000000
 21
0.000000
 40
1.016000
 41
0.927175
 50
0.000000
  7
STANDARD
 71
2
 72
0
  1
R33
 73
0
  0
POLYLINE
  8
PIN_BOTTOM
 66
1
 70
1
 40
0.000000
 41
0.000000
 39
0.000000
  0
VERTEX
  8
PIN_BOTTOM
 10
36.131500
 20
69.611697
 40
0.000000
 41
0.000000
 42
0.000000
  0
VERTEX
  8
PIN_BOTTOM
 10
34.328100
 20
69.611697
 40
0.000000
 41
0.000000
 42
0.000000
  0
VERTEX
  8
PIN_BOTTOM
 10
34.328100
 20
68.011497
 40
0.000000
 41
0.000000
 42
0.000000
  0
VERTEX
  8
PIN_BOTTOM
 10
36.131500
 20
68.011497
 40
0.000000
 41
0.000000
 42
0.000000
  0
SEQEND
  0
POLYLINE
  8
PIN_BOTTOM
 66
1
 70
1
 40
0.000000
 41
0.000000
 39
0.000000
  0
VERTEX
  8
PIN_BOTTOM
 10
36.131500
 20
66.811703
 40
0.000000
 41
0.000000
 42
0.000000
  0
VERTEX
  8
PIN_BOTTOM
 10
34.328100
 20
66.811703
 40
0.000000
 41
0.000000
 42
0.000000
  0
VERTEX
  8
PIN_BOTTOM
 10
34.328100
 20
65.211503
 40
0.000000
 41
0.000000
 42
0.000000
  0
VERTEX
  8
PIN_BOTTOM
 10
36.131500
 20
65.211503
 40
0.000000
 41
0.000000
 42
0.000000
  0
SEQEND
  0
POLYLINE
  8
PG_ASSEMBLY_BOTTOM
 66
1
 70
0
 40
0.000000
 41
0.000000
 39
0.000000
  0
VERTEX
  8
PG_ASSEMBLY_BOTTOM
 10
36.029798
 20
69.011597
 40
0.180010
 41
0.180010
 42
0.000000
  0
VERTEX
  8
PG_ASSEMBLY_BOTTOM
 10
34.429802
 20
69.011597
 40
0.180010
 41
0.180010
 42
0.000000
  0
VERTEX
  8
PG_ASSEMBLY_BOTTOM
 10
34.429802
 20
65.811603
 40
0.180010
 41
0.180010
 42
0.000000
  0
VERTEX
  8
PG_ASSEMBLY_BOTTOM
 10
36.029798
 20
65.811603
 40
0.180010
 41
0.180010
 42
0.000000
  0
VERTEX
  8
PG_ASSEMBLY_BOTTOM
 10
36.029798
 20
69.011597
 40
0.180010
 41
0.180010
 42
0.000000
  0
SEQEND
  0
TEXT
  8
RD_SILKSCREEN_BOTTOM
 10
34.671000
 20
70.394982
 11
0.000000
 21
0.000000
 40
1.016000
 41
0.927175
 50
270.000000
  7
STANDARD
 71
2
 72
0
  1
R5
 73
0
  0
POLYLINE
  8
PIN_BOTTOM
 66
1
 70
1
 40
0.000000
 41
0.000000
 39
0.000000
  0
VERTEX
  8
PIN_BOTTOM
 10
29.801312
 20
75.047297
 40
0.000000
 41
0.000000
 42
0.000000
  0
VERTEX
  8
PIN_BOTTOM
 10
27.997912
 20
75.047297
 40
0.000000
 41
0.000000
 42
0.000000
  0
VERTEX
  8
PIN_BOTTOM
 10
27.997912
 20
73.447097
 40
0.000000
 41
0.000000
 42
0.000000
  0
VERTEX
  8
PIN_BOTTOM
 10
29.801312
 20
73.447097
 40
0.000000
 41
0.000000
 42
0.000000
  0
SEQEND
  0
POLYLINE
  8
PIN_BOTTOM
 66
1
 70
1
 40
0.000000
 41
0.000000
 39
0.000000
  0
VERTEX
  8
PIN_BOTTOM
 10
29.801312
 20
72.247303
 40
0.000000
 41
0.000000
 42
0.000000
  0
VERTEX
  8
PIN_BOTTOM
 10
27.997912
 20
72.247303
 40
0.000000
 41
0.000000
 42
0.000000
  0
VERTEX
  8
PIN_BOTTOM
 10
27.997912
 20
70.647103
 40
0.000000
 41
0.000000
 42
0.000000
  0
VERTEX
  8
PIN_BOTTOM
 10
29.801312
 20
70.647103
 40
0.000000
 41
0.000000
 42
0.000000
  0
SEQEND
  0
POLYLINE
  8
PG_ASSEMBLY_BOTTOM
 66
1
 70
0
 40
0.000000
 41
0.000000
 39
0.000000
  0
VERTEX
  8
PG_ASSEMBLY_BOTTOM
 10
29.699610
 20
74.447197
 40
0.180010
 41
0.180010
 42
0.000000
  0
VERTEX
  8
PG_ASSEMBLY_BOTTOM
 10
28.099614
 20
74.447197
 40
0.180010
 41
0.180010
 42
0.000000
  0
VERTEX
  8
PG_ASSEMBLY_BOTTOM
 10
28.099614
 20
71.247203
 40
0.180010
 41
0.180010
 42
0.000000
  0
VERTEX
  8
PG_ASSEMBLY_BOTTOM
 10
29.699610
 20
71.247203
 40
0.180010
 41
0.180010
 42
0.000000
  0
VERTEX
  8
PG_ASSEMBLY_BOTTOM
 10
29.699610
 20
74.447197
 40
0.180010
 41
0.180010
 42
0.000000
  0
SEQEND
  0
TEXT
  8
RD_SILKSCREEN_BOTTOM
 10
30.480000
 20
71.574990
 11
0.000000
 21
0.000000
 40
1.016000
 41
0.927175
 50
270.000000
  7
STANDARD
 71
2
 72
0
  1
R34
 73
0
  0
POLYLINE
  8
PIN_BOTTOM
 66
1
 70
1
 40
0.000000
 41
0.000000
 39
0.000000
  0
VERTEX
  8
PIN_BOTTOM
 10
29.730700
 20
16.582492
 40
0.000000
 41
0.000000
 42
0.000000
  0
VERTEX
  8
PIN_BOTTOM
 10
27.927300
 20
16.582492
 40
0.000000
 41
0.000000
 42
0.000000
  0
VERTEX
  8
PIN_BOTTOM
 10
27.927300
 20
14.982292
 40
0.000000
 41
0.000000
 42
0.000000
  0
VERTEX
  8
PIN_BOTTOM
 10
29.730700
 20
14.982292
 40
0.000000
 41
0.000000
 42
0.000000
  0
SEQEND
  0
POLYLINE
  8
PIN_BOTTOM
 66
1
 70
1
 40
0.000000
 41
0.000000
 39
0.000000
  0
VERTEX
  8
PIN_BOTTOM
 10
29.730700
 20
13.782497
 40
0.000000
 41
0.000000
 42
0.000000
  0
VERTEX
  8
PIN_BOTTOM
 10
27.927300
 20
13.782497
 40
0.000000
 41
0.000000
 42
0.000000
  0
VERTEX
  8
PIN_BOTTOM
 10
27.927300
 20
12.182297
 40
0.000000
 41
0.000000
 42
0.000000
  0
VERTEX
  8
PIN_BOTTOM
 10
29.730700
 20
12.182297
 40
0.000000
 41
0.000000
 42
0.000000
  0
SEQEND
  0
POLYLINE
  8
PG_ASSEMBLY_BOTTOM
 66
1
 70
0
 40
0.000000
 41
0.000000
 39
0.000000
  0
VERTEX
  8
PG_ASSEMBLY_BOTTOM
 10
29.628998
 20
15.982391
 40
0.180010
 41
0.180010
 42
0.000000
  0
VERTEX
  8
PG_ASSEMBLY_BOTTOM
 10
28.029002
 20
15.982391
 40
0.180010
 41
0.180010
 42
0.000000
  0
VERTEX
  8
PG_ASSEMBLY_BOTTOM
 10
28.029002
 20
12.782398
 40
0.180010
 41
0.180010
 42
0.000000
  0
VERTEX
  8
PG_ASSEMBLY_BOTTOM
 10
29.628998
 20
12.782398
 40
0.180010
 41
0.180010
 42
0.000000
  0
VERTEX
  8
PG_ASSEMBLY_BOTTOM
 10
29.628998
 20
15.982391
 40
0.180010
 41
0.180010
 42
0.000000
  0
SEQEND
  0
TEXT
  8
RD_SILKSCREEN_BOTTOM
 10
30.025010
 20
17.399000
 11
0.000000
 21
0.000000
 40
1.016000
 41
0.927175
 50
0.000000
  7
STANDARD
 71
2
 72
0
  1
R47
 73
0
  0
CIRCLE
  8
PIN_BOTTOM
 10
30.404130
 20
4.666945
 40
0.510032
  0
POLYLINE
  8
PG_ASSEMBLY_BOTTOM
 66
1
 70
0
 40
0.000000
 41
0.000000
 39
0.000000
  0
VERTEX
  8
PG_ASSEMBLY_BOTTOM
 10
31.204230
 20
4.666945
 40
0.180086
 41
0.180086
 42
1.000000
  0
VERTEX
  8
PG_ASSEMBLY_BOTTOM
 10
29.604030
 20
4.666945
 40
0.180086
 41
0.180086
 42
1.000000
  0
VERTEX
  8
PG_ASSEMBLY_BOTTOM
 10
31.204230
 20
4.666945
 40
0.180086
 41
0.180086
 42
0.000000
  0
SEQEND
  0
TEXT
  8
RD_SILKSCREEN_BOTTOM
 10
35.068002
 20
4.064000
 11
0.000000
 21
0.000000
 40
1.016000
 41
0.927175
 50
0.000000
  7
STANDARD
 71
2
 72
0
  1
TP14
 73
0
  0
POLYLINE
  8
PIN_BOTTOM
 66
1
 70
1
 40
0.000000
 41
0.000000
 39
0.000000
  0
VERTEX
  8
PIN_BOTTOM
 10
41.861689
 20
64.381710
 40
0.000000
 41
0.000000
 42
0.000000
  0
VERTEX
  8
PIN_BOTTOM
 10
41.861689
 20
62.883110
 40
0.000000
 41
0.000000
 42
0.000000
  0
VERTEX
  8
PIN_BOTTOM
 10
43.157089
 20
62.883110
 40
0.000000
 41
0.000000
 42
0.000000
  0
VERTEX
  8
PIN_BOTTOM
 10
43.157089
 20
64.381710
 40
0.000000
 41
0.000000
 42
0.000000
  0
SEQEND
  0
POLYLINE
  8
PIN_BOTTOM
 66
1
 70
1
 40
0.000000
 41
0.000000
 39
0.000000
  0
VERTEX
  8
PIN_BOTTOM
 10
43.761711
 20
64.381710
 40
0.000000
 41
0.000000
 42
0.000000
  0
VERTEX
  8
PIN_BOTTOM
 10
43.761711
 20
62.883110
 40
0.000000
 41
0.000000
 42
0.000000
  0
VERTEX
  8
PIN_BOTTOM
 10
45.057111
 20
62.883110
 40
0.000000
 41
0.000000
 42
0.000000
  0
VERTEX
  8
PIN_BOTTOM
 10
45.057111
 20
64.381710
 40
0.000000
 41
0.000000
 42
0.000000
  0
SEQEND
  0
POLYLINE
  8
PG_ASSEMBLY_BOTTOM
 66
1
 70
0
 40
0.000000
 41
0.000000
 39
0.000000
  0
VERTEX
  8
PG_ASSEMBLY_BOTTOM
 10
42.459402
 20
64.232409
 40
0.180010
 41
0.180010
 42
0.000000
  0
VERTEX
  8
PG_ASSEMBLY_BOTTOM
 10
44.459398
 20
64.232409
 40
0.180010
 41
0.180010
 42
0.000000
  0
VERTEX
  8
PG_ASSEMBLY_BOTTOM
 10
44.459398
 20
63.032411
 40
0.180010
 41
0.180010
 42
0.000000
  0
VERTEX
  8
PG_ASSEMBLY_BOTTOM
 10
42.459402
 20
63.032411
 40
0.180010
 41
0.180010
 42
0.000000
  0
VERTEX
  8
PG_ASSEMBLY_BOTTOM
 10
42.459402
 20
64.232409
 40
0.180010
 41
0.180010
 42
0.000000
  0
SEQEND
  0
TEXT
  8
RD_SILKSCREEN_BOTTOM
 10
44.539992
 20
65.151000
 11
0.000000
 21
0.000000
 40
1.016000
 41
0.927175
 50
0.000000
  7
STANDARD
 71
2
 72
0
  1
C9
 73
0
  0
POLYLINE
  8
PIN_BOTTOM
 66
1
 70
1
 40
0.000000
 41
0.000000
 39
0.000000
  0
VERTEX
  8
PIN_BOTTOM
 10
41.861689
 20
60.134500
 40
0.000000
 41
0.000000
 42
0.000000
  0
VERTEX
  8
PIN_BOTTOM
 10
41.861689
 20
58.635900
 40
0.000000
 41
0.000000
 42
0.000000
  0
VERTEX
  8
PIN_BOTTOM
 10
43.157089
 20
58.635900
 40
0.000000
 41
0.000000
 42
0.000000
  0
VERTEX
  8
PIN_BOTTOM
 10
43.157089
 20
60.134500
 40
0.000000
 41
0.000000
 42
0.000000
  0
SEQEND
  0
POLYLINE
  8
PIN_BOTTOM
 66
1
 70
1
 40
0.000000
 41
0.000000
 39
0.000000
  0
VERTEX
  8
PIN_BOTTOM
 10
43.761711
 20
60.134500
 40
0.000000
 41
0.000000
 42
0.000000
  0
VERTEX
  8
PIN_BOTTOM
 10
43.761711
 20
58.635900
 40
0.000000
 41
0.000000
 42
0.000000
  0
VERTEX
  8
PIN_BOTTOM
 10
45.057111
 20
58.635900
 40
0.000000
 41
0.000000
 42
0.000000
  0
VERTEX
  8
PIN_BOTTOM
 10
45.057111
 20
60.134500
 40
0.000000
 41
0.000000
 42
0.000000
  0
SEQEND
  0
POLYLINE
  8
PG_ASSEMBLY_BOTTOM
 66
1
 70
0
 40
0.000000
 41
0.000000
 39
0.000000
  0
VERTEX
  8
PG_ASSEMBLY_BOTTOM
 10
42.459402
 20
59.985199
 40
0.180010
 41
0.180010
 42
0.000000
  0
VERTEX
  8
PG_ASSEMBLY_BOTTOM
 10
44.459398
 20
59.985199
 40
0.180010
 41
0.180010
 42
0.000000
  0
VERTEX
  8
PG_ASSEMBLY_BOTTOM
 10
44.459398
 20
58.785201
 40
0.180010
 41
0.180010
 42
0.000000
  0
VERTEX
  8
PG_ASSEMBLY_BOTTOM
 10
42.459402
 20
58.785201
 40
0.180010
 41
0.180010
 42
0.000000
  0
VERTEX
  8
PG_ASSEMBLY_BOTTOM
 10
42.459402
 20
59.985199
 40
0.180010
 41
0.180010
 42
0.000000
  0
SEQEND
  0
TEXT
  8
RD_SILKSCREEN_BOTTOM
 10
47.334018
 20
58.547000
 11
0.000000
 21
0.000000
 40
1.016000
 41
0.927175
 50
0.000000
  7
STANDARD
 71
2
 72
0
  1
C8
 73
0
  0
POLYLINE
  8
PIN_BOTTOM
 66
1
 70
1
 40
0.000000
 41
0.000000
 39
0.000000
  0
VERTEX
  8
PIN_BOTTOM
 10
41.861689
 20
62.242700
 40
0.000000
 41
0.000000
 42
0.000000
  0
VERTEX
  8
PIN_BOTTOM
 10
41.861689
 20
60.744100
 40
0.000000
 41
0.000000
 42
0.000000
  0
VERTEX
  8
PIN_BOTTOM
 10
43.157089
 20
60.744100
 40
0.000000
 41
0.000000
 42
0.000000
  0
VERTEX
  8
PIN_BOTTOM
 10
43.157089
 20
62.242700
 40
0.000000
 41
0.000000
 42
0.000000
  0
SEQEND
  0
POLYLINE
  8
PIN_BOTTOM
 66
1
 70
1
 40
0.000000
 41
0.000000
 39
0.000000
  0
VERTEX
  8
PIN_BOTTOM
 10
43.761711
 20
62.242700
 40
0.000000
 41
0.000000
 42
0.000000
  0
VERTEX
  8
PIN_BOTTOM
 10
43.761711
 20
60.744100
 40
0.000000
 41
0.000000
 42
0.000000
  0
VERTEX
  8
PIN_BOTTOM
 10
45.057111
 20
60.744100
 40
0.000000
 41
0.000000
 42
0.000000
  0
VERTEX
  8
PIN_BOTTOM
 10
45.057111
 20
62.242700
 40
0.000000
 41
0.000000
 42
0.000000
  0
SEQEND
  0
POLYLINE
  8
PG_ASSEMBLY_BOTTOM
 66
1
 70
0
 40
0.000000
 41
0.000000
 39
0.000000
  0
VERTEX
  8
PG_ASSEMBLY_BOTTOM
 10
42.459402
 20
62.093399
 40
0.180010
 41
0.180010
 42
0.000000
  0
VERTEX
  8
PG_ASSEMBLY_BOTTOM
 10
44.459398
 20
62.093399
 40
0.180010
 41
0.180010
 42
0.000000
  0
VERTEX
  8
PG_ASSEMBLY_BOTTOM
 10
44.459398
 20
60.893401
 40
0.180010
 41
0.180010
 42
0.000000
  0
VERTEX
  8
PG_ASSEMBLY_BOTTOM
 10
42.459402
 20
60.893401
 40
0.180010
 41
0.180010
 42
0.000000
  0
VERTEX
  8
PG_ASSEMBLY_BOTTOM
 10
42.459402
 20
62.093399
 40
0.180010
 41
0.180010
 42
0.000000
  0
SEQEND
  0
TEXT
  8
RD_SILKSCREEN_BOTTOM
 10
45.847000
 20
60.362008
 11
0.000000
 21
0.000000
 40
1.016000
 41
0.927175
 50
270.000000
  7
STANDARD
 71
2
 72
0
  1
C7
 73
0
  0
POLYLINE
  8
PIN_BOTTOM
 66
1
 70
1
 40
0.000000
 41
0.000000
 39
0.000000
  0
VERTEX
  8
PIN_BOTTOM
 10
39.020394
 20
82.175401
 40
0.000000
 41
0.000000
 42
0.000000
  0
VERTEX
  8
PIN_BOTTOM
 10
39.020394
 20
82.975399
 40
0.000000
 41
0.000000
 42
-1.000000
  0
VERTEX
  8
PIN_BOTTOM
 10
40.020392
 20
82.975399
 40
0.000000
 41
0.000000
 42
0.000000
  0
VERTEX
  8
PIN_BOTTOM
 10
40.020392
 20
82.175401
 40
0.000000
 41
0.000000
 42
-1.000000
  0
SEQEND
  0
POLYLINE
  8
PIN_BOTTOM
 66
1
 70
1
 40
0.000000
 41
0.000000
 39
0.000000
  0
VERTEX
  8
PIN_BOTTOM
 10
47.660408
 20
82.175401
 40
0.000000
 41
0.000000
 42
0.000000
  0
VERTEX
  8
PIN_BOTTOM
 10
47.660408
 20
82.975399
 40
0.000000
 41
0.000000
 42
-1.000000
  0
VERTEX
  8
PIN_BOTTOM
 10
48.660406
 20
82.975399
 40
0.000000
 41
0.000000
 42
0.000000
  0
VERTEX
  8
PIN_BOTTOM
 10
48.660406
 20
82.175401
 40
0.000000
 41
0.000000
 42
-1.000000
  0
SEQEND
  0
POLYLINE
  8
PIN_BOTTOM
 66
1
 70
1
 40
0.000000
 41
0.000000
 39
0.000000
  0
VERTEX
  8
PIN_BOTTOM
 10
39.020394
 20
77.845399
 40
0.000000
 41
0.000000
 42
0.000000
  0
VERTEX
  8
PIN_BOTTOM
 10
39.020394
 20
78.945397
 40
0.000000
 41
0.000000
 42
-1.000000
  0
VERTEX
  8
PIN_BOTTOM
 10
40.020392
 20
78.945397
 40
0.000000
 41
0.000000
 42
0.000000
  0
VERTEX
  8
PIN_BOTTOM
 10
40.020392
 20
77.845399
 40
0.000000
 41
0.000000
 42
-1.000000
  0
SEQEND
  0
POLYLINE
  8
PIN_BOTTOM
 66
1
 70
1
 40
0.000000
 41
0.000000
 39
0.000000
  0
VERTEX
  8
PIN_BOTTOM
 10
47.660408
 20
77.845399
 40
0.000000
 41
0.000000
 42
0.000000
  0
VERTEX
  8
PIN_BOTTOM
 10
47.660408
 20
78.945397
 40
0.000000
 41
0.000000
 42
-1.000000
  0
VERTEX
  8
PIN_BOTTOM
 10
48.660406
 20
78.945397
 40
0.000000
 41
0.000000
 42
0.000000
  0
VERTEX
  8
PIN_BOTTOM
 10
48.660406
 20
77.845399
 40
0.000000
 41
0.000000
 42
-1.000000
  0
SEQEND
  0
CIRCLE
  8
PIN_BOTTOM
 10
46.730412
 20
78.895397
 40
0.325044
  0
CIRCLE
  8
PIN_BOTTOM
 10
40.950388
 20
78.895397
 40
0.325044
  0
POLYLINE
  8
PIN_BOTTOM
 66
1
 70
1
 40
0.000000
 41
0.000000
 39
0.000000
  0
VERTEX
  8
PIN_BOTTOM
 10
22.829596
 20
82.175401
 40
0.000000
 41
0.000000
 42
0.000000
  0
VERTEX
  8
PIN_BOTTOM
 10
22.829596
 20
82.975399
 40
0.000000
 41
0.000000
 42
-1.000000
  0
VERTEX
  8
PIN_BOTTOM
 10
23.829594
 20
82.975399
 40
0.000000
 41
0.000000
 42
0.000000
  0
VERTEX
  8
PIN_BOTTOM
 10
23.829594
 20
82.175401
 40
0.000000
 41
0.000000
 42
-1.000000
  0
SEQEND
  0
POLYLINE
  8
PIN_BOTTOM
 66
1
 70
1
 40
0.000000
 41
0.000000
 39
0.000000
  0
VERTEX
  8
PIN_BOTTOM
 10
31.469609
 20
82.175401
 40
0.000000
 41
0.000000
 42
0.000000
  0
VERTEX
  8
PIN_BOTTOM
 10
31.469609
 20
82.975399
 40
0.000000
 41
0.000000
 42
-1.000000
  0
VERTEX
  8
PIN_BOTTOM
 10
32.469607
 20
82.975399
 40
0.000000
 41
0.000000
 42
0.000000
  0
VERTEX
  8
PIN_BOTTOM
 10
32.469607
 20
82.175401
 40
0.000000
 41
0.000000
 42
-1.000000
  0
SEQEND
  0
POLYLINE
  8
PIN_BOTTOM
 66
1
 70
1
 40
0.000000
 41
0.000000
 39
0.000000
  0
VERTEX
  8
PIN_BOTTOM
 10
22.829596
 20
77.845399
 40
0.000000
 41
0.000000
 42
0.000000
  0
VERTEX
  8
PIN_BOTTOM
 10
22.829596
 20
78.945397
 40
0.000000
 41
0.000000
 42
-1.000000
  0
VERTEX
  8
PIN_BOTTOM
 10
23.829594
 20
78.945397
 40
0.000000
 41
0.000000
 42
0.000000
  0
VERTEX
  8
PIN_BOTTOM
 10
23.829594
 20
77.845399
 40
0.000000
 41
0.000000
 42
-1.000000
  0
SEQEND
  0
POLYLINE
  8
PIN_BOTTOM
 66
1
 70
1
 40
0.000000
 41
0.000000
 39
0.000000
  0
VERTEX
  8
PIN_BOTTOM
 10
31.469609
 20
77.845399
 40
0.000000
 41
0.000000
 42
0.000000
  0
VERTEX
  8
PIN_BOTTOM
 10
31.469609
 20
78.945397
 40
0.000000
 41
0.000000
 42
-1.000000
  0
VERTEX
  8
PIN_BOTTOM
 10
32.469607
 20
78.945397
 40
0.000000
 41
0.000000
 42
0.000000
  0
VERTEX
  8
PIN_BOTTOM
 10
32.469607
 20
77.845399
 40
0.000000
 41
0.000000
 42
-1.000000
  0
SEQEND
  0
CIRCLE
  8
PIN_BOTTOM
 10
30.539614
 20
78.895397
 40
0.325044
  0
CIRCLE
  8
PIN_BOTTOM
 10
24.759590
 20
78.895397
 40
0.325044
  0
POLYLINE
  8
PIN_BOTTOM
 66
1
 70
1
 40
0.000000
 41
0.000000
 39
0.000000
  0
VERTEX
  8
PIN_BOTTOM
 10
37.278488
 20
62.374297
 40
0.000000
 41
0.000000
 42
0.000000
  0
VERTEX
  8
PIN_BOTTOM
 10
37.278488
 20
62.958497
 40
0.000000
 41
0.000000
 42
1.000000
  0
VERTEX
  8
PIN_BOTTOM
 10
36.999088
 20
62.958497
 40
0.000000
 41
0.000000
 42
0.000000
  0
VERTEX
  8
PIN_BOTTOM
 10
36.999088
 20
62.374297
 40
0.000000
 41
0.000000
 42
1.000000
  0
SEQEND
  0
POLYLINE
  8
PIN_BOTTOM
 66
1
 70
1
 40
0.000000
 41
0.000000
 39
0.000000
  0
VERTEX
  8
PIN_BOTTOM
 10
36.778489
 20
62.374297
 40
0.000000
 41
0.000000
 42
0.000000
  0
VERTEX
  8
PIN_BOTTOM
 10
36.778489
 20
62.958497
 40
0.000000
 41
0.000000
 42
1.000000
  0
VERTEX
  8
PIN_BOTTOM
 10
36.499089
 20
62.958497
 40
0.000000
 41
0.000000
 42
0.000000
  0
VERTEX
  8
PIN_BOTTOM
 10
36.499089
 20
62.374297
 40
0.000000
 41
0.000000
 42
1.000000
  0
SEQEND
  0
POLYLINE
  8
PIN_BOTTOM
 66
1
 70
1
 40
0.000000
 41
0.000000
 39
0.000000
  0
VERTEX
  8
PIN_BOTTOM
 10
36.278490
 20
62.374297
 40
0.000000
 41
0.000000
 42
0.000000
  0
VERTEX
  8
PIN_BOTTOM
 10
36.278490
 20
62.958497
 40
0.000000
 41
0.000000
 42
1.000000
  0
VERTEX
  8
PIN_BOTTOM
 10
35.999090
 20
62.958497
 40
0.000000
 41
0.000000
 42
0.000000
  0
VERTEX
  8
PIN_BOTTOM
 10
35.999090
 20
62.374297
 40
0.000000
 41
0.000000
 42
1.000000
  0
SEQEND
  0
POLYLINE
  8
PIN_BOTTOM
 66
1
 70
1
 40
0.000000
 41
0.000000
 39
0.000000
  0
VERTEX
  8
PIN_BOTTOM
 10
35.745903
 20
62.121110
 40
0.000000
 41
0.000000
 42
0.000000
  0
VERTEX
  8
PIN_BOTTOM
 10
35.161703
 20
62.121110
 40
0.000000
 41
0.000000
 42
1.000000
  0
VERTEX
  8
PIN_BOTTOM
 10
35.161703
 20
61.841710
 40
0.000000
 41
0.000000
 42
0.000000
  0
VERTEX
  8
PIN_BOTTOM
 10
35.745903
 20
61.841710
 40
0.000000
 41
0.000000
 42
1.000000
  0
SEQEND
  0
POLYLINE
  8
PIN_BOTTOM
 66
1
 70
1
 40
0.000000
 41
0.000000
 39
0.000000
  0
VERTEX
  8
PIN_BOTTOM
 10
35.745903
 20
61.621111
 40
0.000000
 41
0.000000
 42
0.000000
  0
VERTEX
  8
PIN_BOTTOM
 10
35.161703
 20
61.621111
 40
0.000000
 41
0.000000
 42
1.000000
  0
VERTEX
  8
PIN_BOTTOM
 10
35.161703
 20
61.341711
 40
0.000000
 41
0.000000
 42
0.000000
  0
VERTEX
  8
PIN_BOTTOM
 10
35.745903
 20
61.341711
 40
0.000000
 41
0.000000
 42
1.000000
  0
SEQEND
  0
POLYLINE
  8
PIN_BOTTOM
 66
1
 70
1
 40
0.000000
 41
0.000000
 39
0.000000
  0
VERTEX
  8
PIN_BOTTOM
 10
35.745903
 20
61.121112
 40
0.000000
 41
0.000000
 42
0.000000
  0
VERTEX
  8
PIN_BOTTOM
 10
35.161703
 20
61.121112
 40
0.000000
 41
0.000000
 42
1.000000
  0
VERTEX
  8
PIN_BOTTOM
 10
35.161703
 20
60.841712
 40
0.000000
 41
0.000000
 42
0.000000
  0
VERTEX
  8
PIN_BOTTOM
 10
35.745903
 20
60.841712
 40
0.000000
 41
0.000000
 42
1.000000
  0
SEQEND
  0
POLYLINE
  8
PIN_BOTTOM
 66
1
 70
1
 40
0.000000
 41
0.000000
 39
0.000000
  0
VERTEX
  8
PIN_BOTTOM
 10
35.745903
 20
60.621088
 40
0.000000
 41
0.000000
 42
0.000000
  0
VERTEX
  8
PIN_BOTTOM
 10
35.161703
 20
60.621088
 40
0.000000
 41
0.000000
 42
1.000000
  0
VERTEX
  8
PIN_BOTTOM
 10
35.161703
 20
60.341688
 40
0.000000
 41
0.000000
 42
0.000000
  0
VERTEX
  8
PIN_BOTTOM
 10
35.745903
 20
60.341688
 40
0.000000
 41
0.000000
 42
1.000000
  0
SEQEND
  0
POLYLINE
  8
PIN_BOTTOM
 66
1
 70
1
 40
0.000000
 41
0.000000
 39
0.000000
  0
VERTEX
  8
PIN_BOTTOM
 10
36.156900
 20
61.963300
 40
0.000000
 41
0.000000
 42
0.000000
  0
VERTEX
  8
PIN_BOTTOM
 10
36.156900
 20
59.499500
 40
0.000000
 41
0.000000
 42
0.000000
  0
VERTEX
  8
PIN_BOTTOM
 10
38.620700
 20
59.499500
 40
0.000000
 41
0.000000
 42
0.000000
  0
VERTEX
  8
PIN_BOTTOM
 10
38.620700
 20
61.963300
 40
0.000000
 41
0.000000
 42
0.000000
  0
SEQEND
  0
POLYLINE
  8
PIN_BOTTOM
 66
1
 70
1
 40
0.000000
 41
0.000000
 39
0.000000
  0
VERTEX
  8
PIN_BOTTOM
 10
36.278490
 20
58.504303
 40
0.000000
 41
0.000000
 42
0.000000
  0
VERTEX
  8
PIN_BOTTOM
 10
36.278490
 20
59.088503
 40
0.000000
 41
0.000000
 42
1.000000
  0
VERTEX
  8
PIN_BOTTOM
 10
35.999090
 20
59.088503
 40
0.000000
 41
0.000000
 42
0.000000
  0
VERTEX
  8
PIN_BOTTOM
 10
35.999090
 20
58.504303
 40
0.000000
 41
0.000000
 42
1.000000
  0
SEQEND
  0
POLYLINE
  8
PIN_BOTTOM
 66
1
 70
1
 40
0.000000
 41
0.000000
 39
0.000000
  0
VERTEX
  8
PIN_BOTTOM
 10
36.778489
 20
58.504303
 40
0.000000
 41
0.000000
 42
0.000000
  0
VERTEX
  8
PIN_BOTTOM
 10
36.778489
 20
59.088503
 40
0.000000
 41
0.000000
 42
1.000000
  0
VERTEX
  8
PIN_BOTTOM
 10
36.499089
 20
59.088503
 40
0.000000
 41
0.000000
 42
0.000000
  0
VERTEX
  8
PIN_BOTTOM
 10
36.499089
 20
58.504303
 40
0.000000
 41
0.000000
 42
1.000000
  0
SEQEND
  0
POLYLINE
  8
PIN_BOTTOM
 66
1
 70
1
 40
0.000000
 41
0.000000
 39
0.000000
  0
VERTEX
  8
PIN_BOTTOM
 10
37.278488
 20
58.504303
 40
0.000000
 41
0.000000
 42
0.000000
  0
VERTEX
  8
PIN_BOTTOM
 10
37.278488
 20
59.088503
 40
0.000000
 41
0.000000
 42
1.000000
  0
VERTEX
  8
PIN_BOTTOM
 10
36.999088
 20
59.088503
 40
0.000000
 41
0.000000
 42
0.000000
  0
VERTEX
  8
PIN_BOTTOM
 10
36.999088
 20
58.504303
 40
0.000000
 41
0.000000
 42
1.000000
  0
SEQEND
  0
POLYLINE
  8
PIN_BOTTOM
 66
1
 70
1
 40
0.000000
 41
0.000000
 39
0.000000
  0
VERTEX
  8
PIN_BOTTOM
 10
37.778512
 20
58.504303
 40
0.000000
 41
0.000000
 42
0.000000
  0
VERTEX
  8
PIN_BOTTOM
 10
37.778512
 20
59.088503
 40
0.000000
 41
0.000000
 42
1.000000
  0
VERTEX
  8
PIN_BOTTOM
 10
37.499112
 20
59.088503
 40
0.000000
 41
0.000000
 42
0.000000
  0
VERTEX
  8
PIN_BOTTOM
 10
37.499112
 20
58.504303
 40
0.000000
 41
0.000000
 42
1.000000
  0
SEQEND
  0
POLYLINE
  8
PIN_BOTTOM
 66
1
 70
1
 40
0.000000
 41
0.000000
 39
0.000000
  0
VERTEX
  8
PIN_BOTTOM
 10
38.278511
 20
58.504303
 40
0.000000
 41
0.000000
 42
0.000000
  0
VERTEX
  8
PIN_BOTTOM
 10
38.278511
 20
59.088503
 40
0.000000
 41
0.000000
 42
1.000000
  0
VERTEX
  8
PIN_BOTTOM
 10
37.999111
 20
59.088503
 40
0.000000
 41
0.000000
 42
0.000000
  0
VERTEX
  8
PIN_BOTTOM
 10
37.999111
 20
58.504303
 40
0.000000
 41
0.000000
 42
1.000000
  0
SEQEND
  0
POLYLINE
  8
PIN_BOTTOM
 66
1
 70
1
 40
0.000000
 41
0.000000
 39
0.000000
  0
VERTEX
  8
PIN_BOTTOM
 10
35.745903
 20
60.121089
 40
0.000000
 41
0.000000
 42
0.000000
  0
VERTEX
  8
PIN_BOTTOM
 10
35.161703
 20
60.121089
 40
0.000000
 41
0.000000
 42
1.000000
  0
VERTEX
  8
PIN_BOTTOM
 10
35.161703
 20
59.841689
 40
0.000000
 41
0.000000
 42
0.000000
  0
VERTEX
  8
PIN_BOTTOM
 10
35.745903
 20
59.841689
 40
0.000000
 41
0.000000
 42
1.000000
  0
SEQEND
  0
POLYLINE
  8
PIN_BOTTOM
 66
1
 70
1
 40
0.000000
 41
0.000000
 39
0.000000
  0
VERTEX
  8
PIN_BOTTOM
 10
38.778510
 20
58.504303
 40
0.000000
 41
0.000000
 42
0.000000
  0
VERTEX
  8
PIN_BOTTOM
 10
38.778510
 20
59.088503
 40
0.000000
 41
0.000000
 42
1.000000
  0
VERTEX
  8
PIN_BOTTOM
 10
38.499110
 20
59.088503
 40
0.000000
 41
0.000000
 42
0.000000
  0
VERTEX
  8
PIN_BOTTOM
 10
38.499110
 20
58.504303
 40
0.000000
 41
0.000000
 42
1.000000
  0
SEQEND
  0
POLYLINE
  8
PIN_BOTTOM
 66
1
 70
1
 40
0.000000
 41
0.000000
 39
0.000000
  0
VERTEX
  8
PIN_BOTTOM
 10
39.615897
 20
59.621090
 40
0.000000
 41
0.000000
 42
0.000000
  0
VERTEX
  8
PIN_BOTTOM
 10
39.031697
 20
59.621090
 40
0.000000
 41
0.000000
 42
1.000000
  0
VERTEX
  8
PIN_BOTTOM
 10
39.031697
 20
59.341690
 40
0.000000
 41
0.000000
 42
0.000000
  0
VERTEX
  8
PIN_BOTTOM
 10
39.615897
 20
59.341690
 40
0.000000
 41
0.000000
 42
1.000000
  0
SEQEND
  0
POLYLINE
  8
PIN_BOTTOM
 66
1
 70
1
 40
0.000000
 41
0.000000
 39
0.000000
  0
VERTEX
  8
PIN_BOTTOM
 10
39.615897
 20
60.121089
 40
0.000000
 41
0.000000
 42
0.000000
  0
VERTEX
  8
PIN_BOTTOM
 10
39.031697
 20
60.121089
 40
0.000000
 41
0.000000
 42
1.000000
  0
VERTEX
  8
PIN_BOTTOM
 10
39.031697
 20
59.841689
 40
0.000000
 41
0.000000
 42
0.000000
  0
VERTEX
  8
PIN_BOTTOM
 10
39.615897
 20
59.841689
 40
0.000000
 41
0.000000
 42
1.000000
  0
SEQEND
  0
POLYLINE
  8
PIN_BOTTOM
 66
1
 70
1
 40
0.000000
 41
0.000000
 39
0.000000
  0
VERTEX
  8
PIN_BOTTOM
 10
39.615897
 20
60.621088
 40
0.000000
 41
0.000000
 42
0.000000
  0
VERTEX
  8
PIN_BOTTOM
 10
39.031697
 20
60.621088
 40
0.000000
 41
0.000000
 42
1.000000
  0
VERTEX
  8
PIN_BOTTOM
 10
39.031697
 20
60.341688
 40
0.000000
 41
0.000000
 42
0.000000
  0
VERTEX
  8
PIN_BOTTOM
 10
39.615897
 20
60.341688
 40
0.000000
 41
0.000000
 42
1.000000
  0
SEQEND
  0
POLYLINE
  8
PIN_BOTTOM
 66
1
 70
1
 40
0.000000
 41
0.000000
 39
0.000000
  0
VERTEX
  8
PIN_BOTTOM
 10
39.615897
 20
61.121112
 40
0.000000
 41
0.000000
 42
0.000000
  0
VERTEX
  8
PIN_BOTTOM
 10
39.031697
 20
61.121112
 40
0.000000
 41
0.000000
 42
1.000000
  0
VERTEX
  8
PIN_BOTTOM
 10
39.031697
 20
60.841712
 40
0.000000
 41
0.000000
 42
0.000000
  0
VERTEX
  8
PIN_BOTTOM
 10
39.615897
 20
60.841712
 40
0.000000
 41
0.000000
 42
1.000000
  0
SEQEND
  0
POLYLINE
  8
PIN_BOTTOM
 66
1
 70
1
 40
0.000000
 41
0.000000
 39
0.000000
  0
VERTEX
  8
PIN_BOTTOM
 10
39.615897
 20
61.621111
 40
0.000000
 41
0.000000
 42
0.000000
  0
VERTEX
  8
PIN_BOTTOM
 10
39.031697
 20
61.621111
 40
0.000000
 41
0.000000
 42
1.000000
  0
VERTEX
  8
PIN_BOTTOM
 10
39.031697
 20
61.341711
 40
0.000000
 41
0.000000
 42
0.000000
  0
VERTEX
  8
PIN_BOTTOM
 10
39.615897
 20
61.341711
 40
0.000000
 41
0.000000
 42
1.000000
  0
SEQEND
  0
POLYLINE
  8
PIN_BOTTOM
 66
1
 70
1
 40
0.000000
 41
0.000000
 39
0.000000
  0
VERTEX
  8
PIN_BOTTOM
 10
39.615897
 20
62.121110
 40
0.000000
 41
0.000000
 42
0.000000
  0
VERTEX
  8
PIN_BOTTOM
 10
39.031697
 20
62.121110
 40
0.000000
 41
0.000000
 42
1.000000
  0
VERTEX
  8
PIN_BOTTOM
 10
39.031697
 20
61.841710
 40
0.000000
 41
0.000000
 42
0.000000
  0
VERTEX
  8
PIN_BOTTOM
 10
39.615897
 20
61.841710
 40
0.000000
 41
0.000000
 42
1.000000
  0
SEQEND
  0
POLYLINE
  8
PIN_BOTTOM
 66
1
 70
1
 40
0.000000
 41
0.000000
 39
0.000000
  0
VERTEX
  8
PIN_BOTTOM
 10
38.778510
 20
62.374297
 40
0.000000
 41
0.000000
 42
0.000000
  0
VERTEX
  8
PIN_BOTTOM
 10
38.778510
 20
62.958497
 40
0.000000
 41
0.000000
 42
1.000000
  0
VERTEX
  8
PIN_BOTTOM
 10
38.499110
 20
62.958497
 40
0.000000
 41
0.000000
 42
0.000000
  0
VERTEX
  8
PIN_BOTTOM
 10
38.499110
 20
62.374297
 40
0.000000
 41
0.000000
 42
1.000000
  0
SEQEND
  0
POLYLINE
  8
PIN_BOTTOM
 66
1
 70
1
 40
0.000000
 41
0.000000
 39
0.000000
  0
VERTEX
  8
PIN_BOTTOM
 10
38.278511
 20
62.374297
 40
0.000000
 41
0.000000
 42
0.000000
  0
VERTEX
  8
PIN_BOTTOM
 10
38.278511
 20
62.958497
 40
0.000000
 41
0.000000
 42
1.000000
  0
VERTEX
  8
PIN_BOTTOM
 10
37.999111
 20
62.958497
 40
0.000000
 41
0.000000
 42
0.000000
  0
VERTEX
  8
PIN_BOTTOM
 10
37.999111
 20
62.374297
 40
0.000000
 41
0.000000
 42
1.000000
  0
SEQEND
  0
POLYLINE
  8
PIN_BOTTOM
 66
1
 70
1
 40
0.000000
 41
0.000000
 39
0.000000
  0
VERTEX
  8
PIN_BOTTOM
 10
37.778512
 20
62.374297
 40
0.000000
 41
0.000000
 42
0.000000
  0
VERTEX
  8
PIN_BOTTOM
 10
37.778512
 20
62.958497
 40
0.000000
 41
0.000000
 42
1.000000
  0
VERTEX
  8
PIN_BOTTOM
 10
37.499112
 20
62.958497
 40
0.000000
 41
0.000000
 42
0.000000
  0
VERTEX
  8
PIN_BOTTOM
 10
37.499112
 20
62.374297
 40
0.000000
 41
0.000000
 42
1.000000
  0
SEQEND
  0
POLYLINE
  8
PIN_BOTTOM
 66
1
 70
1
 40
0.000000
 41
0.000000
 39
0.000000
  0
VERTEX
  8
PIN_BOTTOM
 10
35.745903
 20
59.621090
 40
0.000000
 41
0.000000
 42
0.000000
  0
VERTEX
  8
PIN_BOTTOM
 10
35.161703
 20
59.621090
 40
0.000000
 41
0.000000
 42
1.000000
  0
VERTEX
  8
PIN_BOTTOM
 10
35.161703
 20
59.341690
 40
0.000000
 41
0.000000
 42
0.000000
  0
VERTEX
  8
PIN_BOTTOM
 10
35.745903
 20
59.341690
 40
0.000000
 41
0.000000
 42
1.000000
  0
SEQEND
  0
POLYLINE
  8
PG_ASSEMBLY_BOTTOM
 66
1
 70
0
 40
0.000000
 41
0.000000
 39
0.000000
  0
VERTEX
  8
PG_ASSEMBLY_BOTTOM
 10
35.388804
 20
58.731404
 40
0.127000
 41
0.127000
 42
0.000000
  0
VERTEX
  8
PG_ASSEMBLY_BOTTOM
 10
39.388796
 20
58.731404
 40
0.127000
 41
0.127000
 42
0.000000
  0
VERTEX
  8
PG_ASSEMBLY_BOTTOM
 10
39.388796
 20
62.731396
 40
0.127000
 41
0.127000
 42
0.000000
  0
VERTEX
  8
PG_ASSEMBLY_BOTTOM
 10
35.388804
 20
62.731396
 40
0.127000
 41
0.127000
 42
0.000000
  0
VERTEX
  8
PG_ASSEMBLY_BOTTOM
 10
35.388804
 20
58.731404
 40
0.127000
 41
0.127000
 42
0.000000
  0
SEQEND
  0
POLYLINE
  8
PG_ASSEMBLY_BOTTOM
 66
1
 70
1
 40
0.000000
 41
0.000000
 39
0.000000
  0
VERTEX
  8
PG_ASSEMBLY_BOTTOM
 10
34.446007
 20
59.461400
 40
0.000000
 41
0.000000
 42
1.000000
  0
VERTEX
  8
PG_ASSEMBLY_BOTTOM
 10
33.727593
 20
59.461400
 40
0.000000
 41
0.000000
 42
1.000000
  0
SEQEND
  0
TEXT
  8
RD_SILKSCREEN_BOTTOM
 10
35.141992
 20
57.531000
 11
0.000000
 21
0.000000
 40
1.016000
 41
0.927175
 50
0.000000
  7
STANDARD
 71
2
 72
0
  1
U2
 73
0
  0
CIRCLE
  8
PIN_BOTTOM
 10
8.432800
 20
37.923394
 40
0.703999
  0
CIRCLE
  8
PIN_BOTTOM
 10
8.432800
 20
44.423406
 40
0.703999
  0
POLYLINE
  8
PIN_BOTTOM
 66
1
 70
1
 40
0.000000
 41
0.000000
 39
0.000000
  0
VERTEX
  8
PIN_BOTTOM
 10
13.566089
 20
35.598100
 40
0.000000
 41
0.000000
 42
0.000000
  0
VERTEX
  8
PIN_BOTTOM
 10
13.566089
 20
34.099500
 40
0.000000
 41
0.000000
 42
0.000000
  0
VERTEX
  8
PIN_BOTTOM
 10
14.861489
 20
34.099500
 40
0.000000
 41
0.000000
 42
0.000000
  0
VERTEX
  8
PIN_BOTTOM
 10
14.861489
 20
35.598100
 40
0.000000
 41
0.000000
 42
0.000000
  0
SEQEND
  0
POLYLINE
  8
PIN_BOTTOM
 66
1
 70
1
 40
0.000000
 41
0.000000
 39
0.000000
  0
VERTEX
  8
PIN_BOTTOM
 10
15.466111
 20
35.598100
 40
0.000000
 41
0.000000
 42
0.000000
  0
VERTEX
  8
PIN_BOTTOM
 10
15.466111
 20
34.099500
 40
0.000000
 41
0.000000
 42
0.000000
  0
VERTEX
  8
PIN_BOTTOM
 10
16.761511
 20
34.099500
 40
0.000000
 41
0.000000
 42
0.000000
  0
VERTEX
  8
PIN_BOTTOM
 10
16.761511
 20
35.598100
 40
0.000000
 41
0.000000
 42
0.000000
  0
SEQEND
  0
POLYLINE
  8
PG_ASSEMBLY_BOTTOM
 66
1
 70
0
 40
0.000000
 41
0.000000
 39
0.000000
  0
VERTEX
  8
PG_ASSEMBLY_BOTTOM
 10
14.163802
 20
35.448799
 40
0.180010
 41
0.180010
 42
0.000000
  0
VERTEX
  8
PG_ASSEMBLY_BOTTOM
 10
16.163798
 20
35.448799
 40
0.180010
 41
0.180010
 42
0.000000
  0
VERTEX
  8
PG_ASSEMBLY_BOTTOM
 10
16.163798
 20
34.248801
 40
0.180010
 41
0.180010
 42
0.000000
  0
VERTEX
  8
PG_ASSEMBLY_BOTTOM
 10
14.163802
 20
34.248801
 40
0.180010
 41
0.180010
 42
0.000000
  0
VERTEX
  8
PG_ASSEMBLY_BOTTOM
 10
14.163802
 20
35.448799
 40
0.180010
 41
0.180010
 42
0.000000
  0
SEQEND
  0
TEXT
  8
RD_SILKSCREEN_BOTTOM
 10
16.563010
 20
32.385000
 11
0.000000
 21
0.000000
 40
1.016000
 41
0.927175
 50
0.000000
  7
STANDARD
 71
2
 72
0
  1
FB1
 73
0
  0
POLYLINE
  8
PIN_BOTTOM
 66
1
 70
1
 40
0.000000
 41
0.000000
 39
0.000000
  0
VERTEX
  8
PIN_BOTTOM
 10
19.792010
 20
49.624996
 40
0.000000
 41
0.000000
 42
0.000000
  0
VERTEX
  8
PIN_BOTTOM
 10
21.316010
 20
49.624996
 40
0.000000
 41
0.000000
 42
0.000000
  0
VERTEX
  8
PIN_BOTTOM
 10
21.316010
 20
51.148996
 40
0.000000
 41
0.000000
 42
0.000000
  0
VERTEX
  8
PIN_BOTTOM
 10
19.792010
 20
51.148996
 40
0.000000
 41
0.000000
 42
0.000000
  0
SEQEND
  0
POLYLINE
  8
PIN_BOTTOM
 66
1
 70
1
 40
0.000000
 41
0.000000
 39
0.000000
  0
VERTEX
  8
PIN_BOTTOM
 10
4.322013
 20
71.495006
 40
0.000000
 41
0.000000
 42
0.000000
  0
VERTEX
  8
PIN_BOTTOM
 10
5.846013
 20
71.495006
 40
0.000000
 41
0.000000
 42
0.000000
  0
VERTEX
  8
PIN_BOTTOM
 10
5.846013
 20
73.019006
 40
0.000000
 41
0.000000
 42
0.000000
  0
VERTEX
  8
PIN_BOTTOM
 10
4.322013
 20
73.019006
 40
0.000000
 41
0.000000
 42
0.000000
  0
SEQEND
  0
CIRCLE
  8
PIN_BOTTOM
 10
17.954015
 20
50.386996
 40
0.762000
  0
CIRCLE
  8
PIN_BOTTOM
 10
15.424023
 20
50.386996
 40
0.762000
  0
CIRCLE
  8
PIN_BOTTOM
 10
12.864008
 20
50.386996
 40
0.762000
  0
CIRCLE
  8
PIN_BOTTOM
 10
10.324008
 20
50.386996
 40
0.762000
  0
CIRCLE
  8
PIN_BOTTOM
 10
7.724013
 20
50.386996
 40
0.762000
  0
CIRCLE
  8
PIN_BOTTOM
 10
7.684008
 20
72.257006
 40
0.762000
  0
CIRCLE
  8
PIN_BOTTOM
 10
10.224008
 20
72.257006
 40
0.762000
  0
CIRCLE
  8
PIN_BOTTOM
 10
12.824003
 20
72.257006
 40
0.762000
  0
CIRCLE
  8
PIN_BOTTOM
 10
15.384018
 20
72.257006
 40
0.762000
  0
CIRCLE
  8
PIN_BOTTOM
 10
17.984013
 20
72.257006
 40
0.762000
  0
POLYLINE
  8
PG_ASSEMBLY_BOTTOM
 66
1
 70
0
 40
0.000000
 41
0.000000
 39
0.000000
  0
VERTEX
  8
PG_ASSEMBLY_BOTTOM
 10
23.184002
 20
48.587000
 40
0.180010
 41
0.180010
 42
0.000000
  0
VERTEX
  8
PG_ASSEMBLY_BOTTOM
 10
23.184002
 20
73.587000
 40
0.180010
 41
0.180010
 42
0.000000
  0
VERTEX
  8
PG_ASSEMBLY_BOTTOM
 10
0.184023
 20
73.587000
 40
0.180010
 41
0.180010
 42
0.000000
  0
VERTEX
  8
PG_ASSEMBLY_BOTTOM
 10
0.184023
 20
48.587000
 40
0.180010
 41
0.180010
 42
0.000000
  0
VERTEX
  8
PG_ASSEMBLY_BOTTOM
 10
23.184002
 20
48.587000
 40
0.180010
 41
0.180010
 42
0.000000
  0
SEQEND
  0
TEXT
  8
PG_ASSEMBLY_BOTTOM
 10
18.542000
 20
74.549000
 11
0.000000
 21
0.000000
 40
1.016000
 41
0.927175
 50
0.000000
  7
STANDARD
 71
2
 72
0
  1
6
 73
0
  0
TEXT
  8
PG_ASSEMBLY_BOTTOM
 10
5.461000
 20
74.422000
 11
0.000000
 21
0.000000
 40
1.016000
 41
0.927175
 50
0.000000
  7
STANDARD
 71
2
 72
0
  1
1
 73
0
  0
TEXT
  8
PG_ASSEMBLY_BOTTOM
 10
20.955000
 20
46.863000
 11
0.000000
 21
0.000000
 40
1.016000
 41
0.927175
 50
0.000000
  7
STANDARD
 71
2
 72
0
  1
7
 73
0
  0
TEXT
  8
PG_ASSEMBLY_BOTTOM
 10
8.090992
 20
46.863000
 11
0.000000
 21
0.000000
 40
1.016000
 41
0.927175
 50
0.000000
  7
STANDARD
 71
2
 72
0
  1
12
 73
0
  0
TEXT
  8
RD_SILKSCREEN_BOTTOM
 10
13.425018
 20
46.736000
 11
0.000000
 21
0.000000
 40
1.016000
 41
0.927175
 50
0.000000
  7
STANDARD
 71
2
 72
0
  1
U7
 73
0
  0
CIRCLE
  8
PIN_BOTTOM
 10
25.906984
 20
5.607050
 40
0.825005
  0
CIRCLE
  8
PIN_BOTTOM
 10
23.366984
 20
5.607050
 40
0.825005
  0
CIRCLE
  8
PIN_BOTTOM
 10
20.826984
 20
5.607050
 40
0.825005
  0
CIRCLE
  8
PIN_BOTTOM
 10
18.286984
 20
5.607050
 40
0.825005
  0
CIRCLE
  8
PIN_BOTTOM
 10
15.746984
 20
5.607050
 40
0.825005
  0
POLYLINE
  8
PIN_BOTTOM
 66
1
 70
1
 40
0.000000
 41
0.000000
 39
0.000000
  0
VERTEX
  8
PIN_BOTTOM
 10
12.381967
 20
4.782033
 40
0.000000
 41
0.000000
 42
0.000000
  0
VERTEX
  8
PIN_BOTTOM
 10
12.381967
 20
6.432042
 40
0.000000
 41
0.000000
 42
0.000000
  0
VERTEX
  8
PIN_BOTTOM
 10
14.031976
 20
6.432042
 40
0.000000
 41
0.000000
 42
0.000000
  0
VERTEX
  8
PIN_BOTTOM
 10
14.031976
 20
4.782033
 40
0.000000
 41
0.000000
 42
0.000000
  0
SEQEND
  0
CIRCLE
  8
PIN_BOTTOM
 10
22.457588
 20
11.416208
 40
1.649997
  0
CIRCLE
  8
PIN_BOTTOM
 10
22.457588
 20
29.416197
 40
1.649997
  0
CIRCLE
  8
PIN_BOTTOM
 10
3.657600
 20
26.746200
 40
0.832498
  0
CIRCLE
  8
PIN_BOTTOM
 10
3.657600
 20
24.206200
 40
0.832498
  0
CIRCLE
  8
PIN_BOTTOM
 10
3.657600
 20
21.666200
 40
0.832498
  0
CIRCLE
  8
PIN_BOTTOM
 10
3.657600
 20
19.126200
 40
0.832498
  0
CIRCLE
  8
PIN_BOTTOM
 10
3.657600
 20
16.586200
 40
0.832498
  0
POLYLINE
  8
PIN_BOTTOM
 66
1
 70
1
 40
0.000000
 41
0.000000
 39
0.000000
  0
VERTEX
  8
PIN_BOTTOM
 10
2.825102
 20
14.878698
 40
0.000000
 41
0.000000
 42
0.000000
  0
VERTEX
  8
PIN_BOTTOM
 10
2.825102
 20
13.213702
 40
0.000000
 41
0.000000
 42
0.000000
  0
VERTEX
  8
PIN_BOTTOM
 10
4.490098
 20
13.213702
 40
0.000000
 41
0.000000
 42
0.000000
  0
VERTEX
  8
PIN_BOTTOM
 10
4.490098
 20
14.878698
 40
0.000000
 41
0.000000
 42
0.000000
  0
SEQEND
  0
POLYLINE
  8
PG_ASSEMBLY_BOTTOM
 66
1
 70
0
 40
0.000000
 41
0.000000
 39
0.000000
  0
VERTEX
  8
PG_ASSEMBLY_BOTTOM
 10
2.457602
 20
9.416212
 40
0.100000
 41
0.100000
 42
0.000000
  0
VERTEX
  8
PG_ASSEMBLY_BOTTOM
 10
2.457602
 20
31.416193
 40
0.100000
 41
0.100000
 42
0.000000
  0
SEQEND
  0
POLYLINE
  8
PG_ASSEMBLY_BOTTOM
 66
1
 70
0
 40
0.000000
 41
0.000000
 39
0.000000
  0
VERTEX
  8
PG_ASSEMBLY_BOTTOM
 10
24.457609
 20
9.416212
 40
0.100000
 41
0.100000
 42
0.000000
  0
VERTEX
  8
PG_ASSEMBLY_BOTTOM
 10
2.457602
 20
9.416212
 40
0.100000
 41
0.100000
 42
0.000000
  0
SEQEND
  0
POLYLINE
  8
PG_ASSEMBLY_BOTTOM
 66
1
 70
0
 40
0.000000
 41
0.000000
 39
0.000000
  0
VERTEX
  8
PG_ASSEMBLY_BOTTOM
 10
24.457609
 20
31.416193
 40
0.100000
 41
0.100000
 42
0.000000
  0
VERTEX
  8
PG_ASSEMBLY_BOTTOM
 10
24.457609
 20
9.416212
 40
0.100000
 41
0.100000
 42
0.000000
  0
SEQEND
  0
POLYLINE
  8
PG_ASSEMBLY_BOTTOM
 66
1
 70
0
 40
0.000000
 41
0.000000
 39
0.000000
  0
VERTEX
  8
PG_ASSEMBLY_BOTTOM
 10
2.457602
 20
31.416193
 40
0.100000
 41
0.100000
 42
0.000000
  0
VERTEX
  8
PG_ASSEMBLY_BOTTOM
 10
24.457609
 20
31.416193
 40
0.100000
 41
0.100000
 42
0.000000
  0
SEQEND
  0
POLYLINE
  8
PG_ASSEMBLY_BOTTOM
 66
1
 70
1
 40
0.000000
 41
0.000000
 39
0.000000
  0
VERTEX
  8
PG_ASSEMBLY_BOTTOM
 10
2.163572
 20
14.046200
 40
0.000000
 41
0.000000
 42
1.000000
  0
VERTEX
  8
PG_ASSEMBLY_BOTTOM
 10
1.595628
 20
14.046200
 40
0.000000
 41
0.000000
 42
1.000000
  0
SEQEND
  0
TEXT
  8
RD_SILKSCREEN_BOTTOM
 10
13.896010
 20
7.874000
 11
0.000000
 21
0.000000
 40
1.016000
 41
0.927175
 50
0.000000
  7
STANDARD
 71
2
 72
0
  1
U15
 73
0
  0
CIRCLE
  8
PIN_BOTTOM
 10
49.337519
 20
20.345095
 40
0.877494
  0
CIRCLE
  8
PIN_BOTTOM
 10
49.337519
 20
17.805095
 40
0.877494
  0
CIRCLE
  8
PIN_BOTTOM
 10
49.337519
 20
15.265095
 40
0.877494
  0
CIRCLE
  8
PIN_BOTTOM
 10
49.337519
 20
12.725095
 40
0.877494
  0
CIRCLE
  8
PIN_BOTTOM
 10
51.877519
 20
12.725095
 40
0.877494
  0
CIRCLE
  8
PIN_BOTTOM
 10
51.877519
 20
15.265095
 40
0.877494
  0
CIRCLE
  8
PIN_BOTTOM
 10
51.877519
 20
17.805095
 40
0.877494
  0
POLYLINE
  8
PIN_BOTTOM
 66
1
 70
1
 40
0.000000
 41
0.000000
 39
0.000000
  0
VERTEX
  8
PIN_BOTTOM
 10
52.755013
 20
21.222589
 40
0.000000
 41
0.000000
 42
0.000000
  0
VERTEX
  8
PIN_BOTTOM
 10
51.000025
 20
21.222589
 40
0.000000
 41
0.000000
 42
0.000000
  0
VERTEX
  8
PIN_BOTTOM
 10
51.000025
 20
19.467601
 40
0.000000
 41
0.000000
 42
0.000000
  0
VERTEX
  8
PIN_BOTTOM
 10
52.755013
 20
19.467601
 40
0.000000
 41
0.000000
 42
0.000000
  0
SEQEND
  0
POLYLINE
  8
PG_ASSEMBLY_BOTTOM
 66
1
 70
0
 40
0.000000
 41
0.000000
 39
0.000000
  0
VERTEX
  8
PG_ASSEMBLY_BOTTOM
 10
51.877519
 20
22.630105
 40
0.200000
 41
0.200000
 42
0.000000
  0
VERTEX
  8
PG_ASSEMBLY_BOTTOM
 10
59.997518
 20
22.630105
 40
0.200000
 41
0.200000
 42
0.000000
  0
SEQEND
  0
POLYLINE
  8
PG_ASSEMBLY_BOTTOM
 66
1
 70
0
 40
0.000000
 41
0.000000
 39
0.000000
  0
VERTEX
  8
PG_ASSEMBLY_BOTTOM
 10
51.877519
 20
10.440086
 40
0.200000
 41
0.200000
 42
0.000000
  0
VERTEX
  8
PG_ASSEMBLY_BOTTOM
 10
51.877519
 20
22.630105
 40
0.200000
 41
0.200000
 42
0.000000
  0
SEQEND
  0
POLYLINE
  8
PG_ASSEMBLY_BOTTOM
 66
1
 70
0
 40
0.000000
 41
0.000000
 39
0.000000
  0
VERTEX
  8
PG_ASSEMBLY_BOTTOM
 10
59.997518
 20
10.440086
 40
0.200000
 41
0.200000
 42
0.000000
  0
VERTEX
  8
PG_ASSEMBLY_BOTTOM
 10
51.877519
 20
10.440086
 40
0.200000
 41
0.200000
 42
0.000000
  0
SEQEND
  0
POLYLINE
  8
PG_ASSEMBLY_BOTTOM
 66
1
 70
0
 40
0.000000
 41
0.000000
 39
0.000000
  0
VERTEX
  8
PG_ASSEMBLY_BOTTOM
 10
59.997518
 20
22.630105
 40
0.200000
 41
0.200000
 42
0.000000
  0
VERTEX
  8
PG_ASSEMBLY_BOTTOM
 10
59.997518
 20
10.440086
 40
0.200000
 41
0.200000
 42
0.000000
  0
SEQEND
  0
POLYLINE
  8
PG_ASSEMBLY_BOTTOM
 66
1
 70
1
 40
0.000000
 41
0.000000
 39
0.000000
  0
VERTEX
  8
PG_ASSEMBLY_BOTTOM
 10
52.258519
 20
23.799495
 40
0.000000
 41
0.000000
 42
1.000000
  0
VERTEX
  8
PG_ASSEMBLY_BOTTOM
 10
51.242519
 20
23.799495
 40
0.000000
 41
0.000000
 42
1.000000
  0
SEQEND
  0
TEXT
  8
RD_SILKSCREEN_BOTTOM
 10
56.695010
 20
23.368000
 11
0.000000
 21
0.000000
 40
1.016000
 41
0.927175
 50
0.000000
  7
STANDARD
 71
2
 72
0
  1
SW9
 73
0
  0
CIRCLE
  8
PIN_BOTTOM
 10
37.795200
 20
43.992800
 40
0.595998
  0
CIRCLE
  8
PIN_BOTTOM
 10
35.255200
 20
46.532800
 40
0.595998
  0
POLYLINE
  8
PIN_BOTTOM
 66
1
 70
1
 40
0.000000
 41
0.000000
 39
0.000000
  0
VERTEX
  8
PIN_BOTTOM
 10
33.311211
 20
43.396789
 40
0.000000
 41
0.000000
 42
0.000000
  0
VERTEX
  8
PIN_BOTTOM
 10
33.311211
 20
44.588786
 40
0.000000
 41
0.000000
 42
0.000000
  0
VERTEX
  8
PIN_BOTTOM
 10
32.119214
 20
44.588786
 40
0.000000
 41
0.000000
 42
0.000000
  0
VERTEX
  8
PIN_BOTTOM
 10
32.119214
 20
43.396789
 40
0.000000
 41
0.000000
 42
0.000000
  0
SEQEND
  0
POLYLINE
  8
PG_ASSEMBLY_BOTTOM
 66
1
 70
0
 40
0.000000
 41
0.000000
 39
0.000000
  0
VERTEX
  8
PG_ASSEMBLY_BOTTOM
 10
29.755211
 20
43.992800
 40
0.100000
 41
0.100000
 42
-1.000000
  0
VERTEX
  8
PG_ASSEMBLY_BOTTOM
 10
40.755189
 20
43.992800
 40
0.100000
 41
0.100000
 42
0.000000
  0
SEQEND
  0
POLYLINE
  8
PG_ASSEMBLY_BOTTOM
 66
1
 70
0
 40
0.000000
 41
0.000000
 39
0.000000
  0
VERTEX
  8
PG_ASSEMBLY_BOTTOM
 10
40.755189
 20
43.992800
 40
0.100000
 41
0.100000
 42
-1.000000
  0
VERTEX
  8
PG_ASSEMBLY_BOTTOM
 10
29.755211
 20
43.992800
 40
0.100000
 41
0.100000
 42
0.000000
  0
SEQEND
  0
POLYLINE
  8
PG_ASSEMBLY_BOTTOM
 66
1
 70
1
 40
0.000000
 41
0.000000
 39
0.000000
  0
VERTEX
  8
PG_ASSEMBLY_BOTTOM
 10
28.524200
 20
43.865800
 40
0.000000
 41
0.000000
 42
1.000000
  0
VERTEX
  8
PG_ASSEMBLY_BOTTOM
 10
27.508200
 20
43.865800
 40
0.000000
 41
0.000000
 42
1.000000
  0
SEQEND
  0
TEXT
  8
RD_SILKSCREEN_BOTTOM
 10
36.629010
 20
36.830000
 11
0.000000
 21
0.000000
 40
1.016000
 41
0.927175
 50
0.000000
  7
STANDARD
 71
2
 72
0
  1
U16
 73
0
  0
CIRCLE
  8
PIN_BOTTOM
 10
4.064000
 20
81.095850
 40
3.500006
  0
CIRCLE
  8
PIN_BOTTOM
 10
55.934178
 20
4.064000
 40
3.500006
  0
CIRCLE
  8
PIN_BOTTOM
 10
55.934178
 20
81.095850
 40
3.500006
  0
CIRCLE
  8
PIN_BOTTOM
 10
4.064000
 20
4.064000
 40
3.500006
  0
POLYLINE
  8
PIN_BOTTOM
 66
1
 70
1
 40
0.000000
 41
0.000000
 39
0.000000
  0
VERTEX
  8
PIN_BOTTOM
 10
49.774500
 20
65.141500
 40
0.000000
 41
0.000000
 42
0.000000
  0
VERTEX
  8
PIN_BOTTOM
 10
46.999500
 20
65.141500
 40
0.000000
 41
0.000000
 42
0.000000
  0
VERTEX
  8
PIN_BOTTOM
 10
46.999500
 20
62.366500
 40
0.000000
 41
0.000000
 42
0.000000
  0
VERTEX
  8
PIN_BOTTOM
 10
49.774500
 20
62.366500
 40
0.000000
 41
0.000000
 42
0.000000
  0
SEQEND
  0
CIRCLE
  8
PIN_BOTTOM
 10
48.387000
 20
68.453991
 40
1.387500
  0
CIRCLE
  8
PIN_BOTTOM
 10
48.387000
 20
73.154007
 40
1.387500
  0
CIRCLE
  8
PIN_BOTTOM
 10
57.917004
 20
61.849000
 40
1.387500
  0
CIRCLE
  8
PIN_BOTTOM
 10
57.917004
 20
75.059007
 40
1.387500
  0
POLYLINE
  8
PG_ASSEMBLY_BOTTOM
 66
1
 70
0
 40
0.000000
 41
0.000000
 39
0.000000
  0
VERTEX
  8
PG_ASSEMBLY_BOTTOM
 10
50.827000
 20
74.908994
 40
0.100000
 41
0.100000
 42
0.000000
  0
VERTEX
  8
PG_ASSEMBLY_BOTTOM
 10
50.827000
 20
61.999012
 40
0.100000
 41
0.100000
 42
0.000000
  0
SEQEND
  0
POLYLINE
  8
PG_ASSEMBLY_BOTTOM
 66
1
 70
0
 40
0.000000
 41
0.000000
 39
0.000000
  0
VERTEX
  8
PG_ASSEMBLY_BOTTOM
 10
50.827000
 20
61.999012
 40
0.100000
 41
0.100000
 42
0.000000
  0
VERTEX
  8
PG_ASSEMBLY_BOTTOM
 10
59.967012
 20
61.999012
 40
0.100000
 41
0.100000
 42
0.000000
  0
SEQEND
  0
POLYLINE
  8
PG_ASSEMBLY_BOTTOM
 66
1
 70
0
 40
0.000000
 41
0.000000
 39
0.000000
  0
VERTEX
  8
PG_ASSEMBLY_BOTTOM
 10
59.967012
 20
61.999012
 40
0.100000
 41
0.100000
 42
0.000000
  0
VERTEX
  8
PG_ASSEMBLY_BOTTOM
 10
59.967012
 20
74.908994
 40
0.100000
 41
0.100000
 42
0.000000
  0
SEQEND
  0
POLYLINE
  8
PG_ASSEMBLY_BOTTOM
 66
1
 70
0
 40
0.000000
 41
0.000000
 39
0.000000
  0
VERTEX
  8
PG_ASSEMBLY_BOTTOM
 10
59.967012
 20
74.908994
 40
0.100000
 41
0.100000
 42
0.000000
  0
VERTEX
  8
PG_ASSEMBLY_BOTTOM
 10
50.827000
 20
74.908994
 40
0.100000
 41
0.100000
 42
0.000000
  0
SEQEND
  0
POLYLINE
  8
PG_ASSEMBLY_BOTTOM
 66
1
 70
0
 40
0.000000
 41
0.000000
 39
0.000000
  0
VERTEX
  8
PG_ASSEMBLY_BOTTOM
 10
59.967012
 20
70.384010
 40
0.100000
 41
0.100000
 42
0.000000
  0
VERTEX
  8
PG_ASSEMBLY_BOTTOM
 10
64.686993
 20
70.384010
 40
0.100000
 41
0.100000
 42
0.000000
  0
SEQEND
  0
POLYLINE
  8
PG_ASSEMBLY_BOTTOM
 66
1
 70
0
 40
0.000000
 41
0.000000
 39
0.000000
  0
VERTEX
  8
PG_ASSEMBLY_BOTTOM
 10
64.686993
 20
70.384010
 40
0.100000
 41
0.100000
 42
0.000000
  0
VERTEX
  8
PG_ASSEMBLY_BOTTOM
 10
64.686993
 20
66.523997
 40
0.100000
 41
0.100000
 42
0.000000
  0
SEQEND
  0
POLYLINE
  8
PG_ASSEMBLY_BOTTOM
 66
1
 70
0
 40
0.000000
 41
0.000000
 39
0.000000
  0
VERTEX
  8
PG_ASSEMBLY_BOTTOM
 10
64.686993
 20
66.523997
 40
0.100000
 41
0.100000
 42
0.000000
  0
VERTEX
  8
PG_ASSEMBLY_BOTTOM
 10
59.967012
 20
66.523997
 40
0.100000
 41
0.100000
 42
0.000000
  0
SEQEND
  0
POLYLINE
  8
PG_ASSEMBLY_BOTTOM
 66
1
 70
1
 40
0.000000
 41
0.000000
 39
0.000000
  0
VERTEX
  8
PG_ASSEMBLY_BOTTOM
 10
46.646998
 20
63.754000
 40
0.000000
 41
0.000000
 42
1.000000
  0
VERTEX
  8
PG_ASSEMBLY_BOTTOM
 10
45.047002
 20
63.754000
 40
0.000000
 41
0.000000
 42
1.000000
  0
SEQEND
  0
TEXT
  8
RD_SILKSCREEN_BOTTOM
 10
53.647010
 20
75.692000
 11
0.000000
 21
0.000000
 40
1.016000
 41
0.927175
 50
0.000000
  7
STANDARD
 71
2
 72
0
  1
SW1
 73
0
  0
POLYLINE
  8
BG_DESIGN_OUTLINE
 66
1
 70
1
 40
0.000000
 41
0.000000
 39
0.000000
  0
VERTEX
  8
BG_DESIGN_OUTLINE
 10
0.000000
 20
0.000000
 40
0.000000
 41
0.000000
 42
0.000000
  0
VERTEX
  8
BG_DESIGN_OUTLINE
 10
0.000000
 20
85.159850
 40
0.000000
 41
0.000000
 42
0.000000
  0
VERTEX
  8
BG_DESIGN_OUTLINE
 10
59.998178
 20
85.159850
 40
0.000000
 41
0.000000
 42
0.000000
  0
VERTEX
  8
BG_DESIGN_OUTLINE
 10
59.998178
 20
0.000000
 40
0.000000
 41
0.000000
 42
0.000000
  0
SEQEND
  0
POLYLINE
  8
BG_OUTLINE
 66
1
 70
1
 40
0.000000
 41
0.000000
 39
0.000000
  0
VERTEX
  8
BG_OUTLINE
 10
0.000000
 20
0.000000
 40
0.000000
 41
0.000000
 42
0.000000
  0
VERTEX
  8
BG_OUTLINE
 10
59.998178
 20
0.000000
 40
0.000000
 41
0.000000
 42
0.000000
  0
VERTEX
  8
BG_OUTLINE
 10
59.998178
 20
85.159850
 40
0.000000
 41
0.000000
 42
0.000000
  0
VERTEX
  8
BG_OUTLINE
 10
0.000000
 20
85.159850
 40
0.000000
 41
0.000000
 42
0.000000
  0
SEQEND
  0
TEXT
  8
BG_ASB
 10
0.263220
 20
88.180342
 11
0.000000
 21
0.000000
 40
1.016000
 41
0.927275
 50
0.000000
  7
STANDARD
 71
0
 72
0
  1
ASSEMBLY_BOTTOM
 73
0
  0
ENDSEC
  0
EOF
