G04*
G04 #@! TF.GenerationSoftware,Altium Limited,Altium Designer,24.6.1 (21)*
G04*
G04 Layer_Color=8388736*
%FSLAX24Y24*%
%MOIN*%
G70*
G04*
G04 #@! TF.SameCoordinates,3324350E-0B28-4C73-BA69-32ECCD091292*
G04*
G04*
G04 #@! TF.FilePolarity,Negative*
G04*
G01*
G75*
%ADD69R,0.0236X0.0197*%
%ADD70C,0.0240*%
%ADD71C,0.0551*%
%ADD72R,0.0472X0.0079*%
%ADD73R,0.0079X0.0472*%
%ADD74R,0.0146X0.0157*%
%ADD75R,0.0157X0.0146*%
%ADD76O,0.0295X0.0118*%
%ADD77R,0.0354X0.0335*%
%ADD78R,0.0335X0.0354*%
%ADD79O,0.0358X0.0142*%
%ADD80R,0.0439X0.1169*%
%ADD81R,0.0472X0.0669*%
%ADD82R,0.0276X0.0433*%
%ADD83C,0.0349*%
%ADD84R,0.0488X0.0276*%
%ADD85R,0.0488X0.0157*%
%ADD86R,0.0276X0.0118*%
%ADD87R,0.0295X0.0236*%
%ADD88C,0.0118*%
%ADD89R,0.0374X0.0413*%
%ADD90R,0.0591X0.0335*%
%ADD91O,0.0142X0.0358*%
%ADD92R,0.1402X0.1402*%
%ADD93R,0.0492X0.0217*%
%ADD94R,0.1378X0.1614*%
%ADD95O,0.0114X0.0350*%
%ADD96O,0.0287X0.0118*%
%ADD97O,0.0118X0.0287*%
%ADD98C,0.0181*%
%ADD99C,0.0112*%
%ADD100R,0.2150X0.1992*%
%ADD101O,0.0118X0.0295*%
%ADD102R,0.1890X0.1890*%
%ADD103R,0.0768X0.1398*%
%ADD104R,0.1122X0.0591*%
%ADD105R,0.0630X0.0433*%
%ADD106R,0.0276X0.0256*%
%ADD107R,0.0256X0.0276*%
%ADD108R,0.0276X0.0276*%
%ADD109R,0.0197X0.0276*%
%ADD110R,0.0339X0.0984*%
%ADD111R,0.0441X0.0902*%
%ADD112R,0.0339X0.0359*%
%ADD113R,0.0484X0.0756*%
%ADD114R,0.0756X0.0484*%
%ADD115R,0.0276X0.1063*%
%ADD116R,0.0157X0.0354*%
%ADD117R,0.0354X0.0335*%
%ADD118R,0.0268X0.0236*%
%ADD119C,0.0787*%
%ADD120R,0.0236X0.0295*%
%ADD121R,0.0236X0.0276*%
%ADD122R,0.0276X0.0236*%
%ADD123R,0.0197X0.0197*%
%ADD124C,0.0276*%
%ADD125O,0.0709X0.0394*%
%ADD126O,0.0827X0.0394*%
%ADD127C,0.0630*%
%ADD128R,0.0630X0.0630*%
%ADD129C,0.0406*%
%ADD130C,0.1299*%
%ADD131C,0.0264*%
G36*
X4523Y10131D02*
X4527Y10130D01*
X4530Y10128D01*
X4533Y10125D01*
X4536Y10122D01*
X4538Y10119D01*
X4539Y10115D01*
X4539Y10111D01*
Y10053D01*
X4677D01*
X4681Y10052D01*
X4684Y10051D01*
X4688Y10049D01*
X4691Y10047D01*
X4693Y10044D01*
X4695Y10040D01*
X4696Y10037D01*
X4697Y10033D01*
Y9954D01*
X4696Y9950D01*
X4695Y9946D01*
X4693Y9943D01*
X4691Y9940D01*
X4688Y9938D01*
X4684Y9936D01*
X4681Y9935D01*
X4677Y9934D01*
X4441D01*
X4437Y9935D01*
X4433Y9936D01*
X4430Y9938D01*
X4427Y9940D01*
X4424Y9943D01*
X4422Y9946D01*
X4421Y9950D01*
X4421Y9954D01*
Y10111D01*
X4421Y10115D01*
X4422Y10119D01*
X4424Y10122D01*
X4427Y10125D01*
X4430Y10128D01*
X4433Y10130D01*
X4437Y10131D01*
X4441Y10131D01*
X4519D01*
X4523Y10131D01*
D02*
G37*
G36*
X4287D02*
X4291Y10130D01*
X4294Y10128D01*
X4297Y10125D01*
X4300Y10122D01*
X4301Y10119D01*
X4303Y10115D01*
X4303Y10111D01*
Y9954D01*
X4303Y9950D01*
X4301Y9946D01*
X4300Y9943D01*
X4297Y9940D01*
X4294Y9938D01*
X4291Y9936D01*
X4287Y9935D01*
X4283Y9934D01*
X4047D01*
X4043Y9935D01*
X4039Y9936D01*
X4036Y9938D01*
X4033Y9940D01*
X4031Y9943D01*
X4029Y9946D01*
X4028Y9950D01*
X4027Y9954D01*
Y10033D01*
X4028Y10037D01*
X4029Y10040D01*
X4031Y10044D01*
X4033Y10047D01*
X4036Y10049D01*
X4039Y10051D01*
X4043Y10052D01*
X4047Y10053D01*
X4185D01*
Y10111D01*
X4185Y10115D01*
X4186Y10119D01*
X4188Y10122D01*
X4190Y10125D01*
X4193Y10128D01*
X4197Y10130D01*
X4201Y10131D01*
X4204Y10131D01*
X4283D01*
X4287Y10131D01*
D02*
G37*
G36*
X34036Y9566D02*
X34038Y9566D01*
X34072Y9560D01*
X34074Y9559D01*
X34075Y9559D01*
X34107Y9547D01*
X34109Y9547D01*
X34111Y9546D01*
X34140Y9529D01*
X34142Y9528D01*
X34143Y9527D01*
X34169Y9505D01*
X34171Y9504D01*
X34172Y9502D01*
X34194Y9476D01*
X34195Y9475D01*
X34196Y9474D01*
X34213Y9444D01*
X34214Y9442D01*
X34215Y9441D01*
X34227Y9409D01*
X34227Y9407D01*
X34228Y9405D01*
X34231Y9389D01*
X34231Y9388D01*
X34232Y9382D01*
X34232Y9381D01*
X34232Y9381D01*
X34232Y9380D01*
X34232Y9378D01*
X34232Y9378D01*
X34232Y9377D01*
X34232Y9376D01*
X34232Y9374D01*
X34232Y9374D01*
X34232Y9373D01*
X34228Y9360D01*
X34228Y9360D01*
X34228Y9360D01*
X34227Y9358D01*
X34227Y9357D01*
X34227Y9356D01*
X34226Y9356D01*
X34225Y9355D01*
X34225Y9353D01*
X34224Y9353D01*
X34224Y9353D01*
X34216Y9342D01*
X34215Y9342D01*
X34215Y9342D01*
X34214Y9341D01*
X34213Y9340D01*
X34212Y9340D01*
X34212Y9339D01*
X34211Y9338D01*
X34210Y9338D01*
X34209Y9337D01*
X34209Y9337D01*
X34197Y9332D01*
X34196Y9331D01*
X34196Y9331D01*
X34194Y9331D01*
X34193Y9330D01*
X34193Y9330D01*
X34192Y9330D01*
X34191Y9330D01*
X34189Y9330D01*
X34189Y9330D01*
X34188Y9330D01*
X34182Y9330D01*
X33853Y9330D01*
X33853Y9330D01*
X33847Y9330D01*
X33846Y9330D01*
X33846Y9330D01*
X33844Y9330D01*
X33843Y9330D01*
X33843Y9330D01*
X33842Y9330D01*
X33841Y9331D01*
X33839Y9331D01*
X33839Y9331D01*
X33838Y9332D01*
X33826Y9337D01*
X33826Y9337D01*
X33825Y9338D01*
X33824Y9338D01*
X33823Y9339D01*
X33823Y9340D01*
X33822Y9340D01*
X33821Y9341D01*
X33820Y9342D01*
X33820Y9342D01*
X33819Y9342D01*
X33811Y9353D01*
X33811Y9353D01*
X33810Y9353D01*
X33810Y9355D01*
X33809Y9356D01*
X33809Y9356D01*
X33808Y9357D01*
X33808Y9358D01*
X33807Y9360D01*
X33807Y9360D01*
X33807Y9360D01*
X33804Y9373D01*
X33804Y9374D01*
X33803Y9374D01*
X33803Y9376D01*
X33803Y9377D01*
X33803Y9378D01*
X33803Y9378D01*
X33803Y9380D01*
X33803Y9381D01*
X33803Y9381D01*
X33803Y9382D01*
X33804Y9389D01*
Y9389D01*
X33808Y9405D01*
X33808Y9407D01*
X33808Y9409D01*
X33820Y9441D01*
X33821Y9442D01*
X33822Y9444D01*
X33839Y9474D01*
X33840Y9475D01*
X33841Y9476D01*
X33863Y9502D01*
X33864Y9504D01*
X33866Y9505D01*
X33892Y9527D01*
X33893Y9528D01*
X33895Y9529D01*
X33925Y9546D01*
X33926Y9547D01*
X33928Y9547D01*
X33960Y9559D01*
X33962Y9559D01*
X33963Y9560D01*
X33997Y9566D01*
X33999Y9566D01*
X34000Y9566D01*
X34018Y9566D01*
X34035Y9566D01*
X34036Y9566D01*
D02*
G37*
G36*
X34583Y9562D02*
X34585Y9562D01*
X34619Y9556D01*
X34620Y9556D01*
X34622Y9555D01*
X34654Y9544D01*
X34656Y9543D01*
X34657Y9542D01*
X34687Y9525D01*
X34688Y9524D01*
X34690Y9523D01*
X34716Y9501D01*
X34717Y9500D01*
X34719Y9499D01*
X34741Y9473D01*
X34742Y9471D01*
X34743Y9470D01*
X34760Y9440D01*
X34761Y9439D01*
X34761Y9437D01*
X34773Y9405D01*
X34774Y9403D01*
X34774Y9402D01*
X34777Y9385D01*
X34777Y9385D01*
X34779Y9378D01*
X34779Y9378D01*
X34779Y9377D01*
X34779Y9376D01*
X34779Y9374D01*
X34779Y9374D01*
X34779Y9374D01*
X34779Y9372D01*
X34778Y9371D01*
X34778Y9370D01*
X34778Y9370D01*
X34775Y9357D01*
X34775Y9356D01*
X34775Y9356D01*
X34774Y9355D01*
X34773Y9353D01*
X34773Y9353D01*
X34773Y9352D01*
X34772Y9351D01*
X34771Y9350D01*
X34771Y9349D01*
X34771Y9349D01*
X34762Y9339D01*
X34762Y9339D01*
X34762Y9338D01*
X34761Y9337D01*
X34760Y9336D01*
X34759Y9336D01*
X34759Y9336D01*
X34758Y9335D01*
X34756Y9334D01*
X34756Y9334D01*
X34756Y9334D01*
X34743Y9328D01*
X34743Y9328D01*
X34743Y9328D01*
X34741Y9327D01*
X34740Y9327D01*
X34739Y9327D01*
X34739Y9326D01*
X34737Y9326D01*
X34736Y9326D01*
X34735Y9326D01*
X34735Y9326D01*
X34728Y9326D01*
X34400Y9326D01*
X34400Y9326D01*
X34394Y9326D01*
X34393Y9326D01*
X34393Y9326D01*
X34391Y9326D01*
X34390Y9326D01*
X34389Y9327D01*
X34389Y9327D01*
X34387Y9327D01*
X34386Y9328D01*
X34386Y9328D01*
X34385Y9328D01*
X34373Y9334D01*
X34373Y9334D01*
X34372Y9334D01*
X34371Y9335D01*
X34370Y9336D01*
X34369Y9336D01*
X34369Y9336D01*
X34368Y9337D01*
X34367Y9338D01*
X34367Y9338D01*
X34366Y9339D01*
X34358Y9349D01*
X34357Y9349D01*
X34357Y9350D01*
X34356Y9351D01*
X34355Y9352D01*
X34355Y9353D01*
X34355Y9353D01*
X34355Y9355D01*
X34354Y9356D01*
X34354Y9356D01*
X34354Y9357D01*
X34350Y9370D01*
X34350Y9370D01*
X34350Y9371D01*
X34350Y9372D01*
X34350Y9374D01*
X34350Y9374D01*
X34350Y9374D01*
X34350Y9376D01*
X34350Y9377D01*
X34350Y9378D01*
X34350Y9378D01*
X34351Y9385D01*
Y9385D01*
X34354Y9402D01*
X34355Y9403D01*
X34355Y9405D01*
X34367Y9437D01*
X34368Y9439D01*
X34369Y9440D01*
X34386Y9470D01*
X34387Y9471D01*
X34388Y9473D01*
X34410Y9499D01*
X34411Y9500D01*
X34412Y9501D01*
X34439Y9523D01*
X34440Y9524D01*
X34442Y9525D01*
X34471Y9542D01*
X34473Y9543D01*
X34474Y9544D01*
X34507Y9555D01*
X34508Y9556D01*
X34510Y9556D01*
X34544Y9562D01*
X34545Y9562D01*
X34547Y9562D01*
X34564Y9562D01*
X34581Y9562D01*
X34583Y9562D01*
D02*
G37*
G36*
X34182Y9290D02*
X34188Y9290D01*
X34189Y9290D01*
X34189Y9290D01*
X34191Y9290D01*
X34192Y9290D01*
X34193Y9290D01*
X34193Y9290D01*
X34194Y9289D01*
X34196Y9289D01*
X34196Y9289D01*
X34197Y9289D01*
X34209Y9283D01*
X34209Y9283D01*
X34210Y9283D01*
X34211Y9282D01*
X34212Y9281D01*
X34212Y9281D01*
X34213Y9280D01*
X34214Y9279D01*
X34215Y9278D01*
X34215Y9278D01*
X34216Y9278D01*
X34224Y9267D01*
X34224Y9267D01*
X34225Y9267D01*
X34225Y9265D01*
X34226Y9264D01*
X34227Y9264D01*
X34227Y9263D01*
X34227Y9262D01*
X34228Y9261D01*
X34228Y9260D01*
X34228Y9260D01*
X34232Y9247D01*
X34232Y9246D01*
X34232Y9246D01*
X34232Y9244D01*
X34232Y9243D01*
X34232Y9243D01*
X34232Y9242D01*
X34232Y9241D01*
X34232Y9239D01*
X34232Y9239D01*
X34232Y9238D01*
X34231Y9232D01*
Y9232D01*
X34228Y9215D01*
X34227Y9213D01*
X34227Y9211D01*
X34215Y9179D01*
X34214Y9178D01*
X34213Y9176D01*
X34196Y9147D01*
X34195Y9145D01*
X34194Y9144D01*
X34172Y9118D01*
X34171Y9116D01*
X34169Y9115D01*
X34143Y9093D01*
X34142Y9092D01*
X34140Y9091D01*
X34111Y9074D01*
X34109Y9074D01*
X34107Y9073D01*
X34075Y9061D01*
X34073Y9061D01*
X34072Y9060D01*
X34038Y9054D01*
X34036Y9054D01*
X34035Y9054D01*
X34018Y9054D01*
X34000Y9054D01*
X33999Y9054D01*
X33997Y9054D01*
X33963Y9060D01*
X33962Y9061D01*
X33960Y9061D01*
X33928Y9073D01*
X33926Y9074D01*
X33925Y9074D01*
X33895Y9091D01*
X33893Y9092D01*
X33892Y9093D01*
X33866Y9115D01*
X33864Y9116D01*
X33863Y9118D01*
X33841Y9144D01*
X33840Y9145D01*
X33839Y9147D01*
X33822Y9176D01*
X33821Y9178D01*
X33820Y9179D01*
X33808Y9211D01*
X33808Y9213D01*
X33808Y9215D01*
X33804Y9232D01*
X33804Y9232D01*
X33803Y9238D01*
X33803Y9239D01*
X33803Y9239D01*
X33803Y9241D01*
X33803Y9242D01*
X33803Y9243D01*
X33803Y9243D01*
X33803Y9244D01*
X33803Y9246D01*
X33804Y9246D01*
X33804Y9247D01*
X33807Y9260D01*
X33807Y9260D01*
X33807Y9261D01*
X33808Y9262D01*
X33808Y9263D01*
X33809Y9264D01*
X33809Y9264D01*
X33810Y9265D01*
X33810Y9267D01*
X33811Y9267D01*
X33811Y9267D01*
X33819Y9278D01*
X33820Y9278D01*
X33820Y9278D01*
X33821Y9279D01*
X33822Y9280D01*
X33823Y9281D01*
X33823Y9281D01*
X33824Y9282D01*
X33825Y9283D01*
X33826Y9283D01*
X33826Y9283D01*
X33838Y9289D01*
X33839Y9289D01*
X33839Y9289D01*
X33841Y9289D01*
X33842Y9290D01*
X33843Y9290D01*
X33843Y9290D01*
X33844Y9290D01*
X33846Y9290D01*
X33846Y9290D01*
X33847Y9290D01*
X33853Y9290D01*
X34182Y9290D01*
X34182Y9290D01*
D02*
G37*
G36*
X34728Y9287D02*
X34735Y9287D01*
X34735Y9287D01*
X34736Y9287D01*
X34737Y9287D01*
X34739Y9286D01*
X34739Y9286D01*
X34740Y9286D01*
X34741Y9286D01*
X34743Y9285D01*
X34743Y9285D01*
X34743Y9285D01*
X34756Y9279D01*
X34756Y9279D01*
X34756Y9279D01*
X34758Y9278D01*
X34759Y9277D01*
X34759Y9277D01*
X34760Y9277D01*
X34761Y9276D01*
X34762Y9275D01*
X34762Y9274D01*
X34762Y9274D01*
X34771Y9264D01*
X34771Y9263D01*
X34771Y9263D01*
X34772Y9262D01*
X34773Y9261D01*
X34773Y9260D01*
X34773Y9260D01*
X34774Y9258D01*
X34775Y9257D01*
X34775Y9257D01*
X34775Y9256D01*
X34778Y9243D01*
X34778Y9243D01*
X34778Y9242D01*
X34779Y9241D01*
X34779Y9239D01*
X34779Y9239D01*
X34779Y9238D01*
X34779Y9237D01*
X34779Y9235D01*
X34779Y9235D01*
X34779Y9235D01*
X34777Y9228D01*
Y9228D01*
X34774Y9211D01*
X34774Y9210D01*
X34773Y9208D01*
X34761Y9176D01*
X34761Y9174D01*
X34760Y9173D01*
X34743Y9143D01*
X34742Y9142D01*
X34741Y9140D01*
X34719Y9114D01*
X34717Y9113D01*
X34716Y9112D01*
X34690Y9090D01*
X34688Y9089D01*
X34687Y9088D01*
X34657Y9071D01*
X34656Y9070D01*
X34654Y9069D01*
X34622Y9058D01*
X34620Y9057D01*
X34619Y9057D01*
X34585Y9051D01*
X34583Y9051D01*
X34581Y9050D01*
X34564Y9050D01*
X34547Y9050D01*
X34545Y9051D01*
X34544Y9051D01*
X34510Y9057D01*
X34508Y9057D01*
X34507Y9058D01*
X34474Y9069D01*
X34473Y9070D01*
X34471Y9071D01*
X34442Y9088D01*
X34440Y9089D01*
X34439Y9090D01*
X34412Y9112D01*
X34411Y9113D01*
X34410Y9114D01*
X34388Y9140D01*
X34387Y9142D01*
X34386Y9143D01*
X34369Y9173D01*
X34368Y9174D01*
X34367Y9176D01*
X34355Y9208D01*
X34355Y9209D01*
X34354Y9211D01*
X34351Y9228D01*
X34351Y9228D01*
X34350Y9235D01*
X34350Y9235D01*
X34350Y9235D01*
X34350Y9237D01*
X34350Y9238D01*
X34350Y9239D01*
X34350Y9239D01*
X34350Y9241D01*
X34350Y9242D01*
X34350Y9243D01*
X34350Y9243D01*
X34354Y9256D01*
X34354Y9257D01*
X34354Y9257D01*
X34355Y9258D01*
X34355Y9260D01*
X34355Y9260D01*
X34355Y9261D01*
X34356Y9262D01*
X34357Y9263D01*
X34357Y9263D01*
X34358Y9264D01*
X34366Y9274D01*
X34367Y9274D01*
X34367Y9275D01*
X34368Y9276D01*
X34369Y9277D01*
X34369Y9277D01*
X34370Y9277D01*
X34371Y9278D01*
X34372Y9279D01*
X34373Y9279D01*
X34373Y9279D01*
X34385Y9285D01*
X34386Y9285D01*
X34386Y9285D01*
X34387Y9286D01*
X34389Y9286D01*
X34389Y9286D01*
X34390Y9286D01*
X34391Y9287D01*
X34393Y9287D01*
X34393Y9287D01*
X34394Y9287D01*
X34400Y9287D01*
X34728Y9287D01*
X34728Y9287D01*
D02*
G37*
G36*
X4681Y9462D02*
X4684Y9460D01*
X4688Y9459D01*
X4691Y9456D01*
X4693Y9453D01*
X4695Y9450D01*
X4696Y9446D01*
X4697Y9442D01*
Y9363D01*
X4696Y9360D01*
X4695Y9356D01*
X4693Y9352D01*
X4691Y9349D01*
X4688Y9347D01*
X4684Y9345D01*
X4681Y9344D01*
X4677Y9344D01*
X4539D01*
Y9285D01*
X4539Y9281D01*
X4538Y9277D01*
X4536Y9274D01*
X4533Y9271D01*
X4530Y9268D01*
X4527Y9266D01*
X4523Y9265D01*
X4519Y9265D01*
X4441D01*
X4437Y9265D01*
X4433Y9266D01*
X4430Y9268D01*
X4427Y9271D01*
X4424Y9274D01*
X4422Y9277D01*
X4421Y9281D01*
X4421Y9285D01*
Y9442D01*
X4421Y9446D01*
X4422Y9450D01*
X4424Y9453D01*
X4427Y9456D01*
X4430Y9459D01*
X4433Y9460D01*
X4437Y9462D01*
X4441Y9462D01*
X4677D01*
X4681Y9462D01*
D02*
G37*
G36*
X4287D02*
X4291Y9460D01*
X4294Y9459D01*
X4297Y9456D01*
X4300Y9453D01*
X4301Y9450D01*
X4303Y9446D01*
X4303Y9442D01*
Y9285D01*
X4303Y9281D01*
X4301Y9277D01*
X4300Y9274D01*
X4297Y9271D01*
X4294Y9268D01*
X4291Y9266D01*
X4287Y9265D01*
X4283Y9265D01*
X4204D01*
X4201Y9265D01*
X4197Y9266D01*
X4193Y9268D01*
X4190Y9271D01*
X4188Y9274D01*
X4186Y9277D01*
X4185Y9281D01*
X4185Y9285D01*
Y9344D01*
X4047D01*
X4043Y9344D01*
X4039Y9345D01*
X4036Y9347D01*
X4033Y9349D01*
X4031Y9352D01*
X4029Y9356D01*
X4028Y9360D01*
X4027Y9363D01*
Y9442D01*
X4028Y9446D01*
X4029Y9450D01*
X4031Y9453D01*
X4033Y9456D01*
X4036Y9459D01*
X4039Y9460D01*
X4043Y9462D01*
X4047Y9462D01*
X4283D01*
X4287Y9462D01*
D02*
G37*
G36*
X4971Y5189D02*
X4973Y5189D01*
X4973Y5189D01*
X4974Y5189D01*
X4980Y5187D01*
X4980D01*
X4997Y5184D01*
X4999Y5184D01*
X5000Y5183D01*
X5032Y5172D01*
X5034Y5171D01*
X5036Y5170D01*
X5065Y5153D01*
X5066Y5152D01*
X5068Y5151D01*
X5094Y5129D01*
X5095Y5127D01*
X5096Y5126D01*
X5118Y5100D01*
X5119Y5098D01*
X5120Y5097D01*
X5137Y5067D01*
X5138Y5066D01*
X5139Y5064D01*
X5151Y5032D01*
X5151Y5030D01*
X5151Y5029D01*
X5157Y4995D01*
X5158Y4993D01*
X5158Y4992D01*
X5158Y4974D01*
X5158Y4957D01*
X5158Y4956D01*
X5157Y4954D01*
X5151Y4920D01*
X5151Y4918D01*
X5151Y4917D01*
X5139Y4885D01*
X5138Y4883D01*
X5137Y4881D01*
X5120Y4852D01*
X5119Y4850D01*
X5118Y4849D01*
X5096Y4823D01*
X5095Y4821D01*
X5094Y4820D01*
X5068Y4798D01*
X5067Y4797D01*
X5065Y4796D01*
X5036Y4779D01*
X5034Y4778D01*
X5032Y4777D01*
X5000Y4765D01*
X4999Y4765D01*
X4997Y4764D01*
X4980Y4761D01*
X4980Y4761D01*
X4974Y4760D01*
X4973Y4760D01*
X4973Y4760D01*
X4971Y4760D01*
X4970Y4760D01*
X4969Y4760D01*
X4969Y4760D01*
X4967Y4760D01*
X4966Y4760D01*
X4965Y4760D01*
X4965Y4760D01*
X4952Y4764D01*
X4952Y4764D01*
X4951Y4764D01*
X4950Y4765D01*
X4948Y4765D01*
X4948Y4765D01*
X4948Y4766D01*
X4946Y4766D01*
X4945Y4767D01*
X4945Y4768D01*
X4944Y4768D01*
X4934Y4776D01*
X4934Y4777D01*
X4933Y4777D01*
X4932Y4778D01*
X4931Y4779D01*
X4931Y4780D01*
X4931Y4780D01*
X4930Y4781D01*
X4929Y4782D01*
X4929Y4783D01*
X4929Y4783D01*
X4923Y4795D01*
X4923Y4796D01*
X4923Y4796D01*
X4922Y4798D01*
X4922Y4799D01*
X4922Y4799D01*
X4922Y4800D01*
X4922Y4801D01*
X4921Y4803D01*
X4921Y4803D01*
X4921Y4804D01*
X4921Y4810D01*
X4921Y5138D01*
X4921Y5138D01*
X4921Y5145D01*
X4921Y5146D01*
X4921Y5146D01*
X4922Y5148D01*
X4922Y5149D01*
X4922Y5149D01*
X4922Y5150D01*
X4922Y5151D01*
X4923Y5153D01*
X4923Y5153D01*
X4923Y5154D01*
X4929Y5166D01*
X4929Y5166D01*
X4929Y5166D01*
X4930Y5168D01*
X4931Y5169D01*
X4931Y5169D01*
X4931Y5170D01*
X4932Y5171D01*
X4933Y5172D01*
X4934Y5172D01*
X4934Y5172D01*
X4944Y5181D01*
X4945Y5181D01*
X4945Y5182D01*
X4946Y5182D01*
X4948Y5183D01*
X4948Y5183D01*
X4948Y5184D01*
X4950Y5184D01*
X4951Y5185D01*
X4952Y5185D01*
X4952Y5185D01*
X4965Y5188D01*
X4965Y5188D01*
X4966Y5189D01*
X4967Y5189D01*
X4969Y5189D01*
X4969Y5189D01*
X4970Y5189D01*
X4971Y5189D01*
D02*
G37*
G36*
X4834Y5189D02*
X4835Y5189D01*
X4836Y5189D01*
X4838Y5189D01*
X4838Y5188D01*
X4838Y5188D01*
X4851Y5185D01*
X4852Y5185D01*
X4852Y5185D01*
X4854Y5184D01*
X4855Y5184D01*
X4855Y5183D01*
X4856Y5183D01*
X4857Y5182D01*
X4858Y5182D01*
X4859Y5181D01*
X4859Y5181D01*
X4869Y5172D01*
X4870Y5172D01*
X4870Y5172D01*
X4871Y5171D01*
X4872Y5170D01*
X4872Y5169D01*
X4873Y5169D01*
X4873Y5168D01*
X4874Y5166D01*
X4874Y5166D01*
X4875Y5166D01*
X4880Y5154D01*
X4880Y5153D01*
X4881Y5153D01*
X4881Y5151D01*
X4882Y5150D01*
X4882Y5149D01*
X4882Y5149D01*
X4882Y5148D01*
X4882Y5146D01*
X4882Y5146D01*
X4882Y5145D01*
X4882Y5138D01*
X4882Y4810D01*
X4882Y4810D01*
X4882Y4804D01*
X4882Y4803D01*
X4882Y4803D01*
X4882Y4801D01*
X4882Y4800D01*
X4882Y4799D01*
X4882Y4799D01*
X4881Y4798D01*
X4881Y4796D01*
X4880Y4796D01*
X4880Y4795D01*
X4875Y4783D01*
X4874Y4783D01*
X4874Y4782D01*
X4873Y4781D01*
X4873Y4780D01*
X4872Y4780D01*
X4872Y4779D01*
X4871Y4778D01*
X4870Y4777D01*
X4870Y4777D01*
X4869Y4776D01*
X4859Y4768D01*
X4859Y4768D01*
X4858Y4767D01*
X4857Y4766D01*
X4856Y4766D01*
X4855Y4765D01*
X4855Y4765D01*
X4854Y4765D01*
X4852Y4764D01*
X4852Y4764D01*
X4851Y4764D01*
X4838Y4760D01*
X4838Y4760D01*
X4838Y4760D01*
X4836Y4760D01*
X4835Y4760D01*
X4834Y4760D01*
X4834Y4760D01*
X4832Y4760D01*
X4831Y4760D01*
X4830Y4760D01*
X4830Y4760D01*
X4823Y4761D01*
X4823D01*
X4806Y4764D01*
X4805Y4765D01*
X4803Y4765D01*
X4771Y4777D01*
X4769Y4778D01*
X4768Y4779D01*
X4738Y4796D01*
X4737Y4797D01*
X4735Y4798D01*
X4709Y4820D01*
X4708Y4821D01*
X4707Y4823D01*
X4685Y4849D01*
X4684Y4850D01*
X4683Y4852D01*
X4666Y4881D01*
X4665Y4883D01*
X4664Y4885D01*
X4653Y4917D01*
X4652Y4918D01*
X4652Y4920D01*
X4646Y4954D01*
X4646Y4956D01*
X4646Y4957D01*
X4646Y4974D01*
X4646Y4992D01*
X4646Y4993D01*
X4646Y4995D01*
X4652Y5029D01*
X4652Y5030D01*
X4653Y5032D01*
X4664Y5064D01*
X4665Y5066D01*
X4666Y5067D01*
X4683Y5097D01*
X4684Y5099D01*
X4685Y5100D01*
X4707Y5126D01*
X4708Y5127D01*
X4709Y5129D01*
X4735Y5151D01*
X4737Y5152D01*
X4738Y5153D01*
X4768Y5170D01*
X4769Y5171D01*
X4771Y5172D01*
X4803Y5183D01*
X4805Y5184D01*
X4806Y5184D01*
X4823Y5187D01*
X4823Y5188D01*
X4830Y5189D01*
X4830Y5189D01*
X4831Y5189D01*
X4832Y5189D01*
X4834Y5189D01*
X4834Y5189D01*
D02*
G37*
G36*
X4971Y4580D02*
X4973Y4580D01*
X4973Y4580D01*
X4974Y4580D01*
X4980Y4579D01*
X4980D01*
X4997Y4576D01*
X4999Y4575D01*
X5000Y4575D01*
X5032Y4563D01*
X5034Y4562D01*
X5036Y4561D01*
X5065Y4544D01*
X5066Y4543D01*
X5068Y4542D01*
X5094Y4520D01*
X5095Y4519D01*
X5096Y4517D01*
X5118Y4491D01*
X5119Y4490D01*
X5120Y4488D01*
X5137Y4459D01*
X5138Y4457D01*
X5139Y4455D01*
X5151Y4423D01*
X5151Y4422D01*
X5151Y4420D01*
X5157Y4386D01*
X5158Y4384D01*
X5158Y4383D01*
X5158Y4366D01*
X5158Y4348D01*
X5158Y4347D01*
X5157Y4345D01*
X5151Y4311D01*
X5151Y4310D01*
X5151Y4308D01*
X5139Y4276D01*
X5138Y4274D01*
X5137Y4273D01*
X5120Y4243D01*
X5119Y4241D01*
X5118Y4240D01*
X5096Y4214D01*
X5095Y4213D01*
X5094Y4211D01*
X5068Y4189D01*
X5067Y4188D01*
X5065Y4187D01*
X5036Y4170D01*
X5034Y4169D01*
X5032Y4168D01*
X5000Y4157D01*
X4999Y4156D01*
X4997Y4156D01*
X4980Y4153D01*
X4980Y4153D01*
X4974Y4151D01*
X4973Y4151D01*
X4973Y4151D01*
X4971Y4151D01*
X4970Y4151D01*
X4969Y4151D01*
X4969Y4151D01*
X4967Y4151D01*
X4966Y4151D01*
X4965Y4152D01*
X4965Y4152D01*
X4952Y4155D01*
X4952Y4155D01*
X4951Y4155D01*
X4950Y4156D01*
X4948Y4156D01*
X4948Y4157D01*
X4948Y4157D01*
X4946Y4158D01*
X4945Y4158D01*
X4945Y4159D01*
X4944Y4159D01*
X4934Y4168D01*
X4934Y4168D01*
X4933Y4168D01*
X4932Y4169D01*
X4931Y4170D01*
X4931Y4171D01*
X4931Y4171D01*
X4930Y4172D01*
X4929Y4174D01*
X4929Y4174D01*
X4929Y4174D01*
X4923Y4186D01*
X4923Y4187D01*
X4923Y4187D01*
X4922Y4189D01*
X4922Y4190D01*
X4922Y4191D01*
X4922Y4191D01*
X4922Y4192D01*
X4921Y4194D01*
X4921Y4194D01*
X4921Y4195D01*
X4921Y4202D01*
X4921Y4530D01*
X4921Y4530D01*
X4921Y4536D01*
X4921Y4537D01*
X4921Y4537D01*
X4922Y4539D01*
X4922Y4540D01*
X4922Y4541D01*
X4922Y4541D01*
X4922Y4542D01*
X4923Y4544D01*
X4923Y4544D01*
X4923Y4545D01*
X4929Y4557D01*
X4929Y4557D01*
X4929Y4558D01*
X4930Y4559D01*
X4931Y4560D01*
X4931Y4561D01*
X4931Y4561D01*
X4932Y4562D01*
X4933Y4563D01*
X4934Y4563D01*
X4934Y4564D01*
X4944Y4572D01*
X4945Y4572D01*
X4945Y4573D01*
X4946Y4574D01*
X4948Y4574D01*
X4948Y4575D01*
X4948Y4575D01*
X4950Y4575D01*
X4951Y4576D01*
X4952Y4576D01*
X4952Y4576D01*
X4965Y4580D01*
X4965Y4580D01*
X4966Y4580D01*
X4967Y4580D01*
X4969Y4580D01*
X4969Y4580D01*
X4970Y4580D01*
X4971Y4580D01*
D02*
G37*
G36*
X4834Y4580D02*
X4835Y4580D01*
X4836Y4580D01*
X4838Y4580D01*
X4838Y4580D01*
X4838Y4580D01*
X4851Y4576D01*
X4852Y4576D01*
X4852Y4576D01*
X4854Y4575D01*
X4855Y4575D01*
X4855Y4575D01*
X4856Y4574D01*
X4857Y4574D01*
X4858Y4573D01*
X4859Y4572D01*
X4859Y4572D01*
X4869Y4564D01*
X4870Y4563D01*
X4870Y4563D01*
X4871Y4562D01*
X4872Y4561D01*
X4872Y4561D01*
X4873Y4560D01*
X4873Y4559D01*
X4874Y4558D01*
X4874Y4557D01*
X4875Y4557D01*
X4880Y4545D01*
X4880Y4544D01*
X4881Y4544D01*
X4881Y4542D01*
X4882Y4541D01*
X4882Y4541D01*
X4882Y4540D01*
X4882Y4539D01*
X4882Y4537D01*
X4882Y4537D01*
X4882Y4536D01*
X4882Y4530D01*
X4882Y4202D01*
X4882Y4202D01*
X4882Y4195D01*
X4882Y4194D01*
X4882Y4194D01*
X4882Y4193D01*
X4882Y4191D01*
X4882Y4191D01*
X4882Y4190D01*
X4881Y4189D01*
X4881Y4187D01*
X4880Y4187D01*
X4880Y4186D01*
X4875Y4174D01*
X4874Y4174D01*
X4874Y4174D01*
X4873Y4172D01*
X4873Y4171D01*
X4872Y4171D01*
X4872Y4170D01*
X4871Y4169D01*
X4870Y4168D01*
X4870Y4168D01*
X4869Y4168D01*
X4859Y4159D01*
X4859Y4159D01*
X4858Y4158D01*
X4857Y4158D01*
X4856Y4157D01*
X4855Y4157D01*
X4855Y4156D01*
X4854Y4156D01*
X4852Y4155D01*
X4852Y4155D01*
X4851Y4155D01*
X4838Y4152D01*
X4838Y4152D01*
X4838Y4151D01*
X4836Y4151D01*
X4835Y4151D01*
X4834Y4151D01*
X4834Y4151D01*
X4832Y4151D01*
X4831Y4151D01*
X4830Y4151D01*
X4830Y4151D01*
X4823Y4153D01*
X4823D01*
X4806Y4156D01*
X4805Y4156D01*
X4803Y4157D01*
X4771Y4168D01*
X4769Y4169D01*
X4768Y4170D01*
X4738Y4187D01*
X4737Y4188D01*
X4735Y4189D01*
X4709Y4211D01*
X4708Y4213D01*
X4707Y4214D01*
X4685Y4240D01*
X4684Y4242D01*
X4683Y4243D01*
X4666Y4273D01*
X4665Y4274D01*
X4664Y4276D01*
X4653Y4308D01*
X4652Y4310D01*
X4652Y4311D01*
X4646Y4345D01*
X4646Y4347D01*
X4646Y4348D01*
X4646Y4366D01*
X4646Y4383D01*
X4646Y4384D01*
X4646Y4386D01*
X4652Y4420D01*
X4652Y4422D01*
X4653Y4423D01*
X4664Y4455D01*
X4665Y4457D01*
X4666Y4459D01*
X4683Y4488D01*
X4684Y4490D01*
X4685Y4491D01*
X4707Y4517D01*
X4708Y4519D01*
X4709Y4520D01*
X4735Y4542D01*
X4737Y4543D01*
X4738Y4544D01*
X4768Y4561D01*
X4769Y4562D01*
X4771Y4563D01*
X4803Y4575D01*
X4805Y4575D01*
X4806Y4576D01*
X4823Y4579D01*
X4823Y4579D01*
X4830Y4580D01*
X4830Y4580D01*
X4831Y4580D01*
X4832Y4580D01*
X4834Y4580D01*
X4834Y4580D01*
D02*
G37*
G36*
X20623Y2754D02*
X20624Y2754D01*
X20625Y2754D01*
X20625Y2754D01*
X20632Y2752D01*
X20632D01*
X20648Y2749D01*
X20650Y2749D01*
X20652Y2748D01*
X20684Y2737D01*
X20685Y2736D01*
X20687Y2735D01*
X20717Y2718D01*
X20718Y2717D01*
X20719Y2716D01*
X20746Y2694D01*
X20747Y2692D01*
X20748Y2691D01*
X20770Y2665D01*
X20771Y2663D01*
X20772Y2662D01*
X20789Y2632D01*
X20790Y2631D01*
X20790Y2629D01*
X20802Y2597D01*
X20803Y2595D01*
X20803Y2594D01*
X20809Y2560D01*
X20809Y2558D01*
X20809Y2557D01*
X20809Y2539D01*
X20809Y2522D01*
X20809Y2521D01*
X20809Y2519D01*
X20803Y2485D01*
X20803Y2483D01*
X20802Y2482D01*
X20790Y2450D01*
X20790Y2448D01*
X20789Y2446D01*
X20772Y2417D01*
X20771Y2415D01*
X20770Y2414D01*
X20748Y2388D01*
X20747Y2386D01*
X20746Y2385D01*
X20719Y2363D01*
X20718Y2362D01*
X20717Y2361D01*
X20687Y2344D01*
X20685Y2343D01*
X20684Y2342D01*
X20652Y2330D01*
X20650Y2330D01*
X20648Y2329D01*
X20632Y2326D01*
X20632Y2326D01*
X20625Y2325D01*
X20625Y2325D01*
X20624Y2325D01*
X20623Y2325D01*
X20621Y2325D01*
X20621Y2325D01*
X20620Y2325D01*
X20619Y2325D01*
X20617Y2325D01*
X20617Y2325D01*
X20616Y2325D01*
X20603Y2329D01*
X20603Y2329D01*
X20603Y2329D01*
X20601Y2330D01*
X20600Y2330D01*
X20599Y2330D01*
X20599Y2331D01*
X20598Y2331D01*
X20597Y2332D01*
X20596Y2332D01*
X20596Y2333D01*
X20586Y2341D01*
X20585Y2342D01*
X20585Y2342D01*
X20584Y2343D01*
X20583Y2344D01*
X20583Y2344D01*
X20582Y2345D01*
X20582Y2346D01*
X20581Y2347D01*
X20581Y2348D01*
X20580Y2348D01*
X20575Y2360D01*
X20574Y2361D01*
X20574Y2361D01*
X20574Y2362D01*
X20573Y2364D01*
X20573Y2364D01*
X20573Y2365D01*
X20573Y2366D01*
X20573Y2368D01*
X20573Y2368D01*
X20573Y2369D01*
X20573Y2375D01*
X20573Y2703D01*
X20573Y2703D01*
X20573Y2710D01*
X20573Y2711D01*
X20573Y2711D01*
X20573Y2712D01*
X20573Y2714D01*
X20573Y2714D01*
X20573Y2715D01*
X20574Y2716D01*
X20574Y2718D01*
X20574Y2718D01*
X20575Y2718D01*
X20580Y2731D01*
X20581Y2731D01*
X20581Y2731D01*
X20582Y2733D01*
X20582Y2734D01*
X20583Y2734D01*
X20583Y2735D01*
X20584Y2736D01*
X20585Y2737D01*
X20585Y2737D01*
X20586Y2737D01*
X20596Y2746D01*
X20596Y2746D01*
X20597Y2747D01*
X20598Y2747D01*
X20599Y2748D01*
X20599Y2748D01*
X20600Y2749D01*
X20601Y2749D01*
X20603Y2750D01*
X20603Y2750D01*
X20603Y2750D01*
X20616Y2753D01*
X20617Y2753D01*
X20617Y2754D01*
X20619Y2754D01*
X20620Y2754D01*
X20621Y2754D01*
X20621Y2754D01*
X20623Y2754D01*
D02*
G37*
G36*
X20486Y2754D02*
X20486Y2754D01*
X20488Y2754D01*
X20489Y2754D01*
X20489Y2753D01*
X20490Y2753D01*
X20503Y2750D01*
X20503Y2750D01*
X20504Y2750D01*
X20505Y2749D01*
X20506Y2749D01*
X20507Y2748D01*
X20507Y2748D01*
X20509Y2747D01*
X20510Y2747D01*
X20510Y2746D01*
X20511Y2746D01*
X20521Y2737D01*
X20521Y2737D01*
X20521Y2737D01*
X20522Y2736D01*
X20524Y2735D01*
X20524Y2734D01*
X20524Y2734D01*
X20525Y2733D01*
X20526Y2731D01*
X20526Y2731D01*
X20526Y2731D01*
X20532Y2718D01*
X20532Y2718D01*
X20532Y2718D01*
X20533Y2716D01*
X20533Y2715D01*
X20533Y2714D01*
X20533Y2714D01*
X20533Y2712D01*
X20534Y2711D01*
X20534Y2711D01*
X20534Y2710D01*
X20534Y2703D01*
X20534Y2375D01*
X20534Y2375D01*
X20534Y2369D01*
X20534Y2368D01*
X20534Y2368D01*
X20533Y2366D01*
X20533Y2365D01*
X20533Y2364D01*
X20533Y2364D01*
X20533Y2362D01*
X20532Y2361D01*
X20532Y2361D01*
X20532Y2360D01*
X20526Y2348D01*
X20526Y2348D01*
X20526Y2347D01*
X20525Y2346D01*
X20524Y2345D01*
X20524Y2344D01*
X20524Y2344D01*
X20522Y2343D01*
X20521Y2342D01*
X20521Y2342D01*
X20521Y2341D01*
X20511Y2333D01*
X20510Y2332D01*
X20510Y2332D01*
X20509Y2331D01*
X20507Y2331D01*
X20507Y2330D01*
X20506Y2330D01*
X20505Y2330D01*
X20504Y2329D01*
X20503Y2329D01*
X20503Y2329D01*
X20490Y2325D01*
X20489Y2325D01*
X20489Y2325D01*
X20488Y2325D01*
X20486Y2325D01*
X20486Y2325D01*
X20485Y2325D01*
X20484Y2325D01*
X20482Y2325D01*
X20482Y2325D01*
X20481Y2325D01*
X20475Y2326D01*
X20475D01*
X20458Y2329D01*
X20456Y2330D01*
X20455Y2330D01*
X20422Y2342D01*
X20421Y2343D01*
X20419Y2344D01*
X20390Y2361D01*
X20388Y2362D01*
X20387Y2363D01*
X20361Y2385D01*
X20360Y2386D01*
X20358Y2388D01*
X20336Y2414D01*
X20335Y2415D01*
X20334Y2417D01*
X20317Y2446D01*
X20317Y2448D01*
X20316Y2450D01*
X20304Y2482D01*
X20304Y2483D01*
X20303Y2485D01*
X20297Y2519D01*
X20297Y2521D01*
X20297Y2522D01*
X20297Y2539D01*
X20297Y2557D01*
X20297Y2558D01*
X20297Y2560D01*
X20303Y2594D01*
X20304Y2595D01*
X20304Y2597D01*
X20316Y2629D01*
X20317Y2631D01*
X20317Y2632D01*
X20334Y2662D01*
X20335Y2663D01*
X20336Y2665D01*
X20358Y2691D01*
X20360Y2692D01*
X20361Y2694D01*
X20387Y2716D01*
X20388Y2717D01*
X20390Y2718D01*
X20419Y2735D01*
X20421Y2736D01*
X20422Y2737D01*
X20455Y2748D01*
X20456Y2749D01*
X20458Y2749D01*
X20475Y2752D01*
X20475Y2752D01*
X20481Y2754D01*
X20482Y2754D01*
X20482Y2754D01*
X20484Y2754D01*
X20485Y2754D01*
X20486Y2754D01*
D02*
G37*
D69*
X7913Y20920D02*
D03*
Y20408D02*
D03*
D70*
X38157Y10886D02*
G03*
X38157Y10886I-157J0D01*
G01*
X38078D02*
G03*
X38078Y10886I-79J0D01*
G01*
X21881Y3936D02*
G03*
X21881Y3936I-79J0D01*
G01*
X21959D02*
G03*
X21959Y3936I-157J0D01*
G01*
X39126Y9658D02*
G03*
X39126Y9658I-157J0D01*
G01*
X39047D02*
G03*
X39047Y9658I-79J0D01*
G01*
X39126Y10274D02*
G03*
X39126Y10274I-157J0D01*
G01*
X39047D02*
G03*
X39047Y10274I-79J0D01*
G01*
X39126Y10886D02*
G03*
X39126Y10886I-157J0D01*
G01*
X39047D02*
G03*
X39047Y10886I-79J0D01*
G01*
X33484Y11416D02*
G03*
X33484Y11416I-157J0D01*
G01*
X33405D02*
G03*
X33405Y11416I-79J0D01*
G01*
X33484Y10808D02*
G03*
X33484Y10808I-157J0D01*
G01*
X33405D02*
G03*
X33405Y10808I-79J0D01*
G01*
X33484Y10191D02*
G03*
X33484Y10191I-157J0D01*
G01*
X33405D02*
G03*
X33405Y10191I-79J0D01*
G01*
X34346Y10195D02*
G03*
X34346Y10195I-79J0D01*
G01*
X34425D02*
G03*
X34425Y10195I-157J0D01*
G01*
X38078Y10274D02*
G03*
X38078Y10274I-79J0D01*
G01*
X38157D02*
G03*
X38157Y10274I-157J0D01*
G01*
X34346Y11416D02*
G03*
X34346Y11416I-79J0D01*
G01*
X34425D02*
G03*
X34425Y11416I-157J0D01*
G01*
X34346Y10805D02*
G03*
X34346Y10805I-79J0D01*
G01*
X34425D02*
G03*
X34425Y10805I-157J0D01*
G01*
X38078Y9658D02*
G03*
X38078Y9658I-79J0D01*
G01*
X38157D02*
G03*
X38157Y9658I-157J0D01*
G01*
X34680Y9267D02*
G03*
X34680Y9267I-116J0D01*
G01*
Y9346D02*
G03*
X34680Y9346I-116J0D01*
G01*
X34134Y9271D02*
G03*
X34134Y9271I-116J0D01*
G01*
Y9349D02*
G03*
X34134Y9349I-116J0D01*
G01*
X4978Y4974D02*
G03*
X4978Y4974I-116J0D01*
G01*
X5057D02*
G03*
X5057Y4974I-116J0D01*
G01*
X36112Y15067D02*
G03*
X36112Y15067I-157J0D01*
G01*
X36033D02*
G03*
X36033Y15067I-79J0D01*
G01*
X36112Y15705D02*
G03*
X36112Y15705I-157J0D01*
G01*
X36033D02*
G03*
X36033Y15705I-79J0D01*
G01*
X35434Y15066D02*
G03*
X35434Y15066I-79J0D01*
G01*
X35513D02*
G03*
X35513Y15066I-157J0D01*
G01*
X35434Y15706D02*
G03*
X35434Y15706I-79J0D01*
G01*
X35513D02*
G03*
X35513Y15706I-157J0D01*
G01*
X4978Y4366D02*
G03*
X4978Y4366I-116J0D01*
G01*
X5057D02*
G03*
X5057Y4366I-116J0D01*
G01*
X20709Y2539D02*
G03*
X20709Y2539I-116J0D01*
G01*
X20630D02*
G03*
X20630Y2539I-116J0D01*
G01*
D71*
X35454Y12681D02*
G03*
X35454Y12681I-98J0D01*
G01*
D72*
X34564Y9306D02*
D03*
X34018Y9310D02*
D03*
D73*
X4902Y4974D02*
D03*
Y4366D02*
D03*
X20553Y2539D02*
D03*
D74*
X41386Y14067D02*
D03*
X41610D02*
D03*
X40350Y14272D02*
D03*
X40574D02*
D03*
Y13838D02*
D03*
X40350D02*
D03*
X40498Y13612D02*
D03*
X40722D02*
D03*
X10236Y17860D02*
D03*
X8523Y21579D02*
D03*
X19002Y3458D02*
D03*
X19226D02*
D03*
X19002Y4360D02*
D03*
X19226D02*
D03*
X19002Y3849D02*
D03*
X19226D02*
D03*
X19002Y4104D02*
D03*
X19226D02*
D03*
X9692Y22043D02*
D03*
X9467D02*
D03*
X40350Y14067D02*
D03*
X40574D02*
D03*
X12914Y9950D02*
D03*
X12689D02*
D03*
X12914Y10200D02*
D03*
X12689D02*
D03*
X8557Y16501D02*
D03*
X8332D02*
D03*
X10281Y20664D02*
D03*
X10506D02*
D03*
X9779D02*
D03*
X10004D02*
D03*
X6139Y6500D02*
D03*
X6364D02*
D03*
Y6700D02*
D03*
X6139D02*
D03*
X10004Y20260D02*
D03*
X9779D02*
D03*
X5342Y4974D02*
D03*
X5567D02*
D03*
X12689Y9200D02*
D03*
X12914D02*
D03*
X12689Y9450D02*
D03*
X12914D02*
D03*
X12689Y9700D02*
D03*
X12914D02*
D03*
X12689Y8950D02*
D03*
X12914D02*
D03*
Y8700D02*
D03*
X12689D02*
D03*
X10541Y6570D02*
D03*
X10766D02*
D03*
X40766Y14067D02*
D03*
X40990D02*
D03*
X10461Y17860D02*
D03*
X10004Y20024D02*
D03*
X9779D02*
D03*
X6139Y6300D02*
D03*
X6364D02*
D03*
X8748Y21579D02*
D03*
X4423Y11427D02*
D03*
X4199D02*
D03*
X9496Y7935D02*
D03*
X9272D02*
D03*
X10769Y6330D02*
D03*
X10544D02*
D03*
X35260Y9410D02*
D03*
X35035D02*
D03*
X6852Y5315D02*
D03*
X7076D02*
D03*
X6852Y6131D02*
D03*
X7076D02*
D03*
X6852Y7245D02*
D03*
X7076D02*
D03*
X37810Y15527D02*
D03*
X38034D02*
D03*
X39594Y12428D02*
D03*
X39370D02*
D03*
X40350Y14468D02*
D03*
X40574D02*
D03*
X38360Y15527D02*
D03*
X38585D02*
D03*
D75*
X41811Y14067D02*
D03*
Y14291D02*
D03*
X11202Y3688D02*
D03*
X4252Y20589D02*
D03*
Y20365D02*
D03*
X10009Y21121D02*
D03*
Y20896D02*
D03*
X40442Y17220D02*
D03*
Y16996D02*
D03*
X7076Y19363D02*
D03*
Y19588D02*
D03*
X7330Y19363D02*
D03*
Y19588D02*
D03*
X42055Y23412D02*
D03*
Y23188D02*
D03*
X39955Y23412D02*
D03*
Y23188D02*
D03*
X7706Y9961D02*
D03*
Y10185D02*
D03*
X6562Y5505D02*
D03*
Y5280D02*
D03*
X32123Y10042D02*
D03*
Y9817D02*
D03*
X40442Y17499D02*
D03*
Y17724D02*
D03*
X32120Y10330D02*
D03*
Y10555D02*
D03*
X10417Y5337D02*
D03*
Y5112D02*
D03*
X11202Y3912D02*
D03*
X42055Y22112D02*
D03*
Y21888D02*
D03*
X39955Y22112D02*
D03*
Y21888D02*
D03*
X38832Y16379D02*
D03*
Y16154D02*
D03*
X10703Y21121D02*
D03*
Y20896D02*
D03*
X8188Y9474D02*
D03*
Y9698D02*
D03*
X9783Y20896D02*
D03*
Y21121D02*
D03*
X3868Y10498D02*
D03*
Y10722D02*
D03*
X43260Y13923D02*
D03*
Y13699D02*
D03*
X10274Y8167D02*
D03*
Y7942D02*
D03*
X10594Y7122D02*
D03*
Y7347D02*
D03*
X9584Y4312D02*
D03*
Y4537D02*
D03*
X10811Y7347D02*
D03*
Y7122D02*
D03*
X3632Y10722D02*
D03*
Y10498D02*
D03*
X8149Y19556D02*
D03*
Y19331D02*
D03*
X8304Y4312D02*
D03*
Y4537D02*
D03*
X9638Y9961D02*
D03*
Y10185D02*
D03*
Y9474D02*
D03*
Y9698D02*
D03*
X8188Y9961D02*
D03*
Y10185D02*
D03*
X38832Y15749D02*
D03*
Y15524D02*
D03*
X41195Y14067D02*
D03*
Y13843D02*
D03*
X37212Y13214D02*
D03*
Y13439D02*
D03*
X40222Y15279D02*
D03*
Y15054D02*
D03*
X39092Y16154D02*
D03*
Y16379D02*
D03*
D76*
X40012Y13909D02*
D03*
X37630Y14854D02*
D03*
Y14697D02*
D03*
Y14539D02*
D03*
Y14382D02*
D03*
Y14224D02*
D03*
Y14067D02*
D03*
Y13909D02*
D03*
Y13752D02*
D03*
Y13594D02*
D03*
Y13437D02*
D03*
Y13280D02*
D03*
Y13122D02*
D03*
X40012D02*
D03*
Y13280D02*
D03*
Y13437D02*
D03*
Y13594D02*
D03*
Y13752D02*
D03*
Y14067D02*
D03*
Y14224D02*
D03*
Y14382D02*
D03*
Y14539D02*
D03*
Y14697D02*
D03*
Y14854D02*
D03*
D77*
X9790Y17705D02*
D03*
X9790Y18197D02*
D03*
X4652Y20477D02*
D03*
Y19945D02*
D03*
X7244Y8780D02*
D03*
Y8249D02*
D03*
X6784Y8780D02*
D03*
Y8249D02*
D03*
X9790Y18729D02*
D03*
X9790Y17174D02*
D03*
D78*
X6204Y18290D02*
D03*
X3455Y7304D02*
D03*
X2923D02*
D03*
X8344Y22323D02*
D03*
X8876Y22323D02*
D03*
X38348Y16047D02*
D03*
X37816D02*
D03*
X10904Y19190D02*
D03*
X10372D02*
D03*
X9813Y16609D02*
D03*
X9281D02*
D03*
X5672Y18290D02*
D03*
D79*
X9013Y17951D02*
D03*
X7083Y18148D02*
D03*
Y17361D02*
D03*
Y17557D02*
D03*
Y17754D02*
D03*
Y17951D02*
D03*
Y18345D02*
D03*
Y18542D02*
D03*
Y18739D02*
D03*
X9013D02*
D03*
Y18542D02*
D03*
Y18345D02*
D03*
Y18148D02*
D03*
Y17754D02*
D03*
Y17557D02*
D03*
Y17361D02*
D03*
D80*
X16825Y19000D02*
D03*
Y14000D02*
D03*
Y9000D02*
D03*
Y11000D02*
D03*
X17825D02*
D03*
Y9000D02*
D03*
X16825Y16000D02*
D03*
X17825D02*
D03*
Y14000D02*
D03*
X16825Y21000D02*
D03*
X17825D02*
D03*
Y19000D02*
D03*
X24325Y11000D02*
D03*
Y9000D02*
D03*
X23325Y11000D02*
D03*
Y9000D02*
D03*
X22325Y11000D02*
D03*
Y9000D02*
D03*
X20325Y11000D02*
D03*
X21325D02*
D03*
Y9000D02*
D03*
X20325D02*
D03*
X25325Y11000D02*
D03*
Y9000D02*
D03*
X26325Y11000D02*
D03*
Y9000D02*
D03*
X27325Y11000D02*
D03*
Y9000D02*
D03*
X28325Y11000D02*
D03*
Y9000D02*
D03*
X29325Y11000D02*
D03*
Y9000D02*
D03*
X24325Y16000D02*
D03*
Y14000D02*
D03*
X23325Y16000D02*
D03*
Y14000D02*
D03*
X22325Y16000D02*
D03*
Y14000D02*
D03*
X20325Y16000D02*
D03*
X21325D02*
D03*
Y14000D02*
D03*
X20325D02*
D03*
X25325Y16000D02*
D03*
Y14000D02*
D03*
X26325Y16000D02*
D03*
Y14000D02*
D03*
X27325Y16000D02*
D03*
Y14000D02*
D03*
X28325Y16000D02*
D03*
Y14000D02*
D03*
X29325Y16000D02*
D03*
Y14000D02*
D03*
X24325Y21000D02*
D03*
Y19000D02*
D03*
X23325Y21000D02*
D03*
Y19000D02*
D03*
X22325Y21000D02*
D03*
Y19000D02*
D03*
X20325Y21000D02*
D03*
X21325D02*
D03*
Y19000D02*
D03*
X20325D02*
D03*
X25325Y21000D02*
D03*
Y19000D02*
D03*
X26325Y21000D02*
D03*
Y19000D02*
D03*
X27325Y21000D02*
D03*
Y19000D02*
D03*
X28325Y21000D02*
D03*
Y19000D02*
D03*
X29325Y21000D02*
D03*
Y19000D02*
D03*
D81*
X7500Y20664D02*
D03*
D82*
X8523Y21195D02*
D03*
Y20132D02*
D03*
X8897D02*
D03*
X9271D02*
D03*
Y21195D02*
D03*
D83*
X10613Y817D02*
D03*
X8613D02*
D03*
X9113D02*
D03*
X9613D02*
D03*
X10113D02*
D03*
X10613Y1317D02*
D03*
X10113D02*
D03*
X9613D02*
D03*
X9113D02*
D03*
X8613D02*
D03*
D84*
X2947Y8242D02*
D03*
Y8557D02*
D03*
Y10761D02*
D03*
Y10446D02*
D03*
D85*
Y8813D02*
D03*
Y9009D02*
D03*
Y9206D02*
D03*
Y9403D02*
D03*
Y9600D02*
D03*
Y9797D02*
D03*
Y9994D02*
D03*
Y10191D02*
D03*
D86*
X4165Y9797D02*
D03*
X4559D02*
D03*
X4165Y9600D02*
D03*
X4559D02*
D03*
D87*
X9692Y22333D02*
D03*
X9318D02*
D03*
D88*
X38121Y10886D02*
D03*
X37875D02*
D03*
X21926Y3936D02*
D03*
X21680D02*
D03*
X39091Y9658D02*
D03*
X38845D02*
D03*
X39091Y10274D02*
D03*
X38845D02*
D03*
X39091Y10886D02*
D03*
X38845D02*
D03*
X33205Y11416D02*
D03*
X33451D02*
D03*
X33205Y10808D02*
D03*
X33451D02*
D03*
X33205Y10191D02*
D03*
X33451D02*
D03*
X34391Y10195D02*
D03*
X34145D02*
D03*
X37875Y10274D02*
D03*
X38121D02*
D03*
X34391Y11416D02*
D03*
X34145D02*
D03*
X34391Y10805D02*
D03*
X34145D02*
D03*
X37875Y9658D02*
D03*
X38121D02*
D03*
X35954Y15189D02*
D03*
Y14943D02*
D03*
Y15583D02*
D03*
Y15829D02*
D03*
X35231Y15066D02*
D03*
X35477D02*
D03*
X35231Y15706D02*
D03*
X35477D02*
D03*
D89*
X11233Y8049D02*
D03*
X11685D02*
D03*
Y7478D02*
D03*
X11233D02*
D03*
X40716Y15732D02*
D03*
X41168D02*
D03*
Y15161D02*
D03*
X40716D02*
D03*
D90*
X34678Y15669D02*
D03*
Y15098D02*
D03*
D91*
X8737Y17085D02*
D03*
X8540D02*
D03*
X8343D02*
D03*
X8146D02*
D03*
X7950D02*
D03*
X7753D02*
D03*
X7556D02*
D03*
X7359D02*
D03*
Y19014D02*
D03*
X7556D02*
D03*
X7753D02*
D03*
X7950D02*
D03*
X8146D02*
D03*
X8343D02*
D03*
X8540D02*
D03*
X8737D02*
D03*
D92*
X8048Y18050D02*
D03*
D93*
X37219Y9868D02*
D03*
Y10368D02*
D03*
Y10868D02*
D03*
Y11368D02*
D03*
X35038Y9868D02*
D03*
Y10368D02*
D03*
Y10868D02*
D03*
Y11368D02*
D03*
D94*
X36128Y10618D02*
D03*
D95*
X9952Y9586D02*
D03*
X10110D02*
D03*
X10267D02*
D03*
X10425D02*
D03*
Y10078D02*
D03*
X10267D02*
D03*
X10110D02*
D03*
X9952D02*
D03*
X8502Y9586D02*
D03*
X8660D02*
D03*
X8817D02*
D03*
X8975D02*
D03*
Y10078D02*
D03*
X8817D02*
D03*
X8660D02*
D03*
X8502D02*
D03*
D96*
X20228Y4094D02*
D03*
Y3937D02*
D03*
Y3780D02*
D03*
Y3622D02*
D03*
X20878D02*
D03*
Y3780D02*
D03*
Y3937D02*
D03*
Y4094D02*
D03*
X18480Y12652D02*
D03*
Y12495D02*
D03*
Y12337D02*
D03*
Y12180D02*
D03*
X19130D02*
D03*
Y12337D02*
D03*
Y12495D02*
D03*
Y12652D02*
D03*
X18479Y17705D02*
D03*
Y17548D02*
D03*
Y17390D02*
D03*
Y17233D02*
D03*
X19128D02*
D03*
Y17390D02*
D03*
Y17548D02*
D03*
Y17705D02*
D03*
D97*
X20317Y3376D02*
D03*
X20474D02*
D03*
X20632D02*
D03*
X20789D02*
D03*
Y4341D02*
D03*
X20632D02*
D03*
X20474D02*
D03*
X20317D02*
D03*
X18569Y11934D02*
D03*
X18726D02*
D03*
X18884D02*
D03*
X19041D02*
D03*
Y12898D02*
D03*
X18884D02*
D03*
X18726D02*
D03*
X18569D02*
D03*
X18567Y16987D02*
D03*
X18725D02*
D03*
X18882D02*
D03*
X19040D02*
D03*
Y17951D02*
D03*
X18882D02*
D03*
X18725D02*
D03*
X18567D02*
D03*
D98*
X7504Y7506D02*
D03*
Y4986D02*
D03*
X10024D02*
D03*
Y7506D02*
D03*
D99*
X9630D02*
D03*
X9788Y4986D02*
D03*
X9630D02*
D03*
X9866Y5143D02*
D03*
Y7348D02*
D03*
X7504Y5222D02*
D03*
X9473Y4986D02*
D03*
X9315D02*
D03*
X9158D02*
D03*
X9000D02*
D03*
X8843D02*
D03*
X8685D02*
D03*
X8528D02*
D03*
X8370D02*
D03*
X8213D02*
D03*
X8055D02*
D03*
X7898D02*
D03*
X7740D02*
D03*
X9709Y5143D02*
D03*
X9551D02*
D03*
X9394D02*
D03*
X9236D02*
D03*
X9079D02*
D03*
X8921D02*
D03*
X8764D02*
D03*
X8606D02*
D03*
X8449D02*
D03*
X8291D02*
D03*
X8134D02*
D03*
X7976D02*
D03*
X7819D02*
D03*
X7662D02*
D03*
Y5301D02*
D03*
Y5458D02*
D03*
X7504Y5380D02*
D03*
Y5537D02*
D03*
X7662Y5616D02*
D03*
X10024Y5695D02*
D03*
X7504D02*
D03*
X7662Y5773D02*
D03*
X10024Y5852D02*
D03*
X7504D02*
D03*
X7662Y5931D02*
D03*
X10024Y6010D02*
D03*
X7504D02*
D03*
X7662Y6088D02*
D03*
X10024Y6167D02*
D03*
X7504D02*
D03*
X7662Y6246D02*
D03*
X10024Y6325D02*
D03*
X7504D02*
D03*
X7662Y6403D02*
D03*
X10024Y6482D02*
D03*
X7504D02*
D03*
X7662Y6561D02*
D03*
X10024Y6640D02*
D03*
X7504D02*
D03*
X7662Y6718D02*
D03*
X10024Y6797D02*
D03*
X7504D02*
D03*
X7662Y6876D02*
D03*
X10024Y6954D02*
D03*
X7504D02*
D03*
X7662Y7033D02*
D03*
X10024Y7112D02*
D03*
X7504D02*
D03*
X7662Y7191D02*
D03*
X10024Y7269D02*
D03*
X7504D02*
D03*
X9236Y7348D02*
D03*
X9079D02*
D03*
X8921D02*
D03*
X8764D02*
D03*
X8606D02*
D03*
X8449D02*
D03*
X8291D02*
D03*
X8134D02*
D03*
X7976D02*
D03*
X7819D02*
D03*
X7662D02*
D03*
X9473Y7506D02*
D03*
X9315D02*
D03*
X9158D02*
D03*
X9000D02*
D03*
X8843D02*
D03*
X8685D02*
D03*
X8528D02*
D03*
X7898D02*
D03*
X9394Y7348D02*
D03*
X9551D02*
D03*
X9709D02*
D03*
X10024Y5537D02*
D03*
Y5380D02*
D03*
Y5222D02*
D03*
D100*
X8843Y6246D02*
D03*
D101*
X37955Y12797D02*
D03*
X38112D02*
D03*
X38270D02*
D03*
X38427D02*
D03*
X38585D02*
D03*
X38742D02*
D03*
X38900D02*
D03*
X39057D02*
D03*
X39215D02*
D03*
X39372D02*
D03*
X39530D02*
D03*
X39687D02*
D03*
Y15179D02*
D03*
X39530D02*
D03*
X39372D02*
D03*
X39215D02*
D03*
X39057D02*
D03*
X38900D02*
D03*
X38742D02*
D03*
X38585D02*
D03*
X38427D02*
D03*
X38270D02*
D03*
X38112D02*
D03*
X37955D02*
D03*
D102*
X38821Y13988D02*
D03*
D103*
X14694Y1769D02*
D03*
D104*
X37324Y2582D02*
D03*
Y1007D02*
D03*
X39982Y2582D02*
D03*
Y1007D02*
D03*
X33284Y2582D02*
D03*
Y1007D02*
D03*
X35942Y2582D02*
D03*
Y1007D02*
D03*
X37324Y6322D02*
D03*
Y4747D02*
D03*
X39982Y6322D02*
D03*
Y4747D02*
D03*
X33284Y6322D02*
D03*
Y4747D02*
D03*
X35942Y6322D02*
D03*
Y4747D02*
D03*
X773Y6337D02*
D03*
Y4763D02*
D03*
X3430Y6337D02*
D03*
Y4763D02*
D03*
D105*
X3158Y21846D02*
D03*
Y23814D02*
D03*
Y22830D02*
D03*
X402D02*
D03*
Y23814D02*
D03*
Y21846D02*
D03*
D106*
X35619Y14106D02*
D03*
X36013D02*
D03*
X35619Y14470D02*
D03*
X36013D02*
D03*
X10482Y22333D02*
D03*
X10876D02*
D03*
D107*
X34118Y20946D02*
D03*
Y20553D02*
D03*
X34490Y20946D02*
D03*
Y20553D02*
D03*
D108*
X41411Y17728D02*
D03*
X40821D02*
D03*
Y17020D02*
D03*
X41411D02*
D03*
X31746Y10545D02*
D03*
X31155D02*
D03*
Y9836D02*
D03*
X31746D02*
D03*
X12270Y7407D02*
D03*
X12860D02*
D03*
Y8116D02*
D03*
X12270D02*
D03*
D109*
X41116Y17728D02*
D03*
Y17020D02*
D03*
X31450Y10545D02*
D03*
Y9836D02*
D03*
X12565Y7407D02*
D03*
Y8116D02*
D03*
D110*
X5104Y2539D02*
D03*
X5604D02*
D03*
X6104D02*
D03*
X6604D02*
D03*
X7104D02*
D03*
X5104Y1004D02*
D03*
X5604D02*
D03*
X6104D02*
D03*
X6604D02*
D03*
X7104D02*
D03*
X23826Y1004D02*
D03*
X23326D02*
D03*
X22826D02*
D03*
X22326D02*
D03*
X21826D02*
D03*
X23826Y2539D02*
D03*
X23326D02*
D03*
X22826D02*
D03*
X22326D02*
D03*
X21826D02*
D03*
X24326D02*
D03*
X24826D02*
D03*
X25326D02*
D03*
X25826D02*
D03*
X26326D02*
D03*
X24326Y1004D02*
D03*
X24826D02*
D03*
X25326D02*
D03*
X25826D02*
D03*
X26326D02*
D03*
X21826Y2539D02*
D03*
X22326D02*
D03*
X22826D02*
D03*
X23326D02*
D03*
X23826D02*
D03*
X21826Y1004D02*
D03*
X22326D02*
D03*
X22826D02*
D03*
X23326D02*
D03*
X23826D02*
D03*
D111*
X12170Y24437D02*
D03*
Y23284D02*
D03*
X10170D02*
D03*
Y24437D02*
D03*
X11170D02*
D03*
Y23284D02*
D03*
D112*
X41080Y22000D02*
D03*
X41630D02*
D03*
X38980D02*
D03*
X39530D02*
D03*
X41080Y23300D02*
D03*
X41630D02*
D03*
X38980D02*
D03*
X39530D02*
D03*
X12127Y3800D02*
D03*
X11577D02*
D03*
D113*
X10380Y18460D02*
D03*
X11076D02*
D03*
D114*
X10531Y17410D02*
D03*
Y16713D02*
D03*
D115*
X33555Y22817D02*
D03*
X35051D02*
D03*
D116*
X34106Y21911D02*
D03*
X34303D02*
D03*
X34500D02*
D03*
X34697D02*
D03*
X33909D02*
D03*
D117*
X42148Y13663D02*
D03*
Y14470D02*
D03*
X42896D02*
D03*
Y13663D02*
D03*
D118*
X42065Y14067D02*
D03*
X42978D02*
D03*
D119*
X43309Y24213D02*
D03*
Y787D02*
D03*
X789Y787D02*
D03*
D120*
X4518Y10571D02*
D03*
Y10945D02*
D03*
D121*
X4173Y10561D02*
D03*
Y10955D02*
D03*
X36688Y13447D02*
D03*
Y13053D02*
D03*
X7794Y8348D02*
D03*
Y8741D02*
D03*
X9824Y8008D02*
D03*
Y8401D02*
D03*
X9134Y8632D02*
D03*
Y8238D02*
D03*
X37432Y15700D02*
D03*
Y16093D02*
D03*
X37102Y15700D02*
D03*
Y16093D02*
D03*
D122*
X8541Y8225D02*
D03*
X8147D02*
D03*
X8721Y8565D02*
D03*
X8327D02*
D03*
X6175Y17840D02*
D03*
X5781D02*
D03*
X34115Y21308D02*
D03*
X33721D02*
D03*
X34883D02*
D03*
X34490D02*
D03*
D123*
X7263Y20664D02*
D03*
D124*
X2526Y8364D02*
D03*
Y10639D02*
D03*
D125*
X1069Y7799D02*
D03*
Y11204D02*
D03*
D126*
X2715D02*
D03*
Y7799D02*
D03*
D127*
X37218Y18457D02*
D03*
X38218D02*
D03*
D128*
X36218D02*
D03*
D129*
X8113Y1067D02*
D03*
X11113Y1467D02*
D03*
Y667D02*
D03*
D130*
X44529Y23031D02*
D03*
X41734Y1969D02*
D03*
X17325Y1969D02*
D03*
X4962Y23031D02*
D03*
X3151Y1969D02*
D03*
X17325Y23031D02*
D03*
D131*
X8048Y18050D02*
D03*
Y17577D02*
D03*
X8520D02*
D03*
Y18050D02*
D03*
Y18522D02*
D03*
X8048D02*
D03*
X7576D02*
D03*
Y18050D02*
D03*
Y17577D02*
D03*
M02*
