G04 ================== begin FILE IDENTIFICATION RECORD ==================*
G04 Layout Name:  E:/nn/GERBER/BOARD/SENTINEL_FALL_V01.brd*
G04 Film Name:    SPB*
G04 File Format:  Gerber RS274X*
G04 File Origin:  Cadence Allegro 17.2-S083*
G04 Origin Date:  Tue Apr 08 22:19:01 2025*
G04 *
G04 Layer:  PIN/PASTEMASK_BOTTOM*
G04 Layer:  PACKAGE GEOMETRY/PASTEMASK_BOTTOM*
G04 Layer:  BOARD GEOMETRY/OUTLINE*
G04 Layer:  BOARD GEOMETRY/BOARD_ NAME*
G04 *
G04 Offset:    (0.000 0.000)*
G04 Mirror:    No*
G04 Mode:      Positive*
G04 Rotation:  0*
G04 FullContactRelief:  No*
G04 UndefLineWidth:     7.000*
G04 ================== end FILE IDENTIFICATION RECORD ====================*
%FSLAX55Y55*MOIN*%
%IR0*IPPOS*OFA0.00000B0.00000*MIA0B0*SFA1.00000B1.00000*%
%ADD20R,.135X.095*%
%AMMACRO12*
4,1,40,-.030512,.03824,
-.030512,-.03824,
-.030393,-.039567,
-.030046,-.040853,
-.02948,-.042059,
-.028714,-.043148,
-.02777,-.044088,
-.026678,-.04485,
-.025469,-.045411,
-.024182,-.045753,
-.022886,-.045866,
.022886,-.045866,
.024213,-.045747,
.025499,-.0454,
.026705,-.044834,
.027794,-.044068,
.028734,-.043124,
.029496,-.042032,
.030057,-.040823,
.030399,-.039536,
.030512,-.03824,
.030512,.03824,
.030393,.039567,
.030046,.040853,
.02948,.042059,
.028714,.043148,
.02777,.044088,
.026678,.04485,
.025469,.045411,
.024182,.045753,
.022886,.045866,
-.022886,.045866,
-.024213,.045747,
-.025499,.0454,
-.026705,.044834,
-.027794,.044068,
-.028734,.043124,
-.029496,.042032,
-.030057,.040823,
-.030399,.039536,
-.030512,.03824,
0.0*
%
%ADD12MACRO12*%
%ADD18O,.011X.034*%
%ADD17O,.034X.011*%
%ADD14R,.071X.063*%
%ADD11R,.063X.071*%
%ADD10C,.04*%
%ADD13R,.051X.059*%
%ADD15R,.0485X.0235*%
%ADD19R,.097X.097*%
%ADD16R,.03937X.03937*%
%ADD21C,.007087*%
%ADD22C,.007*%
G75*
%LPD*%
G75*
G54D10*
X38500Y10000D03*
Y321500D03*
X198500Y10000D03*
G54D11*
X35088Y137200D03*
X46112D03*
X72788Y147100D03*
Y137200D03*
X83812Y147100D03*
Y137200D03*
X112288Y250700D03*
X123312D03*
X112288Y241200D03*
X123312D03*
Y231600D03*
X112288D03*
G54D20*
X171100Y198600D03*
Y221600D03*
G54D21*
G01X1627Y347098D02*
Y351098D01*
X2827D01*
X3227Y350898D01*
X3527Y350431D01*
X3627Y349898D01*
X3527Y349364D01*
X3277Y348964D01*
X2827Y348764D01*
X1627D01*
G01X5086Y347098D02*
X6336Y351098D01*
X7586Y347098D01*
G01X7136Y348498D02*
X5536D01*
G01X8995Y347631D02*
X9395Y347298D01*
X9845Y347098D01*
X10245D01*
X10645Y347298D01*
X10945Y347631D01*
X11095Y348098D01*
X10995Y348564D01*
X10745Y348964D01*
X10295Y349231D01*
X9695Y349364D01*
X9345Y349631D01*
X9195Y350098D01*
X9295Y350564D01*
X9545Y350898D01*
X9895Y351098D01*
X10245D01*
X10595Y350964D01*
X10895Y350631D01*
G01X13753Y351098D02*
Y347098D01*
G01X12603Y351098D02*
X14903D01*
G01X18462Y347098D02*
X16462D01*
Y351098D01*
X18462D01*
G01X17662Y349164D02*
X16462D01*
G01X19871Y347098D02*
Y351098D01*
X21171Y347764D01*
X22471Y351098D01*
Y347098D01*
G01X23629D02*
X24879Y351098D01*
X26130Y347098D01*
G01X25679Y348498D02*
X24079D01*
G01X27538Y347631D02*
X27938Y347298D01*
X28388Y347098D01*
X28788D01*
X29188Y347298D01*
X29488Y347631D01*
X29638Y348098D01*
X29538Y348564D01*
X29288Y348964D01*
X28838Y349231D01*
X28238Y349364D01*
X27888Y349631D01*
X27738Y350098D01*
X27838Y350564D01*
X28088Y350898D01*
X28438Y351098D01*
X28788D01*
X29138Y350964D01*
X29438Y350631D01*
G01X31197Y347098D02*
Y351098D01*
G01X33097D02*
X31197Y348631D01*
G01X33397Y347098D02*
X32047Y349764D01*
G01X34506Y345764D02*
X37506D01*
G01X40114Y349231D02*
X40314Y349431D01*
X40464Y349764D01*
X40564Y350231D01*
X40464Y350631D01*
X40264Y350898D01*
X39914Y351098D01*
X38564D01*
Y347098D01*
X40214D01*
X40564Y347364D01*
X40764Y347764D01*
X40864Y348231D01*
X40764Y348698D01*
X40464Y349098D01*
X40114Y349231D01*
X38564D01*
G01X43423Y347098D02*
X43023Y347164D01*
X42673Y347431D01*
X42373Y347831D01*
X42173Y348298D01*
X42073Y348831D01*
Y349364D01*
X42173Y349898D01*
X42373Y350364D01*
X42673Y350764D01*
X43023Y351031D01*
X43423Y351098D01*
X43823Y351031D01*
X44173Y350764D01*
X44473Y350364D01*
X44673Y349898D01*
X44773Y349364D01*
Y348831D01*
X44673Y348298D01*
X44473Y347831D01*
X44173Y347431D01*
X43823Y347164D01*
X43423Y347098D01*
G01X47132Y351098D02*
Y347098D01*
G01X45982Y351098D02*
X48282D01*
G01X50840D02*
Y347098D01*
G01X49690Y351098D02*
X51990D01*
G01X54549Y347098D02*
X54149Y347164D01*
X53799Y347431D01*
X53499Y347831D01*
X53299Y348298D01*
X53199Y348831D01*
Y349364D01*
X53299Y349898D01*
X53499Y350364D01*
X53799Y350764D01*
X54149Y351031D01*
X54549Y351098D01*
X54949Y351031D01*
X55299Y350764D01*
X55599Y350364D01*
X55799Y349898D01*
X55899Y349364D01*
Y348831D01*
X55799Y348298D01*
X55599Y347831D01*
X55299Y347431D01*
X54949Y347164D01*
X54549Y347098D01*
G01X56958D02*
Y351098D01*
X58258Y347764D01*
X59558Y351098D01*
Y347098D01*
G54D12*
X46000Y153694D03*
Y170506D03*
G54D22*
G01X0Y0D02*
X236213D01*
Y335275D01*
X0D01*
Y0D01*
G54D13*
X63440Y137200D03*
X55960D03*
X174840Y242100D03*
X167360D03*
X174840Y233800D03*
X167360D03*
X174840Y250521D03*
X167360D03*
G54D14*
X79700Y174212D03*
Y163188D03*
X103300Y206788D03*
Y217812D03*
X101967Y281288D03*
Y292312D03*
X123800Y40088D03*
X113500Y51112D03*
Y62135D03*
X123800Y51112D03*
X131800Y206788D03*
Y217812D03*
X112800D03*
Y206788D03*
X122300Y217812D03*
Y206788D03*
X129200Y270912D03*
Y259888D03*
X113778Y281288D03*
Y292312D03*
X150800Y217812D03*
Y206788D03*
X141347D03*
Y217812D03*
X138700Y259888D03*
Y270912D03*
X148200D03*
Y259888D03*
X157800Y270912D03*
Y259888D03*
X165710Y281288D03*
Y292312D03*
X177521Y281288D03*
Y292312D03*
X193000Y222488D03*
X204200Y213012D03*
Y201988D03*
X193000Y233512D03*
G54D15*
X67295Y166665D03*
X58949Y170406D03*
X67295Y174146D03*
G54D16*
X153290Y38513D03*
X135967D03*
X153290Y51112D03*
X135967D03*
X150928Y65439D03*
X138329D03*
Y82761D03*
X150928D03*
X179399Y36039D03*
X166801D03*
Y53361D03*
X179399D03*
X164439Y67801D03*
X181761D03*
X164439Y80399D03*
X181761D03*
G54D17*
X139582Y234179D03*
X154818Y244021D03*
Y242053D03*
Y240084D03*
Y238116D03*
Y236147D03*
Y234179D03*
X139582Y236147D03*
Y238116D03*
Y240084D03*
Y242053D03*
Y244021D03*
G54D18*
X148184Y246718D03*
X150153D03*
X152121D03*
Y231482D03*
X150153D03*
X148184D03*
X146216D03*
X144247D03*
X142279D03*
Y246718D03*
X144247D03*
X146216D03*
G54D19*
X147200Y239100D03*
M02*
