G04 ================== begin FILE IDENTIFICATION RECORD ==================*
G04 Layout Name:  E:/nn/GERBER/BOARD/SENTINEL_FALL_V01.brd*
G04 Film Name:    AST*
G04 File Format:  Gerber RS274X*
G04 File Origin:  Cadence Allegro 17.2-S083*
G04 Origin Date:  Tue Apr 08 22:19:01 2025*
G04 *
G04 Layer:  REF DES/SILKSCREEN_TOP*
G04 Layer:  BOARD GEOMETRY/AST*
G04 Layer:  BOARD GEOMETRY/BOARD_ NAME*
G04 Layer:  PACKAGE GEOMETRY/ASSEMBLY_TOP*
G04 Layer:  BOARD GEOMETRY/OUTLINE*
G04 *
G04 Offset:    (0.000 0.000)*
G04 Mirror:    No*
G04 Mode:      Positive*
G04 Rotation:  0*
G04 FullContactRelief:  No*
G04 UndefLineWidth:     7.000*
G04 ================== end FILE IDENTIFICATION RECORD ====================*
%FSLAX55Y55*MOIN*%
%IR0*IPPOS*OFA0.00000B0.00000*MIA0B0*SFA1.00000B1.00000*%
%ADD10C,.005*%
%ADD11C,.00709*%
%ADD12C,.007091*%
%ADD13C,.003937*%
%ADD14C,.007087*%
%ADD15C,.007*%
G75*
%LPD*%
G75*
G36*
G01X40996Y22575D02*
G03I-2000J0D01*
G37*
G36*
G01X43281Y92813D02*
G03I-1118J0D01*
G37*
G36*
G01X38419Y257300D02*
G03I-1500J0D01*
G37*
G36*
G01X57914Y36500D02*
G03I-1414J0D01*
G37*
G36*
G01X59118Y247500D02*
G03I-1118J0D01*
G37*
G36*
G01X58714Y321300D02*
G03I-1414J0D01*
G37*
G36*
G01X107514Y212800D02*
G03I-1414J0D01*
G37*
G36*
G01X110500Y32000D02*
G03I-1000J0D01*
G37*
G36*
G01X123357Y301100D02*
G03I-1500J0D01*
G37*
G36*
G01X149500Y4500D02*
G03I-2000J0D01*
G37*
G36*
G01X175603Y93700D02*
G03I-1803J0D01*
G37*
G36*
G01X185814Y184900D02*
G03I-1414J0D01*
G37*
G36*
G01X169514Y213100D02*
G03I-1414J0D01*
G37*
G36*
G01X174318Y278700D02*
G03I-1118J0D01*
G37*
G36*
G01X203546Y193284D02*
G03I-1420J0D01*
G37*
G36*
G01X188100Y303100D02*
G03I-1500J0D01*
G37*
G36*
G01X235300Y105000D02*
G03I-2000J0D01*
G37*
G54D10*
G01X56822Y162100D02*
G03I-23622J0D01*
G01X32797Y231749D02*
Y262851D01*
X2876D01*
Y231749D01*
X32797D01*
G01X46852Y95624D02*
X70474D01*
Y72002D01*
X46852D01*
Y95624D01*
G01X55700Y142100D02*
X50700D01*
G01X55700Y182100D02*
X50700D01*
G01X48157Y245791D02*
Y257209D01*
X55243D01*
Y245791D01*
X48157D01*
G01X53200Y139600D02*
Y144600D01*
G01X101651Y205249D02*
X70549D01*
Y236351D01*
X101651D01*
Y205249D01*
G01X116574Y34676D02*
X108700D01*
Y40975D01*
X116574D01*
Y34676D01*
G01X133500Y34342D02*
X183500D01*
Y14657D01*
X133500D01*
Y34342D01*
G01X163651Y205549D02*
X132549D01*
Y236651D01*
X163651D01*
Y205549D01*
G01X180137Y290637D02*
Y282763D01*
X172263D01*
Y290637D01*
X180137D01*
G01X203458Y91000D02*
Y141000D01*
X223143D01*
Y91000D01*
X203458D01*
G54D11*
G01X53631Y318324D02*
G03I-3150J0D01*
G01X67750Y255100D02*
G03I-3150J0D01*
G01X120107Y292700D02*
G03I-3150J0D01*
G01X144231Y308188D02*
G03I-3150J0D01*
G01X185650Y299000D02*
G03I-3150J0D01*
G01X196331Y18722D02*
G03I-3150J0D01*
G01X191650Y192500D02*
G03I-3150J0D01*
G01X208150Y284000D02*
G03I-3150J0D01*
G01X228150Y255500D02*
G03I-3150J0D01*
G54D12*
G01X28598Y16000D02*
G03I-12598J0D01*
G01Y319275D02*
G03I-12598J0D01*
G01X1050Y346931D02*
X2300Y350931D01*
X3550Y346931D01*
G01X3100Y348331D02*
X1500D01*
G01X4959Y347464D02*
X5359Y347131D01*
X5809Y346931D01*
X6209D01*
X6609Y347131D01*
X6909Y347464D01*
X7059Y347931D01*
X6959Y348398D01*
X6709Y348798D01*
X6259Y349064D01*
X5659Y349198D01*
X5309Y349464D01*
X5159Y349931D01*
X5259Y350398D01*
X5509Y350731D01*
X5859Y350931D01*
X6209D01*
X6559Y350798D01*
X6859Y350464D01*
G01X8668Y347464D02*
X9068Y347131D01*
X9518Y346931D01*
X9918D01*
X10318Y347131D01*
X10618Y347464D01*
X10768Y347931D01*
X10668Y348398D01*
X10418Y348798D01*
X9968Y349064D01*
X9368Y349198D01*
X9018Y349464D01*
X8868Y349931D01*
X8968Y350398D01*
X9218Y350731D01*
X9568Y350931D01*
X9918D01*
X10268Y350798D01*
X10568Y350464D01*
G01X14427Y346931D02*
X12427D01*
Y350931D01*
X14427D01*
G01X13627Y348998D02*
X12427D01*
G01X15836Y346931D02*
Y350931D01*
X17136Y347598D01*
X18436Y350931D01*
Y346931D01*
G01X21246Y349064D02*
X21446Y349264D01*
X21596Y349598D01*
X21696Y350064D01*
X21596Y350464D01*
X21396Y350731D01*
X21046Y350931D01*
X19696D01*
Y346931D01*
X21346D01*
X21696Y347198D01*
X21896Y347598D01*
X21996Y348064D01*
X21896Y348531D01*
X21596Y348931D01*
X21246Y349064D01*
X19696D01*
G01X23555Y350931D02*
Y346931D01*
X25555D01*
G01X28264D02*
Y348731D01*
X27264Y350931D01*
G01X29264D02*
X28264Y348731D01*
G01X30473Y345598D02*
X33473D01*
G01X35682Y350931D02*
Y346931D01*
G01X34532Y350931D02*
X36832D01*
G01X39391Y346931D02*
X38991Y346998D01*
X38641Y347264D01*
X38341Y347664D01*
X38141Y348131D01*
X38041Y348664D01*
Y349198D01*
X38141Y349731D01*
X38341Y350198D01*
X38641Y350598D01*
X38991Y350864D01*
X39391Y350931D01*
X39791Y350864D01*
X40141Y350598D01*
X40441Y350198D01*
X40641Y349731D01*
X40741Y349198D01*
Y348664D01*
X40641Y348131D01*
X40441Y347664D01*
X40141Y347264D01*
X39791Y346998D01*
X39391Y346931D01*
G01X42100D02*
Y350931D01*
X43300D01*
X43700Y350731D01*
X44000Y350264D01*
X44100Y349731D01*
X44000Y349198D01*
X43750Y348798D01*
X43300Y348598D01*
X42100D01*
G01X232811Y16000D02*
G03I-12598J0D01*
G01Y319275D02*
G03I-12598J0D01*
G54D13*
G01X45996Y16154D02*
Y27996D01*
G01D02*
X107996D01*
G01Y16154D02*
X45996D01*
G01X91258Y335336D02*
X75786D01*
G01X126455Y306399D02*
X91258D01*
Y335336D01*
X126455D01*
Y306399D01*
G01X107996Y27996D02*
Y16154D01*
G01X190198Y306399D02*
X155002D01*
Y335336D01*
X190198D01*
Y306399D01*
G01X155002Y335336D02*
X139529D01*
G01X205354Y203323D02*
X200354Y208323D01*
G01X219646Y203323D02*
X200354D01*
G01Y218677D02*
X219646D01*
G01X200354Y203323D02*
Y218677D01*
G01X219646D02*
Y203323D01*
G54D14*
G01X22741Y39533D02*
X23141Y39200D01*
X23591Y39000D01*
X23991D01*
X24391Y39200D01*
X24691Y39533D01*
X24841Y40000D01*
X24741Y40467D01*
X24491Y40867D01*
X24041Y41133D01*
X23441Y41267D01*
X23091Y41533D01*
X22941Y42000D01*
X23041Y42467D01*
X23291Y42800D01*
X23641Y43000D01*
X23991D01*
X24341Y42867D01*
X24641Y42533D01*
G01X26000Y43000D02*
X26700Y39000D01*
X27500Y43000D01*
X28300Y39000D01*
X29000Y43000D01*
G01X31209Y39000D02*
X31559Y39067D01*
X31959Y39267D01*
X32209Y39600D01*
X32309Y40067D01*
X32209Y40533D01*
X31909Y40933D01*
X31459Y41133D01*
X30959D01*
X30659Y41267D01*
X30409Y41600D01*
X30309Y42067D01*
X30459Y42533D01*
X30809Y42867D01*
X31209Y43000D01*
X31609Y42867D01*
X31959Y42533D01*
X32109Y42067D01*
X32009Y41600D01*
X31759Y41267D01*
X31459Y41133D01*
X30959D01*
X30509Y40933D01*
X30209Y40533D01*
X30109Y40067D01*
X30209Y39600D01*
X30459Y39267D01*
X30859Y39067D01*
X31209Y39000D01*
G01X26391Y48667D02*
X26091Y48867D01*
X25741Y49000D01*
X25341D01*
X24891Y48800D01*
X24541Y48467D01*
X24291Y48067D01*
X24091Y47400D01*
X24041Y46800D01*
X24141Y46200D01*
X24291Y45800D01*
X24591Y45400D01*
X24941Y45133D01*
X25291Y45000D01*
X25641D01*
X25991Y45133D01*
X26291Y45333D01*
X26541Y45600D01*
G01X28900Y45000D02*
X29000Y45867D01*
X29150Y46600D01*
X29350Y47267D01*
X29600Y48000D01*
X30000Y49000D01*
X28000D01*
G01X31609Y45600D02*
X31909Y45267D01*
X32259Y45067D01*
X32709Y45000D01*
X33159Y45133D01*
X33509Y45400D01*
X33759Y45867D01*
X33809Y46400D01*
X33709Y46933D01*
X33459Y47267D01*
X33109Y47533D01*
X32759Y47600D01*
X32409Y47533D01*
X31959Y47267D01*
X32109Y49000D01*
X33459D01*
G01X25350Y66799D02*
X31650D01*
Y54201D01*
X25350D01*
Y66799D01*
G01X9000Y85291D02*
X5000D01*
Y86541D01*
X5200Y86941D01*
X5467Y87191D01*
X6000Y87291D01*
X6533Y87191D01*
X6867Y86891D01*
X7067Y86541D01*
Y85291D01*
G01Y86541D02*
X9000Y87291D01*
G01X8200Y88900D02*
X8667Y89200D01*
X8933Y89600D01*
X9000Y90050D01*
X8933Y90450D01*
X8600Y90850D01*
X8200Y91100D01*
X7800Y91150D01*
X7333Y91050D01*
X7000Y90700D01*
X6867Y90350D01*
Y89900D01*
G01Y90350D02*
X6667Y90650D01*
X6333Y90900D01*
X5933Y91000D01*
X5533Y90900D01*
X5200Y90650D01*
X5000Y90200D01*
X5067Y89750D01*
X5333Y89300D01*
G01X8400Y92609D02*
X8733Y92909D01*
X8933Y93259D01*
X9000Y93709D01*
X8867Y94159D01*
X8600Y94509D01*
X8133Y94759D01*
X7600Y94809D01*
X7067Y94709D01*
X6733Y94459D01*
X6467Y94109D01*
X6400Y93759D01*
X6467Y93409D01*
X6733Y92959D01*
X5000Y93109D01*
Y94459D01*
G01X37899Y91090D02*
Y84791D01*
X25301D01*
Y91090D01*
X37899D01*
G01Y81450D02*
Y75150D01*
X25301D01*
Y81450D01*
X37899D01*
G01X23333Y118891D02*
X23133Y118591D01*
X23000Y118241D01*
Y117841D01*
X23200Y117391D01*
X23533Y117041D01*
X23933Y116791D01*
X24600Y116591D01*
X25200Y116541D01*
X25800Y116641D01*
X26200Y116791D01*
X26600Y117091D01*
X26867Y117441D01*
X27000Y117791D01*
Y118141D01*
X26867Y118491D01*
X26667Y118791D01*
X26400Y119041D01*
G01X23667Y120550D02*
X23267Y120850D01*
X23067Y121200D01*
X23000Y121600D01*
X23133Y122100D01*
X23467Y122450D01*
X23867Y122550D01*
X24267Y122500D01*
X24600Y122300D01*
X25267Y121300D01*
X25733Y120850D01*
X26400Y120550D01*
X27000Y120450D01*
Y122550D01*
G01X25333Y124259D02*
X24867Y124609D01*
X24600Y124909D01*
X24467Y125309D01*
X24600Y125659D01*
X24867Y125909D01*
X25267Y126109D01*
X25733Y126159D01*
X26133Y126109D01*
X26533Y125909D01*
X26867Y125609D01*
X27000Y125259D01*
X26867Y124859D01*
X26467Y124509D01*
X25867Y124309D01*
X25200Y124259D01*
X24333Y124359D01*
X23867Y124509D01*
X23400Y124759D01*
X23067Y125109D01*
X23000Y125459D01*
X23133Y125809D01*
X23467Y126059D01*
G01X28651Y98975D02*
X22352D01*
Y111573D01*
X28651D01*
Y98975D01*
G01X24238Y206458D02*
Y212758D01*
X36837D01*
Y206458D01*
X24238D01*
G01X18146Y226300D02*
X18396Y225900D01*
X18696Y225633D01*
X19046Y225500D01*
X19446Y225633D01*
X19746Y225900D01*
X20046Y226300D01*
X20146Y226833D01*
Y229500D01*
G01X22754Y225500D02*
X22854Y226367D01*
X23004Y227100D01*
X23204Y227767D01*
X23454Y228500D01*
X23854Y229500D01*
X21854D01*
G01X11101Y269650D02*
Y275950D01*
X23699D01*
Y269650D01*
X11101D01*
G01X12791Y293500D02*
Y297500D01*
X14041D01*
X14441Y297300D01*
X14691Y297033D01*
X14791Y296500D01*
X14691Y295967D01*
X14391Y295633D01*
X14041Y295433D01*
X12791D01*
G01X14041D02*
X14791Y293500D01*
G01X18100D02*
Y297500D01*
X16250Y294633D01*
X18750D01*
G01X20109Y294300D02*
X20409Y293833D01*
X20809Y293567D01*
X21259Y293500D01*
X21659Y293567D01*
X22059Y293900D01*
X22309Y294300D01*
X22359Y294700D01*
X22259Y295167D01*
X21909Y295500D01*
X21559Y295633D01*
X21109D01*
G01X21559D02*
X21859Y295833D01*
X22109Y296167D01*
X22209Y296567D01*
X22109Y296967D01*
X21859Y297300D01*
X21409Y297500D01*
X20959Y297433D01*
X20509Y297167D01*
G01X7891Y283167D02*
X7591Y283367D01*
X7241Y283500D01*
X6841D01*
X6391Y283300D01*
X6041Y282967D01*
X5791Y282567D01*
X5591Y281900D01*
X5541Y281300D01*
X5641Y280700D01*
X5791Y280300D01*
X6091Y279900D01*
X6441Y279633D01*
X6791Y279500D01*
X7141D01*
X7491Y279633D01*
X7791Y279833D01*
X8041Y280100D01*
G01X9550Y282833D02*
X9850Y283233D01*
X10200Y283433D01*
X10600Y283500D01*
X11100Y283367D01*
X11450Y283033D01*
X11550Y282633D01*
X11500Y282233D01*
X11300Y281900D01*
X10300Y281233D01*
X9850Y280767D01*
X9550Y280100D01*
X9450Y279500D01*
X11550D01*
G01X14209D02*
Y283500D01*
X13609Y282700D01*
G01Y279500D02*
X14809D01*
G01X49391Y51167D02*
X49091Y51367D01*
X48741Y51500D01*
X48341D01*
X47891Y51300D01*
X47541Y50967D01*
X47291Y50567D01*
X47091Y49900D01*
X47041Y49300D01*
X47141Y48700D01*
X47291Y48300D01*
X47591Y47900D01*
X47941Y47633D01*
X48291Y47500D01*
X48641D01*
X48991Y47633D01*
X49291Y47833D01*
X49541Y48100D01*
G01X50900Y48300D02*
X51200Y47833D01*
X51600Y47567D01*
X52050Y47500D01*
X52450Y47567D01*
X52850Y47900D01*
X53100Y48300D01*
X53150Y48700D01*
X53050Y49167D01*
X52700Y49500D01*
X52350Y49633D01*
X51900D01*
G01X52350D02*
X52650Y49833D01*
X52900Y50167D01*
X53000Y50567D01*
X52900Y50967D01*
X52650Y51300D01*
X52200Y51500D01*
X51750Y51433D01*
X51300Y51167D01*
G01X55709Y51500D02*
X55309Y51367D01*
X55009Y51033D01*
X54809Y50633D01*
X54659Y50100D01*
X54609Y49500D01*
X54659Y48900D01*
X54809Y48367D01*
X55009Y47967D01*
X55309Y47633D01*
X55709Y47500D01*
X56109Y47633D01*
X56409Y47967D01*
X56609Y48367D01*
X56759Y48900D01*
X56809Y49500D01*
X56759Y50100D01*
X56609Y50633D01*
X56409Y51033D01*
X56109Y51367D01*
X55709Y51500D01*
G01X35833Y64391D02*
X35633Y64091D01*
X35500Y63741D01*
Y63341D01*
X35700Y62891D01*
X36033Y62541D01*
X36433Y62291D01*
X37100Y62091D01*
X37700Y62041D01*
X38300Y62141D01*
X38700Y62291D01*
X39100Y62591D01*
X39367Y62941D01*
X39500Y63291D01*
Y63641D01*
X39367Y63991D01*
X39167Y64291D01*
X38900Y64541D01*
G01X36167Y66050D02*
X35767Y66350D01*
X35567Y66700D01*
X35500Y67100D01*
X35633Y67600D01*
X35967Y67950D01*
X36367Y68050D01*
X36767Y68000D01*
X37100Y67800D01*
X37767Y66800D01*
X38233Y66350D01*
X38900Y66050D01*
X39500Y65950D01*
Y68050D01*
G01Y70709D02*
X39433Y71059D01*
X39233Y71459D01*
X38900Y71709D01*
X38433Y71809D01*
X37967Y71709D01*
X37567Y71409D01*
X37367Y70959D01*
Y70459D01*
X37233Y70159D01*
X36900Y69909D01*
X36433Y69809D01*
X35967Y69959D01*
X35633Y70309D01*
X35500Y70709D01*
X35633Y71109D01*
X35967Y71459D01*
X36433Y71609D01*
X36900Y71509D01*
X37233Y71259D01*
X37367Y70959D01*
Y70459D01*
X37567Y70009D01*
X37967Y69709D01*
X38433Y69609D01*
X38900Y69709D01*
X39233Y69959D01*
X39433Y70359D01*
X39500Y70709D01*
G01X51391Y67667D02*
X51091Y67867D01*
X50741Y68000D01*
X50341D01*
X49891Y67800D01*
X49541Y67467D01*
X49291Y67067D01*
X49091Y66400D01*
X49041Y65800D01*
X49141Y65200D01*
X49291Y64800D01*
X49591Y64400D01*
X49941Y64133D01*
X50291Y64000D01*
X50641D01*
X50991Y64133D01*
X51291Y64333D01*
X51541Y64600D01*
G01X53050Y67333D02*
X53350Y67733D01*
X53700Y67933D01*
X54100Y68000D01*
X54600Y67867D01*
X54950Y67533D01*
X55050Y67133D01*
X55000Y66733D01*
X54800Y66400D01*
X53800Y65733D01*
X53350Y65267D01*
X53050Y64600D01*
X52950Y64000D01*
X55050D01*
G01X58309D02*
Y68000D01*
X56459Y65133D01*
X58959D01*
G01X60299Y60650D02*
Y54350D01*
X47701D01*
Y60650D01*
X60299D01*
G01X43646Y120500D02*
Y116500D01*
X45646D01*
G01X47404Y119833D02*
X47704Y120233D01*
X48054Y120433D01*
X48454Y120500D01*
X48954Y120367D01*
X49304Y120033D01*
X49404Y119633D01*
X49354Y119233D01*
X49154Y118900D01*
X48154Y118233D01*
X47704Y117767D01*
X47404Y117100D01*
X47304Y116500D01*
X49404D01*
G01X44050Y109925D02*
X50350D01*
Y113075D01*
X44050D01*
Y109925D01*
G01X52191Y102500D02*
Y99633D01*
X52391Y99033D01*
X52791Y98633D01*
X53291Y98500D01*
X53791Y98633D01*
X54191Y99033D01*
X54391Y99633D01*
Y102500D01*
G01X57000Y98500D02*
Y102500D01*
X56400Y101700D01*
G01Y98500D02*
X57600D01*
G01X61309D02*
Y102500D01*
X59459Y99633D01*
X61959D01*
G01X33333Y119391D02*
X33133Y119091D01*
X33000Y118741D01*
Y118341D01*
X33200Y117891D01*
X33533Y117541D01*
X33933Y117291D01*
X34600Y117091D01*
X35200Y117041D01*
X35800Y117141D01*
X36200Y117291D01*
X36600Y117591D01*
X36867Y117941D01*
X37000Y118291D01*
Y118641D01*
X36867Y118991D01*
X36667Y119291D01*
X36400Y119541D01*
G01X33667Y121050D02*
X33267Y121350D01*
X33067Y121700D01*
X33000Y122100D01*
X33133Y122600D01*
X33467Y122950D01*
X33867Y123050D01*
X34267Y123000D01*
X34600Y122800D01*
X35267Y121800D01*
X35733Y121350D01*
X36400Y121050D01*
X37000Y120950D01*
Y123050D01*
G01X36200Y124609D02*
X36667Y124909D01*
X36933Y125309D01*
X37000Y125759D01*
X36933Y126159D01*
X36600Y126559D01*
X36200Y126809D01*
X35800Y126859D01*
X35333Y126759D01*
X35000Y126409D01*
X34867Y126059D01*
Y125609D01*
G01Y126059D02*
X34667Y126359D01*
X34333Y126609D01*
X33933Y126709D01*
X33533Y126609D01*
X33200Y126359D01*
X33000Y125909D01*
X33067Y125459D01*
X33333Y125009D01*
G01X38150Y98975D02*
X31850D01*
Y111573D01*
X38150D01*
Y98975D01*
G01X29191Y136000D02*
Y133133D01*
X29391Y132533D01*
X29791Y132133D01*
X30291Y132000D01*
X30791Y132133D01*
X31191Y132533D01*
X31391Y133133D01*
Y136000D01*
G01X34000Y132000D02*
Y136000D01*
X33400Y135200D01*
G01Y132000D02*
X34600D01*
G01X36609Y132800D02*
X36909Y132333D01*
X37309Y132067D01*
X37759Y132000D01*
X38159Y132067D01*
X38559Y132400D01*
X38809Y132800D01*
X38859Y133200D01*
X38759Y133667D01*
X38409Y134000D01*
X38059Y134133D01*
X37609D01*
G01X38059D02*
X38359Y134333D01*
X38609Y134667D01*
X38709Y135067D01*
X38609Y135467D01*
X38359Y135800D01*
X37909Y136000D01*
X37459Y135933D01*
X37009Y135667D01*
G01X34000Y216791D02*
X30000D01*
Y218041D01*
X30200Y218441D01*
X30467Y218691D01*
X31000Y218791D01*
X31533Y218691D01*
X31867Y218391D01*
X32067Y218041D01*
Y216791D01*
G01Y218041D02*
X34000Y218791D01*
G01Y222100D02*
X30000D01*
X32867Y220250D01*
Y222750D01*
G01X34000Y225209D02*
X30000D01*
X30800Y224609D01*
G01X34000D02*
Y225809D01*
G01X43773Y208850D02*
X37474D01*
Y221449D01*
X43773D01*
Y208850D01*
G01X29538Y220873D02*
Y224873D01*
X30788D01*
X31188Y224673D01*
X31438Y224406D01*
X31538Y223873D01*
X31438Y223340D01*
X31138Y223006D01*
X30788Y222806D01*
X29538D01*
G01X30788D02*
X31538Y220873D01*
G01X34846D02*
Y224873D01*
X32996Y222006D01*
X35496D01*
G01X38555Y220873D02*
Y224873D01*
X36705Y222006D01*
X39205D01*
G01X53891Y207667D02*
X53591Y207867D01*
X53241Y208000D01*
X52841D01*
X52391Y207800D01*
X52041Y207467D01*
X51791Y207067D01*
X51591Y206400D01*
X51541Y205800D01*
X51641Y205200D01*
X51791Y204800D01*
X52091Y204400D01*
X52441Y204133D01*
X52791Y204000D01*
X53141D01*
X53491Y204133D01*
X53791Y204333D01*
X54041Y204600D01*
G01X56500Y204000D02*
Y208000D01*
X55900Y207200D01*
G01Y204000D02*
X57100D01*
G01X60809D02*
Y208000D01*
X58959Y205133D01*
X61459D01*
G01X62899Y216850D02*
Y210550D01*
X50301D01*
Y216850D01*
X62899D01*
G01X36791Y232500D02*
Y236500D01*
X38041D01*
X38441Y236300D01*
X38691Y236033D01*
X38791Y235500D01*
X38691Y234967D01*
X38391Y234633D01*
X38041Y234433D01*
X36791D01*
G01X38041D02*
X38791Y232500D01*
G01X40400Y233300D02*
X40700Y232833D01*
X41100Y232567D01*
X41550Y232500D01*
X41950Y232567D01*
X42350Y232900D01*
X42600Y233300D01*
X42650Y233700D01*
X42550Y234167D01*
X42200Y234500D01*
X41850Y234633D01*
X41400D01*
G01X41850D02*
X42150Y234833D01*
X42400Y235167D01*
X42500Y235567D01*
X42400Y235967D01*
X42150Y236300D01*
X41700Y236500D01*
X41250Y236433D01*
X40800Y236167D01*
G01X44259Y235833D02*
X44559Y236233D01*
X44909Y236433D01*
X45309Y236500D01*
X45809Y236367D01*
X46159Y236033D01*
X46259Y235633D01*
X46209Y235233D01*
X46009Y234900D01*
X45009Y234233D01*
X44559Y233767D01*
X44259Y233100D01*
X44159Y232500D01*
X46259D01*
G01X49250Y239699D02*
X55550D01*
Y227101D01*
X49250D01*
Y239699D01*
G01X41291Y263000D02*
Y267000D01*
X42541D01*
X42941Y266800D01*
X43191Y266533D01*
X43291Y266000D01*
X43191Y265467D01*
X42891Y265133D01*
X42541Y264933D01*
X41291D01*
G01X42541D02*
X43291Y263000D01*
G01X46600D02*
Y267000D01*
X44750Y264133D01*
X47250D01*
G01X48759Y266333D02*
X49059Y266733D01*
X49409Y266933D01*
X49809Y267000D01*
X50309Y266867D01*
X50659Y266533D01*
X50759Y266133D01*
X50709Y265733D01*
X50509Y265400D01*
X49509Y264733D01*
X49059Y264267D01*
X48759Y263600D01*
X48659Y263000D01*
X50759D01*
G01X38677Y270350D02*
Y276650D01*
X51276D01*
Y270350D01*
X38677D01*
G01X39465Y302350D02*
Y308650D01*
X52063D01*
Y302350D01*
X39465D01*
G01X28441Y291850D02*
Y298150D01*
X41039D01*
Y291850D01*
X28441D01*
G01X46291Y326500D02*
Y322500D01*
G01X45141Y326500D02*
X47441D01*
G01X49000Y322500D02*
Y326500D01*
X50200D01*
X50600Y326300D01*
X50900Y325833D01*
X51000Y325300D01*
X50900Y324767D01*
X50650Y324367D01*
X50200Y324167D01*
X49000D01*
G01X54309Y322500D02*
Y326500D01*
X52459Y323633D01*
X54959D01*
G01X74500Y11300D02*
X74750Y10900D01*
X75050Y10633D01*
X75400Y10500D01*
X75800Y10633D01*
X76100Y10900D01*
X76400Y11300D01*
X76500Y11833D01*
Y14500D01*
G01X79209Y10500D02*
Y14500D01*
X78609Y13700D01*
G01Y10500D02*
X79809D01*
G01X82917D02*
Y14500D01*
X82317Y13700D01*
G01Y10500D02*
X83517D01*
G01X69150Y48599D02*
X75450D01*
Y36001D01*
X69150D01*
Y48599D01*
G01X65950Y36001D02*
X59650D01*
Y48599D01*
X65950D01*
Y36001D01*
G01X68291Y53500D02*
Y57500D01*
X69541D01*
X69941Y57300D01*
X70191Y57033D01*
X70291Y56500D01*
X70191Y55967D01*
X69891Y55633D01*
X69541Y55433D01*
X68291D01*
G01X69541D02*
X70291Y53500D01*
G01X72050Y56833D02*
X72350Y57233D01*
X72700Y57433D01*
X73100Y57500D01*
X73600Y57367D01*
X73950Y57033D01*
X74050Y56633D01*
X74000Y56233D01*
X73800Y55900D01*
X72800Y55233D01*
X72350Y54767D01*
X72050Y54100D01*
X71950Y53500D01*
X74050D01*
G01X76609D02*
X76709Y54367D01*
X76859Y55100D01*
X77059Y55767D01*
X77309Y56500D01*
X77709Y57500D01*
X75709D01*
G01X80891Y70167D02*
X80591Y70367D01*
X80241Y70500D01*
X79841D01*
X79391Y70300D01*
X79041Y69967D01*
X78791Y69567D01*
X78591Y68900D01*
X78541Y68300D01*
X78641Y67700D01*
X78791Y67300D01*
X79091Y66900D01*
X79441Y66633D01*
X79791Y66500D01*
X80141D01*
X80491Y66633D01*
X80791Y66833D01*
X81041Y67100D01*
G01X82400Y67300D02*
X82700Y66833D01*
X83100Y66567D01*
X83550Y66500D01*
X83950Y66567D01*
X84350Y66900D01*
X84600Y67300D01*
X84650Y67700D01*
X84550Y68167D01*
X84200Y68500D01*
X83850Y68633D01*
X83400D01*
G01X83850D02*
X84150Y68833D01*
X84400Y69167D01*
X84500Y69567D01*
X84400Y69967D01*
X84150Y70300D01*
X83700Y70500D01*
X83250Y70433D01*
X82800Y70167D01*
G01X87209Y66500D02*
Y70500D01*
X86609Y69700D01*
G01Y66500D02*
X87809D01*
G01X81391Y62167D02*
X81091Y62367D01*
X80741Y62500D01*
X80341D01*
X79891Y62300D01*
X79541Y61967D01*
X79291Y61567D01*
X79091Y60900D01*
X79041Y60300D01*
X79141Y59700D01*
X79291Y59300D01*
X79591Y58900D01*
X79941Y58633D01*
X80291Y58500D01*
X80641D01*
X80991Y58633D01*
X81291Y58833D01*
X81541Y59100D01*
G01X82900Y59300D02*
X83200Y58833D01*
X83600Y58567D01*
X84050Y58500D01*
X84450Y58567D01*
X84850Y58900D01*
X85100Y59300D01*
X85150Y59700D01*
X85050Y60167D01*
X84700Y60500D01*
X84350Y60633D01*
X83900D01*
G01X84350D02*
X84650Y60833D01*
X84900Y61167D01*
X85000Y61567D01*
X84900Y61967D01*
X84650Y62300D01*
X84200Y62500D01*
X83750Y62433D01*
X83300Y62167D01*
G01X86609Y59100D02*
X86909Y58767D01*
X87259Y58567D01*
X87709Y58500D01*
X88159Y58633D01*
X88509Y58900D01*
X88759Y59367D01*
X88809Y59900D01*
X88709Y60433D01*
X88459Y60767D01*
X88109Y61033D01*
X87759Y61100D01*
X87409Y61033D01*
X86959Y60767D01*
X87109Y62500D01*
X88459D01*
G01X77833Y88391D02*
X77633Y88091D01*
X77500Y87741D01*
Y87341D01*
X77700Y86891D01*
X78033Y86541D01*
X78433Y86291D01*
X79100Y86091D01*
X79700Y86041D01*
X80300Y86141D01*
X80700Y86291D01*
X81100Y86591D01*
X81367Y86941D01*
X81500Y87291D01*
Y87641D01*
X81367Y87991D01*
X81167Y88291D01*
X80900Y88541D01*
G01X78167Y90050D02*
X77767Y90350D01*
X77567Y90700D01*
X77500Y91100D01*
X77633Y91600D01*
X77967Y91950D01*
X78367Y92050D01*
X78767Y92000D01*
X79100Y91800D01*
X79767Y90800D01*
X80233Y90350D01*
X80900Y90050D01*
X81500Y89950D01*
Y92050D01*
G01Y94609D02*
X80633Y94709D01*
X79900Y94859D01*
X79233Y95059D01*
X78500Y95309D01*
X77500Y95709D01*
Y93709D01*
G01X61812Y111876D02*
X55513D01*
Y124474D01*
X61812D01*
Y111876D01*
G01X71312D02*
X65013D01*
Y124474D01*
X71312D01*
Y111876D01*
G01X77333Y100891D02*
X77133Y100591D01*
X77000Y100241D01*
Y99841D01*
X77200Y99391D01*
X77533Y99041D01*
X77933Y98791D01*
X78600Y98591D01*
X79200Y98541D01*
X79800Y98641D01*
X80200Y98791D01*
X80600Y99091D01*
X80867Y99441D01*
X81000Y99791D01*
Y100141D01*
X80867Y100491D01*
X80667Y100791D01*
X80400Y101041D01*
G01X77667Y102550D02*
X77267Y102850D01*
X77067Y103200D01*
X77000Y103600D01*
X77133Y104100D01*
X77467Y104450D01*
X77867Y104550D01*
X78267Y104500D01*
X78600Y104300D01*
X79267Y103300D01*
X79733Y102850D01*
X80400Y102550D01*
X81000Y102450D01*
Y104550D01*
G01X80400Y106109D02*
X80733Y106409D01*
X80933Y106759D01*
X81000Y107209D01*
X80867Y107659D01*
X80600Y108009D01*
X80133Y108259D01*
X79600Y108309D01*
X79067Y108209D01*
X78733Y107959D01*
X78467Y107609D01*
X78400Y107259D01*
X78467Y106909D01*
X78733Y106459D01*
X77000Y106609D01*
Y107959D01*
G01X60000Y129291D02*
X56000D01*
Y130541D01*
X56200Y130941D01*
X56467Y131191D01*
X57000Y131291D01*
X57533Y131191D01*
X57867Y130891D01*
X58067Y130541D01*
Y129291D01*
G01Y130541D02*
X60000Y131291D01*
G01X56667Y133050D02*
X56267Y133350D01*
X56067Y133700D01*
X56000Y134100D01*
X56133Y134600D01*
X56467Y134950D01*
X56867Y135050D01*
X57267Y135000D01*
X57600Y134800D01*
X58267Y133800D01*
X58733Y133350D01*
X59400Y133050D01*
X60000Y132950D01*
Y135050D01*
G01Y137709D02*
X59933Y138059D01*
X59733Y138459D01*
X59400Y138709D01*
X58933Y138809D01*
X58467Y138709D01*
X58067Y138409D01*
X57867Y137959D01*
Y137459D01*
X57733Y137159D01*
X57400Y136909D01*
X56933Y136809D01*
X56467Y136959D01*
X56133Y137309D01*
X56000Y137709D01*
X56133Y138109D01*
X56467Y138459D01*
X56933Y138609D01*
X57400Y138509D01*
X57733Y138259D01*
X57867Y137959D01*
Y137459D01*
X58067Y137009D01*
X58467Y136709D01*
X58933Y136609D01*
X59400Y136709D01*
X59733Y136959D01*
X59933Y137359D01*
X60000Y137709D01*
G01X70500Y130291D02*
X66500D01*
Y131541D01*
X66700Y131941D01*
X66967Y132191D01*
X67500Y132291D01*
X68033Y132191D01*
X68367Y131891D01*
X68567Y131541D01*
Y130291D01*
G01Y131541D02*
X70500Y132291D01*
G01X67167Y134050D02*
X66767Y134350D01*
X66567Y134700D01*
X66500Y135100D01*
X66633Y135600D01*
X66967Y135950D01*
X67367Y136050D01*
X67767Y136000D01*
X68100Y135800D01*
X68767Y134800D01*
X69233Y134350D01*
X69900Y134050D01*
X70500Y133950D01*
Y136050D01*
G01X70033Y137859D02*
X70367Y138209D01*
X70500Y138609D01*
X70367Y139009D01*
X69967Y139359D01*
X69367Y139609D01*
X68767Y139709D01*
X68033D01*
X67433Y139609D01*
X66900Y139359D01*
X66633Y139059D01*
X66500Y138709D01*
X66633Y138309D01*
X66900Y138009D01*
X67300Y137809D01*
X67833Y137709D01*
X68300Y137809D01*
X68767Y138059D01*
X69033Y138359D01*
X69100Y138709D01*
X68967Y139109D01*
X68633Y139409D01*
X68033Y139709D01*
G01X68291Y240500D02*
Y244500D01*
X69541D01*
X69941Y244300D01*
X70191Y244033D01*
X70291Y243500D01*
X70191Y242967D01*
X69891Y242633D01*
X69541Y242433D01*
X68291D01*
G01X69541D02*
X70291Y240500D01*
G01X73000D02*
Y244500D01*
X72400Y243700D01*
G01Y240500D02*
X73600D01*
G01X75859Y240967D02*
X76209Y240633D01*
X76609Y240500D01*
X77009Y240633D01*
X77359Y241033D01*
X77609Y241633D01*
X77709Y242233D01*
Y242967D01*
X77609Y243567D01*
X77359Y244100D01*
X77059Y244367D01*
X76709Y244500D01*
X76309Y244367D01*
X76009Y244100D01*
X75809Y243700D01*
X75709Y243167D01*
X75809Y242700D01*
X76059Y242233D01*
X76359Y241967D01*
X76709Y241900D01*
X77109Y242033D01*
X77409Y242367D01*
X77709Y242967D01*
G01X64950Y227099D02*
X58650D01*
Y239698D01*
X64950D01*
Y227099D01*
G01X62691Y250000D02*
Y247133D01*
X62891Y246533D01*
X63291Y246133D01*
X63791Y246000D01*
X64291Y246133D01*
X64691Y246533D01*
X64891Y247133D01*
Y250000D01*
G01X67500Y246000D02*
Y250000D01*
X66900Y249200D01*
G01Y246000D02*
X68100D01*
G01X71109D02*
X71209Y246867D01*
X71359Y247600D01*
X71559Y248267D01*
X71809Y249000D01*
X72209Y250000D01*
X70209D01*
G01X68937Y262000D02*
Y258000D01*
G01X67787Y262000D02*
X70087D01*
G01X71646Y258000D02*
Y262000D01*
X72846D01*
X73246Y261800D01*
X73546Y261333D01*
X73646Y260800D01*
X73546Y260267D01*
X73296Y259867D01*
X72846Y259667D01*
X71646D01*
G01X76354Y258000D02*
Y262000D01*
X75754Y261200D01*
G01Y258000D02*
X76954D01*
G01X79113Y261333D02*
X79413Y261733D01*
X79763Y261933D01*
X80163Y262000D01*
X80663Y261867D01*
X81013Y261533D01*
X81113Y261133D01*
X81063Y260733D01*
X80863Y260400D01*
X79863Y259733D01*
X79413Y259267D01*
X79113Y258600D01*
X79013Y258000D01*
X81113D01*
G01X78791Y271900D02*
Y275900D01*
X80041D01*
X80441Y275700D01*
X80691Y275433D01*
X80791Y274900D01*
X80691Y274367D01*
X80391Y274033D01*
X80041Y273833D01*
X78791D01*
G01X80041D02*
X80791Y271900D01*
G01X82400Y272700D02*
X82700Y272233D01*
X83100Y271967D01*
X83550Y271900D01*
X83950Y271967D01*
X84350Y272300D01*
X84600Y272700D01*
X84650Y273100D01*
X84550Y273567D01*
X84200Y273900D01*
X83850Y274033D01*
X83400D01*
G01X83850D02*
X84150Y274233D01*
X84400Y274567D01*
X84500Y274967D01*
X84400Y275367D01*
X84150Y275700D01*
X83700Y275900D01*
X83250Y275833D01*
X82800Y275567D01*
G01X86359Y272367D02*
X86709Y272033D01*
X87109Y271900D01*
X87509Y272033D01*
X87859Y272433D01*
X88109Y273033D01*
X88209Y273633D01*
Y274367D01*
X88109Y274967D01*
X87859Y275500D01*
X87559Y275767D01*
X87209Y275900D01*
X86809Y275767D01*
X86509Y275500D01*
X86309Y275100D01*
X86209Y274567D01*
X86309Y274100D01*
X86559Y273633D01*
X86859Y273367D01*
X87209Y273300D01*
X87609Y273433D01*
X87909Y273767D01*
X88209Y274367D01*
G01X71799Y276650D02*
Y270350D01*
X59201D01*
Y276650D01*
X71799D01*
G01X78291Y295000D02*
Y299000D01*
X79541D01*
X79941Y298800D01*
X80191Y298533D01*
X80291Y298000D01*
X80191Y297467D01*
X79891Y297133D01*
X79541Y296933D01*
X78291D01*
G01X79541D02*
X80291Y295000D01*
G01X81900Y295800D02*
X82200Y295333D01*
X82600Y295067D01*
X83050Y295000D01*
X83450Y295067D01*
X83850Y295400D01*
X84100Y295800D01*
X84150Y296200D01*
X84050Y296667D01*
X83700Y297000D01*
X83350Y297133D01*
X82900D01*
G01X83350D02*
X83650Y297333D01*
X83900Y297667D01*
X84000Y298067D01*
X83900Y298467D01*
X83650Y298800D01*
X83200Y299000D01*
X82750Y298933D01*
X82300Y298667D01*
G01X86609Y295000D02*
X86709Y295867D01*
X86859Y296600D01*
X87059Y297267D01*
X87309Y298000D01*
X87709Y299000D01*
X85709D01*
G01X72378Y300250D02*
Y293950D01*
X59780D01*
Y300250D01*
X72378D01*
G01X57791Y304500D02*
Y308500D01*
X59041D01*
X59441Y308300D01*
X59691Y308033D01*
X59791Y307500D01*
X59691Y306967D01*
X59391Y306633D01*
X59041Y306433D01*
X57791D01*
G01X59041D02*
X59791Y304500D01*
G01X63100D02*
Y308500D01*
X61250Y305633D01*
X63750D01*
G01X66209Y308500D02*
X65809Y308367D01*
X65509Y308033D01*
X65309Y307633D01*
X65159Y307100D01*
X65109Y306500D01*
X65159Y305900D01*
X65309Y305367D01*
X65509Y304967D01*
X65809Y304633D01*
X66209Y304500D01*
X66609Y304633D01*
X66909Y304967D01*
X67109Y305367D01*
X67259Y305900D01*
X67309Y306500D01*
X67259Y307100D01*
X67109Y307633D01*
X66909Y308033D01*
X66609Y308367D01*
X66209Y308500D01*
G01X68241Y326033D02*
X68641Y325700D01*
X69091Y325500D01*
X69491D01*
X69891Y325700D01*
X70191Y326033D01*
X70341Y326500D01*
X70241Y326967D01*
X69991Y327367D01*
X69541Y327633D01*
X68941Y327767D01*
X68591Y328033D01*
X68441Y328500D01*
X68541Y328967D01*
X68791Y329300D01*
X69141Y329500D01*
X69491D01*
X69841Y329367D01*
X70141Y329033D01*
G01X71500Y329500D02*
X72200Y325500D01*
X73000Y329500D01*
X73800Y325500D01*
X74500Y329500D01*
G01X76609Y325500D02*
X76709Y326367D01*
X76859Y327100D01*
X77059Y327767D01*
X77309Y328500D01*
X77709Y329500D01*
X75709D01*
G01X100096Y33500D02*
X102196Y37500D01*
G01X100096D02*
X102196Y33500D01*
G01X104854D02*
Y37500D01*
X104254Y36700D01*
G01Y33500D02*
X105454D01*
G01X107313Y63775D02*
Y57476D01*
X94714D01*
Y63775D01*
X107313D01*
G01X86701Y88850D02*
Y95150D01*
X99299D01*
Y88850D01*
X86701D01*
G01X83701Y73850D02*
Y80150D01*
X96299D01*
Y73850D01*
X83701D01*
G01X86701Y98350D02*
Y104650D01*
X99299D01*
Y98350D01*
X86701D01*
G01X95046Y203500D02*
Y200633D01*
X95246Y200033D01*
X95646Y199633D01*
X96146Y199500D01*
X96646Y199633D01*
X97046Y200033D01*
X97246Y200633D01*
Y203500D01*
G01X100454Y199500D02*
Y203500D01*
X98604Y200633D01*
X101104D01*
G01X101391Y180167D02*
X101091Y180367D01*
X100741Y180500D01*
X100341D01*
X99891Y180300D01*
X99541Y179967D01*
X99291Y179567D01*
X99091Y178900D01*
X99041Y178300D01*
X99141Y177700D01*
X99291Y177300D01*
X99591Y176900D01*
X99941Y176633D01*
X100291Y176500D01*
X100641D01*
X100991Y176633D01*
X101291Y176833D01*
X101541Y177100D01*
G01X103900Y176500D02*
X104000Y177367D01*
X104150Y178100D01*
X104350Y178767D01*
X104600Y179500D01*
X105000Y180500D01*
X103000D01*
G01X106759Y179833D02*
X107059Y180233D01*
X107409Y180433D01*
X107809Y180500D01*
X108309Y180367D01*
X108659Y180033D01*
X108759Y179633D01*
X108709Y179233D01*
X108509Y178900D01*
X107509Y178233D01*
X107059Y177767D01*
X106759Y177100D01*
X106659Y176500D01*
X108759D01*
G01X104791Y230000D02*
Y234000D01*
X106041D01*
X106441Y233800D01*
X106691Y233533D01*
X106791Y233000D01*
X106691Y232467D01*
X106391Y232133D01*
X106041Y231933D01*
X104791D01*
G01X106041D02*
X106791Y230000D01*
G01X109500D02*
Y234000D01*
X108900Y233200D01*
G01Y230000D02*
X110100D01*
G01X113209D02*
X113559Y230067D01*
X113959Y230267D01*
X114209Y230600D01*
X114309Y231067D01*
X114209Y231533D01*
X113909Y231933D01*
X113459Y232133D01*
X112959D01*
X112659Y232267D01*
X112409Y232600D01*
X112309Y233067D01*
X112459Y233533D01*
X112809Y233867D01*
X113209Y234000D01*
X113609Y233867D01*
X113959Y233533D01*
X114109Y233067D01*
X114009Y232600D01*
X113759Y232267D01*
X113459Y232133D01*
X112959D01*
X112509Y231933D01*
X112209Y231533D01*
X112109Y231067D01*
X112209Y230600D01*
X112459Y230267D01*
X112859Y230067D01*
X113209Y230000D01*
G01X97911Y249050D02*
Y242750D01*
X85313D01*
Y249050D01*
X97911D01*
G01X89391Y256167D02*
X89091Y256367D01*
X88741Y256500D01*
X88341D01*
X87891Y256300D01*
X87541Y255967D01*
X87291Y255567D01*
X87091Y254900D01*
X87041Y254300D01*
X87141Y253700D01*
X87291Y253300D01*
X87591Y252900D01*
X87941Y252633D01*
X88291Y252500D01*
X88641D01*
X88991Y252633D01*
X89291Y252833D01*
X89541Y253100D01*
G01X92000Y252500D02*
Y256500D01*
X91400Y255700D01*
G01Y252500D02*
X92600D01*
G01X94759Y255833D02*
X95059Y256233D01*
X95409Y256433D01*
X95809Y256500D01*
X96309Y256367D01*
X96659Y256033D01*
X96759Y255633D01*
X96709Y255233D01*
X96509Y254900D01*
X95509Y254233D01*
X95059Y253767D01*
X94759Y253100D01*
X94659Y252500D01*
X96759D01*
G01X105391Y274667D02*
X105091Y274867D01*
X104741Y275000D01*
X104341D01*
X103891Y274800D01*
X103541Y274467D01*
X103291Y274067D01*
X103091Y273400D01*
X103041Y272800D01*
X103141Y272200D01*
X103291Y271800D01*
X103591Y271400D01*
X103941Y271133D01*
X104291Y271000D01*
X104641D01*
X104991Y271133D01*
X105291Y271333D01*
X105541Y271600D01*
G01X106900Y271800D02*
X107200Y271333D01*
X107600Y271067D01*
X108050Y271000D01*
X108450Y271067D01*
X108850Y271400D01*
X109100Y271800D01*
X109150Y272200D01*
X109050Y272667D01*
X108700Y273000D01*
X108350Y273133D01*
X107900D01*
G01X108350D02*
X108650Y273333D01*
X108900Y273667D01*
X109000Y274067D01*
X108900Y274467D01*
X108650Y274800D01*
X108200Y275000D01*
X107750Y274933D01*
X107300Y274667D01*
G01X111609Y271000D02*
X111709Y271867D01*
X111859Y272600D01*
X112059Y273267D01*
X112309Y274000D01*
X112709Y275000D01*
X110709D01*
G01X105646Y299300D02*
X105896Y298900D01*
X106196Y298633D01*
X106546Y298500D01*
X106946Y298633D01*
X107246Y298900D01*
X107546Y299300D01*
X107646Y299833D01*
Y302500D01*
G01X110354Y298500D02*
X110704Y298567D01*
X111104Y298767D01*
X111354Y299100D01*
X111454Y299567D01*
X111354Y300033D01*
X111054Y300433D01*
X110604Y300633D01*
X110104D01*
X109804Y300767D01*
X109554Y301100D01*
X109454Y301567D01*
X109604Y302033D01*
X109954Y302367D01*
X110354Y302500D01*
X110754Y302367D01*
X111104Y302033D01*
X111254Y301567D01*
X111154Y301100D01*
X110904Y300767D01*
X110604Y300633D01*
X110104D01*
X109654Y300433D01*
X109354Y300033D01*
X109254Y299567D01*
X109354Y299100D01*
X109604Y298767D01*
X110004Y298567D01*
X110354Y298500D01*
G01X104507Y293099D02*
X110806D01*
Y280501D01*
X104507D01*
Y293099D01*
G01X124646Y22800D02*
X124896Y22400D01*
X125196Y22133D01*
X125546Y22000D01*
X125946Y22133D01*
X126246Y22400D01*
X126546Y22800D01*
X126646Y23333D01*
Y26000D01*
G01X128404Y23667D02*
X128754Y24133D01*
X129054Y24400D01*
X129454Y24533D01*
X129804Y24400D01*
X130054Y24133D01*
X130254Y23733D01*
X130304Y23267D01*
X130254Y22867D01*
X130054Y22467D01*
X129754Y22133D01*
X129404Y22000D01*
X129004Y22133D01*
X128654Y22533D01*
X128454Y23133D01*
X128404Y23800D01*
X128504Y24667D01*
X128654Y25133D01*
X128904Y25600D01*
X129254Y25933D01*
X129604Y26000D01*
X129954Y25867D01*
X130204Y25533D01*
G01X125291Y47000D02*
Y51000D01*
X126541D01*
X126941Y50800D01*
X127191Y50533D01*
X127291Y50000D01*
X127191Y49467D01*
X126891Y49133D01*
X126541Y48933D01*
X125291D01*
G01X126541D02*
X127291Y47000D01*
G01X128900Y47800D02*
X129200Y47333D01*
X129600Y47067D01*
X130050Y47000D01*
X130450Y47067D01*
X130850Y47400D01*
X131100Y47800D01*
X131150Y48200D01*
X131050Y48667D01*
X130700Y49000D01*
X130350Y49133D01*
X129900D01*
G01X130350D02*
X130650Y49333D01*
X130900Y49667D01*
X131000Y50067D01*
X130900Y50467D01*
X130650Y50800D01*
X130200Y51000D01*
X129750Y50933D01*
X129300Y50667D01*
G01X133709Y47000D02*
Y51000D01*
X133109Y50200D01*
G01Y47000D02*
X134309D01*
G01X105738Y46676D02*
Y52975D01*
X118336D01*
Y46676D01*
X105738D01*
G01X116762Y57476D02*
Y63775D01*
X129360D01*
Y57476D01*
X116762D01*
G01X112350Y184799D02*
X118650D01*
Y172201D01*
X112350D01*
Y184799D01*
G01X124391Y196167D02*
X124091Y196367D01*
X123741Y196500D01*
X123341D01*
X122891Y196300D01*
X122541Y195967D01*
X122291Y195567D01*
X122091Y194900D01*
X122041Y194300D01*
X122141Y193700D01*
X122291Y193300D01*
X122591Y192900D01*
X122941Y192633D01*
X123291Y192500D01*
X123641D01*
X123991Y192633D01*
X124291Y192833D01*
X124541Y193100D01*
G01X127000Y192500D02*
Y196500D01*
X126400Y195700D01*
G01Y192500D02*
X127600D01*
G01X129609Y193300D02*
X129909Y192833D01*
X130309Y192567D01*
X130759Y192500D01*
X131159Y192567D01*
X131559Y192900D01*
X131809Y193300D01*
X131859Y193700D01*
X131759Y194167D01*
X131409Y194500D01*
X131059Y194633D01*
X130609D01*
G01X131059D02*
X131359Y194833D01*
X131609Y195167D01*
X131709Y195567D01*
X131609Y195967D01*
X131359Y196300D01*
X130909Y196500D01*
X130459Y196433D01*
X130009Y196167D01*
G01X112550Y212926D02*
X106250D01*
Y225524D01*
X112550D01*
Y212926D01*
G01X122650Y214801D02*
X128950D01*
Y202202D01*
X122650D01*
Y214801D01*
G01X120291Y245000D02*
Y249000D01*
X121541D01*
X121941Y248800D01*
X122191Y248533D01*
X122291Y248000D01*
X122191Y247467D01*
X121891Y247133D01*
X121541Y246933D01*
X120291D01*
G01X121541D02*
X122291Y245000D01*
G01X125000D02*
Y249000D01*
X124400Y248200D01*
G01Y245000D02*
X125600D01*
G01X127759Y246667D02*
X128109Y247133D01*
X128409Y247400D01*
X128809Y247533D01*
X129159Y247400D01*
X129409Y247133D01*
X129609Y246733D01*
X129659Y246267D01*
X129609Y245867D01*
X129409Y245467D01*
X129109Y245133D01*
X128759Y245000D01*
X128359Y245133D01*
X128009Y245533D01*
X127809Y246133D01*
X127759Y246800D01*
X127859Y247667D01*
X128009Y248133D01*
X128259Y248600D01*
X128609Y248933D01*
X128959Y249000D01*
X129309Y248867D01*
X129559Y248533D01*
G01X127950Y227399D02*
X121650D01*
Y239998D01*
X127950D01*
Y227399D01*
G01X116437Y287000D02*
Y283000D01*
G01X115287Y287000D02*
X117587D01*
G01X119146Y283000D02*
Y287000D01*
X120346D01*
X120746Y286800D01*
X121046Y286333D01*
X121146Y285800D01*
X121046Y285267D01*
X120796Y284867D01*
X120346Y284667D01*
X119146D01*
G01X123854Y283000D02*
Y287000D01*
X123254Y286200D01*
G01Y283000D02*
X124454D01*
G01X126463Y283800D02*
X126763Y283333D01*
X127163Y283067D01*
X127613Y283000D01*
X128013Y283067D01*
X128413Y283400D01*
X128663Y283800D01*
X128713Y284200D01*
X128613Y284667D01*
X128263Y285000D01*
X127913Y285133D01*
X127463D01*
G01X127913D02*
X128213Y285333D01*
X128463Y285667D01*
X128563Y286067D01*
X128463Y286467D01*
X128213Y286800D01*
X127763Y287000D01*
X127313Y286933D01*
X126863Y286667D01*
G01X153401Y57750D02*
Y64050D01*
X165999D01*
Y57750D01*
X153401D01*
G01X137391Y61667D02*
X137091Y61867D01*
X136741Y62000D01*
X136341D01*
X135891Y61800D01*
X135541Y61467D01*
X135291Y61067D01*
X135091Y60400D01*
X135041Y59800D01*
X135141Y59200D01*
X135291Y58800D01*
X135591Y58400D01*
X135941Y58133D01*
X136291Y58000D01*
X136641D01*
X136991Y58133D01*
X137291Y58333D01*
X137541Y58600D01*
G01X138900Y58800D02*
X139200Y58333D01*
X139600Y58067D01*
X140050Y58000D01*
X140450Y58067D01*
X140850Y58400D01*
X141100Y58800D01*
X141150Y59200D01*
X141050Y59667D01*
X140700Y60000D01*
X140350Y60133D01*
X139900D01*
G01X140350D02*
X140650Y60333D01*
X140900Y60667D01*
X141000Y61067D01*
X140900Y61467D01*
X140650Y61800D01*
X140200Y62000D01*
X139750Y61933D01*
X139300Y61667D01*
G01X142759Y59667D02*
X143109Y60133D01*
X143409Y60400D01*
X143809Y60533D01*
X144159Y60400D01*
X144409Y60133D01*
X144609Y59733D01*
X144659Y59267D01*
X144609Y58867D01*
X144409Y58467D01*
X144109Y58133D01*
X143759Y58000D01*
X143359Y58133D01*
X143009Y58533D01*
X142809Y59133D01*
X142759Y59800D01*
X142859Y60667D01*
X143009Y61133D01*
X143259Y61600D01*
X143609Y61933D01*
X143959Y62000D01*
X144309Y61867D01*
X144559Y61533D01*
G01X135546Y155000D02*
Y152133D01*
X135746Y151533D01*
X136146Y151133D01*
X136646Y151000D01*
X137146Y151133D01*
X137546Y151533D01*
X137746Y152133D01*
Y155000D01*
G01X139404Y152667D02*
X139754Y153133D01*
X140054Y153400D01*
X140454Y153533D01*
X140804Y153400D01*
X141054Y153133D01*
X141254Y152733D01*
X141304Y152267D01*
X141254Y151867D01*
X141054Y151467D01*
X140754Y151133D01*
X140404Y151000D01*
X140004Y151133D01*
X139654Y151533D01*
X139454Y152133D01*
X139404Y152800D01*
X139504Y153667D01*
X139654Y154133D01*
X139904Y154600D01*
X140254Y154933D01*
X140604Y155000D01*
X140954Y154867D01*
X141204Y154533D01*
G01X146291Y179000D02*
Y183000D01*
X147541D01*
X147941Y182800D01*
X148191Y182533D01*
X148291Y182000D01*
X148191Y181467D01*
X147891Y181133D01*
X147541Y180933D01*
X146291D01*
G01X147541D02*
X148291Y179000D01*
G01X151600D02*
Y183000D01*
X149750Y180133D01*
X152250D01*
G01X153609Y179600D02*
X153909Y179267D01*
X154259Y179067D01*
X154709Y179000D01*
X155159Y179133D01*
X155509Y179400D01*
X155759Y179867D01*
X155809Y180400D01*
X155709Y180933D01*
X155459Y181267D01*
X155109Y181533D01*
X154759Y181600D01*
X154409Y181533D01*
X153959Y181267D01*
X154109Y183000D01*
X155459D01*
G01X153791Y191500D02*
Y195500D01*
X155041D01*
X155441Y195300D01*
X155691Y195033D01*
X155791Y194500D01*
X155691Y193967D01*
X155391Y193633D01*
X155041Y193433D01*
X153791D01*
G01X155041D02*
X155791Y191500D01*
G01X157550Y194833D02*
X157850Y195233D01*
X158200Y195433D01*
X158600Y195500D01*
X159100Y195367D01*
X159450Y195033D01*
X159550Y194633D01*
X159500Y194233D01*
X159300Y193900D01*
X158300Y193233D01*
X157850Y192767D01*
X157550Y192100D01*
X157450Y191500D01*
X159550D01*
G01X162809D02*
Y195500D01*
X160959Y192633D01*
X163459D01*
G01X155546Y204500D02*
Y201633D01*
X155746Y201033D01*
X156146Y200633D01*
X156646Y200500D01*
X157146Y200633D01*
X157546Y201033D01*
X157746Y201633D01*
Y204500D01*
G01X159254Y201300D02*
X159554Y200833D01*
X159954Y200567D01*
X160404Y200500D01*
X160804Y200567D01*
X161204Y200900D01*
X161454Y201300D01*
X161504Y201700D01*
X161404Y202167D01*
X161054Y202500D01*
X160704Y202633D01*
X160254D01*
G01X160704D02*
X161004Y202833D01*
X161254Y203167D01*
X161354Y203567D01*
X161254Y203967D01*
X161004Y204300D01*
X160554Y204500D01*
X160104Y204433D01*
X159654Y204167D01*
G01X136701Y245350D02*
Y251650D01*
X149299D01*
Y245350D01*
X136701D01*
G01X151500Y262291D02*
X147500D01*
Y263541D01*
X147700Y263941D01*
X147967Y264191D01*
X148500Y264291D01*
X149033Y264191D01*
X149367Y263891D01*
X149567Y263541D01*
Y262291D01*
G01Y263541D02*
X151500Y264291D01*
G01Y267000D02*
X147500D01*
X148300Y266400D01*
G01X151500D02*
Y267600D01*
G01Y271309D02*
X147500D01*
X150367Y269459D01*
Y271959D01*
G01X160950Y259101D02*
X154650D01*
Y271699D01*
X160950D01*
Y259101D01*
G01X139891Y258667D02*
X139591Y258867D01*
X139241Y259000D01*
X138841D01*
X138391Y258800D01*
X138041Y258467D01*
X137791Y258067D01*
X137591Y257400D01*
X137541Y256800D01*
X137641Y256200D01*
X137791Y255800D01*
X138091Y255400D01*
X138441Y255133D01*
X138791Y255000D01*
X139141D01*
X139491Y255133D01*
X139791Y255333D01*
X140041Y255600D01*
G01X142500Y255000D02*
Y259000D01*
X141900Y258200D01*
G01Y255000D02*
X143100D01*
G01X146209D02*
Y259000D01*
X145609Y258200D01*
G01Y255000D02*
X146809D01*
G01X155246Y289167D02*
X154946Y289367D01*
X154596Y289500D01*
X154196D01*
X153746Y289300D01*
X153396Y288967D01*
X153146Y288567D01*
X152946Y287900D01*
X152896Y287300D01*
X152996Y286700D01*
X153146Y286300D01*
X153446Y285900D01*
X153796Y285633D01*
X154146Y285500D01*
X154496D01*
X154846Y285633D01*
X155146Y285833D01*
X155396Y286100D01*
G01X157854Y285500D02*
Y289500D01*
X157254Y288700D01*
G01Y285500D02*
X158454D01*
G01X133937Y317500D02*
Y313500D01*
G01X132787Y317500D02*
X135087D01*
G01X136646Y313500D02*
Y317500D01*
X137846D01*
X138246Y317300D01*
X138546Y316833D01*
X138646Y316300D01*
X138546Y315767D01*
X138296Y315367D01*
X137846Y315167D01*
X136646D01*
G01X141354Y313500D02*
Y317500D01*
X140754Y316700D01*
G01Y313500D02*
X141954D01*
G01X144113Y315167D02*
X144463Y315633D01*
X144763Y315900D01*
X145163Y316033D01*
X145513Y315900D01*
X145763Y315633D01*
X145963Y315233D01*
X146013Y314767D01*
X145963Y314367D01*
X145763Y313967D01*
X145463Y313633D01*
X145113Y313500D01*
X144713Y313633D01*
X144363Y314033D01*
X144163Y314633D01*
X144113Y315300D01*
X144213Y316167D01*
X144363Y316633D01*
X144613Y317100D01*
X144963Y317433D01*
X145313Y317500D01*
X145663Y317367D01*
X145913Y317033D01*
G01X174391Y62167D02*
X174091Y62367D01*
X173741Y62500D01*
X173341D01*
X172891Y62300D01*
X172541Y61967D01*
X172291Y61567D01*
X172091Y60900D01*
X172041Y60300D01*
X172141Y59700D01*
X172291Y59300D01*
X172591Y58900D01*
X172941Y58633D01*
X173291Y58500D01*
X173641D01*
X173991Y58633D01*
X174291Y58833D01*
X174541Y59100D01*
G01X176900Y58500D02*
X177000Y59367D01*
X177150Y60100D01*
X177350Y60767D01*
X177600Y61500D01*
X178000Y62500D01*
X176000D01*
G01X180709Y58500D02*
Y62500D01*
X180109Y61700D01*
G01Y58500D02*
X181309D01*
G01X178333Y87891D02*
X178133Y87591D01*
X178000Y87241D01*
Y86841D01*
X178200Y86391D01*
X178533Y86041D01*
X178933Y85791D01*
X179600Y85591D01*
X180200Y85541D01*
X180800Y85641D01*
X181200Y85791D01*
X181600Y86091D01*
X181867Y86441D01*
X182000Y86791D01*
Y87141D01*
X181867Y87491D01*
X181667Y87791D01*
X181400Y88041D01*
G01X182000Y90500D02*
X178000D01*
X178800Y89900D01*
G01X182000D02*
Y91100D01*
G01Y94209D02*
X181933Y94559D01*
X181733Y94959D01*
X181400Y95209D01*
X180933Y95309D01*
X180467Y95209D01*
X180067Y94909D01*
X179867Y94459D01*
Y93959D01*
X179733Y93659D01*
X179400Y93409D01*
X178933Y93309D01*
X178467Y93459D01*
X178133Y93809D01*
X178000Y94209D01*
X178133Y94609D01*
X178467Y94959D01*
X178933Y95109D01*
X179400Y95009D01*
X179733Y94759D01*
X179867Y94459D01*
Y93959D01*
X180067Y93509D01*
X180467Y93209D01*
X180933Y93109D01*
X181400Y93209D01*
X181733Y93459D01*
X181933Y93859D01*
X182000Y94209D01*
G01X176850Y113299D02*
X183150D01*
Y100701D01*
X176850D01*
Y113299D01*
G01X165650Y171389D02*
X159350D01*
Y183987D01*
X165650D01*
Y171389D01*
G01X182391Y154667D02*
X182091Y154867D01*
X181741Y155000D01*
X181341D01*
X180891Y154800D01*
X180541Y154467D01*
X180291Y154067D01*
X180091Y153400D01*
X180041Y152800D01*
X180141Y152200D01*
X180291Y151800D01*
X180591Y151400D01*
X180941Y151133D01*
X181291Y151000D01*
X181641D01*
X181991Y151133D01*
X182291Y151333D01*
X182541Y151600D01*
G01X184900Y151000D02*
X185000Y151867D01*
X185150Y152600D01*
X185350Y153267D01*
X185600Y154000D01*
X186000Y155000D01*
X184000D01*
G01X187759Y152667D02*
X188109Y153133D01*
X188409Y153400D01*
X188809Y153533D01*
X189159Y153400D01*
X189409Y153133D01*
X189609Y152733D01*
X189659Y152267D01*
X189609Y151867D01*
X189409Y151467D01*
X189109Y151133D01*
X188759Y151000D01*
X188359Y151133D01*
X188009Y151533D01*
X187809Y152133D01*
X187759Y152800D01*
X187859Y153667D01*
X188009Y154133D01*
X188259Y154600D01*
X188609Y154933D01*
X188959Y155000D01*
X189309Y154867D01*
X189559Y154533D01*
G01X178701Y158350D02*
Y164650D01*
X191299D01*
Y158350D01*
X178701D01*
G01X168201Y190850D02*
Y197150D01*
X180799D01*
Y190850D01*
X168201D01*
G01X170333Y174891D02*
X170133Y174591D01*
X170000Y174241D01*
Y173841D01*
X170200Y173391D01*
X170533Y173041D01*
X170933Y172791D01*
X171600Y172591D01*
X172200Y172541D01*
X172800Y172641D01*
X173200Y172791D01*
X173600Y173091D01*
X173867Y173441D01*
X174000Y173791D01*
Y174141D01*
X173867Y174491D01*
X173667Y174791D01*
X173400Y175041D01*
G01X173200Y176400D02*
X173667Y176700D01*
X173933Y177100D01*
X174000Y177550D01*
X173933Y177950D01*
X173600Y178350D01*
X173200Y178600D01*
X172800Y178650D01*
X172333Y178550D01*
X172000Y178200D01*
X171867Y177850D01*
Y177400D01*
G01Y177850D02*
X171667Y178150D01*
X171333Y178400D01*
X170933Y178500D01*
X170533Y178400D01*
X170200Y178150D01*
X170000Y177700D01*
X170067Y177250D01*
X170333Y176800D01*
G01X174000Y181209D02*
X173933Y181559D01*
X173733Y181959D01*
X173400Y182209D01*
X172933Y182309D01*
X172467Y182209D01*
X172067Y181909D01*
X171867Y181459D01*
Y180959D01*
X171733Y180659D01*
X171400Y180409D01*
X170933Y180309D01*
X170467Y180459D01*
X170133Y180809D01*
X170000Y181209D01*
X170133Y181609D01*
X170467Y181959D01*
X170933Y182109D01*
X171400Y182009D01*
X171733Y181759D01*
X171867Y181459D01*
Y180959D01*
X172067Y180509D01*
X172467Y180209D01*
X172933Y180109D01*
X173400Y180209D01*
X173733Y180459D01*
X173933Y180859D01*
X174000Y181209D01*
G01X183250Y172701D02*
X176950D01*
Y185299D01*
X183250D01*
Y172701D01*
G01X176050Y213226D02*
X169750D01*
Y225824D01*
X176050D01*
Y213226D01*
G01X180333Y223891D02*
X180133Y223591D01*
X180000Y223241D01*
Y222841D01*
X180200Y222391D01*
X180533Y222041D01*
X180933Y221791D01*
X181600Y221591D01*
X182200Y221541D01*
X182800Y221641D01*
X183200Y221791D01*
X183600Y222091D01*
X183867Y222441D01*
X184000Y222791D01*
Y223141D01*
X183867Y223491D01*
X183667Y223791D01*
X183400Y224041D01*
G01X184000Y226500D02*
X180000D01*
X180800Y225900D01*
G01X184000D02*
Y227100D01*
G01Y230109D02*
X183133Y230209D01*
X182400Y230359D01*
X181733Y230559D01*
X181000Y230809D01*
X180000Y231209D01*
Y229209D01*
G01X185650Y203201D02*
X179350D01*
Y215799D01*
X185650D01*
Y203201D01*
G01X168291Y231500D02*
Y235500D01*
X169541D01*
X169941Y235300D01*
X170191Y235033D01*
X170291Y234500D01*
X170191Y233967D01*
X169891Y233633D01*
X169541Y233433D01*
X168291D01*
G01X169541D02*
X170291Y231500D01*
G01X173000D02*
Y235500D01*
X172400Y234700D01*
G01Y231500D02*
X173600D01*
G01X176609D02*
X176709Y232367D01*
X176859Y233100D01*
X177059Y233767D01*
X177309Y234500D01*
X177709Y235500D01*
X175709D01*
G01X178500Y261291D02*
X174500D01*
Y262541D01*
X174700Y262941D01*
X174967Y263191D01*
X175500Y263291D01*
X176033Y263191D01*
X176367Y262891D01*
X176567Y262541D01*
Y261291D01*
G01Y262541D02*
X178500Y263291D01*
G01Y266000D02*
X174500D01*
X175300Y265400D01*
G01X178500D02*
Y266600D01*
G01X177900Y268609D02*
X178233Y268909D01*
X178433Y269259D01*
X178500Y269709D01*
X178367Y270159D01*
X178100Y270509D01*
X177633Y270759D01*
X177100Y270809D01*
X176567Y270709D01*
X176233Y270459D01*
X175967Y270109D01*
X175900Y269759D01*
X175967Y269409D01*
X176233Y268959D01*
X174500Y269109D01*
Y270459D01*
G01X164250Y271699D02*
X170550D01*
Y259101D01*
X164250D01*
Y271699D01*
G01X176046Y279000D02*
Y276133D01*
X176246Y275533D01*
X176646Y275133D01*
X177146Y275000D01*
X177646Y275133D01*
X178046Y275533D01*
X178246Y276133D01*
Y279000D01*
G01X180854Y275000D02*
Y279000D01*
X180254Y278200D01*
G01Y275000D02*
X181454D01*
G01X161750Y293099D02*
X168050D01*
Y280501D01*
X161750D01*
Y293099D01*
G01X189000Y28000D02*
Y24000D01*
G01X187850Y28000D02*
X190150D01*
G01X191709Y24000D02*
Y28000D01*
X192909D01*
X193309Y27800D01*
X193609Y27333D01*
X193709Y26800D01*
X193609Y26267D01*
X193359Y25867D01*
X192909Y25667D01*
X191709D01*
G01X196417Y24000D02*
Y28000D01*
X195817Y27200D01*
G01Y24000D02*
X197017D01*
G01X199026Y24600D02*
X199326Y24267D01*
X199676Y24067D01*
X200126Y24000D01*
X200576Y24133D01*
X200926Y24400D01*
X201176Y24867D01*
X201226Y25400D01*
X201126Y25933D01*
X200876Y26267D01*
X200526Y26533D01*
X200176Y26600D01*
X199826Y26533D01*
X199376Y26267D01*
X199526Y28000D01*
X200876D01*
G01X187833Y87891D02*
X187633Y87591D01*
X187500Y87241D01*
Y86841D01*
X187700Y86391D01*
X188033Y86041D01*
X188433Y85791D01*
X189100Y85591D01*
X189700Y85541D01*
X190300Y85641D01*
X190700Y85791D01*
X191100Y86091D01*
X191367Y86441D01*
X191500Y86791D01*
Y87141D01*
X191367Y87491D01*
X191167Y87791D01*
X190900Y88041D01*
G01X188167Y89550D02*
X187767Y89850D01*
X187567Y90200D01*
X187500Y90600D01*
X187633Y91100D01*
X187967Y91450D01*
X188367Y91550D01*
X188767Y91500D01*
X189100Y91300D01*
X189767Y90300D01*
X190233Y89850D01*
X190900Y89550D01*
X191500Y89450D01*
Y91550D01*
G01X187500Y94209D02*
X187633Y93809D01*
X187967Y93509D01*
X188367Y93309D01*
X188900Y93159D01*
X189500Y93109D01*
X190100Y93159D01*
X190633Y93309D01*
X191033Y93509D01*
X191367Y93809D01*
X191500Y94209D01*
X191367Y94609D01*
X191033Y94909D01*
X190633Y95109D01*
X190100Y95259D01*
X189500Y95309D01*
X188900Y95259D01*
X188367Y95109D01*
X187967Y94909D01*
X187633Y94609D01*
X187500Y94209D01*
G01X186450Y113299D02*
X192750D01*
Y100701D01*
X186450D01*
Y113299D01*
G01X210146Y144300D02*
X210396Y143900D01*
X210696Y143633D01*
X211046Y143500D01*
X211446Y143633D01*
X211746Y143900D01*
X212046Y144300D01*
X212146Y144833D01*
Y147500D01*
G01X213754Y144100D02*
X214054Y143767D01*
X214404Y143567D01*
X214854Y143500D01*
X215304Y143633D01*
X215654Y143900D01*
X215904Y144367D01*
X215954Y144900D01*
X215854Y145433D01*
X215604Y145767D01*
X215254Y146033D01*
X214904Y146100D01*
X214554Y146033D01*
X214104Y145767D01*
X214254Y147500D01*
X215604D01*
G01X194741Y169533D02*
X195141Y169200D01*
X195591Y169000D01*
X195991D01*
X196391Y169200D01*
X196691Y169533D01*
X196841Y170000D01*
X196741Y170467D01*
X196491Y170867D01*
X196041Y171133D01*
X195441Y171267D01*
X195091Y171533D01*
X194941Y172000D01*
X195041Y172467D01*
X195291Y172800D01*
X195641Y173000D01*
X195991D01*
X196341Y172867D01*
X196641Y172533D01*
G01X198000Y173000D02*
X198700Y169000D01*
X199500Y173000D01*
X200300Y169000D01*
X201000Y173000D01*
G01X202259Y170667D02*
X202609Y171133D01*
X202909Y171400D01*
X203309Y171533D01*
X203659Y171400D01*
X203909Y171133D01*
X204109Y170733D01*
X204159Y170267D01*
X204109Y169867D01*
X203909Y169467D01*
X203609Y169133D01*
X203259Y169000D01*
X202859Y169133D01*
X202509Y169533D01*
X202309Y170133D01*
X202259Y170800D01*
X202359Y171667D01*
X202509Y172133D01*
X202759Y172600D01*
X203109Y172933D01*
X203459Y173000D01*
X203809Y172867D01*
X204059Y172533D01*
G01X193937Y193500D02*
Y189500D01*
G01X192787Y193500D02*
X195087D01*
G01X196646Y189500D02*
Y193500D01*
X197846D01*
X198246Y193300D01*
X198546Y192833D01*
X198646Y192300D01*
X198546Y191767D01*
X198296Y191367D01*
X197846Y191167D01*
X196646D01*
G01X200404Y192833D02*
X200704Y193233D01*
X201054Y193433D01*
X201454Y193500D01*
X201954Y193367D01*
X202304Y193033D01*
X202404Y192633D01*
X202354Y192233D01*
X202154Y191900D01*
X201154Y191233D01*
X200704Y190767D01*
X200404Y190100D01*
X200304Y189500D01*
X202404D01*
G01X205063D02*
Y193500D01*
X204463Y192700D01*
G01Y189500D02*
X205663D01*
G01X190833Y223391D02*
X190633Y223091D01*
X190500Y222741D01*
Y222341D01*
X190700Y221891D01*
X191033Y221541D01*
X191433Y221291D01*
X192100Y221091D01*
X192700Y221041D01*
X193300Y221141D01*
X193700Y221291D01*
X194100Y221591D01*
X194367Y221941D01*
X194500Y222291D01*
Y222641D01*
X194367Y222991D01*
X194167Y223291D01*
X193900Y223541D01*
G01X193700Y224900D02*
X194167Y225200D01*
X194433Y225600D01*
X194500Y226050D01*
X194433Y226450D01*
X194100Y226850D01*
X193700Y227100D01*
X193300Y227150D01*
X192833Y227050D01*
X192500Y226700D01*
X192367Y226350D01*
Y225900D01*
G01Y226350D02*
X192167Y226650D01*
X191833Y226900D01*
X191433Y227000D01*
X191033Y226900D01*
X190700Y226650D01*
X190500Y226200D01*
X190567Y225750D01*
X190833Y225300D01*
G01X194033Y228859D02*
X194367Y229209D01*
X194500Y229609D01*
X194367Y230009D01*
X193967Y230359D01*
X193367Y230609D01*
X192767Y230709D01*
X192033D01*
X191433Y230609D01*
X190900Y230359D01*
X190633Y230059D01*
X190500Y229709D01*
X190633Y229309D01*
X190900Y229009D01*
X191300Y228809D01*
X191833Y228709D01*
X192300Y228809D01*
X192767Y229059D01*
X193033Y229359D01*
X193100Y229709D01*
X192967Y230109D01*
X192633Y230409D01*
X192033Y230709D01*
G01X189350Y215799D02*
X195650D01*
Y203201D01*
X189350D01*
Y215799D01*
G01X189791Y238500D02*
Y242500D01*
X191041D01*
X191441Y242300D01*
X191691Y242033D01*
X191791Y241500D01*
X191691Y240967D01*
X191391Y240633D01*
X191041Y240433D01*
X189791D01*
G01X191041D02*
X191791Y238500D01*
G01X193400Y239300D02*
X193700Y238833D01*
X194100Y238567D01*
X194550Y238500D01*
X194950Y238567D01*
X195350Y238900D01*
X195600Y239300D01*
X195650Y239700D01*
X195550Y240167D01*
X195200Y240500D01*
X194850Y240633D01*
X194400D01*
G01X194850D02*
X195150Y240833D01*
X195400Y241167D01*
X195500Y241567D01*
X195400Y241967D01*
X195150Y242300D01*
X194700Y242500D01*
X194250Y242433D01*
X193800Y242167D01*
G01X197259Y240167D02*
X197609Y240633D01*
X197909Y240900D01*
X198309Y241033D01*
X198659Y240900D01*
X198909Y240633D01*
X199109Y240233D01*
X199159Y239767D01*
X199109Y239367D01*
X198909Y238967D01*
X198609Y238633D01*
X198259Y238500D01*
X197859Y238633D01*
X197509Y239033D01*
X197309Y239633D01*
X197259Y240300D01*
X197359Y241167D01*
X197509Y241633D01*
X197759Y242100D01*
X198109Y242433D01*
X198459Y242500D01*
X198809Y242367D01*
X199059Y242033D01*
G01X191891Y236667D02*
X191591Y236867D01*
X191241Y237000D01*
X190841D01*
X190391Y236800D01*
X190041Y236467D01*
X189791Y236067D01*
X189591Y235400D01*
X189541Y234800D01*
X189641Y234200D01*
X189791Y233800D01*
X190091Y233400D01*
X190441Y233133D01*
X190791Y233000D01*
X191141D01*
X191491Y233133D01*
X191791Y233333D01*
X192041Y233600D01*
G01X194500Y233000D02*
Y237000D01*
X193900Y236200D01*
G01Y233000D02*
X195100D01*
G01X197109Y233600D02*
X197409Y233267D01*
X197759Y233067D01*
X198209Y233000D01*
X198659Y233133D01*
X199009Y233400D01*
X199259Y233867D01*
X199309Y234400D01*
X199209Y234933D01*
X198959Y235267D01*
X198609Y235533D01*
X198259Y235600D01*
X197909Y235533D01*
X197459Y235267D01*
X197609Y237000D01*
X198959D01*
G01X208650Y230201D02*
X202350D01*
Y242799D01*
X208650D01*
Y230201D01*
G01X208150Y251701D02*
X201850D01*
Y264299D01*
X208150D01*
Y251701D01*
G01X204201Y272350D02*
Y278650D01*
X216799D01*
Y272350D01*
X204201D01*
G01X210291Y287500D02*
Y283500D01*
G01X209141Y287500D02*
X211441D01*
G01X213000Y283500D02*
Y287500D01*
X214200D01*
X214600Y287300D01*
X214900Y286833D01*
X215000Y286300D01*
X214900Y285767D01*
X214650Y285367D01*
X214200Y285167D01*
X213000D01*
G01X216609Y284300D02*
X216909Y283833D01*
X217309Y283567D01*
X217759Y283500D01*
X218159Y283567D01*
X218559Y283900D01*
X218809Y284300D01*
X218859Y284700D01*
X218759Y285167D01*
X218409Y285500D01*
X218059Y285633D01*
X217609D01*
G01X218059D02*
X218359Y285833D01*
X218609Y286167D01*
X218709Y286567D01*
X218609Y286967D01*
X218359Y287300D01*
X217909Y287500D01*
X217459Y287433D01*
X217009Y287167D01*
G01X187791Y299000D02*
Y295000D01*
G01X186641Y299000D02*
X188941D01*
G01X190500Y295000D02*
Y299000D01*
X191700D01*
X192100Y298800D01*
X192400Y298333D01*
X192500Y297800D01*
X192400Y297267D01*
X192150Y296867D01*
X191700Y296667D01*
X190500D01*
G01X194259Y298333D02*
X194559Y298733D01*
X194909Y298933D01*
X195309Y299000D01*
X195809Y298867D01*
X196159Y298533D01*
X196259Y298133D01*
X196209Y297733D01*
X196009Y297400D01*
X195009Y296733D01*
X194559Y296267D01*
X194259Y295600D01*
X194159Y295000D01*
X196259D01*
G01X193146Y315800D02*
X193396Y315400D01*
X193696Y315133D01*
X194046Y315000D01*
X194446Y315133D01*
X194746Y315400D01*
X195046Y315800D01*
X195146Y316333D01*
Y319000D01*
G01X197854Y315000D02*
Y319000D01*
X197254Y318200D01*
G01Y315000D02*
X198454D01*
G01X225333Y55891D02*
X225133Y55591D01*
X225000Y55241D01*
Y54841D01*
X225200Y54391D01*
X225533Y54041D01*
X225933Y53791D01*
X226600Y53591D01*
X227200Y53541D01*
X227800Y53641D01*
X228200Y53791D01*
X228600Y54091D01*
X228867Y54441D01*
X229000Y54791D01*
Y55141D01*
X228867Y55491D01*
X228667Y55791D01*
X228400Y56041D01*
G01X229000Y58400D02*
X228133Y58500D01*
X227400Y58650D01*
X226733Y58850D01*
X226000Y59100D01*
X225000Y59500D01*
Y57500D01*
G01X228200Y61109D02*
X228667Y61409D01*
X228933Y61809D01*
X229000Y62259D01*
X228933Y62659D01*
X228600Y63059D01*
X228200Y63309D01*
X227800Y63359D01*
X227333Y63259D01*
X227000Y62909D01*
X226867Y62559D01*
Y62109D01*
G01Y62559D02*
X226667Y62859D01*
X226333Y63109D01*
X225933Y63209D01*
X225533Y63109D01*
X225200Y62859D01*
X225000Y62409D01*
X225067Y61959D01*
X225333Y61509D01*
G01X221350Y51701D02*
X215050D01*
Y64299D01*
X221350D01*
Y51701D01*
G01X229000Y72291D02*
X225000D01*
Y73541D01*
X225200Y73941D01*
X225467Y74191D01*
X226000Y74291D01*
X226533Y74191D01*
X226867Y73891D01*
X227067Y73541D01*
Y72291D01*
G01Y73541D02*
X229000Y74291D01*
G01X228200Y75900D02*
X228667Y76200D01*
X228933Y76600D01*
X229000Y77050D01*
X228933Y77450D01*
X228600Y77850D01*
X228200Y78100D01*
X227800Y78150D01*
X227333Y78050D01*
X227000Y77700D01*
X226867Y77350D01*
Y76900D01*
G01Y77350D02*
X226667Y77650D01*
X226333Y77900D01*
X225933Y78000D01*
X225533Y77900D01*
X225200Y77650D01*
X225000Y77200D01*
X225067Y76750D01*
X225333Y76300D01*
G01X225000Y80709D02*
X225133Y80309D01*
X225467Y80009D01*
X225867Y79809D01*
X226400Y79659D01*
X227000Y79609D01*
X227600Y79659D01*
X228133Y79809D01*
X228533Y80009D01*
X228867Y80309D01*
X229000Y80709D01*
X228867Y81109D01*
X228533Y81409D01*
X228133Y81609D01*
X227600Y81759D01*
X227000Y81809D01*
X226400Y81759D01*
X225867Y81609D01*
X225467Y81409D01*
X225133Y81109D01*
X225000Y80709D01*
G01X215050Y83699D02*
X221350D01*
Y71101D01*
X215050D01*
Y83699D01*
G01X216291Y165000D02*
Y169000D01*
X217541D01*
X217941Y168800D01*
X218191Y168533D01*
X218291Y168000D01*
X218191Y167467D01*
X217891Y167133D01*
X217541Y166933D01*
X216291D01*
G01X217541D02*
X218291Y165000D01*
G01X221600D02*
Y169000D01*
X219750Y166133D01*
X222250D01*
G01X223759Y166667D02*
X224109Y167133D01*
X224409Y167400D01*
X224809Y167533D01*
X225159Y167400D01*
X225409Y167133D01*
X225609Y166733D01*
X225659Y166267D01*
X225609Y165867D01*
X225409Y165467D01*
X225109Y165133D01*
X224759Y165000D01*
X224359Y165133D01*
X224009Y165533D01*
X223809Y166133D01*
X223759Y166800D01*
X223859Y167667D01*
X224009Y168133D01*
X224259Y168600D01*
X224609Y168933D01*
X224959Y169000D01*
X225309Y168867D01*
X225559Y168533D01*
G01X217850Y187299D02*
X224150D01*
Y174701D01*
X217850D01*
Y187299D01*
G01X222046Y215000D02*
Y212133D01*
X222246Y211533D01*
X222646Y211133D01*
X223146Y211000D01*
X223646Y211133D01*
X224046Y211533D01*
X224246Y212133D01*
Y215000D01*
G01X225754Y211600D02*
X226054Y211267D01*
X226404Y211067D01*
X226854Y211000D01*
X227304Y211133D01*
X227654Y211400D01*
X227904Y211867D01*
X227954Y212400D01*
X227854Y212933D01*
X227604Y213267D01*
X227254Y213533D01*
X226904Y213600D01*
X226554Y213533D01*
X226104Y213267D01*
X226254Y215000D01*
X227604D01*
G01X221833Y228891D02*
X221633Y228591D01*
X221500Y228241D01*
Y227841D01*
X221700Y227391D01*
X222033Y227041D01*
X222433Y226791D01*
X223100Y226591D01*
X223700Y226541D01*
X224300Y226641D01*
X224700Y226791D01*
X225100Y227091D01*
X225367Y227441D01*
X225500Y227791D01*
Y228141D01*
X225367Y228491D01*
X225167Y228791D01*
X224900Y229041D01*
G01X225500Y231400D02*
X224633Y231500D01*
X223900Y231650D01*
X223233Y231850D01*
X222500Y232100D01*
X221500Y232500D01*
Y230500D01*
G01X225500Y235809D02*
X221500D01*
X224367Y233959D01*
Y236459D01*
G01X218150Y230201D02*
X211850D01*
Y242799D01*
X218150D01*
Y230201D01*
G01X227500Y260937D02*
X231500D01*
G01X227500Y259787D02*
Y262087D01*
G01X231500Y263646D02*
X227500D01*
Y264846D01*
X227700Y265246D01*
X228167Y265546D01*
X228700Y265646D01*
X229233Y265546D01*
X229633Y265296D01*
X229833Y264846D01*
Y263646D01*
G01X228167Y267404D02*
X227767Y267704D01*
X227567Y268054D01*
X227500Y268454D01*
X227633Y268954D01*
X227967Y269304D01*
X228367Y269404D01*
X228767Y269354D01*
X229100Y269154D01*
X229767Y268154D01*
X230233Y267704D01*
X230900Y267404D01*
X231500Y267304D01*
Y269404D01*
G01X227500Y272063D02*
X227633Y271663D01*
X227967Y271363D01*
X228367Y271163D01*
X228900Y271013D01*
X229500Y270963D01*
X230100Y271013D01*
X230633Y271163D01*
X231033Y271363D01*
X231367Y271663D01*
X231500Y272063D01*
X231367Y272463D01*
X231033Y272763D01*
X230633Y272963D01*
X230100Y273113D01*
X229500Y273163D01*
X228900Y273113D01*
X228367Y272963D01*
X227967Y272763D01*
X227633Y272463D01*
X227500Y272063D01*
G01X224746Y279167D02*
X224446Y279367D01*
X224096Y279500D01*
X223696D01*
X223246Y279300D01*
X222896Y278967D01*
X222646Y278567D01*
X222446Y277900D01*
X222396Y277300D01*
X222496Y276700D01*
X222646Y276300D01*
X222946Y275900D01*
X223296Y275633D01*
X223646Y275500D01*
X223996D01*
X224346Y275633D01*
X224646Y275833D01*
X224896Y276100D01*
G01X226254Y276300D02*
X226554Y275833D01*
X226954Y275567D01*
X227404Y275500D01*
X227804Y275567D01*
X228204Y275900D01*
X228454Y276300D01*
X228504Y276700D01*
X228404Y277167D01*
X228054Y277500D01*
X227704Y277633D01*
X227254D01*
G01X227704D02*
X228004Y277833D01*
X228254Y278167D01*
X228354Y278567D01*
X228254Y278967D01*
X228004Y279300D01*
X227554Y279500D01*
X227104Y279433D01*
X226654Y279167D01*
G01X222333Y264746D02*
X222133Y264446D01*
X222000Y264096D01*
Y263696D01*
X222200Y263246D01*
X222533Y262896D01*
X222933Y262646D01*
X223600Y262446D01*
X224200Y262396D01*
X224800Y262496D01*
X225200Y262646D01*
X225600Y262946D01*
X225867Y263296D01*
X226000Y263646D01*
Y263996D01*
X225867Y264346D01*
X225667Y264646D01*
X225400Y264896D01*
G01X224333Y266404D02*
X223867Y266754D01*
X223600Y267054D01*
X223467Y267454D01*
X223600Y267804D01*
X223867Y268054D01*
X224267Y268254D01*
X224733Y268304D01*
X225133Y268254D01*
X225533Y268054D01*
X225867Y267754D01*
X226000Y267404D01*
X225867Y267004D01*
X225467Y266654D01*
X224867Y266454D01*
X224200Y266404D01*
X223333Y266504D01*
X222867Y266654D01*
X222400Y266904D01*
X222067Y267254D01*
X222000Y267604D01*
X222133Y267954D01*
X222467Y268204D01*
G01X218650Y251701D02*
X212350D01*
Y264299D01*
X218650D01*
Y251701D01*
G54D15*
G01X0Y0D02*
X236213D01*
Y335275D01*
X0D01*
Y0D01*
G01X52121Y36750D02*
G02I-300J0D01*
G01X36850Y45800D02*
Y34000D01*
G01D02*
X54150D01*
G01X46700D02*
G03X44300I-1200J0D01*
G01X54150Y45800D02*
X36850D01*
G01X54150Y34000D02*
Y45800D01*
G01X65779Y320950D02*
G02I-300J0D01*
G01X63150Y311900D02*
X80450D01*
G01Y323700D02*
X63150D01*
G01D02*
Y311900D01*
G01X70600Y323700D02*
G03X73000I1200J0D01*
G01X80450Y311900D02*
Y323700D01*
G01X109000Y147500D02*
Y86900D01*
G01D02*
X169600D01*
G01Y147500D02*
X109000D01*
G01X169600Y91900D02*
X164600Y86900D01*
G01X169600D02*
Y147500D01*
G01X192879Y184550D02*
G02I-300J0D01*
G01X190250Y175500D02*
X207550D01*
G01D02*
Y187300D01*
G01D02*
X190250D01*
G01D02*
Y175500D01*
G01X197700Y187300D02*
G03X200100I1200J0D01*
M02*
