M48
;Layer_Color=9474304
;FILE_FORMAT=2:4
INCH,TZ
;TYPE=PLATED
T01F00S00C0.0039
;TYPE=NON_PLATED
%
T01
X3058Y9198
X5987Y6500
X6566Y6198
Y5647
Y5125
X5727Y4973
X7662Y5458
Y5773
Y6088
X8606Y5143
X8764Y5143
X8921
X9079
X9193Y4065
X8874Y3717
X8684Y3835
X8076Y3688
X10063Y4265
X10296Y4263
X10587Y5225
X10664Y5565
X10464
X9394Y7348
X9236
X9079Y7348
X8921Y7348
X8764
X8817Y9234
X8660Y9329
X9179Y8984
X9636Y9275
X9825Y9130
X10604Y2738
X10788Y2736
X10974Y2738
X20675Y2539
X23826
X19508Y11705
X18879Y11710
X18230Y12180
X18063Y12337
X17912Y12494
X17711Y12495
X17616Y12068
X17907Y12927
X18066Y13071
X18230Y12641
X18726Y13133
X19402Y13141
X19506Y16758
X18878Y16763
X18249Y17159
Y17390
X18063Y17388
X18063Y17723
X18249Y18286
X18724Y18186
X19346
X17807Y16843
X9062Y18985
X6880Y19050
X8188Y9474
X9638Y9474
X9132Y10078
X10618
X4263Y10098
X4362Y9468
X3058Y9593
X2876Y9398
Y9793
M30
